<?xml version="1.0" encoding="UTF-8" standalone="no"?>
<!DOCTYPE svg PUBLIC "-//W3C//DTD SVG 1.1//EN"
 "http://www.w3.org/Graphics/SVG/1.1/DTD/svg11.dtd">
<!-- Generated by graphviz version 2.43.0 (0)
 -->
<!-- Title: AbsCamera.hpp Pages: 1 -->
<svg width="1294pt" height="476pt"
 viewBox="0.00 0.00 1293.50 476.00" xmlns="http://www.w3.org/2000/svg" xmlns:xlink="http://www.w3.org/1999/xlink">
<g id="graph0" class="graph" transform="scale(1 1) rotate(0) translate(4 472)">
<title>AbsCamera.hpp</title>
<polygon fill="white" stroke="transparent" points="-4,4 -4,-472 1289.5,-472 1289.5,4 -4,4"/>
<!-- Node1 -->
<g id="node1" class="node">
<title>Node1</title>
<g id="a_node1"><a xlink:title=" ">
<polygon fill="#bfbfbf" stroke="black" points="738.5,-448.5 738.5,-467.5 832.5,-467.5 832.5,-448.5 738.5,-448.5"/>
<text text-anchor="middle" x="785.5" y="-455.5" font-family="Helvetica,sans-Serif" font-size="10.00">AbsCamera.hpp</text>
</a>
</g>
</g>
<!-- Node2 -->
<g id="node2" class="node">
<title>Node2</title>
<g id="a_node2"><a xlink:href="Camera_8hpp.html" target="_top" xlink:title=" ">
<polygon fill="white" stroke="black" points="123.5,-392.5 123.5,-411.5 199.5,-411.5 199.5,-392.5 123.5,-392.5"/>
<text text-anchor="middle" x="161.5" y="-399.5" font-family="Helvetica,sans-Serif" font-size="10.00">Camera.hpp</text>
</a>
</g>
</g>
<!-- Node1&#45;&gt;Node2 -->
<g id="edge1" class="edge">
<title>Node1&#45;&gt;Node2</title>
<path fill="none" stroke="midnightblue" d="M728.15,-452.04C602.37,-441.15 305.1,-415.43 199.52,-406.29"/>
<polygon fill="midnightblue" stroke="midnightblue" points="728.08,-455.54 738.34,-452.92 728.68,-448.57 728.08,-455.54"/>
</g>
<!-- Node8 -->
<g id="node8" class="node">
<title>Node8</title>
<g id="a_node8"><a xlink:href="camera__utilities_8hpp.html" target="_top" xlink:title=" ">
<polygon fill="white" stroke="black" points="1169.5,-392.5 1169.5,-411.5 1285.5,-411.5 1285.5,-392.5 1169.5,-392.5"/>
<text text-anchor="middle" x="1227.5" y="-399.5" font-family="Helvetica,sans-Serif" font-size="10.00">camera_utilities.hpp</text>
</a>
</g>
</g>
<!-- Node1&#45;&gt;Node8 -->
<g id="edge7" class="edge">
<title>Node1&#45;&gt;Node8</title>
<path fill="none" stroke="midnightblue" d="M842.84,-450.09C915.57,-441.3 1044.86,-425.64 1155.5,-412 1160,-411.44 1164.66,-410.87 1169.34,-410.29"/>
<polygon fill="midnightblue" stroke="midnightblue" points="842.03,-446.66 832.52,-451.33 842.87,-453.61 842.03,-446.66"/>
</g>
<!-- Node9 -->
<g id="node9" class="node">
<title>Node9</title>
<g id="a_node9"><a xlink:href="AbsCameraControls_8hpp.html" target="_top" xlink:title=" ">
<polygon fill="white" stroke="black" points="259.5,-280.5 259.5,-299.5 393.5,-299.5 393.5,-280.5 259.5,-280.5"/>
<text text-anchor="middle" x="326.5" y="-287.5" font-family="Helvetica,sans-Serif" font-size="10.00">AbsCameraControls.hpp</text>
</a>
</g>
</g>
<!-- Node1&#45;&gt;Node9 -->
<g id="edge8" class="edge">
<title>Node1&#45;&gt;Node9</title>
<path fill="none" stroke="midnightblue" d="M752.29,-444.99C664.16,-413.12 425.96,-326.97 350.07,-299.52"/>
<polygon fill="midnightblue" stroke="midnightblue" points="751.19,-448.32 761.79,-448.42 753.58,-441.73 751.19,-448.32"/>
</g>
<!-- Node15 -->
<g id="node15" class="node">
<title>Node15</title>
<g id="a_node15"><a xlink:href="Axes3DScene_8hpp.html" target="_top" xlink:title=" ">
<polygon fill="white" stroke="black" points="1044.5,-224.5 1044.5,-243.5 1148.5,-243.5 1148.5,-224.5 1044.5,-224.5"/>
<text text-anchor="middle" x="1096.5" y="-231.5" font-family="Helvetica,sans-Serif" font-size="10.00">Axes3DScene.hpp</text>
</a>
</g>
</g>
<!-- Node1&#45;&gt;Node15 -->
<g id="edge15" class="edge">
<title>Node1&#45;&gt;Node15</title>
<path fill="none" stroke="midnightblue" d="M842.92,-449.09C921.54,-434.82 1059.96,-396.69 1121.5,-300 1133.32,-281.44 1115.7,-256.41 1104.52,-243.5"/>
<polygon fill="midnightblue" stroke="midnightblue" points="841.95,-445.7 832.7,-450.87 843.16,-452.6 841.95,-445.7"/>
</g>
<!-- Node16 -->
<g id="node16" class="node">
<title>Node16</title>
<g id="a_node16"><a xlink:href="Scene_8hpp.html" target="_top" xlink:title=" ">
<polygon fill="white" stroke="black" points="752,-392.5 752,-411.5 819,-411.5 819,-392.5 752,-392.5"/>
<text text-anchor="middle" x="785.5" y="-399.5" font-family="Helvetica,sans-Serif" font-size="10.00">Scene.hpp</text>
</a>
</g>
</g>
<!-- Node1&#45;&gt;Node16 -->
<g id="edge16" class="edge">
<title>Node1&#45;&gt;Node16</title>
<path fill="none" stroke="midnightblue" d="M785.5,-437.8C785.5,-428.91 785.5,-418.78 785.5,-411.75"/>
<polygon fill="midnightblue" stroke="midnightblue" points="782,-438.08 785.5,-448.08 789,-438.08 782,-438.08"/>
</g>
<!-- Node3 -->
<g id="node3" class="node">
<title>Node3</title>
<g id="a_node3"><a xlink:href="OrthographicCamera_8hpp.html" target="_top" xlink:title=" ">
<polygon fill="white" stroke="black" points="68,-168.5 68,-187.5 207,-187.5 207,-168.5 68,-168.5"/>
<text text-anchor="middle" x="137.5" y="-175.5" font-family="Helvetica,sans-Serif" font-size="10.00">OrthographicCamera.hpp</text>
</a>
</g>
</g>
<!-- Node2&#45;&gt;Node3 -->
<g id="edge2" class="edge">
<title>Node2&#45;&gt;Node3</title>
<path fill="none" stroke="midnightblue" d="M159.48,-382.3C154.54,-336.64 142.02,-220.85 138.46,-187.88"/>
<polygon fill="midnightblue" stroke="midnightblue" points="156,-382.73 160.56,-392.3 162.96,-381.98 156,-382.73"/>
</g>
<!-- Node7 -->
<g id="node7" class="node">
<title>Node7</title>
<g id="a_node7"><a xlink:href="PerspectiveCamera_8hpp.html" target="_top" xlink:title=" ">
<polygon fill="white" stroke="black" points="0,-336.5 0,-355.5 133,-355.5 133,-336.5 0,-336.5"/>
<text text-anchor="middle" x="66.5" y="-343.5" font-family="Helvetica,sans-Serif" font-size="10.00">PerspectiveCamera.hpp</text>
</a>
</g>
</g>
<!-- Node2&#45;&gt;Node7 -->
<g id="edge6" class="edge">
<title>Node2&#45;&gt;Node7</title>
<path fill="none" stroke="midnightblue" d="M137.18,-387.18C119.7,-377.24 96.67,-364.15 81.73,-355.65"/>
<polygon fill="midnightblue" stroke="midnightblue" points="135.81,-390.43 146.24,-392.32 139.27,-384.34 135.81,-390.43"/>
</g>
<!-- Node4 -->
<g id="node4" class="node">
<title>Node4</title>
<g id="a_node4"><a xlink:href="AbsPlot2_8hpp.html" target="_top" xlink:title=" ">
<polygon fill="white" stroke="black" points="480.5,-112.5 480.5,-131.5 560.5,-131.5 560.5,-112.5 480.5,-112.5"/>
<text text-anchor="middle" x="520.5" y="-119.5" font-family="Helvetica,sans-Serif" font-size="10.00">AbsPlot2.hpp</text>
</a>
</g>
</g>
<!-- Node3&#45;&gt;Node4 -->
<g id="edge3" class="edge">
<title>Node3&#45;&gt;Node4</title>
<path fill="none" stroke="midnightblue" d="M208.19,-167.03C288.21,-155.75 415.82,-137.76 480.34,-128.66"/>
<polygon fill="midnightblue" stroke="midnightblue" points="207.6,-163.58 198.19,-168.44 208.58,-170.51 207.6,-163.58"/>
</g>
<!-- Node5 -->
<g id="node5" class="node">
<title>Node5</title>
<g id="a_node5"><a xlink:href="Plot2_8hpp.html" target="_top" xlink:title=" ">
<polygon fill="white" stroke="black" points="489.5,-56.5 489.5,-75.5 551.5,-75.5 551.5,-56.5 489.5,-56.5"/>
<text text-anchor="middle" x="520.5" y="-63.5" font-family="Helvetica,sans-Serif" font-size="10.00">Plot2.hpp</text>
</a>
</g>
</g>
<!-- Node4&#45;&gt;Node5 -->
<g id="edge4" class="edge">
<title>Node4&#45;&gt;Node5</title>
<path fill="none" stroke="midnightblue" d="M520.5,-101.8C520.5,-92.91 520.5,-82.78 520.5,-75.75"/>
<polygon fill="midnightblue" stroke="midnightblue" points="517,-102.08 520.5,-112.08 524,-102.08 517,-102.08"/>
</g>
<!-- Node6 -->
<g id="node6" class="node">
<title>Node6</title>
<g id="a_node6"><a xlink:href="Plot2__MarchingCubes_8hpp.html" target="_top" xlink:title=" ">
<polygon fill="white" stroke="black" points="449,-0.5 449,-19.5 592,-19.5 592,-0.5 449,-0.5"/>
<text text-anchor="middle" x="520.5" y="-7.5" font-family="Helvetica,sans-Serif" font-size="10.00">Plot2_MarchingCubes.hpp</text>
</a>
</g>
</g>
<!-- Node5&#45;&gt;Node6 -->
<g id="edge5" class="edge">
<title>Node5&#45;&gt;Node6</title>
<path fill="none" stroke="midnightblue" d="M520.5,-45.8C520.5,-36.91 520.5,-26.78 520.5,-19.75"/>
<polygon fill="midnightblue" stroke="midnightblue" points="517,-46.08 520.5,-56.08 524,-46.08 517,-46.08"/>
</g>
<!-- Node10 -->
<g id="node10" class="node">
<title>Node10</title>
<g id="a_node10"><a xlink:href="DebugCameraControls_8hpp.html" target="_top" xlink:title=" ">
<polygon fill="white" stroke="black" points="210.5,-224.5 210.5,-243.5 358.5,-243.5 358.5,-224.5 210.5,-224.5"/>
<text text-anchor="middle" x="284.5" y="-231.5" font-family="Helvetica,sans-Serif" font-size="10.00">DebugCameraControls.hpp</text>
</a>
</g>
</g>
<!-- Node9&#45;&gt;Node10 -->
<g id="edge9" class="edge">
<title>Node9&#45;&gt;Node10</title>
<path fill="none" stroke="midnightblue" d="M313.39,-272.14C306.07,-262.74 297.26,-251.4 291.31,-243.75"/>
<polygon fill="midnightblue" stroke="midnightblue" points="310.66,-274.34 319.56,-280.08 316.19,-270.04 310.66,-274.34"/>
</g>
<!-- Node11 -->
<g id="node11" class="node">
<title>Node11</title>
<g id="a_node11"><a xlink:href="MappedCameraControls_8hpp.html" target="_top" xlink:title=" ">
<polygon fill="white" stroke="black" points="377,-224.5 377,-243.5 532,-243.5 532,-224.5 377,-224.5"/>
<text text-anchor="middle" x="454.5" y="-231.5" font-family="Helvetica,sans-Serif" font-size="10.00">MappedCameraControls.hpp</text>
</a>
</g>
</g>
<!-- Node9&#45;&gt;Node11 -->
<g id="edge10" class="edge">
<title>Node9&#45;&gt;Node11</title>
<path fill="none" stroke="midnightblue" d="M356.12,-276.5C380.12,-266.38 413.28,-252.39 434.31,-243.52"/>
<polygon fill="midnightblue" stroke="midnightblue" points="354.64,-273.33 346.78,-280.44 357.36,-279.78 354.64,-273.33"/>
</g>
<!-- Node12 -->
<g id="node12" class="node">
<title>Node12</title>
<g id="a_node12"><a xlink:href="ArcBallCameraControls_8hpp.html" target="_top" xlink:title=" ">
<polygon fill="white" stroke="black" points="406,-168.5 406,-187.5 557,-187.5 557,-168.5 406,-168.5"/>
<text text-anchor="middle" x="481.5" y="-175.5" font-family="Helvetica,sans-Serif" font-size="10.00">ArcBallCameraControls.hpp</text>
</a>
</g>
</g>
<!-- Node11&#45;&gt;Node12 -->
<g id="edge11" class="edge">
<title>Node11&#45;&gt;Node12</title>
<path fill="none" stroke="midnightblue" d="M463.51,-214.98C468.09,-205.82 473.45,-195.09 477.12,-187.75"/>
<polygon fill="midnightblue" stroke="midnightblue" points="460.3,-213.57 458.96,-224.08 466.56,-216.7 460.3,-213.57"/>
</g>
<!-- Node13 -->
<g id="node13" class="node">
<title>Node13</title>
<g id="a_node13"><a xlink:href="FlyCameraControls_8hpp.html" target="_top" xlink:title=" ">
<polygon fill="white" stroke="black" points="575,-168.5 575,-187.5 706,-187.5 706,-168.5 575,-168.5"/>
<text text-anchor="middle" x="640.5" y="-175.5" font-family="Helvetica,sans-Serif" font-size="10.00">FlyCameraControls.hpp</text>
</a>
</g>
</g>
<!-- Node11&#45;&gt;Node13 -->
<g id="edge12" class="edge">
<title>Node11&#45;&gt;Node13</title>
<path fill="none" stroke="midnightblue" d="M493.88,-221.57C528.97,-211.38 579.52,-196.7 611.17,-187.52"/>
<polygon fill="midnightblue" stroke="midnightblue" points="492.6,-218.29 483.97,-224.44 494.55,-225.02 492.6,-218.29"/>
</g>
<!-- Node14 -->
<g id="node14" class="node">
<title>Node14</title>
<g id="a_node14"><a xlink:href="PanZoomCameraControls_8hpp.html" target="_top" xlink:title=" ">
<polygon fill="white" stroke="black" points="225.5,-168.5 225.5,-187.5 387.5,-187.5 387.5,-168.5 225.5,-168.5"/>
<text text-anchor="middle" x="306.5" y="-175.5" font-family="Helvetica,sans-Serif" font-size="10.00">PanZoomCameraControls.hpp</text>
</a>
</g>
</g>
<!-- Node11&#45;&gt;Node14 -->
<g id="edge13" class="edge">
<title>Node11&#45;&gt;Node14</title>
<path fill="none" stroke="midnightblue" d="M421.35,-220.91C393.53,-210.75 354.48,-196.51 329.84,-187.52"/>
<polygon fill="midnightblue" stroke="midnightblue" points="420.46,-224.3 431.05,-224.44 422.85,-217.73 420.46,-224.3"/>
</g>
<!-- Node14&#45;&gt;Node4 -->
<g id="edge14" class="edge">
<title>Node14&#45;&gt;Node4</title>
<path fill="none" stroke="midnightblue" d="M350.26,-165.96C390.67,-155.76 449.87,-140.82 486.75,-131.52"/>
<polygon fill="midnightblue" stroke="midnightblue" points="349.25,-162.6 340.41,-168.44 350.96,-169.39 349.25,-162.6"/>
</g>
<!-- Node16&#45;&gt;Node4 -->
<g id="edge26" class="edge">
<title>Node16&#45;&gt;Node4</title>
<path fill="none" stroke="midnightblue" d="M785.5,-382.25C785.5,-360.36 785.5,-323.05 785.5,-291 785.5,-291 785.5,-291 785.5,-233 785.5,-136.86 634.88,-123.16 560.75,-122.24"/>
<polygon fill="midnightblue" stroke="midnightblue" points="782,-382.44 785.5,-392.44 789,-382.44 782,-382.44"/>
</g>
<!-- Node17 -->
<g id="node17" class="node">
<title>Node17</title>
<g id="a_node17"><a xlink:href="AbsWindow_8hpp.html" target="_top" xlink:title=" ">
<polygon fill="white" stroke="black" points="582.5,-336.5 582.5,-355.5 676.5,-355.5 676.5,-336.5 582.5,-336.5"/>
<text text-anchor="middle" x="629.5" y="-343.5" font-family="Helvetica,sans-Serif" font-size="10.00">AbsWindow.hpp</text>
</a>
</g>
</g>
<!-- Node16&#45;&gt;Node17 -->
<g id="edge17" class="edge">
<title>Node16&#45;&gt;Node17</title>
<path fill="none" stroke="midnightblue" d="M751.33,-389.17C721.96,-379 680.3,-364.59 654.1,-355.52"/>
<polygon fill="midnightblue" stroke="midnightblue" points="750.19,-392.48 760.78,-392.44 752.48,-385.86 750.19,-392.48"/>
</g>
<!-- Node23 -->
<g id="node23" class="node">
<title>Node23</title>
<g id="a_node23"><a xlink:href="PartScene_8hpp.html" target="_top" xlink:title=" ">
<polygon fill="white" stroke="black" points="849.5,-336.5 849.5,-355.5 935.5,-355.5 935.5,-336.5 849.5,-336.5"/>
<text text-anchor="middle" x="892.5" y="-343.5" font-family="Helvetica,sans-Serif" font-size="10.00">PartScene.hpp</text>
</a>
</g>
</g>
<!-- Node16&#45;&gt;Node23 -->
<g id="edge27" class="edge">
<title>Node16&#45;&gt;Node23</title>
<path fill="none" stroke="midnightblue" d="M811.8,-387.73C831.61,-377.73 858.21,-364.31 875.35,-355.65"/>
<polygon fill="midnightblue" stroke="midnightblue" points="810.04,-384.69 802.69,-392.32 813.2,-390.94 810.04,-384.69"/>
</g>
<!-- Node17&#45;&gt;Node9 -->
<g id="edge23" class="edge">
<title>Node17&#45;&gt;Node9</title>
<path fill="none" stroke="midnightblue" d="M572.52,-334.85C515.3,-324.65 428.13,-309.11 374.37,-299.53"/>
<polygon fill="midnightblue" stroke="midnightblue" points="572.03,-338.31 582.49,-336.62 573.26,-331.42 572.03,-338.31"/>
</g>
<!-- Node18 -->
<g id="node18" class="node">
<title>Node18</title>
<g id="a_node18"><a xlink:href="AbsContext_8hpp.html" target="_top" xlink:title=" ">
<polygon fill="white" stroke="black" points="411.5,-280.5 411.5,-299.5 505.5,-299.5 505.5,-280.5 411.5,-280.5"/>
<text text-anchor="middle" x="458.5" y="-287.5" font-family="Helvetica,sans-Serif" font-size="10.00">AbsContext.hpp</text>
</a>
</g>
</g>
<!-- Node17&#45;&gt;Node18 -->
<g id="edge18" class="edge">
<title>Node17&#45;&gt;Node18</title>
<path fill="none" stroke="midnightblue" d="M592.46,-333.3C560.24,-323.13 514.31,-308.62 485.47,-299.52"/>
<polygon fill="midnightblue" stroke="midnightblue" points="591.81,-336.77 602.4,-336.44 593.92,-330.09 591.81,-336.77"/>
</g>
<!-- Node20 -->
<g id="node20" class="node">
<title>Node20</title>
<g id="a_node20"><a xlink:href="AbsPlot_8hpp.html" target="_top" xlink:title=" ">
<polygon fill="white" stroke="black" points="683.5,-224.5 683.5,-243.5 757.5,-243.5 757.5,-224.5 683.5,-224.5"/>
<text text-anchor="middle" x="720.5" y="-231.5" font-family="Helvetica,sans-Serif" font-size="10.00">AbsPlot.hpp</text>
</a>
</g>
</g>
<!-- Node17&#45;&gt;Node20 -->
<g id="edge25" class="edge">
<title>Node17&#45;&gt;Node20</title>
<path fill="none" stroke="midnightblue" d="M683.17,-333.08C700.65,-326.38 718.19,-316.01 728.5,-300 739.7,-282.6 730.93,-257.09 724.93,-243.79"/>
<polygon fill="midnightblue" stroke="midnightblue" points="681.8,-329.85 673.51,-336.44 684.1,-336.46 681.8,-329.85"/>
</g>
<!-- Node21 -->
<g id="node21" class="node">
<title>Node21</title>
<g id="a_node21"><a xlink:href="GLFWWindow_8hpp.html" target="_top" xlink:title=" ">
<polygon fill="white" stroke="black" points="523.5,-280.5 523.5,-299.5 627.5,-299.5 627.5,-280.5 523.5,-280.5"/>
<text text-anchor="middle" x="575.5" y="-287.5" font-family="Helvetica,sans-Serif" font-size="10.00">GLFWWindow.hpp</text>
</a>
</g>
</g>
<!-- Node17&#45;&gt;Node21 -->
<g id="edge22" class="edge">
<title>Node17&#45;&gt;Node21</title>
<path fill="none" stroke="midnightblue" d="M613.5,-329C603.93,-319.43 592.14,-307.64 584.25,-299.75"/>
<polygon fill="midnightblue" stroke="midnightblue" points="611.04,-331.49 620.58,-336.08 615.99,-326.54 611.04,-331.49"/>
</g>
<!-- Node22 -->
<g id="node22" class="node">
<title>Node22</title>
<g id="a_node22"><a xlink:href="utilities_8hpp.html" target="_top" xlink:title=" ">
<polygon fill="white" stroke="black" points="645.5,-280.5 645.5,-299.5 719.5,-299.5 719.5,-280.5 645.5,-280.5"/>
<text text-anchor="middle" x="682.5" y="-287.5" font-family="Helvetica,sans-Serif" font-size="10.00">utilities.hpp</text>
</a>
</g>
</g>
<!-- Node17&#45;&gt;Node22 -->
<g id="edge24" class="edge">
<title>Node17&#45;&gt;Node22</title>
<path fill="none" stroke="midnightblue" d="M645.48,-328.72C654.82,-319.2 666.25,-307.56 673.91,-299.75"/>
<polygon fill="midnightblue" stroke="midnightblue" points="642.76,-326.49 638.25,-336.08 647.75,-331.4 642.76,-326.49"/>
</g>
<!-- Node19 -->
<g id="node19" class="node">
<title>Node19</title>
<g id="a_node19"><a xlink:href="GLFWContext_8hpp.html" target="_top" xlink:title=" ">
<polygon fill="white" stroke="black" points="550.5,-224.5 550.5,-243.5 654.5,-243.5 654.5,-224.5 550.5,-224.5"/>
<text text-anchor="middle" x="602.5" y="-231.5" font-family="Helvetica,sans-Serif" font-size="10.00">GLFWContext.hpp</text>
</a>
</g>
</g>
<!-- Node18&#45;&gt;Node19 -->
<g id="edge19" class="edge">
<title>Node18&#45;&gt;Node19</title>
<path fill="none" stroke="midnightblue" d="M490.75,-276.91C517.82,-266.75 555.82,-252.51 579.79,-243.52"/>
<polygon fill="midnightblue" stroke="midnightblue" points="489.45,-273.66 481.32,-280.44 491.91,-280.21 489.45,-273.66"/>
</g>
<!-- Node18&#45;&gt;Node20 -->
<g id="edge20" class="edge">
<title>Node18&#45;&gt;Node20</title>
<path fill="none" stroke="midnightblue" d="M509.86,-278.41C560.94,-267.89 638.03,-252 683.42,-242.64"/>
<polygon fill="midnightblue" stroke="midnightblue" points="509.1,-275 500.01,-280.44 510.52,-281.85 509.1,-275"/>
</g>
<!-- Node20&#45;&gt;Node4 -->
<g id="edge21" class="edge">
<title>Node20&#45;&gt;Node4</title>
<path fill="none" stroke="midnightblue" d="M724.18,-213.98C725.8,-199.64 725.32,-180.4 714.5,-168 694.61,-145.21 611.26,-132.55 560.5,-126.82"/>
<polygon fill="midnightblue" stroke="midnightblue" points="720.67,-213.78 722.6,-224.2 727.59,-214.85 720.67,-213.78"/>
</g>
<!-- Node24 -->
<g id="node24" class="node">
<title>Node24</title>
<g id="a_node24"><a xlink:href="GenericPartScene_8hpp.html" target="_top" xlink:title=" ">
<polygon fill="white" stroke="black" points="990,-280.5 990,-299.5 1113,-299.5 1113,-280.5 990,-280.5"/>
<text text-anchor="middle" x="1051.5" y="-287.5" font-family="Helvetica,sans-Serif" font-size="10.00">GenericPartScene.hpp</text>
</a>
</g>
</g>
<!-- Node23&#45;&gt;Node24 -->
<g id="edge28" class="edge">
<title>Node23&#45;&gt;Node24</title>
<path fill="none" stroke="midnightblue" d="M927.33,-333.17C957.27,-323 999.72,-308.59 1026.42,-299.52"/>
<polygon fill="midnightblue" stroke="midnightblue" points="926.04,-329.91 917.69,-336.44 928.29,-336.54 926.04,-329.91"/>
</g>
<!-- Node25 -->
<g id="node25" class="node">
<title>Node25</title>
<g id="a_node25"><a xlink:href="Triangulated3DPartScene_8hpp.html" target="_top" xlink:title=" ">
<polygon fill="white" stroke="black" points="813,-280.5 813,-299.5 972,-299.5 972,-280.5 813,-280.5"/>
<text text-anchor="middle" x="892.5" y="-287.5" font-family="Helvetica,sans-Serif" font-size="10.00">Triangulated3DPartScene.hpp</text>
</a>
</g>
</g>
<!-- Node23&#45;&gt;Node25 -->
<g id="edge30" class="edge">
<title>Node23&#45;&gt;Node25</title>
<path fill="none" stroke="midnightblue" d="M892.5,-325.8C892.5,-316.91 892.5,-306.78 892.5,-299.75"/>
<polygon fill="midnightblue" stroke="midnightblue" points="889,-326.08 892.5,-336.08 896,-326.08 889,-326.08"/>
</g>
<!-- Node24&#45;&gt;Node15 -->
<g id="edge29" class="edge">
<title>Node24&#45;&gt;Node15</title>
<path fill="none" stroke="midnightblue" d="M1065.55,-272.14C1073.39,-262.74 1082.83,-251.4 1089.21,-243.75"/>
<polygon fill="midnightblue" stroke="midnightblue" points="1062.64,-270.16 1058.93,-280.08 1068.02,-274.64 1062.64,-270.16"/>
</g>
</g>
</svg>
