<?xml version="1.0" encoding="UTF-8" standalone="no"?>
<!DOCTYPE svg PUBLIC "-//W3C//DTD SVG 1.1//EN"
 "http://www.w3.org/Graphics/SVG/1.1/DTD/svg11.dtd">
<!-- Generated by graphviz version 2.43.0 (0)
 -->
<!-- Title: AbsCamera.hpp Pages: 1 -->
<svg width="661pt" height="151pt"
 viewBox="0.00 0.00 660.63 151.00" xmlns="http://www.w3.org/2000/svg" xmlns:xlink="http://www.w3.org/1999/xlink">
<g id="graph0" class="graph" transform="scale(1 1) rotate(0) translate(4 147)">
<title>AbsCamera.hpp</title>
<polygon fill="white" stroke="transparent" points="-4,4 -4,-147 656.63,-147 656.63,4 -4,4"/>
<!-- Node1 -->
<g id="node1" class="node">
<title>Node1</title>
<g id="a_node1"><a xlink:title=" ">
<polygon fill="#bfbfbf" stroke="black" points="307.13,-123.5 307.13,-142.5 401.13,-142.5 401.13,-123.5 307.13,-123.5"/>
<text text-anchor="middle" x="354.13" y="-130.5" font-family="Helvetica,sans-Serif" font-size="10.00">AbsCamera.hpp</text>
</a>
</g>
</g>
<!-- Node2 -->
<g id="node2" class="node">
<title>Node2</title>
<g id="a_node2"><a xlink:title=" ">
<polygon fill="white" stroke="#bfbfbf" points="204.13,-0.5 204.13,-19.5 282.13,-19.5 282.13,-0.5 204.13,-0.5"/>
<text text-anchor="middle" x="243.13" y="-7.5" font-family="Helvetica,sans-Serif" font-size="10.00">glm/glm.hpp</text>
</a>
</g>
</g>
<!-- Node1&#45;&gt;Node2 -->
<g id="edge1" class="edge">
<title>Node1&#45;&gt;Node2</title>
<path fill="none" stroke="midnightblue" d="M306.9,-129.21C217.42,-123.45 30.35,-108.9 11.13,-87 -41.87,-26.58 110.96,-13.97 193.76,-11.49"/>
<polygon fill="midnightblue" stroke="midnightblue" points="194.07,-14.99 203.98,-11.23 193.89,-7.99 194.07,-14.99"/>
</g>
<!-- Node3 -->
<g id="node3" class="node">
<title>Node3</title>
<g id="a_node3"><a target="_parent" xlink:href="../../../cieutils/docs/html/Loggee_8hpp.html.html" xlink:title=" ">
<polygon fill="white" stroke="black" points="20.63,-56.5 20.63,-86.5 139.63,-86.5 139.63,-56.5 20.63,-56.5"/>
<text text-anchor="start" x="28.63" y="-74.5" font-family="Helvetica,sans-Serif" font-size="10.00">packages/logging/inc</text>
<text text-anchor="middle" x="80.13" y="-63.5" font-family="Helvetica,sans-Serif" font-size="10.00">/Loggee.hpp</text>
</a>
</g>
</g>
<!-- Node1&#45;&gt;Node3 -->
<g id="edge2" class="edge">
<title>Node1&#45;&gt;Node3</title>
<path fill="none" stroke="midnightblue" d="M314.88,-123.48C271.85,-114.13 201.99,-98.96 149.65,-87.59"/>
<polygon fill="midnightblue" stroke="midnightblue" points="150.27,-84.15 139.76,-85.45 148.79,-90.99 150.27,-84.15"/>
</g>
<!-- Node4 -->
<g id="node4" class="node">
<title>Node4</title>
<g id="a_node4"><a target="_parent" xlink:href="../../../cieutils/docs/html/LoggerSingleton_8hpp.html.html" xlink:title=" ">
<polygon fill="white" stroke="black" points="157.63,-56.5 157.63,-86.5 276.63,-86.5 276.63,-56.5 157.63,-56.5"/>
<text text-anchor="start" x="165.63" y="-74.5" font-family="Helvetica,sans-Serif" font-size="10.00">packages/logging/inc</text>
<text text-anchor="middle" x="217.13" y="-63.5" font-family="Helvetica,sans-Serif" font-size="10.00">/LoggerSingleton.hpp</text>
</a>
</g>
</g>
<!-- Node1&#45;&gt;Node4 -->
<g id="edge3" class="edge">
<title>Node1&#45;&gt;Node4</title>
<path fill="none" stroke="midnightblue" d="M334.51,-123.48C314.82,-114.93 283.91,-101.5 258.75,-90.57"/>
<polygon fill="midnightblue" stroke="midnightblue" points="259.99,-87.3 249.42,-86.52 257.2,-93.72 259.99,-87.3"/>
</g>
<!-- Node5 -->
<g id="node5" class="node">
<title>Node5</title>
<g id="a_node5"><a target="_parent" xlink:href="../../../cieutils/docs/html/typedefs_8hpp.html.html" xlink:title=" ">
<polygon fill="white" stroke="black" points="294.63,-56.5 294.63,-86.5 413.63,-86.5 413.63,-56.5 294.63,-56.5"/>
<text text-anchor="start" x="302.63" y="-74.5" font-family="Helvetica,sans-Serif" font-size="10.00">packages/macros/inc</text>
<text text-anchor="middle" x="354.13" y="-63.5" font-family="Helvetica,sans-Serif" font-size="10.00">/typedefs.hpp</text>
</a>
</g>
</g>
<!-- Node1&#45;&gt;Node5 -->
<g id="edge4" class="edge">
<title>Node1&#45;&gt;Node5</title>
<path fill="none" stroke="midnightblue" d="M354.13,-123.48C354.13,-116.47 354.13,-106.19 354.13,-96.7"/>
<polygon fill="midnightblue" stroke="midnightblue" points="357.63,-96.52 354.13,-86.52 350.63,-96.52 357.63,-96.52"/>
</g>
<!-- Node6 -->
<g id="node6" class="node">
<title>Node6</title>
<g id="a_node6"><a xlink:href="RigidBody_8hpp.html" target="_top" xlink:title=" ">
<polygon fill="white" stroke="black" points="431.63,-56.5 431.63,-86.5 550.63,-86.5 550.63,-56.5 431.63,-56.5"/>
<text text-anchor="start" x="439.63" y="-74.5" font-family="Helvetica,sans-Serif" font-size="10.00">packages/camera/inc</text>
<text text-anchor="middle" x="491.13" y="-63.5" font-family="Helvetica,sans-Serif" font-size="10.00">/RigidBody.hpp</text>
</a>
</g>
</g>
<!-- Node1&#45;&gt;Node6 -->
<g id="edge5" class="edge">
<title>Node1&#45;&gt;Node6</title>
<path fill="none" stroke="midnightblue" d="M373.76,-123.48C393.45,-114.93 424.36,-101.5 449.52,-90.57"/>
<polygon fill="midnightblue" stroke="midnightblue" points="451.07,-93.72 458.85,-86.52 448.28,-87.3 451.07,-93.72"/>
</g>
<!-- Node7 -->
<g id="node7" class="node">
<title>Node7</title>
<g id="a_node7"><a xlink:title=" ">
<polygon fill="white" stroke="#bfbfbf" points="506.13,-0.5 506.13,-19.5 564.13,-19.5 564.13,-0.5 506.13,-0.5"/>
<text text-anchor="middle" x="535.13" y="-7.5" font-family="Helvetica,sans-Serif" font-size="10.00">memory</text>
</a>
</g>
</g>
<!-- Node1&#45;&gt;Node7 -->
<g id="edge9" class="edge">
<title>Node1&#45;&gt;Node7</title>
<path fill="none" stroke="midnightblue" d="M401.17,-128.43C455.68,-123.2 540.56,-111.31 560.13,-87 573.95,-69.84 561.05,-44.76 549.23,-28.17"/>
<polygon fill="midnightblue" stroke="midnightblue" points="551.8,-25.77 542.96,-19.93 546.23,-30.01 551.8,-25.77"/>
</g>
<!-- Node8 -->
<g id="node8" class="node">
<title>Node8</title>
<g id="a_node8"><a xlink:title=" ">
<polygon fill="white" stroke="#bfbfbf" points="607.63,-62 607.63,-81 652.63,-81 652.63,-62 607.63,-62"/>
<text text-anchor="middle" x="630.13" y="-69" font-family="Helvetica,sans-Serif" font-size="10.00">utility</text>
</a>
</g>
</g>
<!-- Node1&#45;&gt;Node8 -->
<g id="edge8" class="edge">
<title>Node1&#45;&gt;Node8</title>
<path fill="none" stroke="midnightblue" d="M401.45,-125.76C450.11,-118.73 527.8,-105.77 593.13,-87 595.72,-86.26 598.37,-85.41 601.02,-84.49"/>
<polygon fill="midnightblue" stroke="midnightblue" points="602.24,-87.77 610.4,-81.02 599.81,-81.21 602.24,-87.77"/>
</g>
<!-- Node6&#45;&gt;Node2 -->
<g id="edge6" class="edge">
<title>Node6&#45;&gt;Node2</title>
<path fill="none" stroke="midnightblue" d="M432.68,-56.47C388.58,-45.9 328.97,-31.59 288.46,-21.87"/>
<polygon fill="midnightblue" stroke="midnightblue" points="289.13,-18.44 278.59,-19.51 287.5,-25.24 289.13,-18.44"/>
</g>
<!-- Node6&#45;&gt;Node7 -->
<g id="edge7" class="edge">
<title>Node6&#45;&gt;Node7</title>
<path fill="none" stroke="midnightblue" d="M501.56,-56.4C507.89,-47.84 516,-36.87 522.67,-27.86"/>
<polygon fill="midnightblue" stroke="midnightblue" points="525.6,-29.78 528.73,-19.66 519.97,-25.62 525.6,-29.78"/>
</g>
</g>
</svg>
