<?xml version="1.0" encoding="UTF-8" standalone="no"?>
<!DOCTYPE svg PUBLIC "-//W3C//DTD SVG 1.1//EN"
 "http://www.w3.org/Graphics/SVG/1.1/DTD/svg11.dtd">
<!-- Generated by graphviz version 2.43.0 (0)
 -->
<!-- Title: AbsCameraControls.hpp Pages: 1 -->
<svg width="498pt" height="308pt"
 viewBox="0.00 0.00 498.00 308.00" xmlns="http://www.w3.org/2000/svg" xmlns:xlink="http://www.w3.org/1999/xlink">
<g id="graph0" class="graph" transform="scale(1 1) rotate(0) translate(4 304)">
<title>AbsCameraControls.hpp</title>
<polygon fill="white" stroke="transparent" points="-4,4 -4,-304 494,-304 494,4 -4,4"/>
<!-- Node1 -->
<g id="node1" class="node">
<title>Node1</title>
<g id="a_node1"><a xlink:title=" ">
<polygon fill="#bfbfbf" stroke="black" points="92,-280.5 92,-299.5 226,-299.5 226,-280.5 92,-280.5"/>
<text text-anchor="middle" x="159" y="-287.5" font-family="Helvetica,sans-Serif" font-size="10.00">AbsCameraControls.hpp</text>
</a>
</g>
</g>
<!-- Node2 -->
<g id="node2" class="node">
<title>Node2</title>
<g id="a_node2"><a xlink:href="DebugCameraControls_8hpp.html" target="_top" xlink:title=" ">
<polygon fill="white" stroke="black" points="0,-224.5 0,-243.5 148,-243.5 148,-224.5 0,-224.5"/>
<text text-anchor="middle" x="74" y="-231.5" font-family="Helvetica,sans-Serif" font-size="10.00">DebugCameraControls.hpp</text>
</a>
</g>
</g>
<!-- Node1&#45;&gt;Node2 -->
<g id="edge1" class="edge">
<title>Node1&#45;&gt;Node2</title>
<path fill="none" stroke="midnightblue" d="M136.81,-274.9C121.22,-265 100.87,-252.07 87.62,-243.65"/>
<polygon fill="midnightblue" stroke="midnightblue" points="135.03,-277.92 145.34,-280.32 138.78,-272.01 135.03,-277.92"/>
</g>
<!-- Node3 -->
<g id="node3" class="node">
<title>Node3</title>
<g id="a_node3"><a xlink:href="MappedCameraControls_8hpp.html" target="_top" xlink:title=" ">
<polygon fill="white" stroke="black" points="166.5,-224.5 166.5,-243.5 321.5,-243.5 321.5,-224.5 166.5,-224.5"/>
<text text-anchor="middle" x="244" y="-231.5" font-family="Helvetica,sans-Serif" font-size="10.00">MappedCameraControls.hpp</text>
</a>
</g>
</g>
<!-- Node1&#45;&gt;Node3 -->
<g id="edge2" class="edge">
<title>Node1&#45;&gt;Node3</title>
<path fill="none" stroke="midnightblue" d="M181.19,-274.9C196.78,-265 217.13,-252.07 230.38,-243.65"/>
<polygon fill="midnightblue" stroke="midnightblue" points="179.22,-272.01 172.66,-280.32 182.97,-277.92 179.22,-272.01"/>
</g>
<!-- Node4 -->
<g id="node4" class="node">
<title>Node4</title>
<g id="a_node4"><a xlink:href="ArcBallCameraControls_8hpp.html" target="_top" xlink:title=" ">
<polygon fill="white" stroke="black" points="9.5,-168.5 9.5,-187.5 160.5,-187.5 160.5,-168.5 9.5,-168.5"/>
<text text-anchor="middle" x="85" y="-175.5" font-family="Helvetica,sans-Serif" font-size="10.00">ArcBallCameraControls.hpp</text>
</a>
</g>
</g>
<!-- Node3&#45;&gt;Node4 -->
<g id="edge3" class="edge">
<title>Node3&#45;&gt;Node4</title>
<path fill="none" stroke="midnightblue" d="M209.17,-221.17C179.23,-211 136.78,-196.59 110.08,-187.52"/>
<polygon fill="midnightblue" stroke="midnightblue" points="208.21,-224.54 218.81,-224.44 210.46,-217.91 208.21,-224.54"/>
</g>
<!-- Node5 -->
<g id="node5" class="node">
<title>Node5</title>
<g id="a_node5"><a xlink:href="FlyCameraControls_8hpp.html" target="_top" xlink:title=" ">
<polygon fill="white" stroke="black" points="178.5,-168.5 178.5,-187.5 309.5,-187.5 309.5,-168.5 178.5,-168.5"/>
<text text-anchor="middle" x="244" y="-175.5" font-family="Helvetica,sans-Serif" font-size="10.00">FlyCameraControls.hpp</text>
</a>
</g>
</g>
<!-- Node3&#45;&gt;Node5 -->
<g id="edge4" class="edge">
<title>Node3&#45;&gt;Node5</title>
<path fill="none" stroke="midnightblue" d="M244,-213.8C244,-204.91 244,-194.78 244,-187.75"/>
<polygon fill="midnightblue" stroke="midnightblue" points="240.5,-214.08 244,-224.08 247.5,-214.08 240.5,-214.08"/>
</g>
<!-- Node6 -->
<g id="node6" class="node">
<title>Node6</title>
<g id="a_node6"><a xlink:href="PanZoomCameraControls_8hpp.html" target="_top" xlink:title=" ">
<polygon fill="white" stroke="black" points="328,-168.5 328,-187.5 490,-187.5 490,-168.5 328,-168.5"/>
<text text-anchor="middle" x="409" y="-175.5" font-family="Helvetica,sans-Serif" font-size="10.00">PanZoomCameraControls.hpp</text>
</a>
</g>
</g>
<!-- Node3&#45;&gt;Node6 -->
<g id="edge5" class="edge">
<title>Node3&#45;&gt;Node6</title>
<path fill="none" stroke="midnightblue" d="M279.74,-221.3C310.83,-211.13 355.15,-196.62 382.98,-187.52"/>
<polygon fill="midnightblue" stroke="midnightblue" points="278.56,-218.01 270.14,-224.44 280.74,-224.66 278.56,-218.01"/>
</g>
<!-- Node7 -->
<g id="node7" class="node">
<title>Node7</title>
<g id="a_node7"><a xlink:href="AbsPlot2_8hpp.html" target="_top" xlink:title=" ">
<polygon fill="white" stroke="black" points="369,-112.5 369,-131.5 449,-131.5 449,-112.5 369,-112.5"/>
<text text-anchor="middle" x="409" y="-119.5" font-family="Helvetica,sans-Serif" font-size="10.00">AbsPlot2.hpp</text>
</a>
</g>
</g>
<!-- Node6&#45;&gt;Node7 -->
<g id="edge6" class="edge">
<title>Node6&#45;&gt;Node7</title>
<path fill="none" stroke="midnightblue" d="M409,-157.8C409,-148.91 409,-138.78 409,-131.75"/>
<polygon fill="midnightblue" stroke="midnightblue" points="405.5,-158.08 409,-168.08 412.5,-158.08 405.5,-158.08"/>
</g>
<!-- Node8 -->
<g id="node8" class="node">
<title>Node8</title>
<g id="a_node8"><a xlink:href="Plot2_8hpp.html" target="_top" xlink:title=" ">
<polygon fill="white" stroke="black" points="378,-56.5 378,-75.5 440,-75.5 440,-56.5 378,-56.5"/>
<text text-anchor="middle" x="409" y="-63.5" font-family="Helvetica,sans-Serif" font-size="10.00">Plot2.hpp</text>
</a>
</g>
</g>
<!-- Node7&#45;&gt;Node8 -->
<g id="edge7" class="edge">
<title>Node7&#45;&gt;Node8</title>
<path fill="none" stroke="midnightblue" d="M409,-101.8C409,-92.91 409,-82.78 409,-75.75"/>
<polygon fill="midnightblue" stroke="midnightblue" points="405.5,-102.08 409,-112.08 412.5,-102.08 405.5,-102.08"/>
</g>
<!-- Node9 -->
<g id="node9" class="node">
<title>Node9</title>
<g id="a_node9"><a xlink:href="Plot2__MarchingCubes_8hpp.html" target="_top" xlink:title=" ">
<polygon fill="white" stroke="black" points="337.5,-0.5 337.5,-19.5 480.5,-19.5 480.5,-0.5 337.5,-0.5"/>
<text text-anchor="middle" x="409" y="-7.5" font-family="Helvetica,sans-Serif" font-size="10.00">Plot2_MarchingCubes.hpp</text>
</a>
</g>
</g>
<!-- Node8&#45;&gt;Node9 -->
<g id="edge8" class="edge">
<title>Node8&#45;&gt;Node9</title>
<path fill="none" stroke="midnightblue" d="M409,-45.8C409,-36.91 409,-26.78 409,-19.75"/>
<polygon fill="midnightblue" stroke="midnightblue" points="405.5,-46.08 409,-56.08 412.5,-46.08 405.5,-46.08"/>
</g>
</g>
</svg>
