<?xml version="1.0" encoding="UTF-8" standalone="no"?>
<!DOCTYPE svg PUBLIC "-//W3C//DTD SVG 1.1//EN"
 "http://www.w3.org/Graphics/SVG/1.1/DTD/svg11.dtd">
<!-- Generated by graphviz version 2.43.0 (0)
 -->
<!-- Title: AbsGLShape.hpp Pages: 1 -->
<svg width="212pt" height="252pt"
 viewBox="0.00 0.00 211.50 252.00" xmlns="http://www.w3.org/2000/svg" xmlns:xlink="http://www.w3.org/1999/xlink">
<g id="graph0" class="graph" transform="scale(1 1) rotate(0) translate(4 248)">
<title>AbsGLShape.hpp</title>
<polygon fill="white" stroke="transparent" points="-4,4 -4,-248 207.5,-248 207.5,4 -4,4"/>
<!-- Node1 -->
<g id="node1" class="node">
<title>Node1</title>
<g id="a_node1"><a xlink:title=" ">
<polygon fill="#bfbfbf" stroke="black" points="38.5,-224.5 38.5,-243.5 136.5,-243.5 136.5,-224.5 38.5,-224.5"/>
<text text-anchor="middle" x="87.5" y="-231.5" font-family="Helvetica,sans-Serif" font-size="10.00">AbsGLShape.hpp</text>
</a>
</g>
</g>
<!-- Node2 -->
<g id="node2" class="node">
<title>Node2</title>
<g id="a_node2"><a xlink:href="GLShape_8hpp.html" target="_top" xlink:title=" ">
<polygon fill="white" stroke="black" points="47.5,-168.5 47.5,-187.5 127.5,-187.5 127.5,-168.5 47.5,-168.5"/>
<text text-anchor="middle" x="87.5" y="-175.5" font-family="Helvetica,sans-Serif" font-size="10.00">GLShape.hpp</text>
</a>
</g>
</g>
<!-- Node1&#45;&gt;Node2 -->
<g id="edge1" class="edge">
<title>Node1&#45;&gt;Node2</title>
<path fill="none" stroke="midnightblue" d="M87.5,-213.8C87.5,-204.91 87.5,-194.78 87.5,-187.75"/>
<polygon fill="midnightblue" stroke="midnightblue" points="84,-214.08 87.5,-224.08 91,-214.08 84,-214.08"/>
</g>
<!-- Node3 -->
<g id="node3" class="node">
<title>Node3</title>
<g id="a_node3"><a xlink:href="Arrow_8hpp.html" target="_top" xlink:title=" ">
<polygon fill="white" stroke="black" points="0,-112.5 0,-131.5 65,-131.5 65,-112.5 0,-112.5"/>
<text text-anchor="middle" x="32.5" y="-119.5" font-family="Helvetica,sans-Serif" font-size="10.00">Arrow.hpp</text>
</a>
</g>
</g>
<!-- Node2&#45;&gt;Node3 -->
<g id="edge2" class="edge">
<title>Node2&#45;&gt;Node3</title>
<path fill="none" stroke="midnightblue" d="M71.21,-161C61.46,-151.43 49.45,-139.64 41.41,-131.75"/>
<polygon fill="midnightblue" stroke="midnightblue" points="68.83,-163.57 78.42,-168.08 73.73,-158.58 68.83,-163.57"/>
</g>
<!-- Node4 -->
<g id="node4" class="node">
<title>Node4</title>
<g id="a_node4"><a xlink:href="CompoundShape_8hpp.html" target="_top" xlink:title=" ">
<polygon fill="white" stroke="black" points="83.5,-112.5 83.5,-131.5 203.5,-131.5 203.5,-112.5 83.5,-112.5"/>
<text text-anchor="middle" x="143.5" y="-119.5" font-family="Helvetica,sans-Serif" font-size="10.00">CompoundShape.hpp</text>
</a>
</g>
</g>
<!-- Node2&#45;&gt;Node4 -->
<g id="edge3" class="edge">
<title>Node2&#45;&gt;Node4</title>
<path fill="none" stroke="midnightblue" d="M103.83,-161.25C113.76,-151.67 126.09,-139.79 134.34,-131.83"/>
<polygon fill="midnightblue" stroke="midnightblue" points="101.27,-158.86 96.5,-168.32 106.13,-163.9 101.27,-158.86"/>
</g>
<!-- Node5 -->
<g id="node5" class="node">
<title>Node5</title>
<g id="a_node5"><a xlink:href="Axes_8hpp.html" target="_top" xlink:title=" ">
<polygon fill="white" stroke="black" points="113,-56.5 113,-75.5 174,-75.5 174,-56.5 113,-56.5"/>
<text text-anchor="middle" x="143.5" y="-63.5" font-family="Helvetica,sans-Serif" font-size="10.00">Axes.hpp</text>
</a>
</g>
</g>
<!-- Node4&#45;&gt;Node5 -->
<g id="edge4" class="edge">
<title>Node4&#45;&gt;Node5</title>
<path fill="none" stroke="midnightblue" d="M143.5,-101.8C143.5,-92.91 143.5,-82.78 143.5,-75.75"/>
<polygon fill="midnightblue" stroke="midnightblue" points="140,-102.08 143.5,-112.08 147,-102.08 140,-102.08"/>
</g>
<!-- Node6 -->
<g id="node6" class="node">
<title>Node6</title>
<g id="a_node6"><a xlink:href="Axes3DScene_8hpp.html" target="_top" xlink:title=" ">
<polygon fill="white" stroke="black" points="91.5,-0.5 91.5,-19.5 195.5,-19.5 195.5,-0.5 91.5,-0.5"/>
<text text-anchor="middle" x="143.5" y="-7.5" font-family="Helvetica,sans-Serif" font-size="10.00">Axes3DScene.hpp</text>
</a>
</g>
</g>
<!-- Node5&#45;&gt;Node6 -->
<g id="edge5" class="edge">
<title>Node5&#45;&gt;Node6</title>
<path fill="none" stroke="midnightblue" d="M143.5,-45.8C143.5,-36.91 143.5,-26.78 143.5,-19.75"/>
<polygon fill="midnightblue" stroke="midnightblue" points="140,-46.08 143.5,-56.08 147,-46.08 140,-46.08"/>
</g>
</g>
</svg>
