<?xml version="1.0" encoding="UTF-8" standalone="no"?>
<!DOCTYPE svg PUBLIC "-//W3C//DTD SVG 1.1//EN"
 "http://www.w3.org/Graphics/SVG/1.1/DTD/svg11.dtd">
<!-- Generated by graphviz version 2.43.0 (0)
 -->
<!-- Title: AbsGLShape.hpp Pages: 1 -->
<!--zoomable 374 -->
<svg id="main" version="1.1" xmlns="http://www.w3.org/2000/svg" xmlns:xlink="http://www.w3.org/1999/xlink" xml:space="preserve" onload="init(evt)">
<style type="text/css"><![CDATA[
.edge:hover path { stroke: red; }
.edge:hover polygon { stroke: red; fill: red; }
]]></style>
<script type="text/javascript"><![CDATA[
var edges = document.getElementsByTagName('g');
if (edges && edges.length) {
  for (var i=0;i<edges.length;i++) {
    if (edges[i].id.substr(0,4)=='edge') {
      edges[i].setAttribute('class','edge');
    }
  }
}
]]></script>
        <defs>
                <circle id="rim" cx="0" cy="0" r="7"/>
                <circle id="rim2" cx="0" cy="0" r="3.5"/>
                <g id="zoomPlus">
                        <use xlink:href="#rim" fill="#404040">
                                <set attributeName="fill" to="#808080" begin="zoomplus.mouseover" end="zoomplus.mouseout"/>
                        </use>
                        <path d="M-4,0h8M0,-4v8" fill="none" stroke="white" stroke-width="1.5" pointer-events="none"/>
                </g>
                <g id="zoomMin">
                        <use xlink:href="#rim" fill="#404040">
                                <set attributeName="fill" to="#808080" begin="zoomminus.mouseover" end="zoomminus.mouseout"/>
                        </use>
                        <path d="M-4,0h8" fill="none" stroke="white" stroke-width="1.5" pointer-events="none"/>
                </g>
                <g id="dirArrow">
                        <path fill="none" stroke="white" stroke-width="1.5" d="M0,-3.0v7 M-2.5,-0.5L0,-3.0L2.5,-0.5"/>
                </g>
               <g id="resetDef">
                       <use xlink:href="#rim2" fill="#404040">
                               <set attributeName="fill" to="#808080" begin="reset.mouseover" end="reset.mouseout"/>
                       </use>
               </g>
        </defs>

<script type="text/javascript">
var viewWidth = 1096;
var viewHeight = 374;
var sectionId = 'dynsection-0';
</script>
<script xlink:href="svgpan.js"/>
<svg id="graph" class="graph">
<g id="viewport">
<title>AbsGLShape.hpp</title>
<polygon fill="white" stroke="transparent" points="-4,4 -4,-370 1091.5,-370 1091.5,4 -4,4"/>
<!-- Node1 -->
<g id="node1" class="node">
<title>Node1</title>
<g id="a_node1"><a xlink:title=" ">
<polygon fill="#bfbfbf" stroke="black" points="173.5,-346.5 173.5,-365.5 271.5,-365.5 271.5,-346.5 173.5,-346.5"/>
<text text-anchor="middle" x="222.5" y="-353.5" font-family="Helvetica,sans-Serif" font-size="10.00">AbsGLShape.hpp</text>
</a>
</g>
</g>
<!-- Node2 -->
<g id="node2" class="node">
<title>Node2</title>
<g id="a_node2"><a xlink:href="GLTraits_8hpp.html" target="_top" xlink:title=" ">
<polygon fill="white" stroke="black" points="168.5,-279.5 168.5,-309.5 276.5,-309.5 276.5,-279.5 168.5,-279.5"/>
<text text-anchor="start" x="176.5" y="-297.5" font-family="Helvetica,sans-Serif" font-size="10.00">packages/traits/inc</text>
<text text-anchor="middle" x="222.5" y="-286.5" font-family="Helvetica,sans-Serif" font-size="10.00">/GLTraits.hpp</text>
</a>
</g>
</g>
<!-- Node1&#45;&gt;Node2 -->
<g id="edge1" class="edge">
<title>Node1&#45;&gt;Node2</title>
<path fill="none" stroke="midnightblue" d="M222.5,-346.48C222.5,-339.47 222.5,-329.19 222.5,-319.7"/>
<polygon fill="midnightblue" stroke="midnightblue" points="226,-319.52 222.5,-309.52 219,-319.52 226,-319.52"/>
</g>
<!-- Node11 -->
<g id="node11" class="node">
<title>Node11</title>
<g id="a_node11"><a xlink:title=" ">
<polygon fill="white" stroke="#bfbfbf" points="0,-145.5 0,-164.5 47,-164.5 47,-145.5 0,-145.5"/>
<text text-anchor="middle" x="23.5" y="-152.5" font-family="Helvetica,sans-Serif" font-size="10.00">vector</text>
</a>
</g>
</g>
<!-- Node1&#45;&gt;Node11 -->
<g id="edge19" class="edge">
<title>Node1&#45;&gt;Node11</title>
<path fill="none" stroke="midnightblue" d="M185.86,-346.45C138.65,-333.24 58.52,-302.89 23.5,-243 11.26,-222.06 14.37,-193.16 18.4,-174.52"/>
<polygon fill="midnightblue" stroke="midnightblue" points="21.84,-175.19 20.83,-164.64 15.04,-173.52 21.84,-175.19"/>
</g>
<!-- Node12 -->
<g id="node12" class="node">
<title>Node12</title>
<g id="a_node12"><a xlink:title=" ">
<polygon fill="white" stroke="#bfbfbf" points="1029.5,-145.5 1029.5,-164.5 1087.5,-164.5 1087.5,-145.5 1029.5,-145.5"/>
<text text-anchor="middle" x="1058.5" y="-152.5" font-family="Helvetica,sans-Serif" font-size="10.00">memory</text>
</a>
</g>
</g>
<!-- Node1&#45;&gt;Node12 -->
<g id="edge20" class="edge">
<title>Node1&#45;&gt;Node12</title>
<path fill="none" stroke="midnightblue" d="M271.78,-348.37C398.66,-330.35 745.81,-275.09 1019.5,-176 1024.64,-174.14 1029.98,-171.74 1034.98,-169.26"/>
<polygon fill="midnightblue" stroke="midnightblue" points="1036.84,-172.24 1044.08,-164.5 1033.6,-166.04 1036.84,-172.24"/>
</g>
<!-- Node3 -->
<g id="node3" class="node">
<title>Node3</title>
<g id="a_node3"><a xlink:title=" ">
<polygon fill="white" stroke="#bfbfbf" points="660,-6 660,-25 731,-25 731,-6 660,-6"/>
<text text-anchor="middle" x="695.5" y="-13" font-family="Helvetica,sans-Serif" font-size="10.00">glad/glad.h</text>
</a>
</g>
</g>
<!-- Node2&#45;&gt;Node3 -->
<g id="edge2" class="edge">
<title>Node2&#45;&gt;Node3</title>
<path fill="none" stroke="midnightblue" d="M231.96,-279.33C238.31,-269.44 246.56,-255.76 252.5,-243 274.15,-196.49 253.27,-169.3 290.5,-134 391.88,-37.86 567.17,-19.76 649.84,-16.78"/>
<polygon fill="midnightblue" stroke="midnightblue" points="650.04,-20.27 659.93,-16.47 649.83,-13.28 650.04,-20.27"/>
</g>
<!-- Node4 -->
<g id="node4" class="node">
<title>Node4</title>
<g id="a_node4"><a xlink:href="AttributeContainer_8hpp.html" target="_top" xlink:title=" ">
<polygon fill="white" stroke="black" points="541.5,-212.5 541.5,-242.5 671.5,-242.5 671.5,-212.5 541.5,-212.5"/>
<text text-anchor="start" x="549.5" y="-230.5" font-family="Helvetica,sans-Serif" font-size="10.00">packages/buffer/inc</text>
<text text-anchor="middle" x="606.5" y="-219.5" font-family="Helvetica,sans-Serif" font-size="10.00">/AttributeContainer.hpp</text>
</a>
</g>
</g>
<!-- Node2&#45;&gt;Node4 -->
<g id="edge3" class="edge">
<title>Node2&#45;&gt;Node4</title>
<path fill="none" stroke="midnightblue" d="M276.7,-284.32C343.15,-273.08 456.12,-253.96 531.03,-241.27"/>
<polygon fill="midnightblue" stroke="midnightblue" points="532.06,-244.65 541.34,-239.53 530.89,-237.75 532.06,-244.65"/>
</g>
<!-- Node2&#45;&gt;Node11 -->
<g id="edge18" class="edge">
<title>Node2&#45;&gt;Node11</title>
<path fill="none" stroke="midnightblue" d="M168.12,-292.52C127.88,-288.81 74.68,-277.12 42.5,-243 25.21,-224.67 22.23,-194.41 22.36,-174.84"/>
<polygon fill="midnightblue" stroke="midnightblue" points="25.86,-174.84 22.7,-164.73 18.86,-174.6 25.86,-174.84"/>
</g>
<!-- Node15 -->
<g id="node15" class="node">
<title>Node15</title>
<g id="a_node15"><a target="_parent" xlink:href="../../../cieutils/docs/html/StaticArray_8hpp.html.html" xlink:title=" ">
<polygon fill="white" stroke="black" points="52,-212.5 52,-242.5 183,-242.5 183,-212.5 52,-212.5"/>
<text text-anchor="start" x="60" y="-230.5" font-family="Helvetica,sans-Serif" font-size="10.00">packages/stl_extension</text>
<text text-anchor="middle" x="117.5" y="-219.5" font-family="Helvetica,sans-Serif" font-size="10.00">/inc/StaticArray.hpp</text>
</a>
</g>
</g>
<!-- Node2&#45;&gt;Node15 -->
<g id="edge16" class="edge">
<title>Node2&#45;&gt;Node15</title>
<path fill="none" stroke="midnightblue" d="M199.72,-279.4C184.86,-270.2 165.26,-258.07 148.93,-247.95"/>
<polygon fill="midnightblue" stroke="midnightblue" points="150.58,-244.86 140.24,-242.58 146.9,-250.82 150.58,-244.86"/>
</g>
<!-- Node16 -->
<g id="node16" class="node">
<title>Node16</title>
<g id="a_node16"><a xlink:title=" ">
<polygon fill="white" stroke="#bfbfbf" points="201.5,-218 201.5,-237 243.5,-237 243.5,-218 201.5,-218"/>
<text text-anchor="middle" x="222.5" y="-225" font-family="Helvetica,sans-Serif" font-size="10.00">array</text>
</a>
</g>
</g>
<!-- Node2&#45;&gt;Node16 -->
<g id="edge17" class="edge">
<title>Node2&#45;&gt;Node16</title>
<path fill="none" stroke="midnightblue" d="M222.5,-279.4C222.5,-270.06 222.5,-257.71 222.5,-247.52"/>
<polygon fill="midnightblue" stroke="midnightblue" points="226,-247.19 222.5,-237.19 219,-247.19 226,-247.19"/>
</g>
<!-- Node4&#45;&gt;Node3 -->
<g id="edge4" class="edge">
<title>Node4&#45;&gt;Node3</title>
<path fill="none" stroke="midnightblue" d="M650.19,-212.29C667.12,-204.41 684.74,-192.74 694.5,-176 720.59,-131.26 709.09,-66.76 701,-35.25"/>
<polygon fill="midnightblue" stroke="midnightblue" points="704.28,-33.95 698.25,-25.23 697.53,-35.8 704.28,-33.95"/>
</g>
<!-- Node5 -->
<g id="node5" class="node">
<title>Node5</title>
<g id="a_node5"><a target="_parent" xlink:href="../../../cieutils/docs/html/typedefs_8hpp.html.html" xlink:title=" ">
<polygon fill="white" stroke="black" points="892,-140 892,-170 1011,-170 1011,-140 892,-140"/>
<text text-anchor="start" x="900" y="-158" font-family="Helvetica,sans-Serif" font-size="10.00">packages/macros/inc</text>
<text text-anchor="middle" x="951.5" y="-147" font-family="Helvetica,sans-Serif" font-size="10.00">/typedefs.hpp</text>
</a>
</g>
</g>
<!-- Node4&#45;&gt;Node5 -->
<g id="edge5" class="edge">
<title>Node4&#45;&gt;Node5</title>
<path fill="none" stroke="midnightblue" d="M671.57,-216.5C727.75,-207.42 810.91,-192.88 882.5,-176 886.78,-174.99 891.19,-173.88 895.62,-172.71"/>
<polygon fill="midnightblue" stroke="midnightblue" points="896.54,-176.09 905.28,-170.1 894.71,-169.33 896.54,-176.09"/>
</g>
<!-- Node6 -->
<g id="node6" class="node">
<title>Node6</title>
<g id="a_node6"><a target="_parent" xlink:href="../../../cieutils/docs/html/basic__concepts_8hpp.html.html" xlink:title=" ">
<polygon fill="white" stroke="black" points="741.5,-134.5 741.5,-175.5 873.5,-175.5 873.5,-134.5 741.5,-134.5"/>
<text text-anchor="start" x="749.5" y="-163.5" font-family="Helvetica,sans-Serif" font-size="10.00">packages/compile_time</text>
<text text-anchor="start" x="749.5" y="-152.5" font-family="Helvetica,sans-Serif" font-size="10.00">/packages/concepts/inc</text>
<text text-anchor="middle" x="807.5" y="-141.5" font-family="Helvetica,sans-Serif" font-size="10.00">/basic_concepts.hpp</text>
</a>
</g>
</g>
<!-- Node4&#45;&gt;Node6 -->
<g id="edge6" class="edge">
<title>Node4&#45;&gt;Node6</title>
<path fill="none" stroke="midnightblue" d="M646.69,-212.4C674,-202.83 710.73,-189.94 742.19,-178.91"/>
<polygon fill="midnightblue" stroke="midnightblue" points="743.49,-182.16 751.77,-175.55 741.18,-175.55 743.49,-182.16"/>
</g>
<!-- Node10 -->
<g id="node10" class="node">
<title>Node10</title>
<g id="a_node10"><a target="_parent" xlink:href="../../../cieutils/docs/html/DynamicArray_8hpp.html.html" xlink:title=" ">
<polygon fill="white" stroke="black" points="300,-140 300,-170 431,-170 431,-140 300,-140"/>
<text text-anchor="start" x="308" y="-158" font-family="Helvetica,sans-Serif" font-size="10.00">packages/stl_extension</text>
<text text-anchor="middle" x="365.5" y="-147" font-family="Helvetica,sans-Serif" font-size="10.00">/inc/DynamicArray.hpp</text>
</a>
</g>
</g>
<!-- Node4&#45;&gt;Node10 -->
<g id="edge11" class="edge">
<title>Node4&#45;&gt;Node10</title>
<path fill="none" stroke="midnightblue" d="M558.6,-212.49C519.71,-201.11 464.74,-185.03 423.39,-172.93"/>
<polygon fill="midnightblue" stroke="midnightblue" points="424.3,-169.56 413.72,-170.11 422.34,-176.27 424.3,-169.56"/>
</g>
<!-- Node4&#45;&gt;Node11 -->
<g id="edge12" class="edge">
<title>Node4&#45;&gt;Node11</title>
<path fill="none" stroke="midnightblue" d="M541.32,-218.62C417.29,-203.62 151.33,-171.46 57.29,-160.09"/>
<polygon fill="midnightblue" stroke="midnightblue" points="57.55,-156.59 47.2,-158.87 56.71,-163.54 57.55,-156.59"/>
</g>
<!-- Node4&#45;&gt;Node12 -->
<g id="edge13" class="edge">
<title>Node4&#45;&gt;Node12</title>
<path fill="none" stroke="midnightblue" d="M671.63,-225.55C754.27,-222.78 900.38,-212.56 1019.5,-176 1024.82,-174.37 1030.28,-172.04 1035.37,-169.54"/>
<polygon fill="midnightblue" stroke="midnightblue" points="1037.37,-172.44 1044.57,-164.67 1034.09,-166.26 1037.37,-172.44"/>
</g>
<!-- Node13 -->
<g id="node13" class="node">
<title>Node13</title>
<g id="a_node13"><a xlink:title=" ">
<polygon fill="white" stroke="#bfbfbf" points="449.5,-145.5 449.5,-164.5 509.5,-164.5 509.5,-145.5 449.5,-145.5"/>
<text text-anchor="middle" x="479.5" y="-152.5" font-family="Helvetica,sans-Serif" font-size="10.00">concepts</text>
</a>
</g>
</g>
<!-- Node4&#45;&gt;Node13 -->
<g id="edge14" class="edge">
<title>Node4&#45;&gt;Node13</title>
<path fill="none" stroke="midnightblue" d="M581.1,-212.4C558.56,-199.89 525.84,-181.72 503.67,-169.42"/>
<polygon fill="midnightblue" stroke="midnightblue" points="505.31,-166.33 494.87,-164.53 501.92,-172.45 505.31,-166.33"/>
</g>
<!-- Node14 -->
<g id="node14" class="node">
<title>Node14</title>
<g id="a_node14"><a xlink:title=" ">
<polygon fill="white" stroke="#bfbfbf" points="527.5,-140 527.5,-170 685.5,-170 685.5,-140 527.5,-140"/>
<text text-anchor="start" x="535.5" y="-158" font-family="Helvetica,sans-Serif" font-size="10.00">packages/buffer/impl</text>
<text text-anchor="middle" x="606.5" y="-147" font-family="Helvetica,sans-Serif" font-size="10.00">/AttributeContainer_impl.hpp</text>
</a>
</g>
</g>
<!-- Node4&#45;&gt;Node14 -->
<g id="edge15" class="edge">
<title>Node4&#45;&gt;Node14</title>
<path fill="none" stroke="midnightblue" d="M606.5,-212.23C606.5,-203.16 606.5,-191.16 606.5,-180.58"/>
<polygon fill="midnightblue" stroke="midnightblue" points="610,-180.25 606.5,-170.25 603,-180.25 610,-180.25"/>
</g>
<!-- Node7 -->
<g id="node7" class="node">
<title>Node7</title>
<g id="a_node7"><a xlink:href="types_8hpp.html" target="_top" xlink:title=" ">
<polygon fill="white" stroke="black" points="752.5,-67.5 752.5,-97.5 862.5,-97.5 862.5,-67.5 752.5,-67.5"/>
<text text-anchor="start" x="760.5" y="-85.5" font-family="Helvetica,sans-Serif" font-size="10.00">packages/types/inc</text>
<text text-anchor="middle" x="807.5" y="-74.5" font-family="Helvetica,sans-Serif" font-size="10.00">/types.hpp</text>
</a>
</g>
</g>
<!-- Node6&#45;&gt;Node7 -->
<g id="edge7" class="edge">
<title>Node6&#45;&gt;Node7</title>
<path fill="none" stroke="midnightblue" d="M807.5,-134.36C807.5,-126.23 807.5,-116.7 807.5,-108.11"/>
<polygon fill="midnightblue" stroke="midnightblue" points="811,-107.89 807.5,-97.89 804,-107.89 811,-107.89"/>
</g>
<!-- Node7&#45;&gt;Node3 -->
<g id="edge8" class="edge">
<title>Node7&#45;&gt;Node3</title>
<path fill="none" stroke="midnightblue" d="M783.2,-67.4C764.15,-56.34 737.82,-41.06 718.99,-30.13"/>
<polygon fill="midnightblue" stroke="midnightblue" points="720.56,-27 710.16,-25.01 717.05,-33.05 720.56,-27"/>
</g>
<!-- Node8 -->
<g id="node8" class="node">
<title>Node8</title>
<g id="a_node8"><a xlink:title=" ">
<polygon fill="white" stroke="#bfbfbf" points="883.5,-6 883.5,-25 927.5,-25 927.5,-6 883.5,-6"/>
<text text-anchor="middle" x="905.5" y="-13" font-family="Helvetica,sans-Serif" font-size="10.00">string</text>
</a>
</g>
</g>
<!-- Node7&#45;&gt;Node8 -->
<g id="edge9" class="edge">
<title>Node7&#45;&gt;Node8</title>
<path fill="none" stroke="midnightblue" d="M828.76,-67.4C845.2,-56.5 867.84,-41.48 884.27,-30.58"/>
<polygon fill="midnightblue" stroke="midnightblue" points="886.28,-33.45 892.67,-25.01 882.41,-27.62 886.28,-33.45"/>
</g>
<!-- Node9 -->
<g id="node9" class="node">
<title>Node9</title>
<g id="a_node9"><a xlink:title=" ">
<polygon fill="white" stroke="#bfbfbf" points="749.5,-0.5 749.5,-30.5 865.5,-30.5 865.5,-0.5 749.5,-0.5"/>
<text text-anchor="start" x="757.5" y="-18.5" font-family="Helvetica,sans-Serif" font-size="10.00">packages/traits/impl</text>
<text text-anchor="middle" x="807.5" y="-7.5" font-family="Helvetica,sans-Serif" font-size="10.00">/types_impl.hpp</text>
</a>
</g>
</g>
<!-- Node7&#45;&gt;Node9 -->
<g id="edge10" class="edge">
<title>Node7&#45;&gt;Node9</title>
<path fill="none" stroke="midnightblue" d="M807.5,-67.4C807.5,-59.64 807.5,-49.81 807.5,-40.86"/>
<polygon fill="midnightblue" stroke="midnightblue" points="811,-40.58 807.5,-30.58 804,-40.58 811,-40.58"/>
</g>
</g>
</svg>
        <g id="navigator" transform="translate(0 0)" fill="#404254">
                <rect fill="#f2f5e9" fill-opacity="0.5" stroke="#606060" stroke-width=".5" x="0" y="0" width="60" height="60"/>
                <use id="zoomplus" xlink:href="#zoomPlus" x="17" y="9" onmousedown="handleZoom(evt,'in')"/>
                <use id="zoomminus" xlink:href="#zoomMin" x="42" y="9" onmousedown="handleZoom(evt,'out')"/>
                <use id="reset" xlink:href="#resetDef" x="30" y="36" onmousedown="handleReset()"/>
                <g id="arrowUp" xlink:href="#dirArrow" transform="translate(30 24)" onmousedown="handlePan(0,-1)">
                  <use xlink:href="#rim" fill="#404040">
                        <set attributeName="fill" to="#808080" begin="arrowUp.mouseover" end="arrowUp.mouseout"/>
                  </use>
                  <path fill="none" stroke="white" stroke-width="1.5" d="M0,-3.0v7 M-2.5,-0.5L0,-3.0L2.5,-0.5"/>
                </g>
                <g id="arrowRight" xlink:href="#dirArrow" transform="rotate(90) translate(36 -43)" onmousedown="handlePan(1,0)">
                  <use xlink:href="#rim" fill="#404040">
                        <set attributeName="fill" to="#808080" begin="arrowRight.mouseover" end="arrowRight.mouseout"/>
                  </use>
                  <path fill="none" stroke="white" stroke-width="1.5" d="M0,-3.0v7 M-2.5,-0.5L0,-3.0L2.5,-0.5"/>
                </g>
                <g id="arrowDown" xlink:href="#dirArrow" transform="rotate(180) translate(-30 -48)" onmousedown="handlePan(0,1)">
                  <use xlink:href="#rim" fill="#404040">
                        <set attributeName="fill" to="#808080" begin="arrowDown.mouseover" end="arrowDown.mouseout"/>
                  </use>
                  <path fill="none" stroke="white" stroke-width="1.5" d="M0,-3.0v7 M-2.5,-0.5L0,-3.0L2.5,-0.5"/>
                </g>
                <g id="arrowLeft" xlink:href="#dirArrow" transform="rotate(270) translate(-36 17)" onmousedown="handlePan(-1,0)">
                  <use xlink:href="#rim" fill="#404040">
                        <set attributeName="fill" to="#808080" begin="arrowLeft.mouseover" end="arrowLeft.mouseout"/>
                  </use>
                  <path fill="none" stroke="white" stroke-width="1.5" d="M0,-3.0v7 M-2.5,-0.5L0,-3.0L2.5,-0.5"/>
                </g>
        </g>
        <svg viewBox="0 0 15 15" width="100%" height="30px" preserveAspectRatio="xMaxYMin meet">
         <g id="arrow_out" transform="scale(0.3 0.3)">
          <a xlink:href="AbsGLShape_8hpp__incl_org.svg" target="_base">
           <rect id="button" ry="5" rx="5" y="6" x="6" height="38" width="38"
                fill="#f2f5e9" fill-opacity="0.5" stroke="#606060" stroke-width="1.0"/>
           <path id="arrow"
             d="M 11.500037,31.436501 C 11.940474,20.09759 22.043105,11.32322 32.158766,21.979434 L 37.068811,17.246167 C 37.068811,17.246167 37.088388,32 37.088388,32 L 22.160133,31.978069 C 22.160133,31.978069 26.997745,27.140456 26.997745,27.140456 C 18.528582,18.264221 13.291696,25.230495 11.500037,31.436501 z"
             style="fill:#404040;"/>
          </a>
         </g>
        </svg>
</svg>
