<?xml version="1.0" encoding="UTF-8" standalone="no"?>
<!DOCTYPE svg PUBLIC "-//W3C//DTD SVG 1.1//EN"
 "http://www.w3.org/Graphics/SVG/1.1/DTD/svg11.dtd">
<!-- Generated by graphviz version 2.43.0 (0)
 -->
<!-- Title: AbsMonitor.hpp Pages: 1 -->
<svg width="443pt" height="229pt"
 viewBox="0.00 0.00 442.50 229.00" xmlns="http://www.w3.org/2000/svg" xmlns:xlink="http://www.w3.org/1999/xlink">
<g id="graph0" class="graph" transform="scale(1 1) rotate(0) translate(4 225)">
<title>AbsMonitor.hpp</title>
<polygon fill="white" stroke="transparent" points="-4,4 -4,-225 438.5,-225 438.5,4 -4,4"/>
<!-- Node1 -->
<g id="node1" class="node">
<title>Node1</title>
<g id="a_node1"><a xlink:title=" ">
<polygon fill="#bfbfbf" stroke="black" points="241.5,-201.5 241.5,-220.5 333.5,-220.5 333.5,-201.5 241.5,-201.5"/>
<text text-anchor="middle" x="287.5" y="-208.5" font-family="Helvetica,sans-Serif" font-size="10.00">AbsMonitor.hpp</text>
</a>
</g>
</g>
<!-- Node2 -->
<g id="node2" class="node">
<title>Node2</title>
<g id="a_node2"><a target="_parent" xlink:href="../../../cieutils/docs/html/IDObject_8hpp.html.html" xlink:title=" ">
<polygon fill="white" stroke="black" points="56.5,-134.5 56.5,-164.5 166.5,-164.5 166.5,-134.5 56.5,-134.5"/>
<text text-anchor="start" x="64.5" y="-152.5" font-family="Helvetica,sans-Serif" font-size="10.00">packages/types/inc</text>
<text text-anchor="middle" x="111.5" y="-141.5" font-family="Helvetica,sans-Serif" font-size="10.00">/IDObject.hpp</text>
</a>
</g>
</g>
<!-- Node1&#45;&gt;Node2 -->
<g id="edge1" class="edge">
<title>Node1&#45;&gt;Node2</title>
<path fill="none" stroke="midnightblue" d="M262.28,-201.48C236.44,-192.74 195.53,-178.91 162.84,-167.86"/>
<polygon fill="midnightblue" stroke="midnightblue" points="163.57,-164.41 152.98,-164.52 161.33,-171.04 163.57,-164.41"/>
</g>
<!-- Node7 -->
<g id="node7" class="node">
<title>Node7</title>
<g id="a_node7"><a target="_parent" xlink:href="../../../cieutils/docs/html/types_8hpp.html.html" xlink:title=" ">
<polygon fill="white" stroke="black" points="184.5,-134.5 184.5,-164.5 294.5,-164.5 294.5,-134.5 184.5,-134.5"/>
<text text-anchor="start" x="192.5" y="-152.5" font-family="Helvetica,sans-Serif" font-size="10.00">packages/types/inc</text>
<text text-anchor="middle" x="239.5" y="-141.5" font-family="Helvetica,sans-Serif" font-size="10.00">/types.hpp</text>
</a>
</g>
</g>
<!-- Node1&#45;&gt;Node7 -->
<g id="edge6" class="edge">
<title>Node1&#45;&gt;Node7</title>
<path fill="none" stroke="midnightblue" d="M280.62,-201.48C274.55,-193.94 265.42,-182.63 257.3,-172.57"/>
<polygon fill="midnightblue" stroke="midnightblue" points="259.82,-170.11 250.81,-164.52 254.37,-174.5 259.82,-170.11"/>
</g>
<!-- Node8 -->
<g id="node8" class="node">
<title>Node8</title>
<g id="a_node8"><a xlink:title=" ">
<polygon fill="white" stroke="#bfbfbf" points="313,-140 313,-159 358,-159 358,-140 313,-140"/>
<text text-anchor="middle" x="335.5" y="-147" font-family="Helvetica,sans-Serif" font-size="10.00">utility</text>
</a>
</g>
</g>
<!-- Node1&#45;&gt;Node8 -->
<g id="edge7" class="edge">
<title>Node1&#45;&gt;Node8</title>
<path fill="none" stroke="midnightblue" d="M294.38,-201.48C301.65,-192.46 313.3,-178.02 322.34,-166.81"/>
<polygon fill="midnightblue" stroke="midnightblue" points="325.08,-168.99 328.64,-159.01 319.63,-164.59 325.08,-168.99"/>
</g>
<!-- Node9 -->
<g id="node9" class="node">
<title>Node9</title>
<g id="a_node9"><a xlink:title=" ">
<polygon fill="white" stroke="#bfbfbf" points="376.5,-140 376.5,-159 434.5,-159 434.5,-140 376.5,-140"/>
<text text-anchor="middle" x="405.5" y="-147" font-family="Helvetica,sans-Serif" font-size="10.00">memory</text>
</a>
</g>
</g>
<!-- Node1&#45;&gt;Node9 -->
<g id="edge8" class="edge">
<title>Node1&#45;&gt;Node9</title>
<path fill="none" stroke="midnightblue" d="M304.41,-201.48C324.03,-191.58 356.63,-175.14 379.49,-163.62"/>
<polygon fill="midnightblue" stroke="midnightblue" points="381.27,-166.64 388.62,-159.01 378.12,-160.39 381.27,-166.64"/>
</g>
<!-- Node3 -->
<g id="node3" class="node">
<title>Node3</title>
<g id="a_node3"><a xlink:href="types_8hpp.html" target="_top" xlink:title=" ">
<polygon fill="white" stroke="black" points="56.5,-67.5 56.5,-97.5 166.5,-97.5 166.5,-67.5 56.5,-67.5"/>
<text text-anchor="start" x="64.5" y="-85.5" font-family="Helvetica,sans-Serif" font-size="10.00">packages/types/inc</text>
<text text-anchor="middle" x="111.5" y="-74.5" font-family="Helvetica,sans-Serif" font-size="10.00">/types.hpp</text>
</a>
</g>
</g>
<!-- Node2&#45;&gt;Node3 -->
<g id="edge2" class="edge">
<title>Node2&#45;&gt;Node3</title>
<path fill="none" stroke="midnightblue" d="M111.5,-134.4C111.5,-126.64 111.5,-116.81 111.5,-107.86"/>
<polygon fill="midnightblue" stroke="midnightblue" points="115,-107.58 111.5,-97.58 108,-107.58 115,-107.58"/>
</g>
<!-- Node4 -->
<g id="node4" class="node">
<title>Node4</title>
<g id="a_node4"><a xlink:title=" ">
<polygon fill="white" stroke="#bfbfbf" points="0,-6 0,-25 71,-25 71,-6 0,-6"/>
<text text-anchor="middle" x="35.5" y="-13" font-family="Helvetica,sans-Serif" font-size="10.00">glad/glad.h</text>
</a>
</g>
</g>
<!-- Node3&#45;&gt;Node4 -->
<g id="edge3" class="edge">
<title>Node3&#45;&gt;Node4</title>
<path fill="none" stroke="midnightblue" d="M95.01,-67.4C82.81,-56.96 66.19,-42.75 53.62,-32"/>
<polygon fill="midnightblue" stroke="midnightblue" points="55.54,-29.03 45.67,-25.19 50.99,-34.35 55.54,-29.03"/>
</g>
<!-- Node5 -->
<g id="node5" class="node">
<title>Node5</title>
<g id="a_node5"><a xlink:title=" ">
<polygon fill="white" stroke="#bfbfbf" points="89.5,-6 89.5,-25 133.5,-25 133.5,-6 89.5,-6"/>
<text text-anchor="middle" x="111.5" y="-13" font-family="Helvetica,sans-Serif" font-size="10.00">string</text>
</a>
</g>
</g>
<!-- Node3&#45;&gt;Node5 -->
<g id="edge4" class="edge">
<title>Node3&#45;&gt;Node5</title>
<path fill="none" stroke="midnightblue" d="M111.5,-67.4C111.5,-58.06 111.5,-45.71 111.5,-35.52"/>
<polygon fill="midnightblue" stroke="midnightblue" points="115,-35.19 111.5,-25.19 108,-35.19 115,-35.19"/>
</g>
<!-- Node6 -->
<g id="node6" class="node">
<title>Node6</title>
<g id="a_node6"><a xlink:title=" ">
<polygon fill="white" stroke="#bfbfbf" points="151.5,-0.5 151.5,-30.5 267.5,-30.5 267.5,-0.5 151.5,-0.5"/>
<text text-anchor="start" x="159.5" y="-18.5" font-family="Helvetica,sans-Serif" font-size="10.00">packages/traits/impl</text>
<text text-anchor="middle" x="209.5" y="-7.5" font-family="Helvetica,sans-Serif" font-size="10.00">/types_impl.hpp</text>
</a>
</g>
</g>
<!-- Node3&#45;&gt;Node6 -->
<g id="edge5" class="edge">
<title>Node3&#45;&gt;Node6</title>
<path fill="none" stroke="midnightblue" d="M132.76,-67.4C146.51,-58.28 164.59,-46.29 179.74,-36.24"/>
<polygon fill="midnightblue" stroke="midnightblue" points="181.88,-39.02 188.28,-30.58 178.01,-33.19 181.88,-39.02"/>
</g>
</g>
</svg>
