<?xml version="1.0" encoding="UTF-8" standalone="no"?>
<!DOCTYPE svg PUBLIC "-//W3C//DTD SVG 1.1//EN"
 "http://www.w3.org/Graphics/SVG/1.1/DTD/svg11.dtd">
<!-- Generated by graphviz version 2.43.0 (0)
 -->
<!-- Title: AbsMonitor.hpp Pages: 1 -->
<svg width="282pt" height="308pt"
 viewBox="0.00 0.00 281.50 308.00" xmlns="http://www.w3.org/2000/svg" xmlns:xlink="http://www.w3.org/1999/xlink">
<g id="graph0" class="graph" transform="scale(1 1) rotate(0) translate(4 304)">
<title>AbsMonitor.hpp</title>
<polygon fill="white" stroke="transparent" points="-4,4 -4,-304 277.5,-304 277.5,4 -4,4"/>
<!-- Node1 -->
<g id="node1" class="node">
<title>Node1</title>
<g id="a_node1"><a xlink:title=" ">
<polygon fill="#bfbfbf" stroke="black" points="117,-280.5 117,-299.5 209,-299.5 209,-280.5 117,-280.5"/>
<text text-anchor="middle" x="163" y="-287.5" font-family="Helvetica,sans-Serif" font-size="10.00">AbsMonitor.hpp</text>
</a>
</g>
</g>
<!-- Node2 -->
<g id="node2" class="node">
<title>Node2</title>
<g id="a_node2"><a xlink:href="AbsContext_8hpp.html" target="_top" xlink:title=" ">
<polygon fill="white" stroke="black" points="58,-224.5 58,-243.5 152,-243.5 152,-224.5 58,-224.5"/>
<text text-anchor="middle" x="105" y="-231.5" font-family="Helvetica,sans-Serif" font-size="10.00">AbsContext.hpp</text>
</a>
</g>
</g>
<!-- Node1&#45;&gt;Node2 -->
<g id="edge1" class="edge">
<title>Node1&#45;&gt;Node2</title>
<path fill="none" stroke="midnightblue" d="M146.09,-273.25C135.8,-263.67 123.03,-251.79 114.49,-243.83"/>
<polygon fill="midnightblue" stroke="midnightblue" points="143.98,-276.07 153.68,-280.32 148.75,-270.95 143.98,-276.07"/>
</g>
<!-- Node8 -->
<g id="node8" class="node">
<title>Node8</title>
<g id="a_node8"><a xlink:href="GLFWMonitor_8hpp.html" target="_top" xlink:title=" ">
<polygon fill="white" stroke="black" points="170.5,-224.5 170.5,-243.5 273.5,-243.5 273.5,-224.5 170.5,-224.5"/>
<text text-anchor="middle" x="222" y="-231.5" font-family="Helvetica,sans-Serif" font-size="10.00">GLFWMonitor.hpp</text>
</a>
</g>
</g>
<!-- Node1&#45;&gt;Node8 -->
<g id="edge7" class="edge">
<title>Node1&#45;&gt;Node8</title>
<path fill="none" stroke="midnightblue" d="M179.89,-273.54C190.41,-263.91 203.57,-251.87 212.35,-243.83"/>
<polygon fill="midnightblue" stroke="midnightblue" points="177.49,-270.99 172.48,-280.32 182.22,-276.15 177.49,-270.99"/>
</g>
<!-- Node3 -->
<g id="node3" class="node">
<title>Node3</title>
<g id="a_node3"><a xlink:href="GLFWContext_8hpp.html" target="_top" xlink:title=" ">
<polygon fill="white" stroke="black" points="0,-168.5 0,-187.5 104,-187.5 104,-168.5 0,-168.5"/>
<text text-anchor="middle" x="52" y="-175.5" font-family="Helvetica,sans-Serif" font-size="10.00">GLFWContext.hpp</text>
</a>
</g>
</g>
<!-- Node2&#45;&gt;Node3 -->
<g id="edge2" class="edge">
<title>Node2&#45;&gt;Node3</title>
<path fill="none" stroke="midnightblue" d="M89.02,-216.72C79.68,-207.2 68.25,-195.56 60.59,-187.75"/>
<polygon fill="midnightblue" stroke="midnightblue" points="86.75,-219.4 96.25,-224.08 91.74,-214.49 86.75,-219.4"/>
</g>
<!-- Node4 -->
<g id="node4" class="node">
<title>Node4</title>
<g id="a_node4"><a xlink:href="AbsPlot_8hpp.html" target="_top" xlink:title=" ">
<polygon fill="white" stroke="black" points="122,-168.5 122,-187.5 196,-187.5 196,-168.5 122,-168.5"/>
<text text-anchor="middle" x="159" y="-175.5" font-family="Helvetica,sans-Serif" font-size="10.00">AbsPlot.hpp</text>
</a>
</g>
</g>
<!-- Node2&#45;&gt;Node4 -->
<g id="edge3" class="edge">
<title>Node2&#45;&gt;Node4</title>
<path fill="none" stroke="midnightblue" d="M121,-217C130.57,-207.43 142.36,-195.64 150.25,-187.75"/>
<polygon fill="midnightblue" stroke="midnightblue" points="118.51,-214.54 113.92,-224.08 123.46,-219.49 118.51,-214.54"/>
</g>
<!-- Node5 -->
<g id="node5" class="node">
<title>Node5</title>
<g id="a_node5"><a xlink:href="AbsPlot2_8hpp.html" target="_top" xlink:title=" ">
<polygon fill="white" stroke="black" points="119,-112.5 119,-131.5 199,-131.5 199,-112.5 119,-112.5"/>
<text text-anchor="middle" x="159" y="-119.5" font-family="Helvetica,sans-Serif" font-size="10.00">AbsPlot2.hpp</text>
</a>
</g>
</g>
<!-- Node4&#45;&gt;Node5 -->
<g id="edge4" class="edge">
<title>Node4&#45;&gt;Node5</title>
<path fill="none" stroke="midnightblue" d="M159,-157.8C159,-148.91 159,-138.78 159,-131.75"/>
<polygon fill="midnightblue" stroke="midnightblue" points="155.5,-158.08 159,-168.08 162.5,-158.08 155.5,-158.08"/>
</g>
<!-- Node6 -->
<g id="node6" class="node">
<title>Node6</title>
<g id="a_node6"><a xlink:href="Plot2_8hpp.html" target="_top" xlink:title=" ">
<polygon fill="white" stroke="black" points="128,-56.5 128,-75.5 190,-75.5 190,-56.5 128,-56.5"/>
<text text-anchor="middle" x="159" y="-63.5" font-family="Helvetica,sans-Serif" font-size="10.00">Plot2.hpp</text>
</a>
</g>
</g>
<!-- Node5&#45;&gt;Node6 -->
<g id="edge5" class="edge">
<title>Node5&#45;&gt;Node6</title>
<path fill="none" stroke="midnightblue" d="M159,-101.8C159,-92.91 159,-82.78 159,-75.75"/>
<polygon fill="midnightblue" stroke="midnightblue" points="155.5,-102.08 159,-112.08 162.5,-102.08 155.5,-102.08"/>
</g>
<!-- Node7 -->
<g id="node7" class="node">
<title>Node7</title>
<g id="a_node7"><a xlink:href="Plot2__MarchingCubes_8hpp.html" target="_top" xlink:title=" ">
<polygon fill="white" stroke="black" points="87.5,-0.5 87.5,-19.5 230.5,-19.5 230.5,-0.5 87.5,-0.5"/>
<text text-anchor="middle" x="159" y="-7.5" font-family="Helvetica,sans-Serif" font-size="10.00">Plot2_MarchingCubes.hpp</text>
</a>
</g>
</g>
<!-- Node6&#45;&gt;Node7 -->
<g id="edge6" class="edge">
<title>Node6&#45;&gt;Node7</title>
<path fill="none" stroke="midnightblue" d="M159,-45.8C159,-36.91 159,-26.78 159,-19.75"/>
<polygon fill="midnightblue" stroke="midnightblue" points="155.5,-46.08 159,-56.08 162.5,-46.08 155.5,-46.08"/>
</g>
</g>
</svg>
