<?xml version="1.0" encoding="UTF-8" standalone="no"?>
<!DOCTYPE svg PUBLIC "-//W3C//DTD SVG 1.1//EN"
 "http://www.w3.org/Graphics/SVG/1.1/DTD/svg11.dtd">
<!-- Generated by graphviz version 2.43.0 (0)
 -->
<!-- Title: AbsProgram.hpp Pages: 1 -->
<!--zoomable 463 -->
<svg id="main" version="1.1" xmlns="http://www.w3.org/2000/svg" xmlns:xlink="http://www.w3.org/1999/xlink" xml:space="preserve" onload="init(evt)">
<style type="text/css"><![CDATA[
.edge:hover path { stroke: red; }
.edge:hover polygon { stroke: red; fill: red; }
]]></style>
<script type="text/javascript"><![CDATA[
var edges = document.getElementsByTagName('g');
if (edges && edges.length) {
  for (var i=0;i<edges.length;i++) {
    if (edges[i].id.substr(0,4)=='edge') {
      edges[i].setAttribute('class','edge');
    }
  }
}
]]></script>
        <defs>
                <circle id="rim" cx="0" cy="0" r="7"/>
                <circle id="rim2" cx="0" cy="0" r="3.5"/>
                <g id="zoomPlus">
                        <use xlink:href="#rim" fill="#404040">
                                <set attributeName="fill" to="#808080" begin="zoomplus.mouseover" end="zoomplus.mouseout"/>
                        </use>
                        <path d="M-4,0h8M0,-4v8" fill="none" stroke="white" stroke-width="1.5" pointer-events="none"/>
                </g>
                <g id="zoomMin">
                        <use xlink:href="#rim" fill="#404040">
                                <set attributeName="fill" to="#808080" begin="zoomminus.mouseover" end="zoomminus.mouseout"/>
                        </use>
                        <path d="M-4,0h8" fill="none" stroke="white" stroke-width="1.5" pointer-events="none"/>
                </g>
                <g id="dirArrow">
                        <path fill="none" stroke="white" stroke-width="1.5" d="M0,-3.0v7 M-2.5,-0.5L0,-3.0L2.5,-0.5"/>
                </g>
               <g id="resetDef">
                       <use xlink:href="#rim2" fill="#404040">
                               <set attributeName="fill" to="#808080" begin="reset.mouseover" end="reset.mouseout"/>
                       </use>
               </g>
        </defs>

<script type="text/javascript">
var viewWidth = 1185;
var viewHeight = 463;
var sectionId = 'dynsection-0';
</script>
<script xlink:href="svgpan.js"/>
<svg id="graph" class="graph">
<g id="viewport">
<title>AbsProgram.hpp</title>
<polygon fill="white" stroke="transparent" points="-4,4 -4,-459 1180.89,-459 1180.89,4 -4,4"/>
<!-- Node1 -->
<g id="node1" class="node">
<title>Node1</title>
<g id="a_node1"><a xlink:title=" ">
<polygon fill="#bfbfbf" stroke="black" points="651.39,-435.5 651.39,-454.5 748.39,-454.5 748.39,-435.5 651.39,-435.5"/>
<text text-anchor="middle" x="699.89" y="-442.5" font-family="Helvetica,sans-Serif" font-size="10.00">AbsProgram.hpp</text>
</a>
</g>
</g>
<!-- Node2 -->
<g id="node2" class="node">
<title>Node2</title>
<g id="a_node2"><a xlink:title=" ">
<polygon fill="white" stroke="#bfbfbf" points="705.39,-6 705.39,-25 776.39,-25 776.39,-6 705.39,-6"/>
<text text-anchor="middle" x="740.89" y="-13" font-family="Helvetica,sans-Serif" font-size="10.00">glad/glad.h</text>
</a>
</g>
</g>
<!-- Node1&#45;&gt;Node2 -->
<g id="edge1" class="edge">
<title>Node1&#45;&gt;Node2</title>
<path fill="none" stroke="midnightblue" d="M748.7,-440.89C870.27,-431.81 1176.89,-400.18 1176.89,-312 1176.89,-312 1176.89,-312 1176.89,-154 1176.89,-72.8 898.36,-33.56 786.54,-21.08"/>
<polygon fill="midnightblue" stroke="midnightblue" points="786.89,-17.6 776.57,-19.99 786.13,-24.56 786.89,-17.6"/>
</g>
<!-- Node3 -->
<g id="node3" class="node">
<title>Node3</title>
<g id="a_node3"><a xlink:href="BufferManager_8hpp.html" target="_top" xlink:title=" ">
<polygon fill="white" stroke="black" points="748.89,-368.5 748.89,-398.5 860.89,-398.5 860.89,-368.5 748.89,-368.5"/>
<text text-anchor="start" x="756.89" y="-386.5" font-family="Helvetica,sans-Serif" font-size="10.00">packages/buffer/inc</text>
<text text-anchor="middle" x="804.89" y="-375.5" font-family="Helvetica,sans-Serif" font-size="10.00">/BufferManager.hpp</text>
</a>
</g>
</g>
<!-- Node1&#45;&gt;Node3 -->
<g id="edge2" class="edge">
<title>Node1&#45;&gt;Node3</title>
<path fill="none" stroke="midnightblue" d="M714.94,-435.48C729.56,-427.19 752.26,-414.32 771.2,-403.59"/>
<polygon fill="midnightblue" stroke="midnightblue" points="773.17,-406.5 780.15,-398.52 769.72,-400.41 773.17,-406.5"/>
</g>
<!-- Node6 -->
<g id="node6" class="node">
<title>Node6</title>
<g id="a_node6"><a target="_parent" xlink:href="../../../cieutils/docs/html/Loggee_8hpp.html.html" xlink:title=" ">
<polygon fill="white" stroke="black" points="328.39,-296 328.39,-326 447.39,-326 447.39,-296 328.39,-296"/>
<text text-anchor="start" x="336.39" y="-314" font-family="Helvetica,sans-Serif" font-size="10.00">packages/logging/inc</text>
<text text-anchor="middle" x="387.89" y="-303" font-family="Helvetica,sans-Serif" font-size="10.00">/Loggee.hpp</text>
</a>
</g>
</g>
<!-- Node1&#45;&gt;Node6 -->
<g id="edge30" class="edge">
<title>Node1&#45;&gt;Node6</title>
<path fill="none" stroke="midnightblue" d="M679.42,-435.34C629.16,-414.07 498.81,-358.93 430.73,-330.12"/>
<polygon fill="midnightblue" stroke="midnightblue" points="431.73,-326.74 421.15,-326.07 429,-333.19 431.73,-326.74"/>
</g>
<!-- Node10 -->
<g id="node10" class="node">
<title>Node10</title>
<g id="a_node10"><a target="_parent" xlink:href="../../../cieutils/docs/html/IDObject_8hpp.html.html" xlink:title=" ">
<polygon fill="white" stroke="black" points="244.89,-218 244.89,-248 354.89,-248 354.89,-218 244.89,-218"/>
<text text-anchor="start" x="252.89" y="-236" font-family="Helvetica,sans-Serif" font-size="10.00">packages/types/inc</text>
<text text-anchor="middle" x="299.89" y="-225" font-family="Helvetica,sans-Serif" font-size="10.00">/IDObject.hpp</text>
</a>
</g>
</g>
<!-- Node1&#45;&gt;Node10 -->
<g id="edge31" class="edge">
<title>Node1&#45;&gt;Node10</title>
<path fill="none" stroke="midnightblue" d="M651.09,-436.25C558.57,-420.55 362.98,-382.17 318.89,-332 301.18,-311.84 297.94,-280.22 298.15,-258.37"/>
<polygon fill="midnightblue" stroke="midnightblue" points="301.65,-258.35 298.5,-248.24 294.66,-258.11 301.65,-258.35"/>
</g>
<!-- Node4 -->
<g id="node4" class="node">
<title>Node4</title>
<g id="a_node4"><a target="_parent" xlink:href="../../../cieutils/docs/html/container__concepts_8hpp.html.html" xlink:title=" ">
<polygon fill="white" stroke="black" points="767.39,-212.5 767.39,-253.5 902.39,-253.5 902.39,-212.5 767.39,-212.5"/>
<text text-anchor="start" x="775.39" y="-241.5" font-family="Helvetica,sans-Serif" font-size="10.00">packages/compile_time</text>
<text text-anchor="start" x="775.39" y="-230.5" font-family="Helvetica,sans-Serif" font-size="10.00">/packages/concepts/inc</text>
<text text-anchor="middle" x="834.89" y="-219.5" font-family="Helvetica,sans-Serif" font-size="10.00">/container_concepts.hpp</text>
</a>
</g>
</g>
<!-- Node3&#45;&gt;Node4 -->
<g id="edge3" class="edge">
<title>Node3&#45;&gt;Node4</title>
<path fill="none" stroke="midnightblue" d="M835.8,-368.34C850.17,-359.98 865.83,-347.89 873.89,-332 885.56,-308.99 872.58,-281.63 858.54,-261.67"/>
<polygon fill="midnightblue" stroke="midnightblue" points="861.31,-259.53 852.53,-253.61 855.7,-263.72 861.31,-259.53"/>
</g>
<!-- Node5 -->
<g id="node5" class="node">
<title>Node5</title>
<g id="a_node5"><a target="_parent" xlink:href="../../../cieutils/docs/html/logical_8hpp.html.html" xlink:title=" ">
<polygon fill="white" stroke="black" points="465.89,-290.5 465.89,-331.5 597.89,-331.5 597.89,-290.5 465.89,-290.5"/>
<text text-anchor="start" x="473.89" y="-319.5" font-family="Helvetica,sans-Serif" font-size="10.00">packages/compile_time</text>
<text text-anchor="start" x="473.89" y="-308.5" font-family="Helvetica,sans-Serif" font-size="10.00">/packages/concepts/inc</text>
<text text-anchor="middle" x="531.89" y="-297.5" font-family="Helvetica,sans-Serif" font-size="10.00">/logical.hpp</text>
</a>
</g>
</g>
<!-- Node3&#45;&gt;Node5 -->
<g id="edge4" class="edge">
<title>Node3&#45;&gt;Node5</title>
<path fill="none" stroke="midnightblue" d="M749.67,-368.45C710.17,-358.37 655.74,-344.43 607.89,-332 607.79,-331.97 607.69,-331.95 607.6,-331.92"/>
<polygon fill="midnightblue" stroke="midnightblue" points="608.76,-328.61 598.21,-329.48 607,-335.38 608.76,-328.61"/>
</g>
<!-- Node3&#45;&gt;Node6 -->
<g id="edge5" class="edge">
<title>Node3&#45;&gt;Node6</title>
<path fill="none" stroke="midnightblue" d="M748.72,-376.76C679.57,-369.15 558.78,-354.05 456.89,-332 452.26,-331 447.48,-329.85 442.71,-328.63"/>
<polygon fill="midnightblue" stroke="midnightblue" points="443.51,-325.22 432.95,-326.03 441.71,-331.98 443.51,-325.22"/>
</g>
<!-- Node7 -->
<g id="node7" class="node">
<title>Node7</title>
<g id="a_node7"><a target="_parent" xlink:href="../../../cieutils/docs/html/LoggerSingleton_8hpp.html.html" xlink:title=" ">
<polygon fill="white" stroke="black" points="745.39,-296 745.39,-326 864.39,-326 864.39,-296 745.39,-296"/>
<text text-anchor="start" x="753.39" y="-314" font-family="Helvetica,sans-Serif" font-size="10.00">packages/logging/inc</text>
<text text-anchor="middle" x="804.89" y="-303" font-family="Helvetica,sans-Serif" font-size="10.00">/LoggerSingleton.hpp</text>
</a>
</g>
</g>
<!-- Node3&#45;&gt;Node7 -->
<g id="edge6" class="edge">
<title>Node3&#45;&gt;Node7</title>
<path fill="none" stroke="midnightblue" d="M804.89,-368.23C804.89,-359.16 804.89,-347.16 804.89,-336.58"/>
<polygon fill="midnightblue" stroke="midnightblue" points="808.39,-336.25 804.89,-326.25 801.39,-336.25 808.39,-336.25"/>
</g>
<!-- Node8 -->
<g id="node8" class="node">
<title>Node8</title>
<g id="a_node8"><a target="_parent" xlink:href="../../../cieutils/docs/html/typedefs_8hpp.html.html" xlink:title=" ">
<polygon fill="white" stroke="black" points="757.39,-140 757.39,-170 876.39,-170 876.39,-140 757.39,-140"/>
<text text-anchor="start" x="765.39" y="-158" font-family="Helvetica,sans-Serif" font-size="10.00">packages/macros/inc</text>
<text text-anchor="middle" x="816.89" y="-147" font-family="Helvetica,sans-Serif" font-size="10.00">/typedefs.hpp</text>
</a>
</g>
</g>
<!-- Node3&#45;&gt;Node8 -->
<g id="edge7" class="edge">
<title>Node3&#45;&gt;Node8</title>
<path fill="none" stroke="midnightblue" d="M841.61,-368.3C858.53,-360.05 877.56,-348.07 889.89,-332 911.83,-303.43 906.96,-289.68 911.89,-254 914.45,-235.51 921.15,-228.21 911.89,-212 902.44,-195.45 885.97,-183.3 869.37,-174.64"/>
<polygon fill="midnightblue" stroke="midnightblue" points="870.7,-171.39 860.18,-170.17 867.65,-177.69 870.7,-171.39"/>
</g>
<!-- Node9 -->
<g id="node9" class="node">
<title>Node9</title>
<g id="a_node9"><a xlink:href="Buffer_8hpp.html" target="_top" xlink:title=" ">
<polygon fill="white" stroke="black" points="616.39,-296 616.39,-326 727.39,-326 727.39,-296 616.39,-296"/>
<text text-anchor="start" x="624.39" y="-314" font-family="Helvetica,sans-Serif" font-size="10.00">packages/buffer/inc</text>
<text text-anchor="middle" x="671.89" y="-303" font-family="Helvetica,sans-Serif" font-size="10.00">/Buffer.hpp</text>
</a>
</g>
</g>
<!-- Node3&#45;&gt;Node9 -->
<g id="edge8" class="edge">
<title>Node3&#45;&gt;Node9</title>
<path fill="none" stroke="midnightblue" d="M778.3,-368.4C757.91,-357.6 729.58,-342.58 707.28,-330.76"/>
<polygon fill="midnightblue" stroke="midnightblue" points="708.92,-327.66 698.44,-326.07 705.64,-333.85 708.92,-327.66"/>
</g>
<!-- Node21 -->
<g id="node21" class="node">
<title>Node21</title>
<g id="a_node21"><a xlink:title=" ">
<polygon fill="white" stroke="#bfbfbf" points="958.89,-301.5 958.89,-320.5 990.89,-320.5 990.89,-301.5 958.89,-301.5"/>
<text text-anchor="middle" x="974.89" y="-308.5" font-family="Helvetica,sans-Serif" font-size="10.00">list</text>
</a>
</g>
</g>
<!-- Node3&#45;&gt;Node21 -->
<g id="edge28" class="edge">
<title>Node3&#45;&gt;Node21</title>
<path fill="none" stroke="midnightblue" d="M852.75,-368.42C880.36,-359.52 915.36,-346.89 944.89,-332 948.18,-330.34 951.54,-328.39 954.76,-326.37"/>
<polygon fill="midnightblue" stroke="midnightblue" points="956.94,-329.12 963.32,-320.67 953.06,-323.3 956.94,-329.12"/>
</g>
<!-- Node22 -->
<g id="node22" class="node">
<title>Node22</title>
<g id="a_node22"><a xlink:title=" ">
<polygon fill="white" stroke="#bfbfbf" points="1008.89,-296 1008.89,-326 1148.89,-326 1148.89,-296 1008.89,-296"/>
<text text-anchor="start" x="1016.89" y="-314" font-family="Helvetica,sans-Serif" font-size="10.00">packages/buffer/impl</text>
<text text-anchor="middle" x="1078.89" y="-303" font-family="Helvetica,sans-Serif" font-size="10.00">/BufferManager_impl.hpp</text>
</a>
</g>
</g>
<!-- Node3&#45;&gt;Node22 -->
<g id="edge29" class="edge">
<title>Node3&#45;&gt;Node22</title>
<path fill="none" stroke="midnightblue" d="M859.35,-368.49C903.94,-357.02 967.12,-340.76 1014.26,-328.63"/>
<polygon fill="midnightblue" stroke="midnightblue" points="1015.25,-331.99 1024.07,-326.11 1013.51,-325.21 1015.25,-331.99"/>
</g>
<!-- Node9&#45;&gt;Node2 -->
<g id="edge9" class="edge">
<title>Node9&#45;&gt;Node2</title>
<path fill="none" stroke="midnightblue" d="M686.16,-295.55C697.01,-284.41 712.19,-268.5 724.89,-254 740.71,-235.93 738.85,-225.23 758.89,-212 807.86,-179.69 850.51,-222.8 885.89,-176 929.87,-117.82 822.87,-55.8 769.27,-29.49"/>
<polygon fill="midnightblue" stroke="midnightblue" points="770.46,-26.18 759.93,-25 767.43,-32.49 770.46,-26.18"/>
</g>
<!-- Node9&#45;&gt;Node4 -->
<g id="edge15" class="edge">
<title>Node9&#45;&gt;Node4</title>
<path fill="none" stroke="midnightblue" d="M702.17,-295.88C724.98,-285.25 756.8,-270.41 783.56,-257.93"/>
<polygon fill="midnightblue" stroke="midnightblue" points="785.21,-261.03 792.8,-253.63 782.25,-254.68 785.21,-261.03"/>
</g>
<!-- Node9&#45;&gt;Node8 -->
<g id="edge16" class="edge">
<title>Node9&#45;&gt;Node8</title>
<path fill="none" stroke="midnightblue" d="M676.79,-295.89C684.45,-275.44 700.91,-237.24 724.89,-212 739.24,-196.9 758.51,-184.34 775.72,-174.97"/>
<polygon fill="midnightblue" stroke="midnightblue" points="777.78,-177.84 785.02,-170.09 774.53,-171.64 777.78,-177.84"/>
</g>
<!-- Node9&#45;&gt;Node10 -->
<g id="edge10" class="edge">
<title>Node9&#45;&gt;Node10</title>
<path fill="none" stroke="midnightblue" d="M628.74,-295.94C621.48,-293.8 614,-291.74 606.89,-290 524.26,-269.82 427.5,-253.33 365.03,-243.59"/>
<polygon fill="midnightblue" stroke="midnightblue" points="365.35,-240.1 354.93,-242.03 364.28,-247.02 365.35,-240.1"/>
</g>
<!-- Node14 -->
<g id="node14" class="node">
<title>Node14</title>
<g id="a_node14"><a target="_parent" xlink:href="../../../cieutils/docs/html/DynamicArray_8hpp.html.html" xlink:title=" ">
<polygon fill="white" stroke="black" points="23.39,-140 23.39,-170 154.39,-170 154.39,-140 23.39,-140"/>
<text text-anchor="start" x="31.39" y="-158" font-family="Helvetica,sans-Serif" font-size="10.00">packages/stl_extension</text>
<text text-anchor="middle" x="88.89" y="-147" font-family="Helvetica,sans-Serif" font-size="10.00">/inc/DynamicArray.hpp</text>
</a>
</g>
</g>
<!-- Node9&#45;&gt;Node14 -->
<g id="edge17" class="edge">
<title>Node9&#45;&gt;Node14</title>
<path fill="none" stroke="midnightblue" d="M626.45,-295.97C619.89,-293.96 613.22,-291.92 606.89,-290 553.62,-273.81 539.92,-271 486.89,-254 431.88,-236.36 419.81,-226.49 363.89,-212 276.46,-189.34 252.05,-195.65 163.89,-176 159,-174.91 153.95,-173.71 148.89,-172.47"/>
<polygon fill="midnightblue" stroke="midnightblue" points="149.73,-169.07 139.18,-170.02 148.02,-175.86 149.73,-169.07"/>
</g>
<!-- Node15 -->
<g id="node15" class="node">
<title>Node15</title>
<g id="a_node15"><a xlink:href="AttributeContainer_8hpp.html" target="_top" xlink:title=" ">
<polygon fill="white" stroke="black" points="495.89,-218 495.89,-248 625.89,-248 625.89,-218 495.89,-218"/>
<text text-anchor="start" x="503.89" y="-236" font-family="Helvetica,sans-Serif" font-size="10.00">packages/buffer/inc</text>
<text text-anchor="middle" x="560.89" y="-225" font-family="Helvetica,sans-Serif" font-size="10.00">/AttributeContainer.hpp</text>
</a>
</g>
</g>
<!-- Node9&#45;&gt;Node15 -->
<g id="edge18" class="edge">
<title>Node9&#45;&gt;Node15</title>
<path fill="none" stroke="midnightblue" d="M651.27,-295.88C633.99,-284.05 609.1,-267.01 589.82,-253.8"/>
<polygon fill="midnightblue" stroke="midnightblue" points="591.63,-250.8 581.4,-248.04 587.67,-256.58 591.63,-250.8"/>
</g>
<!-- Node11 -->
<g id="node11" class="node">
<title>Node11</title>
<g id="a_node11"><a xlink:href="types_8hpp.html" target="_top" xlink:title=" ">
<polygon fill="white" stroke="black" points="359.89,-67.5 359.89,-97.5 469.89,-97.5 469.89,-67.5 359.89,-67.5"/>
<text text-anchor="start" x="367.89" y="-85.5" font-family="Helvetica,sans-Serif" font-size="10.00">packages/types/inc</text>
<text text-anchor="middle" x="414.89" y="-74.5" font-family="Helvetica,sans-Serif" font-size="10.00">/types.hpp</text>
</a>
</g>
</g>
<!-- Node10&#45;&gt;Node11 -->
<g id="edge11" class="edge">
<title>Node10&#45;&gt;Node11</title>
<path fill="none" stroke="midnightblue" d="M244.67,-230.93C143.98,-227.14 -53.2,-210.07 13.89,-134 35.7,-109.27 241.61,-93.64 349.55,-87.07"/>
<polygon fill="midnightblue" stroke="midnightblue" points="349.91,-90.55 359.68,-86.46 349.49,-83.57 349.91,-90.55"/>
</g>
<!-- Node11&#45;&gt;Node2 -->
<g id="edge12" class="edge">
<title>Node11&#45;&gt;Node2</title>
<path fill="none" stroke="midnightblue" d="M470.19,-70.47C533.43,-57.87 635.81,-37.45 694.87,-25.68"/>
<polygon fill="midnightblue" stroke="midnightblue" points="695.9,-29.04 705.03,-23.65 694.53,-22.17 695.9,-29.04"/>
</g>
<!-- Node12 -->
<g id="node12" class="node">
<title>Node12</title>
<g id="a_node12"><a xlink:title=" ">
<polygon fill="white" stroke="#bfbfbf" points="343.89,-6 343.89,-25 387.89,-25 387.89,-6 343.89,-6"/>
<text text-anchor="middle" x="365.89" y="-13" font-family="Helvetica,sans-Serif" font-size="10.00">string</text>
</a>
</g>
</g>
<!-- Node11&#45;&gt;Node12 -->
<g id="edge13" class="edge">
<title>Node11&#45;&gt;Node12</title>
<path fill="none" stroke="midnightblue" d="M404.26,-67.4C396.7,-57.36 386.5,-43.84 378.52,-33.25"/>
<polygon fill="midnightblue" stroke="midnightblue" points="381.26,-31.07 372.45,-25.19 375.67,-35.29 381.26,-31.07"/>
</g>
<!-- Node13 -->
<g id="node13" class="node">
<title>Node13</title>
<g id="a_node13"><a xlink:title=" ">
<polygon fill="white" stroke="#bfbfbf" points="405.89,-0.5 405.89,-30.5 521.89,-30.5 521.89,-0.5 405.89,-0.5"/>
<text text-anchor="start" x="413.89" y="-18.5" font-family="Helvetica,sans-Serif" font-size="10.00">packages/traits/impl</text>
<text text-anchor="middle" x="463.89" y="-7.5" font-family="Helvetica,sans-Serif" font-size="10.00">/types_impl.hpp</text>
</a>
</g>
</g>
<!-- Node11&#45;&gt;Node13 -->
<g id="edge14" class="edge">
<title>Node11&#45;&gt;Node13</title>
<path fill="none" stroke="midnightblue" d="M425.53,-67.4C431.82,-59.05 439.93,-48.29 447.07,-38.81"/>
<polygon fill="midnightblue" stroke="midnightblue" points="450.06,-40.67 453.28,-30.58 444.47,-36.45 450.06,-40.67"/>
</g>
<!-- Node15&#45;&gt;Node2 -->
<g id="edge19" class="edge">
<title>Node15&#45;&gt;Node2</title>
<path fill="none" stroke="midnightblue" d="M549.29,-217.9C534.51,-198.11 512.72,-161.45 528.89,-134 564.73,-73.16 644.68,-41.59 695.51,-27.06"/>
<polygon fill="midnightblue" stroke="midnightblue" points="696.55,-30.41 705.27,-24.38 694.7,-23.66 696.55,-30.41"/>
</g>
<!-- Node15&#45;&gt;Node8 -->
<g id="edge20" class="edge">
<title>Node15&#45;&gt;Node8</title>
<path fill="none" stroke="midnightblue" d="M608.15,-217.97C650.95,-205.27 714.11,-186.51 759.74,-172.97"/>
<polygon fill="midnightblue" stroke="midnightblue" points="760.89,-176.28 769.48,-170.07 758.9,-169.57 760.89,-176.28"/>
</g>
<!-- Node15&#45;&gt;Node14 -->
<g id="edge23" class="edge">
<title>Node15&#45;&gt;Node14</title>
<path fill="none" stroke="midnightblue" d="M495.93,-217.97C484.93,-215.82 473.61,-213.74 462.89,-212 330.77,-190.6 295.33,-201.31 163.89,-176 158.52,-174.96 152.96,-173.75 147.41,-172.45"/>
<polygon fill="midnightblue" stroke="midnightblue" points="148.02,-169 137.48,-170.02 146.36,-175.8 148.02,-169"/>
</g>
<!-- Node16 -->
<g id="node16" class="node">
<title>Node16</title>
<g id="a_node16"><a target="_parent" xlink:href="../../../cieutils/docs/html/basic__concepts_8hpp.html.html" xlink:title=" ">
<polygon fill="white" stroke="black" points="348.89,-134.5 348.89,-175.5 480.89,-175.5 480.89,-134.5 348.89,-134.5"/>
<text text-anchor="start" x="356.89" y="-163.5" font-family="Helvetica,sans-Serif" font-size="10.00">packages/compile_time</text>
<text text-anchor="start" x="356.89" y="-152.5" font-family="Helvetica,sans-Serif" font-size="10.00">/packages/concepts/inc</text>
<text text-anchor="middle" x="414.89" y="-141.5" font-family="Helvetica,sans-Serif" font-size="10.00">/basic_concepts.hpp</text>
</a>
</g>
</g>
<!-- Node15&#45;&gt;Node16 -->
<g id="edge21" class="edge">
<title>Node15&#45;&gt;Node16</title>
<path fill="none" stroke="midnightblue" d="M533.77,-217.88C513.52,-207.34 485.34,-192.67 461.5,-180.26"/>
<polygon fill="midnightblue" stroke="midnightblue" points="463.09,-177.14 452.6,-175.63 459.85,-183.35 463.09,-177.14"/>
</g>
<!-- Node17 -->
<g id="node17" class="node">
<title>Node17</title>
<g id="a_node17"><a xlink:title=" ">
<polygon fill="white" stroke="#bfbfbf" points="537.39,-145.5 537.39,-164.5 584.39,-164.5 584.39,-145.5 537.39,-145.5"/>
<text text-anchor="middle" x="560.89" y="-152.5" font-family="Helvetica,sans-Serif" font-size="10.00">vector</text>
</a>
</g>
</g>
<!-- Node15&#45;&gt;Node17 -->
<g id="edge24" class="edge">
<title>Node15&#45;&gt;Node17</title>
<path fill="none" stroke="midnightblue" d="M560.89,-217.7C560.89,-205.6 560.89,-188.15 560.89,-174.89"/>
<polygon fill="midnightblue" stroke="midnightblue" points="564.39,-174.56 560.89,-164.56 557.39,-174.56 564.39,-174.56"/>
</g>
<!-- Node18 -->
<g id="node18" class="node">
<title>Node18</title>
<g id="a_node18"><a xlink:title=" ">
<polygon fill="white" stroke="#bfbfbf" points="602.89,-145.5 602.89,-164.5 660.89,-164.5 660.89,-145.5 602.89,-145.5"/>
<text text-anchor="middle" x="631.89" y="-152.5" font-family="Helvetica,sans-Serif" font-size="10.00">memory</text>
</a>
</g>
</g>
<!-- Node15&#45;&gt;Node18 -->
<g id="edge25" class="edge">
<title>Node15&#45;&gt;Node18</title>
<path fill="none" stroke="midnightblue" d="M574.25,-217.7C586.36,-204.74 604.19,-185.66 616.81,-172.15"/>
<polygon fill="midnightblue" stroke="midnightblue" points="619.62,-174.26 623.89,-164.56 614.51,-169.48 619.62,-174.26"/>
</g>
<!-- Node19 -->
<g id="node19" class="node">
<title>Node19</title>
<g id="a_node19"><a xlink:title=" ">
<polygon fill="white" stroke="#bfbfbf" points="678.89,-145.5 678.89,-164.5 738.89,-164.5 738.89,-145.5 678.89,-145.5"/>
<text text-anchor="middle" x="708.89" y="-152.5" font-family="Helvetica,sans-Serif" font-size="10.00">concepts</text>
</a>
</g>
</g>
<!-- Node15&#45;&gt;Node19 -->
<g id="edge26" class="edge">
<title>Node15&#45;&gt;Node19</title>
<path fill="none" stroke="midnightblue" d="M588.38,-217.88C615.48,-203.97 656.58,-182.86 683.08,-169.25"/>
<polygon fill="midnightblue" stroke="midnightblue" points="684.84,-172.29 692.13,-164.61 681.64,-166.06 684.84,-172.29"/>
</g>
<!-- Node20 -->
<g id="node20" class="node">
<title>Node20</title>
<g id="a_node20"><a xlink:title=" ">
<polygon fill="white" stroke="#bfbfbf" points="172.89,-140 172.89,-170 330.89,-170 330.89,-140 172.89,-140"/>
<text text-anchor="start" x="180.89" y="-158" font-family="Helvetica,sans-Serif" font-size="10.00">packages/buffer/impl</text>
<text text-anchor="middle" x="251.89" y="-147" font-family="Helvetica,sans-Serif" font-size="10.00">/AttributeContainer_impl.hpp</text>
</a>
</g>
</g>
<!-- Node15&#45;&gt;Node20 -->
<g id="edge27" class="edge">
<title>Node15&#45;&gt;Node20</title>
<path fill="none" stroke="midnightblue" d="M503.86,-217.97C451.57,-205.11 374.11,-186.06 318.9,-172.48"/>
<polygon fill="midnightblue" stroke="midnightblue" points="319.4,-169 308.86,-170.01 317.73,-175.8 319.4,-169"/>
</g>
<!-- Node16&#45;&gt;Node11 -->
<g id="edge22" class="edge">
<title>Node16&#45;&gt;Node11</title>
<path fill="none" stroke="midnightblue" d="M414.89,-134.36C414.89,-126.23 414.89,-116.7 414.89,-108.11"/>
<polygon fill="midnightblue" stroke="midnightblue" points="418.39,-107.89 414.89,-97.89 411.39,-107.89 418.39,-107.89"/>
</g>
</g>
</svg>
        <g id="navigator" transform="translate(0 0)" fill="#404254">
                <rect fill="#f2f5e9" fill-opacity="0.5" stroke="#606060" stroke-width=".5" x="0" y="0" width="60" height="60"/>
                <use id="zoomplus" xlink:href="#zoomPlus" x="17" y="9" onmousedown="handleZoom(evt,'in')"/>
                <use id="zoomminus" xlink:href="#zoomMin" x="42" y="9" onmousedown="handleZoom(evt,'out')"/>
                <use id="reset" xlink:href="#resetDef" x="30" y="36" onmousedown="handleReset()"/>
                <g id="arrowUp" xlink:href="#dirArrow" transform="translate(30 24)" onmousedown="handlePan(0,-1)">
                  <use xlink:href="#rim" fill="#404040">
                        <set attributeName="fill" to="#808080" begin="arrowUp.mouseover" end="arrowUp.mouseout"/>
                  </use>
                  <path fill="none" stroke="white" stroke-width="1.5" d="M0,-3.0v7 M-2.5,-0.5L0,-3.0L2.5,-0.5"/>
                </g>
                <g id="arrowRight" xlink:href="#dirArrow" transform="rotate(90) translate(36 -43)" onmousedown="handlePan(1,0)">
                  <use xlink:href="#rim" fill="#404040">
                        <set attributeName="fill" to="#808080" begin="arrowRight.mouseover" end="arrowRight.mouseout"/>
                  </use>
                  <path fill="none" stroke="white" stroke-width="1.5" d="M0,-3.0v7 M-2.5,-0.5L0,-3.0L2.5,-0.5"/>
                </g>
                <g id="arrowDown" xlink:href="#dirArrow" transform="rotate(180) translate(-30 -48)" onmousedown="handlePan(0,1)">
                  <use xlink:href="#rim" fill="#404040">
                        <set attributeName="fill" to="#808080" begin="arrowDown.mouseover" end="arrowDown.mouseout"/>
                  </use>
                  <path fill="none" stroke="white" stroke-width="1.5" d="M0,-3.0v7 M-2.5,-0.5L0,-3.0L2.5,-0.5"/>
                </g>
                <g id="arrowLeft" xlink:href="#dirArrow" transform="rotate(270) translate(-36 17)" onmousedown="handlePan(-1,0)">
                  <use xlink:href="#rim" fill="#404040">
                        <set attributeName="fill" to="#808080" begin="arrowLeft.mouseover" end="arrowLeft.mouseout"/>
                  </use>
                  <path fill="none" stroke="white" stroke-width="1.5" d="M0,-3.0v7 M-2.5,-0.5L0,-3.0L2.5,-0.5"/>
                </g>
        </g>
        <svg viewBox="0 0 15 15" width="100%" height="30px" preserveAspectRatio="xMaxYMin meet">
         <g id="arrow_out" transform="scale(0.3 0.3)">
          <a xlink:href="AbsProgram_8hpp__incl_org.svg" target="_base">
           <rect id="button" ry="5" rx="5" y="6" x="6" height="38" width="38"
                fill="#f2f5e9" fill-opacity="0.5" stroke="#606060" stroke-width="1.0"/>
           <path id="arrow"
             d="M 11.500037,31.436501 C 11.940474,20.09759 22.043105,11.32322 32.158766,21.979434 L 37.068811,17.246167 C 37.068811,17.246167 37.088388,32 37.088388,32 L 22.160133,31.978069 C 22.160133,31.978069 26.997745,27.140456 26.997745,27.140456 C 18.528582,18.264221 13.291696,25.230495 11.500037,31.436501 z"
             style="fill:#404040;"/>
          </a>
         </g>
        </svg>
</svg>
