<?xml version="1.0" encoding="UTF-8" standalone="no"?>
<!DOCTYPE svg PUBLIC "-//W3C//DTD SVG 1.1//EN"
 "http://www.w3.org/Graphics/SVG/1.1/DTD/svg11.dtd">
<!-- Generated by graphviz version 2.43.0 (0)
 -->
<!-- Title: AbsVertex.hpp Pages: 1 -->
<!--zoomable 374 -->
<svg id="main" version="1.1" xmlns="http://www.w3.org/2000/svg" xmlns:xlink="http://www.w3.org/1999/xlink" xml:space="preserve" onload="init(evt)">
<style type="text/css"><![CDATA[
.edge:hover path { stroke: red; }
.edge:hover polygon { stroke: red; fill: red; }
]]></style>
<script type="text/javascript"><![CDATA[
var edges = document.getElementsByTagName('g');
if (edges && edges.length) {
  for (var i=0;i<edges.length;i++) {
    if (edges[i].id.substr(0,4)=='edge') {
      edges[i].setAttribute('class','edge');
    }
  }
}
]]></script>
        <defs>
                <circle id="rim" cx="0" cy="0" r="7"/>
                <circle id="rim2" cx="0" cy="0" r="3.5"/>
                <g id="zoomPlus">
                        <use xlink:href="#rim" fill="#404040">
                                <set attributeName="fill" to="#808080" begin="zoomplus.mouseover" end="zoomplus.mouseout"/>
                        </use>
                        <path d="M-4,0h8M0,-4v8" fill="none" stroke="white" stroke-width="1.5" pointer-events="none"/>
                </g>
                <g id="zoomMin">
                        <use xlink:href="#rim" fill="#404040">
                                <set attributeName="fill" to="#808080" begin="zoomminus.mouseover" end="zoomminus.mouseout"/>
                        </use>
                        <path d="M-4,0h8" fill="none" stroke="white" stroke-width="1.5" pointer-events="none"/>
                </g>
                <g id="dirArrow">
                        <path fill="none" stroke="white" stroke-width="1.5" d="M0,-3.0v7 M-2.5,-0.5L0,-3.0L2.5,-0.5"/>
                </g>
               <g id="resetDef">
                       <use xlink:href="#rim2" fill="#404040">
                               <set attributeName="fill" to="#808080" begin="reset.mouseover" end="reset.mouseout"/>
                       </use>
               </g>
        </defs>

<script type="text/javascript">
var viewWidth = 1143;
var viewHeight = 374;
var sectionId = 'dynsection-0';
</script>
<script xlink:href="svgpan.js"/>
<svg id="graph" class="graph">
<g id="viewport">
<title>AbsVertex.hpp</title>
<polygon fill="white" stroke="transparent" points="-4,4 -4,-370 1139,-370 1139,4 -4,4"/>
<!-- Node1 -->
<g id="node1" class="node">
<title>Node1</title>
<g id="a_node1"><a xlink:title=" ">
<polygon fill="#bfbfbf" stroke="black" points="476,-346.5 476,-365.5 563,-365.5 563,-346.5 476,-346.5"/>
<text text-anchor="middle" x="519.5" y="-353.5" font-family="Helvetica,sans-Serif" font-size="10.00">AbsVertex.hpp</text>
</a>
</g>
</g>
<!-- Node2 -->
<g id="node2" class="node">
<title>Node2</title>
<g id="a_node2"><a xlink:title=" ">
<polygon fill="white" stroke="#bfbfbf" points="315,-6 315,-25 386,-25 386,-6 315,-6"/>
<text text-anchor="middle" x="350.5" y="-13" font-family="Helvetica,sans-Serif" font-size="10.00">glad/glad.h</text>
</a>
</g>
</g>
<!-- Node1&#45;&gt;Node2 -->
<g id="edge1" class="edge">
<title>Node1&#45;&gt;Node2</title>
<path fill="none" stroke="midnightblue" d="M563.07,-350.57C666.74,-338.83 919.5,-302.61 919.5,-228.5 919.5,-228.5 919.5,-228.5 919.5,-154 919.5,-46.53 531.16,-22.79 396.12,-17.78"/>
<polygon fill="midnightblue" stroke="midnightblue" points="396.21,-14.28 386.09,-17.42 395.96,-21.28 396.21,-14.28"/>
</g>
<!-- Node3 -->
<g id="node3" class="node">
<title>Node3</title>
<g id="a_node3"><a target="_parent" xlink:href="../../../cieutils/docs/html/typedefs_8hpp.html.html" xlink:title=" ">
<polygon fill="white" stroke="black" points="254,-140 254,-170 373,-170 373,-140 254,-140"/>
<text text-anchor="start" x="262" y="-158" font-family="Helvetica,sans-Serif" font-size="10.00">packages/macros/inc</text>
<text text-anchor="middle" x="313.5" y="-147" font-family="Helvetica,sans-Serif" font-size="10.00">/typedefs.hpp</text>
</a>
</g>
</g>
<!-- Node1&#45;&gt;Node3 -->
<g id="edge2" class="edge">
<title>Node1&#45;&gt;Node3</title>
<path fill="none" stroke="midnightblue" d="M517.83,-346.29C512.71,-321.76 494.94,-251.35 453.5,-212 440.58,-199.74 401.85,-184.69 368.39,-173.28"/>
<polygon fill="midnightblue" stroke="midnightblue" points="369.26,-169.88 358.66,-170.02 367.03,-176.52 369.26,-169.88"/>
</g>
<!-- Node4 -->
<g id="node4" class="node">
<title>Node4</title>
<g id="a_node4"><a target="_parent" xlink:href="../../../cieutils/docs/html/types_8hpp.html.html" xlink:title=" ">
<polygon fill="white" stroke="black" points="197.5,-279.5 197.5,-309.5 307.5,-309.5 307.5,-279.5 197.5,-279.5"/>
<text text-anchor="start" x="205.5" y="-297.5" font-family="Helvetica,sans-Serif" font-size="10.00">packages/types/inc</text>
<text text-anchor="middle" x="252.5" y="-286.5" font-family="Helvetica,sans-Serif" font-size="10.00">/types.hpp</text>
</a>
</g>
</g>
<!-- Node1&#45;&gt;Node4 -->
<g id="edge3" class="edge">
<title>Node1&#45;&gt;Node4</title>
<path fill="none" stroke="midnightblue" d="M480.57,-346.43C441.77,-337.87 380.22,-324.26 317.69,-310.26"/>
<polygon fill="midnightblue" stroke="midnightblue" points="318.18,-306.78 307.65,-308.01 316.65,-313.61 318.18,-306.78"/>
</g>
<!-- Node5 -->
<g id="node5" class="node">
<title>Node5</title>
<g id="a_node5"><a target="_parent" xlink:href="../../../cieutils/docs/html/basic__concepts_8hpp.html.html" xlink:title=" ">
<polygon fill="white" stroke="black" points="65.5,-134.5 65.5,-175.5 197.5,-175.5 197.5,-134.5 65.5,-134.5"/>
<text text-anchor="start" x="73.5" y="-163.5" font-family="Helvetica,sans-Serif" font-size="10.00">packages/compile_time</text>
<text text-anchor="start" x="73.5" y="-152.5" font-family="Helvetica,sans-Serif" font-size="10.00">/packages/concepts/inc</text>
<text text-anchor="middle" x="131.5" y="-141.5" font-family="Helvetica,sans-Serif" font-size="10.00">/basic_concepts.hpp</text>
</a>
</g>
</g>
<!-- Node1&#45;&gt;Node5 -->
<g id="edge4" class="edge">
<title>Node1&#45;&gt;Node5</title>
<path fill="none" stroke="midnightblue" d="M475.93,-354.5C396.41,-352.72 231.94,-344.82 188.5,-310 150.6,-279.62 137.9,-221.47 133.65,-185.96"/>
<polygon fill="midnightblue" stroke="midnightblue" points="137.1,-185.31 132.58,-175.73 130.13,-186.04 137.1,-185.31"/>
</g>
<!-- Node9 -->
<g id="node9" class="node">
<title>Node9</title>
<g id="a_node9"><a xlink:href="AttributeContainer_8hpp.html" target="_top" xlink:title=" ">
<polygon fill="white" stroke="black" points="501.5,-212.5 501.5,-242.5 631.5,-242.5 631.5,-212.5 501.5,-212.5"/>
<text text-anchor="start" x="509.5" y="-230.5" font-family="Helvetica,sans-Serif" font-size="10.00">packages/buffer/inc</text>
<text text-anchor="middle" x="566.5" y="-219.5" font-family="Helvetica,sans-Serif" font-size="10.00">/AttributeContainer.hpp</text>
</a>
</g>
</g>
<!-- Node1&#45;&gt;Node9 -->
<g id="edge9" class="edge">
<title>Node1&#45;&gt;Node9</title>
<path fill="none" stroke="midnightblue" d="M522.73,-346.31C529.82,-327.21 546.97,-281.07 557.57,-252.52"/>
<polygon fill="midnightblue" stroke="midnightblue" points="560.95,-253.48 561.15,-242.89 554.39,-251.04 560.95,-253.48"/>
</g>
<!-- Node11 -->
<g id="node11" class="node">
<title>Node11</title>
<g id="a_node11"><a xlink:title=" ">
<polygon fill="white" stroke="#bfbfbf" points="0,-145.5 0,-164.5 47,-164.5 47,-145.5 0,-145.5"/>
<text text-anchor="middle" x="23.5" y="-152.5" font-family="Helvetica,sans-Serif" font-size="10.00">vector</text>
</a>
</g>
</g>
<!-- Node1&#45;&gt;Node11 -->
<g id="edge24" class="edge">
<title>Node1&#45;&gt;Node11</title>
<path fill="none" stroke="midnightblue" d="M475.76,-353.41C392.03,-349.74 212.63,-338.7 158.5,-310 97.86,-277.85 51.92,-206.63 32.98,-173.53"/>
<polygon fill="midnightblue" stroke="midnightblue" points="35.91,-171.6 27.98,-164.57 29.8,-175.01 35.91,-171.6"/>
</g>
<!-- Node12 -->
<g id="node12" class="node">
<title>Node12</title>
<g id="a_node12"><a xlink:title=" ">
<polygon fill="white" stroke="#bfbfbf" points="833.5,-145.5 833.5,-164.5 891.5,-164.5 891.5,-145.5 833.5,-145.5"/>
<text text-anchor="middle" x="862.5" y="-152.5" font-family="Helvetica,sans-Serif" font-size="10.00">memory</text>
</a>
</g>
</g>
<!-- Node1&#45;&gt;Node12 -->
<g id="edge25" class="edge">
<title>Node1&#45;&gt;Node12</title>
<path fill="none" stroke="midnightblue" d="M534.24,-346.45C587.89,-315.32 773.09,-207.88 838.99,-169.64"/>
<polygon fill="midnightblue" stroke="midnightblue" points="840.92,-172.56 847.82,-164.52 837.41,-166.51 840.92,-172.56"/>
</g>
<!-- Node15 -->
<g id="node15" class="node">
<title>Node15</title>
<g id="a_node15"><a xlink:href="GLTraits_8hpp.html" target="_top" xlink:title=" ">
<polygon fill="white" stroke="black" points="325.5,-279.5 325.5,-309.5 433.5,-309.5 433.5,-279.5 325.5,-279.5"/>
<text text-anchor="start" x="333.5" y="-297.5" font-family="Helvetica,sans-Serif" font-size="10.00">packages/traits/inc</text>
<text text-anchor="middle" x="379.5" y="-286.5" font-family="Helvetica,sans-Serif" font-size="10.00">/GLTraits.hpp</text>
</a>
</g>
</g>
<!-- Node1&#45;&gt;Node15 -->
<g id="edge18" class="edge">
<title>Node1&#45;&gt;Node15</title>
<path fill="none" stroke="midnightblue" d="M499.44,-346.48C479.33,-337.93 447.74,-324.5 422.03,-313.57"/>
<polygon fill="midnightblue" stroke="midnightblue" points="423.07,-310.21 412.5,-309.52 420.33,-316.66 423.07,-310.21"/>
</g>
<!-- Node18 -->
<g id="node18" class="node">
<title>Node18</title>
<g id="a_node18"><a xlink:title=" ">
<polygon fill="white" stroke="#bfbfbf" points="947.5,-285 947.5,-304 997.5,-304 997.5,-285 947.5,-285"/>
<text text-anchor="middle" x="972.5" y="-292" font-family="Helvetica,sans-Serif" font-size="10.00">ranges</text>
</a>
</g>
</g>
<!-- Node1&#45;&gt;Node18 -->
<g id="edge26" class="edge">
<title>Node1&#45;&gt;Node18</title>
<path fill="none" stroke="midnightblue" d="M563.01,-353.8C639.1,-350.93 800.87,-341.35 933.5,-310 936.5,-309.29 939.58,-308.42 942.63,-307.45"/>
<polygon fill="midnightblue" stroke="midnightblue" points="943.85,-310.73 952.15,-304.15 941.55,-304.12 943.85,-310.73"/>
</g>
<!-- Node19 -->
<g id="node19" class="node">
<title>Node19</title>
<g id="a_node19"><a xlink:title=" ">
<polygon fill="white" stroke="#bfbfbf" points="1016,-279.5 1016,-309.5 1135,-309.5 1135,-279.5 1016,-279.5"/>
<text text-anchor="start" x="1024" y="-297.5" font-family="Helvetica,sans-Serif" font-size="10.00">packages/buffer/impl</text>
<text text-anchor="middle" x="1075.5" y="-286.5" font-family="Helvetica,sans-Serif" font-size="10.00">/AbsVertex_impl.hpp</text>
</a>
</g>
</g>
<!-- Node1&#45;&gt;Node19 -->
<g id="edge27" class="edge">
<title>Node1&#45;&gt;Node19</title>
<path fill="none" stroke="midnightblue" d="M563.03,-352.66C646.77,-347.8 836.24,-335.04 1005.64,-310.01"/>
<polygon fill="midnightblue" stroke="midnightblue" points="1006.36,-313.44 1015.74,-308.5 1005.33,-306.52 1006.36,-313.44"/>
</g>
<!-- Node6 -->
<g id="node6" class="node">
<title>Node6</title>
<g id="a_node6"><a xlink:href="types_8hpp.html" target="_top" xlink:title=" ">
<polygon fill="white" stroke="black" points="82.5,-67.5 82.5,-97.5 192.5,-97.5 192.5,-67.5 82.5,-67.5"/>
<text text-anchor="start" x="90.5" y="-85.5" font-family="Helvetica,sans-Serif" font-size="10.00">packages/types/inc</text>
<text text-anchor="middle" x="137.5" y="-74.5" font-family="Helvetica,sans-Serif" font-size="10.00">/types.hpp</text>
</a>
</g>
</g>
<!-- Node5&#45;&gt;Node6 -->
<g id="edge5" class="edge">
<title>Node5&#45;&gt;Node6</title>
<path fill="none" stroke="midnightblue" d="M133.17,-134.36C133.86,-126.23 134.67,-116.7 135.41,-108.11"/>
<polygon fill="midnightblue" stroke="midnightblue" points="138.91,-108.15 136.28,-97.89 131.94,-107.56 138.91,-108.15"/>
</g>
<!-- Node6&#45;&gt;Node2 -->
<g id="edge6" class="edge">
<title>Node6&#45;&gt;Node2</title>
<path fill="none" stroke="midnightblue" d="M183.46,-67.48C222.13,-55.67 276.77,-39 312.88,-27.98"/>
<polygon fill="midnightblue" stroke="midnightblue" points="314.01,-31.3 322.55,-25.03 311.97,-24.6 314.01,-31.3"/>
</g>
<!-- Node7 -->
<g id="node7" class="node">
<title>Node7</title>
<g id="a_node7"><a xlink:title=" ">
<polygon fill="white" stroke="#bfbfbf" points="66.5,-6 66.5,-25 110.5,-25 110.5,-6 66.5,-6"/>
<text text-anchor="middle" x="88.5" y="-13" font-family="Helvetica,sans-Serif" font-size="10.00">string</text>
</a>
</g>
</g>
<!-- Node6&#45;&gt;Node7 -->
<g id="edge7" class="edge">
<title>Node6&#45;&gt;Node7</title>
<path fill="none" stroke="midnightblue" d="M126.87,-67.4C119.3,-57.36 109.11,-43.84 101.13,-33.25"/>
<polygon fill="midnightblue" stroke="midnightblue" points="103.87,-31.07 95.05,-25.19 98.28,-35.29 103.87,-31.07"/>
</g>
<!-- Node8 -->
<g id="node8" class="node">
<title>Node8</title>
<g id="a_node8"><a xlink:title=" ">
<polygon fill="white" stroke="#bfbfbf" points="128.5,-0.5 128.5,-30.5 244.5,-30.5 244.5,-0.5 128.5,-0.5"/>
<text text-anchor="start" x="136.5" y="-18.5" font-family="Helvetica,sans-Serif" font-size="10.00">packages/traits/impl</text>
<text text-anchor="middle" x="186.5" y="-7.5" font-family="Helvetica,sans-Serif" font-size="10.00">/types_impl.hpp</text>
</a>
</g>
</g>
<!-- Node6&#45;&gt;Node8 -->
<g id="edge8" class="edge">
<title>Node6&#45;&gt;Node8</title>
<path fill="none" stroke="midnightblue" d="M148.13,-67.4C154.42,-59.05 162.54,-48.29 169.68,-38.81"/>
<polygon fill="midnightblue" stroke="midnightblue" points="172.66,-40.67 175.89,-30.58 167.07,-36.45 172.66,-40.67"/>
</g>
<!-- Node9&#45;&gt;Node2 -->
<g id="edge10" class="edge">
<title>Node9&#45;&gt;Node2</title>
<path fill="none" stroke="midnightblue" d="M501.21,-215.97C473.56,-208.69 442.68,-196.46 420.5,-176 378.35,-137.11 360.23,-68.31 353.68,-35.26"/>
<polygon fill="midnightblue" stroke="midnightblue" points="357.07,-34.36 351.82,-25.16 350.19,-35.63 357.07,-34.36"/>
</g>
<!-- Node9&#45;&gt;Node3 -->
<g id="edge11" class="edge">
<title>Node9&#45;&gt;Node3</title>
<path fill="none" stroke="midnightblue" d="M516.21,-212.49C475.3,-201.09 417.44,-184.96 374,-172.86"/>
<polygon fill="midnightblue" stroke="midnightblue" points="374.7,-169.42 364.12,-170.11 372.82,-176.16 374.7,-169.42"/>
</g>
<!-- Node9&#45;&gt;Node5 -->
<g id="edge12" class="edge">
<title>Node9&#45;&gt;Node5</title>
<path fill="none" stroke="midnightblue" d="M501.37,-216.67C436.29,-206.75 333.38,-190.83 244.5,-176 232.68,-174.03 220.17,-171.88 207.96,-169.74"/>
<polygon fill="midnightblue" stroke="midnightblue" points="208.24,-166.24 197.79,-167.96 207.03,-173.13 208.24,-166.24"/>
</g>
<!-- Node10 -->
<g id="node10" class="node">
<title>Node10</title>
<g id="a_node10"><a target="_parent" xlink:href="../../../cieutils/docs/html/DynamicArray_8hpp.html.html" xlink:title=" ">
<polygon fill="white" stroke="black" points="606,-140 606,-170 737,-170 737,-140 606,-140"/>
<text text-anchor="start" x="614" y="-158" font-family="Helvetica,sans-Serif" font-size="10.00">packages/stl_extension</text>
<text text-anchor="middle" x="671.5" y="-147" font-family="Helvetica,sans-Serif" font-size="10.00">/inc/DynamicArray.hpp</text>
</a>
</g>
</g>
<!-- Node9&#45;&gt;Node10 -->
<g id="edge13" class="edge">
<title>Node9&#45;&gt;Node10</title>
<path fill="none" stroke="midnightblue" d="M587.5,-212.4C603.09,-201.93 624.57,-187.51 641.91,-175.87"/>
<polygon fill="midnightblue" stroke="midnightblue" points="644.19,-178.55 650.54,-170.07 640.29,-172.74 644.19,-178.55"/>
</g>
<!-- Node9&#45;&gt;Node11 -->
<g id="edge14" class="edge">
<title>Node9&#45;&gt;Node11</title>
<path fill="none" stroke="midnightblue" d="M501.42,-217.73C485.74,-215.73 469.03,-213.7 453.5,-212 277.38,-192.72 224.81,-231.34 56.5,-176 52.01,-174.52 47.49,-172.34 43.3,-169.96"/>
<polygon fill="midnightblue" stroke="midnightblue" points="45.11,-166.96 34.78,-164.6 41.38,-172.89 45.11,-166.96"/>
</g>
<!-- Node9&#45;&gt;Node12 -->
<g id="edge15" class="edge">
<title>Node9&#45;&gt;Node12</title>
<path fill="none" stroke="midnightblue" d="M631.76,-219.07C684.77,-211.78 760.9,-198.42 824.5,-176 829.56,-174.22 834.77,-171.86 839.65,-169.39"/>
<polygon fill="midnightblue" stroke="midnightblue" points="841.36,-172.44 848.51,-164.62 838.05,-166.28 841.36,-172.44"/>
</g>
<!-- Node13 -->
<g id="node13" class="node">
<title>Node13</title>
<g id="a_node13"><a xlink:title=" ">
<polygon fill="white" stroke="#bfbfbf" points="755.5,-145.5 755.5,-164.5 815.5,-164.5 815.5,-145.5 755.5,-145.5"/>
<text text-anchor="middle" x="785.5" y="-152.5" font-family="Helvetica,sans-Serif" font-size="10.00">concepts</text>
</a>
</g>
</g>
<!-- Node9&#45;&gt;Node13 -->
<g id="edge16" class="edge">
<title>Node9&#45;&gt;Node13</title>
<path fill="none" stroke="midnightblue" d="M628.32,-212.42C663.53,-203.59 708.12,-191.05 746.5,-176 751.51,-174.04 756.72,-171.63 761.65,-169.18"/>
<polygon fill="midnightblue" stroke="midnightblue" points="763.38,-172.23 770.64,-164.51 760.15,-166.02 763.38,-172.23"/>
</g>
<!-- Node14 -->
<g id="node14" class="node">
<title>Node14</title>
<g id="a_node14"><a xlink:title=" ">
<polygon fill="white" stroke="#bfbfbf" points="429.5,-140 429.5,-170 587.5,-170 587.5,-140 429.5,-140"/>
<text text-anchor="start" x="437.5" y="-158" font-family="Helvetica,sans-Serif" font-size="10.00">packages/buffer/impl</text>
<text text-anchor="middle" x="508.5" y="-147" font-family="Helvetica,sans-Serif" font-size="10.00">/AttributeContainer_impl.hpp</text>
</a>
</g>
</g>
<!-- Node9&#45;&gt;Node14 -->
<g id="edge17" class="edge">
<title>Node9&#45;&gt;Node14</title>
<path fill="none" stroke="midnightblue" d="M554.76,-212.23C546.74,-202.49 535.96,-189.37 526.82,-178.26"/>
<polygon fill="midnightblue" stroke="midnightblue" points="529.28,-175.74 520.22,-170.25 523.87,-180.19 529.28,-175.74"/>
</g>
<!-- Node15&#45;&gt;Node2 -->
<g id="edge19" class="edge">
<title>Node15&#45;&gt;Node2</title>
<path fill="none" stroke="midnightblue" d="M325.44,-280.04C292.25,-270.56 254.27,-257.08 244.5,-243 216.89,-203.19 227.12,-179.22 244.5,-134 261.61,-89.5 304.23,-51.34 329.92,-31.37"/>
<polygon fill="midnightblue" stroke="midnightblue" points="332.36,-33.91 338.22,-25.08 328.14,-28.32 332.36,-33.91"/>
</g>
<!-- Node15&#45;&gt;Node9 -->
<g id="edge20" class="edge">
<title>Node15&#45;&gt;Node9</title>
<path fill="none" stroke="midnightblue" d="M420.08,-279.4C448.38,-269.56 486.33,-256.37 516.5,-245.88"/>
<polygon fill="midnightblue" stroke="midnightblue" points="517.71,-249.17 526,-242.58 515.41,-242.55 517.71,-249.17"/>
</g>
<!-- Node15&#45;&gt;Node11 -->
<g id="edge23" class="edge">
<title>Node15&#45;&gt;Node11</title>
<path fill="none" stroke="midnightblue" d="M327.15,-279.45C293.74,-270.08 249.69,-256.94 211.5,-243 141,-217.27 123.19,-210.42 56.5,-176 52.85,-174.12 49.06,-171.99 45.41,-169.85"/>
<polygon fill="midnightblue" stroke="midnightblue" points="47.11,-166.79 36.75,-164.6 43.49,-172.78 47.11,-166.79"/>
</g>
<!-- Node16 -->
<g id="node16" class="node">
<title>Node16</title>
<g id="a_node16"><a target="_parent" xlink:href="../../../cieutils/docs/html/StaticArray_8hpp.html.html" xlink:title=" ">
<polygon fill="white" stroke="black" points="314,-212.5 314,-242.5 445,-242.5 445,-212.5 314,-212.5"/>
<text text-anchor="start" x="322" y="-230.5" font-family="Helvetica,sans-Serif" font-size="10.00">packages/stl_extension</text>
<text text-anchor="middle" x="379.5" y="-219.5" font-family="Helvetica,sans-Serif" font-size="10.00">/inc/StaticArray.hpp</text>
</a>
</g>
</g>
<!-- Node15&#45;&gt;Node16 -->
<g id="edge21" class="edge">
<title>Node15&#45;&gt;Node16</title>
<path fill="none" stroke="midnightblue" d="M379.5,-279.4C379.5,-271.64 379.5,-261.81 379.5,-252.86"/>
<polygon fill="midnightblue" stroke="midnightblue" points="383,-252.58 379.5,-242.58 376,-252.58 383,-252.58"/>
</g>
<!-- Node17 -->
<g id="node17" class="node">
<title>Node17</title>
<g id="a_node17"><a xlink:title=" ">
<polygon fill="white" stroke="#bfbfbf" points="253.5,-218 253.5,-237 295.5,-237 295.5,-218 253.5,-218"/>
<text text-anchor="middle" x="274.5" y="-225" font-family="Helvetica,sans-Serif" font-size="10.00">array</text>
</a>
</g>
</g>
<!-- Node15&#45;&gt;Node17 -->
<g id="edge22" class="edge">
<title>Node15&#45;&gt;Node17</title>
<path fill="none" stroke="midnightblue" d="M356.72,-279.4C338.95,-268.39 314.4,-253.2 296.76,-242.28"/>
<polygon fill="midnightblue" stroke="midnightblue" points="298.59,-239.29 288.24,-237.01 294.9,-245.25 298.59,-239.29"/>
</g>
</g>
</svg>
        <g id="navigator" transform="translate(0 0)" fill="#404254">
                <rect fill="#f2f5e9" fill-opacity="0.5" stroke="#606060" stroke-width=".5" x="0" y="0" width="60" height="60"/>
                <use id="zoomplus" xlink:href="#zoomPlus" x="17" y="9" onmousedown="handleZoom(evt,'in')"/>
                <use id="zoomminus" xlink:href="#zoomMin" x="42" y="9" onmousedown="handleZoom(evt,'out')"/>
                <use id="reset" xlink:href="#resetDef" x="30" y="36" onmousedown="handleReset()"/>
                <g id="arrowUp" xlink:href="#dirArrow" transform="translate(30 24)" onmousedown="handlePan(0,-1)">
                  <use xlink:href="#rim" fill="#404040">
                        <set attributeName="fill" to="#808080" begin="arrowUp.mouseover" end="arrowUp.mouseout"/>
                  </use>
                  <path fill="none" stroke="white" stroke-width="1.5" d="M0,-3.0v7 M-2.5,-0.5L0,-3.0L2.5,-0.5"/>
                </g>
                <g id="arrowRight" xlink:href="#dirArrow" transform="rotate(90) translate(36 -43)" onmousedown="handlePan(1,0)">
                  <use xlink:href="#rim" fill="#404040">
                        <set attributeName="fill" to="#808080" begin="arrowRight.mouseover" end="arrowRight.mouseout"/>
                  </use>
                  <path fill="none" stroke="white" stroke-width="1.5" d="M0,-3.0v7 M-2.5,-0.5L0,-3.0L2.5,-0.5"/>
                </g>
                <g id="arrowDown" xlink:href="#dirArrow" transform="rotate(180) translate(-30 -48)" onmousedown="handlePan(0,1)">
                  <use xlink:href="#rim" fill="#404040">
                        <set attributeName="fill" to="#808080" begin="arrowDown.mouseover" end="arrowDown.mouseout"/>
                  </use>
                  <path fill="none" stroke="white" stroke-width="1.5" d="M0,-3.0v7 M-2.5,-0.5L0,-3.0L2.5,-0.5"/>
                </g>
                <g id="arrowLeft" xlink:href="#dirArrow" transform="rotate(270) translate(-36 17)" onmousedown="handlePan(-1,0)">
                  <use xlink:href="#rim" fill="#404040">
                        <set attributeName="fill" to="#808080" begin="arrowLeft.mouseover" end="arrowLeft.mouseout"/>
                  </use>
                  <path fill="none" stroke="white" stroke-width="1.5" d="M0,-3.0v7 M-2.5,-0.5L0,-3.0L2.5,-0.5"/>
                </g>
        </g>
        <svg viewBox="0 0 15 15" width="100%" height="30px" preserveAspectRatio="xMaxYMin meet">
         <g id="arrow_out" transform="scale(0.3 0.3)">
          <a xlink:href="AbsVertex_8hpp__incl_org.svg" target="_base">
           <rect id="button" ry="5" rx="5" y="6" x="6" height="38" width="38"
                fill="#f2f5e9" fill-opacity="0.5" stroke="#606060" stroke-width="1.0"/>
           <path id="arrow"
             d="M 11.500037,31.436501 C 11.940474,20.09759 22.043105,11.32322 32.158766,21.979434 L 37.068811,17.246167 C 37.068811,17.246167 37.088388,32 37.088388,32 L 22.160133,31.978069 C 22.160133,31.978069 26.997745,27.140456 26.997745,27.140456 C 18.528582,18.264221 13.291696,25.230495 11.500037,31.436501 z"
             style="fill:#404040;"/>
          </a>
         </g>
        </svg>
</svg>
