<?xml version="1.0" encoding="UTF-8" standalone="no"?>
<!DOCTYPE svg PUBLIC "-//W3C//DTD SVG 1.1//EN"
 "http://www.w3.org/Graphics/SVG/1.1/DTD/svg11.dtd">
<!-- Generated by graphviz version 2.43.0 (0)
 -->
<!-- Title: Arrow.hpp Pages: 1 -->
<!--zoomable 508 -->
<svg id="main" version="1.1" xmlns="http://www.w3.org/2000/svg" xmlns:xlink="http://www.w3.org/1999/xlink" xml:space="preserve" onload="init(evt)">
<style type="text/css"><![CDATA[
.edge:hover path { stroke: red; }
.edge:hover polygon { stroke: red; fill: red; }
]]></style>
<script type="text/javascript"><![CDATA[
var edges = document.getElementsByTagName('g');
if (edges && edges.length) {
  for (var i=0;i<edges.length;i++) {
    if (edges[i].id.substr(0,4)=='edge') {
      edges[i].setAttribute('class','edge');
    }
  }
}
]]></script>
        <defs>
                <circle id="rim" cx="0" cy="0" r="7"/>
                <circle id="rim2" cx="0" cy="0" r="3.5"/>
                <g id="zoomPlus">
                        <use xlink:href="#rim" fill="#404040">
                                <set attributeName="fill" to="#808080" begin="zoomplus.mouseover" end="zoomplus.mouseout"/>
                        </use>
                        <path d="M-4,0h8M0,-4v8" fill="none" stroke="white" stroke-width="1.5" pointer-events="none"/>
                </g>
                <g id="zoomMin">
                        <use xlink:href="#rim" fill="#404040">
                                <set attributeName="fill" to="#808080" begin="zoomminus.mouseover" end="zoomminus.mouseout"/>
                        </use>
                        <path d="M-4,0h8" fill="none" stroke="white" stroke-width="1.5" pointer-events="none"/>
                </g>
                <g id="dirArrow">
                        <path fill="none" stroke="white" stroke-width="1.5" d="M0,-3.0v7 M-2.5,-0.5L0,-3.0L2.5,-0.5"/>
                </g>
               <g id="resetDef">
                       <use xlink:href="#rim2" fill="#404040">
                               <set attributeName="fill" to="#808080" begin="reset.mouseover" end="reset.mouseout"/>
                       </use>
               </g>
        </defs>

<script type="text/javascript">
var viewWidth = 1267;
var viewHeight = 508;
var sectionId = 'dynsection-0';
</script>
<script xlink:href="svgpan.js"/>
<svg id="graph" class="graph">
<g id="viewport">
<title>Arrow.hpp</title>
<polygon fill="white" stroke="transparent" points="-4,4 -4,-504 1262.5,-504 1262.5,4 -4,4"/>
<!-- Node1 -->
<g id="node1" class="node">
<title>Node1</title>
<g id="a_node1"><a xlink:title=" ">
<polygon fill="#bfbfbf" stroke="black" points="1053.5,-480.5 1053.5,-499.5 1118.5,-499.5 1118.5,-480.5 1053.5,-480.5"/>
<text text-anchor="middle" x="1086" y="-487.5" font-family="Helvetica,sans-Serif" font-size="10.00">Arrow.hpp</text>
</a>
</g>
</g>
<!-- Node2 -->
<g id="node2" class="node">
<title>Node2</title>
<g id="a_node2"><a xlink:href="GLShape_8hpp.html" target="_top" xlink:title=" ">
<polygon fill="white" stroke="black" points="848.5,-413.5 848.5,-443.5 965.5,-443.5 965.5,-413.5 848.5,-413.5"/>
<text text-anchor="start" x="856.5" y="-431.5" font-family="Helvetica,sans-Serif" font-size="10.00">packages/shapes/inc</text>
<text text-anchor="middle" x="907" y="-420.5" font-family="Helvetica,sans-Serif" font-size="10.00">/GLShape.hpp</text>
</a>
</g>
</g>
<!-- Node1&#45;&gt;Node2 -->
<g id="edge1" class="edge">
<title>Node1&#45;&gt;Node2</title>
<path fill="none" stroke="midnightblue" d="M1060.35,-480.48C1033.96,-471.7 992.1,-457.79 958.78,-446.71"/>
<polygon fill="midnightblue" stroke="midnightblue" points="959.78,-443.36 949.19,-443.52 957.57,-450 959.78,-443.36"/>
</g>
<!-- Node17 -->
<g id="node17" class="node">
<title>Node17</title>
<g id="a_node17"><a target="_parent" xlink:href="../../../cieutils/docs/html/StaticArray_8hpp.html.html" xlink:title=" ">
<polygon fill="white" stroke="black" points="960.5,-212.5 960.5,-242.5 1091.5,-242.5 1091.5,-212.5 960.5,-212.5"/>
<text text-anchor="start" x="968.5" y="-230.5" font-family="Helvetica,sans-Serif" font-size="10.00">packages/stl_extension</text>
<text text-anchor="middle" x="1026" y="-219.5" font-family="Helvetica,sans-Serif" font-size="10.00">/inc/StaticArray.hpp</text>
</a>
</g>
</g>
<!-- Node1&#45;&gt;Node17 -->
<g id="edge35" class="edge">
<title>Node1&#45;&gt;Node17</title>
<path fill="none" stroke="midnightblue" d="M1084,-480.33C1075.79,-444.66 1044.41,-308.45 1031.55,-252.6"/>
<polygon fill="midnightblue" stroke="midnightblue" points="1034.89,-251.52 1029.24,-242.56 1028.07,-253.09 1034.89,-251.52"/>
</g>
<!-- Node18 -->
<g id="node18" class="node">
<title>Node18</title>
<g id="a_node18"><a xlink:title=" ">
<polygon fill="white" stroke="#bfbfbf" points="1110,-218 1110,-237 1152,-237 1152,-218 1110,-218"/>
<text text-anchor="middle" x="1131" y="-225" font-family="Helvetica,sans-Serif" font-size="10.00">array</text>
</a>
</g>
</g>
<!-- Node1&#45;&gt;Node18 -->
<g id="edge36" class="edge">
<title>Node1&#45;&gt;Node18</title>
<path fill="none" stroke="midnightblue" d="M1087.5,-480.33C1093.86,-443.48 1118.77,-299.33 1127.75,-247.33"/>
<polygon fill="midnightblue" stroke="midnightblue" points="1131.24,-247.65 1129.5,-237.2 1124.35,-246.46 1131.24,-247.65"/>
</g>
<!-- Node24 -->
<g id="node24" class="node">
<title>Node24</title>
<g id="a_node24"><a xlink:title=" ">
<polygon fill="white" stroke="#bfbfbf" points="1133.5,-413.5 1133.5,-443.5 1258.5,-443.5 1258.5,-413.5 1133.5,-413.5"/>
<text text-anchor="start" x="1141.5" y="-431.5" font-family="Helvetica,sans-Serif" font-size="10.00">packages/shapes/impl</text>
<text text-anchor="middle" x="1196" y="-420.5" font-family="Helvetica,sans-Serif" font-size="10.00">/Arrow_impl.hpp</text>
</a>
</g>
</g>
<!-- Node1&#45;&gt;Node24 -->
<g id="edge37" class="edge">
<title>Node1&#45;&gt;Node24</title>
<path fill="none" stroke="midnightblue" d="M1101.76,-480.48C1117.22,-472.12 1141.3,-459.09 1161.25,-448.3"/>
<polygon fill="midnightblue" stroke="midnightblue" points="1162.94,-451.36 1170.08,-443.52 1159.61,-445.2 1162.94,-451.36"/>
</g>
<!-- Node3 -->
<g id="node3" class="node">
<title>Node3</title>
<g id="a_node3"><a xlink:href="AbsGLShape_8hpp.html" target="_top" xlink:title=" ">
<polygon fill="white" stroke="black" points="778.5,-346.5 778.5,-376.5 895.5,-376.5 895.5,-346.5 778.5,-346.5"/>
<text text-anchor="start" x="786.5" y="-364.5" font-family="Helvetica,sans-Serif" font-size="10.00">packages/shapes/inc</text>
<text text-anchor="middle" x="837" y="-353.5" font-family="Helvetica,sans-Serif" font-size="10.00">/AbsGLShape.hpp</text>
</a>
</g>
</g>
<!-- Node2&#45;&gt;Node3 -->
<g id="edge2" class="edge">
<title>Node2&#45;&gt;Node3</title>
<path fill="none" stroke="midnightblue" d="M891.81,-413.4C882.45,-404.71 870.28,-393.4 859.79,-383.66"/>
<polygon fill="midnightblue" stroke="midnightblue" points="861.87,-380.82 852.16,-376.58 857.11,-385.95 861.87,-380.82"/>
</g>
<!-- Node19 -->
<g id="node19" class="node">
<title>Node19</title>
<g id="a_node19"><a xlink:href="AbsVertex_8hpp.html" target="_top" xlink:title=" ">
<polygon fill="white" stroke="black" points="610.5,-346.5 610.5,-376.5 721.5,-376.5 721.5,-346.5 610.5,-346.5"/>
<text text-anchor="start" x="618.5" y="-364.5" font-family="Helvetica,sans-Serif" font-size="10.00">packages/buffer/inc</text>
<text text-anchor="middle" x="666" y="-353.5" font-family="Helvetica,sans-Serif" font-size="10.00">/AbsVertex.hpp</text>
</a>
</g>
</g>
<!-- Node2&#45;&gt;Node19 -->
<g id="edge23" class="edge">
<title>Node2&#45;&gt;Node19</title>
<path fill="none" stroke="midnightblue" d="M855,-413.48C817.75,-403.43 767.43,-389.86 728.07,-379.24"/>
<polygon fill="midnightblue" stroke="midnightblue" points="728.89,-375.84 718.32,-376.61 727.06,-382.59 728.89,-375.84"/>
</g>
<!-- Node23 -->
<g id="node23" class="node">
<title>Node23</title>
<g id="a_node23"><a xlink:title=" ">
<polygon fill="white" stroke="#bfbfbf" points="913.5,-346.5 913.5,-376.5 1038.5,-376.5 1038.5,-346.5 913.5,-346.5"/>
<text text-anchor="start" x="921.5" y="-364.5" font-family="Helvetica,sans-Serif" font-size="10.00">packages/shapes/impl</text>
<text text-anchor="middle" x="976" y="-353.5" font-family="Helvetica,sans-Serif" font-size="10.00">/GLShape_impl.hpp</text>
</a>
</g>
</g>
<!-- Node2&#45;&gt;Node23 -->
<g id="edge34" class="edge">
<title>Node2&#45;&gt;Node23</title>
<path fill="none" stroke="midnightblue" d="M921.97,-413.4C931.19,-404.71 943.19,-393.4 953.54,-383.66"/>
<polygon fill="midnightblue" stroke="midnightblue" points="956.18,-385.98 961.06,-376.58 951.38,-380.89 956.18,-385.98"/>
</g>
<!-- Node4 -->
<g id="node4" class="node">
<title>Node4</title>
<g id="a_node4"><a xlink:href="GLTraits_8hpp.html" target="_top" xlink:title=" ">
<polygon fill="white" stroke="black" points="884,-279.5 884,-309.5 992,-309.5 992,-279.5 884,-279.5"/>
<text text-anchor="start" x="892" y="-297.5" font-family="Helvetica,sans-Serif" font-size="10.00">packages/traits/inc</text>
<text text-anchor="middle" x="938" y="-286.5" font-family="Helvetica,sans-Serif" font-size="10.00">/GLTraits.hpp</text>
</a>
</g>
</g>
<!-- Node3&#45;&gt;Node4 -->
<g id="edge3" class="edge">
<title>Node3&#45;&gt;Node4</title>
<path fill="none" stroke="midnightblue" d="M858.92,-346.4C873.08,-337.28 891.71,-325.29 907.33,-315.24"/>
<polygon fill="midnightblue" stroke="midnightblue" points="909.61,-317.93 916.13,-309.58 905.82,-312.05 909.61,-317.93"/>
</g>
<!-- Node13 -->
<g id="node13" class="node">
<title>Node13</title>
<g id="a_node13"><a xlink:title=" ">
<polygon fill="white" stroke="#bfbfbf" points="844.5,-145.5 844.5,-164.5 891.5,-164.5 891.5,-145.5 844.5,-145.5"/>
<text text-anchor="middle" x="868" y="-152.5" font-family="Helvetica,sans-Serif" font-size="10.00">vector</text>
</a>
</g>
</g>
<!-- Node3&#45;&gt;Node13 -->
<g id="edge21" class="edge">
<title>Node3&#45;&gt;Node13</title>
<path fill="none" stroke="midnightblue" d="M839.13,-346.44C844.57,-310.56 858.98,-215.53 865.14,-174.88"/>
<polygon fill="midnightblue" stroke="midnightblue" points="868.64,-175.15 866.67,-164.74 861.72,-174.1 868.64,-175.15"/>
</g>
<!-- Node14 -->
<g id="node14" class="node">
<title>Node14</title>
<g id="a_node14"><a xlink:title=" ">
<polygon fill="white" stroke="#bfbfbf" points="730,-145.5 730,-164.5 788,-164.5 788,-145.5 730,-145.5"/>
<text text-anchor="middle" x="759" y="-152.5" font-family="Helvetica,sans-Serif" font-size="10.00">memory</text>
</a>
</g>
</g>
<!-- Node3&#45;&gt;Node14 -->
<g id="edge22" class="edge">
<title>Node3&#45;&gt;Node14</title>
<path fill="none" stroke="midnightblue" d="M831.64,-346.44C817.86,-310.33 781.24,-214.3 765.9,-174.1"/>
<polygon fill="midnightblue" stroke="midnightblue" points="769.17,-172.84 762.33,-164.74 762.63,-175.33 769.17,-172.84"/>
</g>
<!-- Node5 -->
<g id="node5" class="node">
<title>Node5</title>
<g id="a_node5"><a xlink:title=" ">
<polygon fill="white" stroke="#bfbfbf" points="523.5,-6 523.5,-25 594.5,-25 594.5,-6 523.5,-6"/>
<text text-anchor="middle" x="559" y="-13" font-family="Helvetica,sans-Serif" font-size="10.00">glad/glad.h</text>
</a>
</g>
</g>
<!-- Node4&#45;&gt;Node5 -->
<g id="edge4" class="edge">
<title>Node4&#45;&gt;Node5</title>
<path fill="none" stroke="midnightblue" d="M937.29,-279.3C935.28,-250.18 927.75,-182.4 900,-134 878.58,-96.64 868.32,-86.65 830,-67 757.39,-29.76 661.28,-19.73 605.19,-17.18"/>
<polygon fill="midnightblue" stroke="midnightblue" points="604.99,-13.66 594.86,-16.77 604.71,-20.66 604.99,-13.66"/>
</g>
<!-- Node6 -->
<g id="node6" class="node">
<title>Node6</title>
<g id="a_node6"><a xlink:href="AttributeContainer_8hpp.html" target="_top" xlink:title=" ">
<polygon fill="white" stroke="black" points="503,-212.5 503,-242.5 633,-242.5 633,-212.5 503,-212.5"/>
<text text-anchor="start" x="511" y="-230.5" font-family="Helvetica,sans-Serif" font-size="10.00">packages/buffer/inc</text>
<text text-anchor="middle" x="568" y="-219.5" font-family="Helvetica,sans-Serif" font-size="10.00">/AttributeContainer.hpp</text>
</a>
</g>
</g>
<!-- Node4&#45;&gt;Node6 -->
<g id="edge5" class="edge">
<title>Node4&#45;&gt;Node6</title>
<path fill="none" stroke="midnightblue" d="M883.8,-283.98C820.38,-272.84 714.97,-254.32 643.55,-241.77"/>
<polygon fill="midnightblue" stroke="midnightblue" points="643.72,-238.25 633.26,-239.97 642.51,-245.14 643.72,-238.25"/>
</g>
<!-- Node4&#45;&gt;Node13 -->
<g id="edge20" class="edge">
<title>Node4&#45;&gt;Node13</title>
<path fill="none" stroke="midnightblue" d="M930.77,-279.3C917.89,-254 891.01,-201.2 876.97,-173.62"/>
<polygon fill="midnightblue" stroke="midnightblue" points="880.09,-172.02 872.43,-164.7 873.85,-175.2 880.09,-172.02"/>
</g>
<!-- Node4&#45;&gt;Node17 -->
<g id="edge18" class="edge">
<title>Node4&#45;&gt;Node17</title>
<path fill="none" stroke="midnightblue" d="M957.09,-279.4C969.32,-270.37 985.37,-258.51 998.9,-248.52"/>
<polygon fill="midnightblue" stroke="midnightblue" points="1000.98,-251.33 1006.94,-242.58 996.82,-245.7 1000.98,-251.33"/>
</g>
<!-- Node4&#45;&gt;Node18 -->
<g id="edge19" class="edge">
<title>Node4&#45;&gt;Node18</title>
<path fill="none" stroke="midnightblue" d="M989.32,-279.43C1021.49,-270.14 1063.61,-257.11 1100,-243 1101.42,-242.45 1102.87,-241.86 1104.32,-241.26"/>
<polygon fill="midnightblue" stroke="midnightblue" points="1106.08,-244.3 1113.8,-237.05 1103.24,-237.91 1106.08,-244.3"/>
</g>
<!-- Node6&#45;&gt;Node5 -->
<g id="edge6" class="edge">
<title>Node6&#45;&gt;Node5</title>
<path fill="none" stroke="midnightblue" d="M502.98,-217.73C432.61,-207.58 328.79,-190.4 317,-176 254.9,-100.17 427.41,-47.39 513.46,-26.49"/>
<polygon fill="midnightblue" stroke="midnightblue" points="514.33,-29.88 523.25,-24.16 512.71,-23.07 514.33,-29.88"/>
</g>
<!-- Node7 -->
<g id="node7" class="node">
<title>Node7</title>
<g id="a_node7"><a target="_parent" xlink:href="../../../cieutils/docs/html/typedefs_8hpp.html.html" xlink:title=" ">
<polygon fill="white" stroke="black" points="150.5,-140 150.5,-170 269.5,-170 269.5,-140 150.5,-140"/>
<text text-anchor="start" x="158.5" y="-158" font-family="Helvetica,sans-Serif" font-size="10.00">packages/macros/inc</text>
<text text-anchor="middle" x="210" y="-147" font-family="Helvetica,sans-Serif" font-size="10.00">/typedefs.hpp</text>
</a>
</g>
</g>
<!-- Node6&#45;&gt;Node7 -->
<g id="edge7" class="edge">
<title>Node6&#45;&gt;Node7</title>
<path fill="none" stroke="midnightblue" d="M502.82,-216.58C445.05,-207.4 358.53,-192.66 284,-176 279.3,-174.95 274.44,-173.79 269.57,-172.59"/>
<polygon fill="midnightblue" stroke="midnightblue" points="270.16,-169.12 259.61,-170.05 268.44,-175.91 270.16,-169.12"/>
</g>
<!-- Node8 -->
<g id="node8" class="node">
<title>Node8</title>
<g id="a_node8"><a target="_parent" xlink:href="../../../cieutils/docs/html/basic__concepts_8hpp.html.html" xlink:title=" ">
<polygon fill="white" stroke="black" points="0,-134.5 0,-175.5 132,-175.5 132,-134.5 0,-134.5"/>
<text text-anchor="start" x="8" y="-163.5" font-family="Helvetica,sans-Serif" font-size="10.00">packages/compile_time</text>
<text text-anchor="start" x="8" y="-152.5" font-family="Helvetica,sans-Serif" font-size="10.00">/packages/concepts/inc</text>
<text text-anchor="middle" x="66" y="-141.5" font-family="Helvetica,sans-Serif" font-size="10.00">/basic_concepts.hpp</text>
</a>
</g>
</g>
<!-- Node6&#45;&gt;Node8 -->
<g id="edge8" class="edge">
<title>Node6&#45;&gt;Node8</title>
<path fill="none" stroke="midnightblue" d="M502.81,-221.7C420.74,-215.02 275.34,-201.02 142.11,-176.08"/>
<polygon fill="midnightblue" stroke="midnightblue" points="142.61,-172.61 132.13,-174.18 141.31,-179.49 142.61,-172.61"/>
</g>
<!-- Node12 -->
<g id="node12" class="node">
<title>Node12</title>
<g id="a_node12"><a target="_parent" xlink:href="../../../cieutils/docs/html/DynamicArray_8hpp.html.html" xlink:title=" ">
<polygon fill="white" stroke="black" points="580.5,-140 580.5,-170 711.5,-170 711.5,-140 580.5,-140"/>
<text text-anchor="start" x="588.5" y="-158" font-family="Helvetica,sans-Serif" font-size="10.00">packages/stl_extension</text>
<text text-anchor="middle" x="646" y="-147" font-family="Helvetica,sans-Serif" font-size="10.00">/inc/DynamicArray.hpp</text>
</a>
</g>
</g>
<!-- Node6&#45;&gt;Node12 -->
<g id="edge13" class="edge">
<title>Node6&#45;&gt;Node12</title>
<path fill="none" stroke="midnightblue" d="M583.78,-212.23C595.06,-202.04 610.42,-188.16 623.05,-176.74"/>
<polygon fill="midnightblue" stroke="midnightblue" points="625.43,-179.31 630.51,-170 620.74,-174.11 625.43,-179.31"/>
</g>
<!-- Node6&#45;&gt;Node13 -->
<g id="edge14" class="edge">
<title>Node6&#45;&gt;Node13</title>
<path fill="none" stroke="midnightblue" d="M633.38,-213.13C679.32,-203.48 742.11,-189.77 797,-176 809.3,-172.91 822.7,-169.22 834.52,-165.86"/>
<polygon fill="midnightblue" stroke="midnightblue" points="835.78,-169.14 844.42,-163.01 833.85,-162.41 835.78,-169.14"/>
</g>
<!-- Node6&#45;&gt;Node14 -->
<g id="edge15" class="edge">
<title>Node6&#45;&gt;Node14</title>
<path fill="none" stroke="midnightblue" d="M616.62,-212.43C646.8,-203.19 686.15,-190.2 720,-176 724.75,-174.01 729.71,-171.67 734.45,-169.31"/>
<polygon fill="midnightblue" stroke="midnightblue" points="736.42,-172.23 743.7,-164.54 733.21,-166.01 736.42,-172.23"/>
</g>
<!-- Node15 -->
<g id="node15" class="node">
<title>Node15</title>
<g id="a_node15"><a xlink:title=" ">
<polygon fill="white" stroke="#bfbfbf" points="326,-145.5 326,-164.5 386,-164.5 386,-145.5 326,-145.5"/>
<text text-anchor="middle" x="356" y="-152.5" font-family="Helvetica,sans-Serif" font-size="10.00">concepts</text>
</a>
</g>
</g>
<!-- Node6&#45;&gt;Node15 -->
<g id="edge16" class="edge">
<title>Node6&#45;&gt;Node15</title>
<path fill="none" stroke="midnightblue" d="M509.8,-212.47C475.8,-203.54 432.35,-190.87 395,-176 390.21,-174.09 385.23,-171.8 380.49,-169.45"/>
<polygon fill="midnightblue" stroke="midnightblue" points="381.74,-166.15 371.25,-164.67 378.52,-172.37 381.74,-166.15"/>
</g>
<!-- Node16 -->
<g id="node16" class="node">
<title>Node16</title>
<g id="a_node16"><a xlink:title=" ">
<polygon fill="white" stroke="#bfbfbf" points="404,-140 404,-170 562,-170 562,-140 404,-140"/>
<text text-anchor="start" x="412" y="-158" font-family="Helvetica,sans-Serif" font-size="10.00">packages/buffer/impl</text>
<text text-anchor="middle" x="483" y="-147" font-family="Helvetica,sans-Serif" font-size="10.00">/AttributeContainer_impl.hpp</text>
</a>
</g>
</g>
<!-- Node6&#45;&gt;Node16 -->
<g id="edge17" class="edge">
<title>Node6&#45;&gt;Node16</title>
<path fill="none" stroke="midnightblue" d="M550.8,-212.23C538.39,-201.94 521.46,-187.9 507.62,-176.42"/>
<polygon fill="midnightblue" stroke="midnightblue" points="509.82,-173.69 499.89,-170 505.35,-179.08 509.82,-173.69"/>
</g>
<!-- Node9 -->
<g id="node9" class="node">
<title>Node9</title>
<g id="a_node9"><a xlink:href="types_8hpp.html" target="_top" xlink:title=" ">
<polygon fill="white" stroke="black" points="86,-67.5 86,-97.5 196,-97.5 196,-67.5 86,-67.5"/>
<text text-anchor="start" x="94" y="-85.5" font-family="Helvetica,sans-Serif" font-size="10.00">packages/types/inc</text>
<text text-anchor="middle" x="141" y="-74.5" font-family="Helvetica,sans-Serif" font-size="10.00">/types.hpp</text>
</a>
</g>
</g>
<!-- Node8&#45;&gt;Node9 -->
<g id="edge9" class="edge">
<title>Node8&#45;&gt;Node9</title>
<path fill="none" stroke="midnightblue" d="M86.89,-134.36C96.6,-125.23 108.18,-114.35 118.13,-105"/>
<polygon fill="midnightblue" stroke="midnightblue" points="120.8,-107.29 125.69,-97.89 116.01,-102.19 120.8,-107.29"/>
</g>
<!-- Node9&#45;&gt;Node5 -->
<g id="edge10" class="edge">
<title>Node9&#45;&gt;Node5</title>
<path fill="none" stroke="midnightblue" d="M196.08,-72.94C279.46,-59.97 436.18,-35.6 513.5,-23.58"/>
<polygon fill="midnightblue" stroke="midnightblue" points="514.07,-27.03 523.42,-22.03 513,-20.11 514.07,-27.03"/>
</g>
<!-- Node10 -->
<g id="node10" class="node">
<title>Node10</title>
<g id="a_node10"><a xlink:title=" ">
<polygon fill="white" stroke="#bfbfbf" points="70,-6 70,-25 114,-25 114,-6 70,-6"/>
<text text-anchor="middle" x="92" y="-13" font-family="Helvetica,sans-Serif" font-size="10.00">string</text>
</a>
</g>
</g>
<!-- Node9&#45;&gt;Node10 -->
<g id="edge11" class="edge">
<title>Node9&#45;&gt;Node10</title>
<path fill="none" stroke="midnightblue" d="M130.37,-67.4C122.8,-57.36 112.61,-43.84 104.63,-33.25"/>
<polygon fill="midnightblue" stroke="midnightblue" points="107.37,-31.07 98.55,-25.19 101.78,-35.29 107.37,-31.07"/>
</g>
<!-- Node11 -->
<g id="node11" class="node">
<title>Node11</title>
<g id="a_node11"><a xlink:title=" ">
<polygon fill="white" stroke="#bfbfbf" points="132,-0.5 132,-30.5 248,-30.5 248,-0.5 132,-0.5"/>
<text text-anchor="start" x="140" y="-18.5" font-family="Helvetica,sans-Serif" font-size="10.00">packages/traits/impl</text>
<text text-anchor="middle" x="190" y="-7.5" font-family="Helvetica,sans-Serif" font-size="10.00">/types_impl.hpp</text>
</a>
</g>
</g>
<!-- Node9&#45;&gt;Node11 -->
<g id="edge12" class="edge">
<title>Node9&#45;&gt;Node11</title>
<path fill="none" stroke="midnightblue" d="M151.63,-67.4C157.92,-59.05 166.04,-48.29 173.18,-38.81"/>
<polygon fill="midnightblue" stroke="midnightblue" points="176.16,-40.67 179.39,-30.58 170.57,-36.45 176.16,-40.67"/>
</g>
<!-- Node19&#45;&gt;Node4 -->
<g id="edge29" class="edge">
<title>Node19&#45;&gt;Node4</title>
<path fill="none" stroke="midnightblue" d="M721.7,-347.19C765.86,-336.64 827.63,-321.88 873.86,-310.83"/>
<polygon fill="midnightblue" stroke="midnightblue" points="874.85,-314.19 883.77,-308.46 873.23,-307.38 874.85,-314.19"/>
</g>
<!-- Node19&#45;&gt;Node5 -->
<g id="edge24" class="edge">
<title>Node19&#45;&gt;Node5</title>
<path fill="none" stroke="midnightblue" d="M677.84,-346.13C685.96,-336.14 696.87,-322.44 706,-310 758.11,-239.01 843.48,-208.79 797,-134 754.98,-66.39 661.3,-36.52 604.81,-24.25"/>
<polygon fill="midnightblue" stroke="midnightblue" points="605.22,-20.76 594.71,-22.15 603.79,-27.61 605.22,-20.76"/>
</g>
<!-- Node19&#45;&gt;Node6 -->
<g id="edge28" class="edge">
<title>Node19&#45;&gt;Node6</title>
<path fill="none" stroke="midnightblue" d="M665.85,-346.22C665,-328.83 661.34,-299.28 647,-279 637.75,-265.92 623.93,-255.43 610.43,-247.47"/>
<polygon fill="midnightblue" stroke="midnightblue" points="612.09,-244.4 601.65,-242.61 608.7,-250.52 612.09,-244.4"/>
</g>
<!-- Node19&#45;&gt;Node7 -->
<g id="edge25" class="edge">
<title>Node19&#45;&gt;Node7</title>
<path fill="none" stroke="midnightblue" d="M610.3,-354.26C565.52,-347.67 501.9,-334.66 451,-310 431.07,-300.35 430.16,-291.67 412,-279 355.03,-239.24 285.12,-198.31 244.27,-175.12"/>
<polygon fill="midnightblue" stroke="midnightblue" points="245.94,-172.05 235.52,-170.17 242.5,-178.14 245.94,-172.05"/>
</g>
<!-- Node19&#45;&gt;Node8 -->
<g id="edge27" class="edge">
<title>Node19&#45;&gt;Node8</title>
<path fill="none" stroke="midnightblue" d="M610.16,-356.75C517.1,-349.93 334.63,-333.94 275,-310 201.2,-280.37 129.84,-218.43 92.62,-182.79"/>
<polygon fill="midnightblue" stroke="midnightblue" points="94.83,-180.05 85.21,-175.6 89.95,-185.08 94.83,-180.05"/>
</g>
<!-- Node19&#45;&gt;Node13 -->
<g id="edge30" class="edge">
<title>Node19&#45;&gt;Node13</title>
<path fill="none" stroke="midnightblue" d="M698.57,-346.47C716.71,-337.66 738.99,-325.12 756,-310 802.62,-268.56 841.36,-204.55 858.51,-173.75"/>
<polygon fill="midnightblue" stroke="midnightblue" points="861.75,-175.12 863.48,-164.66 855.61,-171.76 861.75,-175.12"/>
</g>
<!-- Node19&#45;&gt;Node14 -->
<g id="edge31" class="edge">
<title>Node19&#45;&gt;Node14</title>
<path fill="none" stroke="midnightblue" d="M671.31,-346.35C681.45,-319.68 704.64,-260.29 728,-212 734.37,-198.83 742.39,-184.39 748.68,-173.47"/>
<polygon fill="midnightblue" stroke="midnightblue" points="751.85,-174.98 753.87,-164.57 745.8,-171.45 751.85,-174.98"/>
</g>
<!-- Node20 -->
<g id="node20" class="node">
<title>Node20</title>
<g id="a_node20"><a target="_parent" xlink:href="../../../cieutils/docs/html/types_8hpp.html.html" xlink:title=" ">
<polygon fill="white" stroke="black" points="460,-279.5 460,-309.5 570,-309.5 570,-279.5 460,-279.5"/>
<text text-anchor="start" x="468" y="-297.5" font-family="Helvetica,sans-Serif" font-size="10.00">packages/types/inc</text>
<text text-anchor="middle" x="515" y="-286.5" font-family="Helvetica,sans-Serif" font-size="10.00">/types.hpp</text>
</a>
</g>
</g>
<!-- Node19&#45;&gt;Node20 -->
<g id="edge26" class="edge">
<title>Node19&#45;&gt;Node20</title>
<path fill="none" stroke="midnightblue" d="M633.24,-346.4C610.88,-336.77 581.06,-323.94 556.96,-313.56"/>
<polygon fill="midnightblue" stroke="midnightblue" points="558.27,-310.32 547.7,-309.58 555.5,-316.75 558.27,-310.32"/>
</g>
<!-- Node21 -->
<g id="node21" class="node">
<title>Node21</title>
<g id="a_node21"><a xlink:title=" ">
<polygon fill="white" stroke="#bfbfbf" points="588,-285 588,-304 638,-304 638,-285 588,-285"/>
<text text-anchor="middle" x="613" y="-292" font-family="Helvetica,sans-Serif" font-size="10.00">ranges</text>
</a>
</g>
</g>
<!-- Node19&#45;&gt;Node21 -->
<g id="edge32" class="edge">
<title>Node19&#45;&gt;Node21</title>
<path fill="none" stroke="midnightblue" d="M654.5,-346.4C646.32,-336.36 635.29,-322.84 626.66,-312.25"/>
<polygon fill="midnightblue" stroke="midnightblue" points="629.12,-309.73 620.09,-304.19 623.7,-314.16 629.12,-309.73"/>
</g>
<!-- Node22 -->
<g id="node22" class="node">
<title>Node22</title>
<g id="a_node22"><a xlink:title=" ">
<polygon fill="white" stroke="#bfbfbf" points="284.5,-279.5 284.5,-309.5 403.5,-309.5 403.5,-279.5 284.5,-279.5"/>
<text text-anchor="start" x="292.5" y="-297.5" font-family="Helvetica,sans-Serif" font-size="10.00">packages/buffer/impl</text>
<text text-anchor="middle" x="344" y="-286.5" font-family="Helvetica,sans-Serif" font-size="10.00">/AbsVertex_impl.hpp</text>
</a>
</g>
</g>
<!-- Node19&#45;&gt;Node22 -->
<g id="edge33" class="edge">
<title>Node19&#45;&gt;Node22</title>
<path fill="none" stroke="midnightblue" d="M610.28,-349.25C555.74,-338.24 472.51,-321.44 413.64,-309.56"/>
<polygon fill="midnightblue" stroke="midnightblue" points="414.17,-306.09 403.68,-307.55 412.79,-312.96 414.17,-306.09"/>
</g>
</g>
</svg>
        <g id="navigator" transform="translate(0 0)" fill="#404254">
                <rect fill="#f2f5e9" fill-opacity="0.5" stroke="#606060" stroke-width=".5" x="0" y="0" width="60" height="60"/>
                <use id="zoomplus" xlink:href="#zoomPlus" x="17" y="9" onmousedown="handleZoom(evt,'in')"/>
                <use id="zoomminus" xlink:href="#zoomMin" x="42" y="9" onmousedown="handleZoom(evt,'out')"/>
                <use id="reset" xlink:href="#resetDef" x="30" y="36" onmousedown="handleReset()"/>
                <g id="arrowUp" xlink:href="#dirArrow" transform="translate(30 24)" onmousedown="handlePan(0,-1)">
                  <use xlink:href="#rim" fill="#404040">
                        <set attributeName="fill" to="#808080" begin="arrowUp.mouseover" end="arrowUp.mouseout"/>
                  </use>
                  <path fill="none" stroke="white" stroke-width="1.5" d="M0,-3.0v7 M-2.5,-0.5L0,-3.0L2.5,-0.5"/>
                </g>
                <g id="arrowRight" xlink:href="#dirArrow" transform="rotate(90) translate(36 -43)" onmousedown="handlePan(1,0)">
                  <use xlink:href="#rim" fill="#404040">
                        <set attributeName="fill" to="#808080" begin="arrowRight.mouseover" end="arrowRight.mouseout"/>
                  </use>
                  <path fill="none" stroke="white" stroke-width="1.5" d="M0,-3.0v7 M-2.5,-0.5L0,-3.0L2.5,-0.5"/>
                </g>
                <g id="arrowDown" xlink:href="#dirArrow" transform="rotate(180) translate(-30 -48)" onmousedown="handlePan(0,1)">
                  <use xlink:href="#rim" fill="#404040">
                        <set attributeName="fill" to="#808080" begin="arrowDown.mouseover" end="arrowDown.mouseout"/>
                  </use>
                  <path fill="none" stroke="white" stroke-width="1.5" d="M0,-3.0v7 M-2.5,-0.5L0,-3.0L2.5,-0.5"/>
                </g>
                <g id="arrowLeft" xlink:href="#dirArrow" transform="rotate(270) translate(-36 17)" onmousedown="handlePan(-1,0)">
                  <use xlink:href="#rim" fill="#404040">
                        <set attributeName="fill" to="#808080" begin="arrowLeft.mouseover" end="arrowLeft.mouseout"/>
                  </use>
                  <path fill="none" stroke="white" stroke-width="1.5" d="M0,-3.0v7 M-2.5,-0.5L0,-3.0L2.5,-0.5"/>
                </g>
        </g>
        <svg viewBox="0 0 15 15" width="100%" height="30px" preserveAspectRatio="xMaxYMin meet">
         <g id="arrow_out" transform="scale(0.3 0.3)">
          <a xlink:href="Arrow_8hpp__incl_org.svg" target="_base">
           <rect id="button" ry="5" rx="5" y="6" x="6" height="38" width="38"
                fill="#f2f5e9" fill-opacity="0.5" stroke="#606060" stroke-width="1.0"/>
           <path id="arrow"
             d="M 11.500037,31.436501 C 11.940474,20.09759 22.043105,11.32322 32.158766,21.979434 L 37.068811,17.246167 C 37.068811,17.246167 37.088388,32 37.088388,32 L 22.160133,31.978069 C 22.160133,31.978069 26.997745,27.140456 26.997745,27.140456 C 18.528582,18.264221 13.291696,25.230495 11.500037,31.436501 z"
             style="fill:#404040;"/>
          </a>
         </g>
        </svg>
</svg>
