<?xml version="1.0" encoding="UTF-8" standalone="no"?>
<!DOCTYPE svg PUBLIC "-//W3C//DTD SVG 1.1//EN"
 "http://www.w3.org/Graphics/SVG/1.1/DTD/svg11.dtd">
<!-- Generated by graphviz version 2.43.0 (0)
 -->
<!-- Title: AttributeContainer.hpp Pages: 1 -->
<svg width="884pt" height="240pt"
 viewBox="0.00 0.00 883.50 240.00" xmlns="http://www.w3.org/2000/svg" xmlns:xlink="http://www.w3.org/1999/xlink">
<g id="graph0" class="graph" transform="scale(1 1) rotate(0) translate(4 236)">
<title>AttributeContainer.hpp</title>
<polygon fill="white" stroke="transparent" points="-4,4 -4,-236 879.5,-236 879.5,4 -4,4"/>
<!-- Node1 -->
<g id="node1" class="node">
<title>Node1</title>
<g id="a_node1"><a xlink:title=" ">
<polygon fill="#bfbfbf" stroke="black" points="404,-212.5 404,-231.5 531,-231.5 531,-212.5 404,-212.5"/>
<text text-anchor="middle" x="467.5" y="-219.5" font-family="Helvetica,sans-Serif" font-size="10.00">AttributeContainer.hpp</text>
</a>
</g>
</g>
<!-- Node2 -->
<g id="node2" class="node">
<title>Node2</title>
<g id="a_node2"><a xlink:title=" ">
<polygon fill="white" stroke="#bfbfbf" points="0,-6 0,-25 71,-25 71,-6 0,-6"/>
<text text-anchor="middle" x="35.5" y="-13" font-family="Helvetica,sans-Serif" font-size="10.00">glad/glad.h</text>
</a>
</g>
</g>
<!-- Node1&#45;&gt;Node2 -->
<g id="edge1" class="edge">
<title>Node1&#45;&gt;Node2</title>
<path fill="none" stroke="midnightblue" d="M403.65,-218.45C293.18,-213.42 75.8,-200.49 51.5,-176 14.16,-138.37 23.53,-68.44 30.77,-35.11"/>
<polygon fill="midnightblue" stroke="midnightblue" points="34.19,-35.84 33.07,-25.3 27.38,-34.24 34.19,-35.84"/>
</g>
<!-- Node3 -->
<g id="node3" class="node">
<title>Node3</title>
<g id="a_node3"><a target="_parent" xlink:href="../../../cieutils/docs/html/typedefs_8hpp.html.html" xlink:title=" ">
<polygon fill="white" stroke="black" points="61,-140 61,-170 180,-170 180,-140 61,-140"/>
<text text-anchor="start" x="69" y="-158" font-family="Helvetica,sans-Serif" font-size="10.00">packages/macros/inc</text>
<text text-anchor="middle" x="120.5" y="-147" font-family="Helvetica,sans-Serif" font-size="10.00">/typedefs.hpp</text>
</a>
</g>
</g>
<!-- Node1&#45;&gt;Node3 -->
<g id="edge2" class="edge">
<title>Node1&#45;&gt;Node3</title>
<path fill="none" stroke="midnightblue" d="M403.87,-212.94C347.25,-205.24 262.36,-192.39 189.5,-176 185.07,-175 180.5,-173.88 175.93,-172.7"/>
<polygon fill="midnightblue" stroke="midnightblue" points="176.51,-169.23 165.95,-170.02 174.7,-175.99 176.51,-169.23"/>
</g>
<!-- Node4 -->
<g id="node4" class="node">
<title>Node4</title>
<g id="a_node4"><a target="_parent" xlink:href="../../../cieutils/docs/html/basic__concepts_8hpp.html.html" xlink:title=" ">
<polygon fill="white" stroke="black" points="198.5,-134.5 198.5,-175.5 330.5,-175.5 330.5,-134.5 198.5,-134.5"/>
<text text-anchor="start" x="206.5" y="-163.5" font-family="Helvetica,sans-Serif" font-size="10.00">packages/compile_time</text>
<text text-anchor="start" x="206.5" y="-152.5" font-family="Helvetica,sans-Serif" font-size="10.00">/packages/concepts/inc</text>
<text text-anchor="middle" x="264.5" y="-141.5" font-family="Helvetica,sans-Serif" font-size="10.00">/basic_concepts.hpp</text>
</a>
</g>
</g>
<!-- Node1&#45;&gt;Node4 -->
<g id="edge3" class="edge">
<title>Node1&#45;&gt;Node4</title>
<path fill="none" stroke="midnightblue" d="M440.54,-212.37C413.81,-203.81 371.71,-190.33 335.38,-178.69"/>
<polygon fill="midnightblue" stroke="midnightblue" points="336.38,-175.34 325.79,-175.63 334.25,-182.01 336.38,-175.34"/>
</g>
<!-- Node8 -->
<g id="node8" class="node">
<title>Node8</title>
<g id="a_node8"><a target="_parent" xlink:href="../../../cieutils/docs/html/DynamicArray_8hpp.html.html" xlink:title=" ">
<polygon fill="white" stroke="black" points="349,-140 349,-170 480,-170 480,-140 349,-140"/>
<text text-anchor="start" x="357" y="-158" font-family="Helvetica,sans-Serif" font-size="10.00">packages/stl_extension</text>
<text text-anchor="middle" x="414.5" y="-147" font-family="Helvetica,sans-Serif" font-size="10.00">/inc/DynamicArray.hpp</text>
</a>
</g>
</g>
<!-- Node1&#45;&gt;Node8 -->
<g id="edge8" class="edge">
<title>Node1&#45;&gt;Node8</title>
<path fill="none" stroke="midnightblue" d="M460.35,-212.23C453.26,-203.53 442.1,-189.84 432.56,-178.15"/>
<polygon fill="midnightblue" stroke="midnightblue" points="435.02,-175.63 425.99,-170.09 429.59,-180.05 435.02,-175.63"/>
</g>
<!-- Node9 -->
<g id="node9" class="node">
<title>Node9</title>
<g id="a_node9"><a xlink:title=" ">
<polygon fill="white" stroke="#bfbfbf" points="498,-145.5 498,-164.5 545,-164.5 545,-145.5 498,-145.5"/>
<text text-anchor="middle" x="521.5" y="-152.5" font-family="Helvetica,sans-Serif" font-size="10.00">vector</text>
</a>
</g>
</g>
<!-- Node1&#45;&gt;Node9 -->
<g id="edge9" class="edge">
<title>Node1&#45;&gt;Node9</title>
<path fill="none" stroke="midnightblue" d="M474.78,-212.23C483.2,-202.1 497.25,-185.19 507.75,-172.56"/>
<polygon fill="midnightblue" stroke="midnightblue" points="510.63,-174.56 514.33,-164.63 505.25,-170.08 510.63,-174.56"/>
</g>
<!-- Node10 -->
<g id="node10" class="node">
<title>Node10</title>
<g id="a_node10"><a xlink:title=" ">
<polygon fill="white" stroke="#bfbfbf" points="563.5,-145.5 563.5,-164.5 621.5,-164.5 621.5,-145.5 563.5,-145.5"/>
<text text-anchor="middle" x="592.5" y="-152.5" font-family="Helvetica,sans-Serif" font-size="10.00">memory</text>
</a>
</g>
</g>
<!-- Node1&#45;&gt;Node10 -->
<g id="edge10" class="edge">
<title>Node1&#45;&gt;Node10</title>
<path fill="none" stroke="midnightblue" d="M484.2,-212.41C501.72,-203.38 530.08,-188.74 554.5,-176 558.63,-173.85 563,-171.55 567.26,-169.32"/>
<polygon fill="midnightblue" stroke="midnightblue" points="569.02,-172.34 576.24,-164.59 565.76,-166.15 569.02,-172.34"/>
</g>
<!-- Node11 -->
<g id="node11" class="node">
<title>Node11</title>
<g id="a_node11"><a xlink:title=" ">
<polygon fill="white" stroke="#bfbfbf" points="639.5,-145.5 639.5,-164.5 699.5,-164.5 699.5,-145.5 639.5,-145.5"/>
<text text-anchor="middle" x="669.5" y="-152.5" font-family="Helvetica,sans-Serif" font-size="10.00">concepts</text>
</a>
</g>
</g>
<!-- Node1&#45;&gt;Node11 -->
<g id="edge11" class="edge">
<title>Node1&#45;&gt;Node11</title>
<path fill="none" stroke="midnightblue" d="M507.09,-212.47C540.56,-204.69 589.47,-191.99 630.5,-176 635.51,-174.05 640.73,-171.65 645.66,-169.2"/>
<polygon fill="midnightblue" stroke="midnightblue" points="647.39,-172.24 654.64,-164.53 644.16,-166.03 647.39,-172.24"/>
</g>
<!-- Node12 -->
<g id="node12" class="node">
<title>Node12</title>
<g id="a_node12"><a xlink:title=" ">
<polygon fill="white" stroke="#bfbfbf" points="717.5,-140 717.5,-170 875.5,-170 875.5,-140 717.5,-140"/>
<text text-anchor="start" x="725.5" y="-158" font-family="Helvetica,sans-Serif" font-size="10.00">packages/buffer/impl</text>
<text text-anchor="middle" x="796.5" y="-147" font-family="Helvetica,sans-Serif" font-size="10.00">/AttributeContainer_impl.hpp</text>
</a>
</g>
</g>
<!-- Node1&#45;&gt;Node12 -->
<g id="edge12" class="edge">
<title>Node1&#45;&gt;Node12</title>
<path fill="none" stroke="midnightblue" d="M516.54,-212.42C565.31,-203.75 642.23,-189.71 708.5,-176 714.2,-174.82 720.1,-173.56 726.02,-172.27"/>
<polygon fill="midnightblue" stroke="midnightblue" points="726.96,-175.65 735.97,-170.08 725.46,-168.81 726.96,-175.65"/>
</g>
<!-- Node5 -->
<g id="node5" class="node">
<title>Node5</title>
<g id="a_node5"><a xlink:href="types_8hpp.html" target="_top" xlink:title=" ">
<polygon fill="white" stroke="black" points="107.5,-67.5 107.5,-97.5 217.5,-97.5 217.5,-67.5 107.5,-67.5"/>
<text text-anchor="start" x="115.5" y="-85.5" font-family="Helvetica,sans-Serif" font-size="10.00">packages/types/inc</text>
<text text-anchor="middle" x="162.5" y="-74.5" font-family="Helvetica,sans-Serif" font-size="10.00">/types.hpp</text>
</a>
</g>
</g>
<!-- Node4&#45;&gt;Node5 -->
<g id="edge4" class="edge">
<title>Node4&#45;&gt;Node5</title>
<path fill="none" stroke="midnightblue" d="M236.09,-134.36C222.13,-124.71 205.33,-113.11 191.32,-103.42"/>
<polygon fill="midnightblue" stroke="midnightblue" points="193.22,-100.48 183,-97.67 189.24,-106.24 193.22,-100.48"/>
</g>
<!-- Node5&#45;&gt;Node2 -->
<g id="edge5" class="edge">
<title>Node5&#45;&gt;Node2</title>
<path fill="none" stroke="midnightblue" d="M134.94,-67.4C113.05,-56.19 82.67,-40.64 61.26,-29.69"/>
<polygon fill="midnightblue" stroke="midnightblue" points="62.62,-26.45 52.12,-25.01 59.43,-32.68 62.62,-26.45"/>
</g>
<!-- Node6 -->
<g id="node6" class="node">
<title>Node6</title>
<g id="a_node6"><a xlink:title=" ">
<polygon fill="white" stroke="#bfbfbf" points="114.5,-6 114.5,-25 158.5,-25 158.5,-6 114.5,-6"/>
<text text-anchor="middle" x="136.5" y="-13" font-family="Helvetica,sans-Serif" font-size="10.00">string</text>
</a>
</g>
</g>
<!-- Node5&#45;&gt;Node6 -->
<g id="edge6" class="edge">
<title>Node5&#45;&gt;Node6</title>
<path fill="none" stroke="midnightblue" d="M156.86,-67.4C153.01,-57.76 147.87,-44.91 143.71,-34.54"/>
<polygon fill="midnightblue" stroke="midnightblue" points="146.94,-33.18 139.98,-25.19 140.44,-35.78 146.94,-33.18"/>
</g>
<!-- Node7 -->
<g id="node7" class="node">
<title>Node7</title>
<g id="a_node7"><a xlink:title=" ">
<polygon fill="white" stroke="#bfbfbf" points="176.5,-0.5 176.5,-30.5 292.5,-30.5 292.5,-0.5 176.5,-0.5"/>
<text text-anchor="start" x="184.5" y="-18.5" font-family="Helvetica,sans-Serif" font-size="10.00">packages/traits/impl</text>
<text text-anchor="middle" x="234.5" y="-7.5" font-family="Helvetica,sans-Serif" font-size="10.00">/types_impl.hpp</text>
</a>
</g>
</g>
<!-- Node5&#45;&gt;Node7 -->
<g id="edge7" class="edge">
<title>Node5&#45;&gt;Node7</title>
<path fill="none" stroke="midnightblue" d="M178.12,-67.4C187.84,-58.62 200.51,-47.18 211.38,-37.37"/>
<polygon fill="midnightblue" stroke="midnightblue" points="213.83,-39.88 218.91,-30.58 209.14,-34.68 213.83,-39.88"/>
</g>
</g>
</svg>
