<?xml version="1.0" encoding="UTF-8" standalone="no"?>
<!DOCTYPE svg PUBLIC "-//W3C//DTD SVG 1.1//EN"
 "http://www.w3.org/Graphics/SVG/1.1/DTD/svg11.dtd">
<!-- Generated by graphviz version 2.43.0 (0)
 -->
<!-- Title: AttributeContainer.hpp Pages: 1 -->
<svg width="1297pt" height="588pt"
 viewBox="0.00 0.00 1297.00 588.00" xmlns="http://www.w3.org/2000/svg" xmlns:xlink="http://www.w3.org/1999/xlink">
<g id="graph0" class="graph" transform="scale(1 1) rotate(0) translate(4 584)">
<title>AttributeContainer.hpp</title>
<polygon fill="white" stroke="transparent" points="-4,4 -4,-584 1293,-584 1293,4 -4,4"/>
<!-- Node1 -->
<g id="node1" class="node">
<title>Node1</title>
<g id="a_node1"><a xlink:title=" ">
<polygon fill="#bfbfbf" stroke="black" points="373.5,-560.5 373.5,-579.5 500.5,-579.5 500.5,-560.5 373.5,-560.5"/>
<text text-anchor="middle" x="437" y="-567.5" font-family="Helvetica,sans-Serif" font-size="10.00">AttributeContainer.hpp</text>
</a>
</g>
</g>
<!-- Node2 -->
<g id="node2" class="node">
<title>Node2</title>
<g id="a_node2"><a xlink:href="AbsVertex_8hpp.html" target="_top" xlink:title=" ">
<polygon fill="white" stroke="black" points="21.5,-448.5 21.5,-467.5 108.5,-467.5 108.5,-448.5 21.5,-448.5"/>
<text text-anchor="middle" x="65" y="-455.5" font-family="Helvetica,sans-Serif" font-size="10.00">AbsVertex.hpp</text>
</a>
</g>
</g>
<!-- Node1&#45;&gt;Node2 -->
<g id="edge1" class="edge">
<title>Node1&#45;&gt;Node2</title>
<path fill="none" stroke="midnightblue" d="M396.5,-557.68C364.55,-548.69 318.87,-535.73 279,-524 211.95,-504.27 133.39,-480.15 92.66,-467.57"/>
<polygon fill="midnightblue" stroke="midnightblue" points="395.8,-561.11 406.37,-560.45 397.69,-554.37 395.8,-561.11"/>
</g>
<!-- Node14 -->
<g id="node14" class="node">
<title>Node14</title>
<g id="a_node14"><a xlink:href="Buffer_8hpp.html" target="_top" xlink:title=" ">
<polygon fill="white" stroke="black" points="554,-504.5 554,-523.5 620,-523.5 620,-504.5 554,-504.5"/>
<text text-anchor="middle" x="587" y="-511.5" font-family="Helvetica,sans-Serif" font-size="10.00">Buffer.hpp</text>
</a>
</g>
</g>
<!-- Node1&#45;&gt;Node14 -->
<g id="edge14" class="edge">
<title>Node1&#45;&gt;Node14</title>
<path fill="none" stroke="midnightblue" d="M470.22,-557.04C498.45,-546.88 538.26,-532.55 563.34,-523.52"/>
<polygon fill="midnightblue" stroke="midnightblue" points="468.99,-553.76 460.77,-560.44 471.36,-560.35 468.99,-553.76"/>
</g>
<!-- Node21 -->
<g id="node21" class="node">
<title>Node21</title>
<g id="a_node21"><a xlink:href="AbsPlot_8hpp.html" target="_top" xlink:title=" ">
<polygon fill="white" stroke="black" points="1215,-224.5 1215,-243.5 1289,-243.5 1289,-224.5 1215,-224.5"/>
<text text-anchor="middle" x="1252" y="-231.5" font-family="Helvetica,sans-Serif" font-size="10.00">AbsPlot.hpp</text>
</a>
</g>
</g>
<!-- Node1&#45;&gt;Node21 -->
<g id="edge45" class="edge">
<title>Node1&#45;&gt;Node21</title>
<path fill="none" stroke="midnightblue" d="M510.86,-567.17C717.93,-561.07 1289,-537.15 1289,-459 1289,-459 1289,-459 1289,-345 1289,-305.31 1267.09,-261.56 1256.99,-243.51"/>
<polygon fill="midnightblue" stroke="midnightblue" points="510.58,-563.68 500.69,-567.46 510.79,-570.67 510.58,-563.68"/>
</g>
<!-- Node39 -->
<g id="node39" class="node">
<title>Node39</title>
<g id="a_node39"><a xlink:href="GLTraits_8hpp.html" target="_top" xlink:title=" ">
<polygon fill="white" stroke="black" points="288,-504.5 288,-523.5 364,-523.5 364,-504.5 288,-504.5"/>
<text text-anchor="middle" x="326" y="-511.5" font-family="Helvetica,sans-Serif" font-size="10.00">GLTraits.hpp</text>
</a>
</g>
</g>
<!-- Node1&#45;&gt;Node39 -->
<g id="edge46" class="edge">
<title>Node1&#45;&gt;Node39</title>
<path fill="none" stroke="midnightblue" d="M409.99,-555.86C389.41,-545.85 361.66,-532.35 343.79,-523.65"/>
<polygon fill="midnightblue" stroke="midnightblue" points="408.64,-559.1 419.17,-560.32 411.7,-552.8 408.64,-559.1"/>
</g>
<!-- Node3 -->
<g id="node3" class="node">
<title>Node3</title>
<g id="a_node3"><a xlink:href="Vertex2_8hpp.html" target="_top" xlink:title=" ">
<polygon fill="white" stroke="black" points="27.5,-392.5 27.5,-411.5 102.5,-411.5 102.5,-392.5 27.5,-392.5"/>
<text text-anchor="middle" x="65" y="-399.5" font-family="Helvetica,sans-Serif" font-size="10.00">Vertex2.hpp</text>
</a>
</g>
</g>
<!-- Node2&#45;&gt;Node3 -->
<g id="edge2" class="edge">
<title>Node2&#45;&gt;Node3</title>
<path fill="none" stroke="midnightblue" d="M65,-437.8C65,-428.91 65,-418.78 65,-411.75"/>
<polygon fill="midnightblue" stroke="midnightblue" points="61.5,-438.08 65,-448.08 68.5,-438.08 61.5,-438.08"/>
</g>
<!-- Node11 -->
<g id="node11" class="node">
<title>Node11</title>
<g id="a_node11"><a xlink:href="GLShape_8hpp.html" target="_top" xlink:title=" ">
<polygon fill="white" stroke="black" points="182,-392.5 182,-411.5 262,-411.5 262,-392.5 182,-392.5"/>
<text text-anchor="middle" x="222" y="-399.5" font-family="Helvetica,sans-Serif" font-size="10.00">GLShape.hpp</text>
</a>
</g>
</g>
<!-- Node2&#45;&gt;Node11 -->
<g id="edge10" class="edge">
<title>Node2&#45;&gt;Node11</title>
<path fill="none" stroke="midnightblue" d="M99.39,-445.17C128.95,-435 170.87,-420.59 197.24,-411.52"/>
<polygon fill="midnightblue" stroke="midnightblue" points="98.2,-441.88 89.88,-448.44 100.47,-448.5 98.2,-441.88"/>
</g>
<!-- Node4 -->
<g id="node4" class="node">
<title>Node4</title>
<g id="a_node4"><a xlink:href="Vertex3_8hpp.html" target="_top" xlink:title=" ">
<polygon fill="white" stroke="black" points="28.5,-336.5 28.5,-355.5 103.5,-355.5 103.5,-336.5 28.5,-336.5"/>
<text text-anchor="middle" x="66" y="-343.5" font-family="Helvetica,sans-Serif" font-size="10.00">Vertex3.hpp</text>
</a>
</g>
</g>
<!-- Node3&#45;&gt;Node4 -->
<g id="edge3" class="edge">
<title>Node3&#45;&gt;Node4</title>
<path fill="none" stroke="midnightblue" d="M65.36,-381.8C65.52,-372.91 65.71,-362.78 65.84,-355.75"/>
<polygon fill="midnightblue" stroke="midnightblue" points="61.85,-382.02 65.17,-392.08 68.85,-382.15 61.85,-382.02"/>
</g>
<!-- Node8 -->
<g id="node8" class="node">
<title>Node8</title>
<g id="a_node8"><a xlink:href="AbsPlot2_8hpp.html" target="_top" xlink:title=" ">
<polygon fill="white" stroke="black" points="892,-112.5 892,-131.5 972,-131.5 972,-112.5 892,-112.5"/>
<text text-anchor="middle" x="932" y="-119.5" font-family="Helvetica,sans-Serif" font-size="10.00">AbsPlot2.hpp</text>
</a>
</g>
</g>
<!-- Node3&#45;&gt;Node8 -->
<g id="edge7" class="edge">
<title>Node3&#45;&gt;Node8</title>
<path fill="none" stroke="midnightblue" d="M45.2,-385.7C36.07,-377.73 25.78,-367.3 19,-356 3.52,-330.19 0,-321.1 0,-291 0,-291 0,-291 0,-233 0,-141.76 713.56,-125.97 891.95,-123.45"/>
<polygon fill="midnightblue" stroke="midnightblue" points="43.2,-388.59 53.13,-392.29 47.67,-383.21 43.2,-388.59"/>
</g>
<!-- Node5 -->
<g id="node5" class="node">
<title>Node5</title>
<g id="a_node5"><a xlink:href="ColoredVertex3_8hpp.html" target="_top" xlink:title=" ">
<polygon fill="white" stroke="black" points="75.5,-280.5 75.5,-299.5 188.5,-299.5 188.5,-280.5 75.5,-280.5"/>
<text text-anchor="middle" x="132" y="-287.5" font-family="Helvetica,sans-Serif" font-size="10.00">ColoredVertex3.hpp</text>
</a>
</g>
</g>
<!-- Node4&#45;&gt;Node5 -->
<g id="edge4" class="edge">
<title>Node4&#45;&gt;Node5</title>
<path fill="none" stroke="midnightblue" d="M84.55,-329.82C96.38,-320.15 111.29,-307.95 121.2,-299.83"/>
<polygon fill="midnightblue" stroke="midnightblue" points="82.13,-327.28 76.6,-336.32 86.56,-332.7 82.13,-327.28"/>
</g>
<!-- Node6 -->
<g id="node6" class="node">
<title>Node6</title>
<g id="a_node6"><a xlink:href="Axes_8hpp.html" target="_top" xlink:title=" ">
<polygon fill="white" stroke="black" points="273.5,-224.5 273.5,-243.5 334.5,-243.5 334.5,-224.5 273.5,-224.5"/>
<text text-anchor="middle" x="304" y="-231.5" font-family="Helvetica,sans-Serif" font-size="10.00">Axes.hpp</text>
</a>
</g>
</g>
<!-- Node5&#45;&gt;Node6 -->
<g id="edge5" class="edge">
<title>Node5&#45;&gt;Node6</title>
<path fill="none" stroke="midnightblue" d="M168.83,-277.44C201.26,-267.26 247.74,-252.66 276.87,-243.52"/>
<polygon fill="midnightblue" stroke="midnightblue" points="167.75,-274.11 159.25,-280.44 169.84,-280.79 167.75,-274.11"/>
</g>
<!-- Node7 -->
<g id="node7" class="node">
<title>Node7</title>
<g id="a_node7"><a xlink:href="Axes3DScene_8hpp.html" target="_top" xlink:title=" ">
<polygon fill="white" stroke="black" points="340,-168.5 340,-187.5 444,-187.5 444,-168.5 340,-168.5"/>
<text text-anchor="middle" x="392" y="-175.5" font-family="Helvetica,sans-Serif" font-size="10.00">Axes3DScene.hpp</text>
</a>
</g>
</g>
<!-- Node6&#45;&gt;Node7 -->
<g id="edge6" class="edge">
<title>Node6&#45;&gt;Node7</title>
<path fill="none" stroke="midnightblue" d="M326.98,-218.9C343.11,-209 364.18,-196.07 377.9,-187.65"/>
<polygon fill="midnightblue" stroke="midnightblue" points="324.83,-216.11 318.14,-224.32 328.49,-222.08 324.83,-216.11"/>
</g>
<!-- Node9 -->
<g id="node9" class="node">
<title>Node9</title>
<g id="a_node9"><a xlink:href="Plot2_8hpp.html" target="_top" xlink:title=" ">
<polygon fill="white" stroke="black" points="901,-56.5 901,-75.5 963,-75.5 963,-56.5 901,-56.5"/>
<text text-anchor="middle" x="932" y="-63.5" font-family="Helvetica,sans-Serif" font-size="10.00">Plot2.hpp</text>
</a>
</g>
</g>
<!-- Node8&#45;&gt;Node9 -->
<g id="edge8" class="edge">
<title>Node8&#45;&gt;Node9</title>
<path fill="none" stroke="midnightblue" d="M932,-101.8C932,-92.91 932,-82.78 932,-75.75"/>
<polygon fill="midnightblue" stroke="midnightblue" points="928.5,-102.08 932,-112.08 935.5,-102.08 928.5,-102.08"/>
</g>
<!-- Node10 -->
<g id="node10" class="node">
<title>Node10</title>
<g id="a_node10"><a xlink:href="Plot2__MarchingCubes_8hpp.html" target="_top" xlink:title=" ">
<polygon fill="white" stroke="black" points="860.5,-0.5 860.5,-19.5 1003.5,-19.5 1003.5,-0.5 860.5,-0.5"/>
<text text-anchor="middle" x="932" y="-7.5" font-family="Helvetica,sans-Serif" font-size="10.00">Plot2_MarchingCubes.hpp</text>
</a>
</g>
</g>
<!-- Node9&#45;&gt;Node10 -->
<g id="edge9" class="edge">
<title>Node9&#45;&gt;Node10</title>
<path fill="none" stroke="midnightblue" d="M932,-45.8C932,-36.91 932,-26.78 932,-19.75"/>
<polygon fill="midnightblue" stroke="midnightblue" points="928.5,-46.08 932,-56.08 935.5,-46.08 928.5,-46.08"/>
</g>
<!-- Node12 -->
<g id="node12" class="node">
<title>Node12</title>
<g id="a_node12"><a xlink:href="Arrow_8hpp.html" target="_top" xlink:title=" ">
<polygon fill="white" stroke="black" points="160.5,-336.5 160.5,-355.5 225.5,-355.5 225.5,-336.5 160.5,-336.5"/>
<text text-anchor="middle" x="193" y="-343.5" font-family="Helvetica,sans-Serif" font-size="10.00">Arrow.hpp</text>
</a>
</g>
</g>
<!-- Node11&#45;&gt;Node12 -->
<g id="edge11" class="edge">
<title>Node11&#45;&gt;Node12</title>
<path fill="none" stroke="midnightblue" d="M212.32,-382.98C207.4,-373.82 201.64,-363.09 197.7,-355.75"/>
<polygon fill="midnightblue" stroke="midnightblue" points="209.4,-384.93 217.21,-392.08 215.56,-381.62 209.4,-384.93"/>
</g>
<!-- Node13 -->
<g id="node13" class="node">
<title>Node13</title>
<g id="a_node13"><a xlink:href="CompoundShape_8hpp.html" target="_top" xlink:title=" ">
<polygon fill="white" stroke="black" points="244,-336.5 244,-355.5 364,-355.5 364,-336.5 244,-336.5"/>
<text text-anchor="middle" x="304" y="-343.5" font-family="Helvetica,sans-Serif" font-size="10.00">CompoundShape.hpp</text>
</a>
</g>
</g>
<!-- Node11&#45;&gt;Node13 -->
<g id="edge12" class="edge">
<title>Node11&#45;&gt;Node13</title>
<path fill="none" stroke="midnightblue" d="M243.83,-386.62C258.81,-376.76 278.2,-363.99 290.86,-355.65"/>
<polygon fill="midnightblue" stroke="midnightblue" points="241.6,-383.9 235.17,-392.32 245.45,-389.75 241.6,-383.9"/>
</g>
<!-- Node13&#45;&gt;Node6 -->
<g id="edge13" class="edge">
<title>Node13&#45;&gt;Node6</title>
<path fill="none" stroke="midnightblue" d="M304,-326.35C304,-302.25 304,-261.31 304,-243.59"/>
<polygon fill="midnightblue" stroke="midnightblue" points="300.5,-326.37 304,-336.37 307.5,-326.37 300.5,-326.37"/>
</g>
<!-- Node15 -->
<g id="node15" class="node">
<title>Node15</title>
<g id="a_node15"><a xlink:href="BufferManager_8hpp.html" target="_top" xlink:title=" ">
<polygon fill="white" stroke="black" points="777.5,-448.5 777.5,-467.5 886.5,-467.5 886.5,-448.5 777.5,-448.5"/>
<text text-anchor="middle" x="832" y="-455.5" font-family="Helvetica,sans-Serif" font-size="10.00">BufferManager.hpp</text>
</a>
</g>
</g>
<!-- Node14&#45;&gt;Node15 -->
<g id="edge15" class="edge">
<title>Node14&#45;&gt;Node15</title>
<path fill="none" stroke="midnightblue" d="M630.02,-503.52C676.1,-493.36 748.57,-477.39 793.03,-467.59"/>
<polygon fill="midnightblue" stroke="midnightblue" points="629.05,-500.15 620.04,-505.72 630.56,-506.98 629.05,-500.15"/>
</g>
<!-- Node33 -->
<g id="node33" class="node">
<title>Node33</title>
<g id="a_node33"><a xlink:href="Part_8hpp.html" target="_top" xlink:title=" ">
<polygon fill="white" stroke="black" points="559,-448.5 559,-467.5 615,-467.5 615,-448.5 559,-448.5"/>
<text text-anchor="middle" x="587" y="-455.5" font-family="Helvetica,sans-Serif" font-size="10.00">Part.hpp</text>
</a>
</g>
</g>
<!-- Node14&#45;&gt;Node33 -->
<g id="edge38" class="edge">
<title>Node14&#45;&gt;Node33</title>
<path fill="none" stroke="midnightblue" d="M587,-493.8C587,-484.91 587,-474.78 587,-467.75"/>
<polygon fill="midnightblue" stroke="midnightblue" points="583.5,-494.08 587,-504.08 590.5,-494.08 583.5,-494.08"/>
</g>
<!-- Node16 -->
<g id="node16" class="node">
<title>Node16</title>
<g id="a_node16"><a xlink:href="AbsProgram_8hpp.html" target="_top" xlink:title=" ">
<polygon fill="white" stroke="black" points="883.5,-392.5 883.5,-411.5 980.5,-411.5 980.5,-392.5 883.5,-392.5"/>
<text text-anchor="middle" x="932" y="-399.5" font-family="Helvetica,sans-Serif" font-size="10.00">AbsProgram.hpp</text>
</a>
</g>
</g>
<!-- Node15&#45;&gt;Node16 -->
<g id="edge16" class="edge">
<title>Node15&#45;&gt;Node16</title>
<path fill="none" stroke="midnightblue" d="M857.09,-443.45C875.55,-433.48 900.1,-420.23 915.97,-411.65"/>
<polygon fill="midnightblue" stroke="midnightblue" points="855.2,-440.49 848.07,-448.32 858.53,-446.65 855.2,-440.49"/>
</g>
<!-- Node17 -->
<g id="node17" class="node">
<title>Node17</title>
<g id="a_node17"><a xlink:href="Scene_8hpp.html" target="_top" xlink:title=" ">
<polygon fill="white" stroke="black" points="798.5,-392.5 798.5,-411.5 865.5,-411.5 865.5,-392.5 798.5,-392.5"/>
<text text-anchor="middle" x="832" y="-399.5" font-family="Helvetica,sans-Serif" font-size="10.00">Scene.hpp</text>
</a>
</g>
</g>
<!-- Node15&#45;&gt;Node17 -->
<g id="edge17" class="edge">
<title>Node15&#45;&gt;Node17</title>
<path fill="none" stroke="midnightblue" d="M832,-437.8C832,-428.91 832,-418.78 832,-411.75"/>
<polygon fill="midnightblue" stroke="midnightblue" points="828.5,-438.08 832,-448.08 835.5,-438.08 828.5,-438.08"/>
</g>
<!-- Node17&#45;&gt;Node8 -->
<g id="edge33" class="edge">
<title>Node17&#45;&gt;Node8</title>
<path fill="none" stroke="midnightblue" d="M802.33,-388.07C768.55,-371.11 718,-337.89 718,-291 718,-291 718,-291 718,-233 718,-202.77 715.89,-188.61 738,-168 760.01,-147.49 841.72,-134.07 891.81,-127.58"/>
<polygon fill="midnightblue" stroke="midnightblue" points="800.83,-391.23 811.36,-392.42 803.87,-384.93 800.83,-391.23"/>
</g>
<!-- Node18 -->
<g id="node18" class="node">
<title>Node18</title>
<g id="a_node18"><a xlink:href="AbsWindow_8hpp.html" target="_top" xlink:title=" ">
<polygon fill="white" stroke="black" points="979,-336.5 979,-355.5 1073,-355.5 1073,-336.5 979,-336.5"/>
<text text-anchor="middle" x="1026" y="-343.5" font-family="Helvetica,sans-Serif" font-size="10.00">AbsWindow.hpp</text>
</a>
</g>
</g>
<!-- Node17&#45;&gt;Node18 -->
<g id="edge18" class="edge">
<title>Node17&#45;&gt;Node18</title>
<path fill="none" stroke="midnightblue" d="M872.6,-389.7C909.22,-379.51 962.26,-364.74 995.4,-355.52"/>
<polygon fill="midnightblue" stroke="midnightblue" points="871.44,-386.39 862.74,-392.44 873.31,-393.13 871.44,-386.39"/>
</g>
<!-- Node30 -->
<g id="node30" class="node">
<title>Node30</title>
<g id="a_node30"><a xlink:href="PartScene_8hpp.html" target="_top" xlink:title=" ">
<polygon fill="white" stroke="black" points="604,-336.5 604,-355.5 690,-355.5 690,-336.5 604,-336.5"/>
<text text-anchor="middle" x="647" y="-343.5" font-family="Helvetica,sans-Serif" font-size="10.00">PartScene.hpp</text>
</a>
</g>
</g>
<!-- Node17&#45;&gt;Node30 -->
<g id="edge34" class="edge">
<title>Node17&#45;&gt;Node30</title>
<path fill="none" stroke="midnightblue" d="M792.83,-389.57C757.93,-379.38 707.65,-364.7 676.18,-355.52"/>
<polygon fill="midnightblue" stroke="midnightblue" points="792.11,-393 802.69,-392.44 794.07,-386.28 792.11,-393"/>
</g>
<!-- Node19 -->
<g id="node19" class="node">
<title>Node19</title>
<g id="a_node19"><a xlink:href="AbsContext_8hpp.html" target="_top" xlink:title=" ">
<polygon fill="white" stroke="black" points="1037,-280.5 1037,-299.5 1131,-299.5 1131,-280.5 1037,-280.5"/>
<text text-anchor="middle" x="1084" y="-287.5" font-family="Helvetica,sans-Serif" font-size="10.00">AbsContext.hpp</text>
</a>
</g>
</g>
<!-- Node18&#45;&gt;Node19 -->
<g id="edge19" class="edge">
<title>Node18&#45;&gt;Node19</title>
<path fill="none" stroke="midnightblue" d="M1042.91,-329.25C1053.2,-319.67 1065.97,-307.79 1074.51,-299.83"/>
<polygon fill="midnightblue" stroke="midnightblue" points="1040.25,-326.95 1035.32,-336.32 1045.02,-332.07 1040.25,-326.95"/>
</g>
<!-- Node18&#45;&gt;Node21 -->
<g id="edge32" class="edge">
<title>Node18&#45;&gt;Node21</title>
<path fill="none" stroke="midnightblue" d="M1083.32,-338.97C1136.52,-332.25 1210.61,-319.67 1232,-300 1248.16,-285.13 1251.4,-257.56 1251.96,-243.59"/>
<polygon fill="midnightblue" stroke="midnightblue" points="1082.82,-335.51 1073.32,-340.2 1083.67,-342.45 1082.82,-335.51"/>
</g>
<!-- Node22 -->
<g id="node22" class="node">
<title>Node22</title>
<g id="a_node22"><a xlink:href="GLFWWindow_8hpp.html" target="_top" xlink:title=" ">
<polygon fill="white" stroke="black" points="915,-280.5 915,-299.5 1019,-299.5 1019,-280.5 915,-280.5"/>
<text text-anchor="middle" x="967" y="-287.5" font-family="Helvetica,sans-Serif" font-size="10.00">GLFWWindow.hpp</text>
</a>
</g>
</g>
<!-- Node18&#45;&gt;Node22 -->
<g id="edge23" class="edge">
<title>Node18&#45;&gt;Node22</title>
<path fill="none" stroke="midnightblue" d="M1009.11,-329.54C998.59,-319.91 985.43,-307.87 976.65,-299.83"/>
<polygon fill="midnightblue" stroke="midnightblue" points="1006.78,-332.15 1016.52,-336.32 1011.51,-326.99 1006.78,-332.15"/>
</g>
<!-- Node23 -->
<g id="node23" class="node">
<title>Node23</title>
<g id="a_node23"><a xlink:href="AbsCameraControls_8hpp.html" target="_top" xlink:title=" ">
<polygon fill="white" stroke="black" points="763,-280.5 763,-299.5 897,-299.5 897,-280.5 763,-280.5"/>
<text text-anchor="middle" x="830" y="-287.5" font-family="Helvetica,sans-Serif" font-size="10.00">AbsCameraControls.hpp</text>
</a>
</g>
</g>
<!-- Node18&#45;&gt;Node23 -->
<g id="edge24" class="edge">
<title>Node18&#45;&gt;Node23</title>
<path fill="none" stroke="midnightblue" d="M984.98,-333.7C947.99,-323.51 894.4,-308.74 860.91,-299.52"/>
<polygon fill="midnightblue" stroke="midnightblue" points="984.37,-337.16 994.94,-336.44 986.23,-330.41 984.37,-337.16"/>
</g>
<!-- Node29 -->
<g id="node29" class="node">
<title>Node29</title>
<g id="a_node29"><a xlink:href="utilities_8hpp.html" target="_top" xlink:title=" ">
<polygon fill="white" stroke="black" points="1149,-280.5 1149,-299.5 1223,-299.5 1223,-280.5 1149,-280.5"/>
<text text-anchor="middle" x="1186" y="-287.5" font-family="Helvetica,sans-Serif" font-size="10.00">utilities.hpp</text>
</a>
</g>
</g>
<!-- Node18&#45;&gt;Node29 -->
<g id="edge31" class="edge">
<title>Node18&#45;&gt;Node29</title>
<path fill="none" stroke="midnightblue" d="M1061.05,-333.17C1091.17,-323 1133.9,-308.59 1160.77,-299.52"/>
<polygon fill="midnightblue" stroke="midnightblue" points="1059.71,-329.93 1051.35,-336.44 1061.95,-336.56 1059.71,-329.93"/>
</g>
<!-- Node20 -->
<g id="node20" class="node">
<title>Node20</title>
<g id="a_node20"><a xlink:href="GLFWContext_8hpp.html" target="_top" xlink:title=" ">
<polygon fill="white" stroke="black" points="1091,-224.5 1091,-243.5 1195,-243.5 1195,-224.5 1091,-224.5"/>
<text text-anchor="middle" x="1143" y="-231.5" font-family="Helvetica,sans-Serif" font-size="10.00">GLFWContext.hpp</text>
</a>
</g>
</g>
<!-- Node19&#45;&gt;Node20 -->
<g id="edge20" class="edge">
<title>Node19&#45;&gt;Node20</title>
<path fill="none" stroke="midnightblue" d="M1100.89,-273.54C1111.41,-263.91 1124.57,-251.87 1133.35,-243.83"/>
<polygon fill="midnightblue" stroke="midnightblue" points="1098.49,-270.99 1093.48,-280.32 1103.22,-276.15 1098.49,-270.99"/>
</g>
<!-- Node19&#45;&gt;Node21 -->
<g id="edge21" class="edge">
<title>Node19&#45;&gt;Node21</title>
<path fill="none" stroke="midnightblue" d="M1120.39,-277.3C1152.04,-267.13 1197.17,-252.62 1225.5,-243.52"/>
<polygon fill="midnightblue" stroke="midnightblue" points="1119.07,-274.05 1110.62,-280.44 1121.21,-280.72 1119.07,-274.05"/>
</g>
<!-- Node21&#45;&gt;Node8 -->
<g id="edge22" class="edge">
<title>Node21&#45;&gt;Node8</title>
<path fill="none" stroke="midnightblue" d="M1252.66,-214.3C1252.09,-199.55 1248.74,-179.59 1236,-168 1198.07,-133.49 1045.66,-125.43 972.11,-123.56"/>
<polygon fill="midnightblue" stroke="midnightblue" points="1249.16,-214.34 1252.65,-224.34 1256.16,-214.34 1249.16,-214.34"/>
</g>
<!-- Node24 -->
<g id="node24" class="node">
<title>Node24</title>
<g id="a_node24"><a xlink:href="DebugCameraControls_8hpp.html" target="_top" xlink:title=" ">
<polygon fill="white" stroke="black" points="925,-224.5 925,-243.5 1073,-243.5 1073,-224.5 925,-224.5"/>
<text text-anchor="middle" x="999" y="-231.5" font-family="Helvetica,sans-Serif" font-size="10.00">DebugCameraControls.hpp</text>
</a>
</g>
</g>
<!-- Node23&#45;&gt;Node24 -->
<g id="edge25" class="edge">
<title>Node23&#45;&gt;Node24</title>
<path fill="none" stroke="midnightblue" d="M866.6,-277.3C898.45,-267.13 943.84,-252.62 972.35,-243.52"/>
<polygon fill="midnightblue" stroke="midnightblue" points="865.24,-274.07 856.78,-280.44 867.37,-280.73 865.24,-274.07"/>
</g>
<!-- Node25 -->
<g id="node25" class="node">
<title>Node25</title>
<g id="a_node25"><a xlink:href="MappedCameraControls_8hpp.html" target="_top" xlink:title=" ">
<polygon fill="white" stroke="black" points="751.5,-224.5 751.5,-243.5 906.5,-243.5 906.5,-224.5 751.5,-224.5"/>
<text text-anchor="middle" x="829" y="-231.5" font-family="Helvetica,sans-Serif" font-size="10.00">MappedCameraControls.hpp</text>
</a>
</g>
</g>
<!-- Node23&#45;&gt;Node25 -->
<g id="edge26" class="edge">
<title>Node23&#45;&gt;Node25</title>
<path fill="none" stroke="midnightblue" d="M829.64,-269.8C829.48,-260.91 829.29,-250.78 829.16,-243.75"/>
<polygon fill="midnightblue" stroke="midnightblue" points="826.15,-270.15 829.83,-280.08 833.15,-270.02 826.15,-270.15"/>
</g>
<!-- Node26 -->
<g id="node26" class="node">
<title>Node26</title>
<g id="a_node26"><a xlink:href="ArcBallCameraControls_8hpp.html" target="_top" xlink:title=" ">
<polygon fill="white" stroke="black" points="895.5,-168.5 895.5,-187.5 1046.5,-187.5 1046.5,-168.5 895.5,-168.5"/>
<text text-anchor="middle" x="971" y="-175.5" font-family="Helvetica,sans-Serif" font-size="10.00">ArcBallCameraControls.hpp</text>
</a>
</g>
</g>
<!-- Node25&#45;&gt;Node26 -->
<g id="edge27" class="edge">
<title>Node25&#45;&gt;Node26</title>
<path fill="none" stroke="midnightblue" d="M861.16,-220.77C887.83,-210.63 925.07,-196.47 948.6,-187.52"/>
<polygon fill="midnightblue" stroke="midnightblue" points="859.6,-217.62 851.5,-224.44 862.09,-224.16 859.6,-217.62"/>
</g>
<!-- Node27 -->
<g id="node27" class="node">
<title>Node27</title>
<g id="a_node27"><a xlink:href="FlyCameraControls_8hpp.html" target="_top" xlink:title=" ">
<polygon fill="white" stroke="black" points="746.5,-168.5 746.5,-187.5 877.5,-187.5 877.5,-168.5 746.5,-168.5"/>
<text text-anchor="middle" x="812" y="-175.5" font-family="Helvetica,sans-Serif" font-size="10.00">FlyCameraControls.hpp</text>
</a>
</g>
</g>
<!-- Node25&#45;&gt;Node27 -->
<g id="edge28" class="edge">
<title>Node25&#45;&gt;Node27</title>
<path fill="none" stroke="midnightblue" d="M823.14,-214.4C820.3,-205.36 817.02,-194.94 814.75,-187.75"/>
<polygon fill="midnightblue" stroke="midnightblue" points="819.85,-215.6 826.19,-224.08 826.53,-213.49 819.85,-215.6"/>
</g>
<!-- Node28 -->
<g id="node28" class="node">
<title>Node28</title>
<g id="a_node28"><a xlink:href="PanZoomCameraControls_8hpp.html" target="_top" xlink:title=" ">
<polygon fill="white" stroke="black" points="1065,-168.5 1065,-187.5 1227,-187.5 1227,-168.5 1065,-168.5"/>
<text text-anchor="middle" x="1146" y="-175.5" font-family="Helvetica,sans-Serif" font-size="10.00">PanZoomCameraControls.hpp</text>
</a>
</g>
</g>
<!-- Node25&#45;&gt;Node28 -->
<g id="edge29" class="edge">
<title>Node25&#45;&gt;Node28</title>
<path fill="none" stroke="midnightblue" d="M889.3,-222.73C949.21,-212.52 1039.99,-197.06 1096.01,-187.52"/>
<polygon fill="midnightblue" stroke="midnightblue" points="888.5,-219.31 879.23,-224.44 889.68,-226.21 888.5,-219.31"/>
</g>
<!-- Node28&#45;&gt;Node8 -->
<g id="edge30" class="edge">
<title>Node28&#45;&gt;Node8</title>
<path fill="none" stroke="midnightblue" d="M1102.24,-165.96C1061.83,-155.76 1002.63,-140.82 965.75,-131.52"/>
<polygon fill="midnightblue" stroke="midnightblue" points="1101.54,-169.39 1112.09,-168.44 1103.25,-162.6 1101.54,-169.39"/>
</g>
<!-- Node31 -->
<g id="node31" class="node">
<title>Node31</title>
<g id="a_node31"><a xlink:href="GenericPartScene_8hpp.html" target="_top" xlink:title=" ">
<polygon fill="white" stroke="black" points="431.5,-224.5 431.5,-243.5 554.5,-243.5 554.5,-224.5 431.5,-224.5"/>
<text text-anchor="middle" x="493" y="-231.5" font-family="Helvetica,sans-Serif" font-size="10.00">GenericPartScene.hpp</text>
</a>
</g>
</g>
<!-- Node30&#45;&gt;Node31 -->
<g id="edge35" class="edge">
<title>Node30&#45;&gt;Node31</title>
<path fill="none" stroke="midnightblue" d="M594.14,-335.55C570.07,-328.99 542.64,-318.05 523,-300 506.16,-284.52 498.03,-257.72 494.79,-243.86"/>
<polygon fill="midnightblue" stroke="midnightblue" points="593.31,-338.95 603.87,-338.02 595.04,-332.17 593.31,-338.95"/>
</g>
<!-- Node32 -->
<g id="node32" class="node">
<title>Node32</title>
<g id="a_node32"><a xlink:href="Triangulated3DPartScene_8hpp.html" target="_top" xlink:title=" ">
<polygon fill="white" stroke="black" points="531.5,-280.5 531.5,-299.5 690.5,-299.5 690.5,-280.5 531.5,-280.5"/>
<text text-anchor="middle" x="611" y="-287.5" font-family="Helvetica,sans-Serif" font-size="10.00">Triangulated3DPartScene.hpp</text>
</a>
</g>
</g>
<!-- Node30&#45;&gt;Node32 -->
<g id="edge37" class="edge">
<title>Node30&#45;&gt;Node32</title>
<path fill="none" stroke="midnightblue" d="M635.38,-327.57C629.18,-318.27 621.83,-307.25 616.83,-299.75"/>
<polygon fill="midnightblue" stroke="midnightblue" points="632.6,-329.7 641.06,-336.08 638.42,-325.82 632.6,-329.7"/>
</g>
<!-- Node31&#45;&gt;Node7 -->
<g id="edge36" class="edge">
<title>Node31&#45;&gt;Node7</title>
<path fill="none" stroke="midnightblue" d="M467.92,-219.59C449.24,-209.61 424.3,-196.27 408.19,-187.65"/>
<polygon fill="midnightblue" stroke="midnightblue" points="466.3,-222.7 476.77,-224.32 469.6,-216.52 466.3,-222.7"/>
</g>
<!-- Node33&#45;&gt;Node30 -->
<g id="edge44" class="edge">
<title>Node33&#45;&gt;Node30</title>
<path fill="none" stroke="midnightblue" d="M625.03,-451.92C668.55,-445.23 735.79,-431.94 751,-412 772.04,-384.4 724.13,-365.6 686.54,-355.58"/>
<polygon fill="midnightblue" stroke="midnightblue" points="624.44,-448.47 615.06,-453.4 625.46,-455.39 624.44,-448.47"/>
</g>
<!-- Node34 -->
<g id="node34" class="node">
<title>Node34</title>
<g id="a_node34"><a xlink:href="GenericPart_8hpp.html" target="_top" xlink:title=" ">
<polygon fill="white" stroke="black" points="540,-392.5 540,-411.5 634,-411.5 634,-392.5 540,-392.5"/>
<text text-anchor="middle" x="587" y="-399.5" font-family="Helvetica,sans-Serif" font-size="10.00">GenericPart.hpp</text>
</a>
</g>
</g>
<!-- Node33&#45;&gt;Node34 -->
<g id="edge39" class="edge">
<title>Node33&#45;&gt;Node34</title>
<path fill="none" stroke="midnightblue" d="M587,-437.8C587,-428.91 587,-418.78 587,-411.75"/>
<polygon fill="midnightblue" stroke="midnightblue" points="583.5,-438.08 587,-448.08 590.5,-438.08 583.5,-438.08"/>
</g>
<!-- Node35 -->
<g id="node35" class="node">
<title>Node35</title>
<g id="a_node35"><a xlink:href="Line2DPart_8hpp.html" target="_top" xlink:title=" ">
<polygon fill="white" stroke="black" points="652,-392.5 652,-411.5 742,-411.5 742,-392.5 652,-392.5"/>
<text text-anchor="middle" x="697" y="-399.5" font-family="Helvetica,sans-Serif" font-size="10.00">Line2DPart.hpp</text>
</a>
</g>
</g>
<!-- Node33&#45;&gt;Node35 -->
<g id="edge40" class="edge">
<title>Node33&#45;&gt;Node35</title>
<path fill="none" stroke="midnightblue" d="M613.76,-443.86C634.16,-433.85 661.67,-420.35 679.37,-411.65"/>
<polygon fill="midnightblue" stroke="midnightblue" points="612.11,-440.78 604.67,-448.32 615.19,-447.06 612.11,-440.78"/>
</g>
<!-- Node36 -->
<g id="node36" class="node">
<title>Node36</title>
<g id="a_node36"><a xlink:href="Triangulated3DPart_8hpp.html" target="_top" xlink:title=" ">
<polygon fill="white" stroke="black" points="392,-392.5 392,-411.5 522,-411.5 522,-392.5 392,-392.5"/>
<text text-anchor="middle" x="457" y="-399.5" font-family="Helvetica,sans-Serif" font-size="10.00">Triangulated3DPart.hpp</text>
</a>
</g>
</g>
<!-- Node33&#45;&gt;Node36 -->
<g id="edge41" class="edge">
<title>Node33&#45;&gt;Node36</title>
<path fill="none" stroke="midnightblue" d="M556.91,-444.5C532.54,-434.38 498.86,-420.39 477.5,-411.52"/>
<polygon fill="midnightblue" stroke="midnightblue" points="555.82,-447.84 566.4,-448.44 558.51,-441.38 555.82,-447.84"/>
</g>
<!-- Node37 -->
<g id="node37" class="node">
<title>Node37</title>
<g id="a_node37"><a xlink:href="ObjPart_8hpp.html" target="_top" xlink:title=" ">
<polygon fill="white" stroke="black" points="420.5,-336.5 420.5,-355.5 493.5,-355.5 493.5,-336.5 420.5,-336.5"/>
<text text-anchor="middle" x="457" y="-343.5" font-family="Helvetica,sans-Serif" font-size="10.00">ObjPart.hpp</text>
</a>
</g>
</g>
<!-- Node36&#45;&gt;Node37 -->
<g id="edge42" class="edge">
<title>Node36&#45;&gt;Node37</title>
<path fill="none" stroke="midnightblue" d="M457,-381.8C457,-372.91 457,-362.78 457,-355.75"/>
<polygon fill="midnightblue" stroke="midnightblue" points="453.5,-382.08 457,-392.08 460.5,-382.08 453.5,-382.08"/>
</g>
<!-- Node38 -->
<g id="node38" class="node">
<title>Node38</title>
<g id="a_node38"><a xlink:href="STLPart_8hpp.html" target="_top" xlink:title=" ">
<polygon fill="white" stroke="black" points="512,-336.5 512,-355.5 586,-355.5 586,-336.5 512,-336.5"/>
<text text-anchor="middle" x="549" y="-343.5" font-family="Helvetica,sans-Serif" font-size="10.00">STLPart.hpp</text>
</a>
</g>
</g>
<!-- Node36&#45;&gt;Node38 -->
<g id="edge43" class="edge">
<title>Node36&#45;&gt;Node38</title>
<path fill="none" stroke="midnightblue" d="M480.55,-387.18C497.48,-377.24 519.78,-364.15 534.26,-355.65"/>
<polygon fill="midnightblue" stroke="midnightblue" points="478.63,-384.24 471.78,-392.32 482.18,-390.28 478.63,-384.24"/>
</g>
<!-- Node39&#45;&gt;Node2 -->
<g id="edge47" class="edge">
<title>Node39&#45;&gt;Node2</title>
<path fill="none" stroke="midnightblue" d="M277.68,-503C228.45,-492.82 152.91,-477.19 106.35,-467.56"/>
<polygon fill="midnightblue" stroke="midnightblue" points="277.27,-506.49 287.77,-505.09 278.69,-499.64 277.27,-506.49"/>
</g>
<!-- Node39&#45;&gt;Node5 -->
<g id="edge48" class="edge">
<title>Node39&#45;&gt;Node5</title>
<path fill="none" stroke="midnightblue" d="M278.12,-502.71C254.75,-495.86 227.36,-484.92 207,-468 151.81,-422.14 136.42,-328.47 132.91,-299.64"/>
<polygon fill="midnightblue" stroke="midnightblue" points="277.28,-506.11 287.85,-505.41 279.15,-499.37 277.28,-506.11"/>
</g>
<!-- Node39&#45;&gt;Node7 -->
<g id="edge50" class="edge">
<title>Node39&#45;&gt;Node7</title>
<path fill="none" stroke="midnightblue" d="M332.68,-494.69C343,-465.69 362.68,-407.19 373,-356 385.89,-292.07 390.44,-213.28 391.64,-187.56"/>
<polygon fill="midnightblue" stroke="midnightblue" points="329.32,-493.7 329.23,-504.29 335.91,-496.07 329.32,-493.7"/>
</g>
<!-- Node39&#45;&gt;Node33 -->
<g id="edge49" class="edge">
<title>Node39&#45;&gt;Node33</title>
<path fill="none" stroke="midnightblue" d="M374.29,-503.01C428.45,-491.8 514.49,-474 558.71,-464.85"/>
<polygon fill="midnightblue" stroke="midnightblue" points="373.31,-499.64 364.23,-505.09 374.73,-506.49 373.31,-499.64"/>
</g>
<!-- Node40 -->
<g id="node40" class="node">
<title>Node40</title>
<g id="a_node40"><a xlink:href="AbsGLShape_8hpp.html" target="_top" xlink:title=" ">
<polygon fill="white" stroke="black" points="216,-448.5 216,-467.5 314,-467.5 314,-448.5 216,-448.5"/>
<text text-anchor="middle" x="265" y="-455.5" font-family="Helvetica,sans-Serif" font-size="10.00">AbsGLShape.hpp</text>
</a>
</g>
</g>
<!-- Node39&#45;&gt;Node40 -->
<g id="edge51" class="edge">
<title>Node39&#45;&gt;Node40</title>
<path fill="none" stroke="midnightblue" d="M308.53,-497.54C297.66,-487.91 284.06,-475.87 274.98,-467.83"/>
<polygon fill="midnightblue" stroke="midnightblue" points="306.39,-500.32 316.2,-504.32 311.03,-495.07 306.39,-500.32"/>
</g>
<!-- Node40&#45;&gt;Node11 -->
<g id="edge52" class="edge">
<title>Node40&#45;&gt;Node11</title>
<path fill="none" stroke="midnightblue" d="M251.58,-440.14C244.09,-430.74 235.06,-419.4 228.97,-411.75"/>
<polygon fill="midnightblue" stroke="midnightblue" points="248.93,-442.44 257.9,-448.08 254.41,-438.08 248.93,-442.44"/>
</g>
</g>
</svg>
