<?xml version="1.0" encoding="UTF-8" standalone="no"?>
<!DOCTYPE svg PUBLIC "-//W3C//DTD SVG 1.1//EN"
 "http://www.w3.org/Graphics/SVG/1.1/DTD/svg11.dtd">
<!-- Generated by graphviz version 2.43.0 (0)
 -->
<!-- Title: Axes.hpp Pages: 1 -->
<!--zoomable 653 -->
<svg id="main" version="1.1" xmlns="http://www.w3.org/2000/svg" xmlns:xlink="http://www.w3.org/1999/xlink" xml:space="preserve" onload="init(evt)">
<style type="text/css"><![CDATA[
.edge:hover path { stroke: red; }
.edge:hover polygon { stroke: red; fill: red; }
]]></style>
<script type="text/javascript"><![CDATA[
var edges = document.getElementsByTagName('g');
if (edges && edges.length) {
  for (var i=0;i<edges.length;i++) {
    if (edges[i].id.substr(0,4)=='edge') {
      edges[i].setAttribute('class','edge');
    }
  }
}
]]></script>
        <defs>
                <circle id="rim" cx="0" cy="0" r="7"/>
                <circle id="rim2" cx="0" cy="0" r="3.5"/>
                <g id="zoomPlus">
                        <use xlink:href="#rim" fill="#404040">
                                <set attributeName="fill" to="#808080" begin="zoomplus.mouseover" end="zoomplus.mouseout"/>
                        </use>
                        <path d="M-4,0h8M0,-4v8" fill="none" stroke="white" stroke-width="1.5" pointer-events="none"/>
                </g>
                <g id="zoomMin">
                        <use xlink:href="#rim" fill="#404040">
                                <set attributeName="fill" to="#808080" begin="zoomminus.mouseover" end="zoomminus.mouseout"/>
                        </use>
                        <path d="M-4,0h8" fill="none" stroke="white" stroke-width="1.5" pointer-events="none"/>
                </g>
                <g id="dirArrow">
                        <path fill="none" stroke="white" stroke-width="1.5" d="M0,-3.0v7 M-2.5,-0.5L0,-3.0L2.5,-0.5"/>
                </g>
               <g id="resetDef">
                       <use xlink:href="#rim2" fill="#404040">
                               <set attributeName="fill" to="#808080" begin="reset.mouseover" end="reset.mouseout"/>
                       </use>
               </g>
        </defs>

<script type="text/javascript">
var viewWidth = 1582;
var viewHeight = 653;
var sectionId = 'dynsection-0';
</script>
<script xlink:href="svgpan.js"/>
<svg id="graph" class="graph">
<g id="viewport">
<title>Axes.hpp</title>
<polygon fill="white" stroke="transparent" points="-4,4 -4,-649 1578.23,-649 1578.23,4 -4,4"/>
<!-- Node1 -->
<g id="node1" class="node">
<title>Node1</title>
<g id="a_node1"><a xlink:title=" ">
<polygon fill="#bfbfbf" stroke="black" points="409.23,-625.5 409.23,-644.5 470.23,-644.5 470.23,-625.5 409.23,-625.5"/>
<text text-anchor="middle" x="439.73" y="-632.5" font-family="Helvetica,sans-Serif" font-size="10.00">Axes.hpp</text>
</a>
</g>
</g>
<!-- Node2 -->
<g id="node2" class="node">
<title>Node2</title>
<g id="a_node2"><a xlink:href="CompoundShape_8hpp.html" target="_top" xlink:title=" ">
<polygon fill="white" stroke="black" points="227.23,-491.5 227.23,-521.5 350.23,-521.5 350.23,-491.5 227.23,-491.5"/>
<text text-anchor="start" x="235.23" y="-509.5" font-family="Helvetica,sans-Serif" font-size="10.00">packages/shapes/inc</text>
<text text-anchor="middle" x="288.73" y="-498.5" font-family="Helvetica,sans-Serif" font-size="10.00">/CompoundShape.hpp</text>
</a>
</g>
</g>
<!-- Node1&#45;&gt;Node2 -->
<g id="edge1" class="edge">
<title>Node1&#45;&gt;Node2</title>
<path fill="none" stroke="midnightblue" d="M424.58,-625.35C410.18,-616.85 388.18,-603.12 370.73,-589 347.93,-570.56 324.45,-546.62 308.48,-529.47"/>
<polygon fill="midnightblue" stroke="midnightblue" points="310.64,-526.64 301.29,-521.65 305.48,-531.38 310.64,-526.64"/>
</g>
<!-- Node27 -->
<g id="node27" class="node">
<title>Node27</title>
<g id="a_node27"><a xlink:href="ColoredVertex3_8hpp.html" target="_top" xlink:title=" ">
<polygon fill="white" stroke="black" points="659.73,-558.5 659.73,-588.5 775.73,-588.5 775.73,-558.5 659.73,-558.5"/>
<text text-anchor="start" x="667.73" y="-576.5" font-family="Helvetica,sans-Serif" font-size="10.00">packages/buffer/inc</text>
<text text-anchor="middle" x="717.73" y="-565.5" font-family="Helvetica,sans-Serif" font-size="10.00">/ColoredVertex3.hpp</text>
</a>
</g>
</g>
<!-- Node1&#45;&gt;Node27 -->
<g id="edge40" class="edge">
<title>Node1&#45;&gt;Node27</title>
<path fill="none" stroke="midnightblue" d="M470.27,-627.46C513.12,-618.29 592.23,-601.36 649.49,-589.11"/>
<polygon fill="midnightblue" stroke="midnightblue" points="650.51,-592.47 659.55,-586.95 649.04,-585.62 650.51,-592.47"/>
</g>
<!-- Node31 -->
<g id="node31" class="node">
<title>Node31</title>
<g id="a_node31"><a xlink:href="RigidBody_8hpp.html" target="_top" xlink:title=" ">
<polygon fill="white" stroke="black" points="380.23,-558.5 380.23,-588.5 499.23,-588.5 499.23,-558.5 380.23,-558.5"/>
<text text-anchor="start" x="388.23" y="-576.5" font-family="Helvetica,sans-Serif" font-size="10.00">packages/camera/inc</text>
<text text-anchor="middle" x="439.73" y="-565.5" font-family="Helvetica,sans-Serif" font-size="10.00">/RigidBody.hpp</text>
</a>
</g>
</g>
<!-- Node1&#45;&gt;Node31 -->
<g id="edge49" class="edge">
<title>Node1&#45;&gt;Node31</title>
<path fill="none" stroke="midnightblue" d="M439.73,-625.48C439.73,-618.47 439.73,-608.19 439.73,-598.7"/>
<polygon fill="midnightblue" stroke="midnightblue" points="443.23,-598.52 439.73,-588.52 436.23,-598.52 443.23,-598.52"/>
</g>
<!-- Node3 -->
<g id="node3" class="node">
<title>Node3</title>
<g id="a_node3"><a target="_parent" xlink:href="../../../cieutils/docs/html/container__concepts_8hpp.html.html" xlink:title=" ">
<polygon fill="white" stroke="black" points="199.23,-413.5 199.23,-454.5 334.23,-454.5 334.23,-413.5 199.23,-413.5"/>
<text text-anchor="start" x="207.23" y="-442.5" font-family="Helvetica,sans-Serif" font-size="10.00">packages/compile_time</text>
<text text-anchor="start" x="207.23" y="-431.5" font-family="Helvetica,sans-Serif" font-size="10.00">/packages/concepts/inc</text>
<text text-anchor="middle" x="266.73" y="-420.5" font-family="Helvetica,sans-Serif" font-size="10.00">/container_concepts.hpp</text>
</a>
</g>
</g>
<!-- Node2&#45;&gt;Node3 -->
<g id="edge2" class="edge">
<title>Node2&#45;&gt;Node3</title>
<path fill="none" stroke="midnightblue" d="M284.28,-491.23C281.86,-483.49 278.78,-473.63 275.88,-464.33"/>
<polygon fill="midnightblue" stroke="midnightblue" points="279.16,-463.09 272.84,-454.59 272.48,-465.18 279.16,-463.09"/>
</g>
<!-- Node4 -->
<g id="node4" class="node">
<title>Node4</title>
<g id="a_node4"><a xlink:href="GLShape_8hpp.html" target="_top" xlink:title=" ">
<polygon fill="white" stroke="black" points="503.23,-419 503.23,-449 620.23,-449 620.23,-419 503.23,-419"/>
<text text-anchor="start" x="511.23" y="-437" font-family="Helvetica,sans-Serif" font-size="10.00">packages/shapes/inc</text>
<text text-anchor="middle" x="561.73" y="-426" font-family="Helvetica,sans-Serif" font-size="10.00">/GLShape.hpp</text>
</a>
</g>
</g>
<!-- Node2&#45;&gt;Node4 -->
<g id="edge3" class="edge">
<title>Node2&#45;&gt;Node4</title>
<path fill="none" stroke="midnightblue" d="M342.99,-491.49C387.41,-480.02 450.36,-463.76 497.33,-451.63"/>
<polygon fill="midnightblue" stroke="midnightblue" points="498.29,-455 507.1,-449.11 496.54,-448.22 498.29,-455"/>
</g>
<!-- Node15 -->
<g id="node15" class="node">
<title>Node15</title>
<g id="a_node15"><a xlink:title=" ">
<polygon fill="white" stroke="#bfbfbf" points="717.23,-145.5 717.23,-164.5 764.23,-164.5 764.23,-145.5 717.23,-145.5"/>
<text text-anchor="middle" x="740.73" y="-152.5" font-family="Helvetica,sans-Serif" font-size="10.00">vector</text>
</a>
</g>
</g>
<!-- Node2&#45;&gt;Node15 -->
<g id="edge37" class="edge">
<title>Node2&#45;&gt;Node15</title>
<path fill="none" stroke="midnightblue" d="M305.64,-491.29C316.73,-481.59 331.26,-468.16 342.73,-455 381.7,-410.29 381.17,-391.07 419.73,-346 475.29,-281.03 484.13,-255.5 557.73,-212 605.44,-183.8 668.68,-168.57 706.94,-161.39"/>
<polygon fill="midnightblue" stroke="midnightblue" points="707.82,-164.78 717.04,-159.57 706.58,-157.9 707.82,-164.78"/>
</g>
<!-- Node16 -->
<g id="node16" class="node">
<title>Node16</title>
<g id="a_node16"><a xlink:title=" ">
<polygon fill="white" stroke="#bfbfbf" points="409.73,-145.5 409.73,-164.5 467.73,-164.5 467.73,-145.5 409.73,-145.5"/>
<text text-anchor="middle" x="438.73" y="-152.5" font-family="Helvetica,sans-Serif" font-size="10.00">memory</text>
</a>
</g>
</g>
<!-- Node2&#45;&gt;Node16 -->
<g id="edge38" class="edge">
<title>Node2&#45;&gt;Node16</title>
<path fill="none" stroke="midnightblue" d="M227.02,-501.66C157.4,-496.02 50.13,-482.97 21.73,-455 -8.18,-425.56 2.73,-404.47 2.73,-362.5 2.73,-362.5 2.73,-362.5 2.73,-293.5 2.73,-210.74 292.09,-171.57 399.35,-159.89"/>
<polygon fill="midnightblue" stroke="midnightblue" points="399.87,-163.35 409.44,-158.81 399.13,-156.39 399.87,-163.35"/>
</g>
<!-- Node26 -->
<g id="node26" class="node">
<title>Node26</title>
<g id="a_node26"><a xlink:title=" ">
<polygon fill="white" stroke="#bfbfbf" points="30.73,-419 30.73,-449 180.73,-449 180.73,-419 30.73,-419"/>
<text text-anchor="start" x="38.73" y="-437" font-family="Helvetica,sans-Serif" font-size="10.00">packages/shapes/impl</text>
<text text-anchor="middle" x="105.73" y="-426" font-family="Helvetica,sans-Serif" font-size="10.00">/CompoundShape_impl.hpp</text>
</a>
</g>
</g>
<!-- Node2&#45;&gt;Node26 -->
<g id="edge39" class="edge">
<title>Node2&#45;&gt;Node26</title>
<path fill="none" stroke="midnightblue" d="M252.13,-491.4C223.33,-480.31 183.02,-464.78 151.98,-452.82"/>
<polygon fill="midnightblue" stroke="midnightblue" points="152.85,-449.4 142.26,-449.07 150.33,-455.93 152.85,-449.4"/>
</g>
<!-- Node5 -->
<g id="node5" class="node">
<title>Node5</title>
<g id="a_node5"><a xlink:href="AbsGLShape_8hpp.html" target="_top" xlink:title=" ">
<polygon fill="white" stroke="black" points="572.23,-346.5 572.23,-376.5 689.23,-376.5 689.23,-346.5 572.23,-346.5"/>
<text text-anchor="start" x="580.23" y="-364.5" font-family="Helvetica,sans-Serif" font-size="10.00">packages/shapes/inc</text>
<text text-anchor="middle" x="630.73" y="-353.5" font-family="Helvetica,sans-Serif" font-size="10.00">/AbsGLShape.hpp</text>
</a>
</g>
</g>
<!-- Node4&#45;&gt;Node5 -->
<g id="edge4" class="edge">
<title>Node4&#45;&gt;Node5</title>
<path fill="none" stroke="midnightblue" d="M575.69,-418.73C585.42,-408.8 598.57,-395.36 609.57,-384.11"/>
<polygon fill="midnightblue" stroke="midnightblue" points="612.29,-386.34 616.78,-376.75 607.29,-381.44 612.29,-386.34"/>
</g>
<!-- Node21 -->
<g id="node21" class="node">
<title>Node21</title>
<g id="a_node21"><a xlink:href="AbsVertex_8hpp.html" target="_top" xlink:title=" ">
<polygon fill="white" stroke="black" points="1044.23,-346.5 1044.23,-376.5 1155.23,-376.5 1155.23,-346.5 1044.23,-346.5"/>
<text text-anchor="start" x="1052.23" y="-364.5" font-family="Helvetica,sans-Serif" font-size="10.00">packages/buffer/inc</text>
<text text-anchor="middle" x="1099.73" y="-353.5" font-family="Helvetica,sans-Serif" font-size="10.00">/AbsVertex.hpp</text>
</a>
</g>
</g>
<!-- Node4&#45;&gt;Node21 -->
<g id="edge25" class="edge">
<title>Node4&#45;&gt;Node21</title>
<path fill="none" stroke="midnightblue" d="M620.33,-425.32C721.51,-412.06 928.26,-384.97 1034.11,-371.1"/>
<polygon fill="midnightblue" stroke="midnightblue" points="1034.57,-374.57 1044.03,-369.8 1033.66,-367.63 1034.57,-374.57"/>
</g>
<!-- Node25 -->
<g id="node25" class="node">
<title>Node25</title>
<g id="a_node25"><a xlink:title=" ">
<polygon fill="white" stroke="#bfbfbf" points="429.23,-346.5 429.23,-376.5 554.23,-376.5 554.23,-346.5 429.23,-346.5"/>
<text text-anchor="start" x="437.23" y="-364.5" font-family="Helvetica,sans-Serif" font-size="10.00">packages/shapes/impl</text>
<text text-anchor="middle" x="491.73" y="-353.5" font-family="Helvetica,sans-Serif" font-size="10.00">/GLShape_impl.hpp</text>
</a>
</g>
</g>
<!-- Node4&#45;&gt;Node25 -->
<g id="edge36" class="edge">
<title>Node4&#45;&gt;Node25</title>
<path fill="none" stroke="midnightblue" d="M547.56,-418.73C537.69,-408.8 524.35,-395.36 513.19,-384.11"/>
<polygon fill="midnightblue" stroke="midnightblue" points="515.4,-381.38 505.87,-376.75 510.43,-386.31 515.4,-381.38"/>
</g>
<!-- Node6 -->
<g id="node6" class="node">
<title>Node6</title>
<g id="a_node6"><a xlink:href="GLTraits_8hpp.html" target="_top" xlink:title=" ">
<polygon fill="white" stroke="black" points="768.73,-279.5 768.73,-309.5 876.73,-309.5 876.73,-279.5 768.73,-279.5"/>
<text text-anchor="start" x="776.73" y="-297.5" font-family="Helvetica,sans-Serif" font-size="10.00">packages/traits/inc</text>
<text text-anchor="middle" x="822.73" y="-286.5" font-family="Helvetica,sans-Serif" font-size="10.00">/GLTraits.hpp</text>
</a>
</g>
</g>
<!-- Node5&#45;&gt;Node6 -->
<g id="edge5" class="edge">
<title>Node5&#45;&gt;Node6</title>
<path fill="none" stroke="midnightblue" d="M672.39,-346.4C701.45,-336.56 740.41,-323.37 771.39,-312.88"/>
<polygon fill="midnightblue" stroke="midnightblue" points="772.8,-316.1 781.15,-309.58 770.55,-309.47 772.8,-316.1"/>
</g>
<!-- Node5&#45;&gt;Node15 -->
<g id="edge23" class="edge">
<title>Node5&#45;&gt;Node15</title>
<path fill="none" stroke="midnightblue" d="M616.48,-346.27C590.35,-318.41 540.22,-255.63 571.73,-212 602.54,-169.33 667.14,-158.65 706.94,-156.28"/>
<polygon fill="midnightblue" stroke="midnightblue" points="707.14,-159.77 716.97,-155.83 706.82,-152.78 707.14,-159.77"/>
</g>
<!-- Node5&#45;&gt;Node16 -->
<g id="edge24" class="edge">
<title>Node5&#45;&gt;Node16</title>
<path fill="none" stroke="midnightblue" d="M571.92,-348.63C547.31,-341.11 520.02,-329.06 500.73,-310 462.2,-271.94 446.82,-206.77 441.37,-174.8"/>
<polygon fill="midnightblue" stroke="midnightblue" points="444.79,-173.98 439.79,-164.64 437.87,-175.06 444.79,-173.98"/>
</g>
<!-- Node7 -->
<g id="node7" class="node">
<title>Node7</title>
<g id="a_node7"><a xlink:title=" ">
<polygon fill="white" stroke="#bfbfbf" points="984.23,-6 984.23,-25 1055.23,-25 1055.23,-6 984.23,-6"/>
<text text-anchor="middle" x="1019.73" y="-13" font-family="Helvetica,sans-Serif" font-size="10.00">glad/glad.h</text>
</a>
</g>
</g>
<!-- Node6&#45;&gt;Node7 -->
<g id="edge6" class="edge">
<title>Node6&#45;&gt;Node7</title>
<path fill="none" stroke="midnightblue" d="M836.09,-279.32C844.07,-269.84 853.46,-256.64 857.73,-243 861.84,-229.85 861.04,-225.37 857.73,-212 853.38,-194.44 843.08,-193.56 838.73,-176 834.24,-157.88 835.06,-152.3 838.73,-134 845.07,-102.36 843.04,-88.93 866.73,-67 896.21,-39.7 940.78,-27.14 974.22,-21.37"/>
<polygon fill="midnightblue" stroke="midnightblue" points="974.88,-24.81 984.21,-19.79 973.79,-17.9 974.88,-24.81"/>
</g>
<!-- Node8 -->
<g id="node8" class="node">
<title>Node8</title>
<g id="a_node8"><a xlink:href="AttributeContainer_8hpp.html" target="_top" xlink:title=" ">
<polygon fill="white" stroke="black" points="971.73,-212.5 971.73,-242.5 1101.73,-242.5 1101.73,-212.5 971.73,-212.5"/>
<text text-anchor="start" x="979.73" y="-230.5" font-family="Helvetica,sans-Serif" font-size="10.00">packages/buffer/inc</text>
<text text-anchor="middle" x="1036.73" y="-219.5" font-family="Helvetica,sans-Serif" font-size="10.00">/AttributeContainer.hpp</text>
</a>
</g>
</g>
<!-- Node6&#45;&gt;Node8 -->
<g id="edge7" class="edge">
<title>Node6&#45;&gt;Node8</title>
<path fill="none" stroke="midnightblue" d="M868.9,-279.48C901.55,-269.56 945.53,-256.2 980.27,-245.65"/>
<polygon fill="midnightblue" stroke="midnightblue" points="981.72,-248.87 990.27,-242.61 979.68,-242.17 981.72,-248.87"/>
</g>
<!-- Node6&#45;&gt;Node15 -->
<g id="edge22" class="edge">
<title>Node6&#45;&gt;Node15</title>
<path fill="none" stroke="midnightblue" d="M814.26,-279.3C799.17,-254 767.68,-201.2 751.24,-173.62"/>
<polygon fill="midnightblue" stroke="midnightblue" points="754.04,-171.5 745.92,-164.7 748.03,-175.08 754.04,-171.5"/>
</g>
<!-- Node19 -->
<g id="node19" class="node">
<title>Node19</title>
<g id="a_node19"><a target="_parent" xlink:href="../../../cieutils/docs/html/StaticArray_8hpp.html.html" xlink:title=" ">
<polygon fill="white" stroke="black" points="581.23,-212.5 581.23,-242.5 712.23,-242.5 712.23,-212.5 581.23,-212.5"/>
<text text-anchor="start" x="589.23" y="-230.5" font-family="Helvetica,sans-Serif" font-size="10.00">packages/stl_extension</text>
<text text-anchor="middle" x="646.73" y="-219.5" font-family="Helvetica,sans-Serif" font-size="10.00">/inc/StaticArray.hpp</text>
</a>
</g>
</g>
<!-- Node6&#45;&gt;Node19 -->
<g id="edge20" class="edge">
<title>Node6&#45;&gt;Node19</title>
<path fill="none" stroke="midnightblue" d="M784.54,-279.4C758.13,-269.64 722.8,-256.59 694.52,-246.15"/>
<polygon fill="midnightblue" stroke="midnightblue" points="695.44,-242.76 684.84,-242.58 693.01,-249.32 695.44,-242.76"/>
</g>
<!-- Node20 -->
<g id="node20" class="node">
<title>Node20</title>
<g id="a_node20"><a xlink:title=" ">
<polygon fill="white" stroke="#bfbfbf" points="806.73,-218 806.73,-237 848.73,-237 848.73,-218 806.73,-218"/>
<text text-anchor="middle" x="827.73" y="-225" font-family="Helvetica,sans-Serif" font-size="10.00">array</text>
</a>
</g>
</g>
<!-- Node6&#45;&gt;Node20 -->
<g id="edge21" class="edge">
<title>Node6&#45;&gt;Node20</title>
<path fill="none" stroke="midnightblue" d="M823.81,-279.4C824.54,-269.96 825.5,-257.45 826.29,-247.19"/>
<polygon fill="midnightblue" stroke="midnightblue" points="829.78,-247.43 827.06,-237.19 822.8,-246.9 829.78,-247.43"/>
</g>
<!-- Node8&#45;&gt;Node7 -->
<g id="edge8" class="edge">
<title>Node8&#45;&gt;Node7</title>
<path fill="none" stroke="midnightblue" d="M971.51,-216.97C924.99,-208.69 868.2,-195.01 853.73,-176 806.6,-114.1 927.13,-54.11 987.59,-28.92"/>
<polygon fill="midnightblue" stroke="midnightblue" points="989.15,-32.06 997.09,-25.04 986.51,-25.58 989.15,-32.06"/>
</g>
<!-- Node9 -->
<g id="node9" class="node">
<title>Node9</title>
<g id="a_node9"><a target="_parent" xlink:href="../../../cieutils/docs/html/typedefs_8hpp.html.html" xlink:title=" ">
<polygon fill="white" stroke="black" points="1455.23,-140 1455.23,-170 1574.23,-170 1574.23,-140 1455.23,-140"/>
<text text-anchor="start" x="1463.23" y="-158" font-family="Helvetica,sans-Serif" font-size="10.00">packages/macros/inc</text>
<text text-anchor="middle" x="1514.73" y="-147" font-family="Helvetica,sans-Serif" font-size="10.00">/typedefs.hpp</text>
</a>
</g>
</g>
<!-- Node8&#45;&gt;Node9 -->
<g id="edge9" class="edge">
<title>Node8&#45;&gt;Node9</title>
<path fill="none" stroke="midnightblue" d="M1102.06,-221.66C1183.24,-214.91 1325.71,-200.64 1445.73,-176 1450.44,-175.03 1455.3,-173.9 1460.16,-172.68"/>
<polygon fill="midnightblue" stroke="midnightblue" points="1461.3,-176 1470.07,-170.06 1459.51,-169.23 1461.3,-176"/>
</g>
<!-- Node10 -->
<g id="node10" class="node">
<title>Node10</title>
<g id="a_node10"><a target="_parent" xlink:href="../../../cieutils/docs/html/basic__concepts_8hpp.html.html" xlink:title=" ">
<polygon fill="white" stroke="black" points="1304.73,-134.5 1304.73,-175.5 1436.73,-175.5 1436.73,-134.5 1304.73,-134.5"/>
<text text-anchor="start" x="1312.73" y="-163.5" font-family="Helvetica,sans-Serif" font-size="10.00">packages/compile_time</text>
<text text-anchor="start" x="1312.73" y="-152.5" font-family="Helvetica,sans-Serif" font-size="10.00">/packages/concepts/inc</text>
<text text-anchor="middle" x="1370.73" y="-141.5" font-family="Helvetica,sans-Serif" font-size="10.00">/basic_concepts.hpp</text>
</a>
</g>
</g>
<!-- Node8&#45;&gt;Node10 -->
<g id="edge10" class="edge">
<title>Node8&#45;&gt;Node10</title>
<path fill="none" stroke="midnightblue" d="M1101.92,-212.74C1157.19,-201.07 1236.53,-184.33 1294.69,-172.05"/>
<polygon fill="midnightblue" stroke="midnightblue" points="1295.5,-175.46 1304.56,-169.97 1294.05,-168.61 1295.5,-175.46"/>
</g>
<!-- Node14 -->
<g id="node14" class="node">
<title>Node14</title>
<g id="a_node14"><a target="_parent" xlink:href="../../../cieutils/docs/html/DynamicArray_8hpp.html.html" xlink:title=" ">
<polygon fill="white" stroke="black" points="1039.23,-140 1039.23,-170 1170.23,-170 1170.23,-140 1039.23,-140"/>
<text text-anchor="start" x="1047.23" y="-158" font-family="Helvetica,sans-Serif" font-size="10.00">packages/stl_extension</text>
<text text-anchor="middle" x="1104.73" y="-147" font-family="Helvetica,sans-Serif" font-size="10.00">/inc/DynamicArray.hpp</text>
</a>
</g>
</g>
<!-- Node8&#45;&gt;Node14 -->
<g id="edge15" class="edge">
<title>Node8&#45;&gt;Node14</title>
<path fill="none" stroke="midnightblue" d="M1050.49,-212.23C1060.07,-202.3 1073.03,-188.86 1083.88,-177.61"/>
<polygon fill="midnightblue" stroke="midnightblue" points="1086.56,-179.87 1090.99,-170.25 1081.53,-175.01 1086.56,-179.87"/>
</g>
<!-- Node8&#45;&gt;Node15 -->
<g id="edge16" class="edge">
<title>Node8&#45;&gt;Node15</title>
<path fill="none" stroke="midnightblue" d="M975.68,-212.49C932.39,-202.49 872.94,-188.63 820.73,-176 805.5,-172.32 788.67,-168.13 774.39,-164.54"/>
<polygon fill="midnightblue" stroke="midnightblue" points="775.06,-161.1 764.51,-162.05 773.35,-167.88 775.06,-161.1"/>
</g>
<!-- Node8&#45;&gt;Node16 -->
<g id="edge17" class="edge">
<title>Node8&#45;&gt;Node16</title>
<path fill="none" stroke="midnightblue" d="M971.59,-218.82C847.04,-204.14 578.56,-172.49 477.91,-160.62"/>
<polygon fill="midnightblue" stroke="midnightblue" points="478.2,-157.13 467.86,-159.44 477.39,-164.08 478.2,-157.13"/>
</g>
<!-- Node17 -->
<g id="node17" class="node">
<title>Node17</title>
<g id="a_node17"><a xlink:title=" ">
<polygon fill="white" stroke="#bfbfbf" points="1188.73,-145.5 1188.73,-164.5 1248.73,-164.5 1248.73,-145.5 1188.73,-145.5"/>
<text text-anchor="middle" x="1218.73" y="-152.5" font-family="Helvetica,sans-Serif" font-size="10.00">concepts</text>
</a>
</g>
</g>
<!-- Node8&#45;&gt;Node17 -->
<g id="edge18" class="edge">
<title>Node8&#45;&gt;Node17</title>
<path fill="none" stroke="midnightblue" d="M1081.45,-212.43C1109.94,-203.04 1147.44,-189.9 1179.73,-176 1184.37,-174 1189.24,-171.69 1193.89,-169.36"/>
<polygon fill="midnightblue" stroke="midnightblue" points="1195.73,-172.35 1203.02,-164.67 1192.53,-166.13 1195.73,-172.35"/>
</g>
<!-- Node18 -->
<g id="node18" class="node">
<title>Node18</title>
<g id="a_node18"><a xlink:title=" ">
<polygon fill="white" stroke="#bfbfbf" points="862.73,-140 862.73,-170 1020.73,-170 1020.73,-140 862.73,-140"/>
<text text-anchor="start" x="870.73" y="-158" font-family="Helvetica,sans-Serif" font-size="10.00">packages/buffer/impl</text>
<text text-anchor="middle" x="941.73" y="-147" font-family="Helvetica,sans-Serif" font-size="10.00">/AttributeContainer_impl.hpp</text>
</a>
</g>
</g>
<!-- Node8&#45;&gt;Node18 -->
<g id="edge19" class="edge">
<title>Node8&#45;&gt;Node18</title>
<path fill="none" stroke="midnightblue" d="M1017.5,-212.23C1003.5,-201.85 984.35,-187.63 968.81,-176.1"/>
<polygon fill="midnightblue" stroke="midnightblue" points="970.72,-173.15 960.6,-170 966.54,-178.77 970.72,-173.15"/>
</g>
<!-- Node11 -->
<g id="node11" class="node">
<title>Node11</title>
<g id="a_node11"><a xlink:href="types_8hpp.html" target="_top" xlink:title=" ">
<polygon fill="white" stroke="black" points="1309.73,-67.5 1309.73,-97.5 1419.73,-97.5 1419.73,-67.5 1309.73,-67.5"/>
<text text-anchor="start" x="1317.73" y="-85.5" font-family="Helvetica,sans-Serif" font-size="10.00">packages/types/inc</text>
<text text-anchor="middle" x="1364.73" y="-74.5" font-family="Helvetica,sans-Serif" font-size="10.00">/types.hpp</text>
</a>
</g>
</g>
<!-- Node10&#45;&gt;Node11 -->
<g id="edge11" class="edge">
<title>Node10&#45;&gt;Node11</title>
<path fill="none" stroke="midnightblue" d="M1369.06,-134.36C1368.36,-126.23 1367.55,-116.7 1366.82,-108.11"/>
<polygon fill="midnightblue" stroke="midnightblue" points="1370.29,-107.56 1365.95,-97.89 1363.31,-108.15 1370.29,-107.56"/>
</g>
<!-- Node11&#45;&gt;Node7 -->
<g id="edge12" class="edge">
<title>Node11&#45;&gt;Node7</title>
<path fill="none" stroke="midnightblue" d="M1309.38,-70.6C1303.09,-69.37 1296.77,-68.16 1290.73,-67 1211.46,-51.85 1119.03,-34.75 1065.18,-24.84"/>
<polygon fill="midnightblue" stroke="midnightblue" points="1065.73,-21.38 1055.26,-23.01 1064.46,-28.26 1065.73,-21.38"/>
</g>
<!-- Node12 -->
<g id="node12" class="node">
<title>Node12</title>
<g id="a_node12"><a xlink:title=" ">
<polygon fill="white" stroke="#bfbfbf" points="1391.73,-6 1391.73,-25 1435.73,-25 1435.73,-6 1391.73,-6"/>
<text text-anchor="middle" x="1413.73" y="-13" font-family="Helvetica,sans-Serif" font-size="10.00">string</text>
</a>
</g>
</g>
<!-- Node11&#45;&gt;Node12 -->
<g id="edge13" class="edge">
<title>Node11&#45;&gt;Node12</title>
<path fill="none" stroke="midnightblue" d="M1375.36,-67.4C1382.92,-57.36 1393.12,-43.84 1401.1,-33.25"/>
<polygon fill="midnightblue" stroke="midnightblue" points="1403.95,-35.29 1407.17,-25.19 1398.36,-31.07 1403.95,-35.29"/>
</g>
<!-- Node13 -->
<g id="node13" class="node">
<title>Node13</title>
<g id="a_node13"><a xlink:title=" ">
<polygon fill="white" stroke="#bfbfbf" points="1257.73,-0.5 1257.73,-30.5 1373.73,-30.5 1373.73,-0.5 1257.73,-0.5"/>
<text text-anchor="start" x="1265.73" y="-18.5" font-family="Helvetica,sans-Serif" font-size="10.00">packages/traits/impl</text>
<text text-anchor="middle" x="1315.73" y="-7.5" font-family="Helvetica,sans-Serif" font-size="10.00">/types_impl.hpp</text>
</a>
</g>
</g>
<!-- Node11&#45;&gt;Node13 -->
<g id="edge14" class="edge">
<title>Node11&#45;&gt;Node13</title>
<path fill="none" stroke="midnightblue" d="M1354.09,-67.4C1347.8,-59.05 1339.69,-48.29 1332.55,-38.81"/>
<polygon fill="midnightblue" stroke="midnightblue" points="1335.15,-36.45 1326.34,-30.58 1329.56,-40.67 1335.15,-36.45"/>
</g>
<!-- Node21&#45;&gt;Node6 -->
<g id="edge31" class="edge">
<title>Node21&#45;&gt;Node6</title>
<path fill="none" stroke="midnightblue" d="M1044.01,-347.42C998.58,-336.76 934.38,-321.7 886.83,-310.54"/>
<polygon fill="midnightblue" stroke="midnightblue" points="887.48,-307.1 876.94,-308.22 885.88,-313.91 887.48,-307.1"/>
</g>
<!-- Node21&#45;&gt;Node7 -->
<g id="edge26" class="edge">
<title>Node21&#45;&gt;Node7</title>
<path fill="none" stroke="midnightblue" d="M1155.51,-350.13C1182.62,-342.74 1214.14,-330.37 1236.73,-310 1266.69,-282.98 1276.73,-268.85 1276.73,-228.5 1276.73,-228.5 1276.73,-228.5 1276.73,-154 1276.73,-59.27 1139.31,-29.56 1065.44,-20.43"/>
<polygon fill="midnightblue" stroke="midnightblue" points="1065.8,-16.95 1055.46,-19.27 1064.99,-23.9 1065.8,-16.95"/>
</g>
<!-- Node21&#45;&gt;Node8 -->
<g id="edge30" class="edge">
<title>Node21&#45;&gt;Node8</title>
<path fill="none" stroke="midnightblue" d="M1153.71,-346.42C1195.65,-332.78 1243.07,-309.66 1219.73,-279 1206.27,-261.33 1156.24,-248.26 1111.89,-239.85"/>
<polygon fill="midnightblue" stroke="midnightblue" points="1112.41,-236.39 1101.94,-238.03 1111.14,-243.28 1112.41,-236.39"/>
</g>
<!-- Node21&#45;&gt;Node9 -->
<g id="edge27" class="edge">
<title>Node21&#45;&gt;Node9</title>
<path fill="none" stroke="midnightblue" d="M1155.65,-356.19C1201.62,-350.69 1267.18,-338.21 1317.73,-310 1371.24,-280.13 1365.96,-249.11 1414.73,-212 1433.51,-197.71 1456.35,-184.64 1475.46,-174.73"/>
<polygon fill="midnightblue" stroke="midnightblue" points="1477.18,-177.78 1484.5,-170.13 1474,-171.54 1477.18,-177.78"/>
</g>
<!-- Node21&#45;&gt;Node10 -->
<g id="edge29" class="edge">
<title>Node21&#45;&gt;Node10</title>
<path fill="none" stroke="midnightblue" d="M1155.27,-357.68C1196.56,-352.99 1252.17,-340.87 1290.73,-310 1330.86,-277.87 1353.04,-220.14 1363.36,-185.22"/>
<polygon fill="midnightblue" stroke="midnightblue" points="1366.73,-186.17 1366.08,-175.59 1360,-184.27 1366.73,-186.17"/>
</g>
<!-- Node21&#45;&gt;Node15 -->
<g id="edge32" class="edge">
<title>Node21&#45;&gt;Node15</title>
<path fill="none" stroke="midnightblue" d="M1043.97,-360.1C957.8,-358.24 798.17,-349.4 759.73,-310 724.22,-273.61 730.74,-207.16 736.62,-174.77"/>
<polygon fill="midnightblue" stroke="midnightblue" points="740.08,-175.32 738.6,-164.83 733.21,-173.95 740.08,-175.32"/>
</g>
<!-- Node21&#45;&gt;Node16 -->
<g id="edge33" class="edge">
<title>Node21&#45;&gt;Node16</title>
<path fill="none" stroke="midnightblue" d="M1044.15,-357.05C972.19,-351.62 843.35,-338.59 736.73,-310 660.28,-289.5 641.84,-279.72 571.73,-243 529.53,-220.9 483.76,-189.04 458.43,-170.63"/>
<polygon fill="midnightblue" stroke="midnightblue" points="460.49,-167.81 450.36,-164.72 456.36,-173.46 460.49,-167.81"/>
</g>
<!-- Node22 -->
<g id="node22" class="node">
<title>Node22</title>
<g id="a_node22"><a target="_parent" xlink:href="../../../cieutils/docs/html/types_8hpp.html.html" xlink:title=" ">
<polygon fill="white" stroke="black" points="894.73,-279.5 894.73,-309.5 1004.73,-309.5 1004.73,-279.5 894.73,-279.5"/>
<text text-anchor="start" x="902.73" y="-297.5" font-family="Helvetica,sans-Serif" font-size="10.00">packages/types/inc</text>
<text text-anchor="middle" x="949.73" y="-286.5" font-family="Helvetica,sans-Serif" font-size="10.00">/types.hpp</text>
</a>
</g>
</g>
<!-- Node21&#45;&gt;Node22 -->
<g id="edge28" class="edge">
<title>Node21&#45;&gt;Node22</title>
<path fill="none" stroke="midnightblue" d="M1067.18,-346.4C1044.97,-336.77 1015.35,-323.94 991.41,-313.56"/>
<polygon fill="midnightblue" stroke="midnightblue" points="992.78,-310.34 982.21,-309.58 990,-316.76 992.78,-310.34"/>
</g>
<!-- Node23 -->
<g id="node23" class="node">
<title>Node23</title>
<g id="a_node23"><a xlink:title=" ">
<polygon fill="white" stroke="#bfbfbf" points="1022.73,-285 1022.73,-304 1072.73,-304 1072.73,-285 1022.73,-285"/>
<text text-anchor="middle" x="1047.73" y="-292" font-family="Helvetica,sans-Serif" font-size="10.00">ranges</text>
</a>
</g>
</g>
<!-- Node21&#45;&gt;Node23 -->
<g id="edge34" class="edge">
<title>Node21&#45;&gt;Node23</title>
<path fill="none" stroke="midnightblue" d="M1088.44,-346.4C1080.42,-336.36 1069.6,-322.84 1061.13,-312.25"/>
<polygon fill="midnightblue" stroke="midnightblue" points="1063.66,-309.82 1054.68,-304.19 1058.2,-314.19 1063.66,-309.82"/>
</g>
<!-- Node24 -->
<g id="node24" class="node">
<title>Node24</title>
<g id="a_node24"><a xlink:title=" ">
<polygon fill="white" stroke="#bfbfbf" points="1091.23,-279.5 1091.23,-309.5 1210.23,-309.5 1210.23,-279.5 1091.23,-279.5"/>
<text text-anchor="start" x="1099.23" y="-297.5" font-family="Helvetica,sans-Serif" font-size="10.00">packages/buffer/impl</text>
<text text-anchor="middle" x="1150.73" y="-286.5" font-family="Helvetica,sans-Serif" font-size="10.00">/AbsVertex_impl.hpp</text>
</a>
</g>
</g>
<!-- Node21&#45;&gt;Node24 -->
<g id="edge35" class="edge">
<title>Node21&#45;&gt;Node24</title>
<path fill="none" stroke="midnightblue" d="M1110.79,-346.4C1117.41,-337.96 1125.96,-327.07 1133.45,-317.52"/>
<polygon fill="midnightblue" stroke="midnightblue" points="1136.26,-319.6 1139.68,-309.58 1130.76,-315.28 1136.26,-319.6"/>
</g>
<!-- Node27&#45;&gt;Node6 -->
<g id="edge48" class="edge">
<title>Node27&#45;&gt;Node6</title>
<path fill="none" stroke="midnightblue" d="M723.08,-558.38C740.03,-513.65 792.7,-374.72 813.82,-318.99"/>
<polygon fill="midnightblue" stroke="midnightblue" points="817.11,-320.18 817.39,-309.59 810.57,-317.7 817.11,-320.18"/>
</g>
<!-- Node27&#45;&gt;Node19 -->
<g id="edge42" class="edge">
<title>Node27&#45;&gt;Node19</title>
<path fill="none" stroke="midnightblue" d="M718.15,-558.45C718.89,-522.47 718.75,-424.38 698.73,-346 689.98,-311.77 672.15,-274.92 659.83,-251.8"/>
<polygon fill="midnightblue" stroke="midnightblue" points="662.78,-249.89 654.93,-242.77 656.63,-253.23 662.78,-249.89"/>
</g>
<!-- Node28 -->
<g id="node28" class="node">
<title>Node28</title>
<g id="a_node28"><a target="_parent" xlink:href="../../../cieutils/docs/html/TransformView_8hpp.html.html" xlink:title=" ">
<polygon fill="white" stroke="black" points="573.73,-491.5 573.73,-521.5 689.73,-521.5 689.73,-491.5 573.73,-491.5"/>
<text text-anchor="start" x="581.73" y="-509.5" font-family="Helvetica,sans-Serif" font-size="10.00">packages/ranges/inc</text>
<text text-anchor="middle" x="631.73" y="-498.5" font-family="Helvetica,sans-Serif" font-size="10.00">/TransformView.hpp</text>
</a>
</g>
</g>
<!-- Node27&#45;&gt;Node28 -->
<g id="edge41" class="edge">
<title>Node27&#45;&gt;Node28</title>
<path fill="none" stroke="midnightblue" d="M699.07,-558.4C687.23,-549.45 671.73,-537.74 658.59,-527.8"/>
<polygon fill="midnightblue" stroke="midnightblue" points="660.44,-524.81 650.35,-521.58 656.22,-530.4 660.44,-524.81"/>
</g>
<!-- Node29 -->
<g id="node29" class="node">
<title>Node29</title>
<g id="a_node29"><a xlink:href="Vertex3_8hpp.html" target="_top" xlink:title=" ">
<polygon fill="white" stroke="black" points="1230.23,-491.5 1230.23,-521.5 1341.23,-521.5 1341.23,-491.5 1230.23,-491.5"/>
<text text-anchor="start" x="1238.23" y="-509.5" font-family="Helvetica,sans-Serif" font-size="10.00">packages/buffer/inc</text>
<text text-anchor="middle" x="1285.73" y="-498.5" font-family="Helvetica,sans-Serif" font-size="10.00">/Vertex3.hpp</text>
</a>
</g>
</g>
<!-- Node27&#45;&gt;Node29 -->
<g id="edge43" class="edge">
<title>Node27&#45;&gt;Node29</title>
<path fill="none" stroke="midnightblue" d="M775.84,-565.85C882.36,-553.66 1108.19,-527.82 1220.07,-515.01"/>
<polygon fill="midnightblue" stroke="midnightblue" points="1220.68,-518.47 1230.21,-513.85 1219.88,-511.51 1220.68,-518.47"/>
</g>
<!-- Node29&#45;&gt;Node9 -->
<g id="edge47" class="edge">
<title>Node29&#45;&gt;Node9</title>
<path fill="none" stroke="midnightblue" d="M1341.39,-495.25C1407.73,-479.45 1509.73,-442.2 1509.73,-362.5 1509.73,-362.5 1509.73,-362.5 1509.73,-293.5 1509.73,-253.82 1511.83,-207.74 1513.31,-180.28"/>
<polygon fill="midnightblue" stroke="midnightblue" points="1516.82,-180.23 1513.88,-170.05 1509.83,-179.84 1516.82,-180.23"/>
</g>
<!-- Node30 -->
<g id="node30" class="node">
<title>Node30</title>
<g id="a_node30"><a xlink:href="Vertex2_8hpp.html" target="_top" xlink:title=" ">
<polygon fill="white" stroke="black" points="1230.23,-419 1230.23,-449 1341.23,-449 1341.23,-419 1230.23,-419"/>
<text text-anchor="start" x="1238.23" y="-437" font-family="Helvetica,sans-Serif" font-size="10.00">packages/buffer/inc</text>
<text text-anchor="middle" x="1285.73" y="-426" font-family="Helvetica,sans-Serif" font-size="10.00">/Vertex2.hpp</text>
</a>
</g>
</g>
<!-- Node29&#45;&gt;Node30 -->
<g id="edge44" class="edge">
<title>Node29&#45;&gt;Node30</title>
<path fill="none" stroke="midnightblue" d="M1285.73,-491.23C1285.73,-482.16 1285.73,-470.16 1285.73,-459.58"/>
<polygon fill="midnightblue" stroke="midnightblue" points="1289.23,-459.25 1285.73,-449.25 1282.23,-459.25 1289.23,-459.25"/>
</g>
<!-- Node30&#45;&gt;Node9 -->
<g id="edge46" class="edge">
<title>Node30&#45;&gt;Node9</title>
<path fill="none" stroke="midnightblue" d="M1297.4,-418.88C1334.69,-373.78 1451.14,-232.91 1496.44,-178.12"/>
<polygon fill="midnightblue" stroke="midnightblue" points="1499.41,-180.03 1503.08,-170.09 1494.01,-175.57 1499.41,-180.03"/>
</g>
<!-- Node30&#45;&gt;Node21 -->
<g id="edge45" class="edge">
<title>Node30&#45;&gt;Node21</title>
<path fill="none" stroke="midnightblue" d="M1248.53,-418.9C1219.14,-407.76 1177.93,-392.14 1146.33,-380.16"/>
<polygon fill="midnightblue" stroke="midnightblue" points="1147.45,-376.84 1136.86,-376.57 1144.97,-383.39 1147.45,-376.84"/>
</g>
<!-- Node31&#45;&gt;Node16 -->
<g id="edge51" class="edge">
<title>Node31&#45;&gt;Node16</title>
<path fill="none" stroke="midnightblue" d="M432.93,-558.42C421.76,-533.94 400.73,-481.65 400.73,-435 400.73,-435 400.73,-435 400.73,-293.5 400.73,-249.31 419.18,-199.93 430.37,-174.06"/>
<polygon fill="midnightblue" stroke="midnightblue" points="433.63,-175.33 434.52,-164.78 427.24,-172.48 433.63,-175.33"/>
</g>
<!-- Node32 -->
<g id="node32" class="node">
<title>Node32</title>
<g id="a_node32"><a xlink:title=" ">
<polygon fill="white" stroke="#bfbfbf" points="428.73,-497 428.73,-516 506.73,-516 506.73,-497 428.73,-497"/>
<text text-anchor="middle" x="467.73" y="-504" font-family="Helvetica,sans-Serif" font-size="10.00">glm/glm.hpp</text>
</a>
</g>
</g>
<!-- Node31&#45;&gt;Node32 -->
<g id="edge50" class="edge">
<title>Node31&#45;&gt;Node32</title>
<path fill="none" stroke="midnightblue" d="M445.8,-558.4C449.95,-548.76 455.49,-535.91 459.96,-525.54"/>
<polygon fill="midnightblue" stroke="midnightblue" points="463.24,-526.76 463.98,-516.19 456.81,-523.99 463.24,-526.76"/>
</g>
</g>
</svg>
        <g id="navigator" transform="translate(0 0)" fill="#404254">
                <rect fill="#f2f5e9" fill-opacity="0.5" stroke="#606060" stroke-width=".5" x="0" y="0" width="60" height="60"/>
                <use id="zoomplus" xlink:href="#zoomPlus" x="17" y="9" onmousedown="handleZoom(evt,'in')"/>
                <use id="zoomminus" xlink:href="#zoomMin" x="42" y="9" onmousedown="handleZoom(evt,'out')"/>
                <use id="reset" xlink:href="#resetDef" x="30" y="36" onmousedown="handleReset()"/>
                <g id="arrowUp" xlink:href="#dirArrow" transform="translate(30 24)" onmousedown="handlePan(0,-1)">
                  <use xlink:href="#rim" fill="#404040">
                        <set attributeName="fill" to="#808080" begin="arrowUp.mouseover" end="arrowUp.mouseout"/>
                  </use>
                  <path fill="none" stroke="white" stroke-width="1.5" d="M0,-3.0v7 M-2.5,-0.5L0,-3.0L2.5,-0.5"/>
                </g>
                <g id="arrowRight" xlink:href="#dirArrow" transform="rotate(90) translate(36 -43)" onmousedown="handlePan(1,0)">
                  <use xlink:href="#rim" fill="#404040">
                        <set attributeName="fill" to="#808080" begin="arrowRight.mouseover" end="arrowRight.mouseout"/>
                  </use>
                  <path fill="none" stroke="white" stroke-width="1.5" d="M0,-3.0v7 M-2.5,-0.5L0,-3.0L2.5,-0.5"/>
                </g>
                <g id="arrowDown" xlink:href="#dirArrow" transform="rotate(180) translate(-30 -48)" onmousedown="handlePan(0,1)">
                  <use xlink:href="#rim" fill="#404040">
                        <set attributeName="fill" to="#808080" begin="arrowDown.mouseover" end="arrowDown.mouseout"/>
                  </use>
                  <path fill="none" stroke="white" stroke-width="1.5" d="M0,-3.0v7 M-2.5,-0.5L0,-3.0L2.5,-0.5"/>
                </g>
                <g id="arrowLeft" xlink:href="#dirArrow" transform="rotate(270) translate(-36 17)" onmousedown="handlePan(-1,0)">
                  <use xlink:href="#rim" fill="#404040">
                        <set attributeName="fill" to="#808080" begin="arrowLeft.mouseover" end="arrowLeft.mouseout"/>
                  </use>
                  <path fill="none" stroke="white" stroke-width="1.5" d="M0,-3.0v7 M-2.5,-0.5L0,-3.0L2.5,-0.5"/>
                </g>
        </g>
        <svg viewBox="0 0 15 15" width="100%" height="30px" preserveAspectRatio="xMaxYMin meet">
         <g id="arrow_out" transform="scale(0.3 0.3)">
          <a xlink:href="Axes_8hpp__incl_org.svg" target="_base">
           <rect id="button" ry="5" rx="5" y="6" x="6" height="38" width="38"
                fill="#f2f5e9" fill-opacity="0.5" stroke="#606060" stroke-width="1.0"/>
           <path id="arrow"
             d="M 11.500037,31.436501 C 11.940474,20.09759 22.043105,11.32322 32.158766,21.979434 L 37.068811,17.246167 C 37.068811,17.246167 37.088388,32 37.088388,32 L 22.160133,31.978069 C 22.160133,31.978069 26.997745,27.140456 26.997745,27.140456 C 18.528582,18.264221 13.291696,25.230495 11.500037,31.436501 z"
             style="fill:#404040;"/>
          </a>
         </g>
        </svg>
</svg>
