<?xml version="1.0" encoding="UTF-8" standalone="no"?>
<!DOCTYPE svg PUBLIC "-//W3C//DTD SVG 1.1//EN"
 "http://www.w3.org/Graphics/SVG/1.1/DTD/svg11.dtd">
<!-- Generated by graphviz version 2.43.0 (0)
 -->
<!-- Title: Buffer.hpp Pages: 1 -->
<svg width="900pt" height="318pt"
 viewBox="0.00 0.00 899.79 318.00" xmlns="http://www.w3.org/2000/svg" xmlns:xlink="http://www.w3.org/1999/xlink">
<g id="graph0" class="graph" transform="scale(1 1) rotate(0) translate(4 314)">
<title>Buffer.hpp</title>
<polygon fill="white" stroke="transparent" points="-4,4 -4,-314 895.79,-314 895.79,4 -4,4"/>
<!-- Node1 -->
<g id="node1" class="node">
<title>Node1</title>
<g id="a_node1"><a xlink:title=" ">
<polygon fill="#bfbfbf" stroke="black" points="252.61,-290.5 252.61,-309.5 318.61,-309.5 318.61,-290.5 252.61,-290.5"/>
<text text-anchor="middle" x="285.61" y="-297.5" font-family="Helvetica,sans-Serif" font-size="10.00">Buffer.hpp</text>
</a>
</g>
</g>
<!-- Node2 -->
<g id="node2" class="node">
<title>Node2</title>
<g id="a_node2"><a xlink:title=" ">
<polygon fill="white" stroke="#bfbfbf" points="425.11,-6 425.11,-25 496.11,-25 496.11,-6 425.11,-6"/>
<text text-anchor="middle" x="460.61" y="-13" font-family="Helvetica,sans-Serif" font-size="10.00">glad/glad.h</text>
</a>
</g>
</g>
<!-- Node1&#45;&gt;Node2 -->
<g id="edge1" class="edge">
<title>Node1&#45;&gt;Node2</title>
<path fill="none" stroke="midnightblue" d="M252.49,-293.25C165.79,-276.79 -56.37,-224.76 13.61,-134 62.94,-70.03 311.16,-34 414.92,-21.53"/>
<polygon fill="midnightblue" stroke="midnightblue" points="415.56,-24.98 425.08,-20.33 414.74,-18.03 415.56,-24.98"/>
</g>
<!-- Node3 -->
<g id="node3" class="node">
<title>Node3</title>
<g id="a_node3"><a target="_parent" xlink:href="../../../cieutils/docs/html/IDObject_8hpp.html.html" xlink:title=" ">
<polygon fill="white" stroke="black" points="450.61,-218 450.61,-248 560.61,-248 560.61,-218 450.61,-218"/>
<text text-anchor="start" x="458.61" y="-236" font-family="Helvetica,sans-Serif" font-size="10.00">packages/types/inc</text>
<text text-anchor="middle" x="505.61" y="-225" font-family="Helvetica,sans-Serif" font-size="10.00">/IDObject.hpp</text>
</a>
</g>
</g>
<!-- Node1&#45;&gt;Node3 -->
<g id="edge2" class="edge">
<title>Node1&#45;&gt;Node3</title>
<path fill="none" stroke="midnightblue" d="M315.87,-290.49C347.34,-281.58 398.01,-267.1 441.61,-254 444.89,-253.02 448.26,-251.99 451.65,-250.96"/>
<polygon fill="midnightblue" stroke="midnightblue" points="452.71,-254.29 461.24,-248.01 450.65,-247.6 452.71,-254.29"/>
</g>
<!-- Node7 -->
<g id="node7" class="node">
<title>Node7</title>
<g id="a_node7"><a target="_parent" xlink:href="../../../cieutils/docs/html/container__concepts_8hpp.html.html" xlink:title=" ">
<polygon fill="white" stroke="black" points="579.11,-212.5 579.11,-253.5 714.11,-253.5 714.11,-212.5 579.11,-212.5"/>
<text text-anchor="start" x="587.11" y="-241.5" font-family="Helvetica,sans-Serif" font-size="10.00">packages/compile_time</text>
<text text-anchor="start" x="587.11" y="-230.5" font-family="Helvetica,sans-Serif" font-size="10.00">/packages/concepts/inc</text>
<text text-anchor="middle" x="646.61" y="-219.5" font-family="Helvetica,sans-Serif" font-size="10.00">/container_concepts.hpp</text>
</a>
</g>
</g>
<!-- Node1&#45;&gt;Node7 -->
<g id="edge7" class="edge">
<title>Node1&#45;&gt;Node7</title>
<path fill="none" stroke="midnightblue" d="M319.03,-294.77C370.55,-288.03 472.62,-273.75 569.17,-253.99"/>
<polygon fill="midnightblue" stroke="midnightblue" points="570.01,-257.39 579.09,-251.93 568.59,-250.53 570.01,-257.39"/>
</g>
<!-- Node8 -->
<g id="node8" class="node">
<title>Node8</title>
<g id="a_node8"><a target="_parent" xlink:href="../../../cieutils/docs/html/typedefs_8hpp.html.html" xlink:title=" ">
<polygon fill="white" stroke="black" points="23.11,-140 23.11,-170 142.11,-170 142.11,-140 23.11,-140"/>
<text text-anchor="start" x="31.11" y="-158" font-family="Helvetica,sans-Serif" font-size="10.00">packages/macros/inc</text>
<text text-anchor="middle" x="82.61" y="-147" font-family="Helvetica,sans-Serif" font-size="10.00">/typedefs.hpp</text>
</a>
</g>
</g>
<!-- Node1&#45;&gt;Node8 -->
<g id="edge8" class="edge">
<title>Node1&#45;&gt;Node8</title>
<path fill="none" stroke="midnightblue" d="M273.52,-290.48C241.91,-268.22 156.16,-207.81 111.12,-176.08"/>
<polygon fill="midnightblue" stroke="midnightblue" points="112.87,-173.04 102.68,-170.14 108.84,-178.76 112.87,-173.04"/>
</g>
<!-- Node9 -->
<g id="node9" class="node">
<title>Node9</title>
<g id="a_node9"><a target="_parent" xlink:href="../../../cieutils/docs/html/DynamicArray_8hpp.html.html" xlink:title=" ">
<polygon fill="white" stroke="black" points="160.11,-140 160.11,-170 291.11,-170 291.11,-140 160.11,-140"/>
<text text-anchor="start" x="168.11" y="-158" font-family="Helvetica,sans-Serif" font-size="10.00">packages/stl_extension</text>
<text text-anchor="middle" x="225.61" y="-147" font-family="Helvetica,sans-Serif" font-size="10.00">/inc/DynamicArray.hpp</text>
</a>
</g>
</g>
<!-- Node1&#45;&gt;Node9 -->
<g id="edge9" class="edge">
<title>Node1&#45;&gt;Node9</title>
<path fill="none" stroke="midnightblue" d="M282.04,-290.48C273.03,-269.01 249.14,-212.08 235.51,-179.59"/>
<polygon fill="midnightblue" stroke="midnightblue" points="238.73,-178.23 231.64,-170.36 232.28,-180.94 238.73,-178.23"/>
</g>
<!-- Node10 -->
<g id="node10" class="node">
<title>Node10</title>
<g id="a_node10"><a xlink:href="AttributeContainer_8hpp.html" target="_top" xlink:title=" ">
<polygon fill="white" stroke="black" points="302.61,-218 302.61,-248 432.61,-248 432.61,-218 302.61,-218"/>
<text text-anchor="start" x="310.61" y="-236" font-family="Helvetica,sans-Serif" font-size="10.00">packages/buffer/inc</text>
<text text-anchor="middle" x="367.61" y="-225" font-family="Helvetica,sans-Serif" font-size="10.00">/AttributeContainer.hpp</text>
</a>
</g>
</g>
<!-- Node1&#45;&gt;Node10 -->
<g id="edge10" class="edge">
<title>Node1&#45;&gt;Node10</title>
<path fill="none" stroke="midnightblue" d="M296.67,-290.23C308.18,-281.11 326.61,-266.5 341.8,-254.46"/>
<polygon fill="midnightblue" stroke="midnightblue" points="344.17,-257.04 349.84,-248.09 339.83,-251.56 344.17,-257.04"/>
</g>
<!-- Node4 -->
<g id="node4" class="node">
<title>Node4</title>
<g id="a_node4"><a xlink:href="types_8hpp.html" target="_top" xlink:title=" ">
<polygon fill="white" stroke="black" points="753.61,-67.5 753.61,-97.5 863.61,-97.5 863.61,-67.5 753.61,-67.5"/>
<text text-anchor="start" x="761.61" y="-85.5" font-family="Helvetica,sans-Serif" font-size="10.00">packages/types/inc</text>
<text text-anchor="middle" x="808.61" y="-74.5" font-family="Helvetica,sans-Serif" font-size="10.00">/types.hpp</text>
</a>
</g>
</g>
<!-- Node3&#45;&gt;Node4 -->
<g id="edge3" class="edge">
<title>Node3&#45;&gt;Node4</title>
<path fill="none" stroke="midnightblue" d="M547.27,-217.94C554.97,-215.7 562.98,-213.6 570.61,-212 639.14,-197.64 837.02,-228.26 883.61,-176 896.03,-162.07 892.38,-150.48 883.61,-134 876.67,-120.95 864.69,-110.67 852.31,-102.89"/>
<polygon fill="midnightblue" stroke="midnightblue" points="853.71,-99.65 843.3,-97.66 850.19,-105.7 853.71,-99.65"/>
</g>
<!-- Node4&#45;&gt;Node2 -->
<g id="edge4" class="edge">
<title>Node4&#45;&gt;Node2</title>
<path fill="none" stroke="midnightblue" d="M753.47,-71.2C685.21,-58.45 570.2,-36.97 506.51,-25.07"/>
<polygon fill="midnightblue" stroke="midnightblue" points="506.84,-21.57 496.37,-23.18 505.56,-28.46 506.84,-21.57"/>
</g>
<!-- Node5 -->
<g id="node5" class="node">
<title>Node5</title>
<g id="a_node5"><a xlink:title=" ">
<polygon fill="white" stroke="#bfbfbf" points="835.61,-6 835.61,-25 879.61,-25 879.61,-6 835.61,-6"/>
<text text-anchor="middle" x="857.61" y="-13" font-family="Helvetica,sans-Serif" font-size="10.00">string</text>
</a>
</g>
</g>
<!-- Node4&#45;&gt;Node5 -->
<g id="edge5" class="edge">
<title>Node4&#45;&gt;Node5</title>
<path fill="none" stroke="midnightblue" d="M819.24,-67.4C826.81,-57.36 837,-43.84 844.98,-33.25"/>
<polygon fill="midnightblue" stroke="midnightblue" points="847.83,-35.29 851.06,-25.19 842.24,-31.07 847.83,-35.29"/>
</g>
<!-- Node6 -->
<g id="node6" class="node">
<title>Node6</title>
<g id="a_node6"><a xlink:title=" ">
<polygon fill="white" stroke="#bfbfbf" points="701.61,-0.5 701.61,-30.5 817.61,-30.5 817.61,-0.5 701.61,-0.5"/>
<text text-anchor="start" x="709.61" y="-18.5" font-family="Helvetica,sans-Serif" font-size="10.00">packages/traits/impl</text>
<text text-anchor="middle" x="759.61" y="-7.5" font-family="Helvetica,sans-Serif" font-size="10.00">/types_impl.hpp</text>
</a>
</g>
</g>
<!-- Node4&#45;&gt;Node6 -->
<g id="edge6" class="edge">
<title>Node4&#45;&gt;Node6</title>
<path fill="none" stroke="midnightblue" d="M797.98,-67.4C791.69,-59.05 783.57,-48.29 776.43,-38.81"/>
<polygon fill="midnightblue" stroke="midnightblue" points="779.04,-36.45 770.22,-30.58 773.45,-40.67 779.04,-36.45"/>
</g>
<!-- Node10&#45;&gt;Node2 -->
<g id="edge11" class="edge">
<title>Node10&#45;&gt;Node2</title>
<path fill="none" stroke="midnightblue" d="M396.17,-217.86C412.27,-208.33 431.19,-194.17 441.61,-176 467.56,-130.76 465.74,-66.49 462.87,-35.14"/>
<polygon fill="midnightblue" stroke="midnightblue" points="466.35,-34.75 461.81,-25.18 459.39,-35.49 466.35,-34.75"/>
</g>
<!-- Node10&#45;&gt;Node8 -->
<g id="edge12" class="edge">
<title>Node10&#45;&gt;Node8</title>
<path fill="none" stroke="midnightblue" d="M310.82,-217.9C266.96,-206.87 204.81,-190.96 150.61,-176 147.02,-175.01 143.33,-173.97 139.6,-172.91"/>
<polygon fill="midnightblue" stroke="midnightblue" points="140.32,-169.48 129.74,-170.08 138.39,-176.21 140.32,-169.48"/>
</g>
<!-- Node10&#45;&gt;Node9 -->
<g id="edge15" class="edge">
<title>Node10&#45;&gt;Node9</title>
<path fill="none" stroke="midnightblue" d="M341.23,-217.88C318.62,-205.78 285.84,-188.24 260.96,-174.92"/>
<polygon fill="midnightblue" stroke="midnightblue" points="262.31,-171.67 251.85,-170.04 259.01,-177.85 262.31,-171.67"/>
</g>
<!-- Node11 -->
<g id="node11" class="node">
<title>Node11</title>
<g id="a_node11"><a target="_parent" xlink:href="../../../cieutils/docs/html/basic__concepts_8hpp.html.html" xlink:title=" ">
<polygon fill="white" stroke="black" points="742.61,-134.5 742.61,-175.5 874.61,-175.5 874.61,-134.5 742.61,-134.5"/>
<text text-anchor="start" x="750.61" y="-163.5" font-family="Helvetica,sans-Serif" font-size="10.00">packages/compile_time</text>
<text text-anchor="start" x="750.61" y="-152.5" font-family="Helvetica,sans-Serif" font-size="10.00">/packages/concepts/inc</text>
<text text-anchor="middle" x="808.61" y="-141.5" font-family="Helvetica,sans-Serif" font-size="10.00">/basic_concepts.hpp</text>
</a>
</g>
</g>
<!-- Node10&#45;&gt;Node11 -->
<g id="edge13" class="edge">
<title>Node10&#45;&gt;Node11</title>
<path fill="none" stroke="midnightblue" d="M415.55,-217.99C424.17,-215.77 433.12,-213.66 441.61,-212 566.8,-187.49 603.46,-200.24 732.6,-176.05"/>
<polygon fill="midnightblue" stroke="midnightblue" points="733.31,-179.48 742.47,-174.17 731.99,-172.61 733.31,-179.48"/>
</g>
<!-- Node12 -->
<g id="node12" class="node">
<title>Node12</title>
<g id="a_node12"><a xlink:title=" ">
<polygon fill="white" stroke="#bfbfbf" points="309.11,-145.5 309.11,-164.5 356.11,-164.5 356.11,-145.5 309.11,-145.5"/>
<text text-anchor="middle" x="332.61" y="-152.5" font-family="Helvetica,sans-Serif" font-size="10.00">vector</text>
</a>
</g>
</g>
<!-- Node10&#45;&gt;Node12 -->
<g id="edge16" class="edge">
<title>Node10&#45;&gt;Node12</title>
<path fill="none" stroke="midnightblue" d="M361.03,-217.7C355.28,-205.23 346.93,-187.09 340.76,-173.7"/>
<polygon fill="midnightblue" stroke="midnightblue" points="343.92,-172.18 336.55,-164.56 337.56,-175.11 343.92,-172.18"/>
</g>
<!-- Node13 -->
<g id="node13" class="node">
<title>Node13</title>
<g id="a_node13"><a xlink:title=" ">
<polygon fill="white" stroke="#bfbfbf" points="374.61,-145.5 374.61,-164.5 432.61,-164.5 432.61,-145.5 374.61,-145.5"/>
<text text-anchor="middle" x="403.61" y="-152.5" font-family="Helvetica,sans-Serif" font-size="10.00">memory</text>
</a>
</g>
</g>
<!-- Node10&#45;&gt;Node13 -->
<g id="edge17" class="edge">
<title>Node10&#45;&gt;Node13</title>
<path fill="none" stroke="midnightblue" d="M374.38,-217.7C380.29,-205.23 388.89,-187.09 395.23,-173.7"/>
<polygon fill="midnightblue" stroke="midnightblue" points="398.44,-175.1 399.55,-164.56 392.11,-172.1 398.44,-175.1"/>
</g>
<!-- Node14 -->
<g id="node14" class="node">
<title>Node14</title>
<g id="a_node14"><a xlink:title=" ">
<polygon fill="white" stroke="#bfbfbf" points="488.61,-145.5 488.61,-164.5 548.61,-164.5 548.61,-145.5 488.61,-145.5"/>
<text text-anchor="middle" x="518.61" y="-152.5" font-family="Helvetica,sans-Serif" font-size="10.00">concepts</text>
</a>
</g>
</g>
<!-- Node10&#45;&gt;Node14 -->
<g id="edge18" class="edge">
<title>Node10&#45;&gt;Node14</title>
<path fill="none" stroke="midnightblue" d="M395.66,-217.88C423.31,-203.97 465.24,-182.86 492.28,-169.25"/>
<polygon fill="midnightblue" stroke="midnightblue" points="494.15,-172.23 501.51,-164.61 491.01,-165.98 494.15,-172.23"/>
</g>
<!-- Node15 -->
<g id="node15" class="node">
<title>Node15</title>
<g id="a_node15"><a xlink:title=" ">
<polygon fill="white" stroke="#bfbfbf" points="566.61,-140 566.61,-170 724.61,-170 724.61,-140 566.61,-140"/>
<text text-anchor="start" x="574.61" y="-158" font-family="Helvetica,sans-Serif" font-size="10.00">packages/buffer/impl</text>
<text text-anchor="middle" x="645.61" y="-147" font-family="Helvetica,sans-Serif" font-size="10.00">/AttributeContainer_impl.hpp</text>
</a>
</g>
</g>
<!-- Node10&#45;&gt;Node15 -->
<g id="edge19" class="edge">
<title>Node10&#45;&gt;Node15</title>
<path fill="none" stroke="midnightblue" d="M418.92,-217.97C465.7,-205.19 534.86,-186.28 584.48,-172.71"/>
<polygon fill="midnightblue" stroke="midnightblue" points="585.4,-176.09 594.13,-170.07 583.56,-169.34 585.4,-176.09"/>
</g>
<!-- Node11&#45;&gt;Node4 -->
<g id="edge14" class="edge">
<title>Node11&#45;&gt;Node4</title>
<path fill="none" stroke="midnightblue" d="M808.61,-134.36C808.61,-126.23 808.61,-116.7 808.61,-108.11"/>
<polygon fill="midnightblue" stroke="midnightblue" points="812.11,-107.89 808.61,-97.89 805.11,-107.89 812.11,-107.89"/>
</g>
</g>
</svg>
