<?xml version="1.0" encoding="UTF-8" standalone="no"?>
<!DOCTYPE svg PUBLIC "-//W3C//DTD SVG 1.1//EN"
 "http://www.w3.org/Graphics/SVG/1.1/DTD/svg11.dtd">
<!-- Generated by graphviz version 2.43.0 (0)
 -->
<!-- Title: BufferManager.hpp Pages: 1 -->
<!--zoomable 396 -->
<svg id="main" version="1.1" xmlns="http://www.w3.org/2000/svg" xmlns:xlink="http://www.w3.org/1999/xlink" xml:space="preserve" onload="init(evt)">
<style type="text/css"><![CDATA[
.edge:hover path { stroke: red; }
.edge:hover polygon { stroke: red; fill: red; }
]]></style>
<script type="text/javascript"><![CDATA[
var edges = document.getElementsByTagName('g');
if (edges && edges.length) {
  for (var i=0;i<edges.length;i++) {
    if (edges[i].id.substr(0,4)=='edge') {
      edges[i].setAttribute('class','edge');
    }
  }
}
]]></script>
        <defs>
                <circle id="rim" cx="0" cy="0" r="7"/>
                <circle id="rim2" cx="0" cy="0" r="3.5"/>
                <g id="zoomPlus">
                        <use xlink:href="#rim" fill="#404040">
                                <set attributeName="fill" to="#808080" begin="zoomplus.mouseover" end="zoomplus.mouseout"/>
                        </use>
                        <path d="M-4,0h8M0,-4v8" fill="none" stroke="white" stroke-width="1.5" pointer-events="none"/>
                </g>
                <g id="zoomMin">
                        <use xlink:href="#rim" fill="#404040">
                                <set attributeName="fill" to="#808080" begin="zoomminus.mouseover" end="zoomminus.mouseout"/>
                        </use>
                        <path d="M-4,0h8" fill="none" stroke="white" stroke-width="1.5" pointer-events="none"/>
                </g>
                <g id="dirArrow">
                        <path fill="none" stroke="white" stroke-width="1.5" d="M0,-3.0v7 M-2.5,-0.5L0,-3.0L2.5,-0.5"/>
                </g>
               <g id="resetDef">
                       <use xlink:href="#rim2" fill="#404040">
                               <set attributeName="fill" to="#808080" begin="reset.mouseover" end="reset.mouseout"/>
                       </use>
               </g>
        </defs>

<script type="text/javascript">
var viewWidth = 1259;
var viewHeight = 396;
var sectionId = 'dynsection-0';
</script>
<script xlink:href="svgpan.js"/>
<svg id="graph" class="graph">
<g id="viewport">
<title>BufferManager.hpp</title>
<polygon fill="white" stroke="transparent" points="-4,4 -4,-392 1254.5,-392 1254.5,4 -4,4"/>
<!-- Node1 -->
<g id="node1" class="node">
<title>Node1</title>
<g id="a_node1"><a xlink:title=" ">
<polygon fill="#bfbfbf" stroke="black" points="719,-368.5 719,-387.5 828,-387.5 828,-368.5 719,-368.5"/>
<text text-anchor="middle" x="773.5" y="-375.5" font-family="Helvetica,sans-Serif" font-size="10.00">BufferManager.hpp</text>
</a>
</g>
</g>
<!-- Node2 -->
<g id="node2" class="node">
<title>Node2</title>
<g id="a_node2"><a target="_parent" xlink:href="../../../cieutils/docs/html/container__concepts_8hpp.html.html" xlink:title=" ">
<polygon fill="white" stroke="black" points="0,-212.5 0,-253.5 135,-253.5 135,-212.5 0,-212.5"/>
<text text-anchor="start" x="8" y="-241.5" font-family="Helvetica,sans-Serif" font-size="10.00">packages/compile_time</text>
<text text-anchor="start" x="8" y="-230.5" font-family="Helvetica,sans-Serif" font-size="10.00">/packages/concepts/inc</text>
<text text-anchor="middle" x="67.5" y="-219.5" font-family="Helvetica,sans-Serif" font-size="10.00">/container_concepts.hpp</text>
</a>
</g>
</g>
<!-- Node1&#45;&gt;Node2 -->
<g id="edge1" class="edge">
<title>Node1&#45;&gt;Node2</title>
<path fill="none" stroke="midnightblue" d="M718.8,-374.71C605.68,-369.56 349.57,-355.63 265.5,-332 207.22,-315.62 145.53,-282.18 106.8,-258.95"/>
<polygon fill="midnightblue" stroke="midnightblue" points="108.3,-255.77 97.94,-253.57 104.67,-261.75 108.3,-255.77"/>
</g>
<!-- Node3 -->
<g id="node3" class="node">
<title>Node3</title>
<g id="a_node3"><a target="_parent" xlink:href="../../../cieutils/docs/html/logical_8hpp.html.html" xlink:title=" ">
<polygon fill="white" stroke="black" points="635.5,-290.5 635.5,-331.5 767.5,-331.5 767.5,-290.5 635.5,-290.5"/>
<text text-anchor="start" x="643.5" y="-319.5" font-family="Helvetica,sans-Serif" font-size="10.00">packages/compile_time</text>
<text text-anchor="start" x="643.5" y="-308.5" font-family="Helvetica,sans-Serif" font-size="10.00">/packages/concepts/inc</text>
<text text-anchor="middle" x="701.5" y="-297.5" font-family="Helvetica,sans-Serif" font-size="10.00">/logical.hpp</text>
</a>
</g>
</g>
<!-- Node1&#45;&gt;Node3 -->
<g id="edge2" class="edge">
<title>Node1&#45;&gt;Node3</title>
<path fill="none" stroke="midnightblue" d="M763.79,-368.23C755.29,-360.56 742.49,-349 730.69,-338.36"/>
<polygon fill="midnightblue" stroke="midnightblue" points="732.91,-335.65 723.15,-331.54 728.22,-340.84 732.91,-335.65"/>
</g>
<!-- Node4 -->
<g id="node4" class="node">
<title>Node4</title>
<g id="a_node4"><a target="_parent" xlink:href="../../../cieutils/docs/html/Loggee_8hpp.html.html" xlink:title=" ">
<polygon fill="white" stroke="black" points="786,-296 786,-326 905,-326 905,-296 786,-296"/>
<text text-anchor="start" x="794" y="-314" font-family="Helvetica,sans-Serif" font-size="10.00">packages/logging/inc</text>
<text text-anchor="middle" x="845.5" y="-303" font-family="Helvetica,sans-Serif" font-size="10.00">/Loggee.hpp</text>
</a>
</g>
</g>
<!-- Node1&#45;&gt;Node4 -->
<g id="edge3" class="edge">
<title>Node1&#45;&gt;Node4</title>
<path fill="none" stroke="midnightblue" d="M783.21,-368.23C793.22,-359.2 809.2,-344.77 822.46,-332.8"/>
<polygon fill="midnightblue" stroke="midnightblue" points="824.82,-335.39 829.89,-326.09 820.13,-330.19 824.82,-335.39"/>
</g>
<!-- Node5 -->
<g id="node5" class="node">
<title>Node5</title>
<g id="a_node5"><a target="_parent" xlink:href="../../../cieutils/docs/html/LoggerSingleton_8hpp.html.html" xlink:title=" ">
<polygon fill="white" stroke="black" points="923,-296 923,-326 1042,-326 1042,-296 923,-296"/>
<text text-anchor="start" x="931" y="-314" font-family="Helvetica,sans-Serif" font-size="10.00">packages/logging/inc</text>
<text text-anchor="middle" x="982.5" y="-303" font-family="Helvetica,sans-Serif" font-size="10.00">/LoggerSingleton.hpp</text>
</a>
</g>
</g>
<!-- Node1&#45;&gt;Node5 -->
<g id="edge4" class="edge">
<title>Node1&#45;&gt;Node5</title>
<path fill="none" stroke="midnightblue" d="M801.25,-368.37C833.36,-358.38 887.01,-341.7 927.63,-329.06"/>
<polygon fill="midnightblue" stroke="midnightblue" points="928.88,-332.34 937.39,-326.03 926.81,-325.66 928.88,-332.34"/>
</g>
<!-- Node6 -->
<g id="node6" class="node">
<title>Node6</title>
<g id="a_node6"><a target="_parent" xlink:href="../../../cieutils/docs/html/typedefs_8hpp.html.html" xlink:title=" ">
<polygon fill="white" stroke="black" points="964,-140 964,-170 1083,-170 1083,-140 964,-140"/>
<text text-anchor="start" x="972" y="-158" font-family="Helvetica,sans-Serif" font-size="10.00">packages/macros/inc</text>
<text text-anchor="middle" x="1023.5" y="-147" font-family="Helvetica,sans-Serif" font-size="10.00">/typedefs.hpp</text>
</a>
</g>
</g>
<!-- Node1&#45;&gt;Node6 -->
<g id="edge5" class="edge">
<title>Node1&#45;&gt;Node6</title>
<path fill="none" stroke="midnightblue" d="M718.92,-375.58C686.46,-371.57 647.61,-360.54 626.5,-332 615.4,-316.99 615.61,-305.16 626.5,-290 636.81,-275.64 860.46,-205.8 967.44,-173.03"/>
<polygon fill="midnightblue" stroke="midnightblue" points="968.57,-176.35 977.11,-170.08 966.53,-169.65 968.57,-176.35"/>
</g>
<!-- Node7 -->
<g id="node7" class="node">
<title>Node7</title>
<g id="a_node7"><a xlink:href="Buffer_8hpp.html" target="_top" xlink:title=" ">
<polygon fill="white" stroke="black" points="274,-296 274,-326 385,-326 385,-296 274,-296"/>
<text text-anchor="start" x="282" y="-314" font-family="Helvetica,sans-Serif" font-size="10.00">packages/buffer/inc</text>
<text text-anchor="middle" x="329.5" y="-303" font-family="Helvetica,sans-Serif" font-size="10.00">/Buffer.hpp</text>
</a>
</g>
</g>
<!-- Node1&#45;&gt;Node7 -->
<g id="edge6" class="edge">
<title>Node1&#45;&gt;Node7</title>
<path fill="none" stroke="midnightblue" d="M718.61,-368.96C636.82,-356.99 483.18,-334.5 395.42,-321.65"/>
<polygon fill="midnightblue" stroke="midnightblue" points="395.71,-318.16 385.31,-320.17 394.7,-325.08 395.71,-318.16"/>
</g>
<!-- Node20 -->
<g id="node20" class="node">
<title>Node20</title>
<g id="a_node20"><a xlink:title=" ">
<polygon fill="white" stroke="#bfbfbf" points="1060.5,-301.5 1060.5,-320.5 1092.5,-320.5 1092.5,-301.5 1060.5,-301.5"/>
<text text-anchor="middle" x="1076.5" y="-308.5" font-family="Helvetica,sans-Serif" font-size="10.00">list</text>
</a>
</g>
</g>
<!-- Node1&#45;&gt;Node20 -->
<g id="edge26" class="edge">
<title>Node1&#45;&gt;Node20</title>
<path fill="none" stroke="midnightblue" d="M828.07,-376.3C885.87,-373.73 978.65,-364.32 1051.5,-332 1054.45,-330.69 1057.35,-328.94 1060.07,-327.03"/>
<polygon fill="midnightblue" stroke="midnightblue" points="1062.4,-329.65 1067.99,-320.65 1058.01,-324.2 1062.4,-329.65"/>
</g>
<!-- Node21 -->
<g id="node21" class="node">
<title>Node21</title>
<g id="a_node21"><a xlink:title=" ">
<polygon fill="white" stroke="#bfbfbf" points="1110.5,-296 1110.5,-326 1250.5,-326 1250.5,-296 1110.5,-296"/>
<text text-anchor="start" x="1118.5" y="-314" font-family="Helvetica,sans-Serif" font-size="10.00">packages/buffer/impl</text>
<text text-anchor="middle" x="1180.5" y="-303" font-family="Helvetica,sans-Serif" font-size="10.00">/BufferManager_impl.hpp</text>
</a>
</g>
</g>
<!-- Node1&#45;&gt;Node21 -->
<g id="edge27" class="edge">
<title>Node1&#45;&gt;Node21</title>
<path fill="none" stroke="midnightblue" d="M828.07,-371.4C893.41,-364.26 1006.01,-350.58 1101.5,-332 1106.97,-330.94 1112.62,-329.73 1118.28,-328.44"/>
<polygon fill="midnightblue" stroke="midnightblue" points="1119.48,-331.75 1128.42,-326.06 1117.88,-324.94 1119.48,-331.75"/>
</g>
<!-- Node7&#45;&gt;Node2 -->
<g id="edge13" class="edge">
<title>Node7&#45;&gt;Node2</title>
<path fill="none" stroke="midnightblue" d="M281.14,-295.97C242.93,-284.89 188.85,-269.2 144.67,-256.39"/>
<polygon fill="midnightblue" stroke="midnightblue" points="145.41,-252.95 134.83,-253.53 143.46,-259.68 145.41,-252.95"/>
</g>
<!-- Node7&#45;&gt;Node6 -->
<g id="edge14" class="edge">
<title>Node7&#45;&gt;Node6</title>
<path fill="none" stroke="midnightblue" d="M385.15,-304.08C431.74,-297.27 498.71,-283.03 550.5,-254 573.8,-240.94 569.29,-223.29 593.5,-212 739.62,-143.83 796.18,-206.57 954.5,-176 959.5,-175.03 964.66,-173.87 969.8,-172.59"/>
<polygon fill="midnightblue" stroke="midnightblue" points="970.84,-175.94 979.62,-170.02 969.06,-169.17 970.84,-175.94"/>
</g>
<!-- Node8 -->
<g id="node8" class="node">
<title>Node8</title>
<g id="a_node8"><a xlink:title=" ">
<polygon fill="white" stroke="#bfbfbf" points="354,-6 354,-25 425,-25 425,-6 354,-6"/>
<text text-anchor="middle" x="389.5" y="-13" font-family="Helvetica,sans-Serif" font-size="10.00">glad/glad.h</text>
</a>
</g>
</g>
<!-- Node7&#45;&gt;Node8 -->
<g id="edge7" class="edge">
<title>Node7&#45;&gt;Node8</title>
<path fill="none" stroke="midnightblue" d="M274.16,-295.96C237.22,-285.34 193.46,-269.91 182.5,-254 171.91,-238.63 179.51,-230.43 182.5,-212 188.35,-175.93 186.14,-162.9 208.5,-134 248.42,-82.4 317.78,-46.63 358.06,-29.03"/>
<polygon fill="midnightblue" stroke="midnightblue" points="359.57,-32.19 367.4,-25.05 356.83,-25.75 359.57,-32.19"/>
</g>
<!-- Node9 -->
<g id="node9" class="node">
<title>Node9</title>
<g id="a_node9"><a target="_parent" xlink:href="../../../cieutils/docs/html/IDObject_8hpp.html.html" xlink:title=" ">
<polygon fill="white" stroke="black" points="191.5,-218 191.5,-248 301.5,-248 301.5,-218 191.5,-218"/>
<text text-anchor="start" x="199.5" y="-236" font-family="Helvetica,sans-Serif" font-size="10.00">packages/types/inc</text>
<text text-anchor="middle" x="246.5" y="-225" font-family="Helvetica,sans-Serif" font-size="10.00">/IDObject.hpp</text>
</a>
</g>
</g>
<!-- Node7&#45;&gt;Node9 -->
<g id="edge8" class="edge">
<title>Node7&#45;&gt;Node9</title>
<path fill="none" stroke="midnightblue" d="M313.89,-295.7C301.37,-284.24 283.61,-267.98 269.47,-255.03"/>
<polygon fill="midnightblue" stroke="midnightblue" points="271.78,-252.4 262.04,-248.23 267.05,-257.57 271.78,-252.4"/>
</g>
<!-- Node13 -->
<g id="node13" class="node">
<title>Node13</title>
<g id="a_node13"><a target="_parent" xlink:href="../../../cieutils/docs/html/DynamicArray_8hpp.html.html" xlink:title=" ">
<polygon fill="white" stroke="black" points="230,-140 230,-170 361,-170 361,-140 230,-140"/>
<text text-anchor="start" x="238" y="-158" font-family="Helvetica,sans-Serif" font-size="10.00">packages/stl_extension</text>
<text text-anchor="middle" x="295.5" y="-147" font-family="Helvetica,sans-Serif" font-size="10.00">/inc/DynamicArray.hpp</text>
</a>
</g>
</g>
<!-- Node7&#45;&gt;Node13 -->
<g id="edge15" class="edge">
<title>Node7&#45;&gt;Node13</title>
<path fill="none" stroke="midnightblue" d="M327.1,-295.98C323.76,-276.9 317.35,-241.72 310.5,-212 308.08,-201.48 305.05,-189.95 302.35,-180.1"/>
<polygon fill="midnightblue" stroke="midnightblue" points="305.65,-178.9 299.6,-170.2 298.91,-180.77 305.65,-178.9"/>
</g>
<!-- Node14 -->
<g id="node14" class="node">
<title>Node14</title>
<g id="a_node14"><a xlink:href="AttributeContainer_8hpp.html" target="_top" xlink:title=" ">
<polygon fill="white" stroke="black" points="411.5,-218 411.5,-248 541.5,-248 541.5,-218 411.5,-218"/>
<text text-anchor="start" x="419.5" y="-236" font-family="Helvetica,sans-Serif" font-size="10.00">packages/buffer/inc</text>
<text text-anchor="middle" x="476.5" y="-225" font-family="Helvetica,sans-Serif" font-size="10.00">/AttributeContainer.hpp</text>
</a>
</g>
</g>
<!-- Node7&#45;&gt;Node14 -->
<g id="edge16" class="edge">
<title>Node7&#45;&gt;Node14</title>
<path fill="none" stroke="midnightblue" d="M356.81,-295.88C380.32,-283.73 414.45,-266.08 440.25,-252.74"/>
<polygon fill="midnightblue" stroke="midnightblue" points="442.07,-255.74 449.34,-248.04 438.85,-249.52 442.07,-255.74"/>
</g>
<!-- Node10 -->
<g id="node10" class="node">
<title>Node10</title>
<g id="a_node10"><a xlink:href="types_8hpp.html" target="_top" xlink:title=" ">
<polygon fill="white" stroke="black" points="417.5,-67.5 417.5,-97.5 527.5,-97.5 527.5,-67.5 417.5,-67.5"/>
<text text-anchor="start" x="425.5" y="-85.5" font-family="Helvetica,sans-Serif" font-size="10.00">packages/types/inc</text>
<text text-anchor="middle" x="472.5" y="-74.5" font-family="Helvetica,sans-Serif" font-size="10.00">/types.hpp</text>
</a>
</g>
</g>
<!-- Node9&#45;&gt;Node10 -->
<g id="edge9" class="edge">
<title>Node9&#45;&gt;Node10</title>
<path fill="none" stroke="midnightblue" d="M235.68,-217.7C221.43,-197 200.42,-158.51 220.5,-134 243.7,-105.69 340.68,-92.92 407.33,-87.41"/>
<polygon fill="midnightblue" stroke="midnightblue" points="407.65,-90.89 417.35,-86.61 407.1,-83.91 407.65,-90.89"/>
</g>
<!-- Node10&#45;&gt;Node8 -->
<g id="edge10" class="edge">
<title>Node10&#45;&gt;Node8</title>
<path fill="none" stroke="midnightblue" d="M454.49,-67.4C440.91,-56.76 422.32,-42.2 408.5,-31.38"/>
<polygon fill="midnightblue" stroke="midnightblue" points="410.63,-28.6 400.6,-25.19 406.32,-34.12 410.63,-28.6"/>
</g>
<!-- Node11 -->
<g id="node11" class="node">
<title>Node11</title>
<g id="a_node11"><a xlink:title=" ">
<polygon fill="white" stroke="#bfbfbf" points="446.5,-6 446.5,-25 490.5,-25 490.5,-6 446.5,-6"/>
<text text-anchor="middle" x="468.5" y="-13" font-family="Helvetica,sans-Serif" font-size="10.00">string</text>
</a>
</g>
</g>
<!-- Node10&#45;&gt;Node11 -->
<g id="edge11" class="edge">
<title>Node10&#45;&gt;Node11</title>
<path fill="none" stroke="midnightblue" d="M471.63,-67.4C471.05,-57.96 470.28,-45.45 469.65,-35.19"/>
<polygon fill="midnightblue" stroke="midnightblue" points="473.14,-34.96 469.04,-25.19 466.16,-35.39 473.14,-34.96"/>
</g>
<!-- Node12 -->
<g id="node12" class="node">
<title>Node12</title>
<g id="a_node12"><a xlink:title=" ">
<polygon fill="white" stroke="#bfbfbf" points="508.5,-0.5 508.5,-30.5 624.5,-30.5 624.5,-0.5 508.5,-0.5"/>
<text text-anchor="start" x="516.5" y="-18.5" font-family="Helvetica,sans-Serif" font-size="10.00">packages/traits/impl</text>
<text text-anchor="middle" x="566.5" y="-7.5" font-family="Helvetica,sans-Serif" font-size="10.00">/types_impl.hpp</text>
</a>
</g>
</g>
<!-- Node10&#45;&gt;Node12 -->
<g id="edge12" class="edge">
<title>Node10&#45;&gt;Node12</title>
<path fill="none" stroke="midnightblue" d="M492.9,-67.4C505.95,-58.37 523.1,-46.51 537.55,-36.52"/>
<polygon fill="midnightblue" stroke="midnightblue" points="539.91,-39.14 546.14,-30.58 535.93,-33.39 539.91,-39.14"/>
</g>
<!-- Node14&#45;&gt;Node6 -->
<g id="edge18" class="edge">
<title>Node14&#45;&gt;Node6</title>
<path fill="none" stroke="midnightblue" d="M526.82,-218C536.29,-215.72 546.16,-213.59 555.5,-212 731.02,-182.06 779.52,-208.94 954.5,-176 959.5,-175.06 964.67,-173.91 969.81,-172.64"/>
<polygon fill="midnightblue" stroke="midnightblue" points="970.84,-175.99 979.63,-170.08 969.07,-169.22 970.84,-175.99"/>
</g>
<!-- Node14&#45;&gt;Node8 -->
<g id="edge17" class="edge">
<title>Node14&#45;&gt;Node8</title>
<path fill="none" stroke="midnightblue" d="M451.65,-217.9C436.87,-208.12 419.16,-193.7 409.5,-176 384.6,-130.39 385.34,-66.74 387.6,-35.43"/>
<polygon fill="midnightblue" stroke="midnightblue" points="391.11,-35.38 388.49,-25.12 384.14,-34.78 391.11,-35.38"/>
</g>
<!-- Node14&#45;&gt;Node13 -->
<g id="edge21" class="edge">
<title>Node14&#45;&gt;Node13</title>
<path fill="none" stroke="midnightblue" d="M442.88,-217.88C413.42,-205.51 370.43,-187.46 338.48,-174.04"/>
<polygon fill="midnightblue" stroke="midnightblue" points="339.52,-170.69 328.94,-170.04 336.81,-177.14 339.52,-170.69"/>
</g>
<!-- Node15 -->
<g id="node15" class="node">
<title>Node15</title>
<g id="a_node15"><a target="_parent" xlink:href="../../../cieutils/docs/html/basic__concepts_8hpp.html.html" xlink:title=" ">
<polygon fill="white" stroke="black" points="813.5,-134.5 813.5,-175.5 945.5,-175.5 945.5,-134.5 813.5,-134.5"/>
<text text-anchor="start" x="821.5" y="-163.5" font-family="Helvetica,sans-Serif" font-size="10.00">packages/compile_time</text>
<text text-anchor="start" x="821.5" y="-152.5" font-family="Helvetica,sans-Serif" font-size="10.00">/packages/concepts/inc</text>
<text text-anchor="middle" x="879.5" y="-141.5" font-family="Helvetica,sans-Serif" font-size="10.00">/basic_concepts.hpp</text>
</a>
</g>
</g>
<!-- Node14&#45;&gt;Node15 -->
<g id="edge19" class="edge">
<title>Node14&#45;&gt;Node15</title>
<path fill="none" stroke="midnightblue" d="M528.59,-217.99C537.53,-215.83 546.76,-213.73 555.5,-212 662.08,-190.87 693.21,-198 803.5,-176.08"/>
<polygon fill="midnightblue" stroke="midnightblue" points="804.24,-179.5 813.35,-174.09 802.85,-172.64 804.24,-179.5"/>
</g>
<!-- Node16 -->
<g id="node16" class="node">
<title>Node16</title>
<g id="a_node16"><a xlink:title=" ">
<polygon fill="white" stroke="#bfbfbf" points="418,-145.5 418,-164.5 465,-164.5 465,-145.5 418,-145.5"/>
<text text-anchor="middle" x="441.5" y="-152.5" font-family="Helvetica,sans-Serif" font-size="10.00">vector</text>
</a>
</g>
</g>
<!-- Node14&#45;&gt;Node16 -->
<g id="edge22" class="edge">
<title>Node14&#45;&gt;Node16</title>
<path fill="none" stroke="midnightblue" d="M469.92,-217.7C464.17,-205.23 455.82,-187.09 449.65,-173.7"/>
<polygon fill="midnightblue" stroke="midnightblue" points="452.81,-172.18 445.44,-164.56 446.45,-175.11 452.81,-172.18"/>
</g>
<!-- Node17 -->
<g id="node17" class="node">
<title>Node17</title>
<g id="a_node17"><a xlink:title=" ">
<polygon fill="white" stroke="#bfbfbf" points="483.5,-145.5 483.5,-164.5 541.5,-164.5 541.5,-145.5 483.5,-145.5"/>
<text text-anchor="middle" x="512.5" y="-152.5" font-family="Helvetica,sans-Serif" font-size="10.00">memory</text>
</a>
</g>
</g>
<!-- Node14&#45;&gt;Node17 -->
<g id="edge23" class="edge">
<title>Node14&#45;&gt;Node17</title>
<path fill="none" stroke="midnightblue" d="M483.27,-217.7C489.18,-205.23 497.77,-187.09 504.12,-173.7"/>
<polygon fill="midnightblue" stroke="midnightblue" points="507.33,-175.1 508.44,-164.56 501,-172.1 507.33,-175.1"/>
</g>
<!-- Node18 -->
<g id="node18" class="node">
<title>Node18</title>
<g id="a_node18"><a xlink:title=" ">
<polygon fill="white" stroke="#bfbfbf" points="559.5,-145.5 559.5,-164.5 619.5,-164.5 619.5,-145.5 559.5,-145.5"/>
<text text-anchor="middle" x="589.5" y="-152.5" font-family="Helvetica,sans-Serif" font-size="10.00">concepts</text>
</a>
</g>
</g>
<!-- Node14&#45;&gt;Node18 -->
<g id="edge24" class="edge">
<title>Node14&#45;&gt;Node18</title>
<path fill="none" stroke="midnightblue" d="M497.49,-217.88C517.64,-204.33 547.91,-183.97 568.17,-170.34"/>
<polygon fill="midnightblue" stroke="midnightblue" points="570.36,-173.09 576.7,-164.61 566.45,-167.28 570.36,-173.09"/>
</g>
<!-- Node19 -->
<g id="node19" class="node">
<title>Node19</title>
<g id="a_node19"><a xlink:title=" ">
<polygon fill="white" stroke="#bfbfbf" points="637.5,-140 637.5,-170 795.5,-170 795.5,-140 637.5,-140"/>
<text text-anchor="start" x="645.5" y="-158" font-family="Helvetica,sans-Serif" font-size="10.00">packages/buffer/impl</text>
<text text-anchor="middle" x="716.5" y="-147" font-family="Helvetica,sans-Serif" font-size="10.00">/AttributeContainer_impl.hpp</text>
</a>
</g>
</g>
<!-- Node14&#45;&gt;Node19 -->
<g id="edge25" class="edge">
<title>Node14&#45;&gt;Node19</title>
<path fill="none" stroke="midnightblue" d="M520.8,-217.97C560.76,-205.32 619.64,-186.67 662.38,-173.14"/>
<polygon fill="midnightblue" stroke="midnightblue" points="663.58,-176.43 672.05,-170.07 661.46,-169.76 663.58,-176.43"/>
</g>
<!-- Node15&#45;&gt;Node10 -->
<g id="edge20" class="edge">
<title>Node15&#45;&gt;Node10</title>
<path fill="none" stroke="midnightblue" d="M813.34,-135.94C810.36,-135.26 807.4,-134.61 804.5,-134 712.62,-114.82 605.01,-99.79 537.78,-91.28"/>
<polygon fill="midnightblue" stroke="midnightblue" points="538.12,-87.79 527.76,-90.02 537.24,-94.74 538.12,-87.79"/>
</g>
</g>
</svg>
        <g id="navigator" transform="translate(0 0)" fill="#404254">
                <rect fill="#f2f5e9" fill-opacity="0.5" stroke="#606060" stroke-width=".5" x="0" y="0" width="60" height="60"/>
                <use id="zoomplus" xlink:href="#zoomPlus" x="17" y="9" onmousedown="handleZoom(evt,'in')"/>
                <use id="zoomminus" xlink:href="#zoomMin" x="42" y="9" onmousedown="handleZoom(evt,'out')"/>
                <use id="reset" xlink:href="#resetDef" x="30" y="36" onmousedown="handleReset()"/>
                <g id="arrowUp" xlink:href="#dirArrow" transform="translate(30 24)" onmousedown="handlePan(0,-1)">
                  <use xlink:href="#rim" fill="#404040">
                        <set attributeName="fill" to="#808080" begin="arrowUp.mouseover" end="arrowUp.mouseout"/>
                  </use>
                  <path fill="none" stroke="white" stroke-width="1.5" d="M0,-3.0v7 M-2.5,-0.5L0,-3.0L2.5,-0.5"/>
                </g>
                <g id="arrowRight" xlink:href="#dirArrow" transform="rotate(90) translate(36 -43)" onmousedown="handlePan(1,0)">
                  <use xlink:href="#rim" fill="#404040">
                        <set attributeName="fill" to="#808080" begin="arrowRight.mouseover" end="arrowRight.mouseout"/>
                  </use>
                  <path fill="none" stroke="white" stroke-width="1.5" d="M0,-3.0v7 M-2.5,-0.5L0,-3.0L2.5,-0.5"/>
                </g>
                <g id="arrowDown" xlink:href="#dirArrow" transform="rotate(180) translate(-30 -48)" onmousedown="handlePan(0,1)">
                  <use xlink:href="#rim" fill="#404040">
                        <set attributeName="fill" to="#808080" begin="arrowDown.mouseover" end="arrowDown.mouseout"/>
                  </use>
                  <path fill="none" stroke="white" stroke-width="1.5" d="M0,-3.0v7 M-2.5,-0.5L0,-3.0L2.5,-0.5"/>
                </g>
                <g id="arrowLeft" xlink:href="#dirArrow" transform="rotate(270) translate(-36 17)" onmousedown="handlePan(-1,0)">
                  <use xlink:href="#rim" fill="#404040">
                        <set attributeName="fill" to="#808080" begin="arrowLeft.mouseover" end="arrowLeft.mouseout"/>
                  </use>
                  <path fill="none" stroke="white" stroke-width="1.5" d="M0,-3.0v7 M-2.5,-0.5L0,-3.0L2.5,-0.5"/>
                </g>
        </g>
        <svg viewBox="0 0 15 15" width="100%" height="30px" preserveAspectRatio="xMaxYMin meet">
         <g id="arrow_out" transform="scale(0.3 0.3)">
          <a xlink:href="BufferManager_8hpp__incl_org.svg" target="_base">
           <rect id="button" ry="5" rx="5" y="6" x="6" height="38" width="38"
                fill="#f2f5e9" fill-opacity="0.5" stroke="#606060" stroke-width="1.0"/>
           <path id="arrow"
             d="M 11.500037,31.436501 C 11.940474,20.09759 22.043105,11.32322 32.158766,21.979434 L 37.068811,17.246167 C 37.068811,17.246167 37.088388,32 37.088388,32 L 22.160133,31.978069 C 22.160133,31.978069 26.997745,27.140456 26.997745,27.140456 C 18.528582,18.264221 13.291696,25.230495 11.500037,31.436501 z"
             style="fill:#404040;"/>
          </a>
         </g>
        </svg>
</svg>
