<?xml version="1.0" encoding="UTF-8" standalone="no"?>
<!DOCTYPE svg PUBLIC "-//W3C//DTD SVG 1.1//EN"
 "http://www.w3.org/Graphics/SVG/1.1/DTD/svg11.dtd">
<!-- Generated by graphviz version 2.43.0 (0)
 -->
<!-- Title: Buffer.hpp Pages: 1 -->
<!--zoomable 532 -->
<svg id="main" version="1.1" xmlns="http://www.w3.org/2000/svg" xmlns:xlink="http://www.w3.org/1999/xlink" xml:space="preserve" onload="init(evt)">
<style type="text/css"><![CDATA[
.edge:hover path { stroke: red; }
.edge:hover polygon { stroke: red; fill: red; }
]]></style>
<script type="text/javascript"><![CDATA[
var edges = document.getElementsByTagName('g');
if (edges && edges.length) {
  for (var i=0;i<edges.length;i++) {
    if (edges[i].id.substr(0,4)=='edge') {
      edges[i].setAttribute('class','edge');
    }
  }
}
]]></script>
        <defs>
                <circle id="rim" cx="0" cy="0" r="7"/>
                <circle id="rim2" cx="0" cy="0" r="3.5"/>
                <g id="zoomPlus">
                        <use xlink:href="#rim" fill="#404040">
                                <set attributeName="fill" to="#808080" begin="zoomplus.mouseover" end="zoomplus.mouseout"/>
                        </use>
                        <path d="M-4,0h8M0,-4v8" fill="none" stroke="white" stroke-width="1.5" pointer-events="none"/>
                </g>
                <g id="zoomMin">
                        <use xlink:href="#rim" fill="#404040">
                                <set attributeName="fill" to="#808080" begin="zoomminus.mouseover" end="zoomminus.mouseout"/>
                        </use>
                        <path d="M-4,0h8" fill="none" stroke="white" stroke-width="1.5" pointer-events="none"/>
                </g>
                <g id="dirArrow">
                        <path fill="none" stroke="white" stroke-width="1.5" d="M0,-3.0v7 M-2.5,-0.5L0,-3.0L2.5,-0.5"/>
                </g>
               <g id="resetDef">
                       <use xlink:href="#rim2" fill="#404040">
                               <set attributeName="fill" to="#808080" begin="reset.mouseover" end="reset.mouseout"/>
                       </use>
               </g>
        </defs>

<script type="text/javascript">
var viewWidth = 1176;
var viewHeight = 532;
var sectionId = 'dynsection-1';
</script>
<script xlink:href="svgpan.js"/>
<svg id="graph" class="graph">
<g id="viewport">
<title>Buffer.hpp</title>
<polygon fill="white" stroke="transparent" points="-4,4 -4,-528 1172,-528 1172,4 -4,4"/>
<!-- Node1 -->
<g id="node1" class="node">
<title>Node1</title>
<g id="a_node1"><a xlink:title=" ">
<polygon fill="#bfbfbf" stroke="black" points="736,-504.5 736,-523.5 802,-523.5 802,-504.5 736,-504.5"/>
<text text-anchor="middle" x="769" y="-511.5" font-family="Helvetica,sans-Serif" font-size="10.00">Buffer.hpp</text>
</a>
</g>
</g>
<!-- Node2 -->
<g id="node2" class="node">
<title>Node2</title>
<g id="a_node2"><a xlink:href="BufferManager_8hpp.html" target="_top" xlink:title=" ">
<polygon fill="white" stroke="black" points="646.5,-448.5 646.5,-467.5 755.5,-467.5 755.5,-448.5 646.5,-448.5"/>
<text text-anchor="middle" x="701" y="-455.5" font-family="Helvetica,sans-Serif" font-size="10.00">BufferManager.hpp</text>
</a>
</g>
</g>
<!-- Node1&#45;&gt;Node2 -->
<g id="edge1" class="edge">
<title>Node1&#45;&gt;Node2</title>
<path fill="none" stroke="midnightblue" d="M750.24,-498.1C738,-488.38 722.44,-476.03 712.12,-467.83"/>
<polygon fill="midnightblue" stroke="midnightblue" points="748.07,-500.85 758.07,-504.32 752.42,-495.36 748.07,-500.85"/>
</g>
<!-- Node24 -->
<g id="node24" class="node">
<title>Node24</title>
<g id="a_node24"><a xlink:href="Part_8hpp.html" target="_top" xlink:title=" ">
<polygon fill="white" stroke="black" points="819,-448.5 819,-467.5 875,-467.5 875,-448.5 819,-448.5"/>
<text text-anchor="middle" x="847" y="-455.5" font-family="Helvetica,sans-Serif" font-size="10.00">Part.hpp</text>
</a>
</g>
</g>
<!-- Node1&#45;&gt;Node24 -->
<g id="edge26" class="edge">
<title>Node1&#45;&gt;Node24</title>
<path fill="none" stroke="midnightblue" d="M789.77,-498.62C804.02,-488.76 822.46,-475.99 834.5,-467.65"/>
<polygon fill="midnightblue" stroke="midnightblue" points="787.76,-495.75 781.53,-504.32 791.75,-501.51 787.76,-495.75"/>
</g>
<!-- Node3 -->
<g id="node3" class="node">
<title>Node3</title>
<g id="a_node3"><a xlink:href="AbsProgram_8hpp.html" target="_top" xlink:title=" ">
<polygon fill="white" stroke="black" points="552.5,-392.5 552.5,-411.5 649.5,-411.5 649.5,-392.5 552.5,-392.5"/>
<text text-anchor="middle" x="601" y="-399.5" font-family="Helvetica,sans-Serif" font-size="10.00">AbsProgram.hpp</text>
</a>
</g>
</g>
<!-- Node2&#45;&gt;Node3 -->
<g id="edge2" class="edge">
<title>Node2&#45;&gt;Node3</title>
<path fill="none" stroke="midnightblue" d="M675.91,-443.45C657.45,-433.48 632.9,-420.23 617.03,-411.65"/>
<polygon fill="midnightblue" stroke="midnightblue" points="674.47,-446.65 684.93,-448.32 677.8,-440.49 674.47,-446.65"/>
</g>
<!-- Node4 -->
<g id="node4" class="node">
<title>Node4</title>
<g id="a_node4"><a xlink:href="Scene_8hpp.html" target="_top" xlink:title=" ">
<polygon fill="white" stroke="black" points="667.5,-392.5 667.5,-411.5 734.5,-411.5 734.5,-392.5 667.5,-392.5"/>
<text text-anchor="middle" x="701" y="-399.5" font-family="Helvetica,sans-Serif" font-size="10.00">Scene.hpp</text>
</a>
</g>
</g>
<!-- Node2&#45;&gt;Node4 -->
<g id="edge3" class="edge">
<title>Node2&#45;&gt;Node4</title>
<path fill="none" stroke="midnightblue" d="M701,-437.8C701,-428.91 701,-418.78 701,-411.75"/>
<polygon fill="midnightblue" stroke="midnightblue" points="697.5,-438.08 701,-448.08 704.5,-438.08 697.5,-438.08"/>
</g>
<!-- Node5 -->
<g id="node5" class="node">
<title>Node5</title>
<g id="a_node5"><a xlink:href="AbsWindow_8hpp.html" target="_top" xlink:title=" ">
<polygon fill="white" stroke="black" points="298,-336.5 298,-355.5 392,-355.5 392,-336.5 298,-336.5"/>
<text text-anchor="middle" x="345" y="-343.5" font-family="Helvetica,sans-Serif" font-size="10.00">AbsWindow.hpp</text>
</a>
</g>
</g>
<!-- Node4&#45;&gt;Node5 -->
<g id="edge4" class="edge">
<title>Node4&#45;&gt;Node5</title>
<path fill="none" stroke="midnightblue" d="M657.24,-391.96C556.98,-374.49 451.48,-360.37 392.08,-352.82"/>
<polygon fill="midnightblue" stroke="midnightblue" points="656.78,-395.44 667.24,-393.72 658,-388.54 656.78,-395.44"/>
</g>
<!-- Node9 -->
<g id="node9" class="node">
<title>Node9</title>
<g id="a_node9"><a xlink:href="AbsPlot2_8hpp.html" target="_top" xlink:title=" ">
<polygon fill="white" stroke="black" points="547,-112.5 547,-131.5 627,-131.5 627,-112.5 547,-112.5"/>
<text text-anchor="middle" x="587" y="-119.5" font-family="Helvetica,sans-Serif" font-size="10.00">AbsPlot2.hpp</text>
</a>
</g>
</g>
<!-- Node4&#45;&gt;Node9 -->
<g id="edge21" class="edge">
<title>Node4&#45;&gt;Node9</title>
<path fill="none" stroke="midnightblue" d="M699.63,-382.26C698.15,-360.38 696,-323.09 696,-291 696,-291 696,-291 696,-233 696,-202.9 696.29,-191.1 677,-168 661.88,-149.9 637.68,-138.37 618.18,-131.52"/>
<polygon fill="midnightblue" stroke="midnightblue" points="696.15,-382.72 700.35,-392.45 703.14,-382.23 696.15,-382.72"/>
</g>
<!-- Node20 -->
<g id="node20" class="node">
<title>Node20</title>
<g id="a_node20"><a xlink:href="PartScene_8hpp.html" target="_top" xlink:title=" ">
<polygon fill="white" stroke="black" points="734,-336.5 734,-355.5 820,-355.5 820,-336.5 734,-336.5"/>
<text text-anchor="middle" x="777" y="-343.5" font-family="Helvetica,sans-Serif" font-size="10.00">PartScene.hpp</text>
</a>
</g>
</g>
<!-- Node4&#45;&gt;Node20 -->
<g id="edge22" class="edge">
<title>Node4&#45;&gt;Node20</title>
<path fill="none" stroke="midnightblue" d="M721.58,-386.38C735.31,-376.62 752.93,-364.11 764.57,-355.83"/>
<polygon fill="midnightblue" stroke="midnightblue" points="719.34,-383.68 713.21,-392.32 723.39,-389.38 719.34,-383.68"/>
</g>
<!-- Node6 -->
<g id="node6" class="node">
<title>Node6</title>
<g id="a_node6"><a xlink:href="AbsContext_8hpp.html" target="_top" xlink:title=" ">
<polygon fill="white" stroke="black" points="74,-280.5 74,-299.5 168,-299.5 168,-280.5 74,-280.5"/>
<text text-anchor="middle" x="121" y="-287.5" font-family="Helvetica,sans-Serif" font-size="10.00">AbsContext.hpp</text>
</a>
</g>
</g>
<!-- Node5&#45;&gt;Node6 -->
<g id="edge5" class="edge">
<title>Node5&#45;&gt;Node6</title>
<path fill="none" stroke="midnightblue" d="M299.74,-334.09C257.42,-323.89 195.09,-308.86 156.33,-299.52"/>
<polygon fill="midnightblue" stroke="midnightblue" points="298.96,-337.5 309.51,-336.44 300.61,-330.7 298.96,-337.5"/>
</g>
<!-- Node8 -->
<g id="node8" class="node">
<title>Node8</title>
<g id="a_node8"><a xlink:href="AbsPlot_8hpp.html" target="_top" xlink:title=" ">
<polygon fill="white" stroke="black" points="122,-224.5 122,-243.5 196,-243.5 196,-224.5 122,-224.5"/>
<text text-anchor="middle" x="159" y="-231.5" font-family="Helvetica,sans-Serif" font-size="10.00">AbsPlot.hpp</text>
</a>
</g>
</g>
<!-- Node5&#45;&gt;Node8 -->
<g id="edge20" class="edge">
<title>Node5&#45;&gt;Node8</title>
<path fill="none" stroke="midnightblue" d="M293.47,-333.88C268.35,-326.84 238.55,-315.99 215,-300 192.33,-284.61 173.32,-257.76 164.42,-243.88"/>
<polygon fill="midnightblue" stroke="midnightblue" points="292.64,-337.28 303.2,-336.48 294.45,-330.52 292.64,-337.28"/>
</g>
<!-- Node12 -->
<g id="node12" class="node">
<title>Node12</title>
<g id="a_node12"><a xlink:href="GLFWWindow_8hpp.html" target="_top" xlink:title=" ">
<polygon fill="white" stroke="black" points="224,-280.5 224,-299.5 328,-299.5 328,-280.5 224,-280.5"/>
<text text-anchor="middle" x="276" y="-287.5" font-family="Helvetica,sans-Serif" font-size="10.00">GLFWWindow.hpp</text>
</a>
</g>
</g>
<!-- Node5&#45;&gt;Node12 -->
<g id="edge11" class="edge">
<title>Node5&#45;&gt;Node12</title>
<path fill="none" stroke="midnightblue" d="M325.96,-330.1C313.54,-320.38 297.76,-308.03 287.29,-299.83"/>
<polygon fill="midnightblue" stroke="midnightblue" points="323.88,-332.92 333.91,-336.32 328.2,-327.4 323.88,-332.92"/>
</g>
<!-- Node13 -->
<g id="node13" class="node">
<title>Node13</title>
<g id="a_node13"><a xlink:href="AbsCameraControls_8hpp.html" target="_top" xlink:title=" ">
<polygon fill="white" stroke="black" points="346,-280.5 346,-299.5 480,-299.5 480,-280.5 346,-280.5"/>
<text text-anchor="middle" x="413" y="-287.5" font-family="Helvetica,sans-Serif" font-size="10.00">AbsCameraControls.hpp</text>
</a>
</g>
</g>
<!-- Node5&#45;&gt;Node13 -->
<g id="edge12" class="edge">
<title>Node5&#45;&gt;Node13</title>
<path fill="none" stroke="midnightblue" d="M363.76,-330.1C376,-320.38 391.56,-308.03 401.88,-299.83"/>
<polygon fill="midnightblue" stroke="midnightblue" points="361.58,-327.36 355.93,-336.32 365.93,-332.85 361.58,-327.36"/>
</g>
<!-- Node19 -->
<g id="node19" class="node">
<title>Node19</title>
<g id="a_node19"><a xlink:href="utilities_8hpp.html" target="_top" xlink:title=" ">
<polygon fill="white" stroke="black" points="498,-280.5 498,-299.5 572,-299.5 572,-280.5 498,-280.5"/>
<text text-anchor="middle" x="535" y="-287.5" font-family="Helvetica,sans-Serif" font-size="10.00">utilities.hpp</text>
</a>
</g>
</g>
<!-- Node5&#45;&gt;Node19 -->
<g id="edge19" class="edge">
<title>Node5&#45;&gt;Node19</title>
<path fill="none" stroke="midnightblue" d="M384.76,-333.7C420.62,-323.51 472.57,-308.74 505.03,-299.52"/>
<polygon fill="midnightblue" stroke="midnightblue" points="383.77,-330.34 375.11,-336.44 385.68,-337.08 383.77,-330.34"/>
</g>
<!-- Node7 -->
<g id="node7" class="node">
<title>Node7</title>
<g id="a_node7"><a xlink:href="GLFWContext_8hpp.html" target="_top" xlink:title=" ">
<polygon fill="white" stroke="black" points="0,-224.5 0,-243.5 104,-243.5 104,-224.5 0,-224.5"/>
<text text-anchor="middle" x="52" y="-231.5" font-family="Helvetica,sans-Serif" font-size="10.00">GLFWContext.hpp</text>
</a>
</g>
</g>
<!-- Node6&#45;&gt;Node7 -->
<g id="edge6" class="edge">
<title>Node6&#45;&gt;Node7</title>
<path fill="none" stroke="midnightblue" d="M101.96,-274.1C89.54,-264.38 73.76,-252.03 63.29,-243.83"/>
<polygon fill="midnightblue" stroke="midnightblue" points="99.88,-276.92 109.91,-280.32 104.2,-271.4 99.88,-276.92"/>
</g>
<!-- Node6&#45;&gt;Node8 -->
<g id="edge7" class="edge">
<title>Node6&#45;&gt;Node8</title>
<path fill="none" stroke="midnightblue" d="M133.06,-271.86C139.64,-262.5 147.51,-251.33 152.84,-243.75"/>
<polygon fill="midnightblue" stroke="midnightblue" points="130.17,-269.89 127.27,-280.08 135.89,-273.92 130.17,-269.89"/>
</g>
<!-- Node8&#45;&gt;Node9 -->
<g id="edge8" class="edge">
<title>Node8&#45;&gt;Node9</title>
<path fill="none" stroke="midnightblue" d="M159.17,-214.09C160.39,-199.22 164.65,-179.2 178,-168 205.91,-144.59 449.06,-129.91 546.68,-124.92"/>
<polygon fill="midnightblue" stroke="midnightblue" points="155.67,-214.09 158.73,-224.23 162.66,-214.39 155.67,-214.09"/>
</g>
<!-- Node10 -->
<g id="node10" class="node">
<title>Node10</title>
<g id="a_node10"><a xlink:href="Plot2_8hpp.html" target="_top" xlink:title=" ">
<polygon fill="white" stroke="black" points="556,-56.5 556,-75.5 618,-75.5 618,-56.5 556,-56.5"/>
<text text-anchor="middle" x="587" y="-63.5" font-family="Helvetica,sans-Serif" font-size="10.00">Plot2.hpp</text>
</a>
</g>
</g>
<!-- Node9&#45;&gt;Node10 -->
<g id="edge9" class="edge">
<title>Node9&#45;&gt;Node10</title>
<path fill="none" stroke="midnightblue" d="M587,-101.8C587,-92.91 587,-82.78 587,-75.75"/>
<polygon fill="midnightblue" stroke="midnightblue" points="583.5,-102.08 587,-112.08 590.5,-102.08 583.5,-102.08"/>
</g>
<!-- Node11 -->
<g id="node11" class="node">
<title>Node11</title>
<g id="a_node11"><a xlink:href="Plot2__MarchingCubes_8hpp.html" target="_top" xlink:title=" ">
<polygon fill="white" stroke="black" points="515.5,-0.5 515.5,-19.5 658.5,-19.5 658.5,-0.5 515.5,-0.5"/>
<text text-anchor="middle" x="587" y="-7.5" font-family="Helvetica,sans-Serif" font-size="10.00">Plot2_MarchingCubes.hpp</text>
</a>
</g>
</g>
<!-- Node10&#45;&gt;Node11 -->
<g id="edge10" class="edge">
<title>Node10&#45;&gt;Node11</title>
<path fill="none" stroke="midnightblue" d="M587,-45.8C587,-36.91 587,-26.78 587,-19.75"/>
<polygon fill="midnightblue" stroke="midnightblue" points="583.5,-46.08 587,-56.08 590.5,-46.08 583.5,-46.08"/>
</g>
<!-- Node14 -->
<g id="node14" class="node">
<title>Node14</title>
<g id="a_node14"><a xlink:href="DebugCameraControls_8hpp.html" target="_top" xlink:title=" ">
<polygon fill="white" stroke="black" points="214,-224.5 214,-243.5 362,-243.5 362,-224.5 214,-224.5"/>
<text text-anchor="middle" x="288" y="-231.5" font-family="Helvetica,sans-Serif" font-size="10.00">DebugCameraControls.hpp</text>
</a>
</g>
</g>
<!-- Node13&#45;&gt;Node14 -->
<g id="edge13" class="edge">
<title>Node13&#45;&gt;Node14</title>
<path fill="none" stroke="midnightblue" d="M383.76,-276.37C360.35,-266.26 328.16,-252.35 307.71,-243.52"/>
<polygon fill="midnightblue" stroke="midnightblue" points="382.63,-279.69 393.19,-280.44 385.4,-273.26 382.63,-279.69"/>
</g>
<!-- Node15 -->
<g id="node15" class="node">
<title>Node15</title>
<g id="a_node15"><a xlink:href="MappedCameraControls_8hpp.html" target="_top" xlink:title=" ">
<polygon fill="white" stroke="black" points="380.5,-224.5 380.5,-243.5 535.5,-243.5 535.5,-224.5 380.5,-224.5"/>
<text text-anchor="middle" x="458" y="-231.5" font-family="Helvetica,sans-Serif" font-size="10.00">MappedCameraControls.hpp</text>
</a>
</g>
</g>
<!-- Node13&#45;&gt;Node15 -->
<g id="edge14" class="edge">
<title>Node13&#45;&gt;Node15</title>
<path fill="none" stroke="midnightblue" d="M427.05,-272.14C434.89,-262.74 444.33,-251.4 450.71,-243.75"/>
<polygon fill="midnightblue" stroke="midnightblue" points="424.14,-270.16 420.43,-280.08 429.52,-274.64 424.14,-270.16"/>
</g>
<!-- Node16 -->
<g id="node16" class="node">
<title>Node16</title>
<g id="a_node16"><a xlink:href="ArcBallCameraControls_8hpp.html" target="_top" xlink:title=" ">
<polygon fill="white" stroke="black" points="187.5,-168.5 187.5,-187.5 338.5,-187.5 338.5,-168.5 187.5,-168.5"/>
<text text-anchor="middle" x="263" y="-175.5" font-family="Helvetica,sans-Serif" font-size="10.00">ArcBallCameraControls.hpp</text>
</a>
</g>
</g>
<!-- Node15&#45;&gt;Node16 -->
<g id="edge15" class="edge">
<title>Node15&#45;&gt;Node16</title>
<path fill="none" stroke="midnightblue" d="M417.19,-221.7C380.39,-211.51 327.07,-196.74 293.75,-187.52"/>
<polygon fill="midnightblue" stroke="midnightblue" points="416.53,-225.15 427.1,-224.44 418.4,-218.4 416.53,-225.15"/>
</g>
<!-- Node17 -->
<g id="node17" class="node">
<title>Node17</title>
<g id="a_node17"><a xlink:href="FlyCameraControls_8hpp.html" target="_top" xlink:title=" ">
<polygon fill="white" stroke="black" points="356.5,-168.5 356.5,-187.5 487.5,-187.5 487.5,-168.5 356.5,-168.5"/>
<text text-anchor="middle" x="422" y="-175.5" font-family="Helvetica,sans-Serif" font-size="10.00">FlyCameraControls.hpp</text>
</a>
</g>
</g>
<!-- Node15&#45;&gt;Node17 -->
<g id="edge16" class="edge">
<title>Node15&#45;&gt;Node17</title>
<path fill="none" stroke="midnightblue" d="M446.38,-215.57C440.18,-206.27 432.83,-195.25 427.83,-187.75"/>
<polygon fill="midnightblue" stroke="midnightblue" points="443.6,-217.7 452.06,-224.08 449.42,-213.82 443.6,-217.7"/>
</g>
<!-- Node18 -->
<g id="node18" class="node">
<title>Node18</title>
<g id="a_node18"><a xlink:href="PanZoomCameraControls_8hpp.html" target="_top" xlink:title=" ">
<polygon fill="white" stroke="black" points="506,-168.5 506,-187.5 668,-187.5 668,-168.5 506,-168.5"/>
<text text-anchor="middle" x="587" y="-175.5" font-family="Helvetica,sans-Serif" font-size="10.00">PanZoomCameraControls.hpp</text>
</a>
</g>
</g>
<!-- Node15&#45;&gt;Node18 -->
<g id="edge17" class="edge">
<title>Node15&#45;&gt;Node18</title>
<path fill="none" stroke="midnightblue" d="M487.85,-220.5C512.04,-210.38 545.46,-196.39 566.66,-187.52"/>
<polygon fill="midnightblue" stroke="midnightblue" points="486.31,-217.35 478.44,-224.44 489.02,-223.81 486.31,-217.35"/>
</g>
<!-- Node18&#45;&gt;Node9 -->
<g id="edge18" class="edge">
<title>Node18&#45;&gt;Node9</title>
<path fill="none" stroke="midnightblue" d="M587,-157.8C587,-148.91 587,-138.78 587,-131.75"/>
<polygon fill="midnightblue" stroke="midnightblue" points="583.5,-158.08 587,-168.08 590.5,-158.08 583.5,-158.08"/>
</g>
<!-- Node21 -->
<g id="node21" class="node">
<title>Node21</title>
<g id="a_node21"><a xlink:href="GenericPartScene_8hpp.html" target="_top" xlink:title=" ">
<polygon fill="white" stroke="black" points="724.5,-280.5 724.5,-299.5 847.5,-299.5 847.5,-280.5 724.5,-280.5"/>
<text text-anchor="middle" x="786" y="-287.5" font-family="Helvetica,sans-Serif" font-size="10.00">GenericPartScene.hpp</text>
</a>
</g>
</g>
<!-- Node20&#45;&gt;Node21 -->
<g id="edge23" class="edge">
<title>Node20&#45;&gt;Node21</title>
<path fill="none" stroke="midnightblue" d="M780.15,-326.1C781.64,-317.14 783.36,-306.86 784.54,-299.75"/>
<polygon fill="midnightblue" stroke="midnightblue" points="776.68,-325.64 778.49,-336.08 783.58,-326.79 776.68,-325.64"/>
</g>
<!-- Node23 -->
<g id="node23" class="node">
<title>Node23</title>
<g id="a_node23"><a xlink:href="Triangulated3DPartScene_8hpp.html" target="_top" xlink:title=" ">
<polygon fill="white" stroke="black" points="865.5,-280.5 865.5,-299.5 1024.5,-299.5 1024.5,-280.5 865.5,-280.5"/>
<text text-anchor="middle" x="945" y="-287.5" font-family="Helvetica,sans-Serif" font-size="10.00">Triangulated3DPartScene.hpp</text>
</a>
</g>
</g>
<!-- Node20&#45;&gt;Node23 -->
<g id="edge25" class="edge">
<title>Node20&#45;&gt;Node23</title>
<path fill="none" stroke="midnightblue" d="M813.39,-333.3C845.04,-323.13 890.17,-308.62 918.5,-299.52"/>
<polygon fill="midnightblue" stroke="midnightblue" points="812.07,-330.05 803.62,-336.44 814.21,-336.72 812.07,-330.05"/>
</g>
<!-- Node22 -->
<g id="node22" class="node">
<title>Node22</title>
<g id="a_node22"><a xlink:href="Axes3DScene_8hpp.html" target="_top" xlink:title=" ">
<polygon fill="white" stroke="black" points="734,-224.5 734,-243.5 838,-243.5 838,-224.5 734,-224.5"/>
<text text-anchor="middle" x="786" y="-231.5" font-family="Helvetica,sans-Serif" font-size="10.00">Axes3DScene.hpp</text>
</a>
</g>
</g>
<!-- Node21&#45;&gt;Node22 -->
<g id="edge24" class="edge">
<title>Node21&#45;&gt;Node22</title>
<path fill="none" stroke="midnightblue" d="M786,-269.8C786,-260.91 786,-250.78 786,-243.75"/>
<polygon fill="midnightblue" stroke="midnightblue" points="782.5,-270.08 786,-280.08 789.5,-270.08 782.5,-270.08"/>
</g>
<!-- Node24&#45;&gt;Node20 -->
<g id="edge32" class="edge">
<title>Node24&#45;&gt;Node20</title>
<path fill="none" stroke="midnightblue" d="M822.57,-442.86C811.31,-435.13 798.75,-424.56 791,-412 779.96,-394.12 777.54,-368.81 777.07,-355.67"/>
<polygon fill="midnightblue" stroke="midnightblue" points="820.9,-445.95 831.2,-448.43 824.7,-440.07 820.9,-445.95"/>
</g>
<!-- Node25 -->
<g id="node25" class="node">
<title>Node25</title>
<g id="a_node25"><a xlink:href="GenericPart_8hpp.html" target="_top" xlink:title=" ">
<polygon fill="white" stroke="black" points="800,-392.5 800,-411.5 894,-411.5 894,-392.5 800,-392.5"/>
<text text-anchor="middle" x="847" y="-399.5" font-family="Helvetica,sans-Serif" font-size="10.00">GenericPart.hpp</text>
</a>
</g>
</g>
<!-- Node24&#45;&gt;Node25 -->
<g id="edge27" class="edge">
<title>Node24&#45;&gt;Node25</title>
<path fill="none" stroke="midnightblue" d="M847,-437.8C847,-428.91 847,-418.78 847,-411.75"/>
<polygon fill="midnightblue" stroke="midnightblue" points="843.5,-438.08 847,-448.08 850.5,-438.08 843.5,-438.08"/>
</g>
<!-- Node26 -->
<g id="node26" class="node">
<title>Node26</title>
<g id="a_node26"><a xlink:href="Line2DPart_8hpp.html" target="_top" xlink:title=" ">
<polygon fill="white" stroke="black" points="912,-392.5 912,-411.5 1002,-411.5 1002,-392.5 912,-392.5"/>
<text text-anchor="middle" x="957" y="-399.5" font-family="Helvetica,sans-Serif" font-size="10.00">Line2DPart.hpp</text>
</a>
</g>
</g>
<!-- Node24&#45;&gt;Node26 -->
<g id="edge28" class="edge">
<title>Node24&#45;&gt;Node26</title>
<path fill="none" stroke="midnightblue" d="M873.76,-443.86C894.16,-433.85 921.67,-420.35 939.37,-411.65"/>
<polygon fill="midnightblue" stroke="midnightblue" points="872.11,-440.78 864.67,-448.32 875.19,-447.06 872.11,-440.78"/>
</g>
<!-- Node27 -->
<g id="node27" class="node">
<title>Node27</title>
<g id="a_node27"><a xlink:href="Triangulated3DPart_8hpp.html" target="_top" xlink:title=" ">
<polygon fill="white" stroke="black" points="1020,-392.5 1020,-411.5 1150,-411.5 1150,-392.5 1020,-392.5"/>
<text text-anchor="middle" x="1085" y="-399.5" font-family="Helvetica,sans-Serif" font-size="10.00">Triangulated3DPart.hpp</text>
</a>
</g>
</g>
<!-- Node24&#45;&gt;Node27 -->
<g id="edge29" class="edge">
<title>Node24&#45;&gt;Node27</title>
<path fill="none" stroke="midnightblue" d="M885.1,-448.35C929.69,-438.24 1003.05,-421.59 1047.41,-411.53"/>
<polygon fill="midnightblue" stroke="midnightblue" points="884.21,-444.97 875.24,-450.59 885.76,-451.79 884.21,-444.97"/>
</g>
<!-- Node28 -->
<g id="node28" class="node">
<title>Node28</title>
<g id="a_node28"><a xlink:href="ObjPart_8hpp.html" target="_top" xlink:title=" ">
<polygon fill="white" stroke="black" points="1002.5,-336.5 1002.5,-355.5 1075.5,-355.5 1075.5,-336.5 1002.5,-336.5"/>
<text text-anchor="middle" x="1039" y="-343.5" font-family="Helvetica,sans-Serif" font-size="10.00">ObjPart.hpp</text>
</a>
</g>
</g>
<!-- Node27&#45;&gt;Node28 -->
<g id="edge30" class="edge">
<title>Node27&#45;&gt;Node28</title>
<path fill="none" stroke="midnightblue" d="M1070.89,-384.43C1062.82,-374.97 1053.04,-363.48 1046.45,-355.75"/>
<polygon fill="midnightblue" stroke="midnightblue" points="1068.25,-386.74 1077.4,-392.08 1073.58,-382.2 1068.25,-386.74"/>
</g>
<!-- Node29 -->
<g id="node29" class="node">
<title>Node29</title>
<g id="a_node29"><a xlink:href="STLPart_8hpp.html" target="_top" xlink:title=" ">
<polygon fill="white" stroke="black" points="1094,-336.5 1094,-355.5 1168,-355.5 1168,-336.5 1094,-336.5"/>
<text text-anchor="middle" x="1131" y="-343.5" font-family="Helvetica,sans-Serif" font-size="10.00">STLPart.hpp</text>
</a>
</g>
</g>
<!-- Node27&#45;&gt;Node29 -->
<g id="edge31" class="edge">
<title>Node27&#45;&gt;Node29</title>
<path fill="none" stroke="midnightblue" d="M1099.11,-384.43C1107.18,-374.97 1116.96,-363.48 1123.55,-355.75"/>
<polygon fill="midnightblue" stroke="midnightblue" points="1096.42,-382.2 1092.6,-392.08 1101.75,-386.74 1096.42,-382.2"/>
</g>
</g>
</svg>
        <g id="navigator" transform="translate(0 0)" fill="#404254">
                <rect fill="#f2f5e9" fill-opacity="0.5" stroke="#606060" stroke-width=".5" x="0" y="0" width="60" height="60"/>
                <use id="zoomplus" xlink:href="#zoomPlus" x="17" y="9" onmousedown="handleZoom(evt,'in')"/>
                <use id="zoomminus" xlink:href="#zoomMin" x="42" y="9" onmousedown="handleZoom(evt,'out')"/>
                <use id="reset" xlink:href="#resetDef" x="30" y="36" onmousedown="handleReset()"/>
                <g id="arrowUp" xlink:href="#dirArrow" transform="translate(30 24)" onmousedown="handlePan(0,-1)">
                  <use xlink:href="#rim" fill="#404040">
                        <set attributeName="fill" to="#808080" begin="arrowUp.mouseover" end="arrowUp.mouseout"/>
                  </use>
                  <path fill="none" stroke="white" stroke-width="1.5" d="M0,-3.0v7 M-2.5,-0.5L0,-3.0L2.5,-0.5"/>
                </g>
                <g id="arrowRight" xlink:href="#dirArrow" transform="rotate(90) translate(36 -43)" onmousedown="handlePan(1,0)">
                  <use xlink:href="#rim" fill="#404040">
                        <set attributeName="fill" to="#808080" begin="arrowRight.mouseover" end="arrowRight.mouseout"/>
                  </use>
                  <path fill="none" stroke="white" stroke-width="1.5" d="M0,-3.0v7 M-2.5,-0.5L0,-3.0L2.5,-0.5"/>
                </g>
                <g id="arrowDown" xlink:href="#dirArrow" transform="rotate(180) translate(-30 -48)" onmousedown="handlePan(0,1)">
                  <use xlink:href="#rim" fill="#404040">
                        <set attributeName="fill" to="#808080" begin="arrowDown.mouseover" end="arrowDown.mouseout"/>
                  </use>
                  <path fill="none" stroke="white" stroke-width="1.5" d="M0,-3.0v7 M-2.5,-0.5L0,-3.0L2.5,-0.5"/>
                </g>
                <g id="arrowLeft" xlink:href="#dirArrow" transform="rotate(270) translate(-36 17)" onmousedown="handlePan(-1,0)">
                  <use xlink:href="#rim" fill="#404040">
                        <set attributeName="fill" to="#808080" begin="arrowLeft.mouseover" end="arrowLeft.mouseout"/>
                  </use>
                  <path fill="none" stroke="white" stroke-width="1.5" d="M0,-3.0v7 M-2.5,-0.5L0,-3.0L2.5,-0.5"/>
                </g>
        </g>
        <svg viewBox="0 0 15 15" width="100%" height="30px" preserveAspectRatio="xMaxYMin meet">
         <g id="arrow_out" transform="scale(0.3 0.3)">
          <a xlink:href="Buffer_8hpp__dep__incl_org.svg" target="_base">
           <rect id="button" ry="5" rx="5" y="6" x="6" height="38" width="38"
                fill="#f2f5e9" fill-opacity="0.5" stroke="#606060" stroke-width="1.0"/>
           <path id="arrow"
             d="M 11.500037,31.436501 C 11.940474,20.09759 22.043105,11.32322 32.158766,21.979434 L 37.068811,17.246167 C 37.068811,17.246167 37.088388,32 37.088388,32 L 22.160133,31.978069 C 22.160133,31.978069 26.997745,27.140456 26.997745,27.140456 C 18.528582,18.264221 13.291696,25.230495 11.500037,31.436501 z"
             style="fill:#404040;"/>
          </a>
         </g>
        </svg>
</svg>
