<?xml version="1.0" encoding="UTF-8" standalone="no"?>
<!DOCTYPE svg PUBLIC "-//W3C//DTD SVG 1.1//EN"
 "http://www.w3.org/Graphics/SVG/1.1/DTD/svg11.dtd">
<!-- Generated by graphviz version 2.43.0 (0)
 -->
<!-- Title: camera_utilities.hpp Pages: 1 -->
<svg width="661pt" height="218pt"
 viewBox="0.00 0.00 660.63 218.00" xmlns="http://www.w3.org/2000/svg" xmlns:xlink="http://www.w3.org/1999/xlink">
<g id="graph0" class="graph" transform="scale(1 1) rotate(0) translate(4 214)">
<title>camera_utilities.hpp</title>
<polygon fill="white" stroke="transparent" points="-4,4 -4,-214 656.63,-214 656.63,4 -4,4"/>
<!-- Node1 -->
<g id="node1" class="node">
<title>Node1</title>
<g id="a_node1"><a xlink:title=" ">
<polygon fill="#bfbfbf" stroke="black" points="296.13,-190.5 296.13,-209.5 412.13,-209.5 412.13,-190.5 296.13,-190.5"/>
<text text-anchor="middle" x="354.13" y="-197.5" font-family="Helvetica,sans-Serif" font-size="10.00">camera_utilities.hpp</text>
</a>
</g>
</g>
<!-- Node2 -->
<g id="node2" class="node">
<title>Node2</title>
<g id="a_node2"><a target="_parent" xlink:href="../../../geo/docs/html/Box_8hpp.html.html" xlink:title=" ">
<polygon fill="white" stroke="black" points="161.63,-123.5 161.63,-153.5 276.63,-153.5 276.63,-123.5 161.63,-123.5"/>
<text text-anchor="start" x="169.63" y="-141.5" font-family="Helvetica,sans-Serif" font-size="10.00">packages/primitives</text>
<text text-anchor="middle" x="219.13" y="-130.5" font-family="Helvetica,sans-Serif" font-size="10.00">/inc/Box.hpp</text>
</a>
</g>
</g>
<!-- Node1&#45;&gt;Node2 -->
<g id="edge1" class="edge">
<title>Node1&#45;&gt;Node2</title>
<path fill="none" stroke="midnightblue" d="M334.79,-190.48C315.4,-181.93 284.93,-168.5 260.14,-157.57"/>
<polygon fill="midnightblue" stroke="midnightblue" points="261.51,-154.35 250.95,-153.52 258.69,-160.76 261.51,-154.35"/>
</g>
<!-- Node3 -->
<g id="node3" class="node">
<title>Node3</title>
<g id="a_node3"><a xlink:href="AbsCamera_8hpp.html" target="_top" xlink:title=" ">
<polygon fill="white" stroke="black" points="294.63,-123.5 294.63,-153.5 413.63,-153.5 413.63,-123.5 294.63,-123.5"/>
<text text-anchor="start" x="302.63" y="-141.5" font-family="Helvetica,sans-Serif" font-size="10.00">packages/camera/inc</text>
<text text-anchor="middle" x="354.13" y="-130.5" font-family="Helvetica,sans-Serif" font-size="10.00">/AbsCamera.hpp</text>
</a>
</g>
</g>
<!-- Node1&#45;&gt;Node3 -->
<g id="edge2" class="edge">
<title>Node1&#45;&gt;Node3</title>
<path fill="none" stroke="midnightblue" d="M354.13,-190.48C354.13,-183.47 354.13,-173.19 354.13,-163.7"/>
<polygon fill="midnightblue" stroke="midnightblue" points="357.63,-163.52 354.13,-153.52 350.63,-163.52 357.63,-163.52"/>
</g>
<!-- Node11 -->
<g id="node11" class="node">
<title>Node11</title>
<g id="a_node11"><a xlink:title=" ">
<polygon fill="white" stroke="#bfbfbf" points="432.13,-123.5 432.13,-153.5 578.13,-153.5 578.13,-123.5 432.13,-123.5"/>
<text text-anchor="start" x="440.13" y="-141.5" font-family="Helvetica,sans-Serif" font-size="10.00">packages/camera/impl</text>
<text text-anchor="middle" x="505.13" y="-130.5" font-family="Helvetica,sans-Serif" font-size="10.00">/camera_utilities_impl.hpp</text>
</a>
</g>
</g>
<!-- Node1&#45;&gt;Node11 -->
<g id="edge12" class="edge">
<title>Node1&#45;&gt;Node11</title>
<path fill="none" stroke="midnightblue" d="M375.77,-190.48C397.65,-181.85 432.13,-168.26 460,-157.29"/>
<polygon fill="midnightblue" stroke="midnightblue" points="461.52,-160.45 469.54,-153.52 458.96,-153.93 461.52,-160.45"/>
</g>
<!-- Node4 -->
<g id="node4" class="node">
<title>Node4</title>
<g id="a_node4"><a xlink:title=" ">
<polygon fill="white" stroke="#bfbfbf" points="204.13,-0.5 204.13,-19.5 282.13,-19.5 282.13,-0.5 204.13,-0.5"/>
<text text-anchor="middle" x="243.13" y="-7.5" font-family="Helvetica,sans-Serif" font-size="10.00">glm/glm.hpp</text>
</a>
</g>
</g>
<!-- Node3&#45;&gt;Node4 -->
<g id="edge3" class="edge">
<title>Node3&#45;&gt;Node4</title>
<path fill="none" stroke="midnightblue" d="M294.35,-124.64C291.23,-124.07 288.15,-123.51 285.13,-123 224.59,-112.68 51.63,-133.17 11.13,-87 -41.87,-26.58 110.96,-13.97 193.76,-11.49"/>
<polygon fill="midnightblue" stroke="midnightblue" points="194.07,-14.99 203.98,-11.23 193.89,-7.99 194.07,-14.99"/>
</g>
<!-- Node5 -->
<g id="node5" class="node">
<title>Node5</title>
<g id="a_node5"><a target="_parent" xlink:href="../../../cieutils/docs/html/Loggee_8hpp.html.html" xlink:title=" ">
<polygon fill="white" stroke="black" points="20.63,-56.5 20.63,-86.5 139.63,-86.5 139.63,-56.5 20.63,-56.5"/>
<text text-anchor="start" x="28.63" y="-74.5" font-family="Helvetica,sans-Serif" font-size="10.00">packages/logging/inc</text>
<text text-anchor="middle" x="80.13" y="-63.5" font-family="Helvetica,sans-Serif" font-size="10.00">/Loggee.hpp</text>
</a>
</g>
</g>
<!-- Node3&#45;&gt;Node5 -->
<g id="edge4" class="edge">
<title>Node3&#45;&gt;Node5</title>
<path fill="none" stroke="midnightblue" d="M295.02,-123.48C252.31,-113.34 194.48,-99.63 149.57,-88.97"/>
<polygon fill="midnightblue" stroke="midnightblue" points="150.15,-85.51 139.62,-86.61 148.54,-92.32 150.15,-85.51"/>
</g>
<!-- Node6 -->
<g id="node6" class="node">
<title>Node6</title>
<g id="a_node6"><a target="_parent" xlink:href="../../../cieutils/docs/html/LoggerSingleton_8hpp.html.html" xlink:title=" ">
<polygon fill="white" stroke="black" points="157.63,-56.5 157.63,-86.5 276.63,-86.5 276.63,-56.5 157.63,-56.5"/>
<text text-anchor="start" x="165.63" y="-74.5" font-family="Helvetica,sans-Serif" font-size="10.00">packages/logging/inc</text>
<text text-anchor="middle" x="217.13" y="-63.5" font-family="Helvetica,sans-Serif" font-size="10.00">/LoggerSingleton.hpp</text>
</a>
</g>
</g>
<!-- Node3&#45;&gt;Node6 -->
<g id="edge5" class="edge">
<title>Node3&#45;&gt;Node6</title>
<path fill="none" stroke="midnightblue" d="M324.41,-123.4C304.39,-113.9 277.78,-101.28 256.08,-90.98"/>
<polygon fill="midnightblue" stroke="midnightblue" points="257.34,-87.7 246.8,-86.58 254.34,-94.03 257.34,-87.7"/>
</g>
<!-- Node7 -->
<g id="node7" class="node">
<title>Node7</title>
<g id="a_node7"><a target="_parent" xlink:href="../../../cieutils/docs/html/typedefs_8hpp.html.html" xlink:title=" ">
<polygon fill="white" stroke="black" points="294.63,-56.5 294.63,-86.5 413.63,-86.5 413.63,-56.5 294.63,-56.5"/>
<text text-anchor="start" x="302.63" y="-74.5" font-family="Helvetica,sans-Serif" font-size="10.00">packages/macros/inc</text>
<text text-anchor="middle" x="354.13" y="-63.5" font-family="Helvetica,sans-Serif" font-size="10.00">/typedefs.hpp</text>
</a>
</g>
</g>
<!-- Node3&#45;&gt;Node7 -->
<g id="edge6" class="edge">
<title>Node3&#45;&gt;Node7</title>
<path fill="none" stroke="midnightblue" d="M354.13,-123.4C354.13,-115.64 354.13,-105.81 354.13,-96.86"/>
<polygon fill="midnightblue" stroke="midnightblue" points="357.63,-96.58 354.13,-86.58 350.63,-96.58 357.63,-96.58"/>
</g>
<!-- Node8 -->
<g id="node8" class="node">
<title>Node8</title>
<g id="a_node8"><a xlink:href="RigidBody_8hpp.html" target="_top" xlink:title=" ">
<polygon fill="white" stroke="black" points="431.63,-56.5 431.63,-86.5 550.63,-86.5 550.63,-56.5 431.63,-56.5"/>
<text text-anchor="start" x="439.63" y="-74.5" font-family="Helvetica,sans-Serif" font-size="10.00">packages/camera/inc</text>
<text text-anchor="middle" x="491.13" y="-63.5" font-family="Helvetica,sans-Serif" font-size="10.00">/RigidBody.hpp</text>
</a>
</g>
</g>
<!-- Node3&#45;&gt;Node8 -->
<g id="edge7" class="edge">
<title>Node3&#45;&gt;Node8</title>
<path fill="none" stroke="midnightblue" d="M383.86,-123.4C403.88,-113.9 430.48,-101.28 452.19,-90.98"/>
<polygon fill="midnightblue" stroke="midnightblue" points="453.93,-94.03 461.46,-86.58 450.93,-87.7 453.93,-94.03"/>
</g>
<!-- Node9 -->
<g id="node9" class="node">
<title>Node9</title>
<g id="a_node9"><a xlink:title=" ">
<polygon fill="white" stroke="#bfbfbf" points="506.13,-0.5 506.13,-19.5 564.13,-19.5 564.13,-0.5 506.13,-0.5"/>
<text text-anchor="middle" x="535.13" y="-7.5" font-family="Helvetica,sans-Serif" font-size="10.00">memory</text>
</a>
</g>
</g>
<!-- Node3&#45;&gt;Node9 -->
<g id="edge11" class="edge">
<title>Node3&#45;&gt;Node9</title>
<path fill="none" stroke="midnightblue" d="M413.83,-124.74C473,-111.82 555.49,-92.91 560.13,-87 573.73,-69.66 560.88,-44.63 549.13,-28.1"/>
<polygon fill="midnightblue" stroke="midnightblue" points="551.73,-25.74 542.9,-19.89 546.16,-29.97 551.73,-25.74"/>
</g>
<!-- Node10 -->
<g id="node10" class="node">
<title>Node10</title>
<g id="a_node10"><a xlink:title=" ">
<polygon fill="white" stroke="#bfbfbf" points="607.63,-62 607.63,-81 652.63,-81 652.63,-62 607.63,-62"/>
<text text-anchor="middle" x="630.13" y="-69" font-family="Helvetica,sans-Serif" font-size="10.00">utility</text>
</a>
</g>
</g>
<!-- Node3&#45;&gt;Node10 -->
<g id="edge10" class="edge">
<title>Node3&#45;&gt;Node10</title>
<path fill="none" stroke="midnightblue" d="M413.74,-124.97C483.81,-110.23 590.95,-87.65 593.13,-87 595.56,-86.27 598.06,-85.46 600.55,-84.59"/>
<polygon fill="midnightblue" stroke="midnightblue" points="601.83,-87.85 609.99,-81.09 599.39,-81.28 601.83,-87.85"/>
</g>
<!-- Node8&#45;&gt;Node4 -->
<g id="edge8" class="edge">
<title>Node8&#45;&gt;Node4</title>
<path fill="none" stroke="midnightblue" d="M432.67,-56.47C388.58,-45.9 328.97,-31.59 288.46,-21.87"/>
<polygon fill="midnightblue" stroke="midnightblue" points="289.13,-18.44 278.59,-19.51 287.5,-25.24 289.13,-18.44"/>
</g>
<!-- Node8&#45;&gt;Node9 -->
<g id="edge9" class="edge">
<title>Node8&#45;&gt;Node9</title>
<path fill="none" stroke="midnightblue" d="M501.56,-56.4C507.89,-47.84 516,-36.87 522.67,-27.86"/>
<polygon fill="midnightblue" stroke="midnightblue" points="525.6,-29.78 528.73,-19.66 519.97,-25.62 525.6,-29.78"/>
</g>
</g>
</svg>
