<?xml version="1.0" encoding="UTF-8" standalone="no"?>
<!DOCTYPE svg PUBLIC "-//W3C//DTD SVG 1.1//EN"
 "http://www.w3.org/Graphics/SVG/1.1/DTD/svg11.dtd">
<!-- Generated by graphviz version 2.43.0 (0)
 -->
<!-- Title: Camera.hpp Pages: 1 -->
<svg width="932pt" height="218pt"
 viewBox="0.00 0.00 932.00 218.00" xmlns="http://www.w3.org/2000/svg" xmlns:xlink="http://www.w3.org/1999/xlink">
<g id="graph0" class="graph" transform="scale(1 1) rotate(0) translate(4 214)">
<title>Camera.hpp</title>
<polygon fill="white" stroke="transparent" points="-4,4 -4,-214 928,-214 928,4 -4,4"/>
<!-- Node1 -->
<g id="node1" class="node">
<title>Node1</title>
<g id="a_node1"><a xlink:title=" ">
<polygon fill="#bfbfbf" stroke="black" points="637.5,-190.5 637.5,-209.5 713.5,-209.5 713.5,-190.5 637.5,-190.5"/>
<text text-anchor="middle" x="675.5" y="-197.5" font-family="Helvetica,sans-Serif" font-size="10.00">Camera.hpp</text>
</a>
</g>
</g>
<!-- Node2 -->
<g id="node2" class="node">
<title>Node2</title>
<g id="a_node2"><a xlink:href="AbsCamera_8hpp.html" target="_top" xlink:title=" ">
<polygon fill="white" stroke="black" points="308,-123.5 308,-153.5 427,-153.5 427,-123.5 308,-123.5"/>
<text text-anchor="start" x="316" y="-141.5" font-family="Helvetica,sans-Serif" font-size="10.00">packages/camera/inc</text>
<text text-anchor="middle" x="367.5" y="-130.5" font-family="Helvetica,sans-Serif" font-size="10.00">/AbsCamera.hpp</text>
</a>
</g>
</g>
<!-- Node1&#45;&gt;Node2 -->
<g id="edge1" class="edge">
<title>Node1&#45;&gt;Node2</title>
<path fill="none" stroke="midnightblue" d="M637.42,-191.64C587.57,-182.01 499.24,-164.95 437.24,-152.97"/>
<polygon fill="midnightblue" stroke="midnightblue" points="437.62,-149.48 427.14,-151.02 436.3,-156.35 437.62,-149.48"/>
</g>
<!-- Node9 -->
<g id="node9" class="node">
<title>Node9</title>
<g id="a_node9"><a xlink:title=" ">
<polygon fill="white" stroke="#bfbfbf" points="626,-62 626,-81 671,-81 671,-62 626,-62"/>
<text text-anchor="middle" x="648.5" y="-69" font-family="Helvetica,sans-Serif" font-size="10.00">utility</text>
</a>
</g>
</g>
<!-- Node1&#45;&gt;Node9 -->
<g id="edge15" class="edge">
<title>Node1&#45;&gt;Node9</title>
<path fill="none" stroke="midnightblue" d="M668.94,-190.26C662.86,-181.57 654.21,-167.62 650.5,-154 644.82,-133.14 645.21,-108.16 646.44,-91.4"/>
<polygon fill="midnightblue" stroke="midnightblue" points="649.94,-91.54 647.37,-81.26 642.97,-90.9 649.94,-91.54"/>
</g>
<!-- Node10 -->
<g id="node10" class="node">
<title>Node10</title>
<g id="a_node10"><a xlink:href="ProjectionPolicy_8hpp.html" target="_top" xlink:title=" ">
<polygon fill="white" stroke="black" points="660,-123.5 660,-153.5 779,-153.5 779,-123.5 660,-123.5"/>
<text text-anchor="start" x="668" y="-141.5" font-family="Helvetica,sans-Serif" font-size="10.00">packages/camera/inc</text>
<text text-anchor="middle" x="719.5" y="-130.5" font-family="Helvetica,sans-Serif" font-size="10.00">/ProjectionPolicy.hpp</text>
</a>
</g>
</g>
<!-- Node1&#45;&gt;Node10 -->
<g id="edge11" class="edge">
<title>Node1&#45;&gt;Node10</title>
<path fill="none" stroke="midnightblue" d="M681.8,-190.48C687.37,-182.94 695.74,-171.63 703.18,-161.57"/>
<polygon fill="midnightblue" stroke="midnightblue" points="706,-163.64 709.13,-153.52 700.37,-159.48 706,-163.64"/>
</g>
<!-- Node12 -->
<g id="node12" class="node">
<title>Node12</title>
<g id="a_node12"><a xlink:title=" ">
<polygon fill="white" stroke="#bfbfbf" points="797,-123.5 797,-153.5 924,-153.5 924,-123.5 797,-123.5"/>
<text text-anchor="start" x="805" y="-141.5" font-family="Helvetica,sans-Serif" font-size="10.00">packages/camera/impl</text>
<text text-anchor="middle" x="860.5" y="-130.5" font-family="Helvetica,sans-Serif" font-size="10.00">/Camera_impl.hpp</text>
</a>
</g>
</g>
<!-- Node1&#45;&gt;Node12 -->
<g id="edge16" class="edge">
<title>Node1&#45;&gt;Node12</title>
<path fill="none" stroke="midnightblue" d="M702.01,-190.48C729.29,-181.7 772.55,-167.79 806.98,-156.71"/>
<polygon fill="midnightblue" stroke="midnightblue" points="808.45,-159.92 816.9,-153.52 806.31,-153.25 808.45,-159.92"/>
</g>
<!-- Node3 -->
<g id="node3" class="node">
<title>Node3</title>
<g id="a_node3"><a xlink:title=" ">
<polygon fill="white" stroke="#bfbfbf" points="284.5,-0.5 284.5,-19.5 362.5,-19.5 362.5,-0.5 284.5,-0.5"/>
<text text-anchor="middle" x="323.5" y="-7.5" font-family="Helvetica,sans-Serif" font-size="10.00">glm/glm.hpp</text>
</a>
</g>
</g>
<!-- Node2&#45;&gt;Node3 -->
<g id="edge2" class="edge">
<title>Node2&#45;&gt;Node3</title>
<path fill="none" stroke="midnightblue" d="M359.43,-123.28C354.06,-113.36 347.16,-99.67 342.5,-87 335.48,-67.89 330.17,-45.15 326.97,-29.55"/>
<polygon fill="midnightblue" stroke="midnightblue" points="330.38,-28.75 325.03,-19.61 323.52,-30.1 330.38,-28.75"/>
</g>
<!-- Node4 -->
<g id="node4" class="node">
<title>Node4</title>
<g id="a_node4"><a target="_parent" xlink:href="../../../cieutils/docs/html/Loggee_8hpp.html.html" xlink:title=" ">
<polygon fill="white" stroke="black" points="352,-56.5 352,-86.5 471,-86.5 471,-56.5 352,-56.5"/>
<text text-anchor="start" x="360" y="-74.5" font-family="Helvetica,sans-Serif" font-size="10.00">packages/logging/inc</text>
<text text-anchor="middle" x="411.5" y="-63.5" font-family="Helvetica,sans-Serif" font-size="10.00">/Loggee.hpp</text>
</a>
</g>
</g>
<!-- Node2&#45;&gt;Node4 -->
<g id="edge3" class="edge">
<title>Node2&#45;&gt;Node4</title>
<path fill="none" stroke="midnightblue" d="M377.05,-123.4C382.64,-115.13 389.83,-104.51 396.2,-95.1"/>
<polygon fill="midnightblue" stroke="midnightblue" points="399.26,-96.82 401.97,-86.58 393.47,-92.9 399.26,-96.82"/>
</g>
<!-- Node5 -->
<g id="node5" class="node">
<title>Node5</title>
<g id="a_node5"><a target="_parent" xlink:href="../../../cieutils/docs/html/LoggerSingleton_8hpp.html.html" xlink:title=" ">
<polygon fill="white" stroke="black" points="489,-56.5 489,-86.5 608,-86.5 608,-56.5 489,-56.5"/>
<text text-anchor="start" x="497" y="-74.5" font-family="Helvetica,sans-Serif" font-size="10.00">packages/logging/inc</text>
<text text-anchor="middle" x="548.5" y="-63.5" font-family="Helvetica,sans-Serif" font-size="10.00">/LoggerSingleton.hpp</text>
</a>
</g>
</g>
<!-- Node2&#45;&gt;Node5 -->
<g id="edge4" class="edge">
<title>Node2&#45;&gt;Node5</title>
<path fill="none" stroke="midnightblue" d="M406.77,-123.4C434.05,-113.6 470.58,-100.48 499.73,-90.02"/>
<polygon fill="midnightblue" stroke="midnightblue" points="501.07,-93.25 509.3,-86.58 498.71,-86.66 501.07,-93.25"/>
</g>
<!-- Node6 -->
<g id="node6" class="node">
<title>Node6</title>
<g id="a_node6"><a target="_parent" xlink:href="../../../cieutils/docs/html/typedefs_8hpp.html.html" xlink:title=" ">
<polygon fill="white" stroke="black" points="0,-56.5 0,-86.5 119,-86.5 119,-56.5 0,-56.5"/>
<text text-anchor="start" x="8" y="-74.5" font-family="Helvetica,sans-Serif" font-size="10.00">packages/macros/inc</text>
<text text-anchor="middle" x="59.5" y="-63.5" font-family="Helvetica,sans-Serif" font-size="10.00">/typedefs.hpp</text>
</a>
</g>
</g>
<!-- Node2&#45;&gt;Node6 -->
<g id="edge5" class="edge">
<title>Node2&#45;&gt;Node6</title>
<path fill="none" stroke="midnightblue" d="M307.75,-124.89C256.53,-114.08 182.71,-98.5 128.89,-87.14"/>
<polygon fill="midnightblue" stroke="midnightblue" points="129.59,-83.72 119.08,-85.07 128.15,-90.56 129.59,-83.72"/>
</g>
<!-- Node7 -->
<g id="node7" class="node">
<title>Node7</title>
<g id="a_node7"><a xlink:href="RigidBody_8hpp.html" target="_top" xlink:title=" ">
<polygon fill="white" stroke="black" points="176,-56.5 176,-86.5 295,-86.5 295,-56.5 176,-56.5"/>
<text text-anchor="start" x="184" y="-74.5" font-family="Helvetica,sans-Serif" font-size="10.00">packages/camera/inc</text>
<text text-anchor="middle" x="235.5" y="-63.5" font-family="Helvetica,sans-Serif" font-size="10.00">/RigidBody.hpp</text>
</a>
</g>
</g>
<!-- Node2&#45;&gt;Node7 -->
<g id="edge6" class="edge">
<title>Node2&#45;&gt;Node7</title>
<path fill="none" stroke="midnightblue" d="M338.86,-123.4C319.66,-113.94 294.17,-101.39 273.31,-91.12"/>
<polygon fill="midnightblue" stroke="midnightblue" points="274.6,-87.85 264.09,-86.58 271.51,-94.13 274.6,-87.85"/>
</g>
<!-- Node8 -->
<g id="node8" class="node">
<title>Node8</title>
<g id="a_node8"><a xlink:title=" ">
<polygon fill="white" stroke="#bfbfbf" points="162.5,-0.5 162.5,-19.5 220.5,-19.5 220.5,-0.5 162.5,-0.5"/>
<text text-anchor="middle" x="191.5" y="-7.5" font-family="Helvetica,sans-Serif" font-size="10.00">memory</text>
</a>
</g>
</g>
<!-- Node2&#45;&gt;Node8 -->
<g id="edge10" class="edge">
<title>Node2&#45;&gt;Node8</title>
<path fill="none" stroke="midnightblue" d="M307.86,-130.61C255.08,-123.13 183.81,-109.2 166.5,-87 152.95,-69.63 165.79,-44.6 177.52,-28.08"/>
<polygon fill="midnightblue" stroke="midnightblue" points="180.49,-29.96 183.75,-19.88 174.91,-25.73 180.49,-29.96"/>
</g>
<!-- Node2&#45;&gt;Node9 -->
<g id="edge9" class="edge">
<title>Node2&#45;&gt;Node9</title>
<path fill="none" stroke="midnightblue" d="M427.07,-129.29C478.13,-121.34 553.23,-107.46 616.5,-87 618.37,-86.39 620.28,-85.71 622.18,-84.98"/>
<polygon fill="midnightblue" stroke="midnightblue" points="623.65,-88.16 631.51,-81.06 620.94,-81.71 623.65,-88.16"/>
</g>
<!-- Node7&#45;&gt;Node3 -->
<g id="edge7" class="edge">
<title>Node7&#45;&gt;Node3</title>
<path fill="none" stroke="midnightblue" d="M256.35,-56.4C270.2,-47.04 288.31,-34.79 302.24,-25.38"/>
<polygon fill="midnightblue" stroke="midnightblue" points="304.37,-28.16 310.7,-19.66 300.45,-22.36 304.37,-28.16"/>
</g>
<!-- Node7&#45;&gt;Node8 -->
<g id="edge8" class="edge">
<title>Node7&#45;&gt;Node8</title>
<path fill="none" stroke="midnightblue" d="M225.07,-56.4C218.74,-47.84 210.63,-36.87 203.97,-27.86"/>
<polygon fill="midnightblue" stroke="midnightblue" points="206.66,-25.62 197.9,-19.66 201.03,-29.78 206.66,-25.62"/>
</g>
<!-- Node10&#45;&gt;Node3 -->
<g id="edge12" class="edge">
<title>Node10&#45;&gt;Node3</title>
<path fill="none" stroke="midnightblue" d="M735.18,-123.41C752.75,-105.94 776.57,-76.04 758.5,-56 733.04,-27.77 481.15,-16.17 372.72,-12.45"/>
<polygon fill="midnightblue" stroke="midnightblue" points="372.8,-8.96 362.69,-12.12 372.56,-15.95 372.8,-8.96"/>
</g>
<!-- Node10&#45;&gt;Node9 -->
<g id="edge14" class="edge">
<title>Node10&#45;&gt;Node9</title>
<path fill="none" stroke="midnightblue" d="M704.09,-123.4C692.69,-112.96 677.17,-98.75 665.43,-88"/>
<polygon fill="midnightblue" stroke="midnightblue" points="667.74,-85.37 658,-81.19 663.01,-90.53 667.74,-85.37"/>
</g>
<!-- Node11 -->
<g id="node11" class="node">
<title>Node11</title>
<g id="a_node11"><a xlink:title=" ">
<polygon fill="white" stroke="#bfbfbf" points="689.5,-62 689.5,-81 749.5,-81 749.5,-62 689.5,-62"/>
<text text-anchor="middle" x="719.5" y="-69" font-family="Helvetica,sans-Serif" font-size="10.00">concepts</text>
</a>
</g>
</g>
<!-- Node10&#45;&gt;Node11 -->
<g id="edge13" class="edge">
<title>Node10&#45;&gt;Node11</title>
<path fill="none" stroke="midnightblue" d="M719.5,-123.4C719.5,-114.06 719.5,-101.71 719.5,-91.52"/>
<polygon fill="midnightblue" stroke="midnightblue" points="723,-91.19 719.5,-81.19 716,-91.19 723,-91.19"/>
</g>
</g>
</svg>
