<?xml version="1.0" encoding="UTF-8" standalone="no"?>
<!DOCTYPE svg PUBLIC "-//W3C//DTD SVG 1.1//EN"
 "http://www.w3.org/Graphics/SVG/1.1/DTD/svg11.dtd">
<!-- Generated by graphviz version 2.43.0 (0)
 -->
<!-- Title: Camera.hpp Pages: 1 -->
<svg width="300pt" height="252pt"
 viewBox="0.00 0.00 300.00 252.00" xmlns="http://www.w3.org/2000/svg" xmlns:xlink="http://www.w3.org/1999/xlink">
<g id="graph0" class="graph" transform="scale(1 1) rotate(0) translate(4 248)">
<title>Camera.hpp</title>
<polygon fill="white" stroke="transparent" points="-4,4 -4,-248 296,-248 296,4 -4,4"/>
<!-- Node1 -->
<g id="node1" class="node">
<title>Node1</title>
<g id="a_node1"><a xlink:title=" ">
<polygon fill="#bfbfbf" stroke="black" points="110.5,-224.5 110.5,-243.5 186.5,-243.5 186.5,-224.5 110.5,-224.5"/>
<text text-anchor="middle" x="148.5" y="-231.5" font-family="Helvetica,sans-Serif" font-size="10.00">Camera.hpp</text>
</a>
</g>
</g>
<!-- Node2 -->
<g id="node2" class="node">
<title>Node2</title>
<g id="a_node2"><a xlink:href="OrthographicCamera_8hpp.html" target="_top" xlink:title=" ">
<polygon fill="white" stroke="black" points="2,-168.5 2,-187.5 141,-187.5 141,-168.5 2,-168.5"/>
<text text-anchor="middle" x="71.5" y="-175.5" font-family="Helvetica,sans-Serif" font-size="10.00">OrthographicCamera.hpp</text>
</a>
</g>
</g>
<!-- Node1&#45;&gt;Node2 -->
<g id="edge1" class="edge">
<title>Node1&#45;&gt;Node2</title>
<path fill="none" stroke="midnightblue" d="M127.6,-218.34C113.59,-208.52 95.62,-195.91 83.84,-187.65"/>
<polygon fill="midnightblue" stroke="midnightblue" points="125.93,-221.45 136.13,-224.32 129.95,-215.72 125.93,-221.45"/>
</g>
<!-- Node6 -->
<g id="node6" class="node">
<title>Node6</title>
<g id="a_node6"><a xlink:href="PerspectiveCamera_8hpp.html" target="_top" xlink:title=" ">
<polygon fill="white" stroke="black" points="159,-168.5 159,-187.5 292,-187.5 292,-168.5 159,-168.5"/>
<text text-anchor="middle" x="225.5" y="-175.5" font-family="Helvetica,sans-Serif" font-size="10.00">PerspectiveCamera.hpp</text>
</a>
</g>
</g>
<!-- Node1&#45;&gt;Node6 -->
<g id="edge5" class="edge">
<title>Node1&#45;&gt;Node6</title>
<path fill="none" stroke="midnightblue" d="M169.4,-218.34C183.41,-208.52 201.38,-195.91 213.16,-187.65"/>
<polygon fill="midnightblue" stroke="midnightblue" points="167.05,-215.72 160.87,-224.32 171.07,-221.45 167.05,-215.72"/>
</g>
<!-- Node3 -->
<g id="node3" class="node">
<title>Node3</title>
<g id="a_node3"><a xlink:href="AbsPlot2_8hpp.html" target="_top" xlink:title=" ">
<polygon fill="white" stroke="black" points="31.5,-112.5 31.5,-131.5 111.5,-131.5 111.5,-112.5 31.5,-112.5"/>
<text text-anchor="middle" x="71.5" y="-119.5" font-family="Helvetica,sans-Serif" font-size="10.00">AbsPlot2.hpp</text>
</a>
</g>
</g>
<!-- Node2&#45;&gt;Node3 -->
<g id="edge2" class="edge">
<title>Node2&#45;&gt;Node3</title>
<path fill="none" stroke="midnightblue" d="M71.5,-157.8C71.5,-148.91 71.5,-138.78 71.5,-131.75"/>
<polygon fill="midnightblue" stroke="midnightblue" points="68,-158.08 71.5,-168.08 75,-158.08 68,-158.08"/>
</g>
<!-- Node4 -->
<g id="node4" class="node">
<title>Node4</title>
<g id="a_node4"><a xlink:href="Plot2_8hpp.html" target="_top" xlink:title=" ">
<polygon fill="white" stroke="black" points="40.5,-56.5 40.5,-75.5 102.5,-75.5 102.5,-56.5 40.5,-56.5"/>
<text text-anchor="middle" x="71.5" y="-63.5" font-family="Helvetica,sans-Serif" font-size="10.00">Plot2.hpp</text>
</a>
</g>
</g>
<!-- Node3&#45;&gt;Node4 -->
<g id="edge3" class="edge">
<title>Node3&#45;&gt;Node4</title>
<path fill="none" stroke="midnightblue" d="M71.5,-101.8C71.5,-92.91 71.5,-82.78 71.5,-75.75"/>
<polygon fill="midnightblue" stroke="midnightblue" points="68,-102.08 71.5,-112.08 75,-102.08 68,-102.08"/>
</g>
<!-- Node5 -->
<g id="node5" class="node">
<title>Node5</title>
<g id="a_node5"><a xlink:href="Plot2__MarchingCubes_8hpp.html" target="_top" xlink:title=" ">
<polygon fill="white" stroke="black" points="0,-0.5 0,-19.5 143,-19.5 143,-0.5 0,-0.5"/>
<text text-anchor="middle" x="71.5" y="-7.5" font-family="Helvetica,sans-Serif" font-size="10.00">Plot2_MarchingCubes.hpp</text>
</a>
</g>
</g>
<!-- Node4&#45;&gt;Node5 -->
<g id="edge4" class="edge">
<title>Node4&#45;&gt;Node5</title>
<path fill="none" stroke="midnightblue" d="M71.5,-45.8C71.5,-36.91 71.5,-26.78 71.5,-19.75"/>
<polygon fill="midnightblue" stroke="midnightblue" points="68,-46.08 71.5,-56.08 75,-46.08 68,-46.08"/>
</g>
</g>
</svg>
