<?xml version="1.0" encoding="UTF-8" standalone="no"?>
<!DOCTYPE svg PUBLIC "-//W3C//DTD SVG 1.1//EN"
 "http://www.w3.org/Graphics/SVG/1.1/DTD/svg11.dtd">
<!-- Generated by graphviz version 2.43.0 (0)
 -->
<!-- Title: cie::gl::AbsWindow Pages: 1 -->
<!--zoomable 716 -->
<svg id="main" version="1.1" xmlns="http://www.w3.org/2000/svg" xmlns:xlink="http://www.w3.org/1999/xlink" xml:space="preserve" onload="init(evt)">
<style type="text/css"><![CDATA[
.edge:hover path { stroke: red; }
.edge:hover polygon { stroke: red; fill: red; }
]]></style>
<script type="text/javascript"><![CDATA[
var edges = document.getElementsByTagName('g');
if (edges && edges.length) {
  for (var i=0;i<edges.length;i++) {
    if (edges[i].id.substr(0,4)=='edge') {
      edges[i].setAttribute('class','edge');
    }
  }
}
]]></script>
        <defs>
                <circle id="rim" cx="0" cy="0" r="7"/>
                <circle id="rim2" cx="0" cy="0" r="3.5"/>
                <g id="zoomPlus">
                        <use xlink:href="#rim" fill="#404040">
                                <set attributeName="fill" to="#808080" begin="zoomplus.mouseover" end="zoomplus.mouseout"/>
                        </use>
                        <path d="M-4,0h8M0,-4v8" fill="none" stroke="white" stroke-width="1.5" pointer-events="none"/>
                </g>
                <g id="zoomMin">
                        <use xlink:href="#rim" fill="#404040">
                                <set attributeName="fill" to="#808080" begin="zoomminus.mouseover" end="zoomminus.mouseout"/>
                        </use>
                        <path d="M-4,0h8" fill="none" stroke="white" stroke-width="1.5" pointer-events="none"/>
                </g>
                <g id="dirArrow">
                        <path fill="none" stroke="white" stroke-width="1.5" d="M0,-3.0v7 M-2.5,-0.5L0,-3.0L2.5,-0.5"/>
                </g>
               <g id="resetDef">
                       <use xlink:href="#rim2" fill="#404040">
                               <set attributeName="fill" to="#808080" begin="reset.mouseover" end="reset.mouseout"/>
                       </use>
               </g>
        </defs>

<script type="text/javascript">
var viewWidth = 676;
var viewHeight = 716;
var sectionId = 'dynsection-1';
</script>
<script xlink:href="svgpan.js"/>
<svg id="graph" class="graph">
<g id="viewport">
<title>cie::gl::AbsWindow</title>
<polygon fill="white" stroke="transparent" points="-4,4 -4,-712 671.5,-712 671.5,4 -4,4"/>
<!-- Node1 -->
<g id="node1" class="node">
<title>Node1</title>
<g id="a_node1"><a xlink:title=" ">
<polygon fill="#bfbfbf" stroke="black" points="302.5,-0.5 302.5,-288.5 483.5,-288.5 483.5,-0.5 302.5,-0.5"/>
<text text-anchor="middle" x="393" y="-276.5" font-family="Helvetica,sans-Serif" font-size="10.00">cie::gl::AbsWindow</text>
<polyline fill="none" stroke="black" points="302.5,-269.5 483.5,-269.5 "/>
<text text-anchor="middle" x="393" y="-257.5" font-family="Helvetica,sans-Serif" font-size="10.00"> </text>
<polyline fill="none" stroke="black" points="302.5,-250.5 483.5,-250.5 "/>
<text text-anchor="start" x="310.5" y="-238.5" font-family="Helvetica,sans-Serif" font-size="10.00">+ ~AbsWindow()</text>
<text text-anchor="start" x="310.5" y="-227.5" font-family="Helvetica,sans-Serif" font-size="10.00">+ update()</text>
<text text-anchor="start" x="310.5" y="-216.5" font-family="Helvetica,sans-Serif" font-size="10.00">+ activate()</text>
<text text-anchor="start" x="310.5" y="-205.5" font-family="Helvetica,sans-Serif" font-size="10.00">+ setSize()</text>
<text text-anchor="start" x="310.5" y="-194.5" font-family="Helvetica,sans-Serif" font-size="10.00">+ setSize()</text>
<text text-anchor="start" x="310.5" y="-183.5" font-family="Helvetica,sans-Serif" font-size="10.00">+ getSize()</text>
<text text-anchor="start" x="310.5" y="-172.5" font-family="Helvetica,sans-Serif" font-size="10.00">+ getAspectRatio()</text>
<text text-anchor="start" x="310.5" y="-161.5" font-family="Helvetica,sans-Serif" font-size="10.00">+ makeScene()</text>
<text text-anchor="start" x="310.5" y="-150.5" font-family="Helvetica,sans-Serif" font-size="10.00">+ removeScene()</text>
<text text-anchor="start" x="310.5" y="-139.5" font-family="Helvetica,sans-Serif" font-size="10.00">+ scenes()</text>
<text text-anchor="start" x="310.5" y="-128.5" font-family="Helvetica,sans-Serif" font-size="10.00">and 10 more...</text>
<text text-anchor="start" x="310.5" y="-117.5" font-family="Helvetica,sans-Serif" font-size="10.00"># AbsWindow()</text>
<text text-anchor="start" x="310.5" y="-106.5" font-family="Helvetica,sans-Serif" font-size="10.00"># addScene()</text>
<text text-anchor="start" x="310.5" y="-95.5" font-family="Helvetica,sans-Serif" font-size="10.00"># setSizeImpl()</text>
<text text-anchor="start" x="310.5" y="-84.5" font-family="Helvetica,sans-Serif" font-size="10.00"># updateImpl()</text>
<text text-anchor="start" x="310.5" y="-73.5" font-family="Helvetica,sans-Serif" font-size="10.00"># setWindowName()</text>
<text text-anchor="start" x="310.5" y="-62.5" font-family="Helvetica,sans-Serif" font-size="10.00"># triggerMouseButtonCallback()</text>
<text text-anchor="start" x="310.5" y="-51.5" font-family="Helvetica,sans-Serif" font-size="10.00"># triggerCursorPositionCallback()</text>
<text text-anchor="start" x="310.5" y="-40.5" font-family="Helvetica,sans-Serif" font-size="10.00"># triggerCursorEnterCallback()</text>
<text text-anchor="start" x="310.5" y="-29.5" font-family="Helvetica,sans-Serif" font-size="10.00"># triggerScrollCallback()</text>
<text text-anchor="start" x="310.5" y="-18.5" font-family="Helvetica,sans-Serif" font-size="10.00"># triggerKeyboardCallback()</text>
<text text-anchor="start" x="310.5" y="-7.5" font-family="Helvetica,sans-Serif" font-size="10.00"># triggerWindowResizeCallback()</text>
</a>
</g>
</g>
<!-- Node2 -->
<g id="node2" class="node">
<title>Node2</title>
<g id="a_node2"><a target="_parent" xlink:href="../../../cieutils/docs/html/classcie_1_1utils_1_1IDObject.html" xlink:title=" ">
<polygon fill="white" stroke="black" points="0,-347.5 0,-492.5 106,-492.5 106,-347.5 0,-347.5"/>
<text text-anchor="start" x="8" y="-480.5" font-family="Helvetica,sans-Serif" font-size="10.00">cie::utils::IDObject</text>
<text text-anchor="middle" x="53" y="-469.5" font-family="Helvetica,sans-Serif" font-size="10.00">&lt; class &gt;</text>
<polyline fill="none" stroke="black" points="0,-462.5 106,-462.5 "/>
<text text-anchor="middle" x="53" y="-450.5" font-family="Helvetica,sans-Serif" font-size="10.00"> </text>
<polyline fill="none" stroke="black" points="0,-443.5 106,-443.5 "/>
<text text-anchor="start" x="8" y="-431.5" font-family="Helvetica,sans-Serif" font-size="10.00">+ IDObject()</text>
<text text-anchor="start" x="8" y="-420.5" font-family="Helvetica,sans-Serif" font-size="10.00">+ IDObject()</text>
<text text-anchor="start" x="8" y="-409.5" font-family="Helvetica,sans-Serif" font-size="10.00">+ IDObject()</text>
<text text-anchor="start" x="8" y="-398.5" font-family="Helvetica,sans-Serif" font-size="10.00">+ IDObject()</text>
<text text-anchor="start" x="8" y="-387.5" font-family="Helvetica,sans-Serif" font-size="10.00">+ operator=()</text>
<text text-anchor="start" x="8" y="-376.5" font-family="Helvetica,sans-Serif" font-size="10.00">+ operator=()</text>
<text text-anchor="start" x="8" y="-365.5" font-family="Helvetica,sans-Serif" font-size="10.00">+ setID()</text>
<text text-anchor="start" x="8" y="-354.5" font-family="Helvetica,sans-Serif" font-size="10.00">+ getID()</text>
</a>
</g>
</g>
<!-- Node2&#45;&gt;Node1 -->
<g id="edge1" class="edge">
<title>Node2&#45;&gt;Node1</title>
<path fill="none" stroke="midnightblue" d="M110.79,-340.16C112.19,-338.74 113.59,-337.35 115,-336 171.56,-281.7 245.07,-232.06 302.3,-197.06"/>
<polygon fill="none" stroke="midnightblue" points="108.22,-337.79 103.92,-347.47 113.32,-342.59 108.22,-337.79"/>
</g>
<!-- Node3 -->
<g id="node3" class="node">
<title>Node3</title>
<g id="a_node3"><a xlink:title=" ">
<polygon fill="white" stroke="#bfbfbf" points="36.5,-601 36.5,-658 69.5,-658 69.5,-601 36.5,-601"/>
<text text-anchor="middle" x="53" y="-646" font-family="Helvetica,sans-Serif" font-size="10.00">TID</text>
<polyline fill="none" stroke="#bfbfbf" points="36.5,-639 69.5,-639 "/>
<text text-anchor="middle" x="53" y="-627" font-family="Helvetica,sans-Serif" font-size="10.00"> </text>
<polyline fill="none" stroke="#bfbfbf" points="36.5,-620 69.5,-620 "/>
<text text-anchor="middle" x="53" y="-608" font-family="Helvetica,sans-Serif" font-size="10.00"> </text>
</a>
</g>
</g>
<!-- Node3&#45;&gt;Node2 -->
<g id="edge2" class="edge">
<title>Node3&#45;&gt;Node2</title>
<path fill="none" stroke="#404040" d="M53,-600.95C53,-576.5 53,-539.47 53,-505.35"/>
<polygon fill="none" stroke="#404040" points="53,-504.93 49,-498.93 53,-492.93 57,-498.93 53,-504.93"/>
<text text-anchor="middle" x="66" y="-525" font-family="Helvetica,sans-Serif" font-size="10.00"> #_id</text>
</g>
<!-- Node4 -->
<g id="node4" class="node">
<title>Node4</title>
<g id="a_node4"><a target="_parent" xlink:href="../../../cieutils/docs/html/classcie_1_1utils_1_1Loggee.html" xlink:title=" ">
<polygon fill="white" stroke="black" points="124.5,-342 124.5,-498 223.5,-498 223.5,-342 124.5,-342"/>
<text text-anchor="middle" x="174" y="-486" font-family="Helvetica,sans-Serif" font-size="10.00">cie::utils::Loggee</text>
<polyline fill="none" stroke="black" points="124.5,-479 223.5,-479 "/>
<text text-anchor="middle" x="174" y="-467" font-family="Helvetica,sans-Serif" font-size="10.00"> </text>
<polyline fill="none" stroke="black" points="124.5,-460 223.5,-460 "/>
<text text-anchor="start" x="132.5" y="-448" font-family="Helvetica,sans-Serif" font-size="10.00">+ Loggee()</text>
<text text-anchor="start" x="132.5" y="-437" font-family="Helvetica,sans-Serif" font-size="10.00">+ ~Loggee()</text>
<text text-anchor="start" x="132.5" y="-426" font-family="Helvetica,sans-Serif" font-size="10.00">+ log()</text>
<text text-anchor="start" x="132.5" y="-415" font-family="Helvetica,sans-Serif" font-size="10.00">+ logID()</text>
<text text-anchor="start" x="132.5" y="-404" font-family="Helvetica,sans-Serif" font-size="10.00">+ tic()</text>
<text text-anchor="start" x="132.5" y="-393" font-family="Helvetica,sans-Serif" font-size="10.00">+ toc()</text>
<text text-anchor="start" x="132.5" y="-382" font-family="Helvetica,sans-Serif" font-size="10.00">+ toc()</text>
<text text-anchor="start" x="132.5" y="-371" font-family="Helvetica,sans-Serif" font-size="10.00">+ newBlock()</text>
<text text-anchor="start" x="132.5" y="-360" font-family="Helvetica,sans-Serif" font-size="10.00">+ separate()</text>
<text text-anchor="start" x="132.5" y="-349" font-family="Helvetica,sans-Serif" font-size="10.00"># logger()</text>
</a>
</g>
</g>
<!-- Node4&#45;&gt;Node1 -->
<g id="edge3" class="edge">
<title>Node4&#45;&gt;Node1</title>
<path fill="none" stroke="midnightblue" d="M229.64,-339.08C230.43,-338.05 231.22,-337.02 232,-336 254.05,-307.34 278.84,-277.11 302.24,-249.39"/>
<polygon fill="none" stroke="midnightblue" points="226.78,-337.07 223.58,-347.17 232.38,-341.27 226.78,-337.07"/>
</g>
<!-- Node5 -->
<g id="node5" class="node">
<title>Node5</title>
<g id="a_node5"><a target="_parent" xlink:href="../../../cieutils/docs/html/classcie_1_1utils_1_1NamedObject.html" xlink:title=" ">
<polygon fill="white" stroke="black" points="97.5,-551.5 97.5,-707.5 228.5,-707.5 228.5,-551.5 97.5,-551.5"/>
<text text-anchor="middle" x="163" y="-695.5" font-family="Helvetica,sans-Serif" font-size="10.00">cie::utils::NamedObject</text>
<polyline fill="none" stroke="black" points="97.5,-688.5 228.5,-688.5 "/>
<text text-anchor="middle" x="163" y="-676.5" font-family="Helvetica,sans-Serif" font-size="10.00"> </text>
<polyline fill="none" stroke="black" points="97.5,-669.5 228.5,-669.5 "/>
<text text-anchor="start" x="105.5" y="-657.5" font-family="Helvetica,sans-Serif" font-size="10.00">+ NamedObject()</text>
<text text-anchor="start" x="105.5" y="-646.5" font-family="Helvetica,sans-Serif" font-size="10.00">+ NamedObject()</text>
<text text-anchor="start" x="105.5" y="-635.5" font-family="Helvetica,sans-Serif" font-size="10.00">+ NamedObject()</text>
<text text-anchor="start" x="105.5" y="-624.5" font-family="Helvetica,sans-Serif" font-size="10.00">+ NamedObject()</text>
<text text-anchor="start" x="105.5" y="-613.5" font-family="Helvetica,sans-Serif" font-size="10.00">+ operator=()</text>
<text text-anchor="start" x="105.5" y="-602.5" font-family="Helvetica,sans-Serif" font-size="10.00">+ operator=()</text>
<text text-anchor="start" x="105.5" y="-591.5" font-family="Helvetica,sans-Serif" font-size="10.00">+ name()</text>
<text text-anchor="start" x="105.5" y="-580.5" font-family="Helvetica,sans-Serif" font-size="10.00">+ setName()</text>
<text text-anchor="start" x="105.5" y="-569.5" font-family="Helvetica,sans-Serif" font-size="10.00">+ setName()</text>
<text text-anchor="start" x="105.5" y="-558.5" font-family="Helvetica,sans-Serif" font-size="10.00">+ ~NamedObject()</text>
</a>
</g>
</g>
<!-- Node5&#45;&gt;Node4 -->
<g id="edge4" class="edge">
<title>Node5&#45;&gt;Node4</title>
<path fill="none" stroke="midnightblue" d="M167.64,-541C168.39,-526.83 169.16,-512.24 169.9,-498.33"/>
<polygon fill="none" stroke="midnightblue" points="164.13,-541.06 167.1,-551.23 171.12,-541.43 164.13,-541.06"/>
</g>
<!-- Node6 -->
<g id="node6" class="node">
<title>Node6</title>
<g id="a_node6"><a target="_parent" xlink:href="../../../cieutils/docs/html/classcie_1_1utils_1_1observer_1_1Subject.html" xlink:title=" ">
<polygon fill="white" stroke="black" points="241.5,-336.5 241.5,-503.5 354.5,-503.5 354.5,-336.5 241.5,-336.5"/>
<text text-anchor="start" x="249.5" y="-491.5" font-family="Helvetica,sans-Serif" font-size="10.00">cie::utils::observer</text>
<text text-anchor="middle" x="298" y="-480.5" font-family="Helvetica,sans-Serif" font-size="10.00">::Subject</text>
<polyline fill="none" stroke="black" points="241.5,-473.5 354.5,-473.5 "/>
<text text-anchor="middle" x="298" y="-461.5" font-family="Helvetica,sans-Serif" font-size="10.00"> </text>
<polyline fill="none" stroke="black" points="241.5,-454.5 354.5,-454.5 "/>
<text text-anchor="start" x="249.5" y="-442.5" font-family="Helvetica,sans-Serif" font-size="10.00">+ Subject()</text>
<text text-anchor="start" x="249.5" y="-431.5" font-family="Helvetica,sans-Serif" font-size="10.00">+ Subject()</text>
<text text-anchor="start" x="249.5" y="-420.5" font-family="Helvetica,sans-Serif" font-size="10.00">+ operator=()</text>
<text text-anchor="start" x="249.5" y="-409.5" font-family="Helvetica,sans-Serif" font-size="10.00">+ ~Subject()</text>
<text text-anchor="start" x="249.5" y="-398.5" font-family="Helvetica,sans-Serif" font-size="10.00">+ notifyObservers()</text>
<text text-anchor="start" x="249.5" y="-387.5" font-family="Helvetica,sans-Serif" font-size="10.00">+ attachObserver()</text>
<text text-anchor="start" x="249.5" y="-376.5" font-family="Helvetica,sans-Serif" font-size="10.00">+ detachObserver()</text>
<text text-anchor="start" x="249.5" y="-365.5" font-family="Helvetica,sans-Serif" font-size="10.00">+ observerID()</text>
<text text-anchor="start" x="249.5" y="-354.5" font-family="Helvetica,sans-Serif" font-size="10.00">+ observers()</text>
<text text-anchor="start" x="249.5" y="-343.5" font-family="Helvetica,sans-Serif" font-size="10.00">+ as()</text>
</a>
</g>
</g>
<!-- Node6&#45;&gt;Node1 -->
<g id="edge5" class="edge">
<title>Node6&#45;&gt;Node1</title>
<path fill="none" stroke="midnightblue" d="M330.12,-326.52C334.37,-314.29 338.8,-301.54 343.26,-288.71"/>
<polygon fill="none" stroke="midnightblue" points="326.74,-325.6 326.76,-336.2 333.35,-327.9 326.74,-325.6"/>
</g>
<!-- Node7 -->
<g id="node7" class="node">
<title>Node7</title>
<g id="a_node7"><a xlink:title=" ">
<polygon fill="white" stroke="#bfbfbf" points="247,-601 247,-658 375,-658 375,-601 247,-601"/>
<text text-anchor="middle" x="311" y="-646" font-family="Helvetica,sans-Serif" font-size="10.00">vector&lt; ObserverPtr &gt;</text>
<polyline fill="none" stroke="#bfbfbf" points="247,-639 375,-639 "/>
<text text-anchor="middle" x="311" y="-627" font-family="Helvetica,sans-Serif" font-size="10.00"> </text>
<polyline fill="none" stroke="#bfbfbf" points="247,-620 375,-620 "/>
<text text-anchor="middle" x="311" y="-608" font-family="Helvetica,sans-Serif" font-size="10.00"> </text>
</a>
</g>
</g>
<!-- Node7&#45;&gt;Node6 -->
<g id="edge6" class="edge">
<title>Node7&#45;&gt;Node6</title>
<path fill="none" stroke="#404040" d="M309.27,-600.95C307.9,-579.05 305.9,-547.06 303.96,-516.1"/>
<polygon fill="none" stroke="#404040" points="303.94,-515.83 299.57,-510.09 303.19,-503.85 307.56,-509.59 303.94,-515.83"/>
<text text-anchor="middle" x="337.5" y="-525" font-family="Helvetica,sans-Serif" font-size="10.00"> #_observers</text>
</g>
<!-- Node8 -->
<g id="node8" class="node">
<title>Node8</title>
<g id="a_node8"><a xlink:title=" ">
<polygon fill="white" stroke="#bfbfbf" points="373,-391.5 373,-448.5 477,-448.5 477,-391.5 373,-391.5"/>
<text text-anchor="middle" x="425" y="-436.5" font-family="Helvetica,sans-Serif" font-size="10.00">pair&lt; Size, Size &gt;</text>
<polyline fill="none" stroke="#bfbfbf" points="373,-429.5 477,-429.5 "/>
<text text-anchor="middle" x="425" y="-417.5" font-family="Helvetica,sans-Serif" font-size="10.00"> </text>
<polyline fill="none" stroke="#bfbfbf" points="373,-410.5 477,-410.5 "/>
<text text-anchor="middle" x="425" y="-398.5" font-family="Helvetica,sans-Serif" font-size="10.00"> </text>
</a>
</g>
</g>
<!-- Node8&#45;&gt;Node1 -->
<g id="edge7" class="edge">
<title>Node8&#45;&gt;Node1</title>
<path fill="none" stroke="#404040" d="M421.76,-391.27C419.15,-369.04 415.28,-335.9 411.21,-301.1"/>
<polygon fill="none" stroke="#404040" points="411.15,-300.66 406.48,-295.16 409.76,-288.74 414.43,-294.23 411.15,-300.66"/>
<text text-anchor="middle" x="430.5" y="-310" font-family="Helvetica,sans-Serif" font-size="10.00"> #_size</text>
</g>
<!-- Node9 -->
<g id="node9" class="node">
<title>Node9</title>
<g id="a_node9"><a xlink:title=" ">
<polygon fill="white" stroke="#bfbfbf" points="495,-391.5 495,-448.5 533,-448.5 533,-391.5 495,-391.5"/>
<text text-anchor="middle" x="514" y="-436.5" font-family="Helvetica,sans-Serif" font-size="10.00">bool</text>
<polyline fill="none" stroke="#bfbfbf" points="495,-429.5 533,-429.5 "/>
<text text-anchor="middle" x="514" y="-417.5" font-family="Helvetica,sans-Serif" font-size="10.00"> </text>
<polyline fill="none" stroke="#bfbfbf" points="495,-410.5 533,-410.5 "/>
<text text-anchor="middle" x="514" y="-398.5" font-family="Helvetica,sans-Serif" font-size="10.00"> </text>
</a>
</g>
</g>
<!-- Node9&#45;&gt;Node1 -->
<g id="edge8" class="edge">
<title>Node9&#45;&gt;Node1</title>
<path fill="none" stroke="#404040" d="M505.67,-391.38C500.51,-375.08 493.45,-354.15 486,-336 481.13,-324.14 475.86,-311.98 470.39,-299.82"/>
<polygon fill="none" stroke="#404040" points="470.29,-299.59 464.17,-295.78 465.32,-288.67 471.45,-292.47 470.29,-299.59"/>
<text text-anchor="middle" x="525.5" y="-310" font-family="Helvetica,sans-Serif" font-size="10.00"> #_continueLooping</text>
</g>
<!-- Node10 -->
<g id="node10" class="node">
<title>Node10</title>
<g id="a_node10"><a xlink:title=" ">
<polygon fill="white" stroke="#bfbfbf" points="570.5,-391.5 570.5,-448.5 667.5,-448.5 667.5,-391.5 570.5,-391.5"/>
<text text-anchor="middle" x="619" y="-436.5" font-family="Helvetica,sans-Serif" font-size="10.00">list&lt; ScenePtr &gt;</text>
<polyline fill="none" stroke="#bfbfbf" points="570.5,-429.5 667.5,-429.5 "/>
<text text-anchor="middle" x="619" y="-417.5" font-family="Helvetica,sans-Serif" font-size="10.00"> </text>
<polyline fill="none" stroke="#bfbfbf" points="570.5,-410.5 667.5,-410.5 "/>
<text text-anchor="middle" x="619" y="-398.5" font-family="Helvetica,sans-Serif" font-size="10.00"> </text>
</a>
</g>
</g>
<!-- Node10&#45;&gt;Node1 -->
<g id="edge9" class="edge">
<title>Node10&#45;&gt;Node1</title>
<path fill="none" stroke="#404040" d="M613.02,-391.41C606.94,-367.56 595.82,-332.94 578,-307 555.03,-273.56 523.57,-242.67 493.11,-217.05"/>
<polygon fill="none" stroke="#404040" points="492.95,-216.92 485.78,-216.18 483.7,-209.27 490.88,-210.01 492.95,-216.92"/>
<text text-anchor="middle" x="609.5" y="-310" font-family="Helvetica,sans-Serif" font-size="10.00"> #_scenes</text>
</g>
</g>
</svg>
        <g id="navigator" transform="translate(0 0)" fill="#404254">
                <rect fill="#f2f5e9" fill-opacity="0.5" stroke="#606060" stroke-width=".5" x="0" y="0" width="60" height="60"/>
                <use id="zoomplus" xlink:href="#zoomPlus" x="17" y="9" onmousedown="handleZoom(evt,'in')"/>
                <use id="zoomminus" xlink:href="#zoomMin" x="42" y="9" onmousedown="handleZoom(evt,'out')"/>
                <use id="reset" xlink:href="#resetDef" x="30" y="36" onmousedown="handleReset()"/>
                <g id="arrowUp" xlink:href="#dirArrow" transform="translate(30 24)" onmousedown="handlePan(0,-1)">
                  <use xlink:href="#rim" fill="#404040">
                        <set attributeName="fill" to="#808080" begin="arrowUp.mouseover" end="arrowUp.mouseout"/>
                  </use>
                  <path fill="none" stroke="white" stroke-width="1.5" d="M0,-3.0v7 M-2.5,-0.5L0,-3.0L2.5,-0.5"/>
                </g>
                <g id="arrowRight" xlink:href="#dirArrow" transform="rotate(90) translate(36 -43)" onmousedown="handlePan(1,0)">
                  <use xlink:href="#rim" fill="#404040">
                        <set attributeName="fill" to="#808080" begin="arrowRight.mouseover" end="arrowRight.mouseout"/>
                  </use>
                  <path fill="none" stroke="white" stroke-width="1.5" d="M0,-3.0v7 M-2.5,-0.5L0,-3.0L2.5,-0.5"/>
                </g>
                <g id="arrowDown" xlink:href="#dirArrow" transform="rotate(180) translate(-30 -48)" onmousedown="handlePan(0,1)">
                  <use xlink:href="#rim" fill="#404040">
                        <set attributeName="fill" to="#808080" begin="arrowDown.mouseover" end="arrowDown.mouseout"/>
                  </use>
                  <path fill="none" stroke="white" stroke-width="1.5" d="M0,-3.0v7 M-2.5,-0.5L0,-3.0L2.5,-0.5"/>
                </g>
                <g id="arrowLeft" xlink:href="#dirArrow" transform="rotate(270) translate(-36 17)" onmousedown="handlePan(-1,0)">
                  <use xlink:href="#rim" fill="#404040">
                        <set attributeName="fill" to="#808080" begin="arrowLeft.mouseover" end="arrowLeft.mouseout"/>
                  </use>
                  <path fill="none" stroke="white" stroke-width="1.5" d="M0,-3.0v7 M-2.5,-0.5L0,-3.0L2.5,-0.5"/>
                </g>
        </g>
        <svg viewBox="0 0 15 15" width="100%" height="30px" preserveAspectRatio="xMaxYMin meet">
         <g id="arrow_out" transform="scale(0.3 0.3)">
          <a xlink:href="classcie_1_1gl_1_1AbsWindow__coll__graph_org.svg" target="_base">
           <rect id="button" ry="5" rx="5" y="6" x="6" height="38" width="38"
                fill="#f2f5e9" fill-opacity="0.5" stroke="#606060" stroke-width="1.0"/>
           <path id="arrow"
             d="M 11.500037,31.436501 C 11.940474,20.09759 22.043105,11.32322 32.158766,21.979434 L 37.068811,17.246167 C 37.068811,17.246167 37.088388,32 37.088388,32 L 22.160133,31.978069 C 22.160133,31.978069 26.997745,27.140456 26.997745,27.140456 C 18.528582,18.264221 13.291696,25.230495 11.500037,31.436501 z"
             style="fill:#404040;"/>
          </a>
         </g>
        </svg>
</svg>
