<?xml version="1.0" encoding="UTF-8" standalone="no"?>
<!DOCTYPE svg PUBLIC "-//W3C//DTD SVG 1.1//EN"
 "http://www.w3.org/Graphics/SVG/1.1/DTD/svg11.dtd">
<!-- Generated by graphviz version 2.43.0 (0)
 -->
<!-- Title: modules.glvisuals.linevisual.LineVisual Pages: 1 -->
<svg width="166pt" height="314pt"
 viewBox="0.00 0.00 166.00 314.00" xmlns="http://www.w3.org/2000/svg" xmlns:xlink="http://www.w3.org/1999/xlink">
<g id="graph0" class="graph" transform="scale(1 1) rotate(0) translate(4 310)">
<title>modules.glvisuals.linevisual.LineVisual</title>
<polygon fill="white" stroke="transparent" points="-4,4 -4,-310 162,-310 162,4 -4,4"/>
<!-- Node1 -->
<g id="node1" class="node">
<title>Node1</title>
<g id="a_node1"><a xlink:title=" ">
<polygon fill="#bfbfbf" stroke="black" points="0,-0.5 0,-211.5 158,-211.5 158,-0.5 0,-0.5"/>
<text text-anchor="start" x="8" y="-199.5" font-family="Helvetica,sans-Serif" font-size="10.00">modules.glvisuals.linevisual.</text>
<text text-anchor="middle" x="79" y="-188.5" font-family="Helvetica,sans-Serif" font-size="10.00">LineVisual</text>
<polyline fill="none" stroke="black" points="0,-181.5 158,-181.5 "/>
<text text-anchor="start" x="8" y="-169.5" font-family="Helvetica,sans-Serif" font-size="10.00">+ markers</text>
<text text-anchor="start" x="8" y="-158.5" font-family="Helvetica,sans-Serif" font-size="10.00">+ marker_colors</text>
<text text-anchor="start" x="8" y="-147.5" font-family="Helvetica,sans-Serif" font-size="10.00">+ selected_point</text>
<text text-anchor="start" x="8" y="-136.5" font-family="Helvetica,sans-Serif" font-size="10.00">+ selected_index</text>
<text text-anchor="start" x="8" y="-125.5" font-family="Helvetica,sans-Serif" font-size="10.00">+ gridsize</text>
<polyline fill="none" stroke="black" points="0,-118.5 158,-118.5 "/>
<text text-anchor="start" x="8" y="-106.5" font-family="Helvetica,sans-Serif" font-size="10.00">+ __init__()</text>
<text text-anchor="start" x="8" y="-95.5" font-family="Helvetica,sans-Serif" font-size="10.00">+ reset()</text>
<text text-anchor="start" x="8" y="-84.5" font-family="Helvetica,sans-Serif" font-size="10.00">+ updateMarkers()</text>
<text text-anchor="start" x="8" y="-73.5" font-family="Helvetica,sans-Serif" font-size="10.00">+ highlightMarkers()</text>
<text text-anchor="start" x="8" y="-62.5" font-family="Helvetica,sans-Serif" font-size="10.00">+ addPoint()</text>
<text text-anchor="start" x="8" y="-51.5" font-family="Helvetica,sans-Serif" font-size="10.00">+ setPoint()</text>
<text text-anchor="start" x="8" y="-40.5" font-family="Helvetica,sans-Serif" font-size="10.00">+ selectPoint()</text>
<text text-anchor="start" x="8" y="-29.5" font-family="Helvetica,sans-Serif" font-size="10.00">+ enable()</text>
<text text-anchor="start" x="8" y="-18.5" font-family="Helvetica,sans-Serif" font-size="10.00">+ disable()</text>
<text text-anchor="start" x="8" y="-7.5" font-family="Helvetica,sans-Serif" font-size="10.00">+ on_draw()</text>
</a>
</g>
</g>
<!-- Node2 -->
<g id="node2" class="node">
<title>Node2</title>
<g id="a_node2"><a target="_parent" xlink:href="../../../geo/docs/html/classscene_1_1visuals_1_1Line.html" xlink:title=" ">
<polygon fill="white" stroke="black" points="23,-248.5 23,-305.5 135,-305.5 135,-248.5 23,-248.5"/>
<text text-anchor="middle" x="79" y="-293.5" font-family="Helvetica,sans-Serif" font-size="10.00">scene::visuals::Line</text>
<polyline fill="none" stroke="black" points="23,-286.5 135,-286.5 "/>
<text text-anchor="middle" x="79" y="-274.5" font-family="Helvetica,sans-Serif" font-size="10.00"> </text>
<polyline fill="none" stroke="black" points="23,-267.5 135,-267.5 "/>
<text text-anchor="middle" x="79" y="-255.5" font-family="Helvetica,sans-Serif" font-size="10.00"> </text>
</a>
</g>
</g>
<!-- Node2&#45;&gt;Node1 -->
<g id="edge1" class="edge">
<title>Node2&#45;&gt;Node1</title>
<path fill="none" stroke="midnightblue" d="M79,-238.23C79,-230.04 79,-220.99 79,-211.58"/>
<polygon fill="none" stroke="midnightblue" points="75.5,-238.47 79,-248.47 82.5,-238.47 75.5,-238.47"/>
</g>
</g>
</svg>
