<?xml version="1.0" encoding="UTF-8" standalone="no"?>
<!DOCTYPE svg PUBLIC "-//W3C//DTD SVG 1.1//EN"
 "http://www.w3.org/Graphics/SVG/1.1/DTD/svg11.dtd">
<!-- Generated by graphviz version 2.43.0 (0)
 -->
<!-- Title: cie::gl::ObjPart Pages: 1 -->
<svg width="152pt" height="590pt"
 viewBox="0.00 0.00 152.00 590.00" xmlns="http://www.w3.org/2000/svg" xmlns:xlink="http://www.w3.org/1999/xlink">
<g id="graph0" class="graph" transform="scale(1 1) rotate(0) translate(4 586)">
<title>cie::gl::ObjPart</title>
<polygon fill="white" stroke="transparent" points="-4,4 -4,-586 148,-586 148,4 -4,4"/>
<!-- Node1 -->
<g id="node1" class="node">
<title>Node1</title>
<g id="a_node1"><a xlink:title=" ">
<polygon fill="#bfbfbf" stroke="black" points="28.5,-0.5 28.5,-79.5 115.5,-79.5 115.5,-0.5 28.5,-0.5"/>
<text text-anchor="middle" x="72" y="-67.5" font-family="Helvetica,sans-Serif" font-size="10.00">cie::gl::ObjPart</text>
<polyline fill="none" stroke="black" points="28.5,-60.5 115.5,-60.5 "/>
<text text-anchor="middle" x="72" y="-48.5" font-family="Helvetica,sans-Serif" font-size="10.00"> </text>
<polyline fill="none" stroke="black" points="28.5,-41.5 115.5,-41.5 "/>
<text text-anchor="start" x="36.5" y="-29.5" font-family="Helvetica,sans-Serif" font-size="10.00">+ ObjPart()</text>
<text text-anchor="start" x="36.5" y="-18.5" font-family="Helvetica,sans-Serif" font-size="10.00">+ ObjPart()</text>
<text text-anchor="start" x="36.5" y="-7.5" font-family="Helvetica,sans-Serif" font-size="10.00">+ load()</text>
</a>
</g>
</g>
<!-- Node2 -->
<g id="node2" class="node">
<title>Node2</title>
<g id="a_node2"><a xlink:href="classcie_1_1gl_1_1Triangulated3DPart.html" target="_top" xlink:title=" ">
<polygon fill="white" stroke="black" points="0,-116.5 0,-206.5 144,-206.5 144,-116.5 0,-116.5"/>
<text text-anchor="middle" x="72" y="-194.5" font-family="Helvetica,sans-Serif" font-size="10.00">cie::gl::Triangulated3DPart</text>
<polyline fill="none" stroke="black" points="0,-187.5 144,-187.5 "/>
<text text-anchor="middle" x="72" y="-175.5" font-family="Helvetica,sans-Serif" font-size="10.00"> </text>
<polyline fill="none" stroke="black" points="0,-168.5 144,-168.5 "/>
<text text-anchor="start" x="8" y="-156.5" font-family="Helvetica,sans-Serif" font-size="10.00">+ dimension()</text>
<text text-anchor="start" x="8" y="-145.5" font-family="Helvetica,sans-Serif" font-size="10.00">+ vertexAttributeSize()</text>
<text text-anchor="start" x="8" y="-134.5" font-family="Helvetica,sans-Serif" font-size="10.00">+ primitiveVertexSize()</text>
<text text-anchor="start" x="8" y="-123.5" font-family="Helvetica,sans-Serif" font-size="10.00">+ writeSTL()</text>
</a>
</g>
</g>
<!-- Node2&#45;&gt;Node1 -->
<g id="edge1" class="edge">
<title>Node2&#45;&gt;Node1</title>
<path fill="none" stroke="midnightblue" d="M72,-106.08C72,-97.23 72,-88.23 72,-79.86"/>
<polygon fill="none" stroke="midnightblue" points="68.5,-106.34 72,-116.34 75.5,-106.34 68.5,-106.34"/>
</g>
<!-- Node3 -->
<g id="node3" class="node">
<title>Node3</title>
<g id="a_node3"><a xlink:href="classcie_1_1gl_1_1Part.html" target="_top" xlink:title=" ">
<polygon fill="white" stroke="black" points="0.5,-243.5 0.5,-487.5 143.5,-487.5 143.5,-243.5 0.5,-243.5"/>
<text text-anchor="middle" x="72" y="-475.5" font-family="Helvetica,sans-Serif" font-size="10.00">cie::gl::Part</text>
<polyline fill="none" stroke="black" points="0.5,-468.5 143.5,-468.5 "/>
<text text-anchor="start" x="8.5" y="-456.5" font-family="Helvetica,sans-Serif" font-size="10.00"># _p_attributes</text>
<text text-anchor="start" x="8.5" y="-445.5" font-family="Helvetica,sans-Serif" font-size="10.00"># _indices</text>
<polyline fill="none" stroke="black" points="0.5,-438.5 143.5,-438.5 "/>
<text text-anchor="start" x="8.5" y="-426.5" font-family="Helvetica,sans-Serif" font-size="10.00">+ Part()</text>
<text text-anchor="start" x="8.5" y="-415.5" font-family="Helvetica,sans-Serif" font-size="10.00">+ attributeByteCount()</text>
<text text-anchor="start" x="8.5" y="-404.5" font-family="Helvetica,sans-Serif" font-size="10.00">+ indexByteCount()</text>
<text text-anchor="start" x="8.5" y="-393.5" font-family="Helvetica,sans-Serif" font-size="10.00">+ numberOfVertices()</text>
<text text-anchor="start" x="8.5" y="-382.5" font-family="Helvetica,sans-Serif" font-size="10.00">+ numberOfPrimitives()</text>
<text text-anchor="start" x="8.5" y="-371.5" font-family="Helvetica,sans-Serif" font-size="10.00">+ load()</text>
<text text-anchor="start" x="8.5" y="-360.5" font-family="Helvetica,sans-Serif" font-size="10.00">+ attributes()</text>
<text text-anchor="start" x="8.5" y="-349.5" font-family="Helvetica,sans-Serif" font-size="10.00">+ indices()</text>
<text text-anchor="start" x="8.5" y="-338.5" font-family="Helvetica,sans-Serif" font-size="10.00">+ dimension()</text>
<text text-anchor="start" x="8.5" y="-327.5" font-family="Helvetica,sans-Serif" font-size="10.00">+ vertexAttributeSize()</text>
<text text-anchor="start" x="8.5" y="-316.5" font-family="Helvetica,sans-Serif" font-size="10.00">+ primitiveVertexSize()</text>
<text text-anchor="start" x="8.5" y="-305.5" font-family="Helvetica,sans-Serif" font-size="10.00">+ primitiveAttributeSize()</text>
<text text-anchor="start" x="8.5" y="-294.5" font-family="Helvetica,sans-Serif" font-size="10.00">+ primitiveByteSize()</text>
<text text-anchor="start" x="8.5" y="-283.5" font-family="Helvetica,sans-Serif" font-size="10.00">+ writeSTL()</text>
<text text-anchor="start" x="8.5" y="-272.5" font-family="Helvetica,sans-Serif" font-size="10.00"># Part()</text>
<text text-anchor="start" x="8.5" y="-261.5" font-family="Helvetica,sans-Serif" font-size="10.00"># Part()</text>
<text text-anchor="start" x="8.5" y="-250.5" font-family="Helvetica,sans-Serif" font-size="10.00"># operator=()</text>
</a>
</g>
</g>
<!-- Node3&#45;&gt;Node2 -->
<g id="edge2" class="edge">
<title>Node3&#45;&gt;Node2</title>
<path fill="none" stroke="midnightblue" d="M72,-233.47C72,-223.97 72,-214.85 72,-206.51"/>
<polygon fill="none" stroke="midnightblue" points="68.5,-233.5 72,-243.5 75.5,-233.5 68.5,-233.5"/>
</g>
<!-- Node4 -->
<g id="node4" class="node">
<title>Node4</title>
<g id="a_node4"><a xlink:href="structcie_1_1gl_1_1GLTraits.html" target="_top" xlink:title=" ">
<polygon fill="white" stroke="black" points="27,-524.5 27,-581.5 117,-581.5 117,-524.5 27,-524.5"/>
<text text-anchor="middle" x="72" y="-569.5" font-family="Helvetica,sans-Serif" font-size="10.00">cie::gl::GLTraits</text>
<polyline fill="none" stroke="black" points="27,-562.5 117,-562.5 "/>
<text text-anchor="middle" x="72" y="-550.5" font-family="Helvetica,sans-Serif" font-size="10.00"> </text>
<polyline fill="none" stroke="black" points="27,-543.5 117,-543.5 "/>
<text text-anchor="middle" x="72" y="-531.5" font-family="Helvetica,sans-Serif" font-size="10.00"> </text>
</a>
</g>
</g>
<!-- Node4&#45;&gt;Node3 -->
<g id="edge3" class="edge">
<title>Node4&#45;&gt;Node3</title>
<path fill="none" stroke="midnightblue" d="M72,-514.14C72,-506.05 72,-497.1 72,-487.72"/>
<polygon fill="none" stroke="midnightblue" points="68.5,-514.23 72,-524.23 75.5,-514.23 68.5,-514.23"/>
</g>
</g>
</svg>
