<?xml version="1.0" encoding="UTF-8" standalone="no"?>
<!DOCTYPE svg PUBLIC "-//W3C//DTD SVG 1.1//EN"
 "http://www.w3.org/Graphics/SVG/1.1/DTD/svg11.dtd">
<!-- Generated by graphviz version 2.43.0 (0)
 -->
<!-- Title: modules.glvisuals.linemarkercanvas.LineMarkerCanvasEditEvents Pages: 1 -->
<svg width="206pt" height="215pt"
 viewBox="0.00 0.00 206.00 215.00" xmlns="http://www.w3.org/2000/svg" xmlns:xlink="http://www.w3.org/1999/xlink">
<g id="graph0" class="graph" transform="scale(1 1) rotate(0) translate(4 211)">
<title>modules.glvisuals.linemarkercanvas.LineMarkerCanvasEditEvents</title>
<polygon fill="white" stroke="transparent" points="-4,4 -4,-211 202,-211 202,4 -4,4"/>
<!-- Node1 -->
<g id="node1" class="node">
<title>Node1</title>
<g id="a_node1"><a xlink:title=" ">
<polygon fill="#bfbfbf" stroke="black" points="0,-0.5 0,-112.5 198,-112.5 198,-0.5 0,-0.5"/>
<text text-anchor="start" x="8" y="-100.5" font-family="Helvetica,sans-Serif" font-size="10.00">modules.glvisuals.linemarkercanvas.</text>
<text text-anchor="middle" x="99" y="-89.5" font-family="Helvetica,sans-Serif" font-size="10.00">LineMarkerCanvasEditEvents</text>
<polyline fill="none" stroke="black" points="0,-82.5 198,-82.5 "/>
<text text-anchor="middle" x="99" y="-70.5" font-family="Helvetica,sans-Serif" font-size="10.00"> </text>
<polyline fill="none" stroke="black" points="0,-63.5 198,-63.5 "/>
<text text-anchor="start" x="8" y="-51.5" font-family="Helvetica,sans-Serif" font-size="10.00">+ __init__()</text>
<text text-anchor="start" x="8" y="-40.5" font-family="Helvetica,sans-Serif" font-size="10.00">+ on_mouse_press()</text>
<text text-anchor="start" x="8" y="-29.5" font-family="Helvetica,sans-Serif" font-size="10.00">+ on_mouse_release()</text>
<text text-anchor="start" x="8" y="-18.5" font-family="Helvetica,sans-Serif" font-size="10.00">+ on_mouse_move()</text>
<text text-anchor="start" x="8" y="-7.5" font-family="Helvetica,sans-Serif" font-size="10.00">+ on_mouse_drag()</text>
</a>
</g>
</g>
<!-- Node2 -->
<g id="node2" class="node">
<title>Node2</title>
<g id="a_node2"><a xlink:title=" ">
<polygon fill="white" stroke="#bfbfbf" points="44.5,-149.5 44.5,-206.5 153.5,-206.5 153.5,-149.5 44.5,-149.5"/>
<text text-anchor="middle" x="99" y="-194.5" font-family="Helvetica,sans-Serif" font-size="10.00">EventHandlerClass</text>
<polyline fill="none" stroke="#bfbfbf" points="44.5,-187.5 153.5,-187.5 "/>
<text text-anchor="middle" x="99" y="-175.5" font-family="Helvetica,sans-Serif" font-size="10.00"> </text>
<polyline fill="none" stroke="#bfbfbf" points="44.5,-168.5 153.5,-168.5 "/>
<text text-anchor="middle" x="99" y="-156.5" font-family="Helvetica,sans-Serif" font-size="10.00"> </text>
</a>
</g>
</g>
<!-- Node2&#45;&gt;Node1 -->
<g id="edge1" class="edge">
<title>Node2&#45;&gt;Node1</title>
<path fill="none" stroke="midnightblue" d="M99,-139.11C99,-130.75 99,-121.73 99,-112.83"/>
<polygon fill="none" stroke="midnightblue" points="95.5,-139.28 99,-149.28 102.5,-139.28 95.5,-139.28"/>
</g>
</g>
</svg>
