<?xml version="1.0" encoding="UTF-8" standalone="no"?>
<!DOCTYPE svg PUBLIC "-//W3C//DTD SVG 1.1//EN"
 "http://www.w3.org/Graphics/SVG/1.1/DTD/svg11.dtd">
<!-- Generated by graphviz version 2.43.0 (0)
 -->
<!-- Title: cie::gl::GLFWContext Pages: 1 -->
<svg width="338pt" height="387pt"
 viewBox="0.00 0.00 338.00 387.00" xmlns="http://www.w3.org/2000/svg" xmlns:xlink="http://www.w3.org/1999/xlink">
<g id="graph0" class="graph" transform="scale(1 1) rotate(0) translate(4 383)">
<title>cie::gl::GLFWContext</title>
<polygon fill="white" stroke="transparent" points="-4,4 -4,-383 334,-383 334,4 -4,4"/>
<!-- Node1 -->
<g id="node1" class="node">
<title>Node1</title>
<g id="a_node1"><a xlink:title="Class representing a GLFW context.">
<polygon fill="#bfbfbf" stroke="black" points="105.5,-0.5 105.5,-79.5 224.5,-79.5 224.5,-0.5 105.5,-0.5"/>
<text text-anchor="middle" x="165" y="-67.5" font-family="Helvetica,sans-Serif" font-size="10.00">cie::gl::GLFWContext</text>
<polyline fill="none" stroke="black" points="105.5,-60.5 224.5,-60.5 "/>
<text text-anchor="middle" x="165" y="-48.5" font-family="Helvetica,sans-Serif" font-size="10.00"> </text>
<polyline fill="none" stroke="black" points="105.5,-41.5 224.5,-41.5 "/>
<text text-anchor="start" x="113.5" y="-29.5" font-family="Helvetica,sans-Serif" font-size="10.00">+ ~GLFWContext()</text>
<text text-anchor="start" x="113.5" y="-18.5" font-family="Helvetica,sans-Serif" font-size="10.00">+ focusWindow()</text>
<text text-anchor="start" x="113.5" y="-7.5" font-family="Helvetica,sans-Serif" font-size="10.00">+ makeCurrent()</text>
</a>
</g>
</g>
<!-- Node2 -->
<g id="node2" class="node">
<title>Node2</title>
<g id="a_node2"><a xlink:href="classcie_1_1gl_1_1AbsContext.html" target="_top" xlink:title=" ">
<polygon fill="white" stroke="black" points="104,-117.5 104,-262.5 226,-262.5 226,-117.5 104,-117.5"/>
<text text-anchor="middle" x="165" y="-250.5" font-family="Helvetica,sans-Serif" font-size="10.00">cie::gl::AbsContext</text>
<polyline fill="none" stroke="black" points="104,-243.5 226,-243.5 "/>
<text text-anchor="middle" x="165" y="-231.5" font-family="Helvetica,sans-Serif" font-size="10.00"> </text>
<polyline fill="none" stroke="black" points="104,-224.5 226,-224.5 "/>
<text text-anchor="start" x="112" y="-212.5" font-family="Helvetica,sans-Serif" font-size="10.00">+ AbsContext()</text>
<text text-anchor="start" x="112" y="-201.5" font-family="Helvetica,sans-Serif" font-size="10.00">+ ~AbsContext()</text>
<text text-anchor="start" x="112" y="-190.5" font-family="Helvetica,sans-Serif" font-size="10.00">+ version()</text>
<text text-anchor="start" x="112" y="-179.5" font-family="Helvetica,sans-Serif" font-size="10.00">+ MSAASamples()</text>
<text text-anchor="start" x="112" y="-168.5" font-family="Helvetica,sans-Serif" font-size="10.00">+ newWindow()</text>
<text text-anchor="start" x="112" y="-157.5" font-family="Helvetica,sans-Serif" font-size="10.00">+ focusWindow()</text>
<text text-anchor="start" x="112" y="-146.5" font-family="Helvetica,sans-Serif" font-size="10.00">+ logger()</text>
<text text-anchor="start" x="112" y="-135.5" font-family="Helvetica,sans-Serif" font-size="10.00"># newWindowImpl()</text>
<text text-anchor="start" x="112" y="-124.5" font-family="Helvetica,sans-Serif" font-size="10.00"># closeWindowImpl()</text>
</a>
</g>
</g>
<!-- Node2&#45;&gt;Node1 -->
<g id="edge1" class="edge">
<title>Node2&#45;&gt;Node1</title>
<path fill="none" stroke="midnightblue" d="M165,-107.15C165,-97.58 165,-88.18 165,-79.61"/>
<polygon fill="none" stroke="midnightblue" points="161.5,-107.17 165,-117.17 168.5,-107.17 161.5,-107.17"/>
</g>
<!-- Node3 -->
<g id="node3" class="node">
<title>Node3</title>
<g id="a_node3"><a xlink:title=" ">
<polygon fill="white" stroke="#bfbfbf" points="0,-321.5 0,-378.5 124,-378.5 124,-321.5 0,-321.5"/>
<text text-anchor="middle" x="62" y="-366.5" font-family="Helvetica,sans-Serif" font-size="10.00">shared_ptr&lt; Logger &gt;</text>
<polyline fill="none" stroke="#bfbfbf" points="0,-359.5 124,-359.5 "/>
<text text-anchor="middle" x="62" y="-347.5" font-family="Helvetica,sans-Serif" font-size="10.00"> </text>
<polyline fill="none" stroke="#bfbfbf" points="0,-340.5 124,-340.5 "/>
<text text-anchor="middle" x="62" y="-328.5" font-family="Helvetica,sans-Serif" font-size="10.00"> </text>
</a>
</g>
</g>
<!-- Node3&#45;&gt;Node2 -->
<g id="edge2" class="edge">
<title>Node3&#45;&gt;Node2</title>
<path fill="none" stroke="#404040" d="M77.67,-321.24C84.86,-308.79 93.63,-294.02 102,-281 103.67,-278.4 105.38,-275.77 107.12,-273.13"/>
<polygon fill="none" stroke="#404040" points="107.3,-272.86 107.29,-265.65 113.94,-262.87 113.95,-270.08 107.3,-272.86"/>
<text text-anchor="middle" x="131.5" y="-289.5" font-family="Helvetica,sans-Serif" font-size="10.00"> #_p_logger</text>
</g>
<!-- Node4 -->
<g id="node4" class="node">
<title>Node4</title>
<g id="a_node4"><a xlink:title=" ">
<polygon fill="white" stroke="#bfbfbf" points="142.5,-321.5 142.5,-378.5 187.5,-378.5 187.5,-321.5 142.5,-321.5"/>
<text text-anchor="middle" x="165" y="-366.5" font-family="Helvetica,sans-Serif" font-size="10.00">size_t</text>
<polyline fill="none" stroke="#bfbfbf" points="142.5,-359.5 187.5,-359.5 "/>
<text text-anchor="middle" x="165" y="-347.5" font-family="Helvetica,sans-Serif" font-size="10.00"> </text>
<polyline fill="none" stroke="#bfbfbf" points="142.5,-340.5 187.5,-340.5 "/>
<text text-anchor="middle" x="165" y="-328.5" font-family="Helvetica,sans-Serif" font-size="10.00"> </text>
</a>
</g>
</g>
<!-- Node4&#45;&gt;Node2 -->
<g id="edge3" class="edge">
<title>Node4&#45;&gt;Node2</title>
<path fill="none" stroke="#404040" d="M165,-321.48C165,-308.32 165,-291.78 165,-274.94"/>
<polygon fill="none" stroke="#404040" points="165,-274.67 161,-268.67 165,-262.67 169,-268.67 165,-274.67"/>
<text text-anchor="middle" x="210" y="-295" font-family="Helvetica,sans-Serif" font-size="10.00"> #_MSAASamples</text>
<text text-anchor="middle" x="210" y="-284" font-family="Helvetica,sans-Serif" font-size="10.00">#_windowCounter</text>
</g>
<!-- Node5 -->
<g id="node5" class="node">
<title>Node5</title>
<g id="a_node5"><a xlink:title=" ">
<polygon fill="white" stroke="#bfbfbf" points="226,-321.5 226,-378.5 330,-378.5 330,-321.5 226,-321.5"/>
<text text-anchor="middle" x="278" y="-366.5" font-family="Helvetica,sans-Serif" font-size="10.00">pair&lt; Size, Size &gt;</text>
<polyline fill="none" stroke="#bfbfbf" points="226,-359.5 330,-359.5 "/>
<text text-anchor="middle" x="278" y="-347.5" font-family="Helvetica,sans-Serif" font-size="10.00"> </text>
<polyline fill="none" stroke="#bfbfbf" points="226,-340.5 330,-340.5 "/>
<text text-anchor="middle" x="278" y="-328.5" font-family="Helvetica,sans-Serif" font-size="10.00"> </text>
</a>
</g>
</g>
<!-- Node5&#45;&gt;Node2 -->
<g id="edge4" class="edge">
<title>Node5&#45;&gt;Node2</title>
<path fill="none" stroke="#404040" d="M272.23,-321.23C268.77,-308.37 263.55,-293.26 256,-281 249.95,-271.17 242.6,-261.62 234.74,-252.65"/>
<polygon fill="none" stroke="#404040" points="234.49,-252.37 227.49,-250.64 226.39,-243.52 233.39,-245.25 234.49,-252.37"/>
<text text-anchor="middle" x="292.5" y="-289.5" font-family="Helvetica,sans-Serif" font-size="10.00"> #_version</text>
</g>
</g>
</svg>
