<?xml version="1.0" encoding="UTF-8" standalone="no"?>
<!DOCTYPE svg PUBLIC "-//W3C//DTD SVG 1.1//EN"
 "http://www.w3.org/Graphics/SVG/1.1/DTD/svg11.dtd">
<!-- Generated by graphviz version 2.43.0 (0)
 -->
<!-- Title: cie::gl::Scene Pages: 1 -->
<svg width="942pt" height="617pt"
 viewBox="0.00 0.00 941.50 617.00" xmlns="http://www.w3.org/2000/svg" xmlns:xlink="http://www.w3.org/1999/xlink">
<g id="graph0" class="graph" transform="scale(1 1) rotate(0) translate(4 613)">
<title>cie::gl::Scene</title>
<polygon fill="white" stroke="transparent" points="-4,4 -4,-613 937.5,-613 937.5,4 -4,4"/>
<!-- Node1 -->
<g id="node1" class="node">
<title>Node1</title>
<g id="a_node1"><a xlink:title=" ">
<polygon fill="#bfbfbf" stroke="black" points="435,-0.5 435,-178.5 546,-178.5 546,-0.5 435,-0.5"/>
<text text-anchor="middle" x="490.5" y="-166.5" font-family="Helvetica,sans-Serif" font-size="10.00">cie::gl::Scene</text>
<polyline fill="none" stroke="black" points="435,-159.5 546,-159.5 "/>
<text text-anchor="middle" x="490.5" y="-147.5" font-family="Helvetica,sans-Serif" font-size="10.00"> </text>
<polyline fill="none" stroke="black" points="435,-140.5 546,-140.5 "/>
<text text-anchor="start" x="443" y="-128.5" font-family="Helvetica,sans-Serif" font-size="10.00">+ Scene()</text>
<text text-anchor="start" x="443" y="-117.5" font-family="Helvetica,sans-Serif" font-size="10.00">+ ~Scene()</text>
<text text-anchor="start" x="443" y="-106.5" font-family="Helvetica,sans-Serif" font-size="10.00">+ update()</text>
<text text-anchor="start" x="443" y="-95.5" font-family="Helvetica,sans-Serif" font-size="10.00">+ activate()</text>
<text text-anchor="start" x="443" y="-84.5" font-family="Helvetica,sans-Serif" font-size="10.00">+ isActive()</text>
<text text-anchor="start" x="443" y="-73.5" font-family="Helvetica,sans-Serif" font-size="10.00">+ makeCamera()</text>
<text text-anchor="start" x="443" y="-62.5" font-family="Helvetica,sans-Serif" font-size="10.00">+ addCamera()</text>
<text text-anchor="start" x="443" y="-51.5" font-family="Helvetica,sans-Serif" font-size="10.00">+ removeCamera()</text>
<text text-anchor="start" x="443" y="-40.5" font-family="Helvetica,sans-Serif" font-size="10.00">+ cameras()</text>
<text text-anchor="start" x="443" y="-29.5" font-family="Helvetica,sans-Serif" font-size="10.00">+ camera()</text>
<text text-anchor="start" x="443" y="-18.5" font-family="Helvetica,sans-Serif" font-size="10.00">and 15 more...</text>
<text text-anchor="start" x="443" y="-7.5" font-family="Helvetica,sans-Serif" font-size="10.00"># update_impl()</text>
</a>
</g>
</g>
<!-- Node2 -->
<g id="node2" class="node">
<title>Node2</title>
<g id="a_node2"><a target="_parent" xlink:href="../../../cieutils/docs/html/classcie_1_1utils_1_1Loggee.html" xlink:title=" ">
<polygon fill="white" stroke="black" points="16,-248.5 16,-404.5 115,-404.5 115,-248.5 16,-248.5"/>
<text text-anchor="middle" x="65.5" y="-392.5" font-family="Helvetica,sans-Serif" font-size="10.00">cie::utils::Loggee</text>
<polyline fill="none" stroke="black" points="16,-385.5 115,-385.5 "/>
<text text-anchor="middle" x="65.5" y="-373.5" font-family="Helvetica,sans-Serif" font-size="10.00"> </text>
<polyline fill="none" stroke="black" points="16,-366.5 115,-366.5 "/>
<text text-anchor="start" x="24" y="-354.5" font-family="Helvetica,sans-Serif" font-size="10.00">+ Loggee()</text>
<text text-anchor="start" x="24" y="-343.5" font-family="Helvetica,sans-Serif" font-size="10.00">+ ~Loggee()</text>
<text text-anchor="start" x="24" y="-332.5" font-family="Helvetica,sans-Serif" font-size="10.00">+ log()</text>
<text text-anchor="start" x="24" y="-321.5" font-family="Helvetica,sans-Serif" font-size="10.00">+ logID()</text>
<text text-anchor="start" x="24" y="-310.5" font-family="Helvetica,sans-Serif" font-size="10.00">+ tic()</text>
<text text-anchor="start" x="24" y="-299.5" font-family="Helvetica,sans-Serif" font-size="10.00">+ toc()</text>
<text text-anchor="start" x="24" y="-288.5" font-family="Helvetica,sans-Serif" font-size="10.00">+ toc()</text>
<text text-anchor="start" x="24" y="-277.5" font-family="Helvetica,sans-Serif" font-size="10.00">+ newBlock()</text>
<text text-anchor="start" x="24" y="-266.5" font-family="Helvetica,sans-Serif" font-size="10.00">+ separate()</text>
<text text-anchor="start" x="24" y="-255.5" font-family="Helvetica,sans-Serif" font-size="10.00"># logger()</text>
</a>
</g>
</g>
<!-- Node2&#45;&gt;Node1 -->
<g id="edge1" class="edge">
<title>Node2&#45;&gt;Node1</title>
<path fill="none" stroke="midnightblue" d="M122.71,-249.43C123.3,-248.94 123.9,-248.47 124.5,-248 220.85,-172.72 358.62,-126.31 434.69,-104.79"/>
<polygon fill="none" stroke="midnightblue" points="120.36,-246.84 115.16,-256.07 124.98,-252.09 120.36,-246.84"/>
</g>
<!-- Node3 -->
<g id="node3" class="node">
<title>Node3</title>
<g id="a_node3"><a target="_parent" xlink:href="../../../cieutils/docs/html/classcie_1_1utils_1_1NamedObject.html" xlink:title=" ">
<polygon fill="white" stroke="black" points="0,-452.5 0,-608.5 131,-608.5 131,-452.5 0,-452.5"/>
<text text-anchor="middle" x="65.5" y="-596.5" font-family="Helvetica,sans-Serif" font-size="10.00">cie::utils::NamedObject</text>
<polyline fill="none" stroke="black" points="0,-589.5 131,-589.5 "/>
<text text-anchor="middle" x="65.5" y="-577.5" font-family="Helvetica,sans-Serif" font-size="10.00"> </text>
<polyline fill="none" stroke="black" points="0,-570.5 131,-570.5 "/>
<text text-anchor="start" x="8" y="-558.5" font-family="Helvetica,sans-Serif" font-size="10.00">+ NamedObject()</text>
<text text-anchor="start" x="8" y="-547.5" font-family="Helvetica,sans-Serif" font-size="10.00">+ NamedObject()</text>
<text text-anchor="start" x="8" y="-536.5" font-family="Helvetica,sans-Serif" font-size="10.00">+ NamedObject()</text>
<text text-anchor="start" x="8" y="-525.5" font-family="Helvetica,sans-Serif" font-size="10.00">+ NamedObject()</text>
<text text-anchor="start" x="8" y="-514.5" font-family="Helvetica,sans-Serif" font-size="10.00">+ operator=()</text>
<text text-anchor="start" x="8" y="-503.5" font-family="Helvetica,sans-Serif" font-size="10.00">+ operator=()</text>
<text text-anchor="start" x="8" y="-492.5" font-family="Helvetica,sans-Serif" font-size="10.00">+ name()</text>
<text text-anchor="start" x="8" y="-481.5" font-family="Helvetica,sans-Serif" font-size="10.00">+ setName()</text>
<text text-anchor="start" x="8" y="-470.5" font-family="Helvetica,sans-Serif" font-size="10.00">+ setName()</text>
<text text-anchor="start" x="8" y="-459.5" font-family="Helvetica,sans-Serif" font-size="10.00">+ ~NamedObject()</text>
</a>
</g>
</g>
<!-- Node3&#45;&gt;Node2 -->
<g id="edge2" class="edge">
<title>Node3&#45;&gt;Node2</title>
<path fill="none" stroke="midnightblue" d="M65.5,-441.94C65.5,-429.54 65.5,-416.87 65.5,-404.69"/>
<polygon fill="none" stroke="midnightblue" points="62,-442.27 65.5,-452.27 69,-442.27 62,-442.27"/>
</g>
<!-- Node4 -->
<g id="node4" class="node">
<title>Node4</title>
<g id="a_node4"><a target="_parent" xlink:href="../../../cieutils/docs/html/classcie_1_1utils_1_1IDObject.html" xlink:title=" ">
<polygon fill="white" stroke="black" points="133.5,-254 133.5,-399 239.5,-399 239.5,-254 133.5,-254"/>
<text text-anchor="start" x="141.5" y="-387" font-family="Helvetica,sans-Serif" font-size="10.00">cie::utils::IDObject</text>
<text text-anchor="middle" x="186.5" y="-376" font-family="Helvetica,sans-Serif" font-size="10.00">&lt; class &gt;</text>
<polyline fill="none" stroke="black" points="133.5,-369 239.5,-369 "/>
<text text-anchor="middle" x="186.5" y="-357" font-family="Helvetica,sans-Serif" font-size="10.00"> </text>
<polyline fill="none" stroke="black" points="133.5,-350 239.5,-350 "/>
<text text-anchor="start" x="141.5" y="-338" font-family="Helvetica,sans-Serif" font-size="10.00">+ IDObject()</text>
<text text-anchor="start" x="141.5" y="-327" font-family="Helvetica,sans-Serif" font-size="10.00">+ IDObject()</text>
<text text-anchor="start" x="141.5" y="-316" font-family="Helvetica,sans-Serif" font-size="10.00">+ IDObject()</text>
<text text-anchor="start" x="141.5" y="-305" font-family="Helvetica,sans-Serif" font-size="10.00">+ IDObject()</text>
<text text-anchor="start" x="141.5" y="-294" font-family="Helvetica,sans-Serif" font-size="10.00">+ operator=()</text>
<text text-anchor="start" x="141.5" y="-283" font-family="Helvetica,sans-Serif" font-size="10.00">+ operator=()</text>
<text text-anchor="start" x="141.5" y="-272" font-family="Helvetica,sans-Serif" font-size="10.00">+ setID()</text>
<text text-anchor="start" x="141.5" y="-261" font-family="Helvetica,sans-Serif" font-size="10.00">+ getID()</text>
</a>
</g>
</g>
<!-- Node4&#45;&gt;Node1 -->
<g id="edge3" class="edge">
<title>Node4&#45;&gt;Node1</title>
<path fill="none" stroke="midnightblue" d="M239.96,-245.75C253.83,-228.4 269.65,-211.06 286.5,-197 331.29,-159.63 391.34,-130.25 434.68,-111.89"/>
<polygon fill="none" stroke="midnightblue" points="237.14,-243.67 233.73,-253.7 242.65,-247.99 237.14,-243.67"/>
</g>
<!-- Node5 -->
<g id="node5" class="node">
<title>Node5</title>
<g id="a_node5"><a xlink:title=" ">
<polygon fill="white" stroke="#bfbfbf" points="170,-502 170,-559 203,-559 203,-502 170,-502"/>
<text text-anchor="middle" x="186.5" y="-547" font-family="Helvetica,sans-Serif" font-size="10.00">TID</text>
<polyline fill="none" stroke="#bfbfbf" points="170,-540 203,-540 "/>
<text text-anchor="middle" x="186.5" y="-528" font-family="Helvetica,sans-Serif" font-size="10.00"> </text>
<polyline fill="none" stroke="#bfbfbf" points="170,-521 203,-521 "/>
<text text-anchor="middle" x="186.5" y="-509" font-family="Helvetica,sans-Serif" font-size="10.00"> </text>
</a>
</g>
</g>
<!-- Node5&#45;&gt;Node4 -->
<g id="edge4" class="edge">
<title>Node5&#45;&gt;Node4</title>
<path fill="none" stroke="#404040" d="M186.5,-501.84C186.5,-478.46 186.5,-443.71 186.5,-411.37"/>
<polygon fill="none" stroke="#404040" points="186.5,-411.12 182.5,-405.12 186.5,-399.12 190.5,-405.12 186.5,-411.12"/>
<text text-anchor="middle" x="199.5" y="-426" font-family="Helvetica,sans-Serif" font-size="10.00"> #_id</text>
</g>
<!-- Node6 -->
<g id="node6" class="node">
<title>Node6</title>
<g id="a_node6"><a xlink:title=" ">
<polygon fill="white" stroke="#bfbfbf" points="257.5,-298 257.5,-355 361.5,-355 361.5,-298 257.5,-298"/>
<text text-anchor="middle" x="309.5" y="-343" font-family="Helvetica,sans-Serif" font-size="10.00">list&lt; TexturePtr &gt;</text>
<polyline fill="none" stroke="#bfbfbf" points="257.5,-336 361.5,-336 "/>
<text text-anchor="middle" x="309.5" y="-324" font-family="Helvetica,sans-Serif" font-size="10.00"> </text>
<polyline fill="none" stroke="#bfbfbf" points="257.5,-317 361.5,-317 "/>
<text text-anchor="middle" x="309.5" y="-305" font-family="Helvetica,sans-Serif" font-size="10.00"> </text>
</a>
</g>
</g>
<!-- Node6&#45;&gt;Node1 -->
<g id="edge5" class="edge">
<title>Node6&#45;&gt;Node1</title>
<path fill="none" stroke="#404040" d="M299.36,-297.87C291.09,-270.35 283.46,-227.88 301.5,-197 327.61,-152.32 380.14,-124.92 423.2,-109.12"/>
<polygon fill="none" stroke="#404040" points="423.46,-109.04 427.8,-103.28 434.78,-105.07 430.44,-110.83 423.46,-109.04"/>
<text text-anchor="middle" x="330.5" y="-211" font-family="Helvetica,sans-Serif" font-size="10.00"> #_textures</text>
</g>
<!-- Node7 -->
<g id="node7" class="node">
<title>Node7</title>
<g id="a_node7"><a xlink:title=" ">
<polygon fill="white" stroke="#bfbfbf" points="414,-298 414,-355 499,-355 499,-298 414,-298"/>
<text text-anchor="middle" x="456.5" y="-343" font-family="Helvetica,sans-Serif" font-size="10.00">SharedPointer</text>
<polyline fill="none" stroke="#bfbfbf" points="414,-336 499,-336 "/>
<text text-anchor="middle" x="456.5" y="-324" font-family="Helvetica,sans-Serif" font-size="10.00"> </text>
<polyline fill="none" stroke="#bfbfbf" points="414,-317 499,-317 "/>
<text text-anchor="middle" x="456.5" y="-305" font-family="Helvetica,sans-Serif" font-size="10.00"> </text>
</a>
</g>
</g>
<!-- Node7&#45;&gt;Node1 -->
<g id="edge6" class="edge">
<title>Node7&#45;&gt;Node1</title>
<path fill="none" stroke="#404040" d="M416.61,-297.88C385.93,-272.95 351.44,-234.54 368.5,-197 380.56,-170.47 402.85,-147.96 425.12,-130.57"/>
<polygon fill="none" stroke="#404040" points="425.37,-130.38 427.77,-123.58 434.97,-123.19 432.57,-129.99 425.37,-130.38"/>
<text text-anchor="middle" x="418.5" y="-211" font-family="Helvetica,sans-Serif" font-size="10.00"> #_p_bufferManager</text>
</g>
<!-- Node7&#45;&gt;Node1 -->
<g id="edge9" class="edge">
<title>Node7&#45;&gt;Node1</title>
<path fill="none" stroke="#404040" d="M460.53,-297.62C464.38,-271.07 470.39,-229.48 476.03,-190.51"/>
<polygon fill="none" stroke="#404040" points="476.05,-190.4 472.95,-183.89 477.76,-178.52 480.86,-185.04 476.05,-190.4"/>
<text text-anchor="middle" x="528" y="-222" font-family="Helvetica,sans-Serif" font-size="10.00"> #_p_fragmentShader</text>
<text text-anchor="middle" x="528" y="-211" font-family="Helvetica,sans-Serif" font-size="10.00">#_p_geometryShader</text>
<text text-anchor="middle" x="528" y="-200" font-family="Helvetica,sans-Serif" font-size="10.00">#_p_vertexShader</text>
</g>
<!-- Node8 -->
<g id="node8" class="node">
<title>Node8</title>
<g id="a_node8"><a xlink:title=" ">
<polygon fill="white" stroke="#bfbfbf" points="555.5,-298 555.5,-355 675.5,-355 675.5,-298 555.5,-298"/>
<text text-anchor="middle" x="615.5" y="-343" font-family="Helvetica,sans-Serif" font-size="10.00">list&lt; GLUniformPtr &gt;</text>
<polyline fill="none" stroke="#bfbfbf" points="555.5,-336 675.5,-336 "/>
<text text-anchor="middle" x="615.5" y="-324" font-family="Helvetica,sans-Serif" font-size="10.00"> </text>
<polyline fill="none" stroke="#bfbfbf" points="555.5,-317 675.5,-317 "/>
<text text-anchor="middle" x="615.5" y="-305" font-family="Helvetica,sans-Serif" font-size="10.00"> </text>
</a>
</g>
</g>
<!-- Node8&#45;&gt;Node1 -->
<g id="edge7" class="edge">
<title>Node8&#45;&gt;Node1</title>
<path fill="none" stroke="#404040" d="M613.04,-297.8C609.74,-270.81 602.23,-229.23 585.5,-197 577.24,-181.1 566.07,-165.68 554.29,-151.75"/>
<polygon fill="none" stroke="#404040" points="553.97,-151.38 547.01,-149.5 546.07,-142.35 553.03,-144.23 553.97,-151.38"/>
<text text-anchor="middle" x="628" y="-211" font-family="Helvetica,sans-Serif" font-size="10.00"> #_uniforms</text>
</g>
<!-- Node9 -->
<g id="node9" class="node">
<title>Node9</title>
<g id="a_node9"><a xlink:title=" ">
<polygon fill="white" stroke="#bfbfbf" points="694,-298 694,-355 739,-355 739,-298 694,-298"/>
<text text-anchor="middle" x="716.5" y="-343" font-family="Helvetica,sans-Serif" font-size="10.00">size_t</text>
<polyline fill="none" stroke="#bfbfbf" points="694,-336 739,-336 "/>
<text text-anchor="middle" x="716.5" y="-324" font-family="Helvetica,sans-Serif" font-size="10.00"> </text>
<polyline fill="none" stroke="#bfbfbf" points="694,-317 739,-317 "/>
<text text-anchor="middle" x="716.5" y="-305" font-family="Helvetica,sans-Serif" font-size="10.00"> </text>
</a>
</g>
</g>
<!-- Node9&#45;&gt;Node1 -->
<g id="edge8" class="edge">
<title>Node9&#45;&gt;Node1</title>
<path fill="none" stroke="#404040" d="M710.29,-297.99C702.84,-269.99 688.03,-226.59 662.5,-197 633.93,-163.89 592.46,-137.79 557.4,-119.72"/>
<polygon fill="none" stroke="#404040" points="556.99,-119.51 549.83,-120.4 546.26,-114.13 553.42,-113.25 556.99,-119.51"/>
<text text-anchor="middle" x="727" y="-211" font-family="Helvetica,sans-Serif" font-size="10.00"> #_activeSceneID</text>
</g>
<!-- Node10 -->
<g id="node10" class="node">
<title>Node10</title>
<g id="a_node10"><a xlink:title=" ">
<polygon fill="white" stroke="#bfbfbf" points="761.5,-298 761.5,-355 867.5,-355 867.5,-298 761.5,-298"/>
<text text-anchor="middle" x="814.5" y="-343" font-family="Helvetica,sans-Serif" font-size="10.00">list&lt; CameraPtr &gt;</text>
<polyline fill="none" stroke="#bfbfbf" points="761.5,-336 867.5,-336 "/>
<text text-anchor="middle" x="814.5" y="-324" font-family="Helvetica,sans-Serif" font-size="10.00"> </text>
<polyline fill="none" stroke="#bfbfbf" points="761.5,-317 867.5,-317 "/>
<text text-anchor="middle" x="814.5" y="-305" font-family="Helvetica,sans-Serif" font-size="10.00"> </text>
</a>
</g>
</g>
<!-- Node10&#45;&gt;Node1 -->
<g id="edge10" class="edge">
<title>Node10&#45;&gt;Node1</title>
<path fill="none" stroke="#404040" d="M812.85,-297.91C809.72,-269.21 800.65,-224.69 774.5,-197 717.26,-136.4 622.22,-110.02 558.01,-98.72"/>
<polygon fill="none" stroke="#404040" points="557.84,-98.69 551.26,-101.65 546,-96.71 552.58,-93.76 557.84,-98.69"/>
<text text-anchor="middle" x="823" y="-211" font-family="Helvetica,sans-Serif" font-size="10.00"> #_cameras</text>
</g>
<!-- Node11 -->
<g id="node11" class="node">
<title>Node11</title>
<g id="a_node11"><a xlink:title=" ">
<polygon fill="white" stroke="#bfbfbf" points="885.5,-298 885.5,-355 933.5,-355 933.5,-298 885.5,-298"/>
<text text-anchor="middle" x="909.5" y="-343" font-family="Helvetica,sans-Serif" font-size="10.00">GLuint</text>
<polyline fill="none" stroke="#bfbfbf" points="885.5,-336 933.5,-336 "/>
<text text-anchor="middle" x="909.5" y="-324" font-family="Helvetica,sans-Serif" font-size="10.00"> </text>
<polyline fill="none" stroke="#bfbfbf" points="885.5,-317 933.5,-317 "/>
<text text-anchor="middle" x="909.5" y="-305" font-family="Helvetica,sans-Serif" font-size="10.00"> </text>
</a>
</g>
</g>
<!-- Node11&#45;&gt;Node1 -->
<g id="edge11" class="edge">
<title>Node11&#45;&gt;Node1</title>
<path fill="none" stroke="#404040" d="M905.3,-297.88C899.42,-268.74 885.95,-223.43 856.5,-197 772.93,-122.01 639.36,-99.64 558.78,-93.08"/>
<polygon fill="none" stroke="#404040" points="558.29,-93.04 552.01,-96.59 546.32,-92.16 552.6,-88.61 558.29,-93.04"/>
<text text-anchor="middle" x="904.5" y="-211" font-family="Helvetica,sans-Serif" font-size="10.00"> #_vaoID</text>
</g>
</g>
</svg>
