<?xml version="1.0" encoding="UTF-8" standalone="no"?>
<!DOCTYPE svg PUBLIC "-//W3C//DTD SVG 1.1//EN"
 "http://www.w3.org/Graphics/SVG/1.1/DTD/svg11.dtd">
<!-- Generated by graphviz version 2.43.0 (0)
 -->
<!-- Title: cie::gl::Texture Pages: 1 -->
<!--zoomable 602 -->
<svg id="main" version="1.1" xmlns="http://www.w3.org/2000/svg" xmlns:xlink="http://www.w3.org/1999/xlink" xml:space="preserve" onload="init(evt)">
<style type="text/css"><![CDATA[
.edge:hover path { stroke: red; }
.edge:hover polygon { stroke: red; fill: red; }
]]></style>
<script type="text/javascript"><![CDATA[
var edges = document.getElementsByTagName('g');
if (edges && edges.length) {
  for (var i=0;i<edges.length;i++) {
    if (edges[i].id.substr(0,4)=='edge') {
      edges[i].setAttribute('class','edge');
    }
  }
}
]]></script>
        <defs>
                <circle id="rim" cx="0" cy="0" r="7"/>
                <circle id="rim2" cx="0" cy="0" r="3.5"/>
                <g id="zoomPlus">
                        <use xlink:href="#rim" fill="#404040">
                                <set attributeName="fill" to="#808080" begin="zoomplus.mouseover" end="zoomplus.mouseout"/>
                        </use>
                        <path d="M-4,0h8M0,-4v8" fill="none" stroke="white" stroke-width="1.5" pointer-events="none"/>
                </g>
                <g id="zoomMin">
                        <use xlink:href="#rim" fill="#404040">
                                <set attributeName="fill" to="#808080" begin="zoomminus.mouseover" end="zoomminus.mouseout"/>
                        </use>
                        <path d="M-4,0h8" fill="none" stroke="white" stroke-width="1.5" pointer-events="none"/>
                </g>
                <g id="dirArrow">
                        <path fill="none" stroke="white" stroke-width="1.5" d="M0,-3.0v7 M-2.5,-0.5L0,-3.0L2.5,-0.5"/>
                </g>
               <g id="resetDef">
                       <use xlink:href="#rim2" fill="#404040">
                               <set attributeName="fill" to="#808080" begin="reset.mouseover" end="reset.mouseout"/>
                       </use>
               </g>
        </defs>

<script type="text/javascript">
var viewWidth = 414;
var viewHeight = 602;
var sectionId = 'dynsection-1';
</script>
<script xlink:href="svgpan.js"/>
<svg id="graph" class="graph">
<g id="viewport">
<title>cie::gl::Texture</title>
<polygon fill="white" stroke="transparent" points="-4,4 -4,-598 409.5,-598 409.5,4 -4,4"/>
<!-- Node1 -->
<g id="node1" class="node">
<title>Node1</title>
<g id="a_node1"><a xlink:title="Interface for loading textures onto the GPU.">
<polygon fill="#bfbfbf" stroke="black" points="209.5,-0.5 209.5,-90.5 297.5,-90.5 297.5,-0.5 209.5,-0.5"/>
<text text-anchor="middle" x="253.5" y="-78.5" font-family="Helvetica,sans-Serif" font-size="10.00">cie::gl::Texture</text>
<polyline fill="none" stroke="black" points="209.5,-71.5 297.5,-71.5 "/>
<text text-anchor="middle" x="253.5" y="-59.5" font-family="Helvetica,sans-Serif" font-size="10.00"> </text>
<polyline fill="none" stroke="black" points="209.5,-52.5 297.5,-52.5 "/>
<text text-anchor="start" x="217.5" y="-40.5" font-family="Helvetica,sans-Serif" font-size="10.00">+ Texture()</text>
<text text-anchor="start" x="217.5" y="-29.5" font-family="Helvetica,sans-Serif" font-size="10.00">+ write()</text>
<text text-anchor="start" x="217.5" y="-18.5" font-family="Helvetica,sans-Serif" font-size="10.00">+ write()</text>
<text text-anchor="start" x="217.5" y="-7.5" font-family="Helvetica,sans-Serif" font-size="10.00">+ properties()</text>
</a>
</g>
</g>
<!-- Node2 -->
<g id="node2" class="node">
<title>Node2</title>
<g id="a_node2"><a xlink:href="classcie_1_1gl_1_1Shader_1_1Texture.html" target="_top" xlink:title="Immutable texture descriptor.">
<polygon fill="white" stroke="black" points="122.5,-156 122.5,-246 250.5,-246 250.5,-156 122.5,-156"/>
<text text-anchor="middle" x="186.5" y="-234" font-family="Helvetica,sans-Serif" font-size="10.00">cie::gl::Shader::Texture</text>
<polyline fill="none" stroke="black" points="122.5,-227 250.5,-227 "/>
<text text-anchor="middle" x="186.5" y="-215" font-family="Helvetica,sans-Serif" font-size="10.00"> </text>
<polyline fill="none" stroke="black" points="122.5,-208 250.5,-208 "/>
<text text-anchor="start" x="130.5" y="-196" font-family="Helvetica,sans-Serif" font-size="10.00">+ Texture()</text>
<text text-anchor="start" x="130.5" y="-185" font-family="Helvetica,sans-Serif" font-size="10.00">+ dimension()</text>
<text text-anchor="start" x="130.5" y="-174" font-family="Helvetica,sans-Serif" font-size="10.00">+ channels()</text>
<text text-anchor="start" x="130.5" y="-163" font-family="Helvetica,sans-Serif" font-size="10.00">+ type()</text>
</a>
</g>
</g>
<!-- Node2&#45;&gt;Node1 -->
<g id="edge1" class="edge">
<title>Node2&#45;&gt;Node1</title>
<path fill="none" stroke="midnightblue" d="M209.95,-146.27C217.91,-128.05 226.69,-107.91 234.28,-90.53"/>
<polygon fill="none" stroke="midnightblue" points="206.67,-145.04 205.88,-155.6 213.09,-147.84 206.67,-145.04"/>
</g>
<!-- Node3 -->
<g id="node3" class="node">
<title>Node3</title>
<g id="a_node3"><a target="_parent" xlink:href="../../../cieutils/docs/html/classcie_1_1utils_1_1NamedObject.html" xlink:title=" ">
<polygon fill="white" stroke="black" points="0,-332.5 0,-488.5 131,-488.5 131,-332.5 0,-332.5"/>
<text text-anchor="middle" x="65.5" y="-476.5" font-family="Helvetica,sans-Serif" font-size="10.00">cie::utils::NamedObject</text>
<polyline fill="none" stroke="black" points="0,-469.5 131,-469.5 "/>
<text text-anchor="middle" x="65.5" y="-457.5" font-family="Helvetica,sans-Serif" font-size="10.00"> </text>
<polyline fill="none" stroke="black" points="0,-450.5 131,-450.5 "/>
<text text-anchor="start" x="8" y="-438.5" font-family="Helvetica,sans-Serif" font-size="10.00">+ NamedObject()</text>
<text text-anchor="start" x="8" y="-427.5" font-family="Helvetica,sans-Serif" font-size="10.00">+ NamedObject()</text>
<text text-anchor="start" x="8" y="-416.5" font-family="Helvetica,sans-Serif" font-size="10.00">+ NamedObject()</text>
<text text-anchor="start" x="8" y="-405.5" font-family="Helvetica,sans-Serif" font-size="10.00">+ NamedObject()</text>
<text text-anchor="start" x="8" y="-394.5" font-family="Helvetica,sans-Serif" font-size="10.00">+ operator=()</text>
<text text-anchor="start" x="8" y="-383.5" font-family="Helvetica,sans-Serif" font-size="10.00">+ operator=()</text>
<text text-anchor="start" x="8" y="-372.5" font-family="Helvetica,sans-Serif" font-size="10.00">+ name()</text>
<text text-anchor="start" x="8" y="-361.5" font-family="Helvetica,sans-Serif" font-size="10.00">+ setName()</text>
<text text-anchor="start" x="8" y="-350.5" font-family="Helvetica,sans-Serif" font-size="10.00">+ setName()</text>
<text text-anchor="start" x="8" y="-339.5" font-family="Helvetica,sans-Serif" font-size="10.00">+ ~NamedObject()</text>
</a>
</g>
</g>
<!-- Node3&#45;&gt;Node2 -->
<g id="edge2" class="edge">
<title>Node3&#45;&gt;Node2</title>
<path fill="none" stroke="midnightblue" d="M115.76,-323.31C131.24,-296.77 147.63,-268.65 160.74,-246.18"/>
<polygon fill="none" stroke="midnightblue" points="112.57,-321.83 110.56,-332.23 118.62,-325.36 112.57,-321.83"/>
</g>
<!-- Node4 -->
<g id="node4" class="node">
<title>Node4</title>
<g id="a_node4"><a xlink:title=" ">
<polygon fill="white" stroke="#bfbfbf" points="149,-382 149,-439 194,-439 194,-382 149,-382"/>
<text text-anchor="middle" x="171.5" y="-427" font-family="Helvetica,sans-Serif" font-size="10.00">size_t</text>
<polyline fill="none" stroke="#bfbfbf" points="149,-420 194,-420 "/>
<text text-anchor="middle" x="171.5" y="-408" font-family="Helvetica,sans-Serif" font-size="10.00"> </text>
<polyline fill="none" stroke="#bfbfbf" points="149,-401 194,-401 "/>
<text text-anchor="middle" x="171.5" y="-389" font-family="Helvetica,sans-Serif" font-size="10.00"> </text>
</a>
</g>
</g>
<!-- Node4&#45;&gt;Node2 -->
<g id="edge3" class="edge">
<title>Node4&#45;&gt;Node2</title>
<path fill="none" stroke="#404040" d="M170.6,-381.91C170.1,-358.07 169.99,-322.7 172.5,-292 173.4,-281 174.85,-269.32 176.48,-258.13"/>
<polygon fill="none" stroke="#404040" points="176.48,-258.11 173.44,-251.57 178.3,-246.25 181.35,-252.79 176.48,-258.11"/>
<text text-anchor="middle" x="205" y="-306" font-family="Helvetica,sans-Serif" font-size="10.00"> #_channels</text>
<text text-anchor="middle" x="205" y="-295" font-family="Helvetica,sans-Serif" font-size="10.00">#_dimension</text>
</g>
<!-- Node5 -->
<g id="node5" class="node">
<title>Node5</title>
<g id="a_node5"><a xlink:title=" ">
<polygon fill="white" stroke="#bfbfbf" points="237.5,-382 237.5,-439 281.5,-439 281.5,-382 237.5,-382"/>
<text text-anchor="middle" x="259.5" y="-427" font-family="Helvetica,sans-Serif" font-size="10.00">string</text>
<polyline fill="none" stroke="#bfbfbf" points="237.5,-420 281.5,-420 "/>
<text text-anchor="middle" x="259.5" y="-408" font-family="Helvetica,sans-Serif" font-size="10.00"> </text>
<polyline fill="none" stroke="#bfbfbf" points="237.5,-401 281.5,-401 "/>
<text text-anchor="middle" x="259.5" y="-389" font-family="Helvetica,sans-Serif" font-size="10.00"> </text>
</a>
</g>
</g>
<!-- Node5&#45;&gt;Node2 -->
<g id="edge4" class="edge">
<title>Node5&#45;&gt;Node2</title>
<path fill="none" stroke="#404040" d="M256.92,-381.75C254.05,-357.5 248.33,-321.63 237.5,-292 233.2,-280.24 227.46,-268.21 221.39,-256.93"/>
<polygon fill="none" stroke="#404040" points="221.34,-256.85 214.93,-253.57 215.49,-246.38 221.91,-249.66 221.34,-256.85"/>
<text text-anchor="middle" x="264" y="-300.5" font-family="Helvetica,sans-Serif" font-size="10.00"> #_type</text>
</g>
<!-- Node6 -->
<g id="node6" class="node">
<title>Node6</title>
<g id="a_node6"><a target="_parent" xlink:href="../../../cieutils/docs/html/classcie_1_1utils_1_1IDObject.html" xlink:title=" ">
<polygon fill="white" stroke="black" points="275.5,-128.5 275.5,-273.5 381.5,-273.5 381.5,-128.5 275.5,-128.5"/>
<text text-anchor="start" x="283.5" y="-261.5" font-family="Helvetica,sans-Serif" font-size="10.00">cie::utils::IDObject</text>
<text text-anchor="middle" x="328.5" y="-250.5" font-family="Helvetica,sans-Serif" font-size="10.00">&lt; GLuint &gt;</text>
<polyline fill="none" stroke="black" points="275.5,-243.5 381.5,-243.5 "/>
<text text-anchor="start" x="283.5" y="-231.5" font-family="Helvetica,sans-Serif" font-size="10.00"># _id</text>
<polyline fill="none" stroke="black" points="275.5,-224.5 381.5,-224.5 "/>
<text text-anchor="start" x="283.5" y="-212.5" font-family="Helvetica,sans-Serif" font-size="10.00">+ IDObject()</text>
<text text-anchor="start" x="283.5" y="-201.5" font-family="Helvetica,sans-Serif" font-size="10.00">+ IDObject()</text>
<text text-anchor="start" x="283.5" y="-190.5" font-family="Helvetica,sans-Serif" font-size="10.00">+ IDObject()</text>
<text text-anchor="start" x="283.5" y="-179.5" font-family="Helvetica,sans-Serif" font-size="10.00">+ IDObject()</text>
<text text-anchor="start" x="283.5" y="-168.5" font-family="Helvetica,sans-Serif" font-size="10.00">+ operator=()</text>
<text text-anchor="start" x="283.5" y="-157.5" font-family="Helvetica,sans-Serif" font-size="10.00">+ operator=()</text>
<text text-anchor="start" x="283.5" y="-146.5" font-family="Helvetica,sans-Serif" font-size="10.00">+ setID()</text>
<text text-anchor="start" x="283.5" y="-135.5" font-family="Helvetica,sans-Serif" font-size="10.00">+ getID()</text>
</a>
</g>
</g>
<!-- Node6&#45;&gt;Node1 -->
<g id="edge5" class="edge">
<title>Node6&#45;&gt;Node1</title>
<path fill="none" stroke="midnightblue" d="M289.01,-119.18C284.22,-109.38 279.48,-99.67 275.09,-90.68"/>
<polygon fill="none" stroke="midnightblue" points="285.88,-120.75 293.42,-128.19 292.17,-117.67 285.88,-120.75"/>
</g>
<!-- Node7 -->
<g id="node7" class="node">
<title>Node7</title>
<g id="a_node7"><a target="_parent" xlink:href="../../../cieutils/docs/html/classcie_1_1utils_1_1IDObject.html" xlink:title=" ">
<polygon fill="white" stroke="black" points="299.5,-338 299.5,-483 405.5,-483 405.5,-338 299.5,-338"/>
<text text-anchor="start" x="307.5" y="-471" font-family="Helvetica,sans-Serif" font-size="10.00">cie::utils::IDObject</text>
<text text-anchor="middle" x="352.5" y="-460" font-family="Helvetica,sans-Serif" font-size="10.00">&lt; class &gt;</text>
<polyline fill="none" stroke="black" points="299.5,-453 405.5,-453 "/>
<text text-anchor="middle" x="352.5" y="-441" font-family="Helvetica,sans-Serif" font-size="10.00"> </text>
<polyline fill="none" stroke="black" points="299.5,-434 405.5,-434 "/>
<text text-anchor="start" x="307.5" y="-422" font-family="Helvetica,sans-Serif" font-size="10.00">+ IDObject()</text>
<text text-anchor="start" x="307.5" y="-411" font-family="Helvetica,sans-Serif" font-size="10.00">+ IDObject()</text>
<text text-anchor="start" x="307.5" y="-400" font-family="Helvetica,sans-Serif" font-size="10.00">+ IDObject()</text>
<text text-anchor="start" x="307.5" y="-389" font-family="Helvetica,sans-Serif" font-size="10.00">+ IDObject()</text>
<text text-anchor="start" x="307.5" y="-378" font-family="Helvetica,sans-Serif" font-size="10.00">+ operator=()</text>
<text text-anchor="start" x="307.5" y="-367" font-family="Helvetica,sans-Serif" font-size="10.00">+ operator=()</text>
<text text-anchor="start" x="307.5" y="-356" font-family="Helvetica,sans-Serif" font-size="10.00">+ setID()</text>
<text text-anchor="start" x="307.5" y="-345" font-family="Helvetica,sans-Serif" font-size="10.00">+ getID()</text>
</a>
</g>
</g>
<!-- Node7&#45;&gt;Node6 -->
<g id="edge6" class="edge">
<title>Node7&#45;&gt;Node6</title>
<path fill="none" stroke="orange" d="M343.01,-327.46C340.96,-309.69 338.8,-291.04 336.79,-273.7"/>
<polygon fill="orange" stroke="orange" points="339.58,-328.27 344.21,-337.8 346.53,-327.46 339.58,-328.27"/>
<text text-anchor="middle" x="369.5" y="-300.5" font-family="Helvetica,sans-Serif" font-size="10.00"> &lt; GLuint &gt;</text>
</g>
<!-- Node8 -->
<g id="node8" class="node">
<title>Node8</title>
<g id="a_node8"><a xlink:title=" ">
<polygon fill="white" stroke="#bfbfbf" points="336,-536.5 336,-593.5 369,-593.5 369,-536.5 336,-536.5"/>
<text text-anchor="middle" x="352.5" y="-581.5" font-family="Helvetica,sans-Serif" font-size="10.00">TID</text>
<polyline fill="none" stroke="#bfbfbf" points="336,-574.5 369,-574.5 "/>
<text text-anchor="middle" x="352.5" y="-562.5" font-family="Helvetica,sans-Serif" font-size="10.00"> </text>
<polyline fill="none" stroke="#bfbfbf" points="336,-555.5 369,-555.5 "/>
<text text-anchor="middle" x="352.5" y="-543.5" font-family="Helvetica,sans-Serif" font-size="10.00"> </text>
</a>
</g>
</g>
<!-- Node8&#45;&gt;Node7 -->
<g id="edge7" class="edge">
<title>Node8&#45;&gt;Node7</title>
<path fill="none" stroke="#404040" d="M352.5,-536.38C352.5,-524.53 352.5,-509.99 352.5,-495.07"/>
<polygon fill="none" stroke="#404040" points="352.5,-495.07 348.5,-489.07 352.5,-483.07 356.5,-489.07 352.5,-495.07"/>
<text text-anchor="middle" x="365.5" y="-510" font-family="Helvetica,sans-Serif" font-size="10.00"> #_id</text>
</g>
</g>
</svg>
        <g id="navigator" transform="translate(0 0)" fill="#404254">
                <rect fill="#f2f5e9" fill-opacity="0.5" stroke="#606060" stroke-width=".5" x="0" y="0" width="60" height="60"/>
                <use id="zoomplus" xlink:href="#zoomPlus" x="17" y="9" onmousedown="handleZoom(evt,'in')"/>
                <use id="zoomminus" xlink:href="#zoomMin" x="42" y="9" onmousedown="handleZoom(evt,'out')"/>
                <use id="reset" xlink:href="#resetDef" x="30" y="36" onmousedown="handleReset()"/>
                <g id="arrowUp" xlink:href="#dirArrow" transform="translate(30 24)" onmousedown="handlePan(0,-1)">
                  <use xlink:href="#rim" fill="#404040">
                        <set attributeName="fill" to="#808080" begin="arrowUp.mouseover" end="arrowUp.mouseout"/>
                  </use>
                  <path fill="none" stroke="white" stroke-width="1.5" d="M0,-3.0v7 M-2.5,-0.5L0,-3.0L2.5,-0.5"/>
                </g>
                <g id="arrowRight" xlink:href="#dirArrow" transform="rotate(90) translate(36 -43)" onmousedown="handlePan(1,0)">
                  <use xlink:href="#rim" fill="#404040">
                        <set attributeName="fill" to="#808080" begin="arrowRight.mouseover" end="arrowRight.mouseout"/>
                  </use>
                  <path fill="none" stroke="white" stroke-width="1.5" d="M0,-3.0v7 M-2.5,-0.5L0,-3.0L2.5,-0.5"/>
                </g>
                <g id="arrowDown" xlink:href="#dirArrow" transform="rotate(180) translate(-30 -48)" onmousedown="handlePan(0,1)">
                  <use xlink:href="#rim" fill="#404040">
                        <set attributeName="fill" to="#808080" begin="arrowDown.mouseover" end="arrowDown.mouseout"/>
                  </use>
                  <path fill="none" stroke="white" stroke-width="1.5" d="M0,-3.0v7 M-2.5,-0.5L0,-3.0L2.5,-0.5"/>
                </g>
                <g id="arrowLeft" xlink:href="#dirArrow" transform="rotate(270) translate(-36 17)" onmousedown="handlePan(-1,0)">
                  <use xlink:href="#rim" fill="#404040">
                        <set attributeName="fill" to="#808080" begin="arrowLeft.mouseover" end="arrowLeft.mouseout"/>
                  </use>
                  <path fill="none" stroke="white" stroke-width="1.5" d="M0,-3.0v7 M-2.5,-0.5L0,-3.0L2.5,-0.5"/>
                </g>
        </g>
        <svg viewBox="0 0 15 15" width="100%" height="30px" preserveAspectRatio="xMaxYMin meet">
         <g id="arrow_out" transform="scale(0.3 0.3)">
          <a xlink:href="classcie_1_1gl_1_1Texture__coll__graph_org.svg" target="_base">
           <rect id="button" ry="5" rx="5" y="6" x="6" height="38" width="38"
                fill="#f2f5e9" fill-opacity="0.5" stroke="#606060" stroke-width="1.0"/>
           <path id="arrow"
             d="M 11.500037,31.436501 C 11.940474,20.09759 22.043105,11.32322 32.158766,21.979434 L 37.068811,17.246167 C 37.068811,17.246167 37.088388,32 37.088388,32 L 22.160133,31.978069 C 22.160133,31.978069 26.997745,27.140456 26.997745,27.140456 C 18.528582,18.264221 13.291696,25.230495 11.500037,31.436501 z"
             style="fill:#404040;"/>
          </a>
         </g>
        </svg>
</svg>
