<?xml version="1.0" encoding="UTF-8" standalone="no"?>
<!DOCTYPE svg PUBLIC "-//W3C//DTD SVG 1.1//EN"
 "http://www.w3.org/Graphics/SVG/1.1/DTD/svg11.dtd">
<!-- Generated by graphviz version 2.43.0 (0)
 -->
<!-- Title: cie::gl::ControlKey Pages: 1 -->
<svg width="136pt" height="281pt"
 viewBox="0.00 0.00 136.00 281.00" xmlns="http://www.w3.org/2000/svg" xmlns:xlink="http://www.w3.org/1999/xlink">
<g id="graph0" class="graph" transform="scale(1 1) rotate(0) translate(4 277)">
<title>cie::gl::ControlKey</title>
<polygon fill="white" stroke="transparent" points="-4,4 -4,-277 132,-277 132,4 -4,4"/>
<!-- Node1 -->
<g id="node1" class="node">
<title>Node1</title>
<g id="a_node1"><a xlink:title=" ">
<polygon fill="#bfbfbf" stroke="black" points="0,-0.5 0,-167.5 128,-167.5 128,-0.5 0,-0.5"/>
<text text-anchor="middle" x="64" y="-155.5" font-family="Helvetica,sans-Serif" font-size="10.00">cie::gl::ControlKey</text>
<polyline fill="none" stroke="black" points="0,-148.5 128,-148.5 "/>
<text text-anchor="middle" x="64" y="-136.5" font-family="Helvetica,sans-Serif" font-size="10.00"> </text>
<polyline fill="none" stroke="black" points="0,-129.5 128,-129.5 "/>
<text text-anchor="start" x="8" y="-117.5" font-family="Helvetica,sans-Serif" font-size="10.00">+ ControlKey()</text>
<text text-anchor="start" x="8" y="-106.5" font-family="Helvetica,sans-Serif" font-size="10.00">+ ControlKey()</text>
<text text-anchor="start" x="8" y="-95.5" font-family="Helvetica,sans-Serif" font-size="10.00">+ ControlKey()</text>
<text text-anchor="start" x="8" y="-84.5" font-family="Helvetica,sans-Serif" font-size="10.00">+ operator=()</text>
<text text-anchor="start" x="8" y="-73.5" font-family="Helvetica,sans-Serif" font-size="10.00">+ add()</text>
<text text-anchor="start" x="8" y="-62.5" font-family="Helvetica,sans-Serif" font-size="10.00">+ remove()</text>
<text text-anchor="start" x="8" y="-51.5" font-family="Helvetica,sans-Serif" font-size="10.00">+ clear()</text>
<text text-anchor="start" x="8" y="-40.5" font-family="Helvetica,sans-Serif" font-size="10.00">+ set()</text>
<text text-anchor="start" x="8" y="-29.5" font-family="Helvetica,sans-Serif" font-size="10.00">+ replace()</text>
<text text-anchor="start" x="8" y="-18.5" font-family="Helvetica,sans-Serif" font-size="10.00">+ operator std::string()</text>
<text text-anchor="start" x="8" y="-7.5" font-family="Helvetica,sans-Serif" font-size="10.00">+ keys()</text>
</a>
</g>
</g>
<!-- Node2 -->
<g id="node2" class="node">
<title>Node2</title>
<g id="a_node2"><a xlink:title=" ">
<polygon fill="white" stroke="#bfbfbf" points="15,-215.5 15,-272.5 113,-272.5 113,-215.5 15,-215.5"/>
<text text-anchor="middle" x="64" y="-260.5" font-family="Helvetica,sans-Serif" font-size="10.00">set&lt; key_type &gt;</text>
<polyline fill="none" stroke="#bfbfbf" points="15,-253.5 113,-253.5 "/>
<text text-anchor="middle" x="64" y="-241.5" font-family="Helvetica,sans-Serif" font-size="10.00"> </text>
<polyline fill="none" stroke="#bfbfbf" points="15,-234.5 113,-234.5 "/>
<text text-anchor="middle" x="64" y="-222.5" font-family="Helvetica,sans-Serif" font-size="10.00"> </text>
</a>
</g>
</g>
<!-- Node2&#45;&gt;Node1 -->
<g id="edge1" class="edge">
<title>Node2&#45;&gt;Node1</title>
<path fill="none" stroke="#404040" d="M64,-215.48C64,-205.12 64,-192.67 64,-179.63"/>
<polygon fill="none" stroke="#404040" points="64,-179.54 60,-173.54 64,-167.54 68,-173.54 64,-179.54"/>
<text text-anchor="middle" x="84" y="-189" font-family="Helvetica,sans-Serif" font-size="10.00"> #_keys</text>
</g>
</g>
</svg>
