<?xml version="1.0" encoding="UTF-8" standalone="no"?>
<!DOCTYPE svg PUBLIC "-//W3C//DTD SVG 1.1//EN"
 "http://www.w3.org/Graphics/SVG/1.1/DTD/svg11.dtd">
<!-- Generated by graphviz version 2.43.0 (0)
 -->
<!-- Title: cie::gl::PartScene Pages: 1 -->
<svg width="946pt" height="777pt"
 viewBox="0.00 0.00 945.50 777.00" xmlns="http://www.w3.org/2000/svg" xmlns:xlink="http://www.w3.org/1999/xlink">
<g id="graph0" class="graph" transform="scale(1 1) rotate(0) translate(4 773)">
<title>cie::gl::PartScene</title>
<polygon fill="white" stroke="transparent" points="-4,4 -4,-773 941.5,-773 941.5,4 -4,4"/>
<!-- Node1 -->
<g id="node1" class="node">
<title>Node1</title>
<g id="a_node1"><a xlink:title=" ">
<polygon fill="#bfbfbf" stroke="black" points="557.5,-0.5 557.5,-112.5 657.5,-112.5 657.5,-0.5 557.5,-0.5"/>
<text text-anchor="middle" x="607.5" y="-100.5" font-family="Helvetica,sans-Serif" font-size="10.00">cie::gl::PartScene</text>
<polyline fill="none" stroke="black" points="557.5,-93.5 657.5,-93.5 "/>
<text text-anchor="middle" x="607.5" y="-81.5" font-family="Helvetica,sans-Serif" font-size="10.00"> </text>
<polyline fill="none" stroke="black" points="557.5,-74.5 657.5,-74.5 "/>
<text text-anchor="start" x="565.5" y="-62.5" font-family="Helvetica,sans-Serif" font-size="10.00">+ PartScene()</text>
<text text-anchor="start" x="565.5" y="-51.5" font-family="Helvetica,sans-Serif" font-size="10.00">+ addPart()</text>
<text text-anchor="start" x="565.5" y="-40.5" font-family="Helvetica,sans-Serif" font-size="10.00">+ removePart()</text>
<text text-anchor="start" x="565.5" y="-29.5" font-family="Helvetica,sans-Serif" font-size="10.00">+ parts()</text>
<text text-anchor="start" x="565.5" y="-18.5" font-family="Helvetica,sans-Serif" font-size="10.00">+ updateParts()</text>
<text text-anchor="start" x="565.5" y="-7.5" font-family="Helvetica,sans-Serif" font-size="10.00">+ update_impl()</text>
</a>
</g>
</g>
<!-- Node2 -->
<g id="node2" class="node">
<title>Node2</title>
<g id="a_node2"><a xlink:href="classcie_1_1gl_1_1Scene.html" target="_top" xlink:title=" ">
<polygon fill="white" stroke="black" points="435,-160.5 435,-338.5 546,-338.5 546,-160.5 435,-160.5"/>
<text text-anchor="middle" x="490.5" y="-326.5" font-family="Helvetica,sans-Serif" font-size="10.00">cie::gl::Scene</text>
<polyline fill="none" stroke="black" points="435,-319.5 546,-319.5 "/>
<text text-anchor="middle" x="490.5" y="-307.5" font-family="Helvetica,sans-Serif" font-size="10.00"> </text>
<polyline fill="none" stroke="black" points="435,-300.5 546,-300.5 "/>
<text text-anchor="start" x="443" y="-288.5" font-family="Helvetica,sans-Serif" font-size="10.00">+ Scene()</text>
<text text-anchor="start" x="443" y="-277.5" font-family="Helvetica,sans-Serif" font-size="10.00">+ ~Scene()</text>
<text text-anchor="start" x="443" y="-266.5" font-family="Helvetica,sans-Serif" font-size="10.00">+ update()</text>
<text text-anchor="start" x="443" y="-255.5" font-family="Helvetica,sans-Serif" font-size="10.00">+ activate()</text>
<text text-anchor="start" x="443" y="-244.5" font-family="Helvetica,sans-Serif" font-size="10.00">+ isActive()</text>
<text text-anchor="start" x="443" y="-233.5" font-family="Helvetica,sans-Serif" font-size="10.00">+ makeCamera()</text>
<text text-anchor="start" x="443" y="-222.5" font-family="Helvetica,sans-Serif" font-size="10.00">+ addCamera()</text>
<text text-anchor="start" x="443" y="-211.5" font-family="Helvetica,sans-Serif" font-size="10.00">+ removeCamera()</text>
<text text-anchor="start" x="443" y="-200.5" font-family="Helvetica,sans-Serif" font-size="10.00">+ cameras()</text>
<text text-anchor="start" x="443" y="-189.5" font-family="Helvetica,sans-Serif" font-size="10.00">+ camera()</text>
<text text-anchor="start" x="443" y="-178.5" font-family="Helvetica,sans-Serif" font-size="10.00">and 15 more...</text>
<text text-anchor="start" x="443" y="-167.5" font-family="Helvetica,sans-Serif" font-size="10.00"># update_impl()</text>
</a>
</g>
</g>
<!-- Node2&#45;&gt;Node1 -->
<g id="edge1" class="edge">
<title>Node2&#45;&gt;Node1</title>
<path fill="none" stroke="midnightblue" d="M549.92,-151.51C558.09,-138.16 566.24,-124.86 573.73,-112.63"/>
<polygon fill="none" stroke="midnightblue" points="546.79,-149.91 544.55,-160.27 552.76,-153.57 546.79,-149.91"/>
</g>
<!-- Node3 -->
<g id="node3" class="node">
<title>Node3</title>
<g id="a_node3"><a target="_parent" xlink:href="../../../cieutils/docs/html/classcie_1_1utils_1_1Loggee.html" xlink:title=" ">
<polygon fill="white" stroke="black" points="16,-408.5 16,-564.5 115,-564.5 115,-408.5 16,-408.5"/>
<text text-anchor="middle" x="65.5" y="-552.5" font-family="Helvetica,sans-Serif" font-size="10.00">cie::utils::Loggee</text>
<polyline fill="none" stroke="black" points="16,-545.5 115,-545.5 "/>
<text text-anchor="middle" x="65.5" y="-533.5" font-family="Helvetica,sans-Serif" font-size="10.00"> </text>
<polyline fill="none" stroke="black" points="16,-526.5 115,-526.5 "/>
<text text-anchor="start" x="24" y="-514.5" font-family="Helvetica,sans-Serif" font-size="10.00">+ Loggee()</text>
<text text-anchor="start" x="24" y="-503.5" font-family="Helvetica,sans-Serif" font-size="10.00">+ ~Loggee()</text>
<text text-anchor="start" x="24" y="-492.5" font-family="Helvetica,sans-Serif" font-size="10.00">+ log()</text>
<text text-anchor="start" x="24" y="-481.5" font-family="Helvetica,sans-Serif" font-size="10.00">+ logID()</text>
<text text-anchor="start" x="24" y="-470.5" font-family="Helvetica,sans-Serif" font-size="10.00">+ tic()</text>
<text text-anchor="start" x="24" y="-459.5" font-family="Helvetica,sans-Serif" font-size="10.00">+ toc()</text>
<text text-anchor="start" x="24" y="-448.5" font-family="Helvetica,sans-Serif" font-size="10.00">+ toc()</text>
<text text-anchor="start" x="24" y="-437.5" font-family="Helvetica,sans-Serif" font-size="10.00">+ newBlock()</text>
<text text-anchor="start" x="24" y="-426.5" font-family="Helvetica,sans-Serif" font-size="10.00">+ separate()</text>
<text text-anchor="start" x="24" y="-415.5" font-family="Helvetica,sans-Serif" font-size="10.00"># logger()</text>
</a>
</g>
</g>
<!-- Node3&#45;&gt;Node2 -->
<g id="edge2" class="edge">
<title>Node3&#45;&gt;Node2</title>
<path fill="none" stroke="midnightblue" d="M122.71,-409.43C123.3,-408.94 123.9,-408.47 124.5,-408 220.85,-332.72 358.62,-286.31 434.69,-264.79"/>
<polygon fill="none" stroke="midnightblue" points="120.36,-406.84 115.16,-416.07 124.98,-412.09 120.36,-406.84"/>
</g>
<!-- Node4 -->
<g id="node4" class="node">
<title>Node4</title>
<g id="a_node4"><a target="_parent" xlink:href="../../../cieutils/docs/html/classcie_1_1utils_1_1NamedObject.html" xlink:title=" ">
<polygon fill="white" stroke="black" points="0,-612.5 0,-768.5 131,-768.5 131,-612.5 0,-612.5"/>
<text text-anchor="middle" x="65.5" y="-756.5" font-family="Helvetica,sans-Serif" font-size="10.00">cie::utils::NamedObject</text>
<polyline fill="none" stroke="black" points="0,-749.5 131,-749.5 "/>
<text text-anchor="middle" x="65.5" y="-737.5" font-family="Helvetica,sans-Serif" font-size="10.00"> </text>
<polyline fill="none" stroke="black" points="0,-730.5 131,-730.5 "/>
<text text-anchor="start" x="8" y="-718.5" font-family="Helvetica,sans-Serif" font-size="10.00">+ NamedObject()</text>
<text text-anchor="start" x="8" y="-707.5" font-family="Helvetica,sans-Serif" font-size="10.00">+ NamedObject()</text>
<text text-anchor="start" x="8" y="-696.5" font-family="Helvetica,sans-Serif" font-size="10.00">+ NamedObject()</text>
<text text-anchor="start" x="8" y="-685.5" font-family="Helvetica,sans-Serif" font-size="10.00">+ NamedObject()</text>
<text text-anchor="start" x="8" y="-674.5" font-family="Helvetica,sans-Serif" font-size="10.00">+ operator=()</text>
<text text-anchor="start" x="8" y="-663.5" font-family="Helvetica,sans-Serif" font-size="10.00">+ operator=()</text>
<text text-anchor="start" x="8" y="-652.5" font-family="Helvetica,sans-Serif" font-size="10.00">+ name()</text>
<text text-anchor="start" x="8" y="-641.5" font-family="Helvetica,sans-Serif" font-size="10.00">+ setName()</text>
<text text-anchor="start" x="8" y="-630.5" font-family="Helvetica,sans-Serif" font-size="10.00">+ setName()</text>
<text text-anchor="start" x="8" y="-619.5" font-family="Helvetica,sans-Serif" font-size="10.00">+ ~NamedObject()</text>
</a>
</g>
</g>
<!-- Node4&#45;&gt;Node3 -->
<g id="edge3" class="edge">
<title>Node4&#45;&gt;Node3</title>
<path fill="none" stroke="midnightblue" d="M65.5,-601.94C65.5,-589.54 65.5,-576.87 65.5,-564.69"/>
<polygon fill="none" stroke="midnightblue" points="62,-602.27 65.5,-612.27 69,-602.27 62,-602.27"/>
</g>
<!-- Node5 -->
<g id="node5" class="node">
<title>Node5</title>
<g id="a_node5"><a target="_parent" xlink:href="../../../cieutils/docs/html/classcie_1_1utils_1_1IDObject.html" xlink:title=" ">
<polygon fill="white" stroke="black" points="133.5,-414 133.5,-559 239.5,-559 239.5,-414 133.5,-414"/>
<text text-anchor="start" x="141.5" y="-547" font-family="Helvetica,sans-Serif" font-size="10.00">cie::utils::IDObject</text>
<text text-anchor="middle" x="186.5" y="-536" font-family="Helvetica,sans-Serif" font-size="10.00">&lt; class &gt;</text>
<polyline fill="none" stroke="black" points="133.5,-529 239.5,-529 "/>
<text text-anchor="middle" x="186.5" y="-517" font-family="Helvetica,sans-Serif" font-size="10.00"> </text>
<polyline fill="none" stroke="black" points="133.5,-510 239.5,-510 "/>
<text text-anchor="start" x="141.5" y="-498" font-family="Helvetica,sans-Serif" font-size="10.00">+ IDObject()</text>
<text text-anchor="start" x="141.5" y="-487" font-family="Helvetica,sans-Serif" font-size="10.00">+ IDObject()</text>
<text text-anchor="start" x="141.5" y="-476" font-family="Helvetica,sans-Serif" font-size="10.00">+ IDObject()</text>
<text text-anchor="start" x="141.5" y="-465" font-family="Helvetica,sans-Serif" font-size="10.00">+ IDObject()</text>
<text text-anchor="start" x="141.5" y="-454" font-family="Helvetica,sans-Serif" font-size="10.00">+ operator=()</text>
<text text-anchor="start" x="141.5" y="-443" font-family="Helvetica,sans-Serif" font-size="10.00">+ operator=()</text>
<text text-anchor="start" x="141.5" y="-432" font-family="Helvetica,sans-Serif" font-size="10.00">+ setID()</text>
<text text-anchor="start" x="141.5" y="-421" font-family="Helvetica,sans-Serif" font-size="10.00">+ getID()</text>
</a>
</g>
</g>
<!-- Node5&#45;&gt;Node2 -->
<g id="edge4" class="edge">
<title>Node5&#45;&gt;Node2</title>
<path fill="none" stroke="midnightblue" d="M241.27,-405.83C255.41,-388.48 271.49,-371.11 288.5,-357 332.9,-320.17 392.08,-290.8 434.9,-272.31"/>
<polygon fill="none" stroke="midnightblue" points="238.42,-403.79 234.92,-413.79 243.89,-408.16 238.42,-403.79"/>
</g>
<!-- Node6 -->
<g id="node6" class="node">
<title>Node6</title>
<g id="a_node6"><a xlink:title=" ">
<polygon fill="white" stroke="#bfbfbf" points="170,-662 170,-719 203,-719 203,-662 170,-662"/>
<text text-anchor="middle" x="186.5" y="-707" font-family="Helvetica,sans-Serif" font-size="10.00">TID</text>
<polyline fill="none" stroke="#bfbfbf" points="170,-700 203,-700 "/>
<text text-anchor="middle" x="186.5" y="-688" font-family="Helvetica,sans-Serif" font-size="10.00"> </text>
<polyline fill="none" stroke="#bfbfbf" points="170,-681 203,-681 "/>
<text text-anchor="middle" x="186.5" y="-669" font-family="Helvetica,sans-Serif" font-size="10.00"> </text>
</a>
</g>
</g>
<!-- Node6&#45;&gt;Node5 -->
<g id="edge5" class="edge">
<title>Node6&#45;&gt;Node5</title>
<path fill="none" stroke="#404040" d="M186.5,-661.84C186.5,-638.46 186.5,-603.71 186.5,-571.37"/>
<polygon fill="none" stroke="#404040" points="186.5,-571.12 182.5,-565.12 186.5,-559.12 190.5,-565.12 186.5,-571.12"/>
<text text-anchor="middle" x="199.5" y="-586" font-family="Helvetica,sans-Serif" font-size="10.00"> #_id</text>
</g>
<!-- Node7 -->
<g id="node7" class="node">
<title>Node7</title>
<g id="a_node7"><a xlink:title=" ">
<polygon fill="white" stroke="#bfbfbf" points="257.5,-458 257.5,-515 361.5,-515 361.5,-458 257.5,-458"/>
<text text-anchor="middle" x="309.5" y="-503" font-family="Helvetica,sans-Serif" font-size="10.00">list&lt; TexturePtr &gt;</text>
<polyline fill="none" stroke="#bfbfbf" points="257.5,-496 361.5,-496 "/>
<text text-anchor="middle" x="309.5" y="-484" font-family="Helvetica,sans-Serif" font-size="10.00"> </text>
<polyline fill="none" stroke="#bfbfbf" points="257.5,-477 361.5,-477 "/>
<text text-anchor="middle" x="309.5" y="-465" font-family="Helvetica,sans-Serif" font-size="10.00"> </text>
</a>
</g>
</g>
<!-- Node7&#45;&gt;Node2 -->
<g id="edge6" class="edge">
<title>Node7&#45;&gt;Node2</title>
<path fill="none" stroke="#404040" d="M299.69,-457.87C291.73,-430.36 284.5,-387.88 302.5,-357 328.37,-312.62 380.36,-285.24 423.12,-269.38"/>
<polygon fill="none" stroke="#404040" points="423.31,-269.31 427.63,-263.54 434.62,-265.3 430.3,-271.08 423.31,-269.31"/>
<text text-anchor="middle" x="331.5" y="-371" font-family="Helvetica,sans-Serif" font-size="10.00"> #_textures</text>
</g>
<!-- Node8 -->
<g id="node8" class="node">
<title>Node8</title>
<g id="a_node8"><a xlink:title=" ">
<polygon fill="white" stroke="#bfbfbf" points="414,-458 414,-515 499,-515 499,-458 414,-458"/>
<text text-anchor="middle" x="456.5" y="-503" font-family="Helvetica,sans-Serif" font-size="10.00">SharedPointer</text>
<polyline fill="none" stroke="#bfbfbf" points="414,-496 499,-496 "/>
<text text-anchor="middle" x="456.5" y="-484" font-family="Helvetica,sans-Serif" font-size="10.00"> </text>
<polyline fill="none" stroke="#bfbfbf" points="414,-477 499,-477 "/>
<text text-anchor="middle" x="456.5" y="-465" font-family="Helvetica,sans-Serif" font-size="10.00"> </text>
</a>
</g>
</g>
<!-- Node8&#45;&gt;Node2 -->
<g id="edge7" class="edge">
<title>Node8&#45;&gt;Node2</title>
<path fill="none" stroke="#404040" d="M416.61,-457.88C385.93,-432.95 351.44,-394.54 368.5,-357 380.56,-330.47 402.85,-307.96 425.12,-290.57"/>
<polygon fill="none" stroke="#404040" points="425.37,-290.38 427.77,-283.58 434.97,-283.19 432.57,-289.99 425.37,-290.38"/>
<text text-anchor="middle" x="418.5" y="-371" font-family="Helvetica,sans-Serif" font-size="10.00"> #_p_bufferManager</text>
</g>
<!-- Node8&#45;&gt;Node2 -->
<g id="edge10" class="edge">
<title>Node8&#45;&gt;Node2</title>
<path fill="none" stroke="#404040" d="M460.53,-457.62C464.38,-431.07 470.39,-389.48 476.03,-350.51"/>
<polygon fill="none" stroke="#404040" points="476.05,-350.4 472.95,-343.89 477.76,-338.52 480.86,-345.04 476.05,-350.4"/>
<text text-anchor="middle" x="529" y="-382" font-family="Helvetica,sans-Serif" font-size="10.00"> #_p_fragmentShader</text>
<text text-anchor="middle" x="529" y="-371" font-family="Helvetica,sans-Serif" font-size="10.00">#_p_geometryShader</text>
<text text-anchor="middle" x="529" y="-360" font-family="Helvetica,sans-Serif" font-size="10.00">#_p_vertexShader</text>
</g>
<!-- Node9 -->
<g id="node9" class="node">
<title>Node9</title>
<g id="a_node9"><a xlink:title=" ">
<polygon fill="white" stroke="#bfbfbf" points="555.5,-458 555.5,-515 675.5,-515 675.5,-458 555.5,-458"/>
<text text-anchor="middle" x="615.5" y="-503" font-family="Helvetica,sans-Serif" font-size="10.00">list&lt; GLUniformPtr &gt;</text>
<polyline fill="none" stroke="#bfbfbf" points="555.5,-496 675.5,-496 "/>
<text text-anchor="middle" x="615.5" y="-484" font-family="Helvetica,sans-Serif" font-size="10.00"> </text>
<polyline fill="none" stroke="#bfbfbf" points="555.5,-477 675.5,-477 "/>
<text text-anchor="middle" x="615.5" y="-465" font-family="Helvetica,sans-Serif" font-size="10.00"> </text>
</a>
</g>
</g>
<!-- Node9&#45;&gt;Node2 -->
<g id="edge8" class="edge">
<title>Node9&#45;&gt;Node2</title>
<path fill="none" stroke="#404040" d="M615.49,-457.81C614.14,-429.85 608.29,-386.68 586.5,-357 577.07,-344.16 567.35,-349.64 555.5,-339 555.4,-338.91 555.31,-338.82 555.21,-338.74"/>
<polygon fill="none" stroke="#404040" points="554.94,-338.48 547.85,-337.18 546.32,-330.13 553.41,-331.43 554.94,-338.48"/>
<text text-anchor="middle" x="633" y="-371" font-family="Helvetica,sans-Serif" font-size="10.00"> #_uniforms</text>
</g>
<!-- Node10 -->
<g id="node10" class="node">
<title>Node10</title>
<g id="a_node10"><a xlink:title=" ">
<polygon fill="white" stroke="#bfbfbf" points="694,-458 694,-515 739,-515 739,-458 694,-458"/>
<text text-anchor="middle" x="716.5" y="-503" font-family="Helvetica,sans-Serif" font-size="10.00">size_t</text>
<polyline fill="none" stroke="#bfbfbf" points="694,-496 739,-496 "/>
<text text-anchor="middle" x="716.5" y="-484" font-family="Helvetica,sans-Serif" font-size="10.00"> </text>
<polyline fill="none" stroke="#bfbfbf" points="694,-477 739,-477 "/>
<text text-anchor="middle" x="716.5" y="-465" font-family="Helvetica,sans-Serif" font-size="10.00"> </text>
</a>
</g>
</g>
<!-- Node10&#45;&gt;Node2 -->
<g id="edge9" class="edge">
<title>Node10&#45;&gt;Node2</title>
<path fill="none" stroke="#404040" d="M713.91,-457.76C709.58,-428.06 698.06,-381.86 667.5,-357 631.14,-327.42 602.77,-360 556.82,-338.3"/>
<polygon fill="none" stroke="#404040" points="556.59,-338.18 549.41,-338.79 546.08,-332.4 553.26,-331.78 556.59,-338.18"/>
<text text-anchor="middle" x="736" y="-371" font-family="Helvetica,sans-Serif" font-size="10.00"> #_activeSceneID</text>
</g>
<!-- Node11 -->
<g id="node11" class="node">
<title>Node11</title>
<g id="a_node11"><a xlink:title=" ">
<polygon fill="white" stroke="#bfbfbf" points="761.5,-458 761.5,-515 867.5,-515 867.5,-458 761.5,-458"/>
<text text-anchor="middle" x="814.5" y="-503" font-family="Helvetica,sans-Serif" font-size="10.00">list&lt; CameraPtr &gt;</text>
<polyline fill="none" stroke="#bfbfbf" points="761.5,-496 867.5,-496 "/>
<text text-anchor="middle" x="814.5" y="-484" font-family="Helvetica,sans-Serif" font-size="10.00"> </text>
<polyline fill="none" stroke="#bfbfbf" points="761.5,-477 867.5,-477 "/>
<text text-anchor="middle" x="814.5" y="-465" font-family="Helvetica,sans-Serif" font-size="10.00"> </text>
</a>
</g>
</g>
<!-- Node11&#45;&gt;Node2 -->
<g id="edge11" class="edge">
<title>Node11&#45;&gt;Node2</title>
<path fill="none" stroke="#404040" d="M816.45,-457.92C816.88,-428.14 812.39,-381.65 783.5,-357 747.26,-326.07 617.61,-359.04 557.41,-338.04"/>
<polygon fill="none" stroke="#404040" points="557.29,-337.98 550.18,-339.18 546.34,-333.08 553.45,-331.88 557.29,-337.98"/>
<text text-anchor="middle" x="834" y="-371" font-family="Helvetica,sans-Serif" font-size="10.00"> #_cameras</text>
</g>
<!-- Node12 -->
<g id="node12" class="node">
<title>Node12</title>
<g id="a_node12"><a xlink:title=" ">
<polygon fill="white" stroke="#bfbfbf" points="885.5,-458 885.5,-515 933.5,-515 933.5,-458 885.5,-458"/>
<text text-anchor="middle" x="909.5" y="-503" font-family="Helvetica,sans-Serif" font-size="10.00">GLuint</text>
<polyline fill="none" stroke="#bfbfbf" points="885.5,-496 933.5,-496 "/>
<text text-anchor="middle" x="909.5" y="-484" font-family="Helvetica,sans-Serif" font-size="10.00"> </text>
<polyline fill="none" stroke="#bfbfbf" points="885.5,-477 933.5,-477 "/>
<text text-anchor="middle" x="909.5" y="-465" font-family="Helvetica,sans-Serif" font-size="10.00"> </text>
</a>
</g>
</g>
<!-- Node12&#45;&gt;Node2 -->
<g id="edge12" class="edge">
<title>Node12&#45;&gt;Node2</title>
<path fill="none" stroke="#404040" d="M909.02,-457.84C906.86,-427.75 898.37,-380.77 867.5,-357 815.16,-316.69 635.33,-366.76 557.45,-338.21"/>
<polygon fill="none" stroke="#404040" points="557.23,-338.11 550.11,-339.28 546.29,-333.17 553.41,-331.99 557.23,-338.11"/>
<text text-anchor="middle" x="914.5" y="-371" font-family="Helvetica,sans-Serif" font-size="10.00"> #_vaoID</text>
</g>
<!-- Node13 -->
<g id="node13" class="node">
<title>Node13</title>
<g id="a_node13"><a xlink:title=" ">
<polygon fill="white" stroke="#bfbfbf" points="564.5,-221 564.5,-278 650.5,-278 650.5,-221 564.5,-221"/>
<text text-anchor="middle" x="607.5" y="-266" font-family="Helvetica,sans-Serif" font-size="10.00">list&lt; PartPtr &gt;</text>
<polyline fill="none" stroke="#bfbfbf" points="564.5,-259 650.5,-259 "/>
<text text-anchor="middle" x="607.5" y="-247" font-family="Helvetica,sans-Serif" font-size="10.00"> </text>
<polyline fill="none" stroke="#bfbfbf" points="564.5,-240 650.5,-240 "/>
<text text-anchor="middle" x="607.5" y="-228" font-family="Helvetica,sans-Serif" font-size="10.00"> </text>
</a>
</g>
</g>
<!-- Node13&#45;&gt;Node1 -->
<g id="edge13" class="edge">
<title>Node13&#45;&gt;Node1</title>
<path fill="none" stroke="#404040" d="M607.5,-220.73C607.5,-195.68 607.5,-157.83 607.5,-124.88"/>
<polygon fill="none" stroke="#404040" points="607.5,-124.53 603.5,-118.53 607.5,-112.53 611.5,-118.53 607.5,-124.53"/>
<text text-anchor="middle" x="628.5" y="-134" font-family="Helvetica,sans-Serif" font-size="10.00"> #_parts</text>
</g>
<!-- Node14 -->
<g id="node14" class="node">
<title>Node14</title>
<g id="a_node14"><a xlink:title=" ">
<polygon fill="white" stroke="#bfbfbf" points="668.5,-221 668.5,-278 706.5,-278 706.5,-221 668.5,-221"/>
<text text-anchor="middle" x="687.5" y="-266" font-family="Helvetica,sans-Serif" font-size="10.00">bool</text>
<polyline fill="none" stroke="#bfbfbf" points="668.5,-259 706.5,-259 "/>
<text text-anchor="middle" x="687.5" y="-247" font-family="Helvetica,sans-Serif" font-size="10.00"> </text>
<polyline fill="none" stroke="#bfbfbf" points="668.5,-240 706.5,-240 "/>
<text text-anchor="middle" x="687.5" y="-228" font-family="Helvetica,sans-Serif" font-size="10.00"> </text>
</a>
</g>
</g>
<!-- Node14&#45;&gt;Node1 -->
<g id="edge14" class="edge">
<title>Node14&#45;&gt;Node1</title>
<path fill="none" stroke="#404040" d="M681.75,-220.67C676.19,-196.37 666.68,-160.47 653.5,-131 652.4,-128.54 651.23,-126.07 650.01,-123.6"/>
<polygon fill="none" stroke="#404040" points="649.91,-123.41 643.58,-119.96 644.33,-112.79 650.66,-116.24 649.91,-123.41"/>
<text text-anchor="middle" x="714" y="-134" font-family="Helvetica,sans-Serif" font-size="10.00"> #_partsRequireUpdate</text>
</g>
</g>
</svg>
