<?xml version="1.0" encoding="UTF-8" standalone="no"?>
<!DOCTYPE svg PUBLIC "-//W3C//DTD SVG 1.1//EN"
 "http://www.w3.org/Graphics/SVG/1.1/DTD/svg11.dtd">
<!-- Generated by graphviz version 2.43.0 (0)
 -->
<!-- Title: cie::gl::AbsCameraControls Pages: 1 -->
<svg width="642pt" height="628pt"
 viewBox="0.00 0.00 641.50 628.00" xmlns="http://www.w3.org/2000/svg" xmlns:xlink="http://www.w3.org/1999/xlink">
<g id="graph0" class="graph" transform="scale(1 1) rotate(0) translate(4 624)">
<title>cie::gl::AbsCameraControls</title>
<polygon fill="white" stroke="transparent" points="-4,4 -4,-624 637.5,-624 637.5,4 -4,4"/>
<!-- Node1 -->
<g id="node1" class="node">
<title>Node1</title>
<g id="a_node1"><a xlink:title=" ">
<polygon fill="#bfbfbf" stroke="black" points="204.5,-0.5 204.5,-266.5 355.5,-266.5 355.5,-0.5 204.5,-0.5"/>
<text text-anchor="middle" x="280" y="-254.5" font-family="Helvetica,sans-Serif" font-size="10.00">cie::gl::AbsCameraControls</text>
<polyline fill="none" stroke="black" points="204.5,-247.5 355.5,-247.5 "/>
<text text-anchor="middle" x="280" y="-235.5" font-family="Helvetica,sans-Serif" font-size="10.00"> </text>
<polyline fill="none" stroke="black" points="204.5,-228.5 355.5,-228.5 "/>
<text text-anchor="start" x="212.5" y="-216.5" font-family="Helvetica,sans-Serif" font-size="10.00">+ AbsCameraControls()</text>
<text text-anchor="start" x="212.5" y="-205.5" font-family="Helvetica,sans-Serif" font-size="10.00">+ mouseButtonCallback()</text>
<text text-anchor="start" x="212.5" y="-194.5" font-family="Helvetica,sans-Serif" font-size="10.00">+ cursorPositionCallback()</text>
<text text-anchor="start" x="212.5" y="-183.5" font-family="Helvetica,sans-Serif" font-size="10.00">+ cursorEnterCallback()</text>
<text text-anchor="start" x="212.5" y="-172.5" font-family="Helvetica,sans-Serif" font-size="10.00">+ scrollCallback()</text>
<text text-anchor="start" x="212.5" y="-161.5" font-family="Helvetica,sans-Serif" font-size="10.00">+ keyboardCallback()</text>
<text text-anchor="start" x="212.5" y="-150.5" font-family="Helvetica,sans-Serif" font-size="10.00">+ bind()</text>
<text text-anchor="start" x="212.5" y="-139.5" font-family="Helvetica,sans-Serif" font-size="10.00"># onMouseButtonPress()</text>
<text text-anchor="start" x="212.5" y="-128.5" font-family="Helvetica,sans-Serif" font-size="10.00"># onMouseButtonHold()</text>
<text text-anchor="start" x="212.5" y="-117.5" font-family="Helvetica,sans-Serif" font-size="10.00"># onMouseButtonRelease()</text>
<text text-anchor="start" x="212.5" y="-106.5" font-family="Helvetica,sans-Serif" font-size="10.00"># onCursorMovement()</text>
<text text-anchor="start" x="212.5" y="-95.5" font-family="Helvetica,sans-Serif" font-size="10.00"># onCursorEnter()</text>
<text text-anchor="start" x="212.5" y="-84.5" font-family="Helvetica,sans-Serif" font-size="10.00"># onCursorLeave()</text>
<text text-anchor="start" x="212.5" y="-73.5" font-family="Helvetica,sans-Serif" font-size="10.00"># onHorizontalScroll()</text>
<text text-anchor="start" x="212.5" y="-62.5" font-family="Helvetica,sans-Serif" font-size="10.00"># onVerticalScroll()</text>
<text text-anchor="start" x="212.5" y="-51.5" font-family="Helvetica,sans-Serif" font-size="10.00"># onKeyboardPress()</text>
<text text-anchor="start" x="212.5" y="-40.5" font-family="Helvetica,sans-Serif" font-size="10.00"># onKeyboardHold()</text>
<text text-anchor="start" x="212.5" y="-29.5" font-family="Helvetica,sans-Serif" font-size="10.00"># onKeyboardRelease()</text>
<text text-anchor="start" x="212.5" y="-18.5" font-family="Helvetica,sans-Serif" font-size="10.00"># onSubjectChange()</text>
<text text-anchor="start" x="212.5" y="-7.5" font-family="Helvetica,sans-Serif" font-size="10.00"># getWindow()</text>
</a>
</g>
</g>
<!-- Node2 -->
<g id="node2" class="node">
<title>Node2</title>
<g id="a_node2"><a target="_parent" xlink:href="../../../cieutils/docs/html/classcie_1_1utils_1_1observer_1_1Observer.html" xlink:title=" ">
<polygon fill="white" stroke="black" points="0,-325.5 0,-503.5 120,-503.5 120,-325.5 0,-325.5"/>
<text text-anchor="start" x="8" y="-491.5" font-family="Helvetica,sans-Serif" font-size="10.00">cie::utils::observer</text>
<text text-anchor="middle" x="60" y="-480.5" font-family="Helvetica,sans-Serif" font-size="10.00">::Observer</text>
<polyline fill="none" stroke="black" points="0,-473.5 120,-473.5 "/>
<text text-anchor="middle" x="60" y="-461.5" font-family="Helvetica,sans-Serif" font-size="10.00"> </text>
<polyline fill="none" stroke="black" points="0,-454.5 120,-454.5 "/>
<text text-anchor="start" x="8" y="-442.5" font-family="Helvetica,sans-Serif" font-size="10.00">+ Observer()</text>
<text text-anchor="start" x="8" y="-431.5" font-family="Helvetica,sans-Serif" font-size="10.00">+ Observer()</text>
<text text-anchor="start" x="8" y="-420.5" font-family="Helvetica,sans-Serif" font-size="10.00">+ Observer()</text>
<text text-anchor="start" x="8" y="-409.5" font-family="Helvetica,sans-Serif" font-size="10.00">+ operator=()</text>
<text text-anchor="start" x="8" y="-398.5" font-family="Helvetica,sans-Serif" font-size="10.00">+ ~Observer()</text>
<text text-anchor="start" x="8" y="-387.5" font-family="Helvetica,sans-Serif" font-size="10.00">+ onSubjectChange()</text>
<text text-anchor="start" x="8" y="-376.5" font-family="Helvetica,sans-Serif" font-size="10.00">+ detach()</text>
<text text-anchor="start" x="8" y="-365.5" font-family="Helvetica,sans-Serif" font-size="10.00">+ as()</text>
<text text-anchor="start" x="8" y="-354.5" font-family="Helvetica,sans-Serif" font-size="10.00">+ setSubject()</text>
<text text-anchor="start" x="8" y="-343.5" font-family="Helvetica,sans-Serif" font-size="10.00">+ subject()</text>
<text text-anchor="start" x="8" y="-332.5" font-family="Helvetica,sans-Serif" font-size="10.00">+ subject()</text>
</a>
</g>
</g>
<!-- Node2&#45;&gt;Node1 -->
<g id="edge1" class="edge">
<title>Node2&#45;&gt;Node1</title>
<path fill="none" stroke="midnightblue" d="M126.55,-328.12C127.37,-327.07 128.19,-326.03 129,-325 153.39,-293.98 180.1,-260.21 204.19,-229.83"/>
<polygon fill="none" stroke="midnightblue" points="123.59,-326.22 120.17,-336.24 129.1,-330.54 123.59,-326.22"/>
</g>
<!-- Node3 -->
<g id="node3" class="node">
<title>Node3</title>
<g id="a_node3"><a xlink:title=" ">
<polygon fill="white" stroke="#bfbfbf" points="0.5,-551.5 0.5,-619.5 119.5,-619.5 119.5,-551.5 0.5,-551.5"/>
<text text-anchor="start" x="8.5" y="-607.5" font-family="Helvetica,sans-Serif" font-size="10.00">weak_ptr&lt; cie::utils</text>
<text text-anchor="middle" x="60" y="-596.5" font-family="Helvetica,sans-Serif" font-size="10.00">::observer::Subject &gt;</text>
<polyline fill="none" stroke="#bfbfbf" points="0.5,-589.5 119.5,-589.5 "/>
<text text-anchor="middle" x="60" y="-577.5" font-family="Helvetica,sans-Serif" font-size="10.00"> </text>
<polyline fill="none" stroke="#bfbfbf" points="0.5,-570.5 119.5,-570.5 "/>
<text text-anchor="middle" x="60" y="-558.5" font-family="Helvetica,sans-Serif" font-size="10.00"> </text>
</a>
</g>
</g>
<!-- Node3&#45;&gt;Node2 -->
<g id="edge2" class="edge">
<title>Node3&#45;&gt;Node2</title>
<path fill="none" stroke="#404040" d="M60,-551.11C60,-540.69 60,-528.6 60,-516.02"/>
<polygon fill="none" stroke="#404040" points="60,-515.85 56,-509.85 60,-503.85 64,-509.85 60,-515.85"/>
<text text-anchor="middle" x="86" y="-525" font-family="Helvetica,sans-Serif" font-size="10.00"> #_subject</text>
</g>
<!-- Node4 -->
<g id="node4" class="node">
<title>Node4</title>
<g id="a_node4"><a xlink:title=" ">
<polygon fill="white" stroke="#bfbfbf" points="138,-386 138,-443 188,-443 188,-386 138,-386"/>
<text text-anchor="middle" x="163" y="-431" font-family="Helvetica,sans-Serif" font-size="10.00">double</text>
<polyline fill="none" stroke="#bfbfbf" points="138,-424 188,-424 "/>
<text text-anchor="middle" x="163" y="-412" font-family="Helvetica,sans-Serif" font-size="10.00"> </text>
<polyline fill="none" stroke="#bfbfbf" points="138,-405 188,-405 "/>
<text text-anchor="middle" x="163" y="-393" font-family="Helvetica,sans-Serif" font-size="10.00"> </text>
</a>
</g>
</g>
<!-- Node4&#45;&gt;Node1 -->
<g id="edge3" class="edge">
<title>Node4&#45;&gt;Node1</title>
<path fill="none" stroke="#404040" d="M172.1,-385.63C180.88,-359.4 194.87,-319.16 209,-285 209.97,-282.65 210.96,-280.29 211.96,-277.92"/>
<polygon fill="none" stroke="#404040" points="212.03,-277.76 210.71,-270.67 216.75,-266.73 218.07,-273.82 212.03,-277.76"/>
<text text-anchor="middle" x="220.5" y="-299" font-family="Helvetica,sans-Serif" font-size="10.00"> #_x</text>
<text text-anchor="middle" x="220.5" y="-288" font-family="Helvetica,sans-Serif" font-size="10.00">#_y</text>
</g>
<!-- Node5 -->
<g id="node5" class="node">
<title>Node5</title>
<g id="a_node5"><a xlink:title=" ">
<polygon fill="white" stroke="#bfbfbf" points="206,-386 206,-443 284,-443 284,-386 206,-386"/>
<text text-anchor="middle" x="245" y="-431" font-family="Helvetica,sans-Serif" font-size="10.00">WeakPointer</text>
<polyline fill="none" stroke="#bfbfbf" points="206,-424 284,-424 "/>
<text text-anchor="middle" x="245" y="-412" font-family="Helvetica,sans-Serif" font-size="10.00"> </text>
<polyline fill="none" stroke="#bfbfbf" points="206,-405 284,-405 "/>
<text text-anchor="middle" x="245" y="-393" font-family="Helvetica,sans-Serif" font-size="10.00"> </text>
</a>
</g>
</g>
<!-- Node5&#45;&gt;Node1 -->
<g id="edge4" class="edge">
<title>Node5&#45;&gt;Node1</title>
<path fill="none" stroke="#404040" d="M242.36,-385.95C240.44,-364.47 238.01,-333.87 237,-307 236.63,-297.23 235.64,-294.68 237,-285 237.3,-282.82 237.63,-280.64 237.98,-278.44"/>
<polygon fill="none" stroke="#404040" points="237.99,-278.42 235.08,-271.82 240.05,-266.6 242.96,-273.2 237.99,-278.42"/>
<text text-anchor="middle" x="270" y="-293.5" font-family="Helvetica,sans-Serif" font-size="10.00"> #_p_window</text>
</g>
<!-- Node6 -->
<g id="node6" class="node">
<title>Node6</title>
<g id="a_node6"><a xlink:title=" ">
<polygon fill="white" stroke="#bfbfbf" points="310.5,-386 310.5,-443 339.5,-443 339.5,-386 310.5,-386"/>
<text text-anchor="middle" x="325" y="-431" font-family="Helvetica,sans-Serif" font-size="10.00">int</text>
<polyline fill="none" stroke="#bfbfbf" points="310.5,-424 339.5,-424 "/>
<text text-anchor="middle" x="325" y="-412" font-family="Helvetica,sans-Serif" font-size="10.00"> </text>
<polyline fill="none" stroke="#bfbfbf" points="310.5,-405 339.5,-405 "/>
<text text-anchor="middle" x="325" y="-393" font-family="Helvetica,sans-Serif" font-size="10.00"> </text>
</a>
</g>
</g>
<!-- Node6&#45;&gt;Node1 -->
<g id="edge5" class="edge">
<title>Node6&#45;&gt;Node1</title>
<path fill="none" stroke="#404040" d="M320.56,-385.98C316.41,-360.22 309.86,-319.61 303.22,-278.48"/>
<polygon fill="none" stroke="#404040" points="303.22,-278.44 298.31,-273.15 301.31,-266.59 306.21,-271.88 303.22,-278.44"/>
<text text-anchor="middle" x="341" y="-293.5" font-family="Helvetica,sans-Serif" font-size="10.00"> #_escapeKey</text>
</g>
<!-- Node7 -->
<g id="node7" class="node">
<title>Node7</title>
<g id="a_node7"><a xlink:title=" ">
<polygon fill="white" stroke="#bfbfbf" points="368,-386 368,-443 468,-443 468,-386 368,-386"/>
<text text-anchor="middle" x="418" y="-431" font-family="Helvetica,sans-Serif" font-size="10.00">set&lt; KeyEnum &gt;</text>
<polyline fill="none" stroke="#bfbfbf" points="368,-424 468,-424 "/>
<text text-anchor="middle" x="418" y="-412" font-family="Helvetica,sans-Serif" font-size="10.00"> </text>
<polyline fill="none" stroke="#bfbfbf" points="368,-405 468,-405 "/>
<text text-anchor="middle" x="418" y="-393" font-family="Helvetica,sans-Serif" font-size="10.00"> </text>
</a>
</g>
</g>
<!-- Node7&#45;&gt;Node1 -->
<g id="edge6" class="edge">
<title>Node7&#45;&gt;Node1</title>
<path fill="none" stroke="#404040" d="M412.34,-385.81C406.32,-359.19 395.51,-318.2 380,-285 374.61,-273.47 368.42,-261.81 361.81,-250.35"/>
<polygon fill="none" stroke="#404040" points="361.74,-250.24 355.25,-247.1 355.64,-239.9 362.14,-243.03 361.74,-250.24"/>
<text text-anchor="middle" x="423" y="-293.5" font-family="Helvetica,sans-Serif" font-size="10.00"> #_activeKeys</text>
</g>
<!-- Node8 -->
<g id="node8" class="node">
<title>Node8</title>
<g id="a_node8"><a xlink:title=" ">
<polygon fill="white" stroke="#bfbfbf" points="486.5,-386 486.5,-443 633.5,-443 633.5,-386 486.5,-386"/>
<text text-anchor="middle" x="560" y="-431" font-family="Helvetica,sans-Serif" font-size="10.00">shared_ptr&lt; AbsCamera &gt;</text>
<polyline fill="none" stroke="#bfbfbf" points="486.5,-424 633.5,-424 "/>
<text text-anchor="middle" x="560" y="-412" font-family="Helvetica,sans-Serif" font-size="10.00"> </text>
<polyline fill="none" stroke="#bfbfbf" points="486.5,-405 633.5,-405 "/>
<text text-anchor="middle" x="560" y="-393" font-family="Helvetica,sans-Serif" font-size="10.00"> </text>
</a>
</g>
</g>
<!-- Node8&#45;&gt;Node1 -->
<g id="edge7" class="edge">
<title>Node8&#45;&gt;Node1</title>
<path fill="none" stroke="#404040" d="M541.77,-385.99C523.23,-358.94 492.92,-317.16 462,-285 432.51,-254.33 397.03,-223.8 365.25,-198.33"/>
<polygon fill="none" stroke="#404040" points="364.92,-198.06 357.73,-197.46 355.52,-190.59 362.71,-191.19 364.92,-198.06"/>
<text text-anchor="middle" x="511.5" y="-293.5" font-family="Helvetica,sans-Serif" font-size="10.00"> #_p_camera</text>
</g>
</g>
</svg>
