<?xml version="1.0" encoding="UTF-8" standalone="no"?>
<!DOCTYPE svg PUBLIC "-//W3C//DTD SVG 1.1//EN"
 "http://www.w3.org/Graphics/SVG/1.1/DTD/svg11.dtd">
<!-- Generated by graphviz version 2.43.0 (0)
 -->
<!-- Title: cie::gl::Plot2&lt; Args &gt; Pages: 1 -->
<svg width="201pt" height="592pt"
 viewBox="0.00 0.00 201.00 592.00" xmlns="http://www.w3.org/2000/svg" xmlns:xlink="http://www.w3.org/1999/xlink">
<g id="graph0" class="graph" transform="scale(1 1) rotate(0) translate(4 588)">
<title>cie::gl::Plot2&lt; Args &gt;</title>
<polygon fill="white" stroke="transparent" points="-4,4 -4,-588 197,-588 197,4 -4,4"/>
<!-- Node1 -->
<g id="node1" class="node">
<title>Node1</title>
<g id="a_node1"><a xlink:title="Default Plot2 that will cause a compilation error.">
<polygon fill="#bfbfbf" stroke="black" points="9.5,-0.5 9.5,-57.5 130.5,-57.5 130.5,-0.5 9.5,-0.5"/>
<text text-anchor="middle" x="70" y="-45.5" font-family="Helvetica,sans-Serif" font-size="10.00">cie::gl::Plot2&lt; Args &gt;</text>
<polyline fill="none" stroke="black" points="9.5,-38.5 130.5,-38.5 "/>
<text text-anchor="middle" x="70" y="-26.5" font-family="Helvetica,sans-Serif" font-size="10.00"> </text>
<polyline fill="none" stroke="black" points="9.5,-19.5 130.5,-19.5 "/>
<text text-anchor="middle" x="70" y="-7.5" font-family="Helvetica,sans-Serif" font-size="10.00"> </text>
</a>
</g>
</g>
<!-- Node2 -->
<g id="node2" class="node">
<title>Node2</title>
<g id="a_node2"><a xlink:href="classcie_1_1gl_1_1AbsPlot2.html" target="_top" xlink:title=" ">
<polygon fill="white" stroke="black" points="0,-95.5 0,-229.5 140,-229.5 140,-95.5 0,-95.5"/>
<text text-anchor="start" x="8" y="-217.5" font-family="Helvetica,sans-Serif" font-size="10.00">cie::gl::AbsPlot2&lt;</text>
<text text-anchor="middle" x="70" y="-206.5" font-family="Helvetica,sans-Serif" font-size="10.00"> std::false_type, Args... &gt;</text>
<polyline fill="none" stroke="black" points="0,-199.5 140,-199.5 "/>
<text text-anchor="start" x="8" y="-187.5" font-family="Helvetica,sans-Serif" font-size="10.00"># _vertices</text>
<text text-anchor="start" x="8" y="-176.5" font-family="Helvetica,sans-Serif" font-size="10.00"># _p_indices</text>
<text text-anchor="start" x="8" y="-165.5" font-family="Helvetica,sans-Serif" font-size="10.00"># _p_camera</text>
<text text-anchor="start" x="8" y="-154.5" font-family="Helvetica,sans-Serif" font-size="10.00"># _p_scene</text>
<text text-anchor="start" x="8" y="-143.5" font-family="Helvetica,sans-Serif" font-size="10.00"># _p_controls</text>
<polyline fill="none" stroke="black" points="0,-136.5 140,-136.5 "/>
<text text-anchor="start" x="8" y="-124.5" font-family="Helvetica,sans-Serif" font-size="10.00">+ AbsPlot2()</text>
<text text-anchor="start" x="8" y="-113.5" font-family="Helvetica,sans-Serif" font-size="10.00">+ AbsPlot2()</text>
<text text-anchor="start" x="8" y="-102.5" font-family="Helvetica,sans-Serif" font-size="10.00">+ fit()</text>
</a>
</g>
</g>
<!-- Node2&#45;&gt;Node1 -->
<g id="edge1" class="edge">
<title>Node2&#45;&gt;Node1</title>
<path fill="none" stroke="midnightblue" d="M70,-85.12C70,-75.36 70,-65.92 70,-57.7"/>
<polygon fill="none" stroke="midnightblue" points="66.5,-85.36 70,-95.36 73.5,-85.36 66.5,-85.36"/>
</g>
<!-- Node3 -->
<g id="node3" class="node">
<title>Node3</title>
<g id="a_node3"><a xlink:href="classcie_1_1gl_1_1AbsPlot.html" target="_top" xlink:title=" ">
<polygon fill="white" stroke="black" points="20,-460.5 20,-583.5 112,-583.5 112,-460.5 20,-460.5"/>
<text text-anchor="middle" x="66" y="-571.5" font-family="Helvetica,sans-Serif" font-size="10.00">cie::gl::AbsPlot</text>
<polyline fill="none" stroke="black" points="20,-564.5 112,-564.5 "/>
<text text-anchor="start" x="28" y="-552.5" font-family="Helvetica,sans-Serif" font-size="10.00"># _p_window</text>
<text text-anchor="start" x="28" y="-541.5" font-family="Helvetica,sans-Serif" font-size="10.00"># _p_attributes</text>
<polyline fill="none" stroke="black" points="20,-534.5 112,-534.5 "/>
<text text-anchor="start" x="28" y="-522.5" font-family="Helvetica,sans-Serif" font-size="10.00">+ AbsPlot()</text>
<text text-anchor="start" x="28" y="-511.5" font-family="Helvetica,sans-Serif" font-size="10.00">+ AbsPlot()</text>
<text text-anchor="start" x="28" y="-500.5" font-family="Helvetica,sans-Serif" font-size="10.00">+ update()</text>
<text text-anchor="start" x="28" y="-489.5" font-family="Helvetica,sans-Serif" font-size="10.00">+ fit()</text>
<text text-anchor="start" x="28" y="-478.5" font-family="Helvetica,sans-Serif" font-size="10.00">+ show()</text>
<text text-anchor="start" x="28" y="-467.5" font-family="Helvetica,sans-Serif" font-size="10.00">+ attributes()</text>
</a>
</g>
</g>
<!-- Node3&#45;&gt;Node2 -->
<g id="edge2" class="edge">
<title>Node3&#45;&gt;Node2</title>
<path fill="none" stroke="midnightblue" d="M66.79,-450.32C67.51,-386.17 68.56,-292.29 69.26,-229.61"/>
<polygon fill="none" stroke="midnightblue" points="63.29,-450.32 66.68,-460.35 70.29,-450.39 63.29,-450.32"/>
</g>
<!-- Node4 -->
<g id="node4" class="node">
<title>Node4</title>
<g id="a_node4"><a xlink:href="classcie_1_1gl_1_1AbsPlot2.html" target="_top" xlink:title=" ">
<polygon fill="white" stroke="black" points="82.5,-288.5 82.5,-422.5 185.5,-422.5 185.5,-288.5 82.5,-288.5"/>
<text text-anchor="start" x="90.5" y="-410.5" font-family="Helvetica,sans-Serif" font-size="10.00">cie::gl::AbsPlot2&lt;</text>
<text text-anchor="middle" x="134" y="-399.5" font-family="Helvetica,sans-Serif" font-size="10.00"> Tag, Args &gt;</text>
<polyline fill="none" stroke="black" points="82.5,-392.5 185.5,-392.5 "/>
<text text-anchor="start" x="90.5" y="-380.5" font-family="Helvetica,sans-Serif" font-size="10.00"># _vertices</text>
<text text-anchor="start" x="90.5" y="-369.5" font-family="Helvetica,sans-Serif" font-size="10.00"># _p_indices</text>
<text text-anchor="start" x="90.5" y="-358.5" font-family="Helvetica,sans-Serif" font-size="10.00"># _p_camera</text>
<text text-anchor="start" x="90.5" y="-347.5" font-family="Helvetica,sans-Serif" font-size="10.00"># _p_scene</text>
<text text-anchor="start" x="90.5" y="-336.5" font-family="Helvetica,sans-Serif" font-size="10.00"># _p_controls</text>
<polyline fill="none" stroke="black" points="82.5,-329.5 185.5,-329.5 "/>
<text text-anchor="start" x="90.5" y="-317.5" font-family="Helvetica,sans-Serif" font-size="10.00">+ AbsPlot2()</text>
<text text-anchor="start" x="90.5" y="-306.5" font-family="Helvetica,sans-Serif" font-size="10.00">+ AbsPlot2()</text>
<text text-anchor="start" x="90.5" y="-295.5" font-family="Helvetica,sans-Serif" font-size="10.00">+ fit()</text>
</a>
</g>
</g>
<!-- Node3&#45;&gt;Node4 -->
<g id="edge4" class="edge">
<title>Node3&#45;&gt;Node4</title>
<path fill="none" stroke="midnightblue" d="M94.98,-450.91C98.86,-441.51 102.83,-431.89 106.69,-422.57"/>
<polygon fill="none" stroke="midnightblue" points="91.71,-449.64 91.13,-460.21 98.18,-452.31 91.71,-449.64"/>
</g>
<!-- Node4&#45;&gt;Node2 -->
<g id="edge3" class="edge">
<title>Node4&#45;&gt;Node2</title>
<path fill="none" stroke="orange" d="M108.47,-278.32C103.08,-262.22 97.43,-245.35 92.17,-229.65"/>
<polygon fill="orange" stroke="orange" points="105.3,-279.86 111.8,-288.23 111.94,-277.64 105.3,-279.86"/>
<text text-anchor="start" x="103" y="-262" font-family="Helvetica,sans-Serif" font-size="10.00"> &lt; std::false_type,</text>
<text text-anchor="middle" x="148" y="-251" font-family="Helvetica,sans-Serif" font-size="10.00"> Args... &gt;</text>
</g>
</g>
</svg>
