<?xml version="1.0" encoding="UTF-8" standalone="no"?>
<!DOCTYPE svg PUBLIC "-//W3C//DTD SVG 1.1//EN"
 "http://www.w3.org/Graphics/SVG/1.1/DTD/svg11.dtd">
<!-- Generated by graphviz version 2.43.0 (0)
 -->
<!-- Title: cie::gl::RigidBody Pages: 1 -->
<svg width="119pt" height="314pt"
 viewBox="0.00 0.00 118.50 314.00" xmlns="http://www.w3.org/2000/svg" xmlns:xlink="http://www.w3.org/1999/xlink">
<g id="graph0" class="graph" transform="scale(1 1) rotate(0) translate(4 310)">
<title>cie::gl::RigidBody</title>
<polygon fill="white" stroke="transparent" points="-4,4 -4,-310 114.5,-310 114.5,4 -4,4"/>
<!-- Node1 -->
<g id="node1" class="node">
<title>Node1</title>
<g id="a_node1"><a xlink:title=" ">
<polygon fill="#bfbfbf" stroke="black" points="0,-0.5 0,-178.5 101,-178.5 101,-0.5 0,-0.5"/>
<text text-anchor="middle" x="50.5" y="-166.5" font-family="Helvetica,sans-Serif" font-size="10.00">cie::gl::RigidBody</text>
<polyline fill="none" stroke="black" points="0,-159.5 101,-159.5 "/>
<text text-anchor="middle" x="50.5" y="-147.5" font-family="Helvetica,sans-Serif" font-size="10.00"> </text>
<polyline fill="none" stroke="black" points="0,-140.5 101,-140.5 "/>
<text text-anchor="start" x="8" y="-128.5" font-family="Helvetica,sans-Serif" font-size="10.00">+ RigidBody()</text>
<text text-anchor="start" x="8" y="-117.5" font-family="Helvetica,sans-Serif" font-size="10.00">+ RigidBody()</text>
<text text-anchor="start" x="8" y="-106.5" font-family="Helvetica,sans-Serif" font-size="10.00">+ RigidBody()</text>
<text text-anchor="start" x="8" y="-95.5" font-family="Helvetica,sans-Serif" font-size="10.00">+ RigidBody()</text>
<text text-anchor="start" x="8" y="-84.5" font-family="Helvetica,sans-Serif" font-size="10.00">+ position()</text>
<text text-anchor="start" x="8" y="-73.5" font-family="Helvetica,sans-Serif" font-size="10.00">+ direction()</text>
<text text-anchor="start" x="8" y="-62.5" font-family="Helvetica,sans-Serif" font-size="10.00">+ up()</text>
<text text-anchor="start" x="8" y="-51.5" font-family="Helvetica,sans-Serif" font-size="10.00">+ setPosition()</text>
<text text-anchor="start" x="8" y="-40.5" font-family="Helvetica,sans-Serif" font-size="10.00">+ setPose()</text>
<text text-anchor="start" x="8" y="-29.5" font-family="Helvetica,sans-Serif" font-size="10.00">+ translate()</text>
<text text-anchor="start" x="8" y="-18.5" font-family="Helvetica,sans-Serif" font-size="10.00">and 8 more...</text>
<text text-anchor="start" x="8" y="-7.5" font-family="Helvetica,sans-Serif" font-size="10.00"># rotateInPlace()</text>
</a>
</g>
</g>
<!-- Node2 -->
<g id="node2" class="node">
<title>Node2</title>
<g id="a_node2"><a xlink:title=" ">
<polygon fill="white" stroke="#bfbfbf" points="27.5,-248.5 27.5,-305.5 73.5,-305.5 73.5,-248.5 27.5,-248.5"/>
<text text-anchor="middle" x="50.5" y="-293.5" font-family="Helvetica,sans-Serif" font-size="10.00">dvec3</text>
<polyline fill="none" stroke="#bfbfbf" points="27.5,-286.5 73.5,-286.5 "/>
<text text-anchor="middle" x="50.5" y="-274.5" font-family="Helvetica,sans-Serif" font-size="10.00"> </text>
<polyline fill="none" stroke="#bfbfbf" points="27.5,-267.5 73.5,-267.5 "/>
<text text-anchor="middle" x="50.5" y="-255.5" font-family="Helvetica,sans-Serif" font-size="10.00"> </text>
</a>
</g>
</g>
<!-- Node2&#45;&gt;Node1 -->
<g id="edge1" class="edge">
<title>Node2&#45;&gt;Node1</title>
<path fill="none" stroke="#404040" d="M50.5,-248.23C50.5,-232.61 50.5,-212.05 50.5,-190.96"/>
<polygon fill="none" stroke="#404040" points="50.5,-190.86 46.5,-184.86 50.5,-178.86 54.5,-184.86 50.5,-190.86"/>
<text text-anchor="middle" x="80.5" y="-222" font-family="Helvetica,sans-Serif" font-size="10.00"> #_direction</text>
<text text-anchor="middle" x="80.5" y="-211" font-family="Helvetica,sans-Serif" font-size="10.00">#_position</text>
<text text-anchor="middle" x="80.5" y="-200" font-family="Helvetica,sans-Serif" font-size="10.00">#_up</text>
</g>
</g>
</svg>
