<?xml version="1.0" encoding="UTF-8" standalone="no"?>
<!DOCTYPE svg PUBLIC "-//W3C//DTD SVG 1.1//EN"
 "http://www.w3.org/Graphics/SVG/1.1/DTD/svg11.dtd">
<!-- Generated by graphviz version 2.43.0 (0)
 -->
<!-- Title: modules.glmesh.meshnode.TexturedMeshNode Pages: 1 -->
<svg width="179pt" height="364pt"
 viewBox="0.00 0.00 179.00 364.00" xmlns="http://www.w3.org/2000/svg" xmlns:xlink="http://www.w3.org/1999/xlink">
<g id="graph0" class="graph" transform="scale(1 1) rotate(0) translate(4 360)">
<title>modules.glmesh.meshnode.TexturedMeshNode</title>
<polygon fill="white" stroke="transparent" points="-4,4 -4,-360 175,-360 175,4 -4,4"/>
<!-- Node1 -->
<g id="node1" class="node">
<title>Node1</title>
<g id="a_node1"><a xlink:title=" ">
<polygon fill="#bfbfbf" stroke="black" points="8,-0.5 8,-68.5 163,-68.5 163,-0.5 8,-0.5"/>
<text text-anchor="start" x="16" y="-56.5" font-family="Helvetica,sans-Serif" font-size="10.00">modules.glmesh.meshnode.</text>
<text text-anchor="middle" x="85.5" y="-45.5" font-family="Helvetica,sans-Serif" font-size="10.00">TexturedMeshNode</text>
<polyline fill="none" stroke="black" points="8,-38.5 163,-38.5 "/>
<text text-anchor="middle" x="85.5" y="-26.5" font-family="Helvetica,sans-Serif" font-size="10.00"> </text>
<polyline fill="none" stroke="black" points="8,-19.5 163,-19.5 "/>
<text text-anchor="start" x="16" y="-7.5" font-family="Helvetica,sans-Serif" font-size="10.00">+ __init__()</text>
</a>
</g>
</g>
<!-- Node2 -->
<g id="node2" class="node">
<title>Node2</title>
<g id="a_node2"><a xlink:href="classmodules_1_1glmesh_1_1meshnode_1_1MeshNode.html" target="_top" xlink:title=" ">
<polygon fill="white" stroke="black" points="0,-105.5 0,-261.5 171,-261.5 171,-105.5 0,-105.5"/>
<text text-anchor="start" x="8" y="-249.5" font-family="Helvetica,sans-Serif" font-size="10.00">modules.glmesh.meshnode.</text>
<text text-anchor="middle" x="85.5" y="-238.5" font-family="Helvetica,sans-Serif" font-size="10.00">MeshNode</text>
<polyline fill="none" stroke="black" points="0,-231.5 171,-231.5 "/>
<text text-anchor="middle" x="85.5" y="-219.5" font-family="Helvetica,sans-Serif" font-size="10.00"> </text>
<polyline fill="none" stroke="black" points="0,-212.5 171,-212.5 "/>
<text text-anchor="start" x="8" y="-200.5" font-family="Helvetica,sans-Serif" font-size="10.00">+ __init__()</text>
<text text-anchor="start" x="8" y="-189.5" font-family="Helvetica,sans-Serif" font-size="10.00">+ parent()</text>
<text text-anchor="start" x="8" y="-178.5" font-family="Helvetica,sans-Serif" font-size="10.00">+ setParent()</text>
<text text-anchor="start" x="8" y="-167.5" font-family="Helvetica,sans-Serif" font-size="10.00">+ child()</text>
<text text-anchor="start" x="8" y="-156.5" font-family="Helvetica,sans-Serif" font-size="10.00">+ children()</text>
<text text-anchor="start" x="8" y="-145.5" font-family="Helvetica,sans-Serif" font-size="10.00">+ addChild()</text>
<text text-anchor="start" x="8" y="-134.5" font-family="Helvetica,sans-Serif" font-size="10.00">+ get_texture_coordinates()</text>
<text text-anchor="start" x="8" y="-123.5" font-family="Helvetica,sans-Serif" font-size="10.00">+ computeCompiledMeshSize()</text>
<text text-anchor="start" x="8" y="-112.5" font-family="Helvetica,sans-Serif" font-size="10.00">+ getCompiledMesh()</text>
</a>
</g>
</g>
<!-- Node2&#45;&gt;Node1 -->
<g id="edge1" class="edge">
<title>Node2&#45;&gt;Node1</title>
<path fill="none" stroke="midnightblue" d="M85.5,-94.94C85.5,-85.63 85.5,-76.64 85.5,-68.59"/>
<polygon fill="none" stroke="midnightblue" points="82,-95.13 85.5,-105.13 89,-95.13 82,-95.13"/>
</g>
<!-- Node3 -->
<g id="node3" class="node">
<title>Node3</title>
<g id="a_node3"><a xlink:title=" ">
<polygon fill="white" stroke="#bfbfbf" points="52.5,-298.5 52.5,-355.5 118.5,-355.5 118.5,-298.5 52.5,-298.5"/>
<text text-anchor="middle" x="85.5" y="-343.5" font-family="Helvetica,sans-Serif" font-size="10.00">MeshData</text>
<polyline fill="none" stroke="#bfbfbf" points="52.5,-336.5 118.5,-336.5 "/>
<text text-anchor="middle" x="85.5" y="-324.5" font-family="Helvetica,sans-Serif" font-size="10.00"> </text>
<polyline fill="none" stroke="#bfbfbf" points="52.5,-317.5 118.5,-317.5 "/>
<text text-anchor="middle" x="85.5" y="-305.5" font-family="Helvetica,sans-Serif" font-size="10.00"> </text>
</a>
</g>
</g>
<!-- Node3&#45;&gt;Node2 -->
<g id="edge2" class="edge">
<title>Node3&#45;&gt;Node2</title>
<path fill="none" stroke="midnightblue" d="M85.5,-288.34C85.5,-280.04 85.5,-270.96 85.5,-261.74"/>
<polygon fill="none" stroke="midnightblue" points="82,-288.38 85.5,-298.38 89,-288.38 82,-288.38"/>
</g>
</g>
</svg>
