<?xml version="1.0" encoding="UTF-8" standalone="no"?>
<!DOCTYPE svg PUBLIC "-//W3C//DTD SVG 1.1//EN"
 "http://www.w3.org/Graphics/SVG/1.1/DTD/svg11.dtd">
<!-- Generated by graphviz version 2.43.0 (0)
 -->
<!-- Title: cie::gl::Axes3DScene Pages: 1 -->
<!--zoomable 1075 -->
<svg id="main" version="1.1" xmlns="http://www.w3.org/2000/svg" xmlns:xlink="http://www.w3.org/1999/xlink" xml:space="preserve" onload="init(evt)">
<style type="text/css"><![CDATA[
.edge:hover path { stroke: red; }
.edge:hover polygon { stroke: red; fill: red; }
]]></style>
<script type="text/javascript"><![CDATA[
var edges = document.getElementsByTagName('g');
if (edges && edges.length) {
  for (var i=0;i<edges.length;i++) {
    if (edges[i].id.substr(0,4)=='edge') {
      edges[i].setAttribute('class','edge');
    }
  }
}
]]></script>
        <defs>
                <circle id="rim" cx="0" cy="0" r="7"/>
                <circle id="rim2" cx="0" cy="0" r="3.5"/>
                <g id="zoomPlus">
                        <use xlink:href="#rim" fill="#404040">
                                <set attributeName="fill" to="#808080" begin="zoomplus.mouseover" end="zoomplus.mouseout"/>
                        </use>
                        <path d="M-4,0h8M0,-4v8" fill="none" stroke="white" stroke-width="1.5" pointer-events="none"/>
                </g>
                <g id="zoomMin">
                        <use xlink:href="#rim" fill="#404040">
                                <set attributeName="fill" to="#808080" begin="zoomminus.mouseover" end="zoomminus.mouseout"/>
                        </use>
                        <path d="M-4,0h8" fill="none" stroke="white" stroke-width="1.5" pointer-events="none"/>
                </g>
                <g id="dirArrow">
                        <path fill="none" stroke="white" stroke-width="1.5" d="M0,-3.0v7 M-2.5,-0.5L0,-3.0L2.5,-0.5"/>
                </g>
               <g id="resetDef">
                       <use xlink:href="#rim2" fill="#404040">
                               <set attributeName="fill" to="#808080" begin="reset.mouseover" end="reset.mouseout"/>
                       </use>
               </g>
        </defs>

<script type="text/javascript">
var viewWidth = 311;
var viewHeight = 1075;
var sectionId = 'dynsection-0';
</script>
<script xlink:href="svgpan.js"/>
<svg id="graph" class="graph">
<g id="viewport">
<title>cie::gl::Axes3DScene</title>
<polygon fill="white" stroke="transparent" points="-4,4 -4,-1071 306.5,-1071 306.5,4 -4,4"/>
<!-- Node1 -->
<g id="node1" class="node">
<title>Node1</title>
<g id="a_node1"><a xlink:title=" ">
<polygon fill="#bfbfbf" stroke="black" points="123,-0.5 123,-90.5 260,-90.5 260,-0.5 123,-0.5"/>
<text text-anchor="middle" x="191.5" y="-78.5" font-family="Helvetica,sans-Serif" font-size="10.00">cie::gl::Axes3DScene</text>
<polyline fill="none" stroke="black" points="123,-71.5 260,-71.5 "/>
<text text-anchor="start" x="131" y="-59.5" font-family="Helvetica,sans-Serif" font-size="10.00"># _p_axes</text>
<text text-anchor="start" x="131" y="-48.5" font-family="Helvetica,sans-Serif" font-size="10.00"># _box</text>
<text text-anchor="start" x="131" y="-37.5" font-family="Helvetica,sans-Serif" font-size="10.00"># _transformationMatrix</text>
<polyline fill="none" stroke="black" points="123,-30.5 260,-30.5 "/>
<text text-anchor="start" x="131" y="-18.5" font-family="Helvetica,sans-Serif" font-size="10.00">+ Axes3DScene()</text>
<text text-anchor="start" x="131" y="-7.5" font-family="Helvetica,sans-Serif" font-size="10.00"># update_impl()</text>
</a>
</g>
</g>
<!-- Node2 -->
<g id="node2" class="node">
<title>Node2</title>
<g id="a_node2"><a xlink:href="classcie_1_1gl_1_1GenericPartScene.html" target="_top" xlink:title="Convenience Scene class.">
<polygon fill="white" stroke="black" points="57,-127.5 57,-217.5 194,-217.5 194,-127.5 57,-127.5"/>
<text text-anchor="middle" x="125.5" y="-205.5" font-family="Helvetica,sans-Serif" font-size="10.00">cie::gl::GenericPartScene</text>
<polyline fill="none" stroke="black" points="57,-198.5 194,-198.5 "/>
<text text-anchor="start" x="65" y="-186.5" font-family="Helvetica,sans-Serif" font-size="10.00"># _drawMode</text>
<polyline fill="none" stroke="black" points="57,-179.5 194,-179.5 "/>
<text text-anchor="start" x="65" y="-167.5" font-family="Helvetica,sans-Serif" font-size="10.00">+ GenericPartScene()</text>
<text text-anchor="start" x="65" y="-156.5" font-family="Helvetica,sans-Serif" font-size="10.00">+ GenericPartScene()</text>
<text text-anchor="start" x="65" y="-145.5" font-family="Helvetica,sans-Serif" font-size="10.00">+ setDrawMode()</text>
<text text-anchor="start" x="65" y="-134.5" font-family="Helvetica,sans-Serif" font-size="10.00"># update_impl()</text>
</a>
</g>
</g>
<!-- Node2&#45;&gt;Node1 -->
<g id="edge1" class="edge">
<title>Node2&#45;&gt;Node1</title>
<path fill="none" stroke="midnightblue" d="M153.58,-118.31C158.46,-109.07 163.49,-99.56 168.22,-90.59"/>
<polygon fill="none" stroke="midnightblue" points="150.34,-116.95 148.77,-127.43 156.53,-120.22 150.34,-116.95"/>
</g>
<!-- Node3 -->
<g id="node3" class="node">
<title>Node3</title>
<g id="a_node3"><a xlink:href="classcie_1_1gl_1_1PartScene.html" target="_top" xlink:title=" ">
<polygon fill="white" stroke="black" points="60,-254.5 60,-377.5 191,-377.5 191,-254.5 60,-254.5"/>
<text text-anchor="middle" x="125.5" y="-365.5" font-family="Helvetica,sans-Serif" font-size="10.00">cie::gl::PartScene</text>
<polyline fill="none" stroke="black" points="60,-358.5 191,-358.5 "/>
<text text-anchor="start" x="68" y="-346.5" font-family="Helvetica,sans-Serif" font-size="10.00"># _parts</text>
<text text-anchor="start" x="68" y="-335.5" font-family="Helvetica,sans-Serif" font-size="10.00"># _partsRequireUpdate</text>
<polyline fill="none" stroke="black" points="60,-328.5 191,-328.5 "/>
<text text-anchor="start" x="68" y="-316.5" font-family="Helvetica,sans-Serif" font-size="10.00">+ PartScene()</text>
<text text-anchor="start" x="68" y="-305.5" font-family="Helvetica,sans-Serif" font-size="10.00">+ addPart()</text>
<text text-anchor="start" x="68" y="-294.5" font-family="Helvetica,sans-Serif" font-size="10.00">+ removePart()</text>
<text text-anchor="start" x="68" y="-283.5" font-family="Helvetica,sans-Serif" font-size="10.00">+ parts()</text>
<text text-anchor="start" x="68" y="-272.5" font-family="Helvetica,sans-Serif" font-size="10.00">+ updateParts()</text>
<text text-anchor="start" x="68" y="-261.5" font-family="Helvetica,sans-Serif" font-size="10.00">+ update_impl()</text>
</a>
</g>
</g>
<!-- Node3&#45;&gt;Node2 -->
<g id="edge2" class="edge">
<title>Node3&#45;&gt;Node2</title>
<path fill="none" stroke="midnightblue" d="M125.5,-244.03C125.5,-235.03 125.5,-226.03 125.5,-217.62"/>
<polygon fill="none" stroke="midnightblue" points="122,-244.17 125.5,-254.17 129,-244.17 122,-244.17"/>
</g>
<!-- Node4 -->
<g id="node4" class="node">
<title>Node4</title>
<g id="a_node4"><a xlink:href="classcie_1_1gl_1_1Scene.html" target="_top" xlink:title=" ">
<polygon fill="white" stroke="black" points="63,-414.5 63,-680.5 188,-680.5 188,-414.5 63,-414.5"/>
<text text-anchor="middle" x="125.5" y="-668.5" font-family="Helvetica,sans-Serif" font-size="10.00">cie::gl::Scene</text>
<polyline fill="none" stroke="black" points="63,-661.5 188,-661.5 "/>
<text text-anchor="start" x="71" y="-649.5" font-family="Helvetica,sans-Serif" font-size="10.00"># _cameras</text>
<text text-anchor="start" x="71" y="-638.5" font-family="Helvetica,sans-Serif" font-size="10.00"># _p_vertexShader</text>
<text text-anchor="start" x="71" y="-627.5" font-family="Helvetica,sans-Serif" font-size="10.00"># _p_geometryShader</text>
<text text-anchor="start" x="71" y="-616.5" font-family="Helvetica,sans-Serif" font-size="10.00"># _p_fragmentShader</text>
<text text-anchor="start" x="71" y="-605.5" font-family="Helvetica,sans-Serif" font-size="10.00"># _p_bufferManager</text>
<text text-anchor="start" x="71" y="-594.5" font-family="Helvetica,sans-Serif" font-size="10.00"># _uniforms</text>
<text text-anchor="start" x="71" y="-583.5" font-family="Helvetica,sans-Serif" font-size="10.00"># _textures</text>
<text text-anchor="start" x="71" y="-572.5" font-family="Helvetica,sans-Serif" font-size="10.00"># _vaoID</text>
<text text-anchor="start" x="71" y="-561.5" font-family="Helvetica,sans-Serif" font-size="10.00"># _activeSceneID</text>
<polyline fill="none" stroke="black" points="63,-554.5 188,-554.5 "/>
<text text-anchor="start" x="71" y="-542.5" font-family="Helvetica,sans-Serif" font-size="10.00">+ Scene()</text>
<text text-anchor="start" x="71" y="-531.5" font-family="Helvetica,sans-Serif" font-size="10.00">+ ~Scene()</text>
<text text-anchor="start" x="71" y="-520.5" font-family="Helvetica,sans-Serif" font-size="10.00">+ update()</text>
<text text-anchor="start" x="71" y="-509.5" font-family="Helvetica,sans-Serif" font-size="10.00">+ activate()</text>
<text text-anchor="start" x="71" y="-498.5" font-family="Helvetica,sans-Serif" font-size="10.00">+ isActive()</text>
<text text-anchor="start" x="71" y="-487.5" font-family="Helvetica,sans-Serif" font-size="10.00">+ makeCamera()</text>
<text text-anchor="start" x="71" y="-476.5" font-family="Helvetica,sans-Serif" font-size="10.00">+ addCamera()</text>
<text text-anchor="start" x="71" y="-465.5" font-family="Helvetica,sans-Serif" font-size="10.00">+ removeCamera()</text>
<text text-anchor="start" x="71" y="-454.5" font-family="Helvetica,sans-Serif" font-size="10.00">+ cameras()</text>
<text text-anchor="start" x="71" y="-443.5" font-family="Helvetica,sans-Serif" font-size="10.00">+ camera()</text>
<text text-anchor="start" x="71" y="-432.5" font-family="Helvetica,sans-Serif" font-size="10.00">and 15 more...</text>
<text text-anchor="start" x="71" y="-421.5" font-family="Helvetica,sans-Serif" font-size="10.00"># update_impl()</text>
</a>
</g>
</g>
<!-- Node4&#45;&gt;Node3 -->
<g id="edge3" class="edge">
<title>Node4&#45;&gt;Node3</title>
<path fill="none" stroke="midnightblue" d="M125.5,-404.24C125.5,-395.02 125.5,-386.06 125.5,-377.6"/>
<polygon fill="none" stroke="midnightblue" points="122,-404.33 125.5,-414.33 129,-404.33 122,-404.33"/>
</g>
<!-- Node5 -->
<g id="node5" class="node">
<title>Node5</title>
<g id="a_node5"><a target="_parent" xlink:href="../../../cieutils/docs/html/classcie_1_1utils_1_1Loggee.html" xlink:title=" ">
<polygon fill="white" stroke="black" points="16,-717.5 16,-873.5 115,-873.5 115,-717.5 16,-717.5"/>
<text text-anchor="middle" x="65.5" y="-861.5" font-family="Helvetica,sans-Serif" font-size="10.00">cie::utils::Loggee</text>
<polyline fill="none" stroke="black" points="16,-854.5 115,-854.5 "/>
<text text-anchor="middle" x="65.5" y="-842.5" font-family="Helvetica,sans-Serif" font-size="10.00"> </text>
<polyline fill="none" stroke="black" points="16,-835.5 115,-835.5 "/>
<text text-anchor="start" x="24" y="-823.5" font-family="Helvetica,sans-Serif" font-size="10.00">+ Loggee()</text>
<text text-anchor="start" x="24" y="-812.5" font-family="Helvetica,sans-Serif" font-size="10.00">+ ~Loggee()</text>
<text text-anchor="start" x="24" y="-801.5" font-family="Helvetica,sans-Serif" font-size="10.00">+ log()</text>
<text text-anchor="start" x="24" y="-790.5" font-family="Helvetica,sans-Serif" font-size="10.00">+ logID()</text>
<text text-anchor="start" x="24" y="-779.5" font-family="Helvetica,sans-Serif" font-size="10.00">+ tic()</text>
<text text-anchor="start" x="24" y="-768.5" font-family="Helvetica,sans-Serif" font-size="10.00">+ toc()</text>
<text text-anchor="start" x="24" y="-757.5" font-family="Helvetica,sans-Serif" font-size="10.00">+ toc()</text>
<text text-anchor="start" x="24" y="-746.5" font-family="Helvetica,sans-Serif" font-size="10.00">+ newBlock()</text>
<text text-anchor="start" x="24" y="-735.5" font-family="Helvetica,sans-Serif" font-size="10.00">+ separate()</text>
<text text-anchor="start" x="24" y="-724.5" font-family="Helvetica,sans-Serif" font-size="10.00"># logger()</text>
</a>
</g>
</g>
<!-- Node5&#45;&gt;Node4 -->
<g id="edge4" class="edge">
<title>Node5&#45;&gt;Node4</title>
<path fill="none" stroke="midnightblue" d="M86.69,-707.61C88.82,-698.89 91.01,-689.89 93.22,-680.83"/>
<polygon fill="none" stroke="midnightblue" points="83.29,-706.79 84.32,-717.34 90.09,-708.45 83.29,-706.79"/>
</g>
<!-- Node6 -->
<g id="node6" class="node">
<title>Node6</title>
<g id="a_node6"><a target="_parent" xlink:href="../../../cieutils/docs/html/classcie_1_1utils_1_1NamedObject.html" xlink:title=" ">
<polygon fill="white" stroke="black" points="0,-910.5 0,-1066.5 131,-1066.5 131,-910.5 0,-910.5"/>
<text text-anchor="middle" x="65.5" y="-1054.5" font-family="Helvetica,sans-Serif" font-size="10.00">cie::utils::NamedObject</text>
<polyline fill="none" stroke="black" points="0,-1047.5 131,-1047.5 "/>
<text text-anchor="middle" x="65.5" y="-1035.5" font-family="Helvetica,sans-Serif" font-size="10.00"> </text>
<polyline fill="none" stroke="black" points="0,-1028.5 131,-1028.5 "/>
<text text-anchor="start" x="8" y="-1016.5" font-family="Helvetica,sans-Serif" font-size="10.00">+ NamedObject()</text>
<text text-anchor="start" x="8" y="-1005.5" font-family="Helvetica,sans-Serif" font-size="10.00">+ NamedObject()</text>
<text text-anchor="start" x="8" y="-994.5" font-family="Helvetica,sans-Serif" font-size="10.00">+ NamedObject()</text>
<text text-anchor="start" x="8" y="-983.5" font-family="Helvetica,sans-Serif" font-size="10.00">+ NamedObject()</text>
<text text-anchor="start" x="8" y="-972.5" font-family="Helvetica,sans-Serif" font-size="10.00">+ operator=()</text>
<text text-anchor="start" x="8" y="-961.5" font-family="Helvetica,sans-Serif" font-size="10.00">+ operator=()</text>
<text text-anchor="start" x="8" y="-950.5" font-family="Helvetica,sans-Serif" font-size="10.00">+ name()</text>
<text text-anchor="start" x="8" y="-939.5" font-family="Helvetica,sans-Serif" font-size="10.00">+ setName()</text>
<text text-anchor="start" x="8" y="-928.5" font-family="Helvetica,sans-Serif" font-size="10.00">+ setName()</text>
<text text-anchor="start" x="8" y="-917.5" font-family="Helvetica,sans-Serif" font-size="10.00">+ ~NamedObject()</text>
</a>
</g>
</g>
<!-- Node6&#45;&gt;Node5 -->
<g id="edge5" class="edge">
<title>Node6&#45;&gt;Node5</title>
<path fill="none" stroke="midnightblue" d="M65.5,-900.35C65.5,-891.43 65.5,-882.41 65.5,-873.61"/>
<polygon fill="none" stroke="midnightblue" points="62,-900.36 65.5,-910.36 69,-900.36 62,-900.36"/>
</g>
<!-- Node7 -->
<g id="node7" class="node">
<title>Node7</title>
<g id="a_node7"><a target="_parent" xlink:href="../../../cieutils/docs/html/classcie_1_1utils_1_1IDObject.html" xlink:title=" ">
<polygon fill="white" stroke="black" points="133.5,-723 133.5,-868 239.5,-868 239.5,-723 133.5,-723"/>
<text text-anchor="start" x="141.5" y="-856" font-family="Helvetica,sans-Serif" font-size="10.00">cie::utils::IDObject</text>
<text text-anchor="middle" x="186.5" y="-845" font-family="Helvetica,sans-Serif" font-size="10.00">&lt; class &gt;</text>
<polyline fill="none" stroke="black" points="133.5,-838 239.5,-838 "/>
<text text-anchor="start" x="141.5" y="-826" font-family="Helvetica,sans-Serif" font-size="10.00"># _id</text>
<polyline fill="none" stroke="black" points="133.5,-819 239.5,-819 "/>
<text text-anchor="start" x="141.5" y="-807" font-family="Helvetica,sans-Serif" font-size="10.00">+ IDObject()</text>
<text text-anchor="start" x="141.5" y="-796" font-family="Helvetica,sans-Serif" font-size="10.00">+ IDObject()</text>
<text text-anchor="start" x="141.5" y="-785" font-family="Helvetica,sans-Serif" font-size="10.00">+ IDObject()</text>
<text text-anchor="start" x="141.5" y="-774" font-family="Helvetica,sans-Serif" font-size="10.00">+ IDObject()</text>
<text text-anchor="start" x="141.5" y="-763" font-family="Helvetica,sans-Serif" font-size="10.00">+ operator=()</text>
<text text-anchor="start" x="141.5" y="-752" font-family="Helvetica,sans-Serif" font-size="10.00">+ operator=()</text>
<text text-anchor="start" x="141.5" y="-741" font-family="Helvetica,sans-Serif" font-size="10.00">+ setID()</text>
<text text-anchor="start" x="141.5" y="-730" font-family="Helvetica,sans-Serif" font-size="10.00">+ getID()</text>
</a>
</g>
</g>
<!-- Node7&#45;&gt;Node4 -->
<g id="edge6" class="edge">
<title>Node7&#45;&gt;Node4</title>
<path fill="none" stroke="midnightblue" d="M166.25,-712.84C163.67,-702.41 160.97,-691.54 158.25,-680.57"/>
<polygon fill="none" stroke="midnightblue" points="162.89,-713.82 168.69,-722.69 169.68,-712.14 162.89,-713.82"/>
</g>
<!-- Node8 -->
<g id="node8" class="node">
<title>Node8</title>
<g id="a_node8"><a xlink:href="structcie_1_1gl_1_1GLTraits.html" target="_top" xlink:title=" ">
<polygon fill="white" stroke="black" points="212.5,-144 212.5,-201 302.5,-201 302.5,-144 212.5,-144"/>
<text text-anchor="middle" x="257.5" y="-189" font-family="Helvetica,sans-Serif" font-size="10.00">cie::gl::GLTraits</text>
<polyline fill="none" stroke="black" points="212.5,-182 302.5,-182 "/>
<text text-anchor="middle" x="257.5" y="-170" font-family="Helvetica,sans-Serif" font-size="10.00"> </text>
<polyline fill="none" stroke="black" points="212.5,-163 302.5,-163 "/>
<text text-anchor="middle" x="257.5" y="-151" font-family="Helvetica,sans-Serif" font-size="10.00"> </text>
</a>
</g>
</g>
<!-- Node8&#45;&gt;Node1 -->
<g id="edge7" class="edge">
<title>Node8&#45;&gt;Node1</title>
<path fill="none" stroke="midnightblue" d="M238.03,-134.62C230.78,-120.9 222.48,-105.18 214.92,-90.86"/>
<polygon fill="none" stroke="midnightblue" points="235.09,-136.55 242.85,-143.76 241.28,-133.28 235.09,-136.55"/>
</g>
</g>
</svg>
        <g id="navigator" transform="translate(0 0)" fill="#404254">
                <rect fill="#f2f5e9" fill-opacity="0.5" stroke="#606060" stroke-width=".5" x="0" y="0" width="60" height="60"/>
                <use id="zoomplus" xlink:href="#zoomPlus" x="17" y="9" onmousedown="handleZoom(evt,'in')"/>
                <use id="zoomminus" xlink:href="#zoomMin" x="42" y="9" onmousedown="handleZoom(evt,'out')"/>
                <use id="reset" xlink:href="#resetDef" x="30" y="36" onmousedown="handleReset()"/>
                <g id="arrowUp" xlink:href="#dirArrow" transform="translate(30 24)" onmousedown="handlePan(0,-1)">
                  <use xlink:href="#rim" fill="#404040">
                        <set attributeName="fill" to="#808080" begin="arrowUp.mouseover" end="arrowUp.mouseout"/>
                  </use>
                  <path fill="none" stroke="white" stroke-width="1.5" d="M0,-3.0v7 M-2.5,-0.5L0,-3.0L2.5,-0.5"/>
                </g>
                <g id="arrowRight" xlink:href="#dirArrow" transform="rotate(90) translate(36 -43)" onmousedown="handlePan(1,0)">
                  <use xlink:href="#rim" fill="#404040">
                        <set attributeName="fill" to="#808080" begin="arrowRight.mouseover" end="arrowRight.mouseout"/>
                  </use>
                  <path fill="none" stroke="white" stroke-width="1.5" d="M0,-3.0v7 M-2.5,-0.5L0,-3.0L2.5,-0.5"/>
                </g>
                <g id="arrowDown" xlink:href="#dirArrow" transform="rotate(180) translate(-30 -48)" onmousedown="handlePan(0,1)">
                  <use xlink:href="#rim" fill="#404040">
                        <set attributeName="fill" to="#808080" begin="arrowDown.mouseover" end="arrowDown.mouseout"/>
                  </use>
                  <path fill="none" stroke="white" stroke-width="1.5" d="M0,-3.0v7 M-2.5,-0.5L0,-3.0L2.5,-0.5"/>
                </g>
                <g id="arrowLeft" xlink:href="#dirArrow" transform="rotate(270) translate(-36 17)" onmousedown="handlePan(-1,0)">
                  <use xlink:href="#rim" fill="#404040">
                        <set attributeName="fill" to="#808080" begin="arrowLeft.mouseover" end="arrowLeft.mouseout"/>
                  </use>
                  <path fill="none" stroke="white" stroke-width="1.5" d="M0,-3.0v7 M-2.5,-0.5L0,-3.0L2.5,-0.5"/>
                </g>
        </g>
        <svg viewBox="0 0 15 15" width="100%" height="30px" preserveAspectRatio="xMaxYMin meet">
         <g id="arrow_out" transform="scale(0.3 0.3)">
          <a xlink:href="classcie_1_1gl_1_1Axes3DScene__inherit__graph_org.svg" target="_base">
           <rect id="button" ry="5" rx="5" y="6" x="6" height="38" width="38"
                fill="#f2f5e9" fill-opacity="0.5" stroke="#606060" stroke-width="1.0"/>
           <path id="arrow"
             d="M 11.500037,31.436501 C 11.940474,20.09759 22.043105,11.32322 32.158766,21.979434 L 37.068811,17.246167 C 37.068811,17.246167 37.088388,32 37.088388,32 L 22.160133,31.978069 C 22.160133,31.978069 26.997745,27.140456 26.997745,27.140456 C 18.528582,18.264221 13.291696,25.230495 11.500037,31.436501 z"
             style="fill:#404040;"/>
          </a>
         </g>
        </svg>
</svg>
