<?xml version="1.0" encoding="UTF-8" standalone="no"?>
<!DOCTYPE svg PUBLIC "-//W3C//DTD SVG 1.1//EN"
 "http://www.w3.org/Graphics/SVG/1.1/DTD/svg11.dtd">
<!-- Generated by graphviz version 2.43.0 (0)
 -->
<!-- Title: cie::gl::AbsProgram Pages: 1 -->
<svg width="248pt" height="573pt"
 viewBox="0.00 0.00 247.50 573.00" xmlns="http://www.w3.org/2000/svg" xmlns:xlink="http://www.w3.org/1999/xlink">
<g id="graph0" class="graph" transform="scale(1 1) rotate(0) translate(4 569)">
<title>cie::gl::AbsProgram</title>
<polygon fill="white" stroke="transparent" points="-4,4 -4,-569 243.5,-569 243.5,4 -4,4"/>
<!-- Node1 -->
<g id="node1" class="node">
<title>Node1</title>
<g id="a_node1"><a xlink:title=" ">
<polygon fill="#bfbfbf" stroke="black" points="64,-0.5 64,-178.5 187,-178.5 187,-0.5 64,-0.5"/>
<text text-anchor="middle" x="125.5" y="-166.5" font-family="Helvetica,sans-Serif" font-size="10.00">cie::gl::AbsProgram</text>
<polyline fill="none" stroke="black" points="64,-159.5 187,-159.5 "/>
<text text-anchor="middle" x="125.5" y="-147.5" font-family="Helvetica,sans-Serif" font-size="10.00"> </text>
<polyline fill="none" stroke="black" points="64,-140.5 187,-140.5 "/>
<text text-anchor="start" x="72" y="-128.5" font-family="Helvetica,sans-Serif" font-size="10.00">+ AbsProgram()</text>
<text text-anchor="start" x="72" y="-117.5" font-family="Helvetica,sans-Serif" font-size="10.00">+ ~AbsProgram()</text>
<text text-anchor="start" x="72" y="-106.5" font-family="Helvetica,sans-Serif" font-size="10.00">+ update()</text>
<text text-anchor="start" x="72" y="-95.5" font-family="Helvetica,sans-Serif" font-size="10.00">+ activate()</text>
<text text-anchor="start" x="72" y="-84.5" font-family="Helvetica,sans-Serif" font-size="10.00">+ isActive()</text>
<text text-anchor="start" x="72" y="-73.5" font-family="Helvetica,sans-Serif" font-size="10.00"># AbsProgram()</text>
<text text-anchor="start" x="72" y="-62.5" font-family="Helvetica,sans-Serif" font-size="10.00"># AbsProgram()</text>
<text text-anchor="start" x="72" y="-51.5" font-family="Helvetica,sans-Serif" font-size="10.00"># link()</text>
<text text-anchor="start" x="72" y="-40.5" font-family="Helvetica,sans-Serif" font-size="10.00"># deactivate()</text>
<text text-anchor="start" x="72" y="-29.5" font-family="Helvetica,sans-Serif" font-size="10.00"># getBufferManager()</text>
<text text-anchor="start" x="72" y="-18.5" font-family="Helvetica,sans-Serif" font-size="10.00"># getBufferManager()</text>
<text text-anchor="start" x="72" y="-7.5" font-family="Helvetica,sans-Serif" font-size="10.00"># getErrorString()</text>
</a>
</g>
</g>
<!-- Node2 -->
<g id="node2" class="node">
<title>Node2</title>
<g id="a_node2"><a target="_parent" xlink:href="../../../cieutils/docs/html/classcie_1_1utils_1_1Loggee.html" xlink:title=" ">
<polygon fill="white" stroke="black" points="16,-215.5 16,-371.5 115,-371.5 115,-215.5 16,-215.5"/>
<text text-anchor="middle" x="65.5" y="-359.5" font-family="Helvetica,sans-Serif" font-size="10.00">cie::utils::Loggee</text>
<polyline fill="none" stroke="black" points="16,-352.5 115,-352.5 "/>
<text text-anchor="middle" x="65.5" y="-340.5" font-family="Helvetica,sans-Serif" font-size="10.00"> </text>
<polyline fill="none" stroke="black" points="16,-333.5 115,-333.5 "/>
<text text-anchor="start" x="24" y="-321.5" font-family="Helvetica,sans-Serif" font-size="10.00">+ Loggee()</text>
<text text-anchor="start" x="24" y="-310.5" font-family="Helvetica,sans-Serif" font-size="10.00">+ ~Loggee()</text>
<text text-anchor="start" x="24" y="-299.5" font-family="Helvetica,sans-Serif" font-size="10.00">+ log()</text>
<text text-anchor="start" x="24" y="-288.5" font-family="Helvetica,sans-Serif" font-size="10.00">+ logID()</text>
<text text-anchor="start" x="24" y="-277.5" font-family="Helvetica,sans-Serif" font-size="10.00">+ tic()</text>
<text text-anchor="start" x="24" y="-266.5" font-family="Helvetica,sans-Serif" font-size="10.00">+ toc()</text>
<text text-anchor="start" x="24" y="-255.5" font-family="Helvetica,sans-Serif" font-size="10.00">+ toc()</text>
<text text-anchor="start" x="24" y="-244.5" font-family="Helvetica,sans-Serif" font-size="10.00">+ newBlock()</text>
<text text-anchor="start" x="24" y="-233.5" font-family="Helvetica,sans-Serif" font-size="10.00">+ separate()</text>
<text text-anchor="start" x="24" y="-222.5" font-family="Helvetica,sans-Serif" font-size="10.00"># logger()</text>
</a>
</g>
</g>
<!-- Node2&#45;&gt;Node1 -->
<g id="edge1" class="edge">
<title>Node2&#45;&gt;Node1</title>
<path fill="none" stroke="midnightblue" d="M91.37,-205.4C93.99,-196.6 96.64,-187.65 99.26,-178.83"/>
<polygon fill="none" stroke="midnightblue" points="87.93,-204.69 88.44,-215.27 94.64,-206.68 87.93,-204.69"/>
</g>
<!-- Node3 -->
<g id="node3" class="node">
<title>Node3</title>
<g id="a_node3"><a target="_parent" xlink:href="../../../cieutils/docs/html/classcie_1_1utils_1_1NamedObject.html" xlink:title=" ">
<polygon fill="white" stroke="black" points="0,-408.5 0,-564.5 131,-564.5 131,-408.5 0,-408.5"/>
<text text-anchor="middle" x="65.5" y="-552.5" font-family="Helvetica,sans-Serif" font-size="10.00">cie::utils::NamedObject</text>
<polyline fill="none" stroke="black" points="0,-545.5 131,-545.5 "/>
<text text-anchor="middle" x="65.5" y="-533.5" font-family="Helvetica,sans-Serif" font-size="10.00"> </text>
<polyline fill="none" stroke="black" points="0,-526.5 131,-526.5 "/>
<text text-anchor="start" x="8" y="-514.5" font-family="Helvetica,sans-Serif" font-size="10.00">+ NamedObject()</text>
<text text-anchor="start" x="8" y="-503.5" font-family="Helvetica,sans-Serif" font-size="10.00">+ NamedObject()</text>
<text text-anchor="start" x="8" y="-492.5" font-family="Helvetica,sans-Serif" font-size="10.00">+ NamedObject()</text>
<text text-anchor="start" x="8" y="-481.5" font-family="Helvetica,sans-Serif" font-size="10.00">+ NamedObject()</text>
<text text-anchor="start" x="8" y="-470.5" font-family="Helvetica,sans-Serif" font-size="10.00">+ operator=()</text>
<text text-anchor="start" x="8" y="-459.5" font-family="Helvetica,sans-Serif" font-size="10.00">+ operator=()</text>
<text text-anchor="start" x="8" y="-448.5" font-family="Helvetica,sans-Serif" font-size="10.00">+ name()</text>
<text text-anchor="start" x="8" y="-437.5" font-family="Helvetica,sans-Serif" font-size="10.00">+ setName()</text>
<text text-anchor="start" x="8" y="-426.5" font-family="Helvetica,sans-Serif" font-size="10.00">+ setName()</text>
<text text-anchor="start" x="8" y="-415.5" font-family="Helvetica,sans-Serif" font-size="10.00">+ ~NamedObject()</text>
</a>
</g>
</g>
<!-- Node3&#45;&gt;Node2 -->
<g id="edge2" class="edge">
<title>Node3&#45;&gt;Node2</title>
<path fill="none" stroke="midnightblue" d="M65.5,-398.35C65.5,-389.43 65.5,-380.41 65.5,-371.61"/>
<polygon fill="none" stroke="midnightblue" points="62,-398.36 65.5,-408.36 69,-398.36 62,-398.36"/>
</g>
<!-- Node4 -->
<g id="node4" class="node">
<title>Node4</title>
<g id="a_node4"><a target="_parent" xlink:href="../../../cieutils/docs/html/classcie_1_1utils_1_1IDObject.html" xlink:title=" ">
<polygon fill="white" stroke="black" points="133.5,-221 133.5,-366 239.5,-366 239.5,-221 133.5,-221"/>
<text text-anchor="start" x="141.5" y="-354" font-family="Helvetica,sans-Serif" font-size="10.00">cie::utils::IDObject</text>
<text text-anchor="middle" x="186.5" y="-343" font-family="Helvetica,sans-Serif" font-size="10.00">&lt; class &gt;</text>
<polyline fill="none" stroke="black" points="133.5,-336 239.5,-336 "/>
<text text-anchor="start" x="141.5" y="-324" font-family="Helvetica,sans-Serif" font-size="10.00"># _id</text>
<polyline fill="none" stroke="black" points="133.5,-317 239.5,-317 "/>
<text text-anchor="start" x="141.5" y="-305" font-family="Helvetica,sans-Serif" font-size="10.00">+ IDObject()</text>
<text text-anchor="start" x="141.5" y="-294" font-family="Helvetica,sans-Serif" font-size="10.00">+ IDObject()</text>
<text text-anchor="start" x="141.5" y="-283" font-family="Helvetica,sans-Serif" font-size="10.00">+ IDObject()</text>
<text text-anchor="start" x="141.5" y="-272" font-family="Helvetica,sans-Serif" font-size="10.00">+ IDObject()</text>
<text text-anchor="start" x="141.5" y="-261" font-family="Helvetica,sans-Serif" font-size="10.00">+ operator=()</text>
<text text-anchor="start" x="141.5" y="-250" font-family="Helvetica,sans-Serif" font-size="10.00">+ operator=()</text>
<text text-anchor="start" x="141.5" y="-239" font-family="Helvetica,sans-Serif" font-size="10.00">+ setID()</text>
<text text-anchor="start" x="141.5" y="-228" font-family="Helvetica,sans-Serif" font-size="10.00">+ getID()</text>
</a>
</g>
</g>
<!-- Node4&#45;&gt;Node1 -->
<g id="edge3" class="edge">
<title>Node4&#45;&gt;Node1</title>
<path fill="none" stroke="midnightblue" d="M161.96,-211.23C158.71,-200.47 155.37,-189.41 152.09,-178.55"/>
<polygon fill="none" stroke="midnightblue" points="158.67,-212.44 164.91,-221 165.37,-210.41 158.67,-212.44"/>
</g>
</g>
</svg>
