<?xml version="1.0" encoding="UTF-8" standalone="no"?>
<!DOCTYPE svg PUBLIC "-//W3C//DTD SVG 1.1//EN"
 "http://www.w3.org/Graphics/SVG/1.1/DTD/svg11.dtd">
<!-- Generated by graphviz version 2.43.0 (0)
 -->
<!-- Title: cie::gl::GLUniform Pages: 1 -->
<svg width="659pt" height="592pt"
 viewBox="0.00 0.00 659.00 592.00" xmlns="http://www.w3.org/2000/svg" xmlns:xlink="http://www.w3.org/1999/xlink">
<g id="graph0" class="graph" transform="scale(1 1) rotate(0) translate(4 588)">
<title>cie::gl::GLUniform</title>
<polygon fill="white" stroke="transparent" points="-4,4 -4,-588 655,-588 655,4 -4,4"/>
<!-- Node1 -->
<g id="node1" class="node">
<title>Node1</title>
<g id="a_node1"><a xlink:title="Interface for loading uniforms into GL.">
<polygon fill="#bfbfbf" stroke="black" points="257.5,-117.5 257.5,-196.5 361.5,-196.5 361.5,-117.5 257.5,-117.5"/>
<text text-anchor="middle" x="309.5" y="-184.5" font-family="Helvetica,sans-Serif" font-size="10.00">cie::gl::GLUniform</text>
<polyline fill="none" stroke="black" points="257.5,-177.5 361.5,-177.5 "/>
<text text-anchor="start" x="265.5" y="-165.5" font-family="Helvetica,sans-Serif" font-size="10.00"># _properties</text>
<polyline fill="none" stroke="black" points="257.5,-158.5 361.5,-158.5 "/>
<text text-anchor="start" x="265.5" y="-146.5" font-family="Helvetica,sans-Serif" font-size="10.00">+ GLUniform()</text>
<text text-anchor="start" x="265.5" y="-135.5" font-family="Helvetica,sans-Serif" font-size="10.00">+ write()</text>
<text text-anchor="start" x="265.5" y="-124.5" font-family="Helvetica,sans-Serif" font-size="10.00">+ properties()</text>
</a>
</g>
</g>
<!-- Node6 -->
<g id="node6" class="node">
<title>Node6</title>
<g id="a_node6"><a xlink:href="classcie_1_1gl_1_1FloatGLUniform.html" target="_top" xlink:title=" ">
<polygon fill="white" stroke="black" points="0,-6 0,-74 129,-74 129,-6 0,-6"/>
<text text-anchor="middle" x="64.5" y="-62" font-family="Helvetica,sans-Serif" font-size="10.00">cie::gl::FloatGLUniform</text>
<polyline fill="none" stroke="black" points="0,-55 129,-55 "/>
<text text-anchor="middle" x="64.5" y="-43" font-family="Helvetica,sans-Serif" font-size="10.00"> </text>
<polyline fill="none" stroke="black" points="0,-36 129,-36 "/>
<text text-anchor="start" x="8" y="-24" font-family="Helvetica,sans-Serif" font-size="10.00">+ FloatGLUniform()</text>
<text text-anchor="start" x="8" y="-13" font-family="Helvetica,sans-Serif" font-size="10.00">+ write()</text>
</a>
</g>
</g>
<!-- Node1&#45;&gt;Node6 -->
<g id="edge5" class="edge">
<title>Node1&#45;&gt;Node6</title>
<path fill="none" stroke="midnightblue" d="M248,-129.85C215.25,-115.63 174.42,-97.42 138.5,-80 134.58,-78.1 130.56,-76.11 126.52,-74.07"/>
<polygon fill="none" stroke="midnightblue" points="246.89,-133.18 257.45,-133.94 249.67,-126.76 246.89,-133.18"/>
</g>
<!-- Node7 -->
<g id="node7" class="node">
<title>Node7</title>
<g id="a_node7"><a xlink:href="classcie_1_1gl_1_1FloatMat4GLUniform.html" target="_top" xlink:title=" ">
<polygon fill="white" stroke="black" points="147.5,-6 147.5,-74 301.5,-74 301.5,-6 147.5,-6"/>
<text text-anchor="middle" x="224.5" y="-62" font-family="Helvetica,sans-Serif" font-size="10.00">cie::gl::FloatMat4GLUniform</text>
<polyline fill="none" stroke="black" points="147.5,-55 301.5,-55 "/>
<text text-anchor="middle" x="224.5" y="-43" font-family="Helvetica,sans-Serif" font-size="10.00"> </text>
<polyline fill="none" stroke="black" points="147.5,-36 301.5,-36 "/>
<text text-anchor="start" x="155.5" y="-24" font-family="Helvetica,sans-Serif" font-size="10.00">+ FloatMat4GLUniform()</text>
<text text-anchor="start" x="155.5" y="-13" font-family="Helvetica,sans-Serif" font-size="10.00">+ write()</text>
</a>
</g>
</g>
<!-- Node1&#45;&gt;Node7 -->
<g id="edge6" class="edge">
<title>Node1&#45;&gt;Node7</title>
<path fill="none" stroke="midnightblue" d="M274.79,-109.04C266.19,-97.4 257.14,-85.16 249.13,-74.32"/>
<polygon fill="none" stroke="midnightblue" points="272.2,-111.43 280.96,-117.39 277.83,-107.26 272.2,-111.43"/>
</g>
<!-- Node8 -->
<g id="node8" class="node">
<title>Node8</title>
<g id="a_node8"><a xlink:href="classcie_1_1gl_1_1FloatVec3GLUniform.html" target="_top" xlink:title=" ">
<polygon fill="white" stroke="black" points="319.5,-0.5 319.5,-79.5 471.5,-79.5 471.5,-0.5 319.5,-0.5"/>
<text text-anchor="start" x="327.5" y="-67.5" font-family="Helvetica,sans-Serif" font-size="10.00">cie::gl::FloatVec3GLUniform</text>
<text text-anchor="middle" x="395.5" y="-56.5" font-family="Helvetica,sans-Serif" font-size="10.00">&lt; BoundType &gt;</text>
<polyline fill="none" stroke="black" points="319.5,-49.5 471.5,-49.5 "/>
<text text-anchor="middle" x="395.5" y="-37.5" font-family="Helvetica,sans-Serif" font-size="10.00"> </text>
<polyline fill="none" stroke="black" points="319.5,-30.5 471.5,-30.5 "/>
<text text-anchor="start" x="327.5" y="-18.5" font-family="Helvetica,sans-Serif" font-size="10.00">+ FloatVec3GLUniform()</text>
<text text-anchor="start" x="327.5" y="-7.5" font-family="Helvetica,sans-Serif" font-size="10.00">+ write()</text>
</a>
</g>
</g>
<!-- Node1&#45;&gt;Node8 -->
<g id="edge7" class="edge">
<title>Node1&#45;&gt;Node8</title>
<path fill="none" stroke="midnightblue" d="M344.45,-109.27C351.79,-99.45 359.46,-89.19 366.55,-79.71"/>
<polygon fill="none" stroke="midnightblue" points="341.56,-107.28 338.38,-117.39 347.17,-111.47 341.56,-107.28"/>
</g>
<!-- Node9 -->
<g id="node9" class="node">
<title>Node9</title>
<g id="a_node9"><a xlink:href="classcie_1_1gl_1_1GLUniformPlaceholder.html" target="_top" xlink:title=" ">
<polygon fill="white" stroke="black" points="490,-6 490,-74 651,-74 651,-6 490,-6"/>
<text text-anchor="middle" x="570.5" y="-62" font-family="Helvetica,sans-Serif" font-size="10.00">cie::gl::GLUniformPlaceholder</text>
<polyline fill="none" stroke="black" points="490,-55 651,-55 "/>
<text text-anchor="middle" x="570.5" y="-43" font-family="Helvetica,sans-Serif" font-size="10.00"> </text>
<polyline fill="none" stroke="black" points="490,-36 651,-36 "/>
<text text-anchor="start" x="498" y="-24" font-family="Helvetica,sans-Serif" font-size="10.00">+ GLUniformPlaceholder()</text>
<text text-anchor="start" x="498" y="-13" font-family="Helvetica,sans-Serif" font-size="10.00">+ write()</text>
</a>
</g>
</g>
<!-- Node1&#45;&gt;Node9 -->
<g id="edge8" class="edge">
<title>Node1&#45;&gt;Node9</title>
<path fill="none" stroke="midnightblue" d="M370.9,-128.95C408.06,-112.57 455.73,-91.57 495.16,-74.2"/>
<polygon fill="none" stroke="midnightblue" points="369.43,-125.77 361.69,-133 372.25,-132.18 369.43,-125.77"/>
</g>
<!-- Node2 -->
<g id="node2" class="node">
<title>Node2</title>
<g id="a_node2"><a xlink:href="classcie_1_1gl_1_1Shader_1_1Uniform.html" target="_top" xlink:title="Immutable uniform descriptor (for any shader).">
<polygon fill="white" stroke="black" points="176,-262 176,-352 307,-352 307,-262 176,-262"/>
<text text-anchor="middle" x="241.5" y="-340" font-family="Helvetica,sans-Serif" font-size="10.00">cie::gl::Shader::Uniform</text>
<polyline fill="none" stroke="black" points="176,-333 307,-333 "/>
<text text-anchor="start" x="184" y="-321" font-family="Helvetica,sans-Serif" font-size="10.00"># _size</text>
<text text-anchor="start" x="184" y="-310" font-family="Helvetica,sans-Serif" font-size="10.00"># _type</text>
<polyline fill="none" stroke="black" points="176,-303 307,-303 "/>
<text text-anchor="start" x="184" y="-291" font-family="Helvetica,sans-Serif" font-size="10.00">+ Uniform()</text>
<text text-anchor="start" x="184" y="-280" font-family="Helvetica,sans-Serif" font-size="10.00">+ size()</text>
<text text-anchor="start" x="184" y="-269" font-family="Helvetica,sans-Serif" font-size="10.00">+ type()</text>
</a>
</g>
</g>
<!-- Node2&#45;&gt;Node1 -->
<g id="edge1" class="edge">
<title>Node2&#45;&gt;Node1</title>
<path fill="none" stroke="midnightblue" d="M265.96,-252.77C274.49,-234.19 283.9,-213.71 291.78,-196.56"/>
<polygon fill="none" stroke="midnightblue" points="262.71,-251.45 261.72,-262 269.07,-254.37 262.71,-251.45"/>
</g>
<!-- Node3 -->
<g id="node3" class="node">
<title>Node3</title>
<g id="a_node3"><a target="_parent" xlink:href="../../../cieutils/docs/html/classcie_1_1utils_1_1NamedObject.html" xlink:title=" ">
<polygon fill="white" stroke="black" points="176,-427.5 176,-583.5 307,-583.5 307,-427.5 176,-427.5"/>
<text text-anchor="middle" x="241.5" y="-571.5" font-family="Helvetica,sans-Serif" font-size="10.00">cie::utils::NamedObject</text>
<polyline fill="none" stroke="black" points="176,-564.5 307,-564.5 "/>
<text text-anchor="middle" x="241.5" y="-552.5" font-family="Helvetica,sans-Serif" font-size="10.00"> </text>
<polyline fill="none" stroke="black" points="176,-545.5 307,-545.5 "/>
<text text-anchor="start" x="184" y="-533.5" font-family="Helvetica,sans-Serif" font-size="10.00">+ NamedObject()</text>
<text text-anchor="start" x="184" y="-522.5" font-family="Helvetica,sans-Serif" font-size="10.00">+ NamedObject()</text>
<text text-anchor="start" x="184" y="-511.5" font-family="Helvetica,sans-Serif" font-size="10.00">+ NamedObject()</text>
<text text-anchor="start" x="184" y="-500.5" font-family="Helvetica,sans-Serif" font-size="10.00">+ NamedObject()</text>
<text text-anchor="start" x="184" y="-489.5" font-family="Helvetica,sans-Serif" font-size="10.00">+ operator=()</text>
<text text-anchor="start" x="184" y="-478.5" font-family="Helvetica,sans-Serif" font-size="10.00">+ operator=()</text>
<text text-anchor="start" x="184" y="-467.5" font-family="Helvetica,sans-Serif" font-size="10.00">+ name()</text>
<text text-anchor="start" x="184" y="-456.5" font-family="Helvetica,sans-Serif" font-size="10.00">+ setName()</text>
<text text-anchor="start" x="184" y="-445.5" font-family="Helvetica,sans-Serif" font-size="10.00">+ setName()</text>
<text text-anchor="start" x="184" y="-434.5" font-family="Helvetica,sans-Serif" font-size="10.00">+ ~NamedObject()</text>
</a>
</g>
</g>
<!-- Node3&#45;&gt;Node2 -->
<g id="edge2" class="edge">
<title>Node3&#45;&gt;Node2</title>
<path fill="none" stroke="midnightblue" d="M241.5,-417.12C241.5,-394.58 241.5,-371.26 241.5,-352"/>
<polygon fill="none" stroke="midnightblue" points="238,-417.4 241.5,-427.4 245,-417.4 238,-417.4"/>
</g>
<!-- Node4 -->
<g id="node4" class="node">
<title>Node4</title>
<g id="a_node4"><a target="_parent" xlink:href="../../../cieutils/docs/html/classcie_1_1utils_1_1IDObject.html" xlink:title=" ">
<polygon fill="white" stroke="black" points="325.5,-234.5 325.5,-379.5 431.5,-379.5 431.5,-234.5 325.5,-234.5"/>
<text text-anchor="start" x="333.5" y="-367.5" font-family="Helvetica,sans-Serif" font-size="10.00">cie::utils::IDObject</text>
<text text-anchor="middle" x="378.5" y="-356.5" font-family="Helvetica,sans-Serif" font-size="10.00">&lt; GLint &gt;</text>
<polyline fill="none" stroke="black" points="325.5,-349.5 431.5,-349.5 "/>
<text text-anchor="start" x="333.5" y="-337.5" font-family="Helvetica,sans-Serif" font-size="10.00"># _id</text>
<polyline fill="none" stroke="black" points="325.5,-330.5 431.5,-330.5 "/>
<text text-anchor="start" x="333.5" y="-318.5" font-family="Helvetica,sans-Serif" font-size="10.00">+ IDObject()</text>
<text text-anchor="start" x="333.5" y="-307.5" font-family="Helvetica,sans-Serif" font-size="10.00">+ IDObject()</text>
<text text-anchor="start" x="333.5" y="-296.5" font-family="Helvetica,sans-Serif" font-size="10.00">+ IDObject()</text>
<text text-anchor="start" x="333.5" y="-285.5" font-family="Helvetica,sans-Serif" font-size="10.00">+ IDObject()</text>
<text text-anchor="start" x="333.5" y="-274.5" font-family="Helvetica,sans-Serif" font-size="10.00">+ operator=()</text>
<text text-anchor="start" x="333.5" y="-263.5" font-family="Helvetica,sans-Serif" font-size="10.00">+ operator=()</text>
<text text-anchor="start" x="333.5" y="-252.5" font-family="Helvetica,sans-Serif" font-size="10.00">+ setID()</text>
<text text-anchor="start" x="333.5" y="-241.5" font-family="Helvetica,sans-Serif" font-size="10.00">+ getID()</text>
</a>
</g>
</g>
<!-- Node4&#45;&gt;Node1 -->
<g id="edge3" class="edge">
<title>Node4&#45;&gt;Node1</title>
<path fill="none" stroke="midnightblue" d="M340.76,-225.06C336.15,-215.17 331.62,-205.45 327.5,-196.61"/>
<polygon fill="none" stroke="midnightblue" points="337.61,-226.58 345.01,-234.17 343.96,-223.63 337.61,-226.58"/>
</g>
<!-- Node5 -->
<g id="node5" class="node">
<title>Node5</title>
<g id="a_node5"><a target="_parent" xlink:href="../../../cieutils/docs/html/classcie_1_1utils_1_1IDObject.html" xlink:title=" ">
<polygon fill="white" stroke="black" points="325.5,-433 325.5,-578 431.5,-578 431.5,-433 325.5,-433"/>
<text text-anchor="start" x="333.5" y="-566" font-family="Helvetica,sans-Serif" font-size="10.00">cie::utils::IDObject</text>
<text text-anchor="middle" x="378.5" y="-555" font-family="Helvetica,sans-Serif" font-size="10.00">&lt; class &gt;</text>
<polyline fill="none" stroke="black" points="325.5,-548 431.5,-548 "/>
<text text-anchor="start" x="333.5" y="-536" font-family="Helvetica,sans-Serif" font-size="10.00"># _id</text>
<polyline fill="none" stroke="black" points="325.5,-529 431.5,-529 "/>
<text text-anchor="start" x="333.5" y="-517" font-family="Helvetica,sans-Serif" font-size="10.00">+ IDObject()</text>
<text text-anchor="start" x="333.5" y="-506" font-family="Helvetica,sans-Serif" font-size="10.00">+ IDObject()</text>
<text text-anchor="start" x="333.5" y="-495" font-family="Helvetica,sans-Serif" font-size="10.00">+ IDObject()</text>
<text text-anchor="start" x="333.5" y="-484" font-family="Helvetica,sans-Serif" font-size="10.00">+ IDObject()</text>
<text text-anchor="start" x="333.5" y="-473" font-family="Helvetica,sans-Serif" font-size="10.00">+ operator=()</text>
<text text-anchor="start" x="333.5" y="-462" font-family="Helvetica,sans-Serif" font-size="10.00">+ operator=()</text>
<text text-anchor="start" x="333.5" y="-451" font-family="Helvetica,sans-Serif" font-size="10.00">+ setID()</text>
<text text-anchor="start" x="333.5" y="-440" font-family="Helvetica,sans-Serif" font-size="10.00">+ getID()</text>
</a>
</g>
</g>
<!-- Node5&#45;&gt;Node4 -->
<g id="edge4" class="edge">
<title>Node5&#45;&gt;Node4</title>
<path fill="none" stroke="orange" d="M378.5,-422.46C378.5,-408.22 378.5,-393.51 378.5,-379.58"/>
<polygon fill="orange" stroke="orange" points="375,-422.72 378.5,-432.72 382,-422.72 375,-422.72"/>
<text text-anchor="middle" x="404.5" y="-401" font-family="Helvetica,sans-Serif" font-size="10.00"> &lt; GLint &gt;</text>
</g>
</g>
</svg>
