<?xml version="1.0" encoding="UTF-8" standalone="no"?>
<!DOCTYPE svg PUBLIC "-//W3C//DTD SVG 1.1//EN"
 "http://www.w3.org/Graphics/SVG/1.1/DTD/svg11.dtd">
<!-- Generated by graphviz version 2.43.0 (0)
 -->
<!-- Title: modules.glmesh.meshnode.MeshNode Pages: 1 -->
<svg width="179pt" height="259pt"
 viewBox="0.00 0.00 179.00 259.00" xmlns="http://www.w3.org/2000/svg" xmlns:xlink="http://www.w3.org/1999/xlink">
<g id="graph0" class="graph" transform="scale(1 1) rotate(0) translate(4 255)">
<title>modules.glmesh.meshnode.MeshNode</title>
<polygon fill="white" stroke="transparent" points="-4,4 -4,-255 175,-255 175,4 -4,4"/>
<!-- Node1 -->
<g id="node1" class="node">
<title>Node1</title>
<g id="a_node1"><a xlink:title=" ">
<polygon fill="#bfbfbf" stroke="black" points="0,-0.5 0,-156.5 171,-156.5 171,-0.5 0,-0.5"/>
<text text-anchor="start" x="8" y="-144.5" font-family="Helvetica,sans-Serif" font-size="10.00">modules.glmesh.meshnode.</text>
<text text-anchor="middle" x="85.5" y="-133.5" font-family="Helvetica,sans-Serif" font-size="10.00">MeshNode</text>
<polyline fill="none" stroke="black" points="0,-126.5 171,-126.5 "/>
<text text-anchor="middle" x="85.5" y="-114.5" font-family="Helvetica,sans-Serif" font-size="10.00"> </text>
<polyline fill="none" stroke="black" points="0,-107.5 171,-107.5 "/>
<text text-anchor="start" x="8" y="-95.5" font-family="Helvetica,sans-Serif" font-size="10.00">+ __init__()</text>
<text text-anchor="start" x="8" y="-84.5" font-family="Helvetica,sans-Serif" font-size="10.00">+ parent()</text>
<text text-anchor="start" x="8" y="-73.5" font-family="Helvetica,sans-Serif" font-size="10.00">+ setParent()</text>
<text text-anchor="start" x="8" y="-62.5" font-family="Helvetica,sans-Serif" font-size="10.00">+ child()</text>
<text text-anchor="start" x="8" y="-51.5" font-family="Helvetica,sans-Serif" font-size="10.00">+ children()</text>
<text text-anchor="start" x="8" y="-40.5" font-family="Helvetica,sans-Serif" font-size="10.00">+ addChild()</text>
<text text-anchor="start" x="8" y="-29.5" font-family="Helvetica,sans-Serif" font-size="10.00">+ get_texture_coordinates()</text>
<text text-anchor="start" x="8" y="-18.5" font-family="Helvetica,sans-Serif" font-size="10.00">+ computeCompiledMeshSize()</text>
<text text-anchor="start" x="8" y="-7.5" font-family="Helvetica,sans-Serif" font-size="10.00">+ getCompiledMesh()</text>
</a>
</g>
</g>
<!-- Node2 -->
<g id="node2" class="node">
<title>Node2</title>
<g id="a_node2"><a xlink:title=" ">
<polygon fill="white" stroke="#bfbfbf" points="52.5,-193.5 52.5,-250.5 118.5,-250.5 118.5,-193.5 52.5,-193.5"/>
<text text-anchor="middle" x="85.5" y="-238.5" font-family="Helvetica,sans-Serif" font-size="10.00">MeshData</text>
<polyline fill="none" stroke="#bfbfbf" points="52.5,-231.5 118.5,-231.5 "/>
<text text-anchor="middle" x="85.5" y="-219.5" font-family="Helvetica,sans-Serif" font-size="10.00"> </text>
<polyline fill="none" stroke="#bfbfbf" points="52.5,-212.5 118.5,-212.5 "/>
<text text-anchor="middle" x="85.5" y="-200.5" font-family="Helvetica,sans-Serif" font-size="10.00"> </text>
</a>
</g>
</g>
<!-- Node2&#45;&gt;Node1 -->
<g id="edge1" class="edge">
<title>Node2&#45;&gt;Node1</title>
<path fill="none" stroke="midnightblue" d="M85.5,-183.34C85.5,-175.04 85.5,-165.96 85.5,-156.74"/>
<polygon fill="none" stroke="midnightblue" points="82,-183.38 85.5,-193.38 89,-183.38 82,-183.38"/>
</g>
</g>
</svg>
