<?xml version="1.0" encoding="UTF-8" standalone="no"?>
<!DOCTYPE svg PUBLIC "-//W3C//DTD SVG 1.1//EN"
 "http://www.w3.org/Graphics/SVG/1.1/DTD/svg11.dtd">
<!-- Generated by graphviz version 2.43.0 (0)
 -->
<!-- Title: cie::gl::MappedControls Pages: 1 -->
<!--zoomable 353 -->
<svg id="main" version="1.1" xmlns="http://www.w3.org/2000/svg" xmlns:xlink="http://www.w3.org/1999/xlink" xml:space="preserve" onload="init(evt)">
<style type="text/css"><![CDATA[
.edge:hover path { stroke: red; }
.edge:hover polygon { stroke: red; fill: red; }
]]></style>
<script type="text/javascript"><![CDATA[
var edges = document.getElementsByTagName('g');
if (edges && edges.length) {
  for (var i=0;i<edges.length;i++) {
    if (edges[i].id.substr(0,4)=='edge') {
      edges[i].setAttribute('class','edge');
    }
  }
}
]]></script>
        <defs>
                <circle id="rim" cx="0" cy="0" r="7"/>
                <circle id="rim2" cx="0" cy="0" r="3.5"/>
                <g id="zoomPlus">
                        <use xlink:href="#rim" fill="#404040">
                                <set attributeName="fill" to="#808080" begin="zoomplus.mouseover" end="zoomplus.mouseout"/>
                        </use>
                        <path d="M-4,0h8M0,-4v8" fill="none" stroke="white" stroke-width="1.5" pointer-events="none"/>
                </g>
                <g id="zoomMin">
                        <use xlink:href="#rim" fill="#404040">
                                <set attributeName="fill" to="#808080" begin="zoomminus.mouseover" end="zoomminus.mouseout"/>
                        </use>
                        <path d="M-4,0h8" fill="none" stroke="white" stroke-width="1.5" pointer-events="none"/>
                </g>
                <g id="dirArrow">
                        <path fill="none" stroke="white" stroke-width="1.5" d="M0,-3.0v7 M-2.5,-0.5L0,-3.0L2.5,-0.5"/>
                </g>
               <g id="resetDef">
                       <use xlink:href="#rim2" fill="#404040">
                               <set attributeName="fill" to="#808080" begin="reset.mouseover" end="reset.mouseout"/>
                       </use>
               </g>
        </defs>

<script type="text/javascript">
var viewWidth = 532;
var viewHeight = 353;
var sectionId = 'dynsection-0';
</script>
<script xlink:href="svgpan.js"/>
<svg id="graph" class="graph">
<g id="viewport">
<title>cie::gl::MappedControls</title>
<polygon fill="white" stroke="transparent" points="-4,4 -4,-349 527.5,-349 527.5,4 -4,4"/>
<!-- Node1 -->
<g id="node1" class="node">
<title>Node1</title>
<g id="a_node1"><a xlink:title=" ">
<polygon fill="#bfbfbf" stroke="black" points="182,-243.5 182,-344.5 331,-344.5 331,-243.5 182,-243.5"/>
<text text-anchor="middle" x="256.5" y="-332.5" font-family="Helvetica,sans-Serif" font-size="10.00">cie::gl::MappedControls</text>
<polyline fill="none" stroke="black" points="182,-325.5 331,-325.5 "/>
<text text-anchor="start" x="190" y="-313.5" font-family="Helvetica,sans-Serif" font-size="10.00"># _controlMap</text>
<polyline fill="none" stroke="black" points="182,-306.5 331,-306.5 "/>
<text text-anchor="start" x="190" y="-294.5" font-family="Helvetica,sans-Serif" font-size="10.00">+ MappedControls()</text>
<text text-anchor="start" x="190" y="-283.5" font-family="Helvetica,sans-Serif" font-size="10.00">+ configure()</text>
<text text-anchor="start" x="190" y="-272.5" font-family="Helvetica,sans-Serif" font-size="10.00">+ configure()</text>
<text text-anchor="start" x="190" y="-261.5" font-family="Helvetica,sans-Serif" font-size="10.00">+ callControl()</text>
<text text-anchor="start" x="190" y="-250.5" font-family="Helvetica,sans-Serif" font-size="10.00"># makeConfigurationMap()</text>
</a>
</g>
</g>
<!-- Node2 -->
<g id="node2" class="node">
<title>Node2</title>
<g id="a_node2"><a xlink:href="classcie_1_1gl_1_1MappedCameraControls.html" target="_top" xlink:title=" ">
<polygon fill="white" stroke="black" points="171.5,-138.5 171.5,-206.5 341.5,-206.5 341.5,-138.5 171.5,-138.5"/>
<text text-anchor="middle" x="256.5" y="-194.5" font-family="Helvetica,sans-Serif" font-size="10.00">cie::gl::MappedCameraControls</text>
<polyline fill="none" stroke="black" points="171.5,-187.5 341.5,-187.5 "/>
<text text-anchor="middle" x="256.5" y="-175.5" font-family="Helvetica,sans-Serif" font-size="10.00"> </text>
<polyline fill="none" stroke="black" points="171.5,-168.5 341.5,-168.5 "/>
<text text-anchor="start" x="179.5" y="-156.5" font-family="Helvetica,sans-Serif" font-size="10.00">+ MappedCameraControls()</text>
<text text-anchor="start" x="179.5" y="-145.5" font-family="Helvetica,sans-Serif" font-size="10.00"># onSubjectChange()</text>
</a>
</g>
</g>
<!-- Node1&#45;&gt;Node2 -->
<g id="edge1" class="edge">
<title>Node1&#45;&gt;Node2</title>
<path fill="none" stroke="midnightblue" d="M256.5,-233.17C256.5,-224.11 256.5,-215.05 256.5,-206.83"/>
<polygon fill="none" stroke="midnightblue" points="253,-233.36 256.5,-243.36 260,-233.36 253,-233.36"/>
</g>
<!-- Node3 -->
<g id="node3" class="node">
<title>Node3</title>
<g id="a_node3"><a xlink:href="classcie_1_1gl_1_1ArcBallCameraControls.html" target="_top" xlink:title=" ">
<polygon fill="white" stroke="black" points="0,-0.5 0,-101.5 165,-101.5 165,-0.5 0,-0.5"/>
<text text-anchor="middle" x="82.5" y="-89.5" font-family="Helvetica,sans-Serif" font-size="10.00">cie::gl::ArcBallCameraControls</text>
<polyline fill="none" stroke="black" points="0,-82.5 165,-82.5 "/>
<text text-anchor="middle" x="82.5" y="-70.5" font-family="Helvetica,sans-Serif" font-size="10.00"> </text>
<polyline fill="none" stroke="black" points="0,-63.5 165,-63.5 "/>
<text text-anchor="start" x="8" y="-51.5" font-family="Helvetica,sans-Serif" font-size="10.00">+ ArcBallCameraControls()</text>
<text text-anchor="start" x="8" y="-40.5" font-family="Helvetica,sans-Serif" font-size="10.00">+ getCenter()</text>
<text text-anchor="start" x="8" y="-29.5" font-family="Helvetica,sans-Serif" font-size="10.00">+ setCenter()</text>
<text text-anchor="start" x="8" y="-18.5" font-family="Helvetica,sans-Serif" font-size="10.00">+ setRotationScale()</text>
<text text-anchor="start" x="8" y="-7.5" font-family="Helvetica,sans-Serif" font-size="10.00">+ setZoomScale()</text>
</a>
</g>
</g>
<!-- Node2&#45;&gt;Node3 -->
<g id="edge2" class="edge">
<title>Node2&#45;&gt;Node3</title>
<path fill="none" stroke="midnightblue" d="M199.74,-132.52C185.39,-122.66 169.79,-111.95 154.79,-101.65"/>
<polygon fill="none" stroke="midnightblue" points="197.81,-135.44 208.03,-138.21 201.77,-129.67 197.81,-135.44"/>
</g>
<!-- Node4 -->
<g id="node4" class="node">
<title>Node4</title>
<g id="a_node4"><a xlink:href="classcie_1_1gl_1_1FlyCameraControls.html" target="_top" xlink:title=" ">
<polygon fill="white" stroke="black" points="183.5,-6 183.5,-96 329.5,-96 329.5,-6 183.5,-6"/>
<text text-anchor="middle" x="256.5" y="-84" font-family="Helvetica,sans-Serif" font-size="10.00">cie::gl::FlyCameraControls</text>
<polyline fill="none" stroke="black" points="183.5,-77 329.5,-77 "/>
<text text-anchor="middle" x="256.5" y="-65" font-family="Helvetica,sans-Serif" font-size="10.00"> </text>
<polyline fill="none" stroke="black" points="183.5,-58 329.5,-58 "/>
<text text-anchor="start" x="191.5" y="-46" font-family="Helvetica,sans-Serif" font-size="10.00">+ FlyCameraControls()</text>
<text text-anchor="start" x="191.5" y="-35" font-family="Helvetica,sans-Serif" font-size="10.00">+ setMovementScale()</text>
<text text-anchor="start" x="191.5" y="-24" font-family="Helvetica,sans-Serif" font-size="10.00">+ setRotationScale()</text>
<text text-anchor="start" x="191.5" y="-13" font-family="Helvetica,sans-Serif" font-size="10.00">+ setZoomScale()</text>
</a>
</g>
</g>
<!-- Node2&#45;&gt;Node4 -->
<g id="edge3" class="edge">
<title>Node2&#45;&gt;Node4</title>
<path fill="none" stroke="midnightblue" d="M256.5,-128.13C256.5,-117.77 256.5,-106.69 256.5,-96.28"/>
<polygon fill="none" stroke="midnightblue" points="253,-128.21 256.5,-138.21 260,-128.21 253,-128.21"/>
</g>
<!-- Node5 -->
<g id="node5" class="node">
<title>Node5</title>
<g id="a_node5"><a xlink:href="classcie_1_1gl_1_1PanZoomCameraControls.html" target="_top" xlink:title=" ">
<polygon fill="white" stroke="black" points="347.5,-11.5 347.5,-90.5 523.5,-90.5 523.5,-11.5 347.5,-11.5"/>
<text text-anchor="middle" x="435.5" y="-78.5" font-family="Helvetica,sans-Serif" font-size="10.00">cie::gl::PanZoomCameraControls</text>
<polyline fill="none" stroke="black" points="347.5,-71.5 523.5,-71.5 "/>
<text text-anchor="middle" x="435.5" y="-59.5" font-family="Helvetica,sans-Serif" font-size="10.00"> </text>
<polyline fill="none" stroke="black" points="347.5,-52.5 523.5,-52.5 "/>
<text text-anchor="start" x="355.5" y="-40.5" font-family="Helvetica,sans-Serif" font-size="10.00">+ PanZoomCameraControls()</text>
<text text-anchor="start" x="355.5" y="-29.5" font-family="Helvetica,sans-Serif" font-size="10.00">+ setMovementScale()</text>
<text text-anchor="start" x="355.5" y="-18.5" font-family="Helvetica,sans-Serif" font-size="10.00">+ setZoomScale()</text>
</a>
</g>
</g>
<!-- Node2&#45;&gt;Node5 -->
<g id="edge4" class="edge">
<title>Node2&#45;&gt;Node5</title>
<path fill="none" stroke="midnightblue" d="M314.84,-132.55C335,-119.1 357.56,-104.03 377.68,-90.6"/>
<polygon fill="none" stroke="midnightblue" points="312.74,-129.75 306.36,-138.21 316.62,-135.57 312.74,-129.75"/>
</g>
</g>
</svg>
        <g id="navigator" transform="translate(0 0)" fill="#404254">
                <rect fill="#f2f5e9" fill-opacity="0.5" stroke="#606060" stroke-width=".5" x="0" y="0" width="60" height="60"/>
                <use id="zoomplus" xlink:href="#zoomPlus" x="17" y="9" onmousedown="handleZoom(evt,'in')"/>
                <use id="zoomminus" xlink:href="#zoomMin" x="42" y="9" onmousedown="handleZoom(evt,'out')"/>
                <use id="reset" xlink:href="#resetDef" x="30" y="36" onmousedown="handleReset()"/>
                <g id="arrowUp" xlink:href="#dirArrow" transform="translate(30 24)" onmousedown="handlePan(0,-1)">
                  <use xlink:href="#rim" fill="#404040">
                        <set attributeName="fill" to="#808080" begin="arrowUp.mouseover" end="arrowUp.mouseout"/>
                  </use>
                  <path fill="none" stroke="white" stroke-width="1.5" d="M0,-3.0v7 M-2.5,-0.5L0,-3.0L2.5,-0.5"/>
                </g>
                <g id="arrowRight" xlink:href="#dirArrow" transform="rotate(90) translate(36 -43)" onmousedown="handlePan(1,0)">
                  <use xlink:href="#rim" fill="#404040">
                        <set attributeName="fill" to="#808080" begin="arrowRight.mouseover" end="arrowRight.mouseout"/>
                  </use>
                  <path fill="none" stroke="white" stroke-width="1.5" d="M0,-3.0v7 M-2.5,-0.5L0,-3.0L2.5,-0.5"/>
                </g>
                <g id="arrowDown" xlink:href="#dirArrow" transform="rotate(180) translate(-30 -48)" onmousedown="handlePan(0,1)">
                  <use xlink:href="#rim" fill="#404040">
                        <set attributeName="fill" to="#808080" begin="arrowDown.mouseover" end="arrowDown.mouseout"/>
                  </use>
                  <path fill="none" stroke="white" stroke-width="1.5" d="M0,-3.0v7 M-2.5,-0.5L0,-3.0L2.5,-0.5"/>
                </g>
                <g id="arrowLeft" xlink:href="#dirArrow" transform="rotate(270) translate(-36 17)" onmousedown="handlePan(-1,0)">
                  <use xlink:href="#rim" fill="#404040">
                        <set attributeName="fill" to="#808080" begin="arrowLeft.mouseover" end="arrowLeft.mouseout"/>
                  </use>
                  <path fill="none" stroke="white" stroke-width="1.5" d="M0,-3.0v7 M-2.5,-0.5L0,-3.0L2.5,-0.5"/>
                </g>
        </g>
        <svg viewBox="0 0 15 15" width="100%" height="30px" preserveAspectRatio="xMaxYMin meet">
         <g id="arrow_out" transform="scale(0.3 0.3)">
          <a xlink:href="classcie_1_1gl_1_1MappedControls__inherit__graph_org.svg" target="_base">
           <rect id="button" ry="5" rx="5" y="6" x="6" height="38" width="38"
                fill="#f2f5e9" fill-opacity="0.5" stroke="#606060" stroke-width="1.0"/>
           <path id="arrow"
             d="M 11.500037,31.436501 C 11.940474,20.09759 22.043105,11.32322 32.158766,21.979434 L 37.068811,17.246167 C 37.068811,17.246167 37.088388,32 37.088388,32 L 22.160133,31.978069 C 22.160133,31.978069 26.997745,27.140456 26.997745,27.140456 C 18.528582,18.264221 13.291696,25.230495 11.500037,31.436501 z"
             style="fill:#404040;"/>
          </a>
         </g>
        </svg>
</svg>
