<?xml version="1.0" encoding="UTF-8" standalone="no"?>
<!DOCTYPE svg PUBLIC "-//W3C//DTD SVG 1.1//EN"
 "http://www.w3.org/Graphics/SVG/1.1/DTD/svg11.dtd">
<!-- Generated by graphviz version 2.43.0 (0)
 -->
<!-- Title: cie::gl::AbsPlot2&lt; Tag, Args &gt; Pages: 1 -->
<svg width="804pt" height="364pt"
 viewBox="0.00 0.00 804.00 364.00" xmlns="http://www.w3.org/2000/svg" xmlns:xlink="http://www.w3.org/1999/xlink">
<g id="graph0" class="graph" transform="scale(1 1) rotate(0) translate(4 360)">
<title>cie::gl::AbsPlot2&lt; Tag, Args &gt;</title>
<polygon fill="white" stroke="transparent" points="-4,4 -4,-360 800,-360 800,4 -4,4"/>
<!-- Node1 -->
<g id="node1" class="node">
<title>Node1</title>
<g id="a_node1"><a xlink:title=" ">
<polygon fill="#bfbfbf" stroke="black" points="318,-0.5 318,-90.5 421,-90.5 421,-0.5 318,-0.5"/>
<text text-anchor="start" x="326" y="-78.5" font-family="Helvetica,sans-Serif" font-size="10.00">cie::gl::AbsPlot2&lt;</text>
<text text-anchor="middle" x="369.5" y="-67.5" font-family="Helvetica,sans-Serif" font-size="10.00"> Tag, Args &gt;</text>
<polyline fill="none" stroke="black" points="318,-60.5 421,-60.5 "/>
<text text-anchor="middle" x="369.5" y="-48.5" font-family="Helvetica,sans-Serif" font-size="10.00"> </text>
<polyline fill="none" stroke="black" points="318,-41.5 421,-41.5 "/>
<text text-anchor="start" x="326" y="-29.5" font-family="Helvetica,sans-Serif" font-size="10.00">+ AbsPlot2()</text>
<text text-anchor="start" x="326" y="-18.5" font-family="Helvetica,sans-Serif" font-size="10.00">+ AbsPlot2()</text>
<text text-anchor="start" x="326" y="-7.5" font-family="Helvetica,sans-Serif" font-size="10.00">+ fit()</text>
</a>
</g>
</g>
<!-- Node2 -->
<g id="node2" class="node">
<title>Node2</title>
<g id="a_node2"><a xlink:href="classcie_1_1gl_1_1AbsPlot.html" target="_top" xlink:title=" ">
<polygon fill="white" stroke="black" points="93,-138.5 93,-250.5 182,-250.5 182,-138.5 93,-138.5"/>
<text text-anchor="middle" x="137.5" y="-238.5" font-family="Helvetica,sans-Serif" font-size="10.00">cie::gl::AbsPlot</text>
<polyline fill="none" stroke="black" points="93,-231.5 182,-231.5 "/>
<text text-anchor="middle" x="137.5" y="-219.5" font-family="Helvetica,sans-Serif" font-size="10.00"> </text>
<polyline fill="none" stroke="black" points="93,-212.5 182,-212.5 "/>
<text text-anchor="start" x="101" y="-200.5" font-family="Helvetica,sans-Serif" font-size="10.00">+ AbsPlot()</text>
<text text-anchor="start" x="101" y="-189.5" font-family="Helvetica,sans-Serif" font-size="10.00">+ AbsPlot()</text>
<text text-anchor="start" x="101" y="-178.5" font-family="Helvetica,sans-Serif" font-size="10.00">+ update()</text>
<text text-anchor="start" x="101" y="-167.5" font-family="Helvetica,sans-Serif" font-size="10.00">+ fit()</text>
<text text-anchor="start" x="101" y="-156.5" font-family="Helvetica,sans-Serif" font-size="10.00">+ show()</text>
<text text-anchor="start" x="101" y="-145.5" font-family="Helvetica,sans-Serif" font-size="10.00">+ attributes()</text>
</a>
</g>
</g>
<!-- Node2&#45;&gt;Node1 -->
<g id="edge1" class="edge">
<title>Node2&#45;&gt;Node1</title>
<path fill="none" stroke="midnightblue" d="M190.24,-138.19C190.33,-138.13 190.41,-138.06 190.5,-138 230.1,-108.49 280.61,-83.65 317.87,-67.33"/>
<polygon fill="none" stroke="midnightblue" points="187.85,-135.62 182.25,-144.61 192.23,-141.08 187.85,-135.62"/>
</g>
<!-- Node3 -->
<g id="node3" class="node">
<title>Node3</title>
<g id="a_node3"><a xlink:title=" ">
<polygon fill="white" stroke="#bfbfbf" points="0,-298.5 0,-355.5 85,-355.5 85,-298.5 0,-298.5"/>
<text text-anchor="middle" x="42.5" y="-343.5" font-family="Helvetica,sans-Serif" font-size="10.00">SharedPointer</text>
<polyline fill="none" stroke="#bfbfbf" points="0,-336.5 85,-336.5 "/>
<text text-anchor="middle" x="42.5" y="-324.5" font-family="Helvetica,sans-Serif" font-size="10.00"> </text>
<polyline fill="none" stroke="#bfbfbf" points="0,-317.5 85,-317.5 "/>
<text text-anchor="middle" x="42.5" y="-305.5" font-family="Helvetica,sans-Serif" font-size="10.00"> </text>
</a>
</g>
</g>
<!-- Node3&#45;&gt;Node1 -->
<g id="edge7" class="edge">
<title>Node3&#45;&gt;Node1</title>
<path fill="none" stroke="#404040" d="M27.68,-298.19C8.72,-258.36 -17.61,-184.73 18.5,-138 53.33,-92.92 214.26,-65.86 305.64,-53.86"/>
<polygon fill="none" stroke="#404040" points="305.88,-53.83 311.33,-49.1 317.79,-52.3 312.34,-57.03 305.88,-53.83"/>
<text text-anchor="middle" x="51" y="-192" font-family="Helvetica,sans-Serif" font-size="10.00"> #_p_camera</text>
</g>
<!-- Node3&#45;&gt;Node2 -->
<g id="edge2" class="edge">
<title>Node3&#45;&gt;Node2</title>
<path fill="none" stroke="#404040" d="M37.36,-298.24C36.92,-288.36 38.17,-277.57 43.5,-269 52.74,-254.15 64.21,-261.09 78.5,-251 80.16,-249.83 81.82,-248.61 83.47,-247.36"/>
<polygon fill="none" stroke="#404040" points="83.48,-247.35 85.67,-240.48 92.86,-239.87 90.67,-246.74 83.48,-247.35"/>
<text text-anchor="middle" x="81.5" y="-272" font-family="Helvetica,sans-Serif" font-size="10.00"> #_p_attributes</text>
</g>
<!-- Node3&#45;&gt;Node2 -->
<g id="edge3" class="edge">
<title>Node3&#45;&gt;Node2</title>
<path fill="none" stroke="#404040" d="M85.34,-308.58C98.07,-301.47 110.89,-292.03 119.5,-280 123.37,-274.59 126.44,-268.51 128.88,-262.17"/>
<polygon fill="none" stroke="#404040" points="128.94,-261.97 126.96,-255.03 132.59,-250.54 134.58,-257.47 128.94,-261.97"/>
<text text-anchor="middle" x="158.5" y="-272" font-family="Helvetica,sans-Serif" font-size="10.00"> #_p_window</text>
</g>
<!-- Node4 -->
<g id="node4" class="node">
<title>Node4</title>
<g id="a_node4"><a xlink:title=" ">
<polygon fill="white" stroke="#bfbfbf" points="200,-166 200,-223 369,-223 369,-166 200,-166"/>
<text text-anchor="middle" x="284.5" y="-211" font-family="Helvetica,sans-Serif" font-size="10.00">shared_ptr&lt; index_container &gt;</text>
<polyline fill="none" stroke="#bfbfbf" points="200,-204 369,-204 "/>
<text text-anchor="middle" x="284.5" y="-192" font-family="Helvetica,sans-Serif" font-size="10.00"> </text>
<polyline fill="none" stroke="#bfbfbf" points="200,-185 369,-185 "/>
<text text-anchor="middle" x="284.5" y="-173" font-family="Helvetica,sans-Serif" font-size="10.00"> </text>
</a>
</g>
</g>
<!-- Node4&#45;&gt;Node1 -->
<g id="edge4" class="edge">
<title>Node4&#45;&gt;Node1</title>
<path fill="none" stroke="#404040" d="M300.49,-165.85C310.99,-147.7 325.08,-123.33 337.79,-101.35"/>
<polygon fill="none" stroke="#404040" points="337.89,-101.17 337.43,-93.97 343.89,-90.78 344.35,-97.98 337.89,-101.17"/>
<text text-anchor="middle" x="364" y="-112" font-family="Helvetica,sans-Serif" font-size="10.00"> #_p_indices</text>
</g>
<!-- Node5 -->
<g id="node5" class="node">
<title>Node5</title>
<g id="a_node5"><a xlink:title=" ">
<polygon fill="white" stroke="#bfbfbf" points="387,-160.5 387,-228.5 524,-228.5 524,-160.5 387,-160.5"/>
<text text-anchor="start" x="395" y="-216.5" font-family="Helvetica,sans-Serif" font-size="10.00">shared_ptr&lt; cie::gl</text>
<text text-anchor="middle" x="455.5" y="-205.5" font-family="Helvetica,sans-Serif" font-size="10.00">::AbsPlot2::Plot2Scene &gt;</text>
<polyline fill="none" stroke="#bfbfbf" points="387,-198.5 524,-198.5 "/>
<text text-anchor="middle" x="455.5" y="-186.5" font-family="Helvetica,sans-Serif" font-size="10.00"> </text>
<polyline fill="none" stroke="#bfbfbf" points="387,-179.5 524,-179.5 "/>
<text text-anchor="middle" x="455.5" y="-167.5" font-family="Helvetica,sans-Serif" font-size="10.00"> </text>
</a>
</g>
</g>
<!-- Node5&#45;&gt;Node1 -->
<g id="edge5" class="edge">
<title>Node5&#45;&gt;Node1</title>
<path fill="none" stroke="#404040" d="M435.99,-160.14C425.78,-142.69 413.02,-120.89 401.42,-101.06"/>
<polygon fill="none" stroke="#404040" points="401.36,-100.96 394.88,-97.8 395.3,-90.6 401.78,-93.76 401.36,-100.96"/>
<text text-anchor="middle" x="441" y="-112" font-family="Helvetica,sans-Serif" font-size="10.00"> #_p_scene</text>
</g>
<!-- Node6 -->
<g id="node6" class="node">
<title>Node6</title>
<g id="a_node6"><a xlink:title=" ">
<polygon fill="white" stroke="#bfbfbf" points="542,-160.5 542,-228.5 661,-228.5 661,-160.5 542,-160.5"/>
<text text-anchor="start" x="550" y="-216.5" font-family="Helvetica,sans-Serif" font-size="10.00">shared_ptr&lt; controls</text>
<text text-anchor="middle" x="601.5" y="-205.5" font-family="Helvetica,sans-Serif" font-size="10.00">_type &gt;</text>
<polyline fill="none" stroke="#bfbfbf" points="542,-198.5 661,-198.5 "/>
<text text-anchor="middle" x="601.5" y="-186.5" font-family="Helvetica,sans-Serif" font-size="10.00"> </text>
<polyline fill="none" stroke="#bfbfbf" points="542,-179.5 661,-179.5 "/>
<text text-anchor="middle" x="601.5" y="-167.5" font-family="Helvetica,sans-Serif" font-size="10.00"> </text>
</a>
</g>
</g>
<!-- Node6&#45;&gt;Node1 -->
<g id="edge6" class="edge">
<title>Node6&#45;&gt;Node1</title>
<path fill="none" stroke="#404040" d="M563.21,-160.3C553.75,-152.64 543.46,-144.76 533.5,-138 501.17,-116.04 463.16,-94.58 431.88,-77.97"/>
<polygon fill="none" stroke="#404040" points="431.73,-77.9 424.56,-78.64 421.12,-72.31 428.29,-71.56 431.73,-77.9"/>
<text text-anchor="middle" x="536" y="-112" font-family="Helvetica,sans-Serif" font-size="10.00"> #_p_controls</text>
</g>
<!-- Node7 -->
<g id="node7" class="node">
<title>Node7</title>
<g id="a_node7"><a xlink:title=" ">
<polygon fill="white" stroke="#bfbfbf" points="679,-160.5 679,-228.5 796,-228.5 796,-160.5 679,-160.5"/>
<text text-anchor="start" x="687" y="-216.5" font-family="Helvetica,sans-Serif" font-size="10.00">vector&lt; vertex_type</text>
<text text-anchor="middle" x="737.5" y="-205.5" font-family="Helvetica,sans-Serif" font-size="10.00">::SharedPointer &gt;</text>
<polyline fill="none" stroke="#bfbfbf" points="679,-198.5 796,-198.5 "/>
<text text-anchor="middle" x="737.5" y="-186.5" font-family="Helvetica,sans-Serif" font-size="10.00"> </text>
<polyline fill="none" stroke="#bfbfbf" points="679,-179.5 796,-179.5 "/>
<text text-anchor="middle" x="737.5" y="-167.5" font-family="Helvetica,sans-Serif" font-size="10.00"> </text>
</a>
</g>
</g>
<!-- Node7&#45;&gt;Node1 -->
<g id="edge8" class="edge">
<title>Node7&#45;&gt;Node1</title>
<path fill="none" stroke="#404040" d="M702.89,-160.43C692.99,-152.24 681.81,-144.08 670.5,-138 593.95,-96.83 496.25,-71.49 433.29,-58.2"/>
<polygon fill="none" stroke="#404040" points="432.93,-58.13 426.24,-60.83 421.17,-55.71 427.86,-53 432.93,-58.13"/>
<text text-anchor="middle" x="659.5" y="-112" font-family="Helvetica,sans-Serif" font-size="10.00"> #_vertices</text>
</g>
</g>
</svg>
