<?xml version="1.0" encoding="UTF-8" standalone="no"?>
<!DOCTYPE svg PUBLIC "-//W3C//DTD SVG 1.1//EN"
 "http://www.w3.org/Graphics/SVG/1.1/DTD/svg11.dtd">
<!-- Generated by graphviz version 2.43.0 (0)
 -->
<!-- Title: cie::gl::GLFWWindow Pages: 1 -->
<svg width="676pt" height="877pt"
 viewBox="0.00 0.00 675.50 877.00" xmlns="http://www.w3.org/2000/svg" xmlns:xlink="http://www.w3.org/1999/xlink">
<g id="graph0" class="graph" transform="scale(1 1) rotate(0) translate(4 873)">
<title>cie::gl::GLFWWindow</title>
<polygon fill="white" stroke="transparent" points="-4,4 -4,-873 671.5,-873 671.5,4 -4,4"/>
<!-- Node1 -->
<g id="node1" class="node">
<title>Node1</title>
<g id="a_node1"><a xlink:title=" ">
<polygon fill="#bfbfbf" stroke="black" points="333.5,-0.5 333.5,-123.5 452.5,-123.5 452.5,-0.5 333.5,-0.5"/>
<text text-anchor="middle" x="393" y="-111.5" font-family="Helvetica,sans-Serif" font-size="10.00">cie::gl::GLFWWindow</text>
<polyline fill="none" stroke="black" points="333.5,-104.5 452.5,-104.5 "/>
<text text-anchor="middle" x="393" y="-92.5" font-family="Helvetica,sans-Serif" font-size="10.00"> </text>
<polyline fill="none" stroke="black" points="333.5,-85.5 452.5,-85.5 "/>
<text text-anchor="start" x="341.5" y="-73.5" font-family="Helvetica,sans-Serif" font-size="10.00">+ ~GLFWWindow()</text>
<text text-anchor="start" x="341.5" y="-62.5" font-family="Helvetica,sans-Serif" font-size="10.00">+ activate()</text>
<text text-anchor="start" x="341.5" y="-51.5" font-family="Helvetica,sans-Serif" font-size="10.00">+ get()</text>
<text text-anchor="start" x="341.5" y="-40.5" font-family="Helvetica,sans-Serif" font-size="10.00">+ get()</text>
<text text-anchor="start" x="341.5" y="-29.5" font-family="Helvetica,sans-Serif" font-size="10.00"># setSizeImpl()</text>
<text text-anchor="start" x="341.5" y="-18.5" font-family="Helvetica,sans-Serif" font-size="10.00"># updateImpl()</text>
<text text-anchor="start" x="341.5" y="-7.5" font-family="Helvetica,sans-Serif" font-size="10.00"># setWindowName()</text>
</a>
</g>
</g>
<!-- Node2 -->
<g id="node2" class="node">
<title>Node2</title>
<g id="a_node2"><a xlink:href="classcie_1_1gl_1_1AbsWindow.html" target="_top" xlink:title=" ">
<polygon fill="white" stroke="black" points="302.5,-161.5 302.5,-449.5 483.5,-449.5 483.5,-161.5 302.5,-161.5"/>
<text text-anchor="middle" x="393" y="-437.5" font-family="Helvetica,sans-Serif" font-size="10.00">cie::gl::AbsWindow</text>
<polyline fill="none" stroke="black" points="302.5,-430.5 483.5,-430.5 "/>
<text text-anchor="middle" x="393" y="-418.5" font-family="Helvetica,sans-Serif" font-size="10.00"> </text>
<polyline fill="none" stroke="black" points="302.5,-411.5 483.5,-411.5 "/>
<text text-anchor="start" x="310.5" y="-399.5" font-family="Helvetica,sans-Serif" font-size="10.00">+ ~AbsWindow()</text>
<text text-anchor="start" x="310.5" y="-388.5" font-family="Helvetica,sans-Serif" font-size="10.00">+ update()</text>
<text text-anchor="start" x="310.5" y="-377.5" font-family="Helvetica,sans-Serif" font-size="10.00">+ activate()</text>
<text text-anchor="start" x="310.5" y="-366.5" font-family="Helvetica,sans-Serif" font-size="10.00">+ setSize()</text>
<text text-anchor="start" x="310.5" y="-355.5" font-family="Helvetica,sans-Serif" font-size="10.00">+ setSize()</text>
<text text-anchor="start" x="310.5" y="-344.5" font-family="Helvetica,sans-Serif" font-size="10.00">+ getSize()</text>
<text text-anchor="start" x="310.5" y="-333.5" font-family="Helvetica,sans-Serif" font-size="10.00">+ getAspectRatio()</text>
<text text-anchor="start" x="310.5" y="-322.5" font-family="Helvetica,sans-Serif" font-size="10.00">+ makeScene()</text>
<text text-anchor="start" x="310.5" y="-311.5" font-family="Helvetica,sans-Serif" font-size="10.00">+ removeScene()</text>
<text text-anchor="start" x="310.5" y="-300.5" font-family="Helvetica,sans-Serif" font-size="10.00">+ scenes()</text>
<text text-anchor="start" x="310.5" y="-289.5" font-family="Helvetica,sans-Serif" font-size="10.00">and 10 more...</text>
<text text-anchor="start" x="310.5" y="-278.5" font-family="Helvetica,sans-Serif" font-size="10.00"># AbsWindow()</text>
<text text-anchor="start" x="310.5" y="-267.5" font-family="Helvetica,sans-Serif" font-size="10.00"># addScene()</text>
<text text-anchor="start" x="310.5" y="-256.5" font-family="Helvetica,sans-Serif" font-size="10.00"># setSizeImpl()</text>
<text text-anchor="start" x="310.5" y="-245.5" font-family="Helvetica,sans-Serif" font-size="10.00"># updateImpl()</text>
<text text-anchor="start" x="310.5" y="-234.5" font-family="Helvetica,sans-Serif" font-size="10.00"># setWindowName()</text>
<text text-anchor="start" x="310.5" y="-223.5" font-family="Helvetica,sans-Serif" font-size="10.00"># triggerMouseButtonCallback()</text>
<text text-anchor="start" x="310.5" y="-212.5" font-family="Helvetica,sans-Serif" font-size="10.00"># triggerCursorPositionCallback()</text>
<text text-anchor="start" x="310.5" y="-201.5" font-family="Helvetica,sans-Serif" font-size="10.00"># triggerCursorEnterCallback()</text>
<text text-anchor="start" x="310.5" y="-190.5" font-family="Helvetica,sans-Serif" font-size="10.00"># triggerScrollCallback()</text>
<text text-anchor="start" x="310.5" y="-179.5" font-family="Helvetica,sans-Serif" font-size="10.00"># triggerKeyboardCallback()</text>
<text text-anchor="start" x="310.5" y="-168.5" font-family="Helvetica,sans-Serif" font-size="10.00"># triggerWindowResizeCallback()</text>
</a>
</g>
</g>
<!-- Node2&#45;&gt;Node1 -->
<g id="edge1" class="edge">
<title>Node2&#45;&gt;Node1</title>
<path fill="none" stroke="midnightblue" d="M393,-151.18C393,-141.63 393,-132.37 393,-123.67"/>
<polygon fill="none" stroke="midnightblue" points="389.5,-151.23 393,-161.23 396.5,-151.23 389.5,-151.23"/>
</g>
<!-- Node3 -->
<g id="node3" class="node">
<title>Node3</title>
<g id="a_node3"><a target="_parent" xlink:href="../../../cieutils/docs/html/classcie_1_1utils_1_1IDObject.html" xlink:title=" ">
<polygon fill="white" stroke="black" points="0,-508.5 0,-653.5 106,-653.5 106,-508.5 0,-508.5"/>
<text text-anchor="start" x="8" y="-641.5" font-family="Helvetica,sans-Serif" font-size="10.00">cie::utils::IDObject</text>
<text text-anchor="middle" x="53" y="-630.5" font-family="Helvetica,sans-Serif" font-size="10.00">&lt; class &gt;</text>
<polyline fill="none" stroke="black" points="0,-623.5 106,-623.5 "/>
<text text-anchor="middle" x="53" y="-611.5" font-family="Helvetica,sans-Serif" font-size="10.00"> </text>
<polyline fill="none" stroke="black" points="0,-604.5 106,-604.5 "/>
<text text-anchor="start" x="8" y="-592.5" font-family="Helvetica,sans-Serif" font-size="10.00">+ IDObject()</text>
<text text-anchor="start" x="8" y="-581.5" font-family="Helvetica,sans-Serif" font-size="10.00">+ IDObject()</text>
<text text-anchor="start" x="8" y="-570.5" font-family="Helvetica,sans-Serif" font-size="10.00">+ IDObject()</text>
<text text-anchor="start" x="8" y="-559.5" font-family="Helvetica,sans-Serif" font-size="10.00">+ IDObject()</text>
<text text-anchor="start" x="8" y="-548.5" font-family="Helvetica,sans-Serif" font-size="10.00">+ operator=()</text>
<text text-anchor="start" x="8" y="-537.5" font-family="Helvetica,sans-Serif" font-size="10.00">+ operator=()</text>
<text text-anchor="start" x="8" y="-526.5" font-family="Helvetica,sans-Serif" font-size="10.00">+ setID()</text>
<text text-anchor="start" x="8" y="-515.5" font-family="Helvetica,sans-Serif" font-size="10.00">+ getID()</text>
</a>
</g>
</g>
<!-- Node3&#45;&gt;Node2 -->
<g id="edge2" class="edge">
<title>Node3&#45;&gt;Node2</title>
<path fill="none" stroke="midnightblue" d="M110.79,-501.16C112.19,-499.74 113.59,-498.35 115,-497 171.56,-442.7 245.07,-393.06 302.3,-358.06"/>
<polygon fill="none" stroke="midnightblue" points="108.22,-498.79 103.92,-508.47 113.32,-503.59 108.22,-498.79"/>
</g>
<!-- Node4 -->
<g id="node4" class="node">
<title>Node4</title>
<g id="a_node4"><a xlink:title=" ">
<polygon fill="white" stroke="#bfbfbf" points="36.5,-762 36.5,-819 69.5,-819 69.5,-762 36.5,-762"/>
<text text-anchor="middle" x="53" y="-807" font-family="Helvetica,sans-Serif" font-size="10.00">TID</text>
<polyline fill="none" stroke="#bfbfbf" points="36.5,-800 69.5,-800 "/>
<text text-anchor="middle" x="53" y="-788" font-family="Helvetica,sans-Serif" font-size="10.00"> </text>
<polyline fill="none" stroke="#bfbfbf" points="36.5,-781 69.5,-781 "/>
<text text-anchor="middle" x="53" y="-769" font-family="Helvetica,sans-Serif" font-size="10.00"> </text>
</a>
</g>
</g>
<!-- Node4&#45;&gt;Node3 -->
<g id="edge3" class="edge">
<title>Node4&#45;&gt;Node3</title>
<path fill="none" stroke="#404040" d="M53,-761.95C53,-737.5 53,-700.47 53,-666.35"/>
<polygon fill="none" stroke="#404040" points="53,-665.93 49,-659.93 53,-653.93 57,-659.93 53,-665.93"/>
<text text-anchor="middle" x="66" y="-686" font-family="Helvetica,sans-Serif" font-size="10.00"> #_id</text>
</g>
<!-- Node5 -->
<g id="node5" class="node">
<title>Node5</title>
<g id="a_node5"><a target="_parent" xlink:href="../../../cieutils/docs/html/classcie_1_1utils_1_1Loggee.html" xlink:title=" ">
<polygon fill="white" stroke="black" points="124.5,-503 124.5,-659 223.5,-659 223.5,-503 124.5,-503"/>
<text text-anchor="middle" x="174" y="-647" font-family="Helvetica,sans-Serif" font-size="10.00">cie::utils::Loggee</text>
<polyline fill="none" stroke="black" points="124.5,-640 223.5,-640 "/>
<text text-anchor="middle" x="174" y="-628" font-family="Helvetica,sans-Serif" font-size="10.00"> </text>
<polyline fill="none" stroke="black" points="124.5,-621 223.5,-621 "/>
<text text-anchor="start" x="132.5" y="-609" font-family="Helvetica,sans-Serif" font-size="10.00">+ Loggee()</text>
<text text-anchor="start" x="132.5" y="-598" font-family="Helvetica,sans-Serif" font-size="10.00">+ ~Loggee()</text>
<text text-anchor="start" x="132.5" y="-587" font-family="Helvetica,sans-Serif" font-size="10.00">+ log()</text>
<text text-anchor="start" x="132.5" y="-576" font-family="Helvetica,sans-Serif" font-size="10.00">+ logID()</text>
<text text-anchor="start" x="132.5" y="-565" font-family="Helvetica,sans-Serif" font-size="10.00">+ tic()</text>
<text text-anchor="start" x="132.5" y="-554" font-family="Helvetica,sans-Serif" font-size="10.00">+ toc()</text>
<text text-anchor="start" x="132.5" y="-543" font-family="Helvetica,sans-Serif" font-size="10.00">+ toc()</text>
<text text-anchor="start" x="132.5" y="-532" font-family="Helvetica,sans-Serif" font-size="10.00">+ newBlock()</text>
<text text-anchor="start" x="132.5" y="-521" font-family="Helvetica,sans-Serif" font-size="10.00">+ separate()</text>
<text text-anchor="start" x="132.5" y="-510" font-family="Helvetica,sans-Serif" font-size="10.00"># logger()</text>
</a>
</g>
</g>
<!-- Node5&#45;&gt;Node2 -->
<g id="edge4" class="edge">
<title>Node5&#45;&gt;Node2</title>
<path fill="none" stroke="midnightblue" d="M229.64,-500.08C230.43,-499.05 231.22,-498.02 232,-497 254.05,-468.34 278.84,-438.11 302.24,-410.39"/>
<polygon fill="none" stroke="midnightblue" points="226.78,-498.07 223.58,-508.17 232.38,-502.27 226.78,-498.07"/>
</g>
<!-- Node6 -->
<g id="node6" class="node">
<title>Node6</title>
<g id="a_node6"><a target="_parent" xlink:href="../../../cieutils/docs/html/classcie_1_1utils_1_1NamedObject.html" xlink:title=" ">
<polygon fill="white" stroke="black" points="97.5,-712.5 97.5,-868.5 228.5,-868.5 228.5,-712.5 97.5,-712.5"/>
<text text-anchor="middle" x="163" y="-856.5" font-family="Helvetica,sans-Serif" font-size="10.00">cie::utils::NamedObject</text>
<polyline fill="none" stroke="black" points="97.5,-849.5 228.5,-849.5 "/>
<text text-anchor="middle" x="163" y="-837.5" font-family="Helvetica,sans-Serif" font-size="10.00"> </text>
<polyline fill="none" stroke="black" points="97.5,-830.5 228.5,-830.5 "/>
<text text-anchor="start" x="105.5" y="-818.5" font-family="Helvetica,sans-Serif" font-size="10.00">+ NamedObject()</text>
<text text-anchor="start" x="105.5" y="-807.5" font-family="Helvetica,sans-Serif" font-size="10.00">+ NamedObject()</text>
<text text-anchor="start" x="105.5" y="-796.5" font-family="Helvetica,sans-Serif" font-size="10.00">+ NamedObject()</text>
<text text-anchor="start" x="105.5" y="-785.5" font-family="Helvetica,sans-Serif" font-size="10.00">+ NamedObject()</text>
<text text-anchor="start" x="105.5" y="-774.5" font-family="Helvetica,sans-Serif" font-size="10.00">+ operator=()</text>
<text text-anchor="start" x="105.5" y="-763.5" font-family="Helvetica,sans-Serif" font-size="10.00">+ operator=()</text>
<text text-anchor="start" x="105.5" y="-752.5" font-family="Helvetica,sans-Serif" font-size="10.00">+ name()</text>
<text text-anchor="start" x="105.5" y="-741.5" font-family="Helvetica,sans-Serif" font-size="10.00">+ setName()</text>
<text text-anchor="start" x="105.5" y="-730.5" font-family="Helvetica,sans-Serif" font-size="10.00">+ setName()</text>
<text text-anchor="start" x="105.5" y="-719.5" font-family="Helvetica,sans-Serif" font-size="10.00">+ ~NamedObject()</text>
</a>
</g>
</g>
<!-- Node6&#45;&gt;Node5 -->
<g id="edge5" class="edge">
<title>Node6&#45;&gt;Node5</title>
<path fill="none" stroke="midnightblue" d="M167.64,-702C168.39,-687.83 169.16,-673.24 169.9,-659.33"/>
<polygon fill="none" stroke="midnightblue" points="164.13,-702.06 167.1,-712.23 171.12,-702.43 164.13,-702.06"/>
</g>
<!-- Node7 -->
<g id="node7" class="node">
<title>Node7</title>
<g id="a_node7"><a target="_parent" xlink:href="../../../cieutils/docs/html/classcie_1_1utils_1_1observer_1_1Subject.html" xlink:title=" ">
<polygon fill="white" stroke="black" points="241.5,-497.5 241.5,-664.5 354.5,-664.5 354.5,-497.5 241.5,-497.5"/>
<text text-anchor="start" x="249.5" y="-652.5" font-family="Helvetica,sans-Serif" font-size="10.00">cie::utils::observer</text>
<text text-anchor="middle" x="298" y="-641.5" font-family="Helvetica,sans-Serif" font-size="10.00">::Subject</text>
<polyline fill="none" stroke="black" points="241.5,-634.5 354.5,-634.5 "/>
<text text-anchor="middle" x="298" y="-622.5" font-family="Helvetica,sans-Serif" font-size="10.00"> </text>
<polyline fill="none" stroke="black" points="241.5,-615.5 354.5,-615.5 "/>
<text text-anchor="start" x="249.5" y="-603.5" font-family="Helvetica,sans-Serif" font-size="10.00">+ Subject()</text>
<text text-anchor="start" x="249.5" y="-592.5" font-family="Helvetica,sans-Serif" font-size="10.00">+ Subject()</text>
<text text-anchor="start" x="249.5" y="-581.5" font-family="Helvetica,sans-Serif" font-size="10.00">+ operator=()</text>
<text text-anchor="start" x="249.5" y="-570.5" font-family="Helvetica,sans-Serif" font-size="10.00">+ ~Subject()</text>
<text text-anchor="start" x="249.5" y="-559.5" font-family="Helvetica,sans-Serif" font-size="10.00">+ notifyObservers()</text>
<text text-anchor="start" x="249.5" y="-548.5" font-family="Helvetica,sans-Serif" font-size="10.00">+ attachObserver()</text>
<text text-anchor="start" x="249.5" y="-537.5" font-family="Helvetica,sans-Serif" font-size="10.00">+ detachObserver()</text>
<text text-anchor="start" x="249.5" y="-526.5" font-family="Helvetica,sans-Serif" font-size="10.00">+ observerID()</text>
<text text-anchor="start" x="249.5" y="-515.5" font-family="Helvetica,sans-Serif" font-size="10.00">+ observers()</text>
<text text-anchor="start" x="249.5" y="-504.5" font-family="Helvetica,sans-Serif" font-size="10.00">+ as()</text>
</a>
</g>
</g>
<!-- Node7&#45;&gt;Node2 -->
<g id="edge6" class="edge">
<title>Node7&#45;&gt;Node2</title>
<path fill="none" stroke="midnightblue" d="M330.12,-487.52C334.37,-475.29 338.8,-462.54 343.26,-449.71"/>
<polygon fill="none" stroke="midnightblue" points="326.74,-486.6 326.76,-497.2 333.35,-488.9 326.74,-486.6"/>
</g>
<!-- Node8 -->
<g id="node8" class="node">
<title>Node8</title>
<g id="a_node8"><a xlink:title=" ">
<polygon fill="white" stroke="#bfbfbf" points="247,-762 247,-819 375,-819 375,-762 247,-762"/>
<text text-anchor="middle" x="311" y="-807" font-family="Helvetica,sans-Serif" font-size="10.00">vector&lt; ObserverPtr &gt;</text>
<polyline fill="none" stroke="#bfbfbf" points="247,-800 375,-800 "/>
<text text-anchor="middle" x="311" y="-788" font-family="Helvetica,sans-Serif" font-size="10.00"> </text>
<polyline fill="none" stroke="#bfbfbf" points="247,-781 375,-781 "/>
<text text-anchor="middle" x="311" y="-769" font-family="Helvetica,sans-Serif" font-size="10.00"> </text>
</a>
</g>
</g>
<!-- Node8&#45;&gt;Node7 -->
<g id="edge7" class="edge">
<title>Node8&#45;&gt;Node7</title>
<path fill="none" stroke="#404040" d="M309.27,-761.95C307.9,-740.05 305.9,-708.06 303.96,-677.1"/>
<polygon fill="none" stroke="#404040" points="303.94,-676.83 299.57,-671.09 303.19,-664.85 307.56,-670.59 303.94,-676.83"/>
<text text-anchor="middle" x="337.5" y="-686" font-family="Helvetica,sans-Serif" font-size="10.00"> #_observers</text>
</g>
<!-- Node9 -->
<g id="node9" class="node">
<title>Node9</title>
<g id="a_node9"><a xlink:title=" ">
<polygon fill="white" stroke="#bfbfbf" points="373,-552.5 373,-609.5 477,-609.5 477,-552.5 373,-552.5"/>
<text text-anchor="middle" x="425" y="-597.5" font-family="Helvetica,sans-Serif" font-size="10.00">pair&lt; Size, Size &gt;</text>
<polyline fill="none" stroke="#bfbfbf" points="373,-590.5 477,-590.5 "/>
<text text-anchor="middle" x="425" y="-578.5" font-family="Helvetica,sans-Serif" font-size="10.00"> </text>
<polyline fill="none" stroke="#bfbfbf" points="373,-571.5 477,-571.5 "/>
<text text-anchor="middle" x="425" y="-559.5" font-family="Helvetica,sans-Serif" font-size="10.00"> </text>
</a>
</g>
</g>
<!-- Node9&#45;&gt;Node2 -->
<g id="edge8" class="edge">
<title>Node9&#45;&gt;Node2</title>
<path fill="none" stroke="#404040" d="M421.76,-552.27C419.15,-530.04 415.28,-496.9 411.21,-462.1"/>
<polygon fill="none" stroke="#404040" points="411.15,-461.66 406.48,-456.16 409.76,-449.74 414.43,-455.23 411.15,-461.66"/>
<text text-anchor="middle" x="430.5" y="-471" font-family="Helvetica,sans-Serif" font-size="10.00"> #_size</text>
</g>
<!-- Node10 -->
<g id="node10" class="node">
<title>Node10</title>
<g id="a_node10"><a xlink:title=" ">
<polygon fill="white" stroke="#bfbfbf" points="495,-552.5 495,-609.5 533,-609.5 533,-552.5 495,-552.5"/>
<text text-anchor="middle" x="514" y="-597.5" font-family="Helvetica,sans-Serif" font-size="10.00">bool</text>
<polyline fill="none" stroke="#bfbfbf" points="495,-590.5 533,-590.5 "/>
<text text-anchor="middle" x="514" y="-578.5" font-family="Helvetica,sans-Serif" font-size="10.00"> </text>
<polyline fill="none" stroke="#bfbfbf" points="495,-571.5 533,-571.5 "/>
<text text-anchor="middle" x="514" y="-559.5" font-family="Helvetica,sans-Serif" font-size="10.00"> </text>
</a>
</g>
</g>
<!-- Node10&#45;&gt;Node2 -->
<g id="edge9" class="edge">
<title>Node10&#45;&gt;Node2</title>
<path fill="none" stroke="#404040" d="M505.67,-552.38C500.51,-536.08 493.45,-515.15 486,-497 481.13,-485.14 475.86,-472.98 470.39,-460.82"/>
<polygon fill="none" stroke="#404040" points="470.29,-460.59 464.17,-456.78 465.32,-449.67 471.45,-453.47 470.29,-460.59"/>
<text text-anchor="middle" x="525.5" y="-471" font-family="Helvetica,sans-Serif" font-size="10.00"> #_continueLooping</text>
</g>
<!-- Node11 -->
<g id="node11" class="node">
<title>Node11</title>
<g id="a_node11"><a xlink:title=" ">
<polygon fill="white" stroke="#bfbfbf" points="570.5,-552.5 570.5,-609.5 667.5,-609.5 667.5,-552.5 570.5,-552.5"/>
<text text-anchor="middle" x="619" y="-597.5" font-family="Helvetica,sans-Serif" font-size="10.00">list&lt; ScenePtr &gt;</text>
<polyline fill="none" stroke="#bfbfbf" points="570.5,-590.5 667.5,-590.5 "/>
<text text-anchor="middle" x="619" y="-578.5" font-family="Helvetica,sans-Serif" font-size="10.00"> </text>
<polyline fill="none" stroke="#bfbfbf" points="570.5,-571.5 667.5,-571.5 "/>
<text text-anchor="middle" x="619" y="-559.5" font-family="Helvetica,sans-Serif" font-size="10.00"> </text>
</a>
</g>
</g>
<!-- Node11&#45;&gt;Node2 -->
<g id="edge10" class="edge">
<title>Node11&#45;&gt;Node2</title>
<path fill="none" stroke="#404040" d="M613.02,-552.41C606.94,-528.56 595.82,-493.94 578,-468 555.03,-434.56 523.57,-403.67 493.11,-378.05"/>
<polygon fill="none" stroke="#404040" points="492.95,-377.92 485.78,-377.18 483.7,-370.27 490.88,-371.01 492.95,-377.92"/>
<text text-anchor="middle" x="609.5" y="-471" font-family="Helvetica,sans-Serif" font-size="10.00"> #_scenes</text>
</g>
</g>
</svg>
