<?xml version="1.0" encoding="UTF-8" standalone="no"?>
<!DOCTYPE svg PUBLIC "-//W3C//DTD SVG 1.1//EN"
 "http://www.w3.org/Graphics/SVG/1.1/DTD/svg11.dtd">
<!-- Generated by graphviz version 2.43.0 (0)
 -->
<!-- Title: modules.lighting.simplelight.SimpleLight Pages: 1 -->
<svg width="167pt" height="215pt"
 viewBox="0.00 0.00 167.00 215.00" xmlns="http://www.w3.org/2000/svg" xmlns:xlink="http://www.w3.org/1999/xlink">
<g id="graph0" class="graph" transform="scale(1 1) rotate(0) translate(4 211)">
<title>modules.lighting.simplelight.SimpleLight</title>
<polygon fill="white" stroke="transparent" points="-4,4 -4,-211 163,-211 163,4 -4,4"/>
<!-- Node1 -->
<g id="node1" class="node">
<title>Node1</title>
<g id="a_node1"><a xlink:title=" ">
<polygon fill="#bfbfbf" stroke="black" points="0,-116.5 0,-206.5 159,-206.5 159,-116.5 0,-116.5"/>
<text text-anchor="start" x="8" y="-194.5" font-family="Helvetica,sans-Serif" font-size="10.00">modules.lighting.simplelight.</text>
<text text-anchor="middle" x="79.5" y="-183.5" font-family="Helvetica,sans-Serif" font-size="10.00">SimpleLight</text>
<polyline fill="none" stroke="black" points="0,-176.5 159,-176.5 "/>
<text text-anchor="middle" x="79.5" y="-164.5" font-family="Helvetica,sans-Serif" font-size="10.00"> </text>
<polyline fill="none" stroke="black" points="0,-157.5 159,-157.5 "/>
<text text-anchor="start" x="8" y="-145.5" font-family="Helvetica,sans-Serif" font-size="10.00">+ __init__()</text>
<text text-anchor="start" x="8" y="-134.5" font-family="Helvetica,sans-Serif" font-size="10.00">+ update()</text>
<text text-anchor="start" x="8" y="-123.5" font-family="Helvetica,sans-Serif" font-size="10.00">+ setParent()</text>
</a>
</g>
</g>
<!-- Node2 -->
<g id="node2" class="node">
<title>Node2</title>
<g id="a_node2"><a xlink:href="classmodules_1_1lighting_1_1timedlight_1_1TimedSpotLight.html" target="_top" xlink:title=" ">
<polygon fill="white" stroke="black" points="2,-0.5 2,-79.5 157,-79.5 157,-0.5 2,-0.5"/>
<text text-anchor="start" x="10" y="-67.5" font-family="Helvetica,sans-Serif" font-size="10.00">modules.lighting.timedlight.</text>
<text text-anchor="middle" x="79.5" y="-56.5" font-family="Helvetica,sans-Serif" font-size="10.00">TimedSpotLight</text>
<polyline fill="none" stroke="black" points="2,-49.5 157,-49.5 "/>
<text text-anchor="middle" x="79.5" y="-37.5" font-family="Helvetica,sans-Serif" font-size="10.00"> </text>
<polyline fill="none" stroke="black" points="2,-30.5 157,-30.5 "/>
<text text-anchor="start" x="10" y="-18.5" font-family="Helvetica,sans-Serif" font-size="10.00">+ __init__()</text>
<text text-anchor="start" x="10" y="-7.5" font-family="Helvetica,sans-Serif" font-size="10.00">+ on_timer()</text>
</a>
</g>
</g>
<!-- Node1&#45;&gt;Node2 -->
<g id="edge1" class="edge">
<title>Node1&#45;&gt;Node2</title>
<path fill="none" stroke="midnightblue" d="M79.5,-106.08C79.5,-97.23 79.5,-88.23 79.5,-79.86"/>
<polygon fill="none" stroke="midnightblue" points="76,-106.34 79.5,-116.34 83,-106.34 76,-106.34"/>
</g>
</g>
</svg>
