<?xml version="1.0" encoding="UTF-8" standalone="no"?>
<!DOCTYPE svg PUBLIC "-//W3C//DTD SVG 1.1//EN"
 "http://www.w3.org/Graphics/SVG/1.1/DTD/svg11.dtd">
<!-- Generated by graphviz version 2.43.0 (0)
 -->
<!-- Title: cie::gl::Shader::Uniform Pages: 1 -->
<svg width="659pt" height="524pt"
 viewBox="0.00 0.00 659.00 524.00" xmlns="http://www.w3.org/2000/svg" xmlns:xlink="http://www.w3.org/1999/xlink">
<g id="graph0" class="graph" transform="scale(1 1) rotate(0) translate(4 520)">
<title>cie::gl::Shader::Uniform</title>
<polygon fill="white" stroke="transparent" points="-4,4 -4,-520 655,-520 655,4 -4,4"/>
<!-- Node1 -->
<g id="node1" class="node">
<title>Node1</title>
<g id="a_node1"><a xlink:title="Immutable uniform descriptor (for any shader).">
<polygon fill="#bfbfbf" stroke="black" points="244,-232.5 244,-322.5 375,-322.5 375,-232.5 244,-232.5"/>
<text text-anchor="middle" x="309.5" y="-310.5" font-family="Helvetica,sans-Serif" font-size="10.00">cie::gl::Shader::Uniform</text>
<polyline fill="none" stroke="black" points="244,-303.5 375,-303.5 "/>
<text text-anchor="start" x="252" y="-291.5" font-family="Helvetica,sans-Serif" font-size="10.00"># _size</text>
<text text-anchor="start" x="252" y="-280.5" font-family="Helvetica,sans-Serif" font-size="10.00"># _type</text>
<polyline fill="none" stroke="black" points="244,-273.5 375,-273.5 "/>
<text text-anchor="start" x="252" y="-261.5" font-family="Helvetica,sans-Serif" font-size="10.00">+ Uniform()</text>
<text text-anchor="start" x="252" y="-250.5" font-family="Helvetica,sans-Serif" font-size="10.00">+ size()</text>
<text text-anchor="start" x="252" y="-239.5" font-family="Helvetica,sans-Serif" font-size="10.00">+ type()</text>
</a>
</g>
</g>
<!-- Node3 -->
<g id="node3" class="node">
<title>Node3</title>
<g id="a_node3"><a xlink:href="classcie_1_1gl_1_1GLUniform.html" target="_top" xlink:title="Interface for loading uniforms into GL.">
<polygon fill="white" stroke="black" points="257.5,-116.5 257.5,-195.5 361.5,-195.5 361.5,-116.5 257.5,-116.5"/>
<text text-anchor="middle" x="309.5" y="-183.5" font-family="Helvetica,sans-Serif" font-size="10.00">cie::gl::GLUniform</text>
<polyline fill="none" stroke="black" points="257.5,-176.5 361.5,-176.5 "/>
<text text-anchor="start" x="265.5" y="-164.5" font-family="Helvetica,sans-Serif" font-size="10.00"># _properties</text>
<polyline fill="none" stroke="black" points="257.5,-157.5 361.5,-157.5 "/>
<text text-anchor="start" x="265.5" y="-145.5" font-family="Helvetica,sans-Serif" font-size="10.00">+ GLUniform()</text>
<text text-anchor="start" x="265.5" y="-134.5" font-family="Helvetica,sans-Serif" font-size="10.00">+ write()</text>
<text text-anchor="start" x="265.5" y="-123.5" font-family="Helvetica,sans-Serif" font-size="10.00">+ properties()</text>
</a>
</g>
</g>
<!-- Node1&#45;&gt;Node3 -->
<g id="edge2" class="edge">
<title>Node1&#45;&gt;Node3</title>
<path fill="none" stroke="midnightblue" d="M309.5,-222.08C309.5,-213.23 309.5,-204.23 309.5,-195.86"/>
<polygon fill="none" stroke="midnightblue" points="306,-222.34 309.5,-232.34 313,-222.34 306,-222.34"/>
</g>
<!-- Node2 -->
<g id="node2" class="node">
<title>Node2</title>
<g id="a_node2"><a target="_parent" xlink:href="../../../cieutils/docs/html/classcie_1_1utils_1_1NamedObject.html" xlink:title=" ">
<polygon fill="white" stroke="black" points="244,-359.5 244,-515.5 375,-515.5 375,-359.5 244,-359.5"/>
<text text-anchor="middle" x="309.5" y="-503.5" font-family="Helvetica,sans-Serif" font-size="10.00">cie::utils::NamedObject</text>
<polyline fill="none" stroke="black" points="244,-496.5 375,-496.5 "/>
<text text-anchor="middle" x="309.5" y="-484.5" font-family="Helvetica,sans-Serif" font-size="10.00"> </text>
<polyline fill="none" stroke="black" points="244,-477.5 375,-477.5 "/>
<text text-anchor="start" x="252" y="-465.5" font-family="Helvetica,sans-Serif" font-size="10.00">+ NamedObject()</text>
<text text-anchor="start" x="252" y="-454.5" font-family="Helvetica,sans-Serif" font-size="10.00">+ NamedObject()</text>
<text text-anchor="start" x="252" y="-443.5" font-family="Helvetica,sans-Serif" font-size="10.00">+ NamedObject()</text>
<text text-anchor="start" x="252" y="-432.5" font-family="Helvetica,sans-Serif" font-size="10.00">+ NamedObject()</text>
<text text-anchor="start" x="252" y="-421.5" font-family="Helvetica,sans-Serif" font-size="10.00">+ operator=()</text>
<text text-anchor="start" x="252" y="-410.5" font-family="Helvetica,sans-Serif" font-size="10.00">+ operator=()</text>
<text text-anchor="start" x="252" y="-399.5" font-family="Helvetica,sans-Serif" font-size="10.00">+ name()</text>
<text text-anchor="start" x="252" y="-388.5" font-family="Helvetica,sans-Serif" font-size="10.00">+ setName()</text>
<text text-anchor="start" x="252" y="-377.5" font-family="Helvetica,sans-Serif" font-size="10.00">+ setName()</text>
<text text-anchor="start" x="252" y="-366.5" font-family="Helvetica,sans-Serif" font-size="10.00">+ ~NamedObject()</text>
</a>
</g>
</g>
<!-- Node2&#45;&gt;Node1 -->
<g id="edge1" class="edge">
<title>Node2&#45;&gt;Node1</title>
<path fill="none" stroke="midnightblue" d="M309.5,-349.08C309.5,-340.02 309.5,-331.11 309.5,-322.83"/>
<polygon fill="none" stroke="midnightblue" points="306,-349.35 309.5,-359.35 313,-349.35 306,-349.35"/>
</g>
<!-- Node4 -->
<g id="node4" class="node">
<title>Node4</title>
<g id="a_node4"><a xlink:href="classcie_1_1gl_1_1FloatGLUniform.html" target="_top" xlink:title=" ">
<polygon fill="white" stroke="black" points="0,-6 0,-74 129,-74 129,-6 0,-6"/>
<text text-anchor="middle" x="64.5" y="-62" font-family="Helvetica,sans-Serif" font-size="10.00">cie::gl::FloatGLUniform</text>
<polyline fill="none" stroke="black" points="0,-55 129,-55 "/>
<text text-anchor="middle" x="64.5" y="-43" font-family="Helvetica,sans-Serif" font-size="10.00"> </text>
<polyline fill="none" stroke="black" points="0,-36 129,-36 "/>
<text text-anchor="start" x="8" y="-24" font-family="Helvetica,sans-Serif" font-size="10.00">+ FloatGLUniform()</text>
<text text-anchor="start" x="8" y="-13" font-family="Helvetica,sans-Serif" font-size="10.00">+ write()</text>
</a>
</g>
</g>
<!-- Node3&#45;&gt;Node4 -->
<g id="edge3" class="edge">
<title>Node3&#45;&gt;Node4</title>
<path fill="none" stroke="midnightblue" d="M247.97,-129.28C215.21,-115.27 174.38,-97.3 138.5,-80 134.58,-78.11 130.55,-76.12 126.51,-74.1"/>
<polygon fill="none" stroke="midnightblue" points="246.86,-132.61 257.43,-133.31 249.6,-126.17 246.86,-132.61"/>
</g>
<!-- Node5 -->
<g id="node5" class="node">
<title>Node5</title>
<g id="a_node5"><a xlink:href="classcie_1_1gl_1_1FloatMat4GLUniform.html" target="_top" xlink:title=" ">
<polygon fill="white" stroke="black" points="147.5,-6 147.5,-74 301.5,-74 301.5,-6 147.5,-6"/>
<text text-anchor="middle" x="224.5" y="-62" font-family="Helvetica,sans-Serif" font-size="10.00">cie::gl::FloatMat4GLUniform</text>
<polyline fill="none" stroke="black" points="147.5,-55 301.5,-55 "/>
<text text-anchor="middle" x="224.5" y="-43" font-family="Helvetica,sans-Serif" font-size="10.00"> </text>
<polyline fill="none" stroke="black" points="147.5,-36 301.5,-36 "/>
<text text-anchor="start" x="155.5" y="-24" font-family="Helvetica,sans-Serif" font-size="10.00">+ FloatMat4GLUniform()</text>
<text text-anchor="start" x="155.5" y="-13" font-family="Helvetica,sans-Serif" font-size="10.00">+ write()</text>
</a>
</g>
</g>
<!-- Node3&#45;&gt;Node5 -->
<g id="edge4" class="edge">
<title>Node3&#45;&gt;Node5</title>
<path fill="none" stroke="midnightblue" d="M274.63,-108.23C266.12,-96.82 257.19,-84.85 249.27,-74.22"/>
<polygon fill="none" stroke="midnightblue" points="271.94,-110.48 280.72,-116.4 277.55,-106.3 271.94,-110.48"/>
</g>
<!-- Node6 -->
<g id="node6" class="node">
<title>Node6</title>
<g id="a_node6"><a xlink:href="classcie_1_1gl_1_1FloatVec3GLUniform.html" target="_top" xlink:title=" ">
<polygon fill="white" stroke="black" points="319.5,-0.5 319.5,-79.5 471.5,-79.5 471.5,-0.5 319.5,-0.5"/>
<text text-anchor="start" x="327.5" y="-67.5" font-family="Helvetica,sans-Serif" font-size="10.00">cie::gl::FloatVec3GLUniform</text>
<text text-anchor="middle" x="395.5" y="-56.5" font-family="Helvetica,sans-Serif" font-size="10.00">&lt; BoundType &gt;</text>
<polyline fill="none" stroke="black" points="319.5,-49.5 471.5,-49.5 "/>
<text text-anchor="middle" x="395.5" y="-37.5" font-family="Helvetica,sans-Serif" font-size="10.00"> </text>
<polyline fill="none" stroke="black" points="319.5,-30.5 471.5,-30.5 "/>
<text text-anchor="start" x="327.5" y="-18.5" font-family="Helvetica,sans-Serif" font-size="10.00">+ FloatVec3GLUniform()</text>
<text text-anchor="start" x="327.5" y="-7.5" font-family="Helvetica,sans-Serif" font-size="10.00">+ write()</text>
</a>
</g>
</g>
<!-- Node3&#45;&gt;Node6 -->
<g id="edge5" class="edge">
<title>Node3&#45;&gt;Node6</title>
<path fill="none" stroke="midnightblue" d="M344.83,-108.17C352.01,-98.65 359.48,-88.75 366.41,-79.56"/>
<polygon fill="none" stroke="midnightblue" points="341.84,-106.31 338.62,-116.4 347.43,-110.53 341.84,-106.31"/>
</g>
<!-- Node7 -->
<g id="node7" class="node">
<title>Node7</title>
<g id="a_node7"><a xlink:href="classcie_1_1gl_1_1GLUniformPlaceholder.html" target="_top" xlink:title=" ">
<polygon fill="white" stroke="black" points="490,-6 490,-74 651,-74 651,-6 490,-6"/>
<text text-anchor="middle" x="570.5" y="-62" font-family="Helvetica,sans-Serif" font-size="10.00">cie::gl::GLUniformPlaceholder</text>
<polyline fill="none" stroke="black" points="490,-55 651,-55 "/>
<text text-anchor="middle" x="570.5" y="-43" font-family="Helvetica,sans-Serif" font-size="10.00"> </text>
<polyline fill="none" stroke="black" points="490,-36 651,-36 "/>
<text text-anchor="start" x="498" y="-24" font-family="Helvetica,sans-Serif" font-size="10.00">+ GLUniformPlaceholder()</text>
<text text-anchor="start" x="498" y="-13" font-family="Helvetica,sans-Serif" font-size="10.00">+ write()</text>
</a>
</g>
</g>
<!-- Node3&#45;&gt;Node7 -->
<g id="edge6" class="edge">
<title>Node3&#45;&gt;Node7</title>
<path fill="none" stroke="midnightblue" d="M370.86,-128.2C407.87,-112.03 455.31,-91.31 494.66,-74.13"/>
<polygon fill="none" stroke="midnightblue" points="369.45,-124.99 361.69,-132.2 372.25,-131.41 369.45,-124.99"/>
</g>
</g>
</svg>
