<?xml version="1.0" encoding="UTF-8" standalone="no"?>
<!DOCTYPE svg PUBLIC "-//W3C//DTD SVG 1.1//EN"
 "http://www.w3.org/Graphics/SVG/1.1/DTD/svg11.dtd">
<!-- Generated by graphviz version 2.43.0 (0)
 -->
<!-- Title: cie::gl::Triangulated3DPart Pages: 1 -->
<svg width="321pt" height="475pt"
 viewBox="0.00 0.00 321.00 475.00" xmlns="http://www.w3.org/2000/svg" xmlns:xlink="http://www.w3.org/1999/xlink">
<g id="graph0" class="graph" transform="scale(1 1) rotate(0) translate(4 471)">
<title>cie::gl::Triangulated3DPart</title>
<polygon fill="white" stroke="transparent" points="-4,4 -4,-471 317,-471 317,4 -4,4"/>
<!-- Node1 -->
<g id="node1" class="node">
<title>Node1</title>
<g id="a_node1"><a xlink:title=" ">
<polygon fill="#bfbfbf" stroke="black" points="84,-0.5 84,-90.5 228,-90.5 228,-0.5 84,-0.5"/>
<text text-anchor="middle" x="156" y="-78.5" font-family="Helvetica,sans-Serif" font-size="10.00">cie::gl::Triangulated3DPart</text>
<polyline fill="none" stroke="black" points="84,-71.5 228,-71.5 "/>
<text text-anchor="middle" x="156" y="-59.5" font-family="Helvetica,sans-Serif" font-size="10.00"> </text>
<polyline fill="none" stroke="black" points="84,-52.5 228,-52.5 "/>
<text text-anchor="start" x="92" y="-40.5" font-family="Helvetica,sans-Serif" font-size="10.00">+ dimension()</text>
<text text-anchor="start" x="92" y="-29.5" font-family="Helvetica,sans-Serif" font-size="10.00">+ vertexAttributeSize()</text>
<text text-anchor="start" x="92" y="-18.5" font-family="Helvetica,sans-Serif" font-size="10.00">+ primitiveVertexSize()</text>
<text text-anchor="start" x="92" y="-7.5" font-family="Helvetica,sans-Serif" font-size="10.00">+ writeSTL()</text>
</a>
</g>
</g>
<!-- Node2 -->
<g id="node2" class="node">
<title>Node2</title>
<g id="a_node2"><a xlink:href="classcie_1_1gl_1_1Part.html" target="_top" xlink:title=" ">
<polygon fill="white" stroke="black" points="84.5,-128.5 84.5,-361.5 227.5,-361.5 227.5,-128.5 84.5,-128.5"/>
<text text-anchor="middle" x="156" y="-349.5" font-family="Helvetica,sans-Serif" font-size="10.00">cie::gl::Part</text>
<polyline fill="none" stroke="black" points="84.5,-342.5 227.5,-342.5 "/>
<text text-anchor="middle" x="156" y="-330.5" font-family="Helvetica,sans-Serif" font-size="10.00"> </text>
<polyline fill="none" stroke="black" points="84.5,-323.5 227.5,-323.5 "/>
<text text-anchor="start" x="92.5" y="-311.5" font-family="Helvetica,sans-Serif" font-size="10.00">+ Part()</text>
<text text-anchor="start" x="92.5" y="-300.5" font-family="Helvetica,sans-Serif" font-size="10.00">+ attributeByteCount()</text>
<text text-anchor="start" x="92.5" y="-289.5" font-family="Helvetica,sans-Serif" font-size="10.00">+ indexByteCount()</text>
<text text-anchor="start" x="92.5" y="-278.5" font-family="Helvetica,sans-Serif" font-size="10.00">+ numberOfVertices()</text>
<text text-anchor="start" x="92.5" y="-267.5" font-family="Helvetica,sans-Serif" font-size="10.00">+ numberOfPrimitives()</text>
<text text-anchor="start" x="92.5" y="-256.5" font-family="Helvetica,sans-Serif" font-size="10.00">+ load()</text>
<text text-anchor="start" x="92.5" y="-245.5" font-family="Helvetica,sans-Serif" font-size="10.00">+ attributes()</text>
<text text-anchor="start" x="92.5" y="-234.5" font-family="Helvetica,sans-Serif" font-size="10.00">+ indices()</text>
<text text-anchor="start" x="92.5" y="-223.5" font-family="Helvetica,sans-Serif" font-size="10.00">+ dimension()</text>
<text text-anchor="start" x="92.5" y="-212.5" font-family="Helvetica,sans-Serif" font-size="10.00">+ vertexAttributeSize()</text>
<text text-anchor="start" x="92.5" y="-201.5" font-family="Helvetica,sans-Serif" font-size="10.00">+ primitiveVertexSize()</text>
<text text-anchor="start" x="92.5" y="-190.5" font-family="Helvetica,sans-Serif" font-size="10.00">+ primitiveAttributeSize()</text>
<text text-anchor="start" x="92.5" y="-179.5" font-family="Helvetica,sans-Serif" font-size="10.00">+ primitiveByteSize()</text>
<text text-anchor="start" x="92.5" y="-168.5" font-family="Helvetica,sans-Serif" font-size="10.00">+ writeSTL()</text>
<text text-anchor="start" x="92.5" y="-157.5" font-family="Helvetica,sans-Serif" font-size="10.00"># Part()</text>
<text text-anchor="start" x="92.5" y="-146.5" font-family="Helvetica,sans-Serif" font-size="10.00"># Part()</text>
<text text-anchor="start" x="92.5" y="-135.5" font-family="Helvetica,sans-Serif" font-size="10.00"># operator=()</text>
</a>
</g>
</g>
<!-- Node2&#45;&gt;Node1 -->
<g id="edge1" class="edge">
<title>Node2&#45;&gt;Node1</title>
<path fill="none" stroke="midnightblue" d="M156,-118.07C156,-108.41 156,-99.12 156,-90.63"/>
<polygon fill="none" stroke="midnightblue" points="152.5,-118.26 156,-128.26 159.5,-118.26 152.5,-118.26"/>
</g>
<!-- Node3 -->
<g id="node3" class="node">
<title>Node3</title>
<g id="a_node3"><a xlink:href="structcie_1_1gl_1_1GLTraits.html" target="_top" xlink:title=" ">
<polygon fill="white" stroke="black" points="0,-409.5 0,-466.5 90,-466.5 90,-409.5 0,-409.5"/>
<text text-anchor="middle" x="45" y="-454.5" font-family="Helvetica,sans-Serif" font-size="10.00">cie::gl::GLTraits</text>
<polyline fill="none" stroke="black" points="0,-447.5 90,-447.5 "/>
<text text-anchor="middle" x="45" y="-435.5" font-family="Helvetica,sans-Serif" font-size="10.00"> </text>
<polyline fill="none" stroke="black" points="0,-428.5 90,-428.5 "/>
<text text-anchor="middle" x="45" y="-416.5" font-family="Helvetica,sans-Serif" font-size="10.00"> </text>
</a>
</g>
</g>
<!-- Node3&#45;&gt;Node2 -->
<g id="edge2" class="edge">
<title>Node3&#45;&gt;Node2</title>
<path fill="none" stroke="midnightblue" d="M66.23,-400.47C72.89,-389.01 80.62,-375.7 88.71,-361.79"/>
<polygon fill="none" stroke="midnightblue" points="63.14,-398.82 61.14,-409.23 69.19,-402.34 63.14,-398.82"/>
</g>
<!-- Node4 -->
<g id="node4" class="node">
<title>Node4</title>
<g id="a_node4"><a xlink:title=" ">
<polygon fill="white" stroke="#bfbfbf" points="108.5,-409.5 108.5,-466.5 203.5,-466.5 203.5,-409.5 108.5,-409.5"/>
<text text-anchor="middle" x="156" y="-454.5" font-family="Helvetica,sans-Serif" font-size="10.00">index_container</text>
<polyline fill="none" stroke="#bfbfbf" points="108.5,-447.5 203.5,-447.5 "/>
<text text-anchor="middle" x="156" y="-435.5" font-family="Helvetica,sans-Serif" font-size="10.00"> </text>
<polyline fill="none" stroke="#bfbfbf" points="108.5,-428.5 203.5,-428.5 "/>
<text text-anchor="middle" x="156" y="-416.5" font-family="Helvetica,sans-Serif" font-size="10.00"> </text>
</a>
</g>
</g>
<!-- Node4&#45;&gt;Node2 -->
<g id="edge3" class="edge">
<title>Node4&#45;&gt;Node2</title>
<path fill="none" stroke="#404040" d="M156,-409.23C156,-399.17 156,-387.04 156,-374"/>
<polygon fill="none" stroke="#404040" points="156,-373.79 152,-367.79 156,-361.79 160,-367.79 156,-373.79"/>
<text text-anchor="middle" x="182" y="-383" font-family="Helvetica,sans-Serif" font-size="10.00"> #_indices</text>
</g>
<!-- Node5 -->
<g id="node5" class="node">
<title>Node5</title>
<g id="a_node5"><a xlink:title=" ">
<polygon fill="white" stroke="#bfbfbf" points="221.5,-409.5 221.5,-466.5 306.5,-466.5 306.5,-409.5 221.5,-409.5"/>
<text text-anchor="middle" x="264" y="-454.5" font-family="Helvetica,sans-Serif" font-size="10.00">SharedPointer</text>
<polyline fill="none" stroke="#bfbfbf" points="221.5,-447.5 306.5,-447.5 "/>
<text text-anchor="middle" x="264" y="-435.5" font-family="Helvetica,sans-Serif" font-size="10.00"> </text>
<polyline fill="none" stroke="#bfbfbf" points="221.5,-428.5 306.5,-428.5 "/>
<text text-anchor="middle" x="264" y="-416.5" font-family="Helvetica,sans-Serif" font-size="10.00"> </text>
</a>
</g>
</g>
<!-- Node5&#45;&gt;Node2 -->
<g id="edge4" class="edge">
<title>Node5&#45;&gt;Node2</title>
<path fill="none" stroke="#404040" d="M248.3,-409.23C242.38,-398.76 235.19,-386.05 227.47,-372.39"/>
<polygon fill="none" stroke="#404040" points="227.38,-372.24 220.94,-368.98 221.47,-361.79 227.91,-365.05 227.38,-372.24"/>
<text text-anchor="middle" x="275" y="-383" font-family="Helvetica,sans-Serif" font-size="10.00"> #_p_attributes</text>
</g>
</g>
</svg>
