<?xml version="1.0" encoding="UTF-8" standalone="no"?>
<!DOCTYPE svg PUBLIC "-//W3C//DTD SVG 1.1//EN"
 "http://www.w3.org/Graphics/SVG/1.1/DTD/svg11.dtd">
<!-- Generated by graphviz version 2.43.0 (0)
 -->
<!-- Title: cie::gl::MappedCameraControls Pages: 1 -->
<svg width="808pt" height="734pt"
 viewBox="0.00 0.00 807.50 734.00" xmlns="http://www.w3.org/2000/svg" xmlns:xlink="http://www.w3.org/1999/xlink">
<g id="graph0" class="graph" transform="scale(1 1) rotate(0) translate(4 730)">
<title>cie::gl::MappedCameraControls</title>
<polygon fill="white" stroke="transparent" points="-4,4 -4,-730 803.5,-730 803.5,4 -4,4"/>
<!-- Node1 -->
<g id="node1" class="node">
<title>Node1</title>
<g id="a_node1"><a xlink:title=" ">
<polygon fill="#bfbfbf" stroke="black" points="323,-0.5 323,-68.5 493,-68.5 493,-0.5 323,-0.5"/>
<text text-anchor="middle" x="408" y="-56.5" font-family="Helvetica,sans-Serif" font-size="10.00">cie::gl::MappedCameraControls</text>
<polyline fill="none" stroke="black" points="323,-49.5 493,-49.5 "/>
<text text-anchor="middle" x="408" y="-37.5" font-family="Helvetica,sans-Serif" font-size="10.00"> </text>
<polyline fill="none" stroke="black" points="323,-30.5 493,-30.5 "/>
<text text-anchor="start" x="331" y="-18.5" font-family="Helvetica,sans-Serif" font-size="10.00">+ MappedCameraControls()</text>
<text text-anchor="start" x="331" y="-7.5" font-family="Helvetica,sans-Serif" font-size="10.00"># onSubjectChange()</text>
</a>
</g>
</g>
<!-- Node2 -->
<g id="node2" class="node">
<title>Node2</title>
<g id="a_node2"><a xlink:href="classcie_1_1gl_1_1AbsCameraControls.html" target="_top" xlink:title=" ">
<polygon fill="white" stroke="black" points="249.5,-106.5 249.5,-372.5 400.5,-372.5 400.5,-106.5 249.5,-106.5"/>
<text text-anchor="middle" x="325" y="-360.5" font-family="Helvetica,sans-Serif" font-size="10.00">cie::gl::AbsCameraControls</text>
<polyline fill="none" stroke="black" points="249.5,-353.5 400.5,-353.5 "/>
<text text-anchor="middle" x="325" y="-341.5" font-family="Helvetica,sans-Serif" font-size="10.00"> </text>
<polyline fill="none" stroke="black" points="249.5,-334.5 400.5,-334.5 "/>
<text text-anchor="start" x="257.5" y="-322.5" font-family="Helvetica,sans-Serif" font-size="10.00">+ AbsCameraControls()</text>
<text text-anchor="start" x="257.5" y="-311.5" font-family="Helvetica,sans-Serif" font-size="10.00">+ mouseButtonCallback()</text>
<text text-anchor="start" x="257.5" y="-300.5" font-family="Helvetica,sans-Serif" font-size="10.00">+ cursorPositionCallback()</text>
<text text-anchor="start" x="257.5" y="-289.5" font-family="Helvetica,sans-Serif" font-size="10.00">+ cursorEnterCallback()</text>
<text text-anchor="start" x="257.5" y="-278.5" font-family="Helvetica,sans-Serif" font-size="10.00">+ scrollCallback()</text>
<text text-anchor="start" x="257.5" y="-267.5" font-family="Helvetica,sans-Serif" font-size="10.00">+ keyboardCallback()</text>
<text text-anchor="start" x="257.5" y="-256.5" font-family="Helvetica,sans-Serif" font-size="10.00">+ bind()</text>
<text text-anchor="start" x="257.5" y="-245.5" font-family="Helvetica,sans-Serif" font-size="10.00"># onMouseButtonPress()</text>
<text text-anchor="start" x="257.5" y="-234.5" font-family="Helvetica,sans-Serif" font-size="10.00"># onMouseButtonHold()</text>
<text text-anchor="start" x="257.5" y="-223.5" font-family="Helvetica,sans-Serif" font-size="10.00"># onMouseButtonRelease()</text>
<text text-anchor="start" x="257.5" y="-212.5" font-family="Helvetica,sans-Serif" font-size="10.00"># onCursorMovement()</text>
<text text-anchor="start" x="257.5" y="-201.5" font-family="Helvetica,sans-Serif" font-size="10.00"># onCursorEnter()</text>
<text text-anchor="start" x="257.5" y="-190.5" font-family="Helvetica,sans-Serif" font-size="10.00"># onCursorLeave()</text>
<text text-anchor="start" x="257.5" y="-179.5" font-family="Helvetica,sans-Serif" font-size="10.00"># onHorizontalScroll()</text>
<text text-anchor="start" x="257.5" y="-168.5" font-family="Helvetica,sans-Serif" font-size="10.00"># onVerticalScroll()</text>
<text text-anchor="start" x="257.5" y="-157.5" font-family="Helvetica,sans-Serif" font-size="10.00"># onKeyboardPress()</text>
<text text-anchor="start" x="257.5" y="-146.5" font-family="Helvetica,sans-Serif" font-size="10.00"># onKeyboardHold()</text>
<text text-anchor="start" x="257.5" y="-135.5" font-family="Helvetica,sans-Serif" font-size="10.00"># onKeyboardRelease()</text>
<text text-anchor="start" x="257.5" y="-124.5" font-family="Helvetica,sans-Serif" font-size="10.00"># onSubjectChange()</text>
<text text-anchor="start" x="257.5" y="-113.5" font-family="Helvetica,sans-Serif" font-size="10.00"># getWindow()</text>
</a>
</g>
</g>
<!-- Node2&#45;&gt;Node1 -->
<g id="edge1" class="edge">
<title>Node2&#45;&gt;Node1</title>
<path fill="none" stroke="midnightblue" d="M382.87,-96.96C387.04,-86.75 390.95,-77.19 394.39,-68.79"/>
<polygon fill="none" stroke="midnightblue" points="379.52,-95.92 378.97,-106.5 385.99,-98.57 379.52,-95.92"/>
</g>
<!-- Node3 -->
<g id="node3" class="node">
<title>Node3</title>
<g id="a_node3"><a target="_parent" xlink:href="../../../cieutils/docs/html/classcie_1_1utils_1_1observer_1_1Observer.html" xlink:title=" ">
<polygon fill="white" stroke="black" points="0,-431.5 0,-609.5 120,-609.5 120,-431.5 0,-431.5"/>
<text text-anchor="start" x="8" y="-597.5" font-family="Helvetica,sans-Serif" font-size="10.00">cie::utils::observer</text>
<text text-anchor="middle" x="60" y="-586.5" font-family="Helvetica,sans-Serif" font-size="10.00">::Observer</text>
<polyline fill="none" stroke="black" points="0,-579.5 120,-579.5 "/>
<text text-anchor="middle" x="60" y="-567.5" font-family="Helvetica,sans-Serif" font-size="10.00"> </text>
<polyline fill="none" stroke="black" points="0,-560.5 120,-560.5 "/>
<text text-anchor="start" x="8" y="-548.5" font-family="Helvetica,sans-Serif" font-size="10.00">+ Observer()</text>
<text text-anchor="start" x="8" y="-537.5" font-family="Helvetica,sans-Serif" font-size="10.00">+ Observer()</text>
<text text-anchor="start" x="8" y="-526.5" font-family="Helvetica,sans-Serif" font-size="10.00">+ Observer()</text>
<text text-anchor="start" x="8" y="-515.5" font-family="Helvetica,sans-Serif" font-size="10.00">+ operator=()</text>
<text text-anchor="start" x="8" y="-504.5" font-family="Helvetica,sans-Serif" font-size="10.00">+ ~Observer()</text>
<text text-anchor="start" x="8" y="-493.5" font-family="Helvetica,sans-Serif" font-size="10.00">+ onSubjectChange()</text>
<text text-anchor="start" x="8" y="-482.5" font-family="Helvetica,sans-Serif" font-size="10.00">+ detach()</text>
<text text-anchor="start" x="8" y="-471.5" font-family="Helvetica,sans-Serif" font-size="10.00">+ as()</text>
<text text-anchor="start" x="8" y="-460.5" font-family="Helvetica,sans-Serif" font-size="10.00">+ setSubject()</text>
<text text-anchor="start" x="8" y="-449.5" font-family="Helvetica,sans-Serif" font-size="10.00">+ subject()</text>
<text text-anchor="start" x="8" y="-438.5" font-family="Helvetica,sans-Serif" font-size="10.00">+ subject()</text>
</a>
</g>
</g>
<!-- Node3&#45;&gt;Node2 -->
<g id="edge2" class="edge">
<title>Node3&#45;&gt;Node2</title>
<path fill="none" stroke="midnightblue" d="M127.12,-433.11C127.75,-432.4 128.37,-431.7 129,-431 166.7,-388.96 211.7,-344.84 249.07,-309.66"/>
<polygon fill="none" stroke="midnightblue" points="124.31,-431.01 120.39,-440.85 129.59,-435.6 124.31,-431.01"/>
</g>
<!-- Node4 -->
<g id="node4" class="node">
<title>Node4</title>
<g id="a_node4"><a xlink:title=" ">
<polygon fill="white" stroke="#bfbfbf" points="0.5,-657.5 0.5,-725.5 119.5,-725.5 119.5,-657.5 0.5,-657.5"/>
<text text-anchor="start" x="8.5" y="-713.5" font-family="Helvetica,sans-Serif" font-size="10.00">weak_ptr&lt; cie::utils</text>
<text text-anchor="middle" x="60" y="-702.5" font-family="Helvetica,sans-Serif" font-size="10.00">::observer::Subject &gt;</text>
<polyline fill="none" stroke="#bfbfbf" points="0.5,-695.5 119.5,-695.5 "/>
<text text-anchor="middle" x="60" y="-683.5" font-family="Helvetica,sans-Serif" font-size="10.00"> </text>
<polyline fill="none" stroke="#bfbfbf" points="0.5,-676.5 119.5,-676.5 "/>
<text text-anchor="middle" x="60" y="-664.5" font-family="Helvetica,sans-Serif" font-size="10.00"> </text>
</a>
</g>
</g>
<!-- Node4&#45;&gt;Node3 -->
<g id="edge3" class="edge">
<title>Node4&#45;&gt;Node3</title>
<path fill="none" stroke="#404040" d="M60,-657.11C60,-646.69 60,-634.6 60,-622.02"/>
<polygon fill="none" stroke="#404040" points="60,-621.85 56,-615.85 60,-609.85 64,-615.85 60,-621.85"/>
<text text-anchor="middle" x="86" y="-631" font-family="Helvetica,sans-Serif" font-size="10.00"> #_subject</text>
</g>
<!-- Node5 -->
<g id="node5" class="node">
<title>Node5</title>
<g id="a_node5"><a xlink:title=" ">
<polygon fill="white" stroke="#bfbfbf" points="138,-492 138,-549 188,-549 188,-492 138,-492"/>
<text text-anchor="middle" x="163" y="-537" font-family="Helvetica,sans-Serif" font-size="10.00">double</text>
<polyline fill="none" stroke="#bfbfbf" points="138,-530 188,-530 "/>
<text text-anchor="middle" x="163" y="-518" font-family="Helvetica,sans-Serif" font-size="10.00"> </text>
<polyline fill="none" stroke="#bfbfbf" points="138,-511 188,-511 "/>
<text text-anchor="middle" x="163" y="-499" font-family="Helvetica,sans-Serif" font-size="10.00"> </text>
</a>
</g>
</g>
<!-- Node5&#45;&gt;Node2 -->
<g id="edge4" class="edge">
<title>Node5&#45;&gt;Node2</title>
<path fill="none" stroke="#404040" d="M171.88,-491.69C177.99,-473.9 186.83,-450.57 197,-431 210.32,-405.36 226.37,-378.97 242.52,-354.3"/>
<polygon fill="none" stroke="#404040" points="242.58,-354.21 242.55,-347 249.2,-344.2 249.22,-351.41 242.58,-354.21"/>
<text text-anchor="middle" x="230.5" y="-405" font-family="Helvetica,sans-Serif" font-size="10.00"> #_x</text>
<text text-anchor="middle" x="230.5" y="-394" font-family="Helvetica,sans-Serif" font-size="10.00">#_y</text>
</g>
<!-- Node6 -->
<g id="node6" class="node">
<title>Node6</title>
<g id="a_node6"><a xlink:title=" ">
<polygon fill="white" stroke="#bfbfbf" points="206,-492 206,-549 284,-549 284,-492 206,-492"/>
<text text-anchor="middle" x="245" y="-537" font-family="Helvetica,sans-Serif" font-size="10.00">WeakPointer</text>
<polyline fill="none" stroke="#bfbfbf" points="206,-530 284,-530 "/>
<text text-anchor="middle" x="245" y="-518" font-family="Helvetica,sans-Serif" font-size="10.00"> </text>
<polyline fill="none" stroke="#bfbfbf" points="206,-511 284,-511 "/>
<text text-anchor="middle" x="245" y="-499" font-family="Helvetica,sans-Serif" font-size="10.00"> </text>
</a>
</g>
</g>
<!-- Node6&#45;&gt;Node2 -->
<g id="edge5" class="edge">
<title>Node6&#45;&gt;Node2</title>
<path fill="none" stroke="#404040" d="M244.33,-491.96C244.35,-465.61 246.09,-424.98 255,-391 255.56,-388.85 256.16,-386.69 256.78,-384.52"/>
<polygon fill="none" stroke="#404040" points="256.83,-384.38 254.77,-377.47 260.35,-372.91 262.41,-379.82 256.83,-384.38"/>
<text text-anchor="middle" x="288" y="-399.5" font-family="Helvetica,sans-Serif" font-size="10.00"> #_p_window</text>
</g>
<!-- Node7 -->
<g id="node7" class="node">
<title>Node7</title>
<g id="a_node7"><a xlink:title=" ">
<polygon fill="white" stroke="#bfbfbf" points="310.5,-492 310.5,-549 339.5,-549 339.5,-492 310.5,-492"/>
<text text-anchor="middle" x="325" y="-537" font-family="Helvetica,sans-Serif" font-size="10.00">int</text>
<polyline fill="none" stroke="#bfbfbf" points="310.5,-530 339.5,-530 "/>
<text text-anchor="middle" x="325" y="-518" font-family="Helvetica,sans-Serif" font-size="10.00"> </text>
<polyline fill="none" stroke="#bfbfbf" points="310.5,-511 339.5,-511 "/>
<text text-anchor="middle" x="325" y="-499" font-family="Helvetica,sans-Serif" font-size="10.00"> </text>
</a>
</g>
</g>
<!-- Node7&#45;&gt;Node2 -->
<g id="edge6" class="edge">
<title>Node7&#45;&gt;Node2</title>
<path fill="none" stroke="#404040" d="M325,-491.98C325,-466.27 325,-425.78 325,-384.75"/>
<polygon fill="none" stroke="#404040" points="325,-384.59 321,-378.59 325,-372.59 329,-378.59 325,-384.59"/>
<text text-anchor="middle" x="360" y="-399.5" font-family="Helvetica,sans-Serif" font-size="10.00"> #_escapeKey</text>
</g>
<!-- Node8 -->
<g id="node8" class="node">
<title>Node8</title>
<g id="a_node8"><a xlink:title=" ">
<polygon fill="white" stroke="#bfbfbf" points="363,-492 363,-549 463,-549 463,-492 363,-492"/>
<text text-anchor="middle" x="413" y="-537" font-family="Helvetica,sans-Serif" font-size="10.00">set&lt; KeyEnum &gt;</text>
<polyline fill="none" stroke="#bfbfbf" points="363,-530 463,-530 "/>
<text text-anchor="middle" x="413" y="-518" font-family="Helvetica,sans-Serif" font-size="10.00"> </text>
<polyline fill="none" stroke="#bfbfbf" points="363,-511 463,-511 "/>
<text text-anchor="middle" x="413" y="-499" font-family="Helvetica,sans-Serif" font-size="10.00"> </text>
</a>
</g>
</g>
<!-- Node8&#45;&gt;Node2 -->
<g id="edge7" class="edge">
<title>Node8&#45;&gt;Node2</title>
<path fill="none" stroke="#404040" d="M411.81,-491.92C410.11,-465.55 405.97,-424.89 396,-391 395.33,-388.71 394.62,-386.42 393.89,-384.12"/>
<polygon fill="none" stroke="#404040" points="393.84,-383.95 388.14,-379.53 390.02,-372.57 395.72,-376.99 393.84,-383.95"/>
<text text-anchor="middle" x="437" y="-399.5" font-family="Helvetica,sans-Serif" font-size="10.00"> #_activeKeys</text>
</g>
<!-- Node9 -->
<g id="node9" class="node">
<title>Node9</title>
<g id="a_node9"><a xlink:title=" ">
<polygon fill="white" stroke="#bfbfbf" points="481.5,-492 481.5,-549 628.5,-549 628.5,-492 481.5,-492"/>
<text text-anchor="middle" x="555" y="-537" font-family="Helvetica,sans-Serif" font-size="10.00">shared_ptr&lt; AbsCamera &gt;</text>
<polyline fill="none" stroke="#bfbfbf" points="481.5,-530 628.5,-530 "/>
<text text-anchor="middle" x="555" y="-518" font-family="Helvetica,sans-Serif" font-size="10.00"> </text>
<polyline fill="none" stroke="#bfbfbf" points="481.5,-511 628.5,-511 "/>
<text text-anchor="middle" x="555" y="-499" font-family="Helvetica,sans-Serif" font-size="10.00"> </text>
</a>
</g>
</g>
<!-- Node9&#45;&gt;Node2 -->
<g id="edge8" class="edge">
<title>Node9&#45;&gt;Node2</title>
<path fill="none" stroke="#404040" d="M540.56,-491.95C525.9,-465.06 501.75,-423.56 476,-391 456.05,-365.77 432.24,-340.33 409.5,-317.73"/>
<polygon fill="none" stroke="#404040" points="409.4,-317.63 402.32,-316.27 400.84,-309.21 407.93,-310.57 409.4,-317.63"/>
<text text-anchor="middle" x="522.5" y="-399.5" font-family="Helvetica,sans-Serif" font-size="10.00"> #_p_camera</text>
</g>
<!-- Node10 -->
<g id="node10" class="node">
<title>Node10</title>
<g id="a_node10"><a xlink:href="classcie_1_1gl_1_1MappedControls.html" target="_top" xlink:title=" ">
<polygon fill="white" stroke="black" points="533.5,-189 533.5,-290 682.5,-290 682.5,-189 533.5,-189"/>
<text text-anchor="middle" x="608" y="-278" font-family="Helvetica,sans-Serif" font-size="10.00">cie::gl::MappedControls</text>
<polyline fill="none" stroke="black" points="533.5,-271 682.5,-271 "/>
<text text-anchor="middle" x="608" y="-259" font-family="Helvetica,sans-Serif" font-size="10.00"> </text>
<polyline fill="none" stroke="black" points="533.5,-252 682.5,-252 "/>
<text text-anchor="start" x="541.5" y="-240" font-family="Helvetica,sans-Serif" font-size="10.00">+ MappedControls()</text>
<text text-anchor="start" x="541.5" y="-229" font-family="Helvetica,sans-Serif" font-size="10.00">+ configure()</text>
<text text-anchor="start" x="541.5" y="-218" font-family="Helvetica,sans-Serif" font-size="10.00">+ configure()</text>
<text text-anchor="start" x="541.5" y="-207" font-family="Helvetica,sans-Serif" font-size="10.00">+ callControl()</text>
<text text-anchor="start" x="541.5" y="-196" font-family="Helvetica,sans-Serif" font-size="10.00"># makeConfigurationMap()</text>
</a>
</g>
</g>
<!-- Node10&#45;&gt;Node1 -->
<g id="edge9" class="edge">
<title>Node10&#45;&gt;Node1</title>
<path fill="none" stroke="midnightblue" d="M552.04,-181.7C516.2,-145.32 470.92,-99.36 440.79,-68.79"/>
<polygon fill="none" stroke="midnightblue" points="549.56,-184.17 559.07,-188.84 554.55,-179.26 549.56,-184.17"/>
</g>
<!-- Node11 -->
<g id="node11" class="node">
<title>Node11</title>
<g id="a_node11"><a xlink:title=" ">
<polygon fill="white" stroke="#bfbfbf" points="646.5,-486.5 646.5,-554.5 799.5,-554.5 799.5,-486.5 646.5,-486.5"/>
<text text-anchor="start" x="654.5" y="-542.5" font-family="Helvetica,sans-Serif" font-size="10.00">unordered_map&lt; KeyEnum,</text>
<text text-anchor="middle" x="723" y="-531.5" font-family="Helvetica,sans-Serif" font-size="10.00"> control_function &gt;</text>
<polyline fill="none" stroke="#bfbfbf" points="646.5,-524.5 799.5,-524.5 "/>
<text text-anchor="middle" x="723" y="-512.5" font-family="Helvetica,sans-Serif" font-size="10.00"> </text>
<polyline fill="none" stroke="#bfbfbf" points="646.5,-505.5 799.5,-505.5 "/>
<text text-anchor="middle" x="723" y="-493.5" font-family="Helvetica,sans-Serif" font-size="10.00"> </text>
</a>
</g>
</g>
<!-- Node11&#45;&gt;Node10 -->
<g id="edge10" class="edge">
<title>Node11&#45;&gt;Node10</title>
<path fill="none" stroke="#404040" d="M709.36,-486.4C690.63,-440.96 656.61,-358.43 633.19,-301.61"/>
<polygon fill="none" stroke="#404040" points="633.08,-301.34 627.09,-297.32 628.51,-290.25 634.49,-294.27 633.08,-301.34"/>
<text text-anchor="middle" x="711" y="-399.5" font-family="Helvetica,sans-Serif" font-size="10.00"> #_controlMap</text>
</g>
</g>
</svg>
