<?xml version="1.0" encoding="UTF-8" standalone="no"?>
<!DOCTYPE svg PUBLIC "-//W3C//DTD SVG 1.1//EN"
 "http://www.w3.org/Graphics/SVG/1.1/DTD/svg11.dtd">
<!-- Generated by graphviz version 2.43.0 (0)
 -->
<!-- Title: cie::gl::AbsCameraControls Pages: 1 -->
<!--zoomable 876 -->
<svg id="main" version="1.1" xmlns="http://www.w3.org/2000/svg" xmlns:xlink="http://www.w3.org/1999/xlink" xml:space="preserve" onload="init(evt)">
<style type="text/css"><![CDATA[
.edge:hover path { stroke: red; }
.edge:hover polygon { stroke: red; fill: red; }
]]></style>
<script type="text/javascript"><![CDATA[
var edges = document.getElementsByTagName('g');
if (edges && edges.length) {
  for (var i=0;i<edges.length;i++) {
    if (edges[i].id.substr(0,4)=='edge') {
      edges[i].setAttribute('class','edge');
    }
  }
}
]]></script>
        <defs>
                <circle id="rim" cx="0" cy="0" r="7"/>
                <circle id="rim2" cx="0" cy="0" r="3.5"/>
                <g id="zoomPlus">
                        <use xlink:href="#rim" fill="#404040">
                                <set attributeName="fill" to="#808080" begin="zoomplus.mouseover" end="zoomplus.mouseout"/>
                        </use>
                        <path d="M-4,0h8M0,-4v8" fill="none" stroke="white" stroke-width="1.5" pointer-events="none"/>
                </g>
                <g id="zoomMin">
                        <use xlink:href="#rim" fill="#404040">
                                <set attributeName="fill" to="#808080" begin="zoomminus.mouseover" end="zoomminus.mouseout"/>
                        </use>
                        <path d="M-4,0h8" fill="none" stroke="white" stroke-width="1.5" pointer-events="none"/>
                </g>
                <g id="dirArrow">
                        <path fill="none" stroke="white" stroke-width="1.5" d="M0,-3.0v7 M-2.5,-0.5L0,-3.0L2.5,-0.5"/>
                </g>
               <g id="resetDef">
                       <use xlink:href="#rim2" fill="#404040">
                               <set attributeName="fill" to="#808080" begin="reset.mouseover" end="reset.mouseout"/>
                       </use>
               </g>
        </defs>

<script type="text/javascript">
var viewWidth = 540;
var viewHeight = 876;
var sectionId = 'dynsection-0';
</script>
<script xlink:href="svgpan.js"/>
<svg id="graph" class="graph">
<g id="viewport">
<title>cie::gl::AbsCameraControls</title>
<polygon fill="white" stroke="transparent" points="-4,4 -4,-872 536,-872 536,4 -4,4"/>
<!-- Node1 -->
<g id="node1" class="node">
<title>Node1</title>
<g id="a_node1"><a xlink:title=" ">
<polygon fill="#bfbfbf" stroke="black" points="97.5,-331.5 97.5,-652.5 248.5,-652.5 248.5,-331.5 97.5,-331.5"/>
<text text-anchor="middle" x="173" y="-640.5" font-family="Helvetica,sans-Serif" font-size="10.00">cie::gl::AbsCameraControls</text>
<polyline fill="none" stroke="black" points="97.5,-633.5 248.5,-633.5 "/>
<text text-anchor="start" x="105.5" y="-621.5" font-family="Helvetica,sans-Serif" font-size="10.00"># _p_window</text>
<text text-anchor="start" x="105.5" y="-610.5" font-family="Helvetica,sans-Serif" font-size="10.00"># _p_camera</text>
<text text-anchor="start" x="105.5" y="-599.5" font-family="Helvetica,sans-Serif" font-size="10.00"># _x</text>
<text text-anchor="start" x="105.5" y="-588.5" font-family="Helvetica,sans-Serif" font-size="10.00"># _y</text>
<text text-anchor="start" x="105.5" y="-577.5" font-family="Helvetica,sans-Serif" font-size="10.00"># _escapeKey</text>
<text text-anchor="start" x="105.5" y="-566.5" font-family="Helvetica,sans-Serif" font-size="10.00"># _activeKeys</text>
<polyline fill="none" stroke="black" points="97.5,-559.5 248.5,-559.5 "/>
<text text-anchor="start" x="105.5" y="-547.5" font-family="Helvetica,sans-Serif" font-size="10.00">+ AbsCameraControls()</text>
<text text-anchor="start" x="105.5" y="-536.5" font-family="Helvetica,sans-Serif" font-size="10.00">+ mouseButtonCallback()</text>
<text text-anchor="start" x="105.5" y="-525.5" font-family="Helvetica,sans-Serif" font-size="10.00">+ cursorPositionCallback()</text>
<text text-anchor="start" x="105.5" y="-514.5" font-family="Helvetica,sans-Serif" font-size="10.00">+ cursorEnterCallback()</text>
<text text-anchor="start" x="105.5" y="-503.5" font-family="Helvetica,sans-Serif" font-size="10.00">+ scrollCallback()</text>
<text text-anchor="start" x="105.5" y="-492.5" font-family="Helvetica,sans-Serif" font-size="10.00">+ keyboardCallback()</text>
<text text-anchor="start" x="105.5" y="-481.5" font-family="Helvetica,sans-Serif" font-size="10.00">+ bind()</text>
<text text-anchor="start" x="105.5" y="-470.5" font-family="Helvetica,sans-Serif" font-size="10.00"># onMouseButtonPress()</text>
<text text-anchor="start" x="105.5" y="-459.5" font-family="Helvetica,sans-Serif" font-size="10.00"># onMouseButtonHold()</text>
<text text-anchor="start" x="105.5" y="-448.5" font-family="Helvetica,sans-Serif" font-size="10.00"># onMouseButtonRelease()</text>
<text text-anchor="start" x="105.5" y="-437.5" font-family="Helvetica,sans-Serif" font-size="10.00"># onCursorMovement()</text>
<text text-anchor="start" x="105.5" y="-426.5" font-family="Helvetica,sans-Serif" font-size="10.00"># onCursorEnter()</text>
<text text-anchor="start" x="105.5" y="-415.5" font-family="Helvetica,sans-Serif" font-size="10.00"># onCursorLeave()</text>
<text text-anchor="start" x="105.5" y="-404.5" font-family="Helvetica,sans-Serif" font-size="10.00"># onHorizontalScroll()</text>
<text text-anchor="start" x="105.5" y="-393.5" font-family="Helvetica,sans-Serif" font-size="10.00"># onVerticalScroll()</text>
<text text-anchor="start" x="105.5" y="-382.5" font-family="Helvetica,sans-Serif" font-size="10.00"># onKeyboardPress()</text>
<text text-anchor="start" x="105.5" y="-371.5" font-family="Helvetica,sans-Serif" font-size="10.00"># onKeyboardHold()</text>
<text text-anchor="start" x="105.5" y="-360.5" font-family="Helvetica,sans-Serif" font-size="10.00"># onKeyboardRelease()</text>
<text text-anchor="start" x="105.5" y="-349.5" font-family="Helvetica,sans-Serif" font-size="10.00"># onSubjectChange()</text>
<text text-anchor="start" x="105.5" y="-338.5" font-family="Helvetica,sans-Serif" font-size="10.00"># getWindow()</text>
</a>
</g>
</g>
<!-- Node3 -->
<g id="node3" class="node">
<title>Node3</title>
<g id="a_node3"><a xlink:href="classcie_1_1gl_1_1DebugCameraControls.html" target="_top" xlink:title=" ">
<polygon fill="white" stroke="black" points="0,-138.5 0,-294.5 162,-294.5 162,-138.5 0,-138.5"/>
<text text-anchor="middle" x="81" y="-282.5" font-family="Helvetica,sans-Serif" font-size="10.00">cie::gl::DebugCameraControls</text>
<polyline fill="none" stroke="black" points="0,-275.5 162,-275.5 "/>
<text text-anchor="middle" x="81" y="-263.5" font-family="Helvetica,sans-Serif" font-size="10.00"> </text>
<polyline fill="none" stroke="black" points="0,-256.5 162,-256.5 "/>
<text text-anchor="start" x="8" y="-244.5" font-family="Helvetica,sans-Serif" font-size="10.00">+ DebugCameraControls()</text>
<text text-anchor="start" x="8" y="-233.5" font-family="Helvetica,sans-Serif" font-size="10.00">+ onMouseButtonPress()</text>
<text text-anchor="start" x="8" y="-222.5" font-family="Helvetica,sans-Serif" font-size="10.00">+ onMouseButtonRelease()</text>
<text text-anchor="start" x="8" y="-211.5" font-family="Helvetica,sans-Serif" font-size="10.00">+ onCursorMovement()</text>
<text text-anchor="start" x="8" y="-200.5" font-family="Helvetica,sans-Serif" font-size="10.00">+ onCursorEnter()</text>
<text text-anchor="start" x="8" y="-189.5" font-family="Helvetica,sans-Serif" font-size="10.00">+ onCursorLeave()</text>
<text text-anchor="start" x="8" y="-178.5" font-family="Helvetica,sans-Serif" font-size="10.00">+ onHorizontalScroll()</text>
<text text-anchor="start" x="8" y="-167.5" font-family="Helvetica,sans-Serif" font-size="10.00">+ onVerticalScroll()</text>
<text text-anchor="start" x="8" y="-156.5" font-family="Helvetica,sans-Serif" font-size="10.00">+ onKeyboardPress()</text>
<text text-anchor="start" x="8" y="-145.5" font-family="Helvetica,sans-Serif" font-size="10.00">+ onKeyboardRelease()</text>
</a>
</g>
</g>
<!-- Node1&#45;&gt;Node3 -->
<g id="edge2" class="edge">
<title>Node1&#45;&gt;Node3</title>
<path fill="none" stroke="midnightblue" d="M115.98,-321.5C112.9,-312.34 109.89,-303.39 107.01,-294.82"/>
<polygon fill="none" stroke="midnightblue" points="112.71,-322.75 119.22,-331.11 119.35,-320.52 112.71,-322.75"/>
</g>
<!-- Node4 -->
<g id="node4" class="node">
<title>Node4</title>
<g id="a_node4"><a xlink:href="classcie_1_1gl_1_1MappedCameraControls.html" target="_top" xlink:title=" ">
<polygon fill="white" stroke="black" points="180,-182.5 180,-250.5 350,-250.5 350,-182.5 180,-182.5"/>
<text text-anchor="middle" x="265" y="-238.5" font-family="Helvetica,sans-Serif" font-size="10.00">cie::gl::MappedCameraControls</text>
<polyline fill="none" stroke="black" points="180,-231.5 350,-231.5 "/>
<text text-anchor="middle" x="265" y="-219.5" font-family="Helvetica,sans-Serif" font-size="10.00"> </text>
<polyline fill="none" stroke="black" points="180,-212.5 350,-212.5 "/>
<text text-anchor="start" x="188" y="-200.5" font-family="Helvetica,sans-Serif" font-size="10.00">+ MappedCameraControls()</text>
<text text-anchor="start" x="188" y="-189.5" font-family="Helvetica,sans-Serif" font-size="10.00"># onSubjectChange()</text>
</a>
</g>
</g>
<!-- Node1&#45;&gt;Node4 -->
<g id="edge3" class="edge">
<title>Node1&#45;&gt;Node4</title>
<path fill="none" stroke="midnightblue" d="M230,-321.56C239.02,-294.73 247.45,-269.68 253.77,-250.89"/>
<polygon fill="none" stroke="midnightblue" points="226.65,-320.52 226.78,-331.11 233.29,-322.75 226.65,-320.52"/>
</g>
<!-- Node2 -->
<g id="node2" class="node">
<title>Node2</title>
<g id="a_node2"><a target="_parent" xlink:href="../../../cieutils/docs/html/classcie_1_1utils_1_1observer_1_1Observer.html" xlink:title=" ">
<polygon fill="white" stroke="black" points="113,-689.5 113,-867.5 233,-867.5 233,-689.5 113,-689.5"/>
<text text-anchor="start" x="121" y="-855.5" font-family="Helvetica,sans-Serif" font-size="10.00">cie::utils::observer</text>
<text text-anchor="middle" x="173" y="-844.5" font-family="Helvetica,sans-Serif" font-size="10.00">::Observer</text>
<polyline fill="none" stroke="black" points="113,-837.5 233,-837.5 "/>
<text text-anchor="start" x="121" y="-825.5" font-family="Helvetica,sans-Serif" font-size="10.00"># _subject</text>
<polyline fill="none" stroke="black" points="113,-818.5 233,-818.5 "/>
<text text-anchor="start" x="121" y="-806.5" font-family="Helvetica,sans-Serif" font-size="10.00">+ Observer()</text>
<text text-anchor="start" x="121" y="-795.5" font-family="Helvetica,sans-Serif" font-size="10.00">+ Observer()</text>
<text text-anchor="start" x="121" y="-784.5" font-family="Helvetica,sans-Serif" font-size="10.00">+ Observer()</text>
<text text-anchor="start" x="121" y="-773.5" font-family="Helvetica,sans-Serif" font-size="10.00">+ operator=()</text>
<text text-anchor="start" x="121" y="-762.5" font-family="Helvetica,sans-Serif" font-size="10.00">+ ~Observer()</text>
<text text-anchor="start" x="121" y="-751.5" font-family="Helvetica,sans-Serif" font-size="10.00">+ onSubjectChange()</text>
<text text-anchor="start" x="121" y="-740.5" font-family="Helvetica,sans-Serif" font-size="10.00">+ detach()</text>
<text text-anchor="start" x="121" y="-729.5" font-family="Helvetica,sans-Serif" font-size="10.00">+ as()</text>
<text text-anchor="start" x="121" y="-718.5" font-family="Helvetica,sans-Serif" font-size="10.00">+ setSubject()</text>
<text text-anchor="start" x="121" y="-707.5" font-family="Helvetica,sans-Serif" font-size="10.00">+ subject()</text>
<text text-anchor="start" x="121" y="-696.5" font-family="Helvetica,sans-Serif" font-size="10.00">+ subject()</text>
</a>
</g>
</g>
<!-- Node2&#45;&gt;Node1 -->
<g id="edge1" class="edge">
<title>Node2&#45;&gt;Node1</title>
<path fill="none" stroke="midnightblue" d="M173,-679.32C173,-670.6 173,-661.64 173,-652.58"/>
<polygon fill="none" stroke="midnightblue" points="169.5,-679.43 173,-689.43 176.5,-679.43 169.5,-679.43"/>
</g>
<!-- Node5 -->
<g id="node5" class="node">
<title>Node5</title>
<g id="a_node5"><a xlink:href="classcie_1_1gl_1_1ArcBallCameraControls.html" target="_top" xlink:title=" ">
<polygon fill="white" stroke="black" points="8.5,-0.5 8.5,-101.5 173.5,-101.5 173.5,-0.5 8.5,-0.5"/>
<text text-anchor="middle" x="91" y="-89.5" font-family="Helvetica,sans-Serif" font-size="10.00">cie::gl::ArcBallCameraControls</text>
<polyline fill="none" stroke="black" points="8.5,-82.5 173.5,-82.5 "/>
<text text-anchor="middle" x="91" y="-70.5" font-family="Helvetica,sans-Serif" font-size="10.00"> </text>
<polyline fill="none" stroke="black" points="8.5,-63.5 173.5,-63.5 "/>
<text text-anchor="start" x="16.5" y="-51.5" font-family="Helvetica,sans-Serif" font-size="10.00">+ ArcBallCameraControls()</text>
<text text-anchor="start" x="16.5" y="-40.5" font-family="Helvetica,sans-Serif" font-size="10.00">+ getCenter()</text>
<text text-anchor="start" x="16.5" y="-29.5" font-family="Helvetica,sans-Serif" font-size="10.00">+ setCenter()</text>
<text text-anchor="start" x="16.5" y="-18.5" font-family="Helvetica,sans-Serif" font-size="10.00">+ setRotationScale()</text>
<text text-anchor="start" x="16.5" y="-7.5" font-family="Helvetica,sans-Serif" font-size="10.00">+ setZoomScale()</text>
</a>
</g>
</g>
<!-- Node4&#45;&gt;Node5 -->
<g id="edge4" class="edge">
<title>Node4&#45;&gt;Node5</title>
<path fill="none" stroke="midnightblue" d="M222.34,-175.41C198.7,-153.2 169.11,-125.4 144,-101.8"/>
<polygon fill="none" stroke="midnightblue" points="220.1,-178.12 229.79,-182.41 224.9,-173.01 220.1,-178.12"/>
</g>
<!-- Node6 -->
<g id="node6" class="node">
<title>Node6</title>
<g id="a_node6"><a xlink:href="classcie_1_1gl_1_1FlyCameraControls.html" target="_top" xlink:title=" ">
<polygon fill="white" stroke="black" points="192,-6 192,-96 338,-96 338,-6 192,-6"/>
<text text-anchor="middle" x="265" y="-84" font-family="Helvetica,sans-Serif" font-size="10.00">cie::gl::FlyCameraControls</text>
<polyline fill="none" stroke="black" points="192,-77 338,-77 "/>
<text text-anchor="middle" x="265" y="-65" font-family="Helvetica,sans-Serif" font-size="10.00"> </text>
<polyline fill="none" stroke="black" points="192,-58 338,-58 "/>
<text text-anchor="start" x="200" y="-46" font-family="Helvetica,sans-Serif" font-size="10.00">+ FlyCameraControls()</text>
<text text-anchor="start" x="200" y="-35" font-family="Helvetica,sans-Serif" font-size="10.00">+ setMovementScale()</text>
<text text-anchor="start" x="200" y="-24" font-family="Helvetica,sans-Serif" font-size="10.00">+ setRotationScale()</text>
<text text-anchor="start" x="200" y="-13" font-family="Helvetica,sans-Serif" font-size="10.00">+ setZoomScale()</text>
</a>
</g>
</g>
<!-- Node4&#45;&gt;Node6 -->
<g id="edge5" class="edge">
<title>Node4&#45;&gt;Node6</title>
<path fill="none" stroke="midnightblue" d="M265,-172.38C265,-148.88 265,-119.86 265,-96.2"/>
<polygon fill="none" stroke="midnightblue" points="261.5,-172.41 265,-182.41 268.5,-172.41 261.5,-172.41"/>
</g>
<!-- Node7 -->
<g id="node7" class="node">
<title>Node7</title>
<g id="a_node7"><a xlink:href="classcie_1_1gl_1_1PanZoomCameraControls.html" target="_top" xlink:title=" ">
<polygon fill="white" stroke="black" points="356,-11.5 356,-90.5 532,-90.5 532,-11.5 356,-11.5"/>
<text text-anchor="middle" x="444" y="-78.5" font-family="Helvetica,sans-Serif" font-size="10.00">cie::gl::PanZoomCameraControls</text>
<polyline fill="none" stroke="black" points="356,-71.5 532,-71.5 "/>
<text text-anchor="middle" x="444" y="-59.5" font-family="Helvetica,sans-Serif" font-size="10.00"> </text>
<polyline fill="none" stroke="black" points="356,-52.5 532,-52.5 "/>
<text text-anchor="start" x="364" y="-40.5" font-family="Helvetica,sans-Serif" font-size="10.00">+ PanZoomCameraControls()</text>
<text text-anchor="start" x="364" y="-29.5" font-family="Helvetica,sans-Serif" font-size="10.00">+ setMovementScale()</text>
<text text-anchor="start" x="364" y="-18.5" font-family="Helvetica,sans-Serif" font-size="10.00">+ setZoomScale()</text>
</a>
</g>
</g>
<!-- Node4&#45;&gt;Node7 -->
<g id="edge6" class="edge">
<title>Node4&#45;&gt;Node7</title>
<path fill="none" stroke="midnightblue" d="M308.95,-175.36C337.17,-149.58 373.62,-116.29 401.54,-90.79"/>
<polygon fill="none" stroke="midnightblue" points="306.25,-173.08 301.22,-182.41 310.97,-178.25 306.25,-173.08"/>
</g>
</g>
</svg>
        <g id="navigator" transform="translate(0 0)" fill="#404254">
                <rect fill="#f2f5e9" fill-opacity="0.5" stroke="#606060" stroke-width=".5" x="0" y="0" width="60" height="60"/>
                <use id="zoomplus" xlink:href="#zoomPlus" x="17" y="9" onmousedown="handleZoom(evt,'in')"/>
                <use id="zoomminus" xlink:href="#zoomMin" x="42" y="9" onmousedown="handleZoom(evt,'out')"/>
                <use id="reset" xlink:href="#resetDef" x="30" y="36" onmousedown="handleReset()"/>
                <g id="arrowUp" xlink:href="#dirArrow" transform="translate(30 24)" onmousedown="handlePan(0,-1)">
                  <use xlink:href="#rim" fill="#404040">
                        <set attributeName="fill" to="#808080" begin="arrowUp.mouseover" end="arrowUp.mouseout"/>
                  </use>
                  <path fill="none" stroke="white" stroke-width="1.5" d="M0,-3.0v7 M-2.5,-0.5L0,-3.0L2.5,-0.5"/>
                </g>
                <g id="arrowRight" xlink:href="#dirArrow" transform="rotate(90) translate(36 -43)" onmousedown="handlePan(1,0)">
                  <use xlink:href="#rim" fill="#404040">
                        <set attributeName="fill" to="#808080" begin="arrowRight.mouseover" end="arrowRight.mouseout"/>
                  </use>
                  <path fill="none" stroke="white" stroke-width="1.5" d="M0,-3.0v7 M-2.5,-0.5L0,-3.0L2.5,-0.5"/>
                </g>
                <g id="arrowDown" xlink:href="#dirArrow" transform="rotate(180) translate(-30 -48)" onmousedown="handlePan(0,1)">
                  <use xlink:href="#rim" fill="#404040">
                        <set attributeName="fill" to="#808080" begin="arrowDown.mouseover" end="arrowDown.mouseout"/>
                  </use>
                  <path fill="none" stroke="white" stroke-width="1.5" d="M0,-3.0v7 M-2.5,-0.5L0,-3.0L2.5,-0.5"/>
                </g>
                <g id="arrowLeft" xlink:href="#dirArrow" transform="rotate(270) translate(-36 17)" onmousedown="handlePan(-1,0)">
                  <use xlink:href="#rim" fill="#404040">
                        <set attributeName="fill" to="#808080" begin="arrowLeft.mouseover" end="arrowLeft.mouseout"/>
                  </use>
                  <path fill="none" stroke="white" stroke-width="1.5" d="M0,-3.0v7 M-2.5,-0.5L0,-3.0L2.5,-0.5"/>
                </g>
        </g>
        <svg viewBox="0 0 15 15" width="100%" height="30px" preserveAspectRatio="xMaxYMin meet">
         <g id="arrow_out" transform="scale(0.3 0.3)">
          <a xlink:href="classcie_1_1gl_1_1AbsCameraControls__inherit__graph_org.svg" target="_base">
           <rect id="button" ry="5" rx="5" y="6" x="6" height="38" width="38"
                fill="#f2f5e9" fill-opacity="0.5" stroke="#606060" stroke-width="1.0"/>
           <path id="arrow"
             d="M 11.500037,31.436501 C 11.940474,20.09759 22.043105,11.32322 32.158766,21.979434 L 37.068811,17.246167 C 37.068811,17.246167 37.088388,32 37.088388,32 L 22.160133,31.978069 C 22.160133,31.978069 26.997745,27.140456 26.997745,27.140456 C 18.528582,18.264221 13.291696,25.230495 11.500037,31.436501 z"
             style="fill:#404040;"/>
          </a>
         </g>
        </svg>
</svg>
