<?xml version="1.0" encoding="UTF-8" standalone="no"?>
<!DOCTYPE svg PUBLIC "-//W3C//DTD SVG 1.1//EN"
 "http://www.w3.org/Graphics/SVG/1.1/DTD/svg11.dtd">
<!-- Generated by graphviz version 2.43.0 (0)
 -->
<!-- Title: cie::gl::AbsMonitor Pages: 1 -->
<svg width="126pt" height="386pt"
 viewBox="0.00 0.00 126.00 386.00" xmlns="http://www.w3.org/2000/svg" xmlns:xlink="http://www.w3.org/1999/xlink">
<g id="graph0" class="graph" transform="scale(1 1) rotate(0) translate(4 382)">
<title>cie::gl::AbsMonitor</title>
<polygon fill="white" stroke="transparent" points="-4,4 -4,-382 122,-382 122,4 -4,4"/>
<!-- Node1 -->
<g id="node1" class="node">
<title>Node1</title>
<g id="a_node1"><a xlink:title=" ">
<polygon fill="#bfbfbf" stroke="black" points="5.5,-94.5 5.5,-195.5 112.5,-195.5 112.5,-94.5 5.5,-94.5"/>
<text text-anchor="middle" x="59" y="-183.5" font-family="Helvetica,sans-Serif" font-size="10.00">cie::gl::AbsMonitor</text>
<polyline fill="none" stroke="black" points="5.5,-176.5 112.5,-176.5 "/>
<text text-anchor="start" x="13.5" y="-164.5" font-family="Helvetica,sans-Serif" font-size="10.00"># _resolution</text>
<text text-anchor="start" x="13.5" y="-153.5" font-family="Helvetica,sans-Serif" font-size="10.00"># _isPrimary</text>
<polyline fill="none" stroke="black" points="5.5,-146.5 112.5,-146.5 "/>
<text text-anchor="start" x="13.5" y="-134.5" font-family="Helvetica,sans-Serif" font-size="10.00">+ AbsMonitor()</text>
<text text-anchor="start" x="13.5" y="-123.5" font-family="Helvetica,sans-Serif" font-size="10.00">+ ~AbsMonitor()</text>
<text text-anchor="start" x="13.5" y="-112.5" font-family="Helvetica,sans-Serif" font-size="10.00">+ resolution()</text>
<text text-anchor="start" x="13.5" y="-101.5" font-family="Helvetica,sans-Serif" font-size="10.00">+ isPrimary()</text>
</a>
</g>
</g>
<!-- Node3 -->
<g id="node3" class="node">
<title>Node3</title>
<g id="a_node3"><a xlink:href="classcie_1_1gl_1_1GLFWMonitor.html" target="_top" xlink:title=" ">
<polygon fill="white" stroke="black" points="0,-0.5 0,-57.5 118,-57.5 118,-0.5 0,-0.5"/>
<text text-anchor="middle" x="59" y="-45.5" font-family="Helvetica,sans-Serif" font-size="10.00">cie::gl::GLFWMonitor</text>
<polyline fill="none" stroke="black" points="0,-38.5 118,-38.5 "/>
<text text-anchor="middle" x="59" y="-26.5" font-family="Helvetica,sans-Serif" font-size="10.00"> </text>
<polyline fill="none" stroke="black" points="0,-19.5 118,-19.5 "/>
<text text-anchor="start" x="8" y="-7.5" font-family="Helvetica,sans-Serif" font-size="10.00">+ ~GLFWMonitor()</text>
</a>
</g>
</g>
<!-- Node1&#45;&gt;Node3 -->
<g id="edge2" class="edge">
<title>Node1&#45;&gt;Node3</title>
<path fill="none" stroke="midnightblue" d="M59,-84.23C59,-74.92 59,-65.71 59,-57.59"/>
<polygon fill="none" stroke="midnightblue" points="55.5,-84.33 59,-94.33 62.5,-84.33 55.5,-84.33"/>
</g>
<!-- Node2 -->
<g id="node2" class="node">
<title>Node2</title>
<g id="a_node2"><a target="_parent" xlink:href="../../../cieutils/docs/html/classcie_1_1utils_1_1IDObject.html" xlink:title=" ">
<polygon fill="white" stroke="black" points="6,-232.5 6,-377.5 112,-377.5 112,-232.5 6,-232.5"/>
<text text-anchor="start" x="14" y="-365.5" font-family="Helvetica,sans-Serif" font-size="10.00">cie::utils::IDObject</text>
<text text-anchor="middle" x="59" y="-354.5" font-family="Helvetica,sans-Serif" font-size="10.00">&lt; class &gt;</text>
<polyline fill="none" stroke="black" points="6,-347.5 112,-347.5 "/>
<text text-anchor="start" x="14" y="-335.5" font-family="Helvetica,sans-Serif" font-size="10.00"># _id</text>
<polyline fill="none" stroke="black" points="6,-328.5 112,-328.5 "/>
<text text-anchor="start" x="14" y="-316.5" font-family="Helvetica,sans-Serif" font-size="10.00">+ IDObject()</text>
<text text-anchor="start" x="14" y="-305.5" font-family="Helvetica,sans-Serif" font-size="10.00">+ IDObject()</text>
<text text-anchor="start" x="14" y="-294.5" font-family="Helvetica,sans-Serif" font-size="10.00">+ IDObject()</text>
<text text-anchor="start" x="14" y="-283.5" font-family="Helvetica,sans-Serif" font-size="10.00">+ IDObject()</text>
<text text-anchor="start" x="14" y="-272.5" font-family="Helvetica,sans-Serif" font-size="10.00">+ operator=()</text>
<text text-anchor="start" x="14" y="-261.5" font-family="Helvetica,sans-Serif" font-size="10.00">+ operator=()</text>
<text text-anchor="start" x="14" y="-250.5" font-family="Helvetica,sans-Serif" font-size="10.00">+ setID()</text>
<text text-anchor="start" x="14" y="-239.5" font-family="Helvetica,sans-Serif" font-size="10.00">+ getID()</text>
</a>
</g>
</g>
<!-- Node2&#45;&gt;Node1 -->
<g id="edge1" class="edge">
<title>Node2&#45;&gt;Node1</title>
<path fill="none" stroke="midnightblue" d="M59,-222.19C59,-213.14 59,-204.14 59,-195.67"/>
<polygon fill="none" stroke="midnightblue" points="55.5,-222.4 59,-232.4 62.5,-222.4 55.5,-222.4"/>
</g>
</g>
</svg>
