<?xml version="1.0" encoding="UTF-8" standalone="no"?>
<!DOCTYPE svg PUBLIC "-//W3C//DTD SVG 1.1//EN"
 "http://www.w3.org/Graphics/SVG/1.1/DTD/svg11.dtd">
<!-- Generated by graphviz version 2.43.0 (0)
 -->
<!-- Title: cie::gl::Scene Pages: 1 -->
<!--zoomable 1075 -->
<svg id="main" version="1.1" xmlns="http://www.w3.org/2000/svg" xmlns:xlink="http://www.w3.org/1999/xlink" xml:space="preserve" onload="init(evt)">
<style type="text/css"><![CDATA[
.edge:hover path { stroke: red; }
.edge:hover polygon { stroke: red; fill: red; }
]]></style>
<script type="text/javascript"><![CDATA[
var edges = document.getElementsByTagName('g');
if (edges && edges.length) {
  for (var i=0;i<edges.length;i++) {
    if (edges[i].id.substr(0,4)=='edge') {
      edges[i].setAttribute('class','edge');
    }
  }
}
]]></script>
        <defs>
                <circle id="rim" cx="0" cy="0" r="7"/>
                <circle id="rim2" cx="0" cy="0" r="3.5"/>
                <g id="zoomPlus">
                        <use xlink:href="#rim" fill="#404040">
                                <set attributeName="fill" to="#808080" begin="zoomplus.mouseover" end="zoomplus.mouseout"/>
                        </use>
                        <path d="M-4,0h8M0,-4v8" fill="none" stroke="white" stroke-width="1.5" pointer-events="none"/>
                </g>
                <g id="zoomMin">
                        <use xlink:href="#rim" fill="#404040">
                                <set attributeName="fill" to="#808080" begin="zoomminus.mouseover" end="zoomminus.mouseout"/>
                        </use>
                        <path d="M-4,0h8" fill="none" stroke="white" stroke-width="1.5" pointer-events="none"/>
                </g>
                <g id="dirArrow">
                        <path fill="none" stroke="white" stroke-width="1.5" d="M0,-3.0v7 M-2.5,-0.5L0,-3.0L2.5,-0.5"/>
                </g>
               <g id="resetDef">
                       <use xlink:href="#rim2" fill="#404040">
                               <set attributeName="fill" to="#808080" begin="reset.mouseover" end="reset.mouseout"/>
                       </use>
               </g>
        </defs>

<script type="text/javascript">
var viewWidth = 387;
var viewHeight = 1075;
var sectionId = 'dynsection-0';
</script>
<script xlink:href="svgpan.js"/>
<svg id="graph" class="graph">
<g id="viewport">
<title>cie::gl::Scene</title>
<polygon fill="white" stroke="transparent" points="-4,4 -4,-1071 383,-1071 383,4 -4,4"/>
<!-- Node1 -->
<g id="node1" class="node">
<title>Node1</title>
<g id="a_node1"><a xlink:title=" ">
<polygon fill="#bfbfbf" stroke="black" points="80,-414.5 80,-680.5 205,-680.5 205,-414.5 80,-414.5"/>
<text text-anchor="middle" x="142.5" y="-668.5" font-family="Helvetica,sans-Serif" font-size="10.00">cie::gl::Scene</text>
<polyline fill="none" stroke="black" points="80,-661.5 205,-661.5 "/>
<text text-anchor="start" x="88" y="-649.5" font-family="Helvetica,sans-Serif" font-size="10.00"># _cameras</text>
<text text-anchor="start" x="88" y="-638.5" font-family="Helvetica,sans-Serif" font-size="10.00"># _p_vertexShader</text>
<text text-anchor="start" x="88" y="-627.5" font-family="Helvetica,sans-Serif" font-size="10.00"># _p_geometryShader</text>
<text text-anchor="start" x="88" y="-616.5" font-family="Helvetica,sans-Serif" font-size="10.00"># _p_fragmentShader</text>
<text text-anchor="start" x="88" y="-605.5" font-family="Helvetica,sans-Serif" font-size="10.00"># _p_bufferManager</text>
<text text-anchor="start" x="88" y="-594.5" font-family="Helvetica,sans-Serif" font-size="10.00"># _uniforms</text>
<text text-anchor="start" x="88" y="-583.5" font-family="Helvetica,sans-Serif" font-size="10.00"># _textures</text>
<text text-anchor="start" x="88" y="-572.5" font-family="Helvetica,sans-Serif" font-size="10.00"># _vaoID</text>
<text text-anchor="start" x="88" y="-561.5" font-family="Helvetica,sans-Serif" font-size="10.00"># _activeSceneID</text>
<polyline fill="none" stroke="black" points="80,-554.5 205,-554.5 "/>
<text text-anchor="start" x="88" y="-542.5" font-family="Helvetica,sans-Serif" font-size="10.00">+ Scene()</text>
<text text-anchor="start" x="88" y="-531.5" font-family="Helvetica,sans-Serif" font-size="10.00">+ ~Scene()</text>
<text text-anchor="start" x="88" y="-520.5" font-family="Helvetica,sans-Serif" font-size="10.00">+ update()</text>
<text text-anchor="start" x="88" y="-509.5" font-family="Helvetica,sans-Serif" font-size="10.00">+ activate()</text>
<text text-anchor="start" x="88" y="-498.5" font-family="Helvetica,sans-Serif" font-size="10.00">+ isActive()</text>
<text text-anchor="start" x="88" y="-487.5" font-family="Helvetica,sans-Serif" font-size="10.00">+ makeCamera()</text>
<text text-anchor="start" x="88" y="-476.5" font-family="Helvetica,sans-Serif" font-size="10.00">+ addCamera()</text>
<text text-anchor="start" x="88" y="-465.5" font-family="Helvetica,sans-Serif" font-size="10.00">+ removeCamera()</text>
<text text-anchor="start" x="88" y="-454.5" font-family="Helvetica,sans-Serif" font-size="10.00">+ cameras()</text>
<text text-anchor="start" x="88" y="-443.5" font-family="Helvetica,sans-Serif" font-size="10.00">+ camera()</text>
<text text-anchor="start" x="88" y="-432.5" font-family="Helvetica,sans-Serif" font-size="10.00">and 15 more...</text>
<text text-anchor="start" x="88" y="-421.5" font-family="Helvetica,sans-Serif" font-size="10.00"># update_impl()</text>
</a>
</g>
</g>
<!-- Node5 -->
<g id="node5" class="node">
<title>Node5</title>
<g id="a_node5"><a xlink:href="classcie_1_1gl_1_1AbsPlot2_1_1Plot2Scene.html" target="_top" xlink:title="Internal Scene class used by AbsPlot2.">
<polygon fill="white" stroke="black" points="0,-265.5 0,-366.5 135,-366.5 135,-265.5 0,-265.5"/>
<text text-anchor="start" x="8" y="-354.5" font-family="Helvetica,sans-Serif" font-size="10.00">cie::gl::AbsPlot2&lt;</text>
<text text-anchor="middle" x="67.5" y="-343.5" font-family="Helvetica,sans-Serif" font-size="10.00"> Tag, Args &gt;::Plot2Scene</text>
<polyline fill="none" stroke="black" points="0,-336.5 135,-336.5 "/>
<text text-anchor="middle" x="67.5" y="-324.5" font-family="Helvetica,sans-Serif" font-size="10.00"> </text>
<polyline fill="none" stroke="black" points="0,-317.5 135,-317.5 "/>
<text text-anchor="start" x="8" y="-305.5" font-family="Helvetica,sans-Serif" font-size="10.00">+ Plot2Scene()</text>
<text text-anchor="start" x="8" y="-294.5" font-family="Helvetica,sans-Serif" font-size="10.00">+ getCamera()</text>
<text text-anchor="start" x="8" y="-283.5" font-family="Helvetica,sans-Serif" font-size="10.00">+ setUpdateFlag()</text>
<text text-anchor="start" x="8" y="-272.5" font-family="Helvetica,sans-Serif" font-size="10.00">+ setDrawMode()</text>
</a>
</g>
</g>
<!-- Node1&#45;&gt;Node5 -->
<g id="edge4" class="edge">
<title>Node1&#45;&gt;Node5</title>
<path fill="none" stroke="midnightblue" d="M96.09,-404.47C91.7,-391.05 87.49,-378.16 83.71,-366.59"/>
<polygon fill="none" stroke="midnightblue" points="92.87,-405.91 99.31,-414.33 99.53,-403.74 92.87,-405.91"/>
</g>
<!-- Node6 -->
<g id="node6" class="node">
<title>Node6</title>
<g id="a_node6"><a xlink:href="classcie_1_1gl_1_1PartScene.html" target="_top" xlink:title=" ">
<polygon fill="white" stroke="black" points="153,-254.5 153,-377.5 284,-377.5 284,-254.5 153,-254.5"/>
<text text-anchor="middle" x="218.5" y="-365.5" font-family="Helvetica,sans-Serif" font-size="10.00">cie::gl::PartScene</text>
<polyline fill="none" stroke="black" points="153,-358.5 284,-358.5 "/>
<text text-anchor="start" x="161" y="-346.5" font-family="Helvetica,sans-Serif" font-size="10.00"># _parts</text>
<text text-anchor="start" x="161" y="-335.5" font-family="Helvetica,sans-Serif" font-size="10.00"># _partsRequireUpdate</text>
<polyline fill="none" stroke="black" points="153,-328.5 284,-328.5 "/>
<text text-anchor="start" x="161" y="-316.5" font-family="Helvetica,sans-Serif" font-size="10.00">+ PartScene()</text>
<text text-anchor="start" x="161" y="-305.5" font-family="Helvetica,sans-Serif" font-size="10.00">+ addPart()</text>
<text text-anchor="start" x="161" y="-294.5" font-family="Helvetica,sans-Serif" font-size="10.00">+ removePart()</text>
<text text-anchor="start" x="161" y="-283.5" font-family="Helvetica,sans-Serif" font-size="10.00">+ parts()</text>
<text text-anchor="start" x="161" y="-272.5" font-family="Helvetica,sans-Serif" font-size="10.00">+ updateParts()</text>
<text text-anchor="start" x="161" y="-261.5" font-family="Helvetica,sans-Serif" font-size="10.00">+ update_impl()</text>
</a>
</g>
</g>
<!-- Node1&#45;&gt;Node6 -->
<g id="edge5" class="edge">
<title>Node1&#45;&gt;Node6</title>
<path fill="none" stroke="midnightblue" d="M189.42,-404.83C192.54,-395.4 195.57,-386.24 198.43,-377.6"/>
<polygon fill="none" stroke="midnightblue" points="186.09,-403.74 186.27,-414.33 192.74,-405.94 186.09,-403.74"/>
</g>
<!-- Node2 -->
<g id="node2" class="node">
<title>Node2</title>
<g id="a_node2"><a target="_parent" xlink:href="../../../cieutils/docs/html/classcie_1_1utils_1_1Loggee.html" xlink:title=" ">
<polygon fill="white" stroke="black" points="33,-717.5 33,-873.5 132,-873.5 132,-717.5 33,-717.5"/>
<text text-anchor="middle" x="82.5" y="-861.5" font-family="Helvetica,sans-Serif" font-size="10.00">cie::utils::Loggee</text>
<polyline fill="none" stroke="black" points="33,-854.5 132,-854.5 "/>
<text text-anchor="middle" x="82.5" y="-842.5" font-family="Helvetica,sans-Serif" font-size="10.00"> </text>
<polyline fill="none" stroke="black" points="33,-835.5 132,-835.5 "/>
<text text-anchor="start" x="41" y="-823.5" font-family="Helvetica,sans-Serif" font-size="10.00">+ Loggee()</text>
<text text-anchor="start" x="41" y="-812.5" font-family="Helvetica,sans-Serif" font-size="10.00">+ ~Loggee()</text>
<text text-anchor="start" x="41" y="-801.5" font-family="Helvetica,sans-Serif" font-size="10.00">+ log()</text>
<text text-anchor="start" x="41" y="-790.5" font-family="Helvetica,sans-Serif" font-size="10.00">+ logID()</text>
<text text-anchor="start" x="41" y="-779.5" font-family="Helvetica,sans-Serif" font-size="10.00">+ tic()</text>
<text text-anchor="start" x="41" y="-768.5" font-family="Helvetica,sans-Serif" font-size="10.00">+ toc()</text>
<text text-anchor="start" x="41" y="-757.5" font-family="Helvetica,sans-Serif" font-size="10.00">+ toc()</text>
<text text-anchor="start" x="41" y="-746.5" font-family="Helvetica,sans-Serif" font-size="10.00">+ newBlock()</text>
<text text-anchor="start" x="41" y="-735.5" font-family="Helvetica,sans-Serif" font-size="10.00">+ separate()</text>
<text text-anchor="start" x="41" y="-724.5" font-family="Helvetica,sans-Serif" font-size="10.00"># logger()</text>
</a>
</g>
</g>
<!-- Node2&#45;&gt;Node1 -->
<g id="edge1" class="edge">
<title>Node2&#45;&gt;Node1</title>
<path fill="none" stroke="midnightblue" d="M103.69,-707.61C105.82,-698.89 108.01,-689.89 110.22,-680.83"/>
<polygon fill="none" stroke="midnightblue" points="100.29,-706.79 101.32,-717.34 107.09,-708.45 100.29,-706.79"/>
</g>
<!-- Node3 -->
<g id="node3" class="node">
<title>Node3</title>
<g id="a_node3"><a target="_parent" xlink:href="../../../cieutils/docs/html/classcie_1_1utils_1_1NamedObject.html" xlink:title=" ">
<polygon fill="white" stroke="black" points="17,-910.5 17,-1066.5 148,-1066.5 148,-910.5 17,-910.5"/>
<text text-anchor="middle" x="82.5" y="-1054.5" font-family="Helvetica,sans-Serif" font-size="10.00">cie::utils::NamedObject</text>
<polyline fill="none" stroke="black" points="17,-1047.5 148,-1047.5 "/>
<text text-anchor="middle" x="82.5" y="-1035.5" font-family="Helvetica,sans-Serif" font-size="10.00"> </text>
<polyline fill="none" stroke="black" points="17,-1028.5 148,-1028.5 "/>
<text text-anchor="start" x="25" y="-1016.5" font-family="Helvetica,sans-Serif" font-size="10.00">+ NamedObject()</text>
<text text-anchor="start" x="25" y="-1005.5" font-family="Helvetica,sans-Serif" font-size="10.00">+ NamedObject()</text>
<text text-anchor="start" x="25" y="-994.5" font-family="Helvetica,sans-Serif" font-size="10.00">+ NamedObject()</text>
<text text-anchor="start" x="25" y="-983.5" font-family="Helvetica,sans-Serif" font-size="10.00">+ NamedObject()</text>
<text text-anchor="start" x="25" y="-972.5" font-family="Helvetica,sans-Serif" font-size="10.00">+ operator=()</text>
<text text-anchor="start" x="25" y="-961.5" font-family="Helvetica,sans-Serif" font-size="10.00">+ operator=()</text>
<text text-anchor="start" x="25" y="-950.5" font-family="Helvetica,sans-Serif" font-size="10.00">+ name()</text>
<text text-anchor="start" x="25" y="-939.5" font-family="Helvetica,sans-Serif" font-size="10.00">+ setName()</text>
<text text-anchor="start" x="25" y="-928.5" font-family="Helvetica,sans-Serif" font-size="10.00">+ setName()</text>
<text text-anchor="start" x="25" y="-917.5" font-family="Helvetica,sans-Serif" font-size="10.00">+ ~NamedObject()</text>
</a>
</g>
</g>
<!-- Node3&#45;&gt;Node2 -->
<g id="edge2" class="edge">
<title>Node3&#45;&gt;Node2</title>
<path fill="none" stroke="midnightblue" d="M82.5,-900.35C82.5,-891.43 82.5,-882.41 82.5,-873.61"/>
<polygon fill="none" stroke="midnightblue" points="79,-900.36 82.5,-910.36 86,-900.36 79,-900.36"/>
</g>
<!-- Node4 -->
<g id="node4" class="node">
<title>Node4</title>
<g id="a_node4"><a target="_parent" xlink:href="../../../cieutils/docs/html/classcie_1_1utils_1_1IDObject.html" xlink:title=" ">
<polygon fill="white" stroke="black" points="150.5,-723 150.5,-868 256.5,-868 256.5,-723 150.5,-723"/>
<text text-anchor="start" x="158.5" y="-856" font-family="Helvetica,sans-Serif" font-size="10.00">cie::utils::IDObject</text>
<text text-anchor="middle" x="203.5" y="-845" font-family="Helvetica,sans-Serif" font-size="10.00">&lt; class &gt;</text>
<polyline fill="none" stroke="black" points="150.5,-838 256.5,-838 "/>
<text text-anchor="start" x="158.5" y="-826" font-family="Helvetica,sans-Serif" font-size="10.00"># _id</text>
<polyline fill="none" stroke="black" points="150.5,-819 256.5,-819 "/>
<text text-anchor="start" x="158.5" y="-807" font-family="Helvetica,sans-Serif" font-size="10.00">+ IDObject()</text>
<text text-anchor="start" x="158.5" y="-796" font-family="Helvetica,sans-Serif" font-size="10.00">+ IDObject()</text>
<text text-anchor="start" x="158.5" y="-785" font-family="Helvetica,sans-Serif" font-size="10.00">+ IDObject()</text>
<text text-anchor="start" x="158.5" y="-774" font-family="Helvetica,sans-Serif" font-size="10.00">+ IDObject()</text>
<text text-anchor="start" x="158.5" y="-763" font-family="Helvetica,sans-Serif" font-size="10.00">+ operator=()</text>
<text text-anchor="start" x="158.5" y="-752" font-family="Helvetica,sans-Serif" font-size="10.00">+ operator=()</text>
<text text-anchor="start" x="158.5" y="-741" font-family="Helvetica,sans-Serif" font-size="10.00">+ setID()</text>
<text text-anchor="start" x="158.5" y="-730" font-family="Helvetica,sans-Serif" font-size="10.00">+ getID()</text>
</a>
</g>
</g>
<!-- Node4&#45;&gt;Node1 -->
<g id="edge3" class="edge">
<title>Node4&#45;&gt;Node1</title>
<path fill="none" stroke="midnightblue" d="M183.25,-712.84C180.67,-702.41 177.97,-691.54 175.25,-680.57"/>
<polygon fill="none" stroke="midnightblue" points="179.89,-713.82 185.69,-722.69 186.68,-712.14 179.89,-713.82"/>
</g>
<!-- Node7 -->
<g id="node7" class="node">
<title>Node7</title>
<g id="a_node7"><a xlink:href="classcie_1_1gl_1_1GenericPartScene.html" target="_top" xlink:title="Convenience Scene class.">
<polygon fill="white" stroke="black" points="67,-127.5 67,-217.5 204,-217.5 204,-127.5 67,-127.5"/>
<text text-anchor="middle" x="135.5" y="-205.5" font-family="Helvetica,sans-Serif" font-size="10.00">cie::gl::GenericPartScene</text>
<polyline fill="none" stroke="black" points="67,-198.5 204,-198.5 "/>
<text text-anchor="start" x="75" y="-186.5" font-family="Helvetica,sans-Serif" font-size="10.00"># _drawMode</text>
<polyline fill="none" stroke="black" points="67,-179.5 204,-179.5 "/>
<text text-anchor="start" x="75" y="-167.5" font-family="Helvetica,sans-Serif" font-size="10.00">+ GenericPartScene()</text>
<text text-anchor="start" x="75" y="-156.5" font-family="Helvetica,sans-Serif" font-size="10.00">+ GenericPartScene()</text>
<text text-anchor="start" x="75" y="-145.5" font-family="Helvetica,sans-Serif" font-size="10.00">+ setDrawMode()</text>
<text text-anchor="start" x="75" y="-134.5" font-family="Helvetica,sans-Serif" font-size="10.00"># update_impl()</text>
</a>
</g>
</g>
<!-- Node6&#45;&gt;Node7 -->
<g id="edge6" class="edge">
<title>Node6&#45;&gt;Node7</title>
<path fill="none" stroke="midnightblue" d="M177.72,-245.49C172.16,-236 166.58,-226.48 161.38,-217.62"/>
<polygon fill="none" stroke="midnightblue" points="174.74,-247.32 182.82,-254.17 180.78,-243.77 174.74,-247.32"/>
</g>
<!-- Node9 -->
<g id="node9" class="node">
<title>Node9</title>
<g id="a_node9"><a xlink:href="classcie_1_1gl_1_1Triangulated3DPartScene.html" target="_top" xlink:title=" ">
<polygon fill="white" stroke="black" points="222,-127.5 222,-217.5 379,-217.5 379,-127.5 222,-127.5"/>
<text text-anchor="start" x="230" y="-205.5" font-family="Helvetica,sans-Serif" font-size="10.00">cie::gl::Triangulated3DPart</text>
<text text-anchor="middle" x="300.5" y="-194.5" font-family="Helvetica,sans-Serif" font-size="10.00">Scene</text>
<polyline fill="none" stroke="black" points="222,-187.5 379,-187.5 "/>
<text text-anchor="middle" x="300.5" y="-175.5" font-family="Helvetica,sans-Serif" font-size="10.00"> </text>
<polyline fill="none" stroke="black" points="222,-168.5 379,-168.5 "/>
<text text-anchor="start" x="230" y="-156.5" font-family="Helvetica,sans-Serif" font-size="10.00">+ Triangulated3DPartScene()</text>
<text text-anchor="start" x="230" y="-145.5" font-family="Helvetica,sans-Serif" font-size="10.00"># update_impl()</text>
<text text-anchor="start" x="230" y="-134.5" font-family="Helvetica,sans-Serif" font-size="10.00"># Triangulated3DPartScene()</text>
</a>
</g>
</g>
<!-- Node6&#45;&gt;Node9 -->
<g id="edge8" class="edge">
<title>Node6&#45;&gt;Node9</title>
<path fill="none" stroke="midnightblue" d="M258.78,-245.49C264.28,-236 269.8,-226.48 274.93,-217.62"/>
<polygon fill="none" stroke="midnightblue" points="255.74,-243.76 253.75,-254.17 261.79,-247.27 255.74,-243.76"/>
</g>
<!-- Node8 -->
<g id="node8" class="node">
<title>Node8</title>
<g id="a_node8"><a xlink:href="classcie_1_1gl_1_1Axes3DScene.html" target="_top" xlink:title=" ">
<polygon fill="white" stroke="black" points="67,-0.5 67,-90.5 204,-90.5 204,-0.5 67,-0.5"/>
<text text-anchor="middle" x="135.5" y="-78.5" font-family="Helvetica,sans-Serif" font-size="10.00">cie::gl::Axes3DScene</text>
<polyline fill="none" stroke="black" points="67,-71.5 204,-71.5 "/>
<text text-anchor="start" x="75" y="-59.5" font-family="Helvetica,sans-Serif" font-size="10.00"># _p_axes</text>
<text text-anchor="start" x="75" y="-48.5" font-family="Helvetica,sans-Serif" font-size="10.00"># _box</text>
<text text-anchor="start" x="75" y="-37.5" font-family="Helvetica,sans-Serif" font-size="10.00"># _transformationMatrix</text>
<polyline fill="none" stroke="black" points="67,-30.5 204,-30.5 "/>
<text text-anchor="start" x="75" y="-18.5" font-family="Helvetica,sans-Serif" font-size="10.00">+ Axes3DScene()</text>
<text text-anchor="start" x="75" y="-7.5" font-family="Helvetica,sans-Serif" font-size="10.00"># update_impl()</text>
</a>
</g>
</g>
<!-- Node7&#45;&gt;Node8 -->
<g id="edge7" class="edge">
<title>Node7&#45;&gt;Node8</title>
<path fill="none" stroke="midnightblue" d="M135.5,-117.16C135.5,-108.28 135.5,-99.18 135.5,-90.59"/>
<polygon fill="none" stroke="midnightblue" points="132,-117.43 135.5,-127.43 139,-117.43 132,-117.43"/>
</g>
</g>
</svg>
        <g id="navigator" transform="translate(0 0)" fill="#404254">
                <rect fill="#f2f5e9" fill-opacity="0.5" stroke="#606060" stroke-width=".5" x="0" y="0" width="60" height="60"/>
                <use id="zoomplus" xlink:href="#zoomPlus" x="17" y="9" onmousedown="handleZoom(evt,'in')"/>
                <use id="zoomminus" xlink:href="#zoomMin" x="42" y="9" onmousedown="handleZoom(evt,'out')"/>
                <use id="reset" xlink:href="#resetDef" x="30" y="36" onmousedown="handleReset()"/>
                <g id="arrowUp" xlink:href="#dirArrow" transform="translate(30 24)" onmousedown="handlePan(0,-1)">
                  <use xlink:href="#rim" fill="#404040">
                        <set attributeName="fill" to="#808080" begin="arrowUp.mouseover" end="arrowUp.mouseout"/>
                  </use>
                  <path fill="none" stroke="white" stroke-width="1.5" d="M0,-3.0v7 M-2.5,-0.5L0,-3.0L2.5,-0.5"/>
                </g>
                <g id="arrowRight" xlink:href="#dirArrow" transform="rotate(90) translate(36 -43)" onmousedown="handlePan(1,0)">
                  <use xlink:href="#rim" fill="#404040">
                        <set attributeName="fill" to="#808080" begin="arrowRight.mouseover" end="arrowRight.mouseout"/>
                  </use>
                  <path fill="none" stroke="white" stroke-width="1.5" d="M0,-3.0v7 M-2.5,-0.5L0,-3.0L2.5,-0.5"/>
                </g>
                <g id="arrowDown" xlink:href="#dirArrow" transform="rotate(180) translate(-30 -48)" onmousedown="handlePan(0,1)">
                  <use xlink:href="#rim" fill="#404040">
                        <set attributeName="fill" to="#808080" begin="arrowDown.mouseover" end="arrowDown.mouseout"/>
                  </use>
                  <path fill="none" stroke="white" stroke-width="1.5" d="M0,-3.0v7 M-2.5,-0.5L0,-3.0L2.5,-0.5"/>
                </g>
                <g id="arrowLeft" xlink:href="#dirArrow" transform="rotate(270) translate(-36 17)" onmousedown="handlePan(-1,0)">
                  <use xlink:href="#rim" fill="#404040">
                        <set attributeName="fill" to="#808080" begin="arrowLeft.mouseover" end="arrowLeft.mouseout"/>
                  </use>
                  <path fill="none" stroke="white" stroke-width="1.5" d="M0,-3.0v7 M-2.5,-0.5L0,-3.0L2.5,-0.5"/>
                </g>
        </g>
        <svg viewBox="0 0 15 15" width="100%" height="30px" preserveAspectRatio="xMaxYMin meet">
         <g id="arrow_out" transform="scale(0.3 0.3)">
          <a xlink:href="classcie_1_1gl_1_1Scene__inherit__graph_org.svg" target="_base">
           <rect id="button" ry="5" rx="5" y="6" x="6" height="38" width="38"
                fill="#f2f5e9" fill-opacity="0.5" stroke="#606060" stroke-width="1.0"/>
           <path id="arrow"
             d="M 11.500037,31.436501 C 11.940474,20.09759 22.043105,11.32322 32.158766,21.979434 L 37.068811,17.246167 C 37.068811,17.246167 37.088388,32 37.088388,32 L 22.160133,31.978069 C 22.160133,31.978069 26.997745,27.140456 26.997745,27.140456 C 18.528582,18.264221 13.291696,25.230495 11.500037,31.436501 z"
             style="fill:#404040;"/>
          </a>
         </g>
        </svg>
</svg>
