<?xml version="1.0" encoding="UTF-8" standalone="no"?>
<!DOCTYPE svg PUBLIC "-//W3C//DTD SVG 1.1//EN"
 "http://www.w3.org/Graphics/SVG/1.1/DTD/svg11.dtd">
<!-- Generated by graphviz version 2.43.0 (0)
 -->
<!-- Title: cie::gl::FloatMat4GLUniform Pages: 1 -->
<!--zoomable 707 -->
<svg id="main" version="1.1" xmlns="http://www.w3.org/2000/svg" xmlns:xlink="http://www.w3.org/1999/xlink" xml:space="preserve" onload="init(evt)">
<style type="text/css"><![CDATA[
.edge:hover path { stroke: red; }
.edge:hover polygon { stroke: red; fill: red; }
]]></style>
<script type="text/javascript"><![CDATA[
var edges = document.getElementsByTagName('g');
if (edges && edges.length) {
  for (var i=0;i<edges.length;i++) {
    if (edges[i].id.substr(0,4)=='edge') {
      edges[i].setAttribute('class','edge');
    }
  }
}
]]></script>
        <defs>
                <circle id="rim" cx="0" cy="0" r="7"/>
                <circle id="rim2" cx="0" cy="0" r="3.5"/>
                <g id="zoomPlus">
                        <use xlink:href="#rim" fill="#404040">
                                <set attributeName="fill" to="#808080" begin="zoomplus.mouseover" end="zoomplus.mouseout"/>
                        </use>
                        <path d="M-4,0h8M0,-4v8" fill="none" stroke="white" stroke-width="1.5" pointer-events="none"/>
                </g>
                <g id="zoomMin">
                        <use xlink:href="#rim" fill="#404040">
                                <set attributeName="fill" to="#808080" begin="zoomminus.mouseover" end="zoomminus.mouseout"/>
                        </use>
                        <path d="M-4,0h8" fill="none" stroke="white" stroke-width="1.5" pointer-events="none"/>
                </g>
                <g id="dirArrow">
                        <path fill="none" stroke="white" stroke-width="1.5" d="M0,-3.0v7 M-2.5,-0.5L0,-3.0L2.5,-0.5"/>
                </g>
               <g id="resetDef">
                       <use xlink:href="#rim2" fill="#404040">
                               <set attributeName="fill" to="#808080" begin="reset.mouseover" end="reset.mouseout"/>
                       </use>
               </g>
        </defs>

<script type="text/javascript">
var viewWidth = 544;
var viewHeight = 707;
var sectionId = 'dynsection-1';
</script>
<script xlink:href="svgpan.js"/>
<svg id="graph" class="graph">
<g id="viewport">
<title>cie::gl::FloatMat4GLUniform</title>
<polygon fill="white" stroke="transparent" points="-4,4 -4,-703 539.5,-703 539.5,4 -4,4"/>
<!-- Node1 -->
<g id="node1" class="node">
<title>Node1</title>
<g id="a_node1"><a xlink:title=" ">
<polygon fill="#bfbfbf" stroke="black" points="238.5,-0.5 238.5,-68.5 392.5,-68.5 392.5,-0.5 238.5,-0.5"/>
<text text-anchor="middle" x="315.5" y="-56.5" font-family="Helvetica,sans-Serif" font-size="10.00">cie::gl::FloatMat4GLUniform</text>
<polyline fill="none" stroke="black" points="238.5,-49.5 392.5,-49.5 "/>
<text text-anchor="middle" x="315.5" y="-37.5" font-family="Helvetica,sans-Serif" font-size="10.00"> </text>
<polyline fill="none" stroke="black" points="238.5,-30.5 392.5,-30.5 "/>
<text text-anchor="start" x="246.5" y="-18.5" font-family="Helvetica,sans-Serif" font-size="10.00">+ FloatMat4GLUniform()</text>
<text text-anchor="start" x="246.5" y="-7.5" font-family="Helvetica,sans-Serif" font-size="10.00">+ write()</text>
</a>
</g>
</g>
<!-- Node2 -->
<g id="node2" class="node">
<title>Node2</title>
<g id="a_node2"><a xlink:href="classcie_1_1gl_1_1GLUniform.html" target="_top" xlink:title="Interface for loading uniforms into GL.">
<polygon fill="white" stroke="black" points="263.5,-106.5 263.5,-185.5 367.5,-185.5 367.5,-106.5 263.5,-106.5"/>
<text text-anchor="middle" x="315.5" y="-173.5" font-family="Helvetica,sans-Serif" font-size="10.00">cie::gl::GLUniform</text>
<polyline fill="none" stroke="black" points="263.5,-166.5 367.5,-166.5 "/>
<text text-anchor="middle" x="315.5" y="-154.5" font-family="Helvetica,sans-Serif" font-size="10.00"> </text>
<polyline fill="none" stroke="black" points="263.5,-147.5 367.5,-147.5 "/>
<text text-anchor="start" x="271.5" y="-135.5" font-family="Helvetica,sans-Serif" font-size="10.00">+ GLUniform()</text>
<text text-anchor="start" x="271.5" y="-124.5" font-family="Helvetica,sans-Serif" font-size="10.00">+ write()</text>
<text text-anchor="start" x="271.5" y="-113.5" font-family="Helvetica,sans-Serif" font-size="10.00">+ properties()</text>
</a>
</g>
</g>
<!-- Node2&#45;&gt;Node1 -->
<g id="edge1" class="edge">
<title>Node2&#45;&gt;Node1</title>
<path fill="none" stroke="midnightblue" d="M315.5,-96.38C315.5,-87.02 315.5,-77.41 315.5,-68.67"/>
<polygon fill="none" stroke="midnightblue" points="312,-96.39 315.5,-106.39 319,-96.39 312,-96.39"/>
</g>
<!-- Node3 -->
<g id="node3" class="node">
<title>Node3</title>
<g id="a_node3"><a xlink:href="classcie_1_1gl_1_1Shader_1_1Uniform.html" target="_top" xlink:title="Immutable uniform descriptor (for any shader).">
<polygon fill="white" stroke="black" points="111,-266.5 111,-345.5 242,-345.5 242,-266.5 111,-266.5"/>
<text text-anchor="middle" x="176.5" y="-333.5" font-family="Helvetica,sans-Serif" font-size="10.00">cie::gl::Shader::Uniform</text>
<polyline fill="none" stroke="black" points="111,-326.5 242,-326.5 "/>
<text text-anchor="middle" x="176.5" y="-314.5" font-family="Helvetica,sans-Serif" font-size="10.00"> </text>
<polyline fill="none" stroke="black" points="111,-307.5 242,-307.5 "/>
<text text-anchor="start" x="119" y="-295.5" font-family="Helvetica,sans-Serif" font-size="10.00">+ Uniform()</text>
<text text-anchor="start" x="119" y="-284.5" font-family="Helvetica,sans-Serif" font-size="10.00">+ size()</text>
<text text-anchor="start" x="119" y="-273.5" font-family="Helvetica,sans-Serif" font-size="10.00">+ type()</text>
</a>
</g>
</g>
<!-- Node3&#45;&gt;Node2 -->
<g id="edge2" class="edge">
<title>Node3&#45;&gt;Node2</title>
<path fill="none" stroke="midnightblue" d="M217.27,-258.66C237.72,-235.41 262.2,-207.58 281.61,-185.53"/>
<polygon fill="none" stroke="midnightblue" points="214.48,-256.53 210.5,-266.35 219.74,-261.15 214.48,-256.53"/>
</g>
<!-- Node4 -->
<g id="node4" class="node">
<title>Node4</title>
<g id="a_node4"><a target="_parent" xlink:href="../../../cieutils/docs/html/classcie_1_1utils_1_1NamedObject.html" xlink:title=" ">
<polygon fill="white" stroke="black" points="0,-437.5 0,-593.5 131,-593.5 131,-437.5 0,-437.5"/>
<text text-anchor="middle" x="65.5" y="-581.5" font-family="Helvetica,sans-Serif" font-size="10.00">cie::utils::NamedObject</text>
<polyline fill="none" stroke="black" points="0,-574.5 131,-574.5 "/>
<text text-anchor="middle" x="65.5" y="-562.5" font-family="Helvetica,sans-Serif" font-size="10.00"> </text>
<polyline fill="none" stroke="black" points="0,-555.5 131,-555.5 "/>
<text text-anchor="start" x="8" y="-543.5" font-family="Helvetica,sans-Serif" font-size="10.00">+ NamedObject()</text>
<text text-anchor="start" x="8" y="-532.5" font-family="Helvetica,sans-Serif" font-size="10.00">+ NamedObject()</text>
<text text-anchor="start" x="8" y="-521.5" font-family="Helvetica,sans-Serif" font-size="10.00">+ NamedObject()</text>
<text text-anchor="start" x="8" y="-510.5" font-family="Helvetica,sans-Serif" font-size="10.00">+ NamedObject()</text>
<text text-anchor="start" x="8" y="-499.5" font-family="Helvetica,sans-Serif" font-size="10.00">+ operator=()</text>
<text text-anchor="start" x="8" y="-488.5" font-family="Helvetica,sans-Serif" font-size="10.00">+ operator=()</text>
<text text-anchor="start" x="8" y="-477.5" font-family="Helvetica,sans-Serif" font-size="10.00">+ name()</text>
<text text-anchor="start" x="8" y="-466.5" font-family="Helvetica,sans-Serif" font-size="10.00">+ setName()</text>
<text text-anchor="start" x="8" y="-455.5" font-family="Helvetica,sans-Serif" font-size="10.00">+ setName()</text>
<text text-anchor="start" x="8" y="-444.5" font-family="Helvetica,sans-Serif" font-size="10.00">+ ~NamedObject()</text>
</a>
</g>
</g>
<!-- Node4&#45;&gt;Node3 -->
<g id="edge3" class="edge">
<title>Node4&#45;&gt;Node3</title>
<path fill="none" stroke="midnightblue" d="M111.57,-428.37C126.97,-399.59 143.36,-368.94 155.83,-345.65"/>
<polygon fill="none" stroke="midnightblue" points="108.46,-426.77 106.83,-437.23 114.64,-430.07 108.46,-426.77"/>
</g>
<!-- Node5 -->
<g id="node5" class="node">
<title>Node5</title>
<g id="a_node5"><a xlink:title=" ">
<polygon fill="white" stroke="#bfbfbf" points="149,-487 149,-544 194,-544 194,-487 149,-487"/>
<text text-anchor="middle" x="171.5" y="-532" font-family="Helvetica,sans-Serif" font-size="10.00">size_t</text>
<polyline fill="none" stroke="#bfbfbf" points="149,-525 194,-525 "/>
<text text-anchor="middle" x="171.5" y="-513" font-family="Helvetica,sans-Serif" font-size="10.00"> </text>
<polyline fill="none" stroke="#bfbfbf" points="149,-506 194,-506 "/>
<text text-anchor="middle" x="171.5" y="-494" font-family="Helvetica,sans-Serif" font-size="10.00"> </text>
</a>
</g>
</g>
<!-- Node5&#45;&gt;Node3 -->
<g id="edge4" class="edge">
<title>Node5&#45;&gt;Node3</title>
<path fill="none" stroke="#404040" d="M172.16,-486.95C172.96,-454.08 174.3,-398.47 175.28,-357.75"/>
<polygon fill="none" stroke="#404040" points="175.28,-357.63 171.43,-351.53 175.57,-345.63 179.42,-351.73 175.28,-357.63"/>
<text text-anchor="middle" x="193" y="-405.5" font-family="Helvetica,sans-Serif" font-size="10.00"> #_size</text>
</g>
<!-- Node6 -->
<g id="node6" class="node">
<title>Node6</title>
<g id="a_node6"><a xlink:title=" ">
<polygon fill="white" stroke="#bfbfbf" points="212.5,-487 212.5,-544 256.5,-544 256.5,-487 212.5,-487"/>
<text text-anchor="middle" x="234.5" y="-532" font-family="Helvetica,sans-Serif" font-size="10.00">string</text>
<polyline fill="none" stroke="#bfbfbf" points="212.5,-525 256.5,-525 "/>
<text text-anchor="middle" x="234.5" y="-513" font-family="Helvetica,sans-Serif" font-size="10.00"> </text>
<polyline fill="none" stroke="#bfbfbf" points="212.5,-506 256.5,-506 "/>
<text text-anchor="middle" x="234.5" y="-494" font-family="Helvetica,sans-Serif" font-size="10.00"> </text>
</a>
</g>
</g>
<!-- Node6&#45;&gt;Node3 -->
<g id="edge5" class="edge">
<title>Node6&#45;&gt;Node3</title>
<path fill="none" stroke="#404040" d="M230.85,-486.6C227.33,-462.57 221.24,-427.09 212.5,-397 208.69,-383.89 203.68,-370.04 198.61,-357.25"/>
<polygon fill="none" stroke="#404040" points="198.49,-356.96 192.52,-352.91 193.97,-345.84 199.93,-349.89 198.49,-356.96"/>
<text text-anchor="middle" x="238" y="-405.5" font-family="Helvetica,sans-Serif" font-size="10.00"> #_type</text>
</g>
<!-- Node7 -->
<g id="node7" class="node">
<title>Node7</title>
<g id="a_node7"><a target="_parent" xlink:href="../../../cieutils/docs/html/classcie_1_1utils_1_1IDObject.html" xlink:title=" ">
<polygon fill="white" stroke="black" points="262.5,-233.5 262.5,-378.5 368.5,-378.5 368.5,-233.5 262.5,-233.5"/>
<text text-anchor="start" x="270.5" y="-366.5" font-family="Helvetica,sans-Serif" font-size="10.00">cie::utils::IDObject</text>
<text text-anchor="middle" x="315.5" y="-355.5" font-family="Helvetica,sans-Serif" font-size="10.00">&lt; GLint &gt;</text>
<polyline fill="none" stroke="black" points="262.5,-348.5 368.5,-348.5 "/>
<text text-anchor="start" x="270.5" y="-336.5" font-family="Helvetica,sans-Serif" font-size="10.00"># _id</text>
<polyline fill="none" stroke="black" points="262.5,-329.5 368.5,-329.5 "/>
<text text-anchor="start" x="270.5" y="-317.5" font-family="Helvetica,sans-Serif" font-size="10.00">+ IDObject()</text>
<text text-anchor="start" x="270.5" y="-306.5" font-family="Helvetica,sans-Serif" font-size="10.00">+ IDObject()</text>
<text text-anchor="start" x="270.5" y="-295.5" font-family="Helvetica,sans-Serif" font-size="10.00">+ IDObject()</text>
<text text-anchor="start" x="270.5" y="-284.5" font-family="Helvetica,sans-Serif" font-size="10.00">+ IDObject()</text>
<text text-anchor="start" x="270.5" y="-273.5" font-family="Helvetica,sans-Serif" font-size="10.00">+ operator=()</text>
<text text-anchor="start" x="270.5" y="-262.5" font-family="Helvetica,sans-Serif" font-size="10.00">+ operator=()</text>
<text text-anchor="start" x="270.5" y="-251.5" font-family="Helvetica,sans-Serif" font-size="10.00">+ setID()</text>
<text text-anchor="start" x="270.5" y="-240.5" font-family="Helvetica,sans-Serif" font-size="10.00">+ getID()</text>
</a>
</g>
</g>
<!-- Node7&#45;&gt;Node2 -->
<g id="edge6" class="edge">
<title>Node7&#45;&gt;Node2</title>
<path fill="none" stroke="midnightblue" d="M315.5,-223.32C315.5,-210.13 315.5,-197.04 315.5,-185.52"/>
<polygon fill="none" stroke="midnightblue" points="312,-223.4 315.5,-233.4 319,-223.4 312,-223.4"/>
</g>
<!-- Node8 -->
<g id="node8" class="node">
<title>Node8</title>
<g id="a_node8"><a target="_parent" xlink:href="../../../cieutils/docs/html/classcie_1_1utils_1_1IDObject.html" xlink:title=" ">
<polygon fill="white" stroke="black" points="274.5,-443 274.5,-588 380.5,-588 380.5,-443 274.5,-443"/>
<text text-anchor="start" x="282.5" y="-576" font-family="Helvetica,sans-Serif" font-size="10.00">cie::utils::IDObject</text>
<text text-anchor="middle" x="327.5" y="-565" font-family="Helvetica,sans-Serif" font-size="10.00">&lt; class &gt;</text>
<polyline fill="none" stroke="black" points="274.5,-558 380.5,-558 "/>
<text text-anchor="middle" x="327.5" y="-546" font-family="Helvetica,sans-Serif" font-size="10.00"> </text>
<polyline fill="none" stroke="black" points="274.5,-539 380.5,-539 "/>
<text text-anchor="start" x="282.5" y="-527" font-family="Helvetica,sans-Serif" font-size="10.00">+ IDObject()</text>
<text text-anchor="start" x="282.5" y="-516" font-family="Helvetica,sans-Serif" font-size="10.00">+ IDObject()</text>
<text text-anchor="start" x="282.5" y="-505" font-family="Helvetica,sans-Serif" font-size="10.00">+ IDObject()</text>
<text text-anchor="start" x="282.5" y="-494" font-family="Helvetica,sans-Serif" font-size="10.00">+ IDObject()</text>
<text text-anchor="start" x="282.5" y="-483" font-family="Helvetica,sans-Serif" font-size="10.00">+ operator=()</text>
<text text-anchor="start" x="282.5" y="-472" font-family="Helvetica,sans-Serif" font-size="10.00">+ operator=()</text>
<text text-anchor="start" x="282.5" y="-461" font-family="Helvetica,sans-Serif" font-size="10.00">+ setID()</text>
<text text-anchor="start" x="282.5" y="-450" font-family="Helvetica,sans-Serif" font-size="10.00">+ getID()</text>
</a>
</g>
</g>
<!-- Node8&#45;&gt;Node7 -->
<g id="edge7" class="edge">
<title>Node8&#45;&gt;Node7</title>
<path fill="none" stroke="orange" d="M322.76,-432.46C321.73,-414.69 320.65,-396.04 319.65,-378.7"/>
<polygon fill="orange" stroke="orange" points="319.28,-433.02 323.35,-442.8 326.27,-432.61 319.28,-433.02"/>
<text text-anchor="middle" x="348.5" y="-405.5" font-family="Helvetica,sans-Serif" font-size="10.00"> &lt; GLint &gt;</text>
</g>
<!-- Node9 -->
<g id="node9" class="node">
<title>Node9</title>
<g id="a_node9"><a xlink:title=" ">
<polygon fill="white" stroke="#bfbfbf" points="311,-641.5 311,-698.5 344,-698.5 344,-641.5 311,-641.5"/>
<text text-anchor="middle" x="327.5" y="-686.5" font-family="Helvetica,sans-Serif" font-size="10.00">TID</text>
<polyline fill="none" stroke="#bfbfbf" points="311,-679.5 344,-679.5 "/>
<text text-anchor="middle" x="327.5" y="-667.5" font-family="Helvetica,sans-Serif" font-size="10.00"> </text>
<polyline fill="none" stroke="#bfbfbf" points="311,-660.5 344,-660.5 "/>
<text text-anchor="middle" x="327.5" y="-648.5" font-family="Helvetica,sans-Serif" font-size="10.00"> </text>
</a>
</g>
</g>
<!-- Node9&#45;&gt;Node8 -->
<g id="edge8" class="edge">
<title>Node9&#45;&gt;Node8</title>
<path fill="none" stroke="#404040" d="M327.5,-641.38C327.5,-629.53 327.5,-614.99 327.5,-600.07"/>
<polygon fill="none" stroke="#404040" points="327.5,-600.07 323.5,-594.07 327.5,-588.07 331.5,-594.07 327.5,-600.07"/>
<text text-anchor="middle" x="340.5" y="-615" font-family="Helvetica,sans-Serif" font-size="10.00"> #_id</text>
</g>
<!-- Node10 -->
<g id="node10" class="node">
<title>Node10</title>
<g id="a_node10"><a xlink:title=" ">
<polygon fill="white" stroke="#bfbfbf" points="386.5,-272 386.5,-340 490.5,-340 490.5,-272 386.5,-272"/>
<text text-anchor="start" x="394.5" y="-328" font-family="Helvetica,sans-Serif" font-size="10.00">cie::gl::GLUniform</text>
<text text-anchor="middle" x="438.5" y="-317" font-family="Helvetica,sans-Serif" font-size="10.00">::Properties</text>
<polyline fill="none" stroke="#bfbfbf" points="386.5,-310 490.5,-310 "/>
<text text-anchor="middle" x="438.5" y="-298" font-family="Helvetica,sans-Serif" font-size="10.00"> </text>
<polyline fill="none" stroke="#bfbfbf" points="386.5,-291 490.5,-291 "/>
<text text-anchor="middle" x="438.5" y="-279" font-family="Helvetica,sans-Serif" font-size="10.00"> </text>
</a>
</g>
</g>
<!-- Node10&#45;&gt;Node2 -->
<g id="edge9" class="edge">
<title>Node10&#45;&gt;Node2</title>
<path fill="none" stroke="#404040" d="M412.72,-271.88C395.43,-249.67 372.38,-220.06 353.06,-195.25"/>
<polygon fill="none" stroke="#404040" points="352.96,-195.12 346.11,-192.84 345.59,-185.65 352.43,-187.92 352.96,-195.12"/>
<text text-anchor="middle" x="400" y="-207" font-family="Helvetica,sans-Serif" font-size="10.00"> #_properties</text>
</g>
<!-- Node11 -->
<g id="node11" class="node">
<title>Node11</title>
<g id="a_node11"><a xlink:title=" ">
<polygon fill="white" stroke="#bfbfbf" points="408,-487 408,-544 465,-544 465,-487 408,-487"/>
<text text-anchor="middle" x="436.5" y="-532" font-family="Helvetica,sans-Serif" font-size="10.00">GLenum</text>
<polyline fill="none" stroke="#bfbfbf" points="408,-525 465,-525 "/>
<text text-anchor="middle" x="436.5" y="-513" font-family="Helvetica,sans-Serif" font-size="10.00"> </text>
<polyline fill="none" stroke="#bfbfbf" points="408,-506 465,-506 "/>
<text text-anchor="middle" x="436.5" y="-494" font-family="Helvetica,sans-Serif" font-size="10.00"> </text>
</a>
</g>
</g>
<!-- Node11&#45;&gt;Node10 -->
<g id="edge10" class="edge">
<title>Node11&#45;&gt;Node10</title>
<path fill="none" stroke="#404040" d="M436.77,-486.95C437.1,-452.58 437.67,-393.35 438.06,-352.28"/>
<polygon fill="none" stroke="#404040" points="438.06,-352.16 434.12,-346.12 438.18,-340.16 442.12,-346.2 438.06,-352.16"/>
<text text-anchor="middle" x="455.5" y="-405.5" font-family="Helvetica,sans-Serif" font-size="10.00"> +type</text>
</g>
<!-- Node12 -->
<g id="node12" class="node">
<title>Node12</title>
<g id="a_node12"><a xlink:title=" ">
<polygon fill="white" stroke="#bfbfbf" points="483.5,-487 483.5,-544 535.5,-544 535.5,-487 483.5,-487"/>
<text text-anchor="middle" x="509.5" y="-532" font-family="Helvetica,sans-Serif" font-size="10.00">GLsizei</text>
<polyline fill="none" stroke="#bfbfbf" points="483.5,-525 535.5,-525 "/>
<text text-anchor="middle" x="509.5" y="-513" font-family="Helvetica,sans-Serif" font-size="10.00"> </text>
<polyline fill="none" stroke="#bfbfbf" points="483.5,-506 535.5,-506 "/>
<text text-anchor="middle" x="509.5" y="-494" font-family="Helvetica,sans-Serif" font-size="10.00"> </text>
</a>
</g>
</g>
<!-- Node12&#45;&gt;Node10 -->
<g id="edge11" class="edge">
<title>Node12&#45;&gt;Node10</title>
<path fill="none" stroke="#404040" d="M502.73,-486.66C496.65,-462.65 487.07,-427.2 476.5,-397 471.24,-381.97 464.73,-365.86 458.59,-351.48"/>
<polygon fill="none" stroke="#404040" points="458.54,-351.38 452.49,-347.47 453.77,-340.37 459.83,-344.29 458.54,-351.38"/>
<text text-anchor="middle" x="504" y="-411" font-family="Helvetica,sans-Serif" font-size="10.00"> +length</text>
<text text-anchor="middle" x="504" y="-400" font-family="Helvetica,sans-Serif" font-size="10.00">+size</text>
</g>
</g>
</svg>
        <g id="navigator" transform="translate(0 0)" fill="#404254">
                <rect fill="#f2f5e9" fill-opacity="0.5" stroke="#606060" stroke-width=".5" x="0" y="0" width="60" height="60"/>
                <use id="zoomplus" xlink:href="#zoomPlus" x="17" y="9" onmousedown="handleZoom(evt,'in')"/>
                <use id="zoomminus" xlink:href="#zoomMin" x="42" y="9" onmousedown="handleZoom(evt,'out')"/>
                <use id="reset" xlink:href="#resetDef" x="30" y="36" onmousedown="handleReset()"/>
                <g id="arrowUp" xlink:href="#dirArrow" transform="translate(30 24)" onmousedown="handlePan(0,-1)">
                  <use xlink:href="#rim" fill="#404040">
                        <set attributeName="fill" to="#808080" begin="arrowUp.mouseover" end="arrowUp.mouseout"/>
                  </use>
                  <path fill="none" stroke="white" stroke-width="1.5" d="M0,-3.0v7 M-2.5,-0.5L0,-3.0L2.5,-0.5"/>
                </g>
                <g id="arrowRight" xlink:href="#dirArrow" transform="rotate(90) translate(36 -43)" onmousedown="handlePan(1,0)">
                  <use xlink:href="#rim" fill="#404040">
                        <set attributeName="fill" to="#808080" begin="arrowRight.mouseover" end="arrowRight.mouseout"/>
                  </use>
                  <path fill="none" stroke="white" stroke-width="1.5" d="M0,-3.0v7 M-2.5,-0.5L0,-3.0L2.5,-0.5"/>
                </g>
                <g id="arrowDown" xlink:href="#dirArrow" transform="rotate(180) translate(-30 -48)" onmousedown="handlePan(0,1)">
                  <use xlink:href="#rim" fill="#404040">
                        <set attributeName="fill" to="#808080" begin="arrowDown.mouseover" end="arrowDown.mouseout"/>
                  </use>
                  <path fill="none" stroke="white" stroke-width="1.5" d="M0,-3.0v7 M-2.5,-0.5L0,-3.0L2.5,-0.5"/>
                </g>
                <g id="arrowLeft" xlink:href="#dirArrow" transform="rotate(270) translate(-36 17)" onmousedown="handlePan(-1,0)">
                  <use xlink:href="#rim" fill="#404040">
                        <set attributeName="fill" to="#808080" begin="arrowLeft.mouseover" end="arrowLeft.mouseout"/>
                  </use>
                  <path fill="none" stroke="white" stroke-width="1.5" d="M0,-3.0v7 M-2.5,-0.5L0,-3.0L2.5,-0.5"/>
                </g>
        </g>
        <svg viewBox="0 0 15 15" width="100%" height="30px" preserveAspectRatio="xMaxYMin meet">
         <g id="arrow_out" transform="scale(0.3 0.3)">
          <a xlink:href="classcie_1_1gl_1_1FloatMat4GLUniform__coll__graph_org.svg" target="_base">
           <rect id="button" ry="5" rx="5" y="6" x="6" height="38" width="38"
                fill="#f2f5e9" fill-opacity="0.5" stroke="#606060" stroke-width="1.0"/>
           <path id="arrow"
             d="M 11.500037,31.436501 C 11.940474,20.09759 22.043105,11.32322 32.158766,21.979434 L 37.068811,17.246167 C 37.068811,17.246167 37.088388,32 37.088388,32 L 22.160133,31.978069 C 22.160133,31.978069 26.997745,27.140456 26.997745,27.140456 C 18.528582,18.264221 13.291696,25.230495 11.500037,31.436501 z"
             style="fill:#404040;"/>
          </a>
         </g>
        </svg>
</svg>
