<?xml version="1.0" encoding="UTF-8" standalone="no"?>
<!DOCTYPE svg PUBLIC "-//W3C//DTD SVG 1.1//EN"
 "http://www.w3.org/Graphics/SVG/1.1/DTD/svg11.dtd">
<!-- Generated by graphviz version 2.43.0 (0)
 -->
<!-- Title: cie::gl::PerspectiveProjection Pages: 1 -->
<svg width="166pt" height="270pt"
 viewBox="0.00 0.00 166.00 270.00" xmlns="http://www.w3.org/2000/svg" xmlns:xlink="http://www.w3.org/1999/xlink">
<g id="graph0" class="graph" transform="scale(1 1) rotate(0) translate(4 266)">
<title>cie::gl::PerspectiveProjection</title>
<polygon fill="white" stroke="transparent" points="-4,4 -4,-266 162,-266 162,4 -4,4"/>
<!-- Node1 -->
<g id="node1" class="node">
<title>Node1</title>
<g id="a_node1"><a xlink:title=" ">
<polygon fill="#bfbfbf" stroke="black" points="0,-0.5 0,-79.5 158,-79.5 158,-0.5 0,-0.5"/>
<text text-anchor="middle" x="79" y="-67.5" font-family="Helvetica,sans-Serif" font-size="10.00">cie::gl::PerspectiveProjection</text>
<polyline fill="none" stroke="black" points="0,-60.5 158,-60.5 "/>
<text text-anchor="middle" x="79" y="-48.5" font-family="Helvetica,sans-Serif" font-size="10.00"> </text>
<polyline fill="none" stroke="black" points="0,-41.5 158,-41.5 "/>
<text text-anchor="start" x="8" y="-29.5" font-family="Helvetica,sans-Serif" font-size="10.00"># zoom_impl()</text>
<text text-anchor="start" x="8" y="-18.5" font-family="Helvetica,sans-Serif" font-size="10.00"># updateProjectionMatrix</text>
<text text-anchor="start" x="8" y="-7.5" font-family="Helvetica,sans-Serif" font-size="10.00">_impl()</text>
</a>
</g>
</g>
<!-- Node2 -->
<g id="node2" class="node">
<title>Node2</title>
<g id="a_node2"><a xlink:href="classcie_1_1gl_1_1ProjectionPolicy.html" target="_top" xlink:title=" ">
<polygon fill="white" stroke="black" points="8,-116.5 8,-261.5 150,-261.5 150,-116.5 8,-116.5"/>
<text text-anchor="middle" x="79" y="-249.5" font-family="Helvetica,sans-Serif" font-size="10.00">cie::gl::ProjectionPolicy</text>
<polyline fill="none" stroke="black" points="8,-242.5 150,-242.5 "/>
<text text-anchor="start" x="16" y="-230.5" font-family="Helvetica,sans-Serif" font-size="10.00"># _projectionMatrix</text>
<text text-anchor="start" x="16" y="-219.5" font-family="Helvetica,sans-Serif" font-size="10.00"># _clippingPlanes</text>
<text text-anchor="start" x="16" y="-208.5" font-family="Helvetica,sans-Serif" font-size="10.00"># _aspectRatio</text>
<text text-anchor="start" x="16" y="-197.5" font-family="Helvetica,sans-Serif" font-size="10.00"># _fieldOfView</text>
<polyline fill="none" stroke="black" points="8,-190.5 150,-190.5 "/>
<text text-anchor="start" x="16" y="-178.5" font-family="Helvetica,sans-Serif" font-size="10.00"># ProjectionPolicy()</text>
<text text-anchor="start" x="16" y="-167.5" font-family="Helvetica,sans-Serif" font-size="10.00"># ProjectionPolicy()</text>
<text text-anchor="start" x="16" y="-156.5" font-family="Helvetica,sans-Serif" font-size="10.00"># ProjectionPolicy()</text>
<text text-anchor="start" x="16" y="-145.5" font-family="Helvetica,sans-Serif" font-size="10.00"># zoom_impl()</text>
<text text-anchor="start" x="16" y="-134.5" font-family="Helvetica,sans-Serif" font-size="10.00"># updateProjectionMatrix</text>
<text text-anchor="start" x="16" y="-123.5" font-family="Helvetica,sans-Serif" font-size="10.00">_impl()</text>
</a>
</g>
</g>
<!-- Node2&#45;&gt;Node1 -->
<g id="edge1" class="edge">
<title>Node2&#45;&gt;Node1</title>
<path fill="none" stroke="midnightblue" d="M79,-105.95C79,-96.9 79,-88.02 79,-79.87"/>
<polygon fill="none" stroke="midnightblue" points="75.5,-106.22 79,-116.22 82.5,-106.22 75.5,-106.22"/>
</g>
</g>
</svg>
