<?xml version="1.0" encoding="UTF-8" standalone="no"?>
<!DOCTYPE svg PUBLIC "-//W3C//DTD SVG 1.1//EN"
 "http://www.w3.org/Graphics/SVG/1.1/DTD/svg11.dtd">
<!-- Generated by graphviz version 2.43.0 (0)
 -->
<!-- Title: modules.glmesh.meshvisual.TriangleMeshVisual Pages: 1 -->
<svg width="168pt" height="193pt"
 viewBox="0.00 0.00 168.00 193.00" xmlns="http://www.w3.org/2000/svg" xmlns:xlink="http://www.w3.org/1999/xlink">
<g id="graph0" class="graph" transform="scale(1 1) rotate(0) translate(4 189)">
<title>modules.glmesh.meshvisual.TriangleMeshVisual</title>
<polygon fill="white" stroke="transparent" points="-4,4 -4,-189 164,-189 164,4 -4,4"/>
<!-- Node1 -->
<g id="node1" class="node">
<title>Node1</title>
<g id="a_node1"><a xlink:title=" ">
<polygon fill="#bfbfbf" stroke="black" points="0,-0.5 0,-90.5 160,-90.5 160,-0.5 0,-0.5"/>
<text text-anchor="start" x="8" y="-78.5" font-family="Helvetica,sans-Serif" font-size="10.00">modules.glmesh.meshvisual.</text>
<text text-anchor="middle" x="80" y="-67.5" font-family="Helvetica,sans-Serif" font-size="10.00">TriangleMeshVisual</text>
<polyline fill="none" stroke="black" points="0,-60.5 160,-60.5 "/>
<text text-anchor="middle" x="80" y="-48.5" font-family="Helvetica,sans-Serif" font-size="10.00"> </text>
<polyline fill="none" stroke="black" points="0,-41.5 160,-41.5 "/>
<text text-anchor="start" x="8" y="-29.5" font-family="Helvetica,sans-Serif" font-size="10.00">+ __init__()</text>
<text text-anchor="start" x="8" y="-18.5" font-family="Helvetica,sans-Serif" font-size="10.00">+ updateMesh()</text>
<text text-anchor="start" x="8" y="-7.5" font-family="Helvetica,sans-Serif" font-size="10.00">+ updateLight()</text>
</a>
</g>
</g>
<!-- Node2 -->
<g id="node2" class="node">
<title>Node2</title>
<g id="a_node2"><a xlink:title=" ">
<polygon fill="white" stroke="#bfbfbf" points="56.5,-127.5 56.5,-184.5 103.5,-184.5 103.5,-127.5 56.5,-127.5"/>
<text text-anchor="middle" x="80" y="-172.5" font-family="Helvetica,sans-Serif" font-size="10.00">Visual</text>
<polyline fill="none" stroke="#bfbfbf" points="56.5,-165.5 103.5,-165.5 "/>
<text text-anchor="middle" x="80" y="-153.5" font-family="Helvetica,sans-Serif" font-size="10.00"> </text>
<polyline fill="none" stroke="#bfbfbf" points="56.5,-146.5 103.5,-146.5 "/>
<text text-anchor="middle" x="80" y="-134.5" font-family="Helvetica,sans-Serif" font-size="10.00"> </text>
</a>
</g>
</g>
<!-- Node2&#45;&gt;Node1 -->
<g id="edge1" class="edge">
<title>Node2&#45;&gt;Node1</title>
<path fill="none" stroke="midnightblue" d="M80,-117.21C80,-108.61 80,-99.39 80,-90.55"/>
<polygon fill="none" stroke="midnightblue" points="76.5,-117.34 80,-127.34 83.5,-117.34 76.5,-117.34"/>
</g>
</g>
</svg>
