<?xml version="1.0" encoding="UTF-8" standalone="no"?>
<!DOCTYPE svg PUBLIC "-//W3C//DTD SVG 1.1//EN"
 "http://www.w3.org/Graphics/SVG/1.1/DTD/svg11.dtd">
<!-- Generated by graphviz version 2.43.0 (0)
 -->
<!-- Title: cie::gl::GLFWMonitor Pages: 1 -->
<svg width="320pt" height="492pt"
 viewBox="0.00 0.00 320.00 492.00" xmlns="http://www.w3.org/2000/svg" xmlns:xlink="http://www.w3.org/1999/xlink">
<g id="graph0" class="graph" transform="scale(1 1) rotate(0) translate(4 488)">
<title>cie::gl::GLFWMonitor</title>
<polygon fill="white" stroke="transparent" points="-4,4 -4,-488 316,-488 316,4 -4,4"/>
<!-- Node1 -->
<g id="node1" class="node">
<title>Node1</title>
<g id="a_node1"><a xlink:title=" ">
<polygon fill="#bfbfbf" stroke="black" points="117,-0.5 117,-57.5 235,-57.5 235,-0.5 117,-0.5"/>
<text text-anchor="middle" x="176" y="-45.5" font-family="Helvetica,sans-Serif" font-size="10.00">cie::gl::GLFWMonitor</text>
<polyline fill="none" stroke="black" points="117,-38.5 235,-38.5 "/>
<text text-anchor="middle" x="176" y="-26.5" font-family="Helvetica,sans-Serif" font-size="10.00"> </text>
<polyline fill="none" stroke="black" points="117,-19.5 235,-19.5 "/>
<text text-anchor="start" x="125" y="-7.5" font-family="Helvetica,sans-Serif" font-size="10.00">+ ~GLFWMonitor()</text>
</a>
</g>
</g>
<!-- Node2 -->
<g id="node2" class="node">
<title>Node2</title>
<g id="a_node2"><a xlink:href="classcie_1_1gl_1_1AbsMonitor.html" target="_top" xlink:title=" ">
<polygon fill="white" stroke="black" points="122.5,-95.5 122.5,-185.5 229.5,-185.5 229.5,-95.5 122.5,-95.5"/>
<text text-anchor="middle" x="176" y="-173.5" font-family="Helvetica,sans-Serif" font-size="10.00">cie::gl::AbsMonitor</text>
<polyline fill="none" stroke="black" points="122.5,-166.5 229.5,-166.5 "/>
<text text-anchor="middle" x="176" y="-154.5" font-family="Helvetica,sans-Serif" font-size="10.00"> </text>
<polyline fill="none" stroke="black" points="122.5,-147.5 229.5,-147.5 "/>
<text text-anchor="start" x="130.5" y="-135.5" font-family="Helvetica,sans-Serif" font-size="10.00">+ AbsMonitor()</text>
<text text-anchor="start" x="130.5" y="-124.5" font-family="Helvetica,sans-Serif" font-size="10.00">+ ~AbsMonitor()</text>
<text text-anchor="start" x="130.5" y="-113.5" font-family="Helvetica,sans-Serif" font-size="10.00">+ resolution()</text>
<text text-anchor="start" x="130.5" y="-102.5" font-family="Helvetica,sans-Serif" font-size="10.00">+ isPrimary()</text>
</a>
</g>
</g>
<!-- Node2&#45;&gt;Node1 -->
<g id="edge1" class="edge">
<title>Node2&#45;&gt;Node1</title>
<path fill="none" stroke="midnightblue" d="M176,-85.04C176,-75.56 176,-66.06 176,-57.69"/>
<polygon fill="none" stroke="midnightblue" points="172.5,-85.28 176,-95.28 179.5,-85.28 172.5,-85.28"/>
</g>
<!-- Node3 -->
<g id="node3" class="node">
<title>Node3</title>
<g id="a_node3"><a target="_parent" xlink:href="../../../cieutils/docs/html/classcie_1_1utils_1_1IDObject.html" xlink:title=" ">
<polygon fill="white" stroke="black" points="0,-233.5 0,-378.5 106,-378.5 106,-233.5 0,-233.5"/>
<text text-anchor="start" x="8" y="-366.5" font-family="Helvetica,sans-Serif" font-size="10.00">cie::utils::IDObject</text>
<text text-anchor="middle" x="53" y="-355.5" font-family="Helvetica,sans-Serif" font-size="10.00">&lt; class &gt;</text>
<polyline fill="none" stroke="black" points="0,-348.5 106,-348.5 "/>
<text text-anchor="middle" x="53" y="-336.5" font-family="Helvetica,sans-Serif" font-size="10.00"> </text>
<polyline fill="none" stroke="black" points="0,-329.5 106,-329.5 "/>
<text text-anchor="start" x="8" y="-317.5" font-family="Helvetica,sans-Serif" font-size="10.00">+ IDObject()</text>
<text text-anchor="start" x="8" y="-306.5" font-family="Helvetica,sans-Serif" font-size="10.00">+ IDObject()</text>
<text text-anchor="start" x="8" y="-295.5" font-family="Helvetica,sans-Serif" font-size="10.00">+ IDObject()</text>
<text text-anchor="start" x="8" y="-284.5" font-family="Helvetica,sans-Serif" font-size="10.00">+ IDObject()</text>
<text text-anchor="start" x="8" y="-273.5" font-family="Helvetica,sans-Serif" font-size="10.00">+ operator=()</text>
<text text-anchor="start" x="8" y="-262.5" font-family="Helvetica,sans-Serif" font-size="10.00">+ operator=()</text>
<text text-anchor="start" x="8" y="-251.5" font-family="Helvetica,sans-Serif" font-size="10.00">+ setID()</text>
<text text-anchor="start" x="8" y="-240.5" font-family="Helvetica,sans-Serif" font-size="10.00">+ getID()</text>
</a>
</g>
</g>
<!-- Node3&#45;&gt;Node2 -->
<g id="edge2" class="edge">
<title>Node3&#45;&gt;Node2</title>
<path fill="none" stroke="midnightblue" d="M112.33,-226.13C122.72,-212.32 133.2,-198.4 142.56,-185.95"/>
<polygon fill="none" stroke="midnightblue" points="109.45,-224.14 106.23,-234.24 115.04,-228.35 109.45,-224.14"/>
</g>
<!-- Node4 -->
<g id="node4" class="node">
<title>Node4</title>
<g id="a_node4"><a xlink:title=" ">
<polygon fill="white" stroke="#bfbfbf" points="36.5,-426.5 36.5,-483.5 69.5,-483.5 69.5,-426.5 36.5,-426.5"/>
<text text-anchor="middle" x="53" y="-471.5" font-family="Helvetica,sans-Serif" font-size="10.00">TID</text>
<polyline fill="none" stroke="#bfbfbf" points="36.5,-464.5 69.5,-464.5 "/>
<text text-anchor="middle" x="53" y="-452.5" font-family="Helvetica,sans-Serif" font-size="10.00"> </text>
<polyline fill="none" stroke="#bfbfbf" points="36.5,-445.5 69.5,-445.5 "/>
<text text-anchor="middle" x="53" y="-433.5" font-family="Helvetica,sans-Serif" font-size="10.00"> </text>
</a>
</g>
</g>
<!-- Node4&#45;&gt;Node3 -->
<g id="edge3" class="edge">
<title>Node4&#45;&gt;Node3</title>
<path fill="none" stroke="#404040" d="M53,-426.35C53,-416.01 53,-403.66 53,-390.89"/>
<polygon fill="none" stroke="#404040" points="53,-390.56 49,-384.56 53,-378.56 57,-384.56 53,-390.56"/>
<text text-anchor="middle" x="66" y="-400" font-family="Helvetica,sans-Serif" font-size="10.00"> #_id</text>
</g>
<!-- Node5 -->
<g id="node5" class="node">
<title>Node5</title>
<g id="a_node5"><a xlink:title=" ">
<polygon fill="white" stroke="#bfbfbf" points="124,-277.5 124,-334.5 228,-334.5 228,-277.5 124,-277.5"/>
<text text-anchor="middle" x="176" y="-322.5" font-family="Helvetica,sans-Serif" font-size="10.00">pair&lt; Size, Size &gt;</text>
<polyline fill="none" stroke="#bfbfbf" points="124,-315.5 228,-315.5 "/>
<text text-anchor="middle" x="176" y="-303.5" font-family="Helvetica,sans-Serif" font-size="10.00"> </text>
<polyline fill="none" stroke="#bfbfbf" points="124,-296.5 228,-296.5 "/>
<text text-anchor="middle" x="176" y="-284.5" font-family="Helvetica,sans-Serif" font-size="10.00"> </text>
</a>
</g>
</g>
<!-- Node5&#45;&gt;Node2 -->
<g id="edge4" class="edge">
<title>Node5&#45;&gt;Node2</title>
<path fill="none" stroke="#404040" d="M176,-277.26C176,-255.54 176,-224.6 176,-197.74"/>
<polygon fill="none" stroke="#404040" points="176,-197.73 172,-191.73 176,-185.73 180,-191.73 176,-197.73"/>
<text text-anchor="middle" x="209" y="-207" font-family="Helvetica,sans-Serif" font-size="10.00"> #_resolution</text>
</g>
<!-- Node6 -->
<g id="node6" class="node">
<title>Node6</title>
<g id="a_node6"><a xlink:title=" ">
<polygon fill="white" stroke="#bfbfbf" points="246,-277.5 246,-334.5 284,-334.5 284,-277.5 246,-277.5"/>
<text text-anchor="middle" x="265" y="-322.5" font-family="Helvetica,sans-Serif" font-size="10.00">bool</text>
<polyline fill="none" stroke="#bfbfbf" points="246,-315.5 284,-315.5 "/>
<text text-anchor="middle" x="265" y="-303.5" font-family="Helvetica,sans-Serif" font-size="10.00"> </text>
<polyline fill="none" stroke="#bfbfbf" points="246,-296.5 284,-296.5 "/>
<text text-anchor="middle" x="265" y="-284.5" font-family="Helvetica,sans-Serif" font-size="10.00"> </text>
</a>
</g>
</g>
<!-- Node6&#45;&gt;Node2 -->
<g id="edge5" class="edge">
<title>Node6&#45;&gt;Node2</title>
<path fill="none" stroke="#404040" d="M263.44,-277.26C261.22,-256.02 255.87,-226.62 243,-204 241.27,-200.95 239.34,-197.97 237.25,-195.06"/>
<polygon fill="none" stroke="#404040" points="237.11,-194.87 230.25,-192.65 229.66,-185.46 236.52,-187.68 237.11,-194.87"/>
<text text-anchor="middle" x="280" y="-207" font-family="Helvetica,sans-Serif" font-size="10.00"> #_isPrimary</text>
</g>
</g>
</svg>
