<?xml version="1.0" encoding="UTF-8" standalone="no"?>
<!DOCTYPE svg PUBLIC "-//W3C//DTD SVG 1.1//EN"
 "http://www.w3.org/Graphics/SVG/1.1/DTD/svg11.dtd">
<!-- Generated by graphviz version 2.43.0 (0)
 -->
<!-- Title: cie::gl::PanZoomCameraControls Pages: 1 -->
<svg width="808pt" height="851pt"
 viewBox="0.00 0.00 807.50 851.00" xmlns="http://www.w3.org/2000/svg" xmlns:xlink="http://www.w3.org/1999/xlink">
<g id="graph0" class="graph" transform="scale(1 1) rotate(0) translate(4 847)">
<title>cie::gl::PanZoomCameraControls</title>
<polygon fill="white" stroke="transparent" points="-4,4 -4,-847 803.5,-847 803.5,4 -4,4"/>
<!-- Node1 -->
<g id="node1" class="node">
<title>Node1</title>
<g id="a_node1"><a xlink:title=" ">
<polygon fill="#bfbfbf" stroke="black" points="320,-0.5 320,-79.5 496,-79.5 496,-0.5 320,-0.5"/>
<text text-anchor="middle" x="408" y="-67.5" font-family="Helvetica,sans-Serif" font-size="10.00">cie::gl::PanZoomCameraControls</text>
<polyline fill="none" stroke="black" points="320,-60.5 496,-60.5 "/>
<text text-anchor="middle" x="408" y="-48.5" font-family="Helvetica,sans-Serif" font-size="10.00"> </text>
<polyline fill="none" stroke="black" points="320,-41.5 496,-41.5 "/>
<text text-anchor="start" x="328" y="-29.5" font-family="Helvetica,sans-Serif" font-size="10.00">+ PanZoomCameraControls()</text>
<text text-anchor="start" x="328" y="-18.5" font-family="Helvetica,sans-Serif" font-size="10.00">+ setMovementScale()</text>
<text text-anchor="start" x="328" y="-7.5" font-family="Helvetica,sans-Serif" font-size="10.00">+ setZoomScale()</text>
</a>
</g>
</g>
<!-- Node2 -->
<g id="node2" class="node">
<title>Node2</title>
<g id="a_node2"><a xlink:href="classcie_1_1gl_1_1MappedCameraControls.html" target="_top" xlink:title=" ">
<polygon fill="white" stroke="black" points="323,-117.5 323,-185.5 493,-185.5 493,-117.5 323,-117.5"/>
<text text-anchor="middle" x="408" y="-173.5" font-family="Helvetica,sans-Serif" font-size="10.00">cie::gl::MappedCameraControls</text>
<polyline fill="none" stroke="black" points="323,-166.5 493,-166.5 "/>
<text text-anchor="middle" x="408" y="-154.5" font-family="Helvetica,sans-Serif" font-size="10.00"> </text>
<polyline fill="none" stroke="black" points="323,-147.5 493,-147.5 "/>
<text text-anchor="start" x="331" y="-135.5" font-family="Helvetica,sans-Serif" font-size="10.00">+ MappedCameraControls()</text>
<text text-anchor="start" x="331" y="-124.5" font-family="Helvetica,sans-Serif" font-size="10.00"># onSubjectChange()</text>
</a>
</g>
</g>
<!-- Node2&#45;&gt;Node1 -->
<g id="edge1" class="edge">
<title>Node2&#45;&gt;Node1</title>
<path fill="none" stroke="midnightblue" d="M408,-107.34C408,-98.25 408,-88.72 408,-79.81"/>
<polygon fill="none" stroke="midnightblue" points="404.5,-107.35 408,-117.35 411.5,-107.35 404.5,-107.35"/>
</g>
<!-- Node3 -->
<g id="node3" class="node">
<title>Node3</title>
<g id="a_node3"><a xlink:href="classcie_1_1gl_1_1AbsCameraControls.html" target="_top" xlink:title=" ">
<polygon fill="white" stroke="black" points="249.5,-223.5 249.5,-489.5 400.5,-489.5 400.5,-223.5 249.5,-223.5"/>
<text text-anchor="middle" x="325" y="-477.5" font-family="Helvetica,sans-Serif" font-size="10.00">cie::gl::AbsCameraControls</text>
<polyline fill="none" stroke="black" points="249.5,-470.5 400.5,-470.5 "/>
<text text-anchor="middle" x="325" y="-458.5" font-family="Helvetica,sans-Serif" font-size="10.00"> </text>
<polyline fill="none" stroke="black" points="249.5,-451.5 400.5,-451.5 "/>
<text text-anchor="start" x="257.5" y="-439.5" font-family="Helvetica,sans-Serif" font-size="10.00">+ AbsCameraControls()</text>
<text text-anchor="start" x="257.5" y="-428.5" font-family="Helvetica,sans-Serif" font-size="10.00">+ mouseButtonCallback()</text>
<text text-anchor="start" x="257.5" y="-417.5" font-family="Helvetica,sans-Serif" font-size="10.00">+ cursorPositionCallback()</text>
<text text-anchor="start" x="257.5" y="-406.5" font-family="Helvetica,sans-Serif" font-size="10.00">+ cursorEnterCallback()</text>
<text text-anchor="start" x="257.5" y="-395.5" font-family="Helvetica,sans-Serif" font-size="10.00">+ scrollCallback()</text>
<text text-anchor="start" x="257.5" y="-384.5" font-family="Helvetica,sans-Serif" font-size="10.00">+ keyboardCallback()</text>
<text text-anchor="start" x="257.5" y="-373.5" font-family="Helvetica,sans-Serif" font-size="10.00">+ bind()</text>
<text text-anchor="start" x="257.5" y="-362.5" font-family="Helvetica,sans-Serif" font-size="10.00"># onMouseButtonPress()</text>
<text text-anchor="start" x="257.5" y="-351.5" font-family="Helvetica,sans-Serif" font-size="10.00"># onMouseButtonHold()</text>
<text text-anchor="start" x="257.5" y="-340.5" font-family="Helvetica,sans-Serif" font-size="10.00"># onMouseButtonRelease()</text>
<text text-anchor="start" x="257.5" y="-329.5" font-family="Helvetica,sans-Serif" font-size="10.00"># onCursorMovement()</text>
<text text-anchor="start" x="257.5" y="-318.5" font-family="Helvetica,sans-Serif" font-size="10.00"># onCursorEnter()</text>
<text text-anchor="start" x="257.5" y="-307.5" font-family="Helvetica,sans-Serif" font-size="10.00"># onCursorLeave()</text>
<text text-anchor="start" x="257.5" y="-296.5" font-family="Helvetica,sans-Serif" font-size="10.00"># onHorizontalScroll()</text>
<text text-anchor="start" x="257.5" y="-285.5" font-family="Helvetica,sans-Serif" font-size="10.00"># onVerticalScroll()</text>
<text text-anchor="start" x="257.5" y="-274.5" font-family="Helvetica,sans-Serif" font-size="10.00"># onKeyboardPress()</text>
<text text-anchor="start" x="257.5" y="-263.5" font-family="Helvetica,sans-Serif" font-size="10.00"># onKeyboardHold()</text>
<text text-anchor="start" x="257.5" y="-252.5" font-family="Helvetica,sans-Serif" font-size="10.00"># onKeyboardRelease()</text>
<text text-anchor="start" x="257.5" y="-241.5" font-family="Helvetica,sans-Serif" font-size="10.00"># onSubjectChange()</text>
<text text-anchor="start" x="257.5" y="-230.5" font-family="Helvetica,sans-Serif" font-size="10.00"># getWindow()</text>
</a>
</g>
</g>
<!-- Node3&#45;&gt;Node2 -->
<g id="edge2" class="edge">
<title>Node3&#45;&gt;Node2</title>
<path fill="none" stroke="midnightblue" d="M382.87,-213.96C387.04,-203.75 390.95,-194.19 394.39,-185.79"/>
<polygon fill="none" stroke="midnightblue" points="379.52,-212.92 378.97,-223.5 385.99,-215.57 379.52,-212.92"/>
</g>
<!-- Node4 -->
<g id="node4" class="node">
<title>Node4</title>
<g id="a_node4"><a target="_parent" xlink:href="../../../cieutils/docs/html/classcie_1_1utils_1_1observer_1_1Observer.html" xlink:title=" ">
<polygon fill="white" stroke="black" points="0,-548.5 0,-726.5 120,-726.5 120,-548.5 0,-548.5"/>
<text text-anchor="start" x="8" y="-714.5" font-family="Helvetica,sans-Serif" font-size="10.00">cie::utils::observer</text>
<text text-anchor="middle" x="60" y="-703.5" font-family="Helvetica,sans-Serif" font-size="10.00">::Observer</text>
<polyline fill="none" stroke="black" points="0,-696.5 120,-696.5 "/>
<text text-anchor="middle" x="60" y="-684.5" font-family="Helvetica,sans-Serif" font-size="10.00"> </text>
<polyline fill="none" stroke="black" points="0,-677.5 120,-677.5 "/>
<text text-anchor="start" x="8" y="-665.5" font-family="Helvetica,sans-Serif" font-size="10.00">+ Observer()</text>
<text text-anchor="start" x="8" y="-654.5" font-family="Helvetica,sans-Serif" font-size="10.00">+ Observer()</text>
<text text-anchor="start" x="8" y="-643.5" font-family="Helvetica,sans-Serif" font-size="10.00">+ Observer()</text>
<text text-anchor="start" x="8" y="-632.5" font-family="Helvetica,sans-Serif" font-size="10.00">+ operator=()</text>
<text text-anchor="start" x="8" y="-621.5" font-family="Helvetica,sans-Serif" font-size="10.00">+ ~Observer()</text>
<text text-anchor="start" x="8" y="-610.5" font-family="Helvetica,sans-Serif" font-size="10.00">+ onSubjectChange()</text>
<text text-anchor="start" x="8" y="-599.5" font-family="Helvetica,sans-Serif" font-size="10.00">+ detach()</text>
<text text-anchor="start" x="8" y="-588.5" font-family="Helvetica,sans-Serif" font-size="10.00">+ as()</text>
<text text-anchor="start" x="8" y="-577.5" font-family="Helvetica,sans-Serif" font-size="10.00">+ setSubject()</text>
<text text-anchor="start" x="8" y="-566.5" font-family="Helvetica,sans-Serif" font-size="10.00">+ subject()</text>
<text text-anchor="start" x="8" y="-555.5" font-family="Helvetica,sans-Serif" font-size="10.00">+ subject()</text>
</a>
</g>
</g>
<!-- Node4&#45;&gt;Node3 -->
<g id="edge3" class="edge">
<title>Node4&#45;&gt;Node3</title>
<path fill="none" stroke="midnightblue" d="M127.12,-550.11C127.75,-549.4 128.37,-548.7 129,-548 166.7,-505.96 211.7,-461.84 249.07,-426.66"/>
<polygon fill="none" stroke="midnightblue" points="124.31,-548.01 120.39,-557.85 129.59,-552.6 124.31,-548.01"/>
</g>
<!-- Node5 -->
<g id="node5" class="node">
<title>Node5</title>
<g id="a_node5"><a xlink:title=" ">
<polygon fill="white" stroke="#bfbfbf" points="0.5,-774.5 0.5,-842.5 119.5,-842.5 119.5,-774.5 0.5,-774.5"/>
<text text-anchor="start" x="8.5" y="-830.5" font-family="Helvetica,sans-Serif" font-size="10.00">weak_ptr&lt; cie::utils</text>
<text text-anchor="middle" x="60" y="-819.5" font-family="Helvetica,sans-Serif" font-size="10.00">::observer::Subject &gt;</text>
<polyline fill="none" stroke="#bfbfbf" points="0.5,-812.5 119.5,-812.5 "/>
<text text-anchor="middle" x="60" y="-800.5" font-family="Helvetica,sans-Serif" font-size="10.00"> </text>
<polyline fill="none" stroke="#bfbfbf" points="0.5,-793.5 119.5,-793.5 "/>
<text text-anchor="middle" x="60" y="-781.5" font-family="Helvetica,sans-Serif" font-size="10.00"> </text>
</a>
</g>
</g>
<!-- Node5&#45;&gt;Node4 -->
<g id="edge4" class="edge">
<title>Node5&#45;&gt;Node4</title>
<path fill="none" stroke="#404040" d="M60,-774.11C60,-763.69 60,-751.6 60,-739.02"/>
<polygon fill="none" stroke="#404040" points="60,-738.85 56,-732.85 60,-726.85 64,-732.85 60,-738.85"/>
<text text-anchor="middle" x="86" y="-748" font-family="Helvetica,sans-Serif" font-size="10.00"> #_subject</text>
</g>
<!-- Node6 -->
<g id="node6" class="node">
<title>Node6</title>
<g id="a_node6"><a xlink:title=" ">
<polygon fill="white" stroke="#bfbfbf" points="138,-609 138,-666 188,-666 188,-609 138,-609"/>
<text text-anchor="middle" x="163" y="-654" font-family="Helvetica,sans-Serif" font-size="10.00">double</text>
<polyline fill="none" stroke="#bfbfbf" points="138,-647 188,-647 "/>
<text text-anchor="middle" x="163" y="-635" font-family="Helvetica,sans-Serif" font-size="10.00"> </text>
<polyline fill="none" stroke="#bfbfbf" points="138,-628 188,-628 "/>
<text text-anchor="middle" x="163" y="-616" font-family="Helvetica,sans-Serif" font-size="10.00"> </text>
</a>
</g>
</g>
<!-- Node6&#45;&gt;Node3 -->
<g id="edge5" class="edge">
<title>Node6&#45;&gt;Node3</title>
<path fill="none" stroke="#404040" d="M171.88,-608.69C177.99,-590.9 186.83,-567.57 197,-548 210.32,-522.36 226.37,-495.97 242.52,-471.3"/>
<polygon fill="none" stroke="#404040" points="242.58,-471.21 242.55,-464 249.2,-461.2 249.22,-468.41 242.58,-471.21"/>
<text text-anchor="middle" x="230.5" y="-522" font-family="Helvetica,sans-Serif" font-size="10.00"> #_x</text>
<text text-anchor="middle" x="230.5" y="-511" font-family="Helvetica,sans-Serif" font-size="10.00">#_y</text>
</g>
<!-- Node7 -->
<g id="node7" class="node">
<title>Node7</title>
<g id="a_node7"><a xlink:title=" ">
<polygon fill="white" stroke="#bfbfbf" points="206,-609 206,-666 284,-666 284,-609 206,-609"/>
<text text-anchor="middle" x="245" y="-654" font-family="Helvetica,sans-Serif" font-size="10.00">WeakPointer</text>
<polyline fill="none" stroke="#bfbfbf" points="206,-647 284,-647 "/>
<text text-anchor="middle" x="245" y="-635" font-family="Helvetica,sans-Serif" font-size="10.00"> </text>
<polyline fill="none" stroke="#bfbfbf" points="206,-628 284,-628 "/>
<text text-anchor="middle" x="245" y="-616" font-family="Helvetica,sans-Serif" font-size="10.00"> </text>
</a>
</g>
</g>
<!-- Node7&#45;&gt;Node3 -->
<g id="edge6" class="edge">
<title>Node7&#45;&gt;Node3</title>
<path fill="none" stroke="#404040" d="M244.33,-608.96C244.35,-582.61 246.09,-541.98 255,-508 255.56,-505.85 256.16,-503.69 256.78,-501.52"/>
<polygon fill="none" stroke="#404040" points="256.83,-501.38 254.77,-494.47 260.35,-489.91 262.41,-496.82 256.83,-501.38"/>
<text text-anchor="middle" x="288" y="-516.5" font-family="Helvetica,sans-Serif" font-size="10.00"> #_p_window</text>
</g>
<!-- Node8 -->
<g id="node8" class="node">
<title>Node8</title>
<g id="a_node8"><a xlink:title=" ">
<polygon fill="white" stroke="#bfbfbf" points="310.5,-609 310.5,-666 339.5,-666 339.5,-609 310.5,-609"/>
<text text-anchor="middle" x="325" y="-654" font-family="Helvetica,sans-Serif" font-size="10.00">int</text>
<polyline fill="none" stroke="#bfbfbf" points="310.5,-647 339.5,-647 "/>
<text text-anchor="middle" x="325" y="-635" font-family="Helvetica,sans-Serif" font-size="10.00"> </text>
<polyline fill="none" stroke="#bfbfbf" points="310.5,-628 339.5,-628 "/>
<text text-anchor="middle" x="325" y="-616" font-family="Helvetica,sans-Serif" font-size="10.00"> </text>
</a>
</g>
</g>
<!-- Node8&#45;&gt;Node3 -->
<g id="edge7" class="edge">
<title>Node8&#45;&gt;Node3</title>
<path fill="none" stroke="#404040" d="M325,-608.98C325,-583.27 325,-542.78 325,-501.75"/>
<polygon fill="none" stroke="#404040" points="325,-501.59 321,-495.59 325,-489.59 329,-495.59 325,-501.59"/>
<text text-anchor="middle" x="360" y="-516.5" font-family="Helvetica,sans-Serif" font-size="10.00"> #_escapeKey</text>
</g>
<!-- Node9 -->
<g id="node9" class="node">
<title>Node9</title>
<g id="a_node9"><a xlink:title=" ">
<polygon fill="white" stroke="#bfbfbf" points="363,-609 363,-666 463,-666 463,-609 363,-609"/>
<text text-anchor="middle" x="413" y="-654" font-family="Helvetica,sans-Serif" font-size="10.00">set&lt; KeyEnum &gt;</text>
<polyline fill="none" stroke="#bfbfbf" points="363,-647 463,-647 "/>
<text text-anchor="middle" x="413" y="-635" font-family="Helvetica,sans-Serif" font-size="10.00"> </text>
<polyline fill="none" stroke="#bfbfbf" points="363,-628 463,-628 "/>
<text text-anchor="middle" x="413" y="-616" font-family="Helvetica,sans-Serif" font-size="10.00"> </text>
</a>
</g>
</g>
<!-- Node9&#45;&gt;Node3 -->
<g id="edge8" class="edge">
<title>Node9&#45;&gt;Node3</title>
<path fill="none" stroke="#404040" d="M411.81,-608.92C410.11,-582.55 405.97,-541.89 396,-508 395.33,-505.71 394.62,-503.42 393.89,-501.12"/>
<polygon fill="none" stroke="#404040" points="393.84,-500.95 388.14,-496.53 390.02,-489.57 395.72,-493.99 393.84,-500.95"/>
<text text-anchor="middle" x="437" y="-516.5" font-family="Helvetica,sans-Serif" font-size="10.00"> #_activeKeys</text>
</g>
<!-- Node10 -->
<g id="node10" class="node">
<title>Node10</title>
<g id="a_node10"><a xlink:title=" ">
<polygon fill="white" stroke="#bfbfbf" points="481.5,-609 481.5,-666 628.5,-666 628.5,-609 481.5,-609"/>
<text text-anchor="middle" x="555" y="-654" font-family="Helvetica,sans-Serif" font-size="10.00">shared_ptr&lt; AbsCamera &gt;</text>
<polyline fill="none" stroke="#bfbfbf" points="481.5,-647 628.5,-647 "/>
<text text-anchor="middle" x="555" y="-635" font-family="Helvetica,sans-Serif" font-size="10.00"> </text>
<polyline fill="none" stroke="#bfbfbf" points="481.5,-628 628.5,-628 "/>
<text text-anchor="middle" x="555" y="-616" font-family="Helvetica,sans-Serif" font-size="10.00"> </text>
</a>
</g>
</g>
<!-- Node10&#45;&gt;Node3 -->
<g id="edge9" class="edge">
<title>Node10&#45;&gt;Node3</title>
<path fill="none" stroke="#404040" d="M540.56,-608.95C525.9,-582.06 501.75,-540.56 476,-508 456.05,-482.77 432.24,-457.33 409.5,-434.73"/>
<polygon fill="none" stroke="#404040" points="409.4,-434.63 402.32,-433.27 400.84,-426.21 407.93,-427.57 409.4,-434.63"/>
<text text-anchor="middle" x="522.5" y="-516.5" font-family="Helvetica,sans-Serif" font-size="10.00"> #_p_camera</text>
</g>
<!-- Node11 -->
<g id="node11" class="node">
<title>Node11</title>
<g id="a_node11"><a xlink:href="classcie_1_1gl_1_1MappedControls.html" target="_top" xlink:title=" ">
<polygon fill="white" stroke="black" points="533.5,-306 533.5,-407 682.5,-407 682.5,-306 533.5,-306"/>
<text text-anchor="middle" x="608" y="-395" font-family="Helvetica,sans-Serif" font-size="10.00">cie::gl::MappedControls</text>
<polyline fill="none" stroke="black" points="533.5,-388 682.5,-388 "/>
<text text-anchor="middle" x="608" y="-376" font-family="Helvetica,sans-Serif" font-size="10.00"> </text>
<polyline fill="none" stroke="black" points="533.5,-369 682.5,-369 "/>
<text text-anchor="start" x="541.5" y="-357" font-family="Helvetica,sans-Serif" font-size="10.00">+ MappedControls()</text>
<text text-anchor="start" x="541.5" y="-346" font-family="Helvetica,sans-Serif" font-size="10.00">+ configure()</text>
<text text-anchor="start" x="541.5" y="-335" font-family="Helvetica,sans-Serif" font-size="10.00">+ configure()</text>
<text text-anchor="start" x="541.5" y="-324" font-family="Helvetica,sans-Serif" font-size="10.00">+ callControl()</text>
<text text-anchor="start" x="541.5" y="-313" font-family="Helvetica,sans-Serif" font-size="10.00"># makeConfigurationMap()</text>
</a>
</g>
</g>
<!-- Node11&#45;&gt;Node2 -->
<g id="edge10" class="edge">
<title>Node11&#45;&gt;Node2</title>
<path fill="none" stroke="midnightblue" d="M552.04,-298.7C516.2,-262.32 470.92,-216.36 440.79,-185.79"/>
<polygon fill="none" stroke="midnightblue" points="549.56,-301.17 559.07,-305.84 554.55,-296.26 549.56,-301.17"/>
</g>
<!-- Node12 -->
<g id="node12" class="node">
<title>Node12</title>
<g id="a_node12"><a xlink:title=" ">
<polygon fill="white" stroke="#bfbfbf" points="646.5,-603.5 646.5,-671.5 799.5,-671.5 799.5,-603.5 646.5,-603.5"/>
<text text-anchor="start" x="654.5" y="-659.5" font-family="Helvetica,sans-Serif" font-size="10.00">unordered_map&lt; KeyEnum,</text>
<text text-anchor="middle" x="723" y="-648.5" font-family="Helvetica,sans-Serif" font-size="10.00"> control_function &gt;</text>
<polyline fill="none" stroke="#bfbfbf" points="646.5,-641.5 799.5,-641.5 "/>
<text text-anchor="middle" x="723" y="-629.5" font-family="Helvetica,sans-Serif" font-size="10.00"> </text>
<polyline fill="none" stroke="#bfbfbf" points="646.5,-622.5 799.5,-622.5 "/>
<text text-anchor="middle" x="723" y="-610.5" font-family="Helvetica,sans-Serif" font-size="10.00"> </text>
</a>
</g>
</g>
<!-- Node12&#45;&gt;Node11 -->
<g id="edge11" class="edge">
<title>Node12&#45;&gt;Node11</title>
<path fill="none" stroke="#404040" d="M709.36,-603.4C690.63,-557.96 656.61,-475.43 633.19,-418.61"/>
<polygon fill="none" stroke="#404040" points="633.08,-418.34 627.09,-414.32 628.51,-407.25 634.49,-411.27 633.08,-418.34"/>
<text text-anchor="middle" x="711" y="-516.5" font-family="Helvetica,sans-Serif" font-size="10.00"> #_controlMap</text>
</g>
</g>
</svg>
