<?xml version="1.0" encoding="UTF-8" standalone="no"?>
<!DOCTYPE svg PUBLIC "-//W3C//DTD SVG 1.1//EN"
 "http://www.w3.org/Graphics/SVG/1.1/DTD/svg11.dtd">
<!-- Generated by graphviz version 2.43.0 (0)
 -->
<!-- Title: cie::gl::AbsPlot Pages: 1 -->
<svg width="457pt" height="603pt"
 viewBox="0.00 0.00 457.00 603.00" xmlns="http://www.w3.org/2000/svg" xmlns:xlink="http://www.w3.org/1999/xlink">
<g id="graph0" class="graph" transform="scale(1 1) rotate(0) translate(4 599)">
<title>cie::gl::AbsPlot</title>
<polygon fill="white" stroke="transparent" points="-4,4 -4,-599 453,-599 453,4 -4,4"/>
<!-- Node1 -->
<g id="node1" class="node">
<title>Node1</title>
<g id="a_node1"><a xlink:title=" ">
<polygon fill="#bfbfbf" stroke="black" points="246,-471.5 246,-594.5 338,-594.5 338,-471.5 246,-471.5"/>
<text text-anchor="middle" x="292" y="-582.5" font-family="Helvetica,sans-Serif" font-size="10.00">cie::gl::AbsPlot</text>
<polyline fill="none" stroke="black" points="246,-575.5 338,-575.5 "/>
<text text-anchor="start" x="254" y="-563.5" font-family="Helvetica,sans-Serif" font-size="10.00"># _p_window</text>
<text text-anchor="start" x="254" y="-552.5" font-family="Helvetica,sans-Serif" font-size="10.00"># _p_attributes</text>
<polyline fill="none" stroke="black" points="246,-545.5 338,-545.5 "/>
<text text-anchor="start" x="254" y="-533.5" font-family="Helvetica,sans-Serif" font-size="10.00">+ AbsPlot()</text>
<text text-anchor="start" x="254" y="-522.5" font-family="Helvetica,sans-Serif" font-size="10.00">+ AbsPlot()</text>
<text text-anchor="start" x="254" y="-511.5" font-family="Helvetica,sans-Serif" font-size="10.00">+ update()</text>
<text text-anchor="start" x="254" y="-500.5" font-family="Helvetica,sans-Serif" font-size="10.00">+ fit()</text>
<text text-anchor="start" x="254" y="-489.5" font-family="Helvetica,sans-Serif" font-size="10.00">+ show()</text>
<text text-anchor="start" x="254" y="-478.5" font-family="Helvetica,sans-Serif" font-size="10.00">+ attributes()</text>
</a>
</g>
</g>
<!-- Node2 -->
<g id="node2" class="node">
<title>Node2</title>
<g id="a_node2"><a xlink:href="classcie_1_1gl_1_1AbsPlot2.html" target="_top" xlink:title=" ">
<polygon fill="white" stroke="black" points="126.5,-106.5 126.5,-240.5 229.5,-240.5 229.5,-106.5 126.5,-106.5"/>
<text text-anchor="start" x="134.5" y="-228.5" font-family="Helvetica,sans-Serif" font-size="10.00">cie::gl::AbsPlot2&lt;</text>
<text text-anchor="middle" x="178" y="-217.5" font-family="Helvetica,sans-Serif" font-size="10.00"> std::true_type &gt;</text>
<polyline fill="none" stroke="black" points="126.5,-210.5 229.5,-210.5 "/>
<text text-anchor="start" x="134.5" y="-198.5" font-family="Helvetica,sans-Serif" font-size="10.00"># _vertices</text>
<text text-anchor="start" x="134.5" y="-187.5" font-family="Helvetica,sans-Serif" font-size="10.00"># _p_indices</text>
<text text-anchor="start" x="134.5" y="-176.5" font-family="Helvetica,sans-Serif" font-size="10.00"># _p_camera</text>
<text text-anchor="start" x="134.5" y="-165.5" font-family="Helvetica,sans-Serif" font-size="10.00"># _p_scene</text>
<text text-anchor="start" x="134.5" y="-154.5" font-family="Helvetica,sans-Serif" font-size="10.00"># _p_controls</text>
<polyline fill="none" stroke="black" points="126.5,-147.5 229.5,-147.5 "/>
<text text-anchor="start" x="134.5" y="-135.5" font-family="Helvetica,sans-Serif" font-size="10.00">+ AbsPlot2()</text>
<text text-anchor="start" x="134.5" y="-124.5" font-family="Helvetica,sans-Serif" font-size="10.00">+ AbsPlot2()</text>
<text text-anchor="start" x="134.5" y="-113.5" font-family="Helvetica,sans-Serif" font-size="10.00">+ fit()</text>
</a>
</g>
</g>
<!-- Node1&#45;&gt;Node2 -->
<g id="edge1" class="edge">
<title>Node1&#45;&gt;Node2</title>
<path fill="none" stroke="midnightblue" d="M244.62,-462.47C239.51,-453.15 234.79,-443.52 231,-434 205.86,-370.89 192.08,-294.18 184.93,-240.6"/>
<polygon fill="none" stroke="midnightblue" points="241.65,-464.32 249.63,-471.29 247.73,-460.86 241.65,-464.32"/>
</g>
<!-- Node5 -->
<g id="node5" class="node">
<title>Node5</title>
<g id="a_node5"><a xlink:href="classcie_1_1gl_1_1AbsPlot2.html" target="_top" xlink:title=" ">
<polygon fill="white" stroke="black" points="309,-106.5 309,-240.5 449,-240.5 449,-106.5 309,-106.5"/>
<text text-anchor="start" x="317" y="-228.5" font-family="Helvetica,sans-Serif" font-size="10.00">cie::gl::AbsPlot2&lt;</text>
<text text-anchor="middle" x="379" y="-217.5" font-family="Helvetica,sans-Serif" font-size="10.00"> std::false_type, Args... &gt;</text>
<polyline fill="none" stroke="black" points="309,-210.5 449,-210.5 "/>
<text text-anchor="start" x="317" y="-198.5" font-family="Helvetica,sans-Serif" font-size="10.00"># _vertices</text>
<text text-anchor="start" x="317" y="-187.5" font-family="Helvetica,sans-Serif" font-size="10.00"># _p_indices</text>
<text text-anchor="start" x="317" y="-176.5" font-family="Helvetica,sans-Serif" font-size="10.00"># _p_camera</text>
<text text-anchor="start" x="317" y="-165.5" font-family="Helvetica,sans-Serif" font-size="10.00"># _p_scene</text>
<text text-anchor="start" x="317" y="-154.5" font-family="Helvetica,sans-Serif" font-size="10.00"># _p_controls</text>
<polyline fill="none" stroke="black" points="309,-147.5 449,-147.5 "/>
<text text-anchor="start" x="317" y="-135.5" font-family="Helvetica,sans-Serif" font-size="10.00">+ AbsPlot2()</text>
<text text-anchor="start" x="317" y="-124.5" font-family="Helvetica,sans-Serif" font-size="10.00">+ AbsPlot2()</text>
<text text-anchor="start" x="317" y="-113.5" font-family="Helvetica,sans-Serif" font-size="10.00">+ fit()</text>
</a>
</g>
</g>
<!-- Node1&#45;&gt;Node5 -->
<g id="edge4" class="edge">
<title>Node1&#45;&gt;Node5</title>
<path fill="none" stroke="midnightblue" d="M339.25,-462.92C369.15,-414.46 404.6,-346.81 418,-281 420.71,-267.69 419.13,-253.81 415.37,-240.65"/>
<polygon fill="none" stroke="midnightblue" points="336.26,-461.1 333.93,-471.44 342.2,-464.81 336.26,-461.1"/>
</g>
<!-- Node7 -->
<g id="node7" class="node">
<title>Node7</title>
<g id="a_node7"><a xlink:href="classcie_1_1gl_1_1AbsPlot2.html" target="_top" xlink:title=" ">
<polygon fill="white" stroke="black" points="240.5,-299.5 240.5,-433.5 343.5,-433.5 343.5,-299.5 240.5,-299.5"/>
<text text-anchor="start" x="248.5" y="-421.5" font-family="Helvetica,sans-Serif" font-size="10.00">cie::gl::AbsPlot2&lt;</text>
<text text-anchor="middle" x="292" y="-410.5" font-family="Helvetica,sans-Serif" font-size="10.00"> Tag, Args &gt;</text>
<polyline fill="none" stroke="black" points="240.5,-403.5 343.5,-403.5 "/>
<text text-anchor="start" x="248.5" y="-391.5" font-family="Helvetica,sans-Serif" font-size="10.00"># _vertices</text>
<text text-anchor="start" x="248.5" y="-380.5" font-family="Helvetica,sans-Serif" font-size="10.00"># _p_indices</text>
<text text-anchor="start" x="248.5" y="-369.5" font-family="Helvetica,sans-Serif" font-size="10.00"># _p_camera</text>
<text text-anchor="start" x="248.5" y="-358.5" font-family="Helvetica,sans-Serif" font-size="10.00"># _p_scene</text>
<text text-anchor="start" x="248.5" y="-347.5" font-family="Helvetica,sans-Serif" font-size="10.00"># _p_controls</text>
<polyline fill="none" stroke="black" points="240.5,-340.5 343.5,-340.5 "/>
<text text-anchor="start" x="248.5" y="-328.5" font-family="Helvetica,sans-Serif" font-size="10.00">+ AbsPlot2()</text>
<text text-anchor="start" x="248.5" y="-317.5" font-family="Helvetica,sans-Serif" font-size="10.00">+ AbsPlot2()</text>
<text text-anchor="start" x="248.5" y="-306.5" font-family="Helvetica,sans-Serif" font-size="10.00">+ fit()</text>
</a>
</g>
</g>
<!-- Node1&#45;&gt;Node7 -->
<g id="edge6" class="edge">
<title>Node1&#45;&gt;Node7</title>
<path fill="none" stroke="midnightblue" d="M292,-461.02C292,-451.91 292,-442.6 292,-433.57"/>
<polygon fill="none" stroke="midnightblue" points="288.5,-461.21 292,-471.21 295.5,-461.21 288.5,-461.21"/>
</g>
<!-- Node3 -->
<g id="node3" class="node">
<title>Node3</title>
<g id="a_node3"><a xlink:href="structcie_1_1gl_1_1Plot2_3_01TObject_01_4.html" target="_top" xlink:title=" ">
<polygon fill="white" stroke="black" points="162.5,-6 162.5,-63 299.5,-63 299.5,-6 162.5,-6"/>
<text text-anchor="middle" x="231" y="-51" font-family="Helvetica,sans-Serif" font-size="10.00">cie::gl::Plot2&lt; TObject &gt;</text>
<polyline fill="none" stroke="black" points="162.5,-44 299.5,-44 "/>
<text text-anchor="middle" x="231" y="-32" font-family="Helvetica,sans-Serif" font-size="10.00"> </text>
<polyline fill="none" stroke="black" points="162.5,-25 299.5,-25 "/>
<text text-anchor="start" x="170.5" y="-13" font-family="Helvetica,sans-Serif" font-size="10.00">+ Plot2()</text>
</a>
</g>
</g>
<!-- Node2&#45;&gt;Node3 -->
<g id="edge2" class="edge">
<title>Node2&#45;&gt;Node3</title>
<path fill="none" stroke="midnightblue" d="M207.18,-97.07C211.89,-84.91 216.48,-73.04 220.35,-63.02"/>
<polygon fill="none" stroke="midnightblue" points="203.91,-95.82 203.57,-106.41 210.44,-98.34 203.91,-95.82"/>
</g>
<!-- Node4 -->
<g id="node4" class="node">
<title>Node4</title>
<g id="a_node4"><a xlink:href="structcie_1_1gl_1_1Plot2_3_01XContainer_00_01YContainer_01_4.html" target="_top" xlink:title="Standard x&#45;y plot.">
<polygon fill="white" stroke="black" points="0,-0.5 0,-68.5 144,-68.5 144,-0.5 0,-0.5"/>
<text text-anchor="start" x="8" y="-56.5" font-family="Helvetica,sans-Serif" font-size="10.00">cie::gl::Plot2&lt; XContainer,</text>
<text text-anchor="middle" x="72" y="-45.5" font-family="Helvetica,sans-Serif" font-size="10.00"> YContainer &gt;</text>
<polyline fill="none" stroke="black" points="0,-38.5 144,-38.5 "/>
<text text-anchor="middle" x="72" y="-26.5" font-family="Helvetica,sans-Serif" font-size="10.00"> </text>
<polyline fill="none" stroke="black" points="0,-19.5 144,-19.5 "/>
<text text-anchor="start" x="8" y="-7.5" font-family="Helvetica,sans-Serif" font-size="10.00">+ Plot2()</text>
</a>
</g>
</g>
<!-- Node2&#45;&gt;Node4 -->
<g id="edge3" class="edge">
<title>Node2&#45;&gt;Node4</title>
<path fill="none" stroke="midnightblue" d="M120.67,-98.4C112.59,-87.96 104.64,-77.69 97.59,-68.58"/>
<polygon fill="none" stroke="midnightblue" points="117.98,-100.64 126.86,-106.41 123.51,-96.36 117.98,-100.64"/>
</g>
<!-- Node6 -->
<g id="node6" class="node">
<title>Node6</title>
<g id="a_node6"><a xlink:href="classcie_1_1gl_1_1Plot2.html" target="_top" xlink:title="Default Plot2 that will cause a compilation error.">
<polygon fill="white" stroke="black" points="318.5,-6 318.5,-63 439.5,-63 439.5,-6 318.5,-6"/>
<text text-anchor="middle" x="379" y="-51" font-family="Helvetica,sans-Serif" font-size="10.00">cie::gl::Plot2&lt; Args &gt;</text>
<polyline fill="none" stroke="black" points="318.5,-44 439.5,-44 "/>
<text text-anchor="middle" x="379" y="-32" font-family="Helvetica,sans-Serif" font-size="10.00"> </text>
<polyline fill="none" stroke="black" points="318.5,-25 439.5,-25 "/>
<text text-anchor="middle" x="379" y="-13" font-family="Helvetica,sans-Serif" font-size="10.00"> </text>
</a>
</g>
</g>
<!-- Node5&#45;&gt;Node6 -->
<g id="edge5" class="edge">
<title>Node5&#45;&gt;Node6</title>
<path fill="none" stroke="midnightblue" d="M379,-96.36C379,-84.44 379,-72.84 379,-63.02"/>
<polygon fill="none" stroke="midnightblue" points="375.5,-96.41 379,-106.41 382.5,-96.41 375.5,-96.41"/>
</g>
<!-- Node7&#45;&gt;Node2 -->
<g id="edge7" class="edge">
<title>Node7&#45;&gt;Node2</title>
<path fill="none" stroke="orange" d="M234.12,-300.61C229.41,-294.17 224.96,-287.58 221,-281 213.45,-268.44 206.69,-254.31 200.89,-240.55"/>
<polygon fill="orange" stroke="orange" points="231.38,-302.79 240.19,-308.67 236.97,-298.58 231.38,-302.79"/>
<text text-anchor="middle" x="268" y="-267.5" font-family="Helvetica,sans-Serif" font-size="10.00"> &lt; std::true_type &gt;</text>
</g>
<!-- Node7&#45;&gt;Node5 -->
<g id="edge8" class="edge">
<title>Node7&#45;&gt;Node5</title>
<path fill="none" stroke="orange" d="M315.35,-289.71C319.22,-279.25 323.47,-268.76 328,-259 330.81,-252.94 333.95,-246.76 337.25,-240.65"/>
<polygon fill="orange" stroke="orange" points="311.99,-288.69 311.89,-299.29 318.58,-291.07 311.99,-288.69"/>
<text text-anchor="start" x="328" y="-273" font-family="Helvetica,sans-Serif" font-size="10.00"> &lt; std::false_type,</text>
<text text-anchor="middle" x="373" y="-262" font-family="Helvetica,sans-Serif" font-size="10.00"> Args... &gt;</text>
</g>
</g>
</svg>
