<?xml version="1.0" encoding="UTF-8" standalone="no"?>
<!DOCTYPE svg PUBLIC "-//W3C//DTD SVG 1.1//EN"
 "http://www.w3.org/Graphics/SVG/1.1/DTD/svg11.dtd">
<!-- Generated by graphviz version 2.43.0 (0)
 -->
<!-- Title: cie::gl::ProjectionPolicy Pages: 1 -->
<svg width="337pt" height="237pt"
 viewBox="0.00 0.00 337.00 237.00" xmlns="http://www.w3.org/2000/svg" xmlns:xlink="http://www.w3.org/1999/xlink">
<g id="graph0" class="graph" transform="scale(1 1) rotate(0) translate(4 233)">
<title>cie::gl::ProjectionPolicy</title>
<polygon fill="white" stroke="transparent" points="-4,4 -4,-233 333,-233 333,4 -4,4"/>
<!-- Node1 -->
<g id="node1" class="node">
<title>Node1</title>
<g id="a_node1"><a xlink:title=" ">
<polygon fill="#bfbfbf" stroke="black" points="62,-0.5 62,-112.5 204,-112.5 204,-0.5 62,-0.5"/>
<text text-anchor="middle" x="133" y="-100.5" font-family="Helvetica,sans-Serif" font-size="10.00">cie::gl::ProjectionPolicy</text>
<polyline fill="none" stroke="black" points="62,-93.5 204,-93.5 "/>
<text text-anchor="middle" x="133" y="-81.5" font-family="Helvetica,sans-Serif" font-size="10.00"> </text>
<polyline fill="none" stroke="black" points="62,-74.5 204,-74.5 "/>
<text text-anchor="start" x="70" y="-62.5" font-family="Helvetica,sans-Serif" font-size="10.00"># ProjectionPolicy()</text>
<text text-anchor="start" x="70" y="-51.5" font-family="Helvetica,sans-Serif" font-size="10.00"># ProjectionPolicy()</text>
<text text-anchor="start" x="70" y="-40.5" font-family="Helvetica,sans-Serif" font-size="10.00"># ProjectionPolicy()</text>
<text text-anchor="start" x="70" y="-29.5" font-family="Helvetica,sans-Serif" font-size="10.00"># zoom_impl()</text>
<text text-anchor="start" x="70" y="-18.5" font-family="Helvetica,sans-Serif" font-size="10.00"># updateProjectionMatrix</text>
<text text-anchor="start" x="70" y="-7.5" font-family="Helvetica,sans-Serif" font-size="10.00">_impl()</text>
</a>
</g>
</g>
<!-- Node2 -->
<g id="node2" class="node">
<title>Node2</title>
<g id="a_node2"><a xlink:title=" ">
<polygon fill="white" stroke="#bfbfbf" points="0,-171.5 0,-228.5 50,-228.5 50,-171.5 0,-171.5"/>
<text text-anchor="middle" x="25" y="-216.5" font-family="Helvetica,sans-Serif" font-size="10.00">double</text>
<polyline fill="none" stroke="#bfbfbf" points="0,-209.5 50,-209.5 "/>
<text text-anchor="middle" x="25" y="-197.5" font-family="Helvetica,sans-Serif" font-size="10.00"> </text>
<polyline fill="none" stroke="#bfbfbf" points="0,-190.5 50,-190.5 "/>
<text text-anchor="middle" x="25" y="-178.5" font-family="Helvetica,sans-Serif" font-size="10.00"> </text>
</a>
</g>
</g>
<!-- Node2&#45;&gt;Node1 -->
<g id="edge1" class="edge">
<title>Node2&#45;&gt;Node1</title>
<path fill="none" stroke="#404040" d="M33.73,-171.5C38.57,-158.55 45.37,-143.29 54,-131 56.14,-127.96 58.42,-124.94 60.81,-121.97"/>
<polygon fill="none" stroke="#404040" points="60.98,-121.77 61.83,-114.61 68.77,-112.65 67.92,-119.81 60.98,-121.77"/>
<text text-anchor="middle" x="91.5" y="-145" font-family="Helvetica,sans-Serif" font-size="10.00"> #_aspectRatio</text>
<text text-anchor="middle" x="91.5" y="-134" font-family="Helvetica,sans-Serif" font-size="10.00">#_fieldOfView</text>
</g>
<!-- Node3 -->
<g id="node3" class="node">
<title>Node3</title>
<g id="a_node3"><a xlink:title=" ">
<polygon fill="white" stroke="#bfbfbf" points="68,-171.5 68,-228.5 198,-228.5 198,-171.5 68,-171.5"/>
<text text-anchor="middle" x="133" y="-216.5" font-family="Helvetica,sans-Serif" font-size="10.00">pair&lt; double, double &gt;</text>
<polyline fill="none" stroke="#bfbfbf" points="68,-209.5 198,-209.5 "/>
<text text-anchor="middle" x="133" y="-197.5" font-family="Helvetica,sans-Serif" font-size="10.00"> </text>
<polyline fill="none" stroke="#bfbfbf" points="68,-190.5 198,-190.5 "/>
<text text-anchor="middle" x="133" y="-178.5" font-family="Helvetica,sans-Serif" font-size="10.00"> </text>
</a>
</g>
</g>
<!-- Node3&#45;&gt;Node1 -->
<g id="edge2" class="edge">
<title>Node3&#45;&gt;Node1</title>
<path fill="none" stroke="#404040" d="M133,-171.38C133,-158.05 133,-141.42 133,-125.01"/>
<polygon fill="none" stroke="#404040" points="133,-124.57 129,-118.57 133,-112.57 137,-118.57 133,-124.57"/>
<text text-anchor="middle" x="177" y="-139.5" font-family="Helvetica,sans-Serif" font-size="10.00"> #_clippingPlanes</text>
</g>
<!-- Node4 -->
<g id="node4" class="node">
<title>Node4</title>
<g id="a_node4"><a xlink:title=" ">
<polygon fill="white" stroke="#bfbfbf" points="223,-171.5 223,-228.5 265,-228.5 265,-171.5 223,-171.5"/>
<text text-anchor="middle" x="244" y="-216.5" font-family="Helvetica,sans-Serif" font-size="10.00">mat4</text>
<polyline fill="none" stroke="#bfbfbf" points="223,-209.5 265,-209.5 "/>
<text text-anchor="middle" x="244" y="-197.5" font-family="Helvetica,sans-Serif" font-size="10.00"> </text>
<polyline fill="none" stroke="#bfbfbf" points="223,-190.5 265,-190.5 "/>
<text text-anchor="middle" x="244" y="-178.5" font-family="Helvetica,sans-Serif" font-size="10.00"> </text>
</a>
</g>
</g>
<!-- Node4&#45;&gt;Node1 -->
<g id="edge3" class="edge">
<title>Node4&#45;&gt;Node1</title>
<path fill="none" stroke="#404040" d="M238.8,-171.25C235.45,-158.24 230.16,-143.01 222,-131 219.15,-126.8 215.99,-122.72 212.62,-118.76"/>
<polygon fill="none" stroke="#404040" points="212.5,-118.63 205.49,-116.91 204.39,-109.78 211.39,-111.51 212.5,-118.63"/>
<text text-anchor="middle" x="280.5" y="-139.5" font-family="Helvetica,sans-Serif" font-size="10.00"> #_projectionMatrix</text>
</g>
</g>
</svg>
