<?xml version="1.0" encoding="UTF-8" standalone="no"?>
<!DOCTYPE svg PUBLIC "-//W3C//DTD SVG 1.1//EN"
 "http://www.w3.org/Graphics/SVG/1.1/DTD/svg11.dtd">
<!-- Generated by graphviz version 2.43.0 (0)
 -->
<!-- Title: cie::gl::AbsGLShape Pages: 1 -->
<!--zoomable 720 -->
<svg id="main" version="1.1" xmlns="http://www.w3.org/2000/svg" xmlns:xlink="http://www.w3.org/1999/xlink" xml:space="preserve" onload="init(evt)">
<style type="text/css"><![CDATA[
.edge:hover path { stroke: red; }
.edge:hover polygon { stroke: red; fill: red; }
]]></style>
<script type="text/javascript"><![CDATA[
var edges = document.getElementsByTagName('g');
if (edges && edges.length) {
  for (var i=0;i<edges.length;i++) {
    if (edges[i].id.substr(0,4)=='edge') {
      edges[i].setAttribute('class','edge');
    }
  }
}
]]></script>
        <defs>
                <circle id="rim" cx="0" cy="0" r="7"/>
                <circle id="rim2" cx="0" cy="0" r="3.5"/>
                <g id="zoomPlus">
                        <use xlink:href="#rim" fill="#404040">
                                <set attributeName="fill" to="#808080" begin="zoomplus.mouseover" end="zoomplus.mouseout"/>
                        </use>
                        <path d="M-4,0h8M0,-4v8" fill="none" stroke="white" stroke-width="1.5" pointer-events="none"/>
                </g>
                <g id="zoomMin">
                        <use xlink:href="#rim" fill="#404040">
                                <set attributeName="fill" to="#808080" begin="zoomminus.mouseover" end="zoomminus.mouseout"/>
                        </use>
                        <path d="M-4,0h8" fill="none" stroke="white" stroke-width="1.5" pointer-events="none"/>
                </g>
                <g id="dirArrow">
                        <path fill="none" stroke="white" stroke-width="1.5" d="M0,-3.0v7 M-2.5,-0.5L0,-3.0L2.5,-0.5"/>
                </g>
               <g id="resetDef">
                       <use xlink:href="#rim2" fill="#404040">
                               <set attributeName="fill" to="#808080" begin="reset.mouseover" end="reset.mouseout"/>
                       </use>
               </g>
        </defs>

<script type="text/javascript">
var viewWidth = 360;
var viewHeight = 720;
var sectionId = 'dynsection-0';
</script>
<script xlink:href="svgpan.js"/>
<svg id="graph" class="graph">
<g id="viewport">
<title>cie::gl::AbsGLShape</title>
<polygon fill="white" stroke="transparent" points="-4,4 -4,-716 355.5,-716 355.5,4 -4,4"/>
<!-- Node1 -->
<g id="node1" class="node">
<title>Node1</title>
<g id="a_node1"><a xlink:title=" ">
<polygon fill="#bfbfbf" stroke="black" points="62.5,-460.5 62.5,-616.5 175.5,-616.5 175.5,-460.5 62.5,-460.5"/>
<text text-anchor="middle" x="119" y="-604.5" font-family="Helvetica,sans-Serif" font-size="10.00">cie::gl::AbsGLShape</text>
<polyline fill="none" stroke="black" points="62.5,-597.5 175.5,-597.5 "/>
<text text-anchor="start" x="70.5" y="-585.5" font-family="Helvetica,sans-Serif" font-size="10.00"># _p_attributes</text>
<polyline fill="none" stroke="black" points="62.5,-578.5 175.5,-578.5 "/>
<text text-anchor="start" x="70.5" y="-566.5" font-family="Helvetica,sans-Serif" font-size="10.00">+ AbsGLShape()</text>
<text text-anchor="start" x="70.5" y="-555.5" font-family="Helvetica,sans-Serif" font-size="10.00">+ AbsGLShape()</text>
<text text-anchor="start" x="70.5" y="-544.5" font-family="Helvetica,sans-Serif" font-size="10.00">+ setAttribute()</text>
<text text-anchor="start" x="70.5" y="-533.5" font-family="Helvetica,sans-Serif" font-size="10.00">+ updateShape()</text>
<text text-anchor="start" x="70.5" y="-522.5" font-family="Helvetica,sans-Serif" font-size="10.00">+ indices()</text>
<text text-anchor="start" x="70.5" y="-511.5" font-family="Helvetica,sans-Serif" font-size="10.00">+ attributes()</text>
<text text-anchor="start" x="70.5" y="-500.5" font-family="Helvetica,sans-Serif" font-size="10.00">+ attributes()</text>
<text text-anchor="start" x="70.5" y="-489.5" font-family="Helvetica,sans-Serif" font-size="10.00"># AbsGLShape()</text>
<text text-anchor="start" x="70.5" y="-478.5" font-family="Helvetica,sans-Serif" font-size="10.00"># AbsGLShape()</text>
<text text-anchor="start" x="70.5" y="-467.5" font-family="Helvetica,sans-Serif" font-size="10.00"># operator=()</text>
</a>
</g>
</g>
<!-- Node3 -->
<g id="node3" class="node">
<title>Node3</title>
<g id="a_node3"><a xlink:href="classcie_1_1gl_1_1CompoundShape.html" target="_top" xlink:title=" ">
<polygon fill="white" stroke="black" points="0,-101 0,-235 134,-235 134,-101 0,-101"/>
<text text-anchor="start" x="8" y="-223" font-family="Helvetica,sans-Serif" font-size="10.00">cie::gl::CompoundShape</text>
<text text-anchor="middle" x="67" y="-212" font-family="Helvetica,sans-Serif" font-size="10.00">&lt; ColoredVertex3 &gt;</text>
<polyline fill="none" stroke="black" points="0,-205 134,-205 "/>
<text text-anchor="start" x="8" y="-193" font-family="Helvetica,sans-Serif" font-size="10.00"># _shapes</text>
<polyline fill="none" stroke="black" points="0,-186 134,-186 "/>
<text text-anchor="start" x="8" y="-174" font-family="Helvetica,sans-Serif" font-size="10.00">+ CompoundShape()</text>
<text text-anchor="start" x="8" y="-163" font-family="Helvetica,sans-Serif" font-size="10.00">+ CompoundShape()</text>
<text text-anchor="start" x="8" y="-152" font-family="Helvetica,sans-Serif" font-size="10.00">+ CompoundShape()</text>
<text text-anchor="start" x="8" y="-141" font-family="Helvetica,sans-Serif" font-size="10.00">+ setAttribute()</text>
<text text-anchor="start" x="8" y="-130" font-family="Helvetica,sans-Serif" font-size="10.00">+ updateShape()</text>
<text text-anchor="start" x="8" y="-119" font-family="Helvetica,sans-Serif" font-size="10.00">+ indices()</text>
<text text-anchor="start" x="8" y="-108" font-family="Helvetica,sans-Serif" font-size="10.00">+ shapes()</text>
</a>
</g>
</g>
<!-- Node1&#45;&gt;Node3 -->
<g id="edge2" class="edge">
<title>Node1&#45;&gt;Node3</title>
<path fill="none" stroke="midnightblue" d="M57.26,-456.58C51.44,-445.75 46.45,-434.42 43,-423 24.32,-361.09 34.76,-287.18 47.17,-235.09"/>
<polygon fill="none" stroke="midnightblue" points="54.36,-458.57 62.32,-465.56 60.46,-455.13 54.36,-458.57"/>
</g>
<!-- Node5 -->
<g id="node5" class="node">
<title>Node5</title>
<g id="a_node5"><a xlink:href="classcie_1_1gl_1_1CompoundShape.html" target="_top" xlink:title="Container of shapes with an AbsGLShape interface.">
<polygon fill="white" stroke="black" points="52,-288.5 52,-422.5 186,-422.5 186,-288.5 52,-288.5"/>
<text text-anchor="start" x="60" y="-410.5" font-family="Helvetica,sans-Serif" font-size="10.00">cie::gl::CompoundShape</text>
<text text-anchor="middle" x="119" y="-399.5" font-family="Helvetica,sans-Serif" font-size="10.00">&lt; VertexType &gt;</text>
<polyline fill="none" stroke="black" points="52,-392.5 186,-392.5 "/>
<text text-anchor="start" x="60" y="-380.5" font-family="Helvetica,sans-Serif" font-size="10.00"># _shapes</text>
<polyline fill="none" stroke="black" points="52,-373.5 186,-373.5 "/>
<text text-anchor="start" x="60" y="-361.5" font-family="Helvetica,sans-Serif" font-size="10.00">+ CompoundShape()</text>
<text text-anchor="start" x="60" y="-350.5" font-family="Helvetica,sans-Serif" font-size="10.00">+ CompoundShape()</text>
<text text-anchor="start" x="60" y="-339.5" font-family="Helvetica,sans-Serif" font-size="10.00">+ CompoundShape()</text>
<text text-anchor="start" x="60" y="-328.5" font-family="Helvetica,sans-Serif" font-size="10.00">+ setAttribute()</text>
<text text-anchor="start" x="60" y="-317.5" font-family="Helvetica,sans-Serif" font-size="10.00">+ updateShape()</text>
<text text-anchor="start" x="60" y="-306.5" font-family="Helvetica,sans-Serif" font-size="10.00">+ indices()</text>
<text text-anchor="start" x="60" y="-295.5" font-family="Helvetica,sans-Serif" font-size="10.00">+ shapes()</text>
</a>
</g>
</g>
<!-- Node1&#45;&gt;Node5 -->
<g id="edge4" class="edge">
<title>Node1&#45;&gt;Node5</title>
<path fill="none" stroke="midnightblue" d="M119,-450.38C119,-441.03 119,-431.64 119,-422.6"/>
<polygon fill="none" stroke="midnightblue" points="115.5,-450.48 119,-460.48 122.5,-450.48 115.5,-450.48"/>
</g>
<!-- Node6 -->
<g id="node6" class="node">
<title>Node6</title>
<g id="a_node6"><a xlink:href="classcie_1_1gl_1_1GLShape.html" target="_top" xlink:title=" ">
<polygon fill="white" stroke="black" points="204.5,-288.5 204.5,-422.5 341.5,-422.5 341.5,-288.5 204.5,-288.5"/>
<text text-anchor="start" x="212.5" y="-410.5" font-family="Helvetica,sans-Serif" font-size="10.00">cie::gl::GLShape&lt; Vertex</text>
<text text-anchor="middle" x="273" y="-399.5" font-family="Helvetica,sans-Serif" font-size="10.00">Type &gt;</text>
<polyline fill="none" stroke="black" points="204.5,-392.5 341.5,-392.5 "/>
<text text-anchor="start" x="212.5" y="-380.5" font-family="Helvetica,sans-Serif" font-size="10.00"># _vertices</text>
<polyline fill="none" stroke="black" points="204.5,-373.5 341.5,-373.5 "/>
<text text-anchor="start" x="212.5" y="-361.5" font-family="Helvetica,sans-Serif" font-size="10.00">+ GLShape()</text>
<text text-anchor="start" x="212.5" y="-350.5" font-family="Helvetica,sans-Serif" font-size="10.00">+ GLShape()</text>
<text text-anchor="start" x="212.5" y="-339.5" font-family="Helvetica,sans-Serif" font-size="10.00">+ setAttribute()</text>
<text text-anchor="start" x="212.5" y="-328.5" font-family="Helvetica,sans-Serif" font-size="10.00">+ vertices()</text>
<text text-anchor="start" x="212.5" y="-317.5" font-family="Helvetica,sans-Serif" font-size="10.00"># GLShape()</text>
<text text-anchor="start" x="212.5" y="-306.5" font-family="Helvetica,sans-Serif" font-size="10.00"># GLShape()</text>
<text text-anchor="start" x="212.5" y="-295.5" font-family="Helvetica,sans-Serif" font-size="10.00"># operator=()</text>
</a>
</g>
</g>
<!-- Node1&#45;&gt;Node6 -->
<g id="edge6" class="edge">
<title>Node1&#45;&gt;Node6</title>
<path fill="none" stroke="midnightblue" d="M182.34,-463.06C193.72,-449.68 205.52,-435.81 216.69,-422.68"/>
<polygon fill="none" stroke="midnightblue" points="179.5,-460.99 175.69,-470.87 184.83,-465.53 179.5,-460.99"/>
</g>
<!-- Node2 -->
<g id="node2" class="node">
<title>Node2</title>
<g id="a_node2"><a xlink:href="structcie_1_1gl_1_1GLTraits.html" target="_top" xlink:title=" ">
<polygon fill="white" stroke="black" points="74,-654.5 74,-711.5 164,-711.5 164,-654.5 74,-654.5"/>
<text text-anchor="middle" x="119" y="-699.5" font-family="Helvetica,sans-Serif" font-size="10.00">cie::gl::GLTraits</text>
<polyline fill="none" stroke="black" points="74,-692.5 164,-692.5 "/>
<text text-anchor="middle" x="119" y="-680.5" font-family="Helvetica,sans-Serif" font-size="10.00"> </text>
<polyline fill="none" stroke="black" points="74,-673.5 164,-673.5 "/>
<text text-anchor="middle" x="119" y="-661.5" font-family="Helvetica,sans-Serif" font-size="10.00"> </text>
</a>
</g>
</g>
<!-- Node2&#45;&gt;Node1 -->
<g id="edge1" class="edge">
<title>Node2&#45;&gt;Node1</title>
<path fill="none" stroke="midnightblue" d="M119,-643.91C119,-635.42 119,-626.12 119,-616.69"/>
<polygon fill="none" stroke="midnightblue" points="115.5,-644.19 119,-654.19 122.5,-644.19 115.5,-644.19"/>
</g>
<!-- Node4 -->
<g id="node4" class="node">
<title>Node4</title>
<g id="a_node4"><a xlink:href="classcie_1_1gl_1_1Axes.html" target="_top" xlink:title=" ">
<polygon fill="white" stroke="black" points="29.5,-0.5 29.5,-57.5 104.5,-57.5 104.5,-0.5 29.5,-0.5"/>
<text text-anchor="middle" x="67" y="-45.5" font-family="Helvetica,sans-Serif" font-size="10.00">cie::gl::Axes</text>
<polyline fill="none" stroke="black" points="29.5,-38.5 104.5,-38.5 "/>
<text text-anchor="middle" x="67" y="-26.5" font-family="Helvetica,sans-Serif" font-size="10.00"> </text>
<polyline fill="none" stroke="black" points="29.5,-19.5 104.5,-19.5 "/>
<text text-anchor="start" x="37.5" y="-7.5" font-family="Helvetica,sans-Serif" font-size="10.00">+ Axes()</text>
</a>
</g>
</g>
<!-- Node3&#45;&gt;Node4 -->
<g id="edge3" class="edge">
<title>Node3&#45;&gt;Node4</title>
<path fill="none" stroke="midnightblue" d="M67,-90.86C67,-78.94 67,-67.34 67,-57.52"/>
<polygon fill="none" stroke="midnightblue" points="63.5,-90.91 67,-100.91 70.5,-90.91 63.5,-90.91"/>
</g>
<!-- Node5&#45;&gt;Node3 -->
<g id="edge5" class="edge">
<title>Node5&#45;&gt;Node3</title>
<path fill="none" stroke="orange" d="M97.69,-278.48C93.66,-264.11 89.48,-249.19 85.55,-235.16"/>
<polygon fill="orange" stroke="orange" points="94.38,-279.63 100.45,-288.32 101.12,-277.74 94.38,-279.63"/>
<text text-anchor="middle" x="145.5" y="-262" font-family="Helvetica,sans-Serif" font-size="10.00"> &lt; ColoredVertex3 &gt;</text>
</g>
<!-- Node7 -->
<g id="node7" class="node">
<title>Node7</title>
<g id="a_node7"><a xlink:href="classcie_1_1gl_1_1Arrow.html" target="_top" xlink:title=" ">
<polygon fill="white" stroke="black" points="194.5,-95.5 194.5,-240.5 351.5,-240.5 351.5,-95.5 194.5,-95.5"/>
<text text-anchor="middle" x="273" y="-228.5" font-family="Helvetica,sans-Serif" font-size="10.00">cie::gl::Arrow&lt; VertexType &gt;</text>
<polyline fill="none" stroke="black" points="194.5,-221.5 351.5,-221.5 "/>
<text text-anchor="start" x="202.5" y="-209.5" font-family="Helvetica,sans-Serif" font-size="10.00"># _source</text>
<text text-anchor="start" x="202.5" y="-198.5" font-family="Helvetica,sans-Serif" font-size="10.00"># _sink</text>
<text text-anchor="start" x="202.5" y="-187.5" font-family="Helvetica,sans-Serif" font-size="10.00"># _headRatio</text>
<text text-anchor="start" x="202.5" y="-176.5" font-family="Helvetica,sans-Serif" font-size="10.00"># _baseRadius</text>
<text text-anchor="start" x="202.5" y="-165.5" font-family="Helvetica,sans-Serif" font-size="10.00"># _headRadius</text>
<text text-anchor="start" x="202.5" y="-154.5" font-family="Helvetica,sans-Serif" font-size="10.00"># _resolution</text>
<polyline fill="none" stroke="black" points="194.5,-147.5 351.5,-147.5 "/>
<text text-anchor="start" x="202.5" y="-135.5" font-family="Helvetica,sans-Serif" font-size="10.00">+ Arrow()</text>
<text text-anchor="start" x="202.5" y="-124.5" font-family="Helvetica,sans-Serif" font-size="10.00">+ Arrow()</text>
<text text-anchor="start" x="202.5" y="-113.5" font-family="Helvetica,sans-Serif" font-size="10.00">+ updateShape()</text>
<text text-anchor="start" x="202.5" y="-102.5" font-family="Helvetica,sans-Serif" font-size="10.00">+ indices()</text>
</a>
</g>
</g>
<!-- Node6&#45;&gt;Node7 -->
<g id="edge7" class="edge">
<title>Node6&#45;&gt;Node7</title>
<path fill="none" stroke="midnightblue" d="M273,-278.01C273,-265.6 273,-252.79 273,-240.5"/>
<polygon fill="none" stroke="midnightblue" points="269.5,-278.32 273,-288.32 276.5,-278.32 269.5,-278.32"/>
</g>
</g>
</svg>
        <g id="navigator" transform="translate(0 0)" fill="#404254">
                <rect fill="#f2f5e9" fill-opacity="0.5" stroke="#606060" stroke-width=".5" x="0" y="0" width="60" height="60"/>
                <use id="zoomplus" xlink:href="#zoomPlus" x="17" y="9" onmousedown="handleZoom(evt,'in')"/>
                <use id="zoomminus" xlink:href="#zoomMin" x="42" y="9" onmousedown="handleZoom(evt,'out')"/>
                <use id="reset" xlink:href="#resetDef" x="30" y="36" onmousedown="handleReset()"/>
                <g id="arrowUp" xlink:href="#dirArrow" transform="translate(30 24)" onmousedown="handlePan(0,-1)">
                  <use xlink:href="#rim" fill="#404040">
                        <set attributeName="fill" to="#808080" begin="arrowUp.mouseover" end="arrowUp.mouseout"/>
                  </use>
                  <path fill="none" stroke="white" stroke-width="1.5" d="M0,-3.0v7 M-2.5,-0.5L0,-3.0L2.5,-0.5"/>
                </g>
                <g id="arrowRight" xlink:href="#dirArrow" transform="rotate(90) translate(36 -43)" onmousedown="handlePan(1,0)">
                  <use xlink:href="#rim" fill="#404040">
                        <set attributeName="fill" to="#808080" begin="arrowRight.mouseover" end="arrowRight.mouseout"/>
                  </use>
                  <path fill="none" stroke="white" stroke-width="1.5" d="M0,-3.0v7 M-2.5,-0.5L0,-3.0L2.5,-0.5"/>
                </g>
                <g id="arrowDown" xlink:href="#dirArrow" transform="rotate(180) translate(-30 -48)" onmousedown="handlePan(0,1)">
                  <use xlink:href="#rim" fill="#404040">
                        <set attributeName="fill" to="#808080" begin="arrowDown.mouseover" end="arrowDown.mouseout"/>
                  </use>
                  <path fill="none" stroke="white" stroke-width="1.5" d="M0,-3.0v7 M-2.5,-0.5L0,-3.0L2.5,-0.5"/>
                </g>
                <g id="arrowLeft" xlink:href="#dirArrow" transform="rotate(270) translate(-36 17)" onmousedown="handlePan(-1,0)">
                  <use xlink:href="#rim" fill="#404040">
                        <set attributeName="fill" to="#808080" begin="arrowLeft.mouseover" end="arrowLeft.mouseout"/>
                  </use>
                  <path fill="none" stroke="white" stroke-width="1.5" d="M0,-3.0v7 M-2.5,-0.5L0,-3.0L2.5,-0.5"/>
                </g>
        </g>
        <svg viewBox="0 0 15 15" width="100%" height="30px" preserveAspectRatio="xMaxYMin meet">
         <g id="arrow_out" transform="scale(0.3 0.3)">
          <a xlink:href="classcie_1_1gl_1_1AbsGLShape__inherit__graph_org.svg" target="_base">
           <rect id="button" ry="5" rx="5" y="6" x="6" height="38" width="38"
                fill="#f2f5e9" fill-opacity="0.5" stroke="#606060" stroke-width="1.0"/>
           <path id="arrow"
             d="M 11.500037,31.436501 C 11.940474,20.09759 22.043105,11.32322 32.158766,21.979434 L 37.068811,17.246167 C 37.068811,17.246167 37.088388,32 37.088388,32 L 22.160133,31.978069 C 22.160133,31.978069 26.997745,27.140456 26.997745,27.140456 C 18.528582,18.264221 13.291696,25.230495 11.500037,31.436501 z"
             style="fill:#404040;"/>
          </a>
         </g>
        </svg>
</svg>
