<?xml version="1.0" encoding="UTF-8" standalone="no"?>
<!DOCTYPE svg PUBLIC "-//W3C//DTD SVG 1.1//EN"
 "http://www.w3.org/Graphics/SVG/1.1/DTD/svg11.dtd">
<!-- Generated by graphviz version 2.43.0 (0)
 -->
<!-- Title: cie::gl::MappedCameraControls Pages: 1 -->
<svg width="532pt" height="788pt"
 viewBox="0.00 0.00 531.50 788.00" xmlns="http://www.w3.org/2000/svg" xmlns:xlink="http://www.w3.org/1999/xlink">
<g id="graph0" class="graph" transform="scale(1 1) rotate(0) translate(4 784)">
<title>cie::gl::MappedCameraControls</title>
<polygon fill="white" stroke="transparent" points="-4,4 -4,-784 527.5,-784 527.5,4 -4,4"/>
<!-- Node1 -->
<g id="node1" class="node">
<title>Node1</title>
<g id="a_node1"><a xlink:title=" ">
<polygon fill="#bfbfbf" stroke="black" points="171.5,-138.5 171.5,-206.5 341.5,-206.5 341.5,-138.5 171.5,-138.5"/>
<text text-anchor="middle" x="256.5" y="-194.5" font-family="Helvetica,sans-Serif" font-size="10.00">cie::gl::MappedCameraControls</text>
<polyline fill="none" stroke="black" points="171.5,-187.5 341.5,-187.5 "/>
<text text-anchor="middle" x="256.5" y="-175.5" font-family="Helvetica,sans-Serif" font-size="10.00"> </text>
<polyline fill="none" stroke="black" points="171.5,-168.5 341.5,-168.5 "/>
<text text-anchor="start" x="179.5" y="-156.5" font-family="Helvetica,sans-Serif" font-size="10.00">+ MappedCameraControls()</text>
<text text-anchor="start" x="179.5" y="-145.5" font-family="Helvetica,sans-Serif" font-size="10.00"># onSubjectChange()</text>
</a>
</g>
</g>
<!-- Node5 -->
<g id="node5" class="node">
<title>Node5</title>
<g id="a_node5"><a xlink:href="classcie_1_1gl_1_1ArcBallCameraControls.html" target="_top" xlink:title=" ">
<polygon fill="white" stroke="black" points="0,-0.5 0,-101.5 165,-101.5 165,-0.5 0,-0.5"/>
<text text-anchor="middle" x="82.5" y="-89.5" font-family="Helvetica,sans-Serif" font-size="10.00">cie::gl::ArcBallCameraControls</text>
<polyline fill="none" stroke="black" points="0,-82.5 165,-82.5 "/>
<text text-anchor="middle" x="82.5" y="-70.5" font-family="Helvetica,sans-Serif" font-size="10.00"> </text>
<polyline fill="none" stroke="black" points="0,-63.5 165,-63.5 "/>
<text text-anchor="start" x="8" y="-51.5" font-family="Helvetica,sans-Serif" font-size="10.00">+ ArcBallCameraControls()</text>
<text text-anchor="start" x="8" y="-40.5" font-family="Helvetica,sans-Serif" font-size="10.00">+ getCenter()</text>
<text text-anchor="start" x="8" y="-29.5" font-family="Helvetica,sans-Serif" font-size="10.00">+ setCenter()</text>
<text text-anchor="start" x="8" y="-18.5" font-family="Helvetica,sans-Serif" font-size="10.00">+ setRotationScale()</text>
<text text-anchor="start" x="8" y="-7.5" font-family="Helvetica,sans-Serif" font-size="10.00">+ setZoomScale()</text>
</a>
</g>
</g>
<!-- Node1&#45;&gt;Node5 -->
<g id="edge4" class="edge">
<title>Node1&#45;&gt;Node5</title>
<path fill="none" stroke="midnightblue" d="M199.74,-132.52C185.39,-122.66 169.79,-111.95 154.79,-101.65"/>
<polygon fill="none" stroke="midnightblue" points="197.81,-135.44 208.03,-138.21 201.77,-129.67 197.81,-135.44"/>
</g>
<!-- Node6 -->
<g id="node6" class="node">
<title>Node6</title>
<g id="a_node6"><a xlink:href="classcie_1_1gl_1_1FlyCameraControls.html" target="_top" xlink:title=" ">
<polygon fill="white" stroke="black" points="183.5,-6 183.5,-96 329.5,-96 329.5,-6 183.5,-6"/>
<text text-anchor="middle" x="256.5" y="-84" font-family="Helvetica,sans-Serif" font-size="10.00">cie::gl::FlyCameraControls</text>
<polyline fill="none" stroke="black" points="183.5,-77 329.5,-77 "/>
<text text-anchor="middle" x="256.5" y="-65" font-family="Helvetica,sans-Serif" font-size="10.00"> </text>
<polyline fill="none" stroke="black" points="183.5,-58 329.5,-58 "/>
<text text-anchor="start" x="191.5" y="-46" font-family="Helvetica,sans-Serif" font-size="10.00">+ FlyCameraControls()</text>
<text text-anchor="start" x="191.5" y="-35" font-family="Helvetica,sans-Serif" font-size="10.00">+ setMovementScale()</text>
<text text-anchor="start" x="191.5" y="-24" font-family="Helvetica,sans-Serif" font-size="10.00">+ setRotationScale()</text>
<text text-anchor="start" x="191.5" y="-13" font-family="Helvetica,sans-Serif" font-size="10.00">+ setZoomScale()</text>
</a>
</g>
</g>
<!-- Node1&#45;&gt;Node6 -->
<g id="edge5" class="edge">
<title>Node1&#45;&gt;Node6</title>
<path fill="none" stroke="midnightblue" d="M256.5,-128.13C256.5,-117.77 256.5,-106.69 256.5,-96.28"/>
<polygon fill="none" stroke="midnightblue" points="253,-128.21 256.5,-138.21 260,-128.21 253,-128.21"/>
</g>
<!-- Node7 -->
<g id="node7" class="node">
<title>Node7</title>
<g id="a_node7"><a xlink:href="classcie_1_1gl_1_1PanZoomCameraControls.html" target="_top" xlink:title=" ">
<polygon fill="white" stroke="black" points="347.5,-11.5 347.5,-90.5 523.5,-90.5 523.5,-11.5 347.5,-11.5"/>
<text text-anchor="middle" x="435.5" y="-78.5" font-family="Helvetica,sans-Serif" font-size="10.00">cie::gl::PanZoomCameraControls</text>
<polyline fill="none" stroke="black" points="347.5,-71.5 523.5,-71.5 "/>
<text text-anchor="middle" x="435.5" y="-59.5" font-family="Helvetica,sans-Serif" font-size="10.00"> </text>
<polyline fill="none" stroke="black" points="347.5,-52.5 523.5,-52.5 "/>
<text text-anchor="start" x="355.5" y="-40.5" font-family="Helvetica,sans-Serif" font-size="10.00">+ PanZoomCameraControls()</text>
<text text-anchor="start" x="355.5" y="-29.5" font-family="Helvetica,sans-Serif" font-size="10.00">+ setMovementScale()</text>
<text text-anchor="start" x="355.5" y="-18.5" font-family="Helvetica,sans-Serif" font-size="10.00">+ setZoomScale()</text>
</a>
</g>
</g>
<!-- Node1&#45;&gt;Node7 -->
<g id="edge6" class="edge">
<title>Node1&#45;&gt;Node7</title>
<path fill="none" stroke="midnightblue" d="M314.84,-132.55C335,-119.1 357.56,-104.03 377.68,-90.6"/>
<polygon fill="none" stroke="midnightblue" points="312.74,-129.75 306.36,-138.21 316.62,-135.57 312.74,-129.75"/>
</g>
<!-- Node2 -->
<g id="node2" class="node">
<title>Node2</title>
<g id="a_node2"><a xlink:href="classcie_1_1gl_1_1AbsCameraControls.html" target="_top" xlink:title=" ">
<polygon fill="white" stroke="black" points="97,-243.5 97,-564.5 248,-564.5 248,-243.5 97,-243.5"/>
<text text-anchor="middle" x="172.5" y="-552.5" font-family="Helvetica,sans-Serif" font-size="10.00">cie::gl::AbsCameraControls</text>
<polyline fill="none" stroke="black" points="97,-545.5 248,-545.5 "/>
<text text-anchor="start" x="105" y="-533.5" font-family="Helvetica,sans-Serif" font-size="10.00"># _p_window</text>
<text text-anchor="start" x="105" y="-522.5" font-family="Helvetica,sans-Serif" font-size="10.00"># _p_camera</text>
<text text-anchor="start" x="105" y="-511.5" font-family="Helvetica,sans-Serif" font-size="10.00"># _x</text>
<text text-anchor="start" x="105" y="-500.5" font-family="Helvetica,sans-Serif" font-size="10.00"># _y</text>
<text text-anchor="start" x="105" y="-489.5" font-family="Helvetica,sans-Serif" font-size="10.00"># _escapeKey</text>
<text text-anchor="start" x="105" y="-478.5" font-family="Helvetica,sans-Serif" font-size="10.00"># _activeKeys</text>
<polyline fill="none" stroke="black" points="97,-471.5 248,-471.5 "/>
<text text-anchor="start" x="105" y="-459.5" font-family="Helvetica,sans-Serif" font-size="10.00">+ AbsCameraControls()</text>
<text text-anchor="start" x="105" y="-448.5" font-family="Helvetica,sans-Serif" font-size="10.00">+ mouseButtonCallback()</text>
<text text-anchor="start" x="105" y="-437.5" font-family="Helvetica,sans-Serif" font-size="10.00">+ cursorPositionCallback()</text>
<text text-anchor="start" x="105" y="-426.5" font-family="Helvetica,sans-Serif" font-size="10.00">+ cursorEnterCallback()</text>
<text text-anchor="start" x="105" y="-415.5" font-family="Helvetica,sans-Serif" font-size="10.00">+ scrollCallback()</text>
<text text-anchor="start" x="105" y="-404.5" font-family="Helvetica,sans-Serif" font-size="10.00">+ keyboardCallback()</text>
<text text-anchor="start" x="105" y="-393.5" font-family="Helvetica,sans-Serif" font-size="10.00">+ bind()</text>
<text text-anchor="start" x="105" y="-382.5" font-family="Helvetica,sans-Serif" font-size="10.00"># onMouseButtonPress()</text>
<text text-anchor="start" x="105" y="-371.5" font-family="Helvetica,sans-Serif" font-size="10.00"># onMouseButtonHold()</text>
<text text-anchor="start" x="105" y="-360.5" font-family="Helvetica,sans-Serif" font-size="10.00"># onMouseButtonRelease()</text>
<text text-anchor="start" x="105" y="-349.5" font-family="Helvetica,sans-Serif" font-size="10.00"># onCursorMovement()</text>
<text text-anchor="start" x="105" y="-338.5" font-family="Helvetica,sans-Serif" font-size="10.00"># onCursorEnter()</text>
<text text-anchor="start" x="105" y="-327.5" font-family="Helvetica,sans-Serif" font-size="10.00"># onCursorLeave()</text>
<text text-anchor="start" x="105" y="-316.5" font-family="Helvetica,sans-Serif" font-size="10.00"># onHorizontalScroll()</text>
<text text-anchor="start" x="105" y="-305.5" font-family="Helvetica,sans-Serif" font-size="10.00"># onVerticalScroll()</text>
<text text-anchor="start" x="105" y="-294.5" font-family="Helvetica,sans-Serif" font-size="10.00"># onKeyboardPress()</text>
<text text-anchor="start" x="105" y="-283.5" font-family="Helvetica,sans-Serif" font-size="10.00"># onKeyboardHold()</text>
<text text-anchor="start" x="105" y="-272.5" font-family="Helvetica,sans-Serif" font-size="10.00"># onKeyboardRelease()</text>
<text text-anchor="start" x="105" y="-261.5" font-family="Helvetica,sans-Serif" font-size="10.00"># onSubjectChange()</text>
<text text-anchor="start" x="105" y="-250.5" font-family="Helvetica,sans-Serif" font-size="10.00"># getWindow()</text>
</a>
</g>
</g>
<!-- Node2&#45;&gt;Node1 -->
<g id="edge1" class="edge">
<title>Node2&#45;&gt;Node1</title>
<path fill="none" stroke="midnightblue" d="M234.49,-233.63C238.11,-223.76 241.46,-214.59 244.41,-206.54"/>
<polygon fill="none" stroke="midnightblue" points="231.11,-232.7 230.96,-243.29 237.68,-235.1 231.11,-232.7"/>
</g>
<!-- Node3 -->
<g id="node3" class="node">
<title>Node3</title>
<g id="a_node3"><a target="_parent" xlink:href="../../../cieutils/docs/html/classcie_1_1utils_1_1observer_1_1Observer.html" xlink:title=" ">
<polygon fill="white" stroke="black" points="112.5,-601.5 112.5,-779.5 232.5,-779.5 232.5,-601.5 112.5,-601.5"/>
<text text-anchor="start" x="120.5" y="-767.5" font-family="Helvetica,sans-Serif" font-size="10.00">cie::utils::observer</text>
<text text-anchor="middle" x="172.5" y="-756.5" font-family="Helvetica,sans-Serif" font-size="10.00">::Observer</text>
<polyline fill="none" stroke="black" points="112.5,-749.5 232.5,-749.5 "/>
<text text-anchor="start" x="120.5" y="-737.5" font-family="Helvetica,sans-Serif" font-size="10.00"># _subject</text>
<polyline fill="none" stroke="black" points="112.5,-730.5 232.5,-730.5 "/>
<text text-anchor="start" x="120.5" y="-718.5" font-family="Helvetica,sans-Serif" font-size="10.00">+ Observer()</text>
<text text-anchor="start" x="120.5" y="-707.5" font-family="Helvetica,sans-Serif" font-size="10.00">+ Observer()</text>
<text text-anchor="start" x="120.5" y="-696.5" font-family="Helvetica,sans-Serif" font-size="10.00">+ Observer()</text>
<text text-anchor="start" x="120.5" y="-685.5" font-family="Helvetica,sans-Serif" font-size="10.00">+ operator=()</text>
<text text-anchor="start" x="120.5" y="-674.5" font-family="Helvetica,sans-Serif" font-size="10.00">+ ~Observer()</text>
<text text-anchor="start" x="120.5" y="-663.5" font-family="Helvetica,sans-Serif" font-size="10.00">+ onSubjectChange()</text>
<text text-anchor="start" x="120.5" y="-652.5" font-family="Helvetica,sans-Serif" font-size="10.00">+ detach()</text>
<text text-anchor="start" x="120.5" y="-641.5" font-family="Helvetica,sans-Serif" font-size="10.00">+ as()</text>
<text text-anchor="start" x="120.5" y="-630.5" font-family="Helvetica,sans-Serif" font-size="10.00">+ setSubject()</text>
<text text-anchor="start" x="120.5" y="-619.5" font-family="Helvetica,sans-Serif" font-size="10.00">+ subject()</text>
<text text-anchor="start" x="120.5" y="-608.5" font-family="Helvetica,sans-Serif" font-size="10.00">+ subject()</text>
</a>
</g>
</g>
<!-- Node3&#45;&gt;Node2 -->
<g id="edge2" class="edge">
<title>Node3&#45;&gt;Node2</title>
<path fill="none" stroke="midnightblue" d="M172.5,-591.32C172.5,-582.6 172.5,-573.64 172.5,-564.58"/>
<polygon fill="none" stroke="midnightblue" points="169,-591.43 172.5,-601.43 176,-591.43 169,-591.43"/>
</g>
<!-- Node4 -->
<g id="node4" class="node">
<title>Node4</title>
<g id="a_node4"><a xlink:href="classcie_1_1gl_1_1MappedControls.html" target="_top" xlink:title=" ">
<polygon fill="white" stroke="black" points="266,-353.5 266,-454.5 415,-454.5 415,-353.5 266,-353.5"/>
<text text-anchor="middle" x="340.5" y="-442.5" font-family="Helvetica,sans-Serif" font-size="10.00">cie::gl::MappedControls</text>
<polyline fill="none" stroke="black" points="266,-435.5 415,-435.5 "/>
<text text-anchor="start" x="274" y="-423.5" font-family="Helvetica,sans-Serif" font-size="10.00"># _controlMap</text>
<polyline fill="none" stroke="black" points="266,-416.5 415,-416.5 "/>
<text text-anchor="start" x="274" y="-404.5" font-family="Helvetica,sans-Serif" font-size="10.00">+ MappedControls()</text>
<text text-anchor="start" x="274" y="-393.5" font-family="Helvetica,sans-Serif" font-size="10.00">+ configure()</text>
<text text-anchor="start" x="274" y="-382.5" font-family="Helvetica,sans-Serif" font-size="10.00">+ configure()</text>
<text text-anchor="start" x="274" y="-371.5" font-family="Helvetica,sans-Serif" font-size="10.00">+ callControl()</text>
<text text-anchor="start" x="274" y="-360.5" font-family="Helvetica,sans-Serif" font-size="10.00"># makeConfigurationMap()</text>
</a>
</g>
</g>
<!-- Node4&#45;&gt;Node1 -->
<g id="edge3" class="edge">
<title>Node4&#45;&gt;Node1</title>
<path fill="none" stroke="midnightblue" d="M318.85,-343.84C302.88,-300.21 281.73,-242.45 268.63,-206.64"/>
<polygon fill="none" stroke="midnightblue" points="315.65,-345.3 322.38,-353.48 322.23,-342.89 315.65,-345.3"/>
</g>
</g>
</svg>
