<?xml version="1.0" encoding="UTF-8" standalone="no"?>
<!DOCTYPE svg PUBLIC "-//W3C//DTD SVG 1.1//EN"
 "http://www.w3.org/Graphics/SVG/1.1/DTD/svg11.dtd">
<!-- Generated by graphviz version 2.43.0 (0)
 -->
<!-- Title: cie::gl::Part Pages: 1 -->
<svg width="321pt" height="347pt"
 viewBox="0.00 0.00 321.00 347.00" xmlns="http://www.w3.org/2000/svg" xmlns:xlink="http://www.w3.org/1999/xlink">
<g id="graph0" class="graph" transform="scale(1 1) rotate(0) translate(4 343)">
<title>cie::gl::Part</title>
<polygon fill="white" stroke="transparent" points="-4,4 -4,-343 317,-343 317,4 -4,4"/>
<!-- Node1 -->
<g id="node1" class="node">
<title>Node1</title>
<g id="a_node1"><a xlink:title=" ">
<polygon fill="#bfbfbf" stroke="black" points="84.5,-0.5 84.5,-233.5 227.5,-233.5 227.5,-0.5 84.5,-0.5"/>
<text text-anchor="middle" x="156" y="-221.5" font-family="Helvetica,sans-Serif" font-size="10.00">cie::gl::Part</text>
<polyline fill="none" stroke="black" points="84.5,-214.5 227.5,-214.5 "/>
<text text-anchor="middle" x="156" y="-202.5" font-family="Helvetica,sans-Serif" font-size="10.00"> </text>
<polyline fill="none" stroke="black" points="84.5,-195.5 227.5,-195.5 "/>
<text text-anchor="start" x="92.5" y="-183.5" font-family="Helvetica,sans-Serif" font-size="10.00">+ Part()</text>
<text text-anchor="start" x="92.5" y="-172.5" font-family="Helvetica,sans-Serif" font-size="10.00">+ attributeByteCount()</text>
<text text-anchor="start" x="92.5" y="-161.5" font-family="Helvetica,sans-Serif" font-size="10.00">+ indexByteCount()</text>
<text text-anchor="start" x="92.5" y="-150.5" font-family="Helvetica,sans-Serif" font-size="10.00">+ numberOfVertices()</text>
<text text-anchor="start" x="92.5" y="-139.5" font-family="Helvetica,sans-Serif" font-size="10.00">+ numberOfPrimitives()</text>
<text text-anchor="start" x="92.5" y="-128.5" font-family="Helvetica,sans-Serif" font-size="10.00">+ load()</text>
<text text-anchor="start" x="92.5" y="-117.5" font-family="Helvetica,sans-Serif" font-size="10.00">+ attributes()</text>
<text text-anchor="start" x="92.5" y="-106.5" font-family="Helvetica,sans-Serif" font-size="10.00">+ indices()</text>
<text text-anchor="start" x="92.5" y="-95.5" font-family="Helvetica,sans-Serif" font-size="10.00">+ dimension()</text>
<text text-anchor="start" x="92.5" y="-84.5" font-family="Helvetica,sans-Serif" font-size="10.00">+ vertexAttributeSize()</text>
<text text-anchor="start" x="92.5" y="-73.5" font-family="Helvetica,sans-Serif" font-size="10.00">+ primitiveVertexSize()</text>
<text text-anchor="start" x="92.5" y="-62.5" font-family="Helvetica,sans-Serif" font-size="10.00">+ primitiveAttributeSize()</text>
<text text-anchor="start" x="92.5" y="-51.5" font-family="Helvetica,sans-Serif" font-size="10.00">+ primitiveByteSize()</text>
<text text-anchor="start" x="92.5" y="-40.5" font-family="Helvetica,sans-Serif" font-size="10.00">+ writeSTL()</text>
<text text-anchor="start" x="92.5" y="-29.5" font-family="Helvetica,sans-Serif" font-size="10.00"># Part()</text>
<text text-anchor="start" x="92.5" y="-18.5" font-family="Helvetica,sans-Serif" font-size="10.00"># Part()</text>
<text text-anchor="start" x="92.5" y="-7.5" font-family="Helvetica,sans-Serif" font-size="10.00"># operator=()</text>
</a>
</g>
</g>
<!-- Node2 -->
<g id="node2" class="node">
<title>Node2</title>
<g id="a_node2"><a xlink:href="structcie_1_1gl_1_1GLTraits.html" target="_top" xlink:title=" ">
<polygon fill="white" stroke="black" points="0,-281.5 0,-338.5 90,-338.5 90,-281.5 0,-281.5"/>
<text text-anchor="middle" x="45" y="-326.5" font-family="Helvetica,sans-Serif" font-size="10.00">cie::gl::GLTraits</text>
<polyline fill="none" stroke="black" points="0,-319.5 90,-319.5 "/>
<text text-anchor="middle" x="45" y="-307.5" font-family="Helvetica,sans-Serif" font-size="10.00"> </text>
<polyline fill="none" stroke="black" points="0,-300.5 90,-300.5 "/>
<text text-anchor="middle" x="45" y="-288.5" font-family="Helvetica,sans-Serif" font-size="10.00"> </text>
</a>
</g>
</g>
<!-- Node2&#45;&gt;Node1 -->
<g id="edge1" class="edge">
<title>Node2&#45;&gt;Node1</title>
<path fill="none" stroke="midnightblue" d="M66.23,-272.47C72.89,-261.01 80.62,-247.7 88.71,-233.79"/>
<polygon fill="none" stroke="midnightblue" points="63.14,-270.82 61.14,-281.23 69.19,-274.34 63.14,-270.82"/>
</g>
<!-- Node3 -->
<g id="node3" class="node">
<title>Node3</title>
<g id="a_node3"><a xlink:title=" ">
<polygon fill="white" stroke="#bfbfbf" points="108.5,-281.5 108.5,-338.5 203.5,-338.5 203.5,-281.5 108.5,-281.5"/>
<text text-anchor="middle" x="156" y="-326.5" font-family="Helvetica,sans-Serif" font-size="10.00">index_container</text>
<polyline fill="none" stroke="#bfbfbf" points="108.5,-319.5 203.5,-319.5 "/>
<text text-anchor="middle" x="156" y="-307.5" font-family="Helvetica,sans-Serif" font-size="10.00"> </text>
<polyline fill="none" stroke="#bfbfbf" points="108.5,-300.5 203.5,-300.5 "/>
<text text-anchor="middle" x="156" y="-288.5" font-family="Helvetica,sans-Serif" font-size="10.00"> </text>
</a>
</g>
</g>
<!-- Node3&#45;&gt;Node1 -->
<g id="edge2" class="edge">
<title>Node3&#45;&gt;Node1</title>
<path fill="none" stroke="#404040" d="M156,-281.23C156,-271.17 156,-259.04 156,-246"/>
<polygon fill="none" stroke="#404040" points="156,-245.79 152,-239.79 156,-233.79 160,-239.79 156,-245.79"/>
<text text-anchor="middle" x="182" y="-255" font-family="Helvetica,sans-Serif" font-size="10.00"> #_indices</text>
</g>
<!-- Node4 -->
<g id="node4" class="node">
<title>Node4</title>
<g id="a_node4"><a xlink:title=" ">
<polygon fill="white" stroke="#bfbfbf" points="221.5,-281.5 221.5,-338.5 306.5,-338.5 306.5,-281.5 221.5,-281.5"/>
<text text-anchor="middle" x="264" y="-326.5" font-family="Helvetica,sans-Serif" font-size="10.00">SharedPointer</text>
<polyline fill="none" stroke="#bfbfbf" points="221.5,-319.5 306.5,-319.5 "/>
<text text-anchor="middle" x="264" y="-307.5" font-family="Helvetica,sans-Serif" font-size="10.00"> </text>
<polyline fill="none" stroke="#bfbfbf" points="221.5,-300.5 306.5,-300.5 "/>
<text text-anchor="middle" x="264" y="-288.5" font-family="Helvetica,sans-Serif" font-size="10.00"> </text>
</a>
</g>
</g>
<!-- Node4&#45;&gt;Node1 -->
<g id="edge3" class="edge">
<title>Node4&#45;&gt;Node1</title>
<path fill="none" stroke="#404040" d="M248.3,-281.23C242.38,-270.76 235.19,-258.05 227.47,-244.39"/>
<polygon fill="none" stroke="#404040" points="227.38,-244.24 220.94,-240.98 221.47,-233.79 227.91,-237.05 227.38,-244.24"/>
<text text-anchor="middle" x="275" y="-255" font-family="Helvetica,sans-Serif" font-size="10.00"> #_p_attributes</text>
</g>
</g>
</svg>
