<?xml version="1.0" encoding="UTF-8" standalone="no"?>
<!DOCTYPE svg PUBLIC "-//W3C//DTD SVG 1.1//EN"
 "http://www.w3.org/Graphics/SVG/1.1/DTD/svg11.dtd">
<!-- Generated by graphviz version 2.43.0 (0)
 -->
<!-- Title: cie::gl::AbsPlot Pages: 1 -->
<svg width="153pt" height="226pt"
 viewBox="0.00 0.00 152.61 226.00" xmlns="http://www.w3.org/2000/svg" xmlns:xlink="http://www.w3.org/1999/xlink">
<g id="graph0" class="graph" transform="scale(1 1) rotate(0) translate(4 222)">
<title>cie::gl::AbsPlot</title>
<polygon fill="white" stroke="transparent" points="-4,4 -4,-222 148.61,-222 148.61,4 -4,4"/>
<!-- Node1 -->
<g id="node1" class="node">
<title>Node1</title>
<g id="a_node1"><a xlink:title=" ">
<polygon fill="#bfbfbf" stroke="black" points="5.11,-0.5 5.11,-112.5 94.11,-112.5 94.11,-0.5 5.11,-0.5"/>
<text text-anchor="middle" x="49.61" y="-100.5" font-family="Helvetica,sans-Serif" font-size="10.00">cie::gl::AbsPlot</text>
<polyline fill="none" stroke="black" points="5.11,-93.5 94.11,-93.5 "/>
<text text-anchor="middle" x="49.61" y="-81.5" font-family="Helvetica,sans-Serif" font-size="10.00"> </text>
<polyline fill="none" stroke="black" points="5.11,-74.5 94.11,-74.5 "/>
<text text-anchor="start" x="13.11" y="-62.5" font-family="Helvetica,sans-Serif" font-size="10.00">+ AbsPlot()</text>
<text text-anchor="start" x="13.11" y="-51.5" font-family="Helvetica,sans-Serif" font-size="10.00">+ AbsPlot()</text>
<text text-anchor="start" x="13.11" y="-40.5" font-family="Helvetica,sans-Serif" font-size="10.00">+ update()</text>
<text text-anchor="start" x="13.11" y="-29.5" font-family="Helvetica,sans-Serif" font-size="10.00">+ fit()</text>
<text text-anchor="start" x="13.11" y="-18.5" font-family="Helvetica,sans-Serif" font-size="10.00">+ show()</text>
<text text-anchor="start" x="13.11" y="-7.5" font-family="Helvetica,sans-Serif" font-size="10.00">+ attributes()</text>
</a>
</g>
</g>
<!-- Node2 -->
<g id="node2" class="node">
<title>Node2</title>
<g id="a_node2"><a xlink:title=" ">
<polygon fill="white" stroke="#bfbfbf" points="7.11,-160.5 7.11,-217.5 92.11,-217.5 92.11,-160.5 7.11,-160.5"/>
<text text-anchor="middle" x="49.61" y="-205.5" font-family="Helvetica,sans-Serif" font-size="10.00">SharedPointer</text>
<polyline fill="none" stroke="#bfbfbf" points="7.11,-198.5 92.11,-198.5 "/>
<text text-anchor="middle" x="49.61" y="-186.5" font-family="Helvetica,sans-Serif" font-size="10.00"> </text>
<polyline fill="none" stroke="#bfbfbf" points="7.11,-179.5 92.11,-179.5 "/>
<text text-anchor="middle" x="49.61" y="-167.5" font-family="Helvetica,sans-Serif" font-size="10.00"> </text>
</a>
</g>
</g>
<!-- Node2&#45;&gt;Node1 -->
<g id="edge1" class="edge">
<title>Node2&#45;&gt;Node1</title>
<path fill="none" stroke="#404040" d="M10.27,-160.38C2.91,-151.83 -1.61,-141.79 1.61,-131 2.32,-128.6 3.14,-126.21 4.05,-123.84"/>
<polygon fill="none" stroke="#404040" points="4.05,-123.83 2.81,-116.73 8.88,-112.85 10.13,-119.96 4.05,-123.83"/>
<text text-anchor="middle" x="39.61" y="-134" font-family="Helvetica,sans-Serif" font-size="10.00"> #_p_attributes</text>
</g>
<!-- Node2&#45;&gt;Node1 -->
<g id="edge2" class="edge">
<title>Node2&#45;&gt;Node1</title>
<path fill="none" stroke="#404040" d="M69.67,-160.42C72.94,-154.6 75.84,-148.3 77.61,-142 79.19,-136.35 79.69,-130.51 79.39,-124.67"/>
<polygon fill="none" stroke="#404040" points="79.38,-124.61 74.6,-119.22 77.74,-112.73 82.52,-118.12 79.38,-124.61"/>
<text text-anchor="middle" x="111.61" y="-134" font-family="Helvetica,sans-Serif" font-size="10.00"> #_p_window</text>
</g>
</g>
</svg>
