<?xml version="1.0" encoding="UTF-8" standalone="no"?>
<!DOCTYPE svg PUBLIC "-//W3C//DTD SVG 1.1//EN"
 "http://www.w3.org/Graphics/SVG/1.1/DTD/svg11.dtd">
<!-- Generated by graphviz version 2.43.0 (0)
 -->
<!-- Title: cie::gl::Camera&lt; ProjectionType &gt; Pages: 1 -->
<svg width="326pt" height="898pt"
 viewBox="0.00 0.00 325.50 898.00" xmlns="http://www.w3.org/2000/svg" xmlns:xlink="http://www.w3.org/1999/xlink">
<g id="graph0" class="graph" transform="scale(1 1) rotate(0) translate(4 894)">
<title>cie::gl::Camera&lt; ProjectionType &gt;</title>
<polygon fill="white" stroke="transparent" points="-4,4 -4,-894 321.5,-894 321.5,4 -4,4"/>
<!-- Node1 -->
<g id="node1" class="node">
<title>Node1</title>
<g id="a_node1"><a xlink:title=" ">
<polygon fill="#bfbfbf" stroke="black" points="123.5,-0.5 123.5,-200.5 273.5,-200.5 273.5,-0.5 123.5,-0.5"/>
<text text-anchor="start" x="131.5" y="-188.5" font-family="Helvetica,sans-Serif" font-size="10.00">cie::gl::Camera&lt; Projection</text>
<text text-anchor="middle" x="198.5" y="-177.5" font-family="Helvetica,sans-Serif" font-size="10.00">Type &gt;</text>
<polyline fill="none" stroke="black" points="123.5,-170.5 273.5,-170.5 "/>
<text text-anchor="middle" x="198.5" y="-158.5" font-family="Helvetica,sans-Serif" font-size="10.00"> </text>
<polyline fill="none" stroke="black" points="123.5,-151.5 273.5,-151.5 "/>
<text text-anchor="start" x="131.5" y="-139.5" font-family="Helvetica,sans-Serif" font-size="10.00">+ Camera()</text>
<text text-anchor="start" x="131.5" y="-128.5" font-family="Helvetica,sans-Serif" font-size="10.00">+ Camera()</text>
<text text-anchor="start" x="131.5" y="-117.5" font-family="Helvetica,sans-Serif" font-size="10.00">+ Camera()</text>
<text text-anchor="start" x="131.5" y="-106.5" font-family="Helvetica,sans-Serif" font-size="10.00">+ operator=()</text>
<text text-anchor="start" x="131.5" y="-95.5" font-family="Helvetica,sans-Serif" font-size="10.00">+ projectionMatrix()</text>
<text text-anchor="start" x="131.5" y="-84.5" font-family="Helvetica,sans-Serif" font-size="10.00">+ zoom()</text>
<text text-anchor="start" x="131.5" y="-73.5" font-family="Helvetica,sans-Serif" font-size="10.00">+ clippingPlanes()</text>
<text text-anchor="start" x="131.5" y="-62.5" font-family="Helvetica,sans-Serif" font-size="10.00">+ setClippingPlanes()</text>
<text text-anchor="start" x="131.5" y="-51.5" font-family="Helvetica,sans-Serif" font-size="10.00">+ aspectRatio()</text>
<text text-anchor="start" x="131.5" y="-40.5" font-family="Helvetica,sans-Serif" font-size="10.00">+ setAspectRatio()</text>
<text text-anchor="start" x="131.5" y="-29.5" font-family="Helvetica,sans-Serif" font-size="10.00">+ fieldOfView()</text>
<text text-anchor="start" x="131.5" y="-18.5" font-family="Helvetica,sans-Serif" font-size="10.00">+ setFieldOfView()</text>
<text text-anchor="start" x="131.5" y="-7.5" font-family="Helvetica,sans-Serif" font-size="10.00"># updateProjectionMatrix()</text>
</a>
</g>
</g>
<!-- Node2 -->
<g id="node2" class="node">
<title>Node2</title>
<g id="a_node2"><a xlink:href="classcie_1_1gl_1_1AbsCamera.html" target="_top" xlink:title=" ">
<polygon fill="white" stroke="black" points="37.5,-237.5 37.5,-459.5 211.5,-459.5 211.5,-237.5 37.5,-237.5"/>
<text text-anchor="middle" x="124.5" y="-447.5" font-family="Helvetica,sans-Serif" font-size="10.00">cie::gl::AbsCamera</text>
<polyline fill="none" stroke="black" points="37.5,-440.5 211.5,-440.5 "/>
<text text-anchor="start" x="45.5" y="-428.5" font-family="Helvetica,sans-Serif" font-size="10.00"># _viewMatrix</text>
<text text-anchor="start" x="45.5" y="-417.5" font-family="Helvetica,sans-Serif" font-size="10.00"># _transformationMatrix</text>
<polyline fill="none" stroke="black" points="37.5,-410.5 211.5,-410.5 "/>
<text text-anchor="start" x="45.5" y="-398.5" font-family="Helvetica,sans-Serif" font-size="10.00">+ AbsCamera()</text>
<text text-anchor="start" x="45.5" y="-387.5" font-family="Helvetica,sans-Serif" font-size="10.00">+ AbsCamera()</text>
<text text-anchor="start" x="45.5" y="-376.5" font-family="Helvetica,sans-Serif" font-size="10.00">+ AbsCamera()</text>
<text text-anchor="start" x="45.5" y="-365.5" font-family="Helvetica,sans-Serif" font-size="10.00">+ operator=()</text>
<text text-anchor="start" x="45.5" y="-354.5" font-family="Helvetica,sans-Serif" font-size="10.00">+ update()</text>
<text text-anchor="start" x="45.5" y="-343.5" font-family="Helvetica,sans-Serif" font-size="10.00">+ setPosition()</text>
<text text-anchor="start" x="45.5" y="-332.5" font-family="Helvetica,sans-Serif" font-size="10.00">+ setPose()</text>
<text text-anchor="start" x="45.5" y="-321.5" font-family="Helvetica,sans-Serif" font-size="10.00">+ rotate()</text>
<text text-anchor="start" x="45.5" y="-310.5" font-family="Helvetica,sans-Serif" font-size="10.00">+ rotate()</text>
<text text-anchor="start" x="45.5" y="-299.5" font-family="Helvetica,sans-Serif" font-size="10.00">+ viewMatrix()</text>
<text text-anchor="start" x="45.5" y="-288.5" font-family="Helvetica,sans-Serif" font-size="10.00">and 9 more...</text>
<text text-anchor="start" x="45.5" y="-277.5" font-family="Helvetica,sans-Serif" font-size="10.00"># rotateInPlace()</text>
<text text-anchor="start" x="45.5" y="-266.5" font-family="Helvetica,sans-Serif" font-size="10.00"># updateViewMatrix()</text>
<text text-anchor="start" x="45.5" y="-255.5" font-family="Helvetica,sans-Serif" font-size="10.00"># updateProjectionMatrix()</text>
<text text-anchor="start" x="45.5" y="-244.5" font-family="Helvetica,sans-Serif" font-size="10.00"># updateTransformationMatrix()</text>
</a>
</g>
</g>
<!-- Node2&#45;&gt;Node1 -->
<g id="edge1" class="edge">
<title>Node2&#45;&gt;Node1</title>
<path fill="none" stroke="midnightblue" d="M160.56,-227.64C163.28,-218.58 166.01,-209.49 168.69,-200.58"/>
<polygon fill="none" stroke="midnightblue" points="157.13,-226.87 157.6,-237.45 163.84,-228.88 157.13,-226.87"/>
</g>
<!-- Node3 -->
<g id="node3" class="node">
<title>Node3</title>
<g id="a_node3"><a target="_parent" xlink:href="../../../cieutils/docs/html/classcie_1_1utils_1_1Loggee.html" xlink:title=" ">
<polygon fill="white" stroke="black" points="16,-518.5 16,-674.5 115,-674.5 115,-518.5 16,-518.5"/>
<text text-anchor="middle" x="65.5" y="-662.5" font-family="Helvetica,sans-Serif" font-size="10.00">cie::utils::Loggee</text>
<polyline fill="none" stroke="black" points="16,-655.5 115,-655.5 "/>
<text text-anchor="middle" x="65.5" y="-643.5" font-family="Helvetica,sans-Serif" font-size="10.00"> </text>
<polyline fill="none" stroke="black" points="16,-636.5 115,-636.5 "/>
<text text-anchor="start" x="24" y="-624.5" font-family="Helvetica,sans-Serif" font-size="10.00">+ Loggee()</text>
<text text-anchor="start" x="24" y="-613.5" font-family="Helvetica,sans-Serif" font-size="10.00">+ ~Loggee()</text>
<text text-anchor="start" x="24" y="-602.5" font-family="Helvetica,sans-Serif" font-size="10.00">+ log()</text>
<text text-anchor="start" x="24" y="-591.5" font-family="Helvetica,sans-Serif" font-size="10.00">+ logID()</text>
<text text-anchor="start" x="24" y="-580.5" font-family="Helvetica,sans-Serif" font-size="10.00">+ tic()</text>
<text text-anchor="start" x="24" y="-569.5" font-family="Helvetica,sans-Serif" font-size="10.00">+ toc()</text>
<text text-anchor="start" x="24" y="-558.5" font-family="Helvetica,sans-Serif" font-size="10.00">+ toc()</text>
<text text-anchor="start" x="24" y="-547.5" font-family="Helvetica,sans-Serif" font-size="10.00">+ newBlock()</text>
<text text-anchor="start" x="24" y="-536.5" font-family="Helvetica,sans-Serif" font-size="10.00">+ separate()</text>
<text text-anchor="start" x="24" y="-525.5" font-family="Helvetica,sans-Serif" font-size="10.00"># logger()</text>
</a>
</g>
</g>
<!-- Node3&#45;&gt;Node2 -->
<g id="edge2" class="edge">
<title>Node3&#45;&gt;Node2</title>
<path fill="none" stroke="midnightblue" d="M86.34,-508.61C90.13,-492.8 94.13,-476.11 98.06,-459.72"/>
<polygon fill="none" stroke="midnightblue" points="82.93,-507.8 84.01,-518.34 89.74,-509.43 82.93,-507.8"/>
</g>
<!-- Node4 -->
<g id="node4" class="node">
<title>Node4</title>
<g id="a_node4"><a target="_parent" xlink:href="../../../cieutils/docs/html/classcie_1_1utils_1_1NamedObject.html" xlink:title=" ">
<polygon fill="white" stroke="black" points="0,-733.5 0,-889.5 131,-889.5 131,-733.5 0,-733.5"/>
<text text-anchor="middle" x="65.5" y="-877.5" font-family="Helvetica,sans-Serif" font-size="10.00">cie::utils::NamedObject</text>
<polyline fill="none" stroke="black" points="0,-870.5 131,-870.5 "/>
<text text-anchor="middle" x="65.5" y="-858.5" font-family="Helvetica,sans-Serif" font-size="10.00"> </text>
<polyline fill="none" stroke="black" points="0,-851.5 131,-851.5 "/>
<text text-anchor="start" x="8" y="-839.5" font-family="Helvetica,sans-Serif" font-size="10.00">+ NamedObject()</text>
<text text-anchor="start" x="8" y="-828.5" font-family="Helvetica,sans-Serif" font-size="10.00">+ NamedObject()</text>
<text text-anchor="start" x="8" y="-817.5" font-family="Helvetica,sans-Serif" font-size="10.00">+ NamedObject()</text>
<text text-anchor="start" x="8" y="-806.5" font-family="Helvetica,sans-Serif" font-size="10.00">+ NamedObject()</text>
<text text-anchor="start" x="8" y="-795.5" font-family="Helvetica,sans-Serif" font-size="10.00">+ operator=()</text>
<text text-anchor="start" x="8" y="-784.5" font-family="Helvetica,sans-Serif" font-size="10.00">+ operator=()</text>
<text text-anchor="start" x="8" y="-773.5" font-family="Helvetica,sans-Serif" font-size="10.00">+ name()</text>
<text text-anchor="start" x="8" y="-762.5" font-family="Helvetica,sans-Serif" font-size="10.00">+ setName()</text>
<text text-anchor="start" x="8" y="-751.5" font-family="Helvetica,sans-Serif" font-size="10.00">+ setName()</text>
<text text-anchor="start" x="8" y="-740.5" font-family="Helvetica,sans-Serif" font-size="10.00">+ ~NamedObject()</text>
</a>
</g>
</g>
<!-- Node4&#45;&gt;Node3 -->
<g id="edge3" class="edge">
<title>Node4&#45;&gt;Node3</title>
<path fill="none" stroke="midnightblue" d="M65.5,-722.92C65.5,-706.96 65.5,-690.42 65.5,-674.79"/>
<polygon fill="none" stroke="midnightblue" points="62,-723.3 65.5,-733.3 69,-723.3 62,-723.3"/>
</g>
<!-- Node5 -->
<g id="node5" class="node">
<title>Node5</title>
<g id="a_node5"><a xlink:href="classcie_1_1gl_1_1RigidBody.html" target="_top" xlink:title=" ">
<polygon fill="white" stroke="black" points="133,-496.5 133,-696.5 234,-696.5 234,-496.5 133,-496.5"/>
<text text-anchor="middle" x="183.5" y="-684.5" font-family="Helvetica,sans-Serif" font-size="10.00">cie::gl::RigidBody</text>
<polyline fill="none" stroke="black" points="133,-677.5 234,-677.5 "/>
<text text-anchor="start" x="141" y="-665.5" font-family="Helvetica,sans-Serif" font-size="10.00"># _position</text>
<text text-anchor="start" x="141" y="-654.5" font-family="Helvetica,sans-Serif" font-size="10.00"># _direction</text>
<text text-anchor="start" x="141" y="-643.5" font-family="Helvetica,sans-Serif" font-size="10.00"># _up</text>
<polyline fill="none" stroke="black" points="133,-636.5 234,-636.5 "/>
<text text-anchor="start" x="141" y="-624.5" font-family="Helvetica,sans-Serif" font-size="10.00">+ RigidBody()</text>
<text text-anchor="start" x="141" y="-613.5" font-family="Helvetica,sans-Serif" font-size="10.00">+ RigidBody()</text>
<text text-anchor="start" x="141" y="-602.5" font-family="Helvetica,sans-Serif" font-size="10.00">+ RigidBody()</text>
<text text-anchor="start" x="141" y="-591.5" font-family="Helvetica,sans-Serif" font-size="10.00">+ RigidBody()</text>
<text text-anchor="start" x="141" y="-580.5" font-family="Helvetica,sans-Serif" font-size="10.00">+ position()</text>
<text text-anchor="start" x="141" y="-569.5" font-family="Helvetica,sans-Serif" font-size="10.00">+ direction()</text>
<text text-anchor="start" x="141" y="-558.5" font-family="Helvetica,sans-Serif" font-size="10.00">+ up()</text>
<text text-anchor="start" x="141" y="-547.5" font-family="Helvetica,sans-Serif" font-size="10.00">+ setPosition()</text>
<text text-anchor="start" x="141" y="-536.5" font-family="Helvetica,sans-Serif" font-size="10.00">+ setPose()</text>
<text text-anchor="start" x="141" y="-525.5" font-family="Helvetica,sans-Serif" font-size="10.00">+ translate()</text>
<text text-anchor="start" x="141" y="-514.5" font-family="Helvetica,sans-Serif" font-size="10.00">and 8 more...</text>
<text text-anchor="start" x="141" y="-503.5" font-family="Helvetica,sans-Serif" font-size="10.00"># rotateInPlace()</text>
</a>
</g>
</g>
<!-- Node5&#45;&gt;Node2 -->
<g id="edge4" class="edge">
<title>Node5&#45;&gt;Node2</title>
<path fill="none" stroke="midnightblue" d="M157.3,-486.25C155.18,-477.43 153.04,-468.52 150.93,-459.69"/>
<polygon fill="none" stroke="midnightblue" points="153.94,-487.24 159.67,-496.15 160.74,-485.61 153.94,-487.24"/>
</g>
<!-- Node6 -->
<g id="node6" class="node">
<title>Node6</title>
<g id="a_node6"><a xlink:href="classcie_1_1gl_1_1ProjectionType.html" target="_top" xlink:title=" ">
<polygon fill="white" stroke="black" points="229.5,-320 229.5,-377 317.5,-377 317.5,-320 229.5,-320"/>
<text text-anchor="middle" x="273.5" y="-365" font-family="Helvetica,sans-Serif" font-size="10.00">ProjectionType</text>
<polyline fill="none" stroke="black" points="229.5,-358 317.5,-358 "/>
<text text-anchor="middle" x="273.5" y="-346" font-family="Helvetica,sans-Serif" font-size="10.00"> </text>
<polyline fill="none" stroke="black" points="229.5,-339 317.5,-339 "/>
<text text-anchor="middle" x="273.5" y="-327" font-family="Helvetica,sans-Serif" font-size="10.00"> </text>
</a>
</g>
</g>
<!-- Node6&#45;&gt;Node1 -->
<g id="edge5" class="edge">
<title>Node6&#45;&gt;Node1</title>
<path fill="none" stroke="midnightblue" d="M262.07,-310.01C253.2,-280.9 240.46,-239.13 228.72,-200.62"/>
<polygon fill="none" stroke="midnightblue" points="258.78,-311.21 265.04,-319.76 265.47,-309.17 258.78,-311.21"/>
</g>
</g>
</svg>
