<?xml version="1.0" encoding="UTF-8" standalone="no"?>
<!DOCTYPE svg PUBLIC "-//W3C//DTD SVG 1.1//EN"
 "http://www.w3.org/Graphics/SVG/1.1/DTD/svg11.dtd">
<!-- Generated by graphviz version 2.43.0 (0)
 -->
<!-- Title: cie::gl::PerspectiveProjection Pages: 1 -->
<svg width="337pt" height="354pt"
 viewBox="0.00 0.00 337.00 354.00" xmlns="http://www.w3.org/2000/svg" xmlns:xlink="http://www.w3.org/1999/xlink">
<g id="graph0" class="graph" transform="scale(1 1) rotate(0) translate(4 350)">
<title>cie::gl::PerspectiveProjection</title>
<polygon fill="white" stroke="transparent" points="-4,4 -4,-350 333,-350 333,4 -4,4"/>
<!-- Node1 -->
<g id="node1" class="node">
<title>Node1</title>
<g id="a_node1"><a xlink:title=" ">
<polygon fill="#bfbfbf" stroke="black" points="54,-0.5 54,-79.5 212,-79.5 212,-0.5 54,-0.5"/>
<text text-anchor="middle" x="133" y="-67.5" font-family="Helvetica,sans-Serif" font-size="10.00">cie::gl::PerspectiveProjection</text>
<polyline fill="none" stroke="black" points="54,-60.5 212,-60.5 "/>
<text text-anchor="middle" x="133" y="-48.5" font-family="Helvetica,sans-Serif" font-size="10.00"> </text>
<polyline fill="none" stroke="black" points="54,-41.5 212,-41.5 "/>
<text text-anchor="start" x="62" y="-29.5" font-family="Helvetica,sans-Serif" font-size="10.00"># zoom_impl()</text>
<text text-anchor="start" x="62" y="-18.5" font-family="Helvetica,sans-Serif" font-size="10.00"># updateProjectionMatrix</text>
<text text-anchor="start" x="62" y="-7.5" font-family="Helvetica,sans-Serif" font-size="10.00">_impl()</text>
</a>
</g>
</g>
<!-- Node2 -->
<g id="node2" class="node">
<title>Node2</title>
<g id="a_node2"><a xlink:href="classcie_1_1gl_1_1ProjectionPolicy.html" target="_top" xlink:title=" ">
<polygon fill="white" stroke="black" points="62,-117.5 62,-229.5 204,-229.5 204,-117.5 62,-117.5"/>
<text text-anchor="middle" x="133" y="-217.5" font-family="Helvetica,sans-Serif" font-size="10.00">cie::gl::ProjectionPolicy</text>
<polyline fill="none" stroke="black" points="62,-210.5 204,-210.5 "/>
<text text-anchor="middle" x="133" y="-198.5" font-family="Helvetica,sans-Serif" font-size="10.00"> </text>
<polyline fill="none" stroke="black" points="62,-191.5 204,-191.5 "/>
<text text-anchor="start" x="70" y="-179.5" font-family="Helvetica,sans-Serif" font-size="10.00"># ProjectionPolicy()</text>
<text text-anchor="start" x="70" y="-168.5" font-family="Helvetica,sans-Serif" font-size="10.00"># ProjectionPolicy()</text>
<text text-anchor="start" x="70" y="-157.5" font-family="Helvetica,sans-Serif" font-size="10.00"># ProjectionPolicy()</text>
<text text-anchor="start" x="70" y="-146.5" font-family="Helvetica,sans-Serif" font-size="10.00"># zoom_impl()</text>
<text text-anchor="start" x="70" y="-135.5" font-family="Helvetica,sans-Serif" font-size="10.00"># updateProjectionMatrix</text>
<text text-anchor="start" x="70" y="-124.5" font-family="Helvetica,sans-Serif" font-size="10.00">_impl()</text>
</a>
</g>
</g>
<!-- Node2&#45;&gt;Node1 -->
<g id="edge1" class="edge">
<title>Node2&#45;&gt;Node1</title>
<path fill="none" stroke="midnightblue" d="M133,-107.32C133,-97.9 133,-88.47 133,-79.8"/>
<polygon fill="none" stroke="midnightblue" points="129.5,-107.49 133,-117.49 136.5,-107.49 129.5,-107.49"/>
</g>
<!-- Node3 -->
<g id="node3" class="node">
<title>Node3</title>
<g id="a_node3"><a xlink:title=" ">
<polygon fill="white" stroke="#bfbfbf" points="0,-288.5 0,-345.5 50,-345.5 50,-288.5 0,-288.5"/>
<text text-anchor="middle" x="25" y="-333.5" font-family="Helvetica,sans-Serif" font-size="10.00">double</text>
<polyline fill="none" stroke="#bfbfbf" points="0,-326.5 50,-326.5 "/>
<text text-anchor="middle" x="25" y="-314.5" font-family="Helvetica,sans-Serif" font-size="10.00"> </text>
<polyline fill="none" stroke="#bfbfbf" points="0,-307.5 50,-307.5 "/>
<text text-anchor="middle" x="25" y="-295.5" font-family="Helvetica,sans-Serif" font-size="10.00"> </text>
</a>
</g>
</g>
<!-- Node3&#45;&gt;Node2 -->
<g id="edge2" class="edge">
<title>Node3&#45;&gt;Node2</title>
<path fill="none" stroke="#404040" d="M33.73,-288.5C38.57,-275.55 45.37,-260.29 54,-248 56.14,-244.96 58.42,-241.94 60.81,-238.97"/>
<polygon fill="none" stroke="#404040" points="60.98,-238.77 61.83,-231.61 68.77,-229.65 67.92,-236.81 60.98,-238.77"/>
<text text-anchor="middle" x="91.5" y="-262" font-family="Helvetica,sans-Serif" font-size="10.00"> #_aspectRatio</text>
<text text-anchor="middle" x="91.5" y="-251" font-family="Helvetica,sans-Serif" font-size="10.00">#_fieldOfView</text>
</g>
<!-- Node4 -->
<g id="node4" class="node">
<title>Node4</title>
<g id="a_node4"><a xlink:title=" ">
<polygon fill="white" stroke="#bfbfbf" points="68,-288.5 68,-345.5 198,-345.5 198,-288.5 68,-288.5"/>
<text text-anchor="middle" x="133" y="-333.5" font-family="Helvetica,sans-Serif" font-size="10.00">pair&lt; double, double &gt;</text>
<polyline fill="none" stroke="#bfbfbf" points="68,-326.5 198,-326.5 "/>
<text text-anchor="middle" x="133" y="-314.5" font-family="Helvetica,sans-Serif" font-size="10.00"> </text>
<polyline fill="none" stroke="#bfbfbf" points="68,-307.5 198,-307.5 "/>
<text text-anchor="middle" x="133" y="-295.5" font-family="Helvetica,sans-Serif" font-size="10.00"> </text>
</a>
</g>
</g>
<!-- Node4&#45;&gt;Node2 -->
<g id="edge3" class="edge">
<title>Node4&#45;&gt;Node2</title>
<path fill="none" stroke="#404040" d="M133,-288.38C133,-275.05 133,-258.42 133,-242.01"/>
<polygon fill="none" stroke="#404040" points="133,-241.57 129,-235.57 133,-229.57 137,-235.57 133,-241.57"/>
<text text-anchor="middle" x="177" y="-256.5" font-family="Helvetica,sans-Serif" font-size="10.00"> #_clippingPlanes</text>
</g>
<!-- Node5 -->
<g id="node5" class="node">
<title>Node5</title>
<g id="a_node5"><a xlink:title=" ">
<polygon fill="white" stroke="#bfbfbf" points="223,-288.5 223,-345.5 265,-345.5 265,-288.5 223,-288.5"/>
<text text-anchor="middle" x="244" y="-333.5" font-family="Helvetica,sans-Serif" font-size="10.00">mat4</text>
<polyline fill="none" stroke="#bfbfbf" points="223,-326.5 265,-326.5 "/>
<text text-anchor="middle" x="244" y="-314.5" font-family="Helvetica,sans-Serif" font-size="10.00"> </text>
<polyline fill="none" stroke="#bfbfbf" points="223,-307.5 265,-307.5 "/>
<text text-anchor="middle" x="244" y="-295.5" font-family="Helvetica,sans-Serif" font-size="10.00"> </text>
</a>
</g>
</g>
<!-- Node5&#45;&gt;Node2 -->
<g id="edge4" class="edge">
<title>Node5&#45;&gt;Node2</title>
<path fill="none" stroke="#404040" d="M238.8,-288.25C235.45,-275.24 230.16,-260.01 222,-248 219.15,-243.8 215.99,-239.72 212.62,-235.76"/>
<polygon fill="none" stroke="#404040" points="212.5,-235.63 205.49,-233.91 204.39,-226.78 211.39,-228.51 212.5,-235.63"/>
<text text-anchor="middle" x="280.5" y="-256.5" font-family="Helvetica,sans-Serif" font-size="10.00"> #_projectionMatrix</text>
</g>
</g>
</svg>
