<?xml version="1.0" encoding="UTF-8" standalone="no"?>
<!DOCTYPE svg PUBLIC "-//W3C//DTD SVG 1.1//EN"
 "http://www.w3.org/Graphics/SVG/1.1/DTD/svg11.dtd">
<!-- Generated by graphviz version 2.43.0 (0)
 -->
<!-- Title: cie::gl::PartScene Pages: 1 -->
<svg width="320pt" height="1075pt"
 viewBox="0.00 0.00 320.00 1075.00" xmlns="http://www.w3.org/2000/svg" xmlns:xlink="http://www.w3.org/1999/xlink">
<g id="graph0" class="graph" transform="scale(1 1) rotate(0) translate(4 1071)">
<title>cie::gl::PartScene</title>
<polygon fill="white" stroke="transparent" points="-4,4 -4,-1071 316,-1071 316,4 -4,4"/>
<!-- Node1 -->
<g id="node1" class="node">
<title>Node1</title>
<g id="a_node1"><a xlink:title=" ">
<polygon fill="#bfbfbf" stroke="black" points="85,-254.5 85,-377.5 216,-377.5 216,-254.5 85,-254.5"/>
<text text-anchor="middle" x="150.5" y="-365.5" font-family="Helvetica,sans-Serif" font-size="10.00">cie::gl::PartScene</text>
<polyline fill="none" stroke="black" points="85,-358.5 216,-358.5 "/>
<text text-anchor="start" x="93" y="-346.5" font-family="Helvetica,sans-Serif" font-size="10.00"># _parts</text>
<text text-anchor="start" x="93" y="-335.5" font-family="Helvetica,sans-Serif" font-size="10.00"># _partsRequireUpdate</text>
<polyline fill="none" stroke="black" points="85,-328.5 216,-328.5 "/>
<text text-anchor="start" x="93" y="-316.5" font-family="Helvetica,sans-Serif" font-size="10.00">+ PartScene()</text>
<text text-anchor="start" x="93" y="-305.5" font-family="Helvetica,sans-Serif" font-size="10.00">+ addPart()</text>
<text text-anchor="start" x="93" y="-294.5" font-family="Helvetica,sans-Serif" font-size="10.00">+ removePart()</text>
<text text-anchor="start" x="93" y="-283.5" font-family="Helvetica,sans-Serif" font-size="10.00">+ parts()</text>
<text text-anchor="start" x="93" y="-272.5" font-family="Helvetica,sans-Serif" font-size="10.00">+ updateParts()</text>
<text text-anchor="start" x="93" y="-261.5" font-family="Helvetica,sans-Serif" font-size="10.00">+ update_impl()</text>
</a>
</g>
</g>
<!-- Node6 -->
<g id="node6" class="node">
<title>Node6</title>
<g id="a_node6"><a xlink:href="classcie_1_1gl_1_1GenericPartScene.html" target="_top" xlink:title="Convenience Scene class.">
<polygon fill="white" stroke="black" points="0,-127.5 0,-217.5 137,-217.5 137,-127.5 0,-127.5"/>
<text text-anchor="middle" x="68.5" y="-205.5" font-family="Helvetica,sans-Serif" font-size="10.00">cie::gl::GenericPartScene</text>
<polyline fill="none" stroke="black" points="0,-198.5 137,-198.5 "/>
<text text-anchor="start" x="8" y="-186.5" font-family="Helvetica,sans-Serif" font-size="10.00"># _drawMode</text>
<polyline fill="none" stroke="black" points="0,-179.5 137,-179.5 "/>
<text text-anchor="start" x="8" y="-167.5" font-family="Helvetica,sans-Serif" font-size="10.00">+ GenericPartScene()</text>
<text text-anchor="start" x="8" y="-156.5" font-family="Helvetica,sans-Serif" font-size="10.00">+ GenericPartScene()</text>
<text text-anchor="start" x="8" y="-145.5" font-family="Helvetica,sans-Serif" font-size="10.00">+ setDrawMode()</text>
<text text-anchor="start" x="8" y="-134.5" font-family="Helvetica,sans-Serif" font-size="10.00"># update_impl()</text>
</a>
</g>
</g>
<!-- Node1&#45;&gt;Node6 -->
<g id="edge5" class="edge">
<title>Node1&#45;&gt;Node6</title>
<path fill="none" stroke="midnightblue" d="M110.22,-245.49C104.72,-236 99.2,-226.48 94.07,-217.62"/>
<polygon fill="none" stroke="midnightblue" points="107.21,-247.27 115.25,-254.17 113.26,-243.76 107.21,-247.27"/>
</g>
<!-- Node8 -->
<g id="node8" class="node">
<title>Node8</title>
<g id="a_node8"><a xlink:href="classcie_1_1gl_1_1Triangulated3DPartScene.html" target="_top" xlink:title=" ">
<polygon fill="white" stroke="black" points="155,-127.5 155,-217.5 312,-217.5 312,-127.5 155,-127.5"/>
<text text-anchor="start" x="163" y="-205.5" font-family="Helvetica,sans-Serif" font-size="10.00">cie::gl::Triangulated3DPart</text>
<text text-anchor="middle" x="233.5" y="-194.5" font-family="Helvetica,sans-Serif" font-size="10.00">Scene</text>
<polyline fill="none" stroke="black" points="155,-187.5 312,-187.5 "/>
<text text-anchor="middle" x="233.5" y="-175.5" font-family="Helvetica,sans-Serif" font-size="10.00"> </text>
<polyline fill="none" stroke="black" points="155,-168.5 312,-168.5 "/>
<text text-anchor="start" x="163" y="-156.5" font-family="Helvetica,sans-Serif" font-size="10.00">+ Triangulated3DPartScene()</text>
<text text-anchor="start" x="163" y="-145.5" font-family="Helvetica,sans-Serif" font-size="10.00"># update_impl()</text>
<text text-anchor="start" x="163" y="-134.5" font-family="Helvetica,sans-Serif" font-size="10.00"># Triangulated3DPartScene()</text>
</a>
</g>
</g>
<!-- Node1&#45;&gt;Node8 -->
<g id="edge7" class="edge">
<title>Node1&#45;&gt;Node8</title>
<path fill="none" stroke="midnightblue" d="M191.28,-245.49C196.84,-236 202.42,-226.48 207.62,-217.62"/>
<polygon fill="none" stroke="midnightblue" points="188.22,-243.77 186.18,-254.17 194.26,-247.32 188.22,-243.77"/>
</g>
<!-- Node2 -->
<g id="node2" class="node">
<title>Node2</title>
<g id="a_node2"><a xlink:href="classcie_1_1gl_1_1Scene.html" target="_top" xlink:title=" ">
<polygon fill="white" stroke="black" points="88,-414.5 88,-680.5 213,-680.5 213,-414.5 88,-414.5"/>
<text text-anchor="middle" x="150.5" y="-668.5" font-family="Helvetica,sans-Serif" font-size="10.00">cie::gl::Scene</text>
<polyline fill="none" stroke="black" points="88,-661.5 213,-661.5 "/>
<text text-anchor="start" x="96" y="-649.5" font-family="Helvetica,sans-Serif" font-size="10.00"># _cameras</text>
<text text-anchor="start" x="96" y="-638.5" font-family="Helvetica,sans-Serif" font-size="10.00"># _p_vertexShader</text>
<text text-anchor="start" x="96" y="-627.5" font-family="Helvetica,sans-Serif" font-size="10.00"># _p_geometryShader</text>
<text text-anchor="start" x="96" y="-616.5" font-family="Helvetica,sans-Serif" font-size="10.00"># _p_fragmentShader</text>
<text text-anchor="start" x="96" y="-605.5" font-family="Helvetica,sans-Serif" font-size="10.00"># _p_bufferManager</text>
<text text-anchor="start" x="96" y="-594.5" font-family="Helvetica,sans-Serif" font-size="10.00"># _uniforms</text>
<text text-anchor="start" x="96" y="-583.5" font-family="Helvetica,sans-Serif" font-size="10.00"># _textures</text>
<text text-anchor="start" x="96" y="-572.5" font-family="Helvetica,sans-Serif" font-size="10.00"># _vaoID</text>
<text text-anchor="start" x="96" y="-561.5" font-family="Helvetica,sans-Serif" font-size="10.00"># _activeSceneID</text>
<polyline fill="none" stroke="black" points="88,-554.5 213,-554.5 "/>
<text text-anchor="start" x="96" y="-542.5" font-family="Helvetica,sans-Serif" font-size="10.00">+ Scene()</text>
<text text-anchor="start" x="96" y="-531.5" font-family="Helvetica,sans-Serif" font-size="10.00">+ ~Scene()</text>
<text text-anchor="start" x="96" y="-520.5" font-family="Helvetica,sans-Serif" font-size="10.00">+ update()</text>
<text text-anchor="start" x="96" y="-509.5" font-family="Helvetica,sans-Serif" font-size="10.00">+ activate()</text>
<text text-anchor="start" x="96" y="-498.5" font-family="Helvetica,sans-Serif" font-size="10.00">+ isActive()</text>
<text text-anchor="start" x="96" y="-487.5" font-family="Helvetica,sans-Serif" font-size="10.00">+ makeCamera()</text>
<text text-anchor="start" x="96" y="-476.5" font-family="Helvetica,sans-Serif" font-size="10.00">+ addCamera()</text>
<text text-anchor="start" x="96" y="-465.5" font-family="Helvetica,sans-Serif" font-size="10.00">+ removeCamera()</text>
<text text-anchor="start" x="96" y="-454.5" font-family="Helvetica,sans-Serif" font-size="10.00">+ cameras()</text>
<text text-anchor="start" x="96" y="-443.5" font-family="Helvetica,sans-Serif" font-size="10.00">+ camera()</text>
<text text-anchor="start" x="96" y="-432.5" font-family="Helvetica,sans-Serif" font-size="10.00">and 15 more...</text>
<text text-anchor="start" x="96" y="-421.5" font-family="Helvetica,sans-Serif" font-size="10.00"># update_impl()</text>
</a>
</g>
</g>
<!-- Node2&#45;&gt;Node1 -->
<g id="edge1" class="edge">
<title>Node2&#45;&gt;Node1</title>
<path fill="none" stroke="midnightblue" d="M150.5,-404.24C150.5,-395.02 150.5,-386.06 150.5,-377.6"/>
<polygon fill="none" stroke="midnightblue" points="147,-404.33 150.5,-414.33 154,-404.33 147,-404.33"/>
</g>
<!-- Node3 -->
<g id="node3" class="node">
<title>Node3</title>
<g id="a_node3"><a target="_parent" xlink:href="../../../cieutils/docs/html/classcie_1_1utils_1_1Loggee.html" xlink:title=" ">
<polygon fill="white" stroke="black" points="41,-717.5 41,-873.5 140,-873.5 140,-717.5 41,-717.5"/>
<text text-anchor="middle" x="90.5" y="-861.5" font-family="Helvetica,sans-Serif" font-size="10.00">cie::utils::Loggee</text>
<polyline fill="none" stroke="black" points="41,-854.5 140,-854.5 "/>
<text text-anchor="middle" x="90.5" y="-842.5" font-family="Helvetica,sans-Serif" font-size="10.00"> </text>
<polyline fill="none" stroke="black" points="41,-835.5 140,-835.5 "/>
<text text-anchor="start" x="49" y="-823.5" font-family="Helvetica,sans-Serif" font-size="10.00">+ Loggee()</text>
<text text-anchor="start" x="49" y="-812.5" font-family="Helvetica,sans-Serif" font-size="10.00">+ ~Loggee()</text>
<text text-anchor="start" x="49" y="-801.5" font-family="Helvetica,sans-Serif" font-size="10.00">+ log()</text>
<text text-anchor="start" x="49" y="-790.5" font-family="Helvetica,sans-Serif" font-size="10.00">+ logID()</text>
<text text-anchor="start" x="49" y="-779.5" font-family="Helvetica,sans-Serif" font-size="10.00">+ tic()</text>
<text text-anchor="start" x="49" y="-768.5" font-family="Helvetica,sans-Serif" font-size="10.00">+ toc()</text>
<text text-anchor="start" x="49" y="-757.5" font-family="Helvetica,sans-Serif" font-size="10.00">+ toc()</text>
<text text-anchor="start" x="49" y="-746.5" font-family="Helvetica,sans-Serif" font-size="10.00">+ newBlock()</text>
<text text-anchor="start" x="49" y="-735.5" font-family="Helvetica,sans-Serif" font-size="10.00">+ separate()</text>
<text text-anchor="start" x="49" y="-724.5" font-family="Helvetica,sans-Serif" font-size="10.00"># logger()</text>
</a>
</g>
</g>
<!-- Node3&#45;&gt;Node2 -->
<g id="edge2" class="edge">
<title>Node3&#45;&gt;Node2</title>
<path fill="none" stroke="midnightblue" d="M111.69,-707.61C113.82,-698.89 116.01,-689.89 118.22,-680.83"/>
<polygon fill="none" stroke="midnightblue" points="108.29,-706.79 109.32,-717.34 115.09,-708.45 108.29,-706.79"/>
</g>
<!-- Node4 -->
<g id="node4" class="node">
<title>Node4</title>
<g id="a_node4"><a target="_parent" xlink:href="../../../cieutils/docs/html/classcie_1_1utils_1_1NamedObject.html" xlink:title=" ">
<polygon fill="white" stroke="black" points="25,-910.5 25,-1066.5 156,-1066.5 156,-910.5 25,-910.5"/>
<text text-anchor="middle" x="90.5" y="-1054.5" font-family="Helvetica,sans-Serif" font-size="10.00">cie::utils::NamedObject</text>
<polyline fill="none" stroke="black" points="25,-1047.5 156,-1047.5 "/>
<text text-anchor="middle" x="90.5" y="-1035.5" font-family="Helvetica,sans-Serif" font-size="10.00"> </text>
<polyline fill="none" stroke="black" points="25,-1028.5 156,-1028.5 "/>
<text text-anchor="start" x="33" y="-1016.5" font-family="Helvetica,sans-Serif" font-size="10.00">+ NamedObject()</text>
<text text-anchor="start" x="33" y="-1005.5" font-family="Helvetica,sans-Serif" font-size="10.00">+ NamedObject()</text>
<text text-anchor="start" x="33" y="-994.5" font-family="Helvetica,sans-Serif" font-size="10.00">+ NamedObject()</text>
<text text-anchor="start" x="33" y="-983.5" font-family="Helvetica,sans-Serif" font-size="10.00">+ NamedObject()</text>
<text text-anchor="start" x="33" y="-972.5" font-family="Helvetica,sans-Serif" font-size="10.00">+ operator=()</text>
<text text-anchor="start" x="33" y="-961.5" font-family="Helvetica,sans-Serif" font-size="10.00">+ operator=()</text>
<text text-anchor="start" x="33" y="-950.5" font-family="Helvetica,sans-Serif" font-size="10.00">+ name()</text>
<text text-anchor="start" x="33" y="-939.5" font-family="Helvetica,sans-Serif" font-size="10.00">+ setName()</text>
<text text-anchor="start" x="33" y="-928.5" font-family="Helvetica,sans-Serif" font-size="10.00">+ setName()</text>
<text text-anchor="start" x="33" y="-917.5" font-family="Helvetica,sans-Serif" font-size="10.00">+ ~NamedObject()</text>
</a>
</g>
</g>
<!-- Node4&#45;&gt;Node3 -->
<g id="edge3" class="edge">
<title>Node4&#45;&gt;Node3</title>
<path fill="none" stroke="midnightblue" d="M90.5,-900.35C90.5,-891.43 90.5,-882.41 90.5,-873.61"/>
<polygon fill="none" stroke="midnightblue" points="87,-900.36 90.5,-910.36 94,-900.36 87,-900.36"/>
</g>
<!-- Node5 -->
<g id="node5" class="node">
<title>Node5</title>
<g id="a_node5"><a target="_parent" xlink:href="../../../cieutils/docs/html/classcie_1_1utils_1_1IDObject.html" xlink:title=" ">
<polygon fill="white" stroke="black" points="158.5,-723 158.5,-868 264.5,-868 264.5,-723 158.5,-723"/>
<text text-anchor="start" x="166.5" y="-856" font-family="Helvetica,sans-Serif" font-size="10.00">cie::utils::IDObject</text>
<text text-anchor="middle" x="211.5" y="-845" font-family="Helvetica,sans-Serif" font-size="10.00">&lt; class &gt;</text>
<polyline fill="none" stroke="black" points="158.5,-838 264.5,-838 "/>
<text text-anchor="start" x="166.5" y="-826" font-family="Helvetica,sans-Serif" font-size="10.00"># _id</text>
<polyline fill="none" stroke="black" points="158.5,-819 264.5,-819 "/>
<text text-anchor="start" x="166.5" y="-807" font-family="Helvetica,sans-Serif" font-size="10.00">+ IDObject()</text>
<text text-anchor="start" x="166.5" y="-796" font-family="Helvetica,sans-Serif" font-size="10.00">+ IDObject()</text>
<text text-anchor="start" x="166.5" y="-785" font-family="Helvetica,sans-Serif" font-size="10.00">+ IDObject()</text>
<text text-anchor="start" x="166.5" y="-774" font-family="Helvetica,sans-Serif" font-size="10.00">+ IDObject()</text>
<text text-anchor="start" x="166.5" y="-763" font-family="Helvetica,sans-Serif" font-size="10.00">+ operator=()</text>
<text text-anchor="start" x="166.5" y="-752" font-family="Helvetica,sans-Serif" font-size="10.00">+ operator=()</text>
<text text-anchor="start" x="166.5" y="-741" font-family="Helvetica,sans-Serif" font-size="10.00">+ setID()</text>
<text text-anchor="start" x="166.5" y="-730" font-family="Helvetica,sans-Serif" font-size="10.00">+ getID()</text>
</a>
</g>
</g>
<!-- Node5&#45;&gt;Node2 -->
<g id="edge4" class="edge">
<title>Node5&#45;&gt;Node2</title>
<path fill="none" stroke="midnightblue" d="M191.25,-712.84C188.67,-702.41 185.97,-691.54 183.25,-680.57"/>
<polygon fill="none" stroke="midnightblue" points="187.89,-713.82 193.69,-722.69 194.68,-712.14 187.89,-713.82"/>
</g>
<!-- Node7 -->
<g id="node7" class="node">
<title>Node7</title>
<g id="a_node7"><a xlink:href="classcie_1_1gl_1_1Axes3DScene.html" target="_top" xlink:title=" ">
<polygon fill="white" stroke="black" points="0,-0.5 0,-90.5 137,-90.5 137,-0.5 0,-0.5"/>
<text text-anchor="middle" x="68.5" y="-78.5" font-family="Helvetica,sans-Serif" font-size="10.00">cie::gl::Axes3DScene</text>
<polyline fill="none" stroke="black" points="0,-71.5 137,-71.5 "/>
<text text-anchor="start" x="8" y="-59.5" font-family="Helvetica,sans-Serif" font-size="10.00"># _p_axes</text>
<text text-anchor="start" x="8" y="-48.5" font-family="Helvetica,sans-Serif" font-size="10.00"># _box</text>
<text text-anchor="start" x="8" y="-37.5" font-family="Helvetica,sans-Serif" font-size="10.00"># _transformationMatrix</text>
<polyline fill="none" stroke="black" points="0,-30.5 137,-30.5 "/>
<text text-anchor="start" x="8" y="-18.5" font-family="Helvetica,sans-Serif" font-size="10.00">+ Axes3DScene()</text>
<text text-anchor="start" x="8" y="-7.5" font-family="Helvetica,sans-Serif" font-size="10.00"># update_impl()</text>
</a>
</g>
</g>
<!-- Node6&#45;&gt;Node7 -->
<g id="edge6" class="edge">
<title>Node6&#45;&gt;Node7</title>
<path fill="none" stroke="midnightblue" d="M68.5,-117.16C68.5,-108.28 68.5,-99.18 68.5,-90.59"/>
<polygon fill="none" stroke="midnightblue" points="65,-117.43 68.5,-127.43 72,-117.43 65,-117.43"/>
</g>
</g>
</svg>
