<?xml version="1.0" encoding="UTF-8" standalone="no"?>
<!DOCTYPE svg PUBLIC "-//W3C//DTD SVG 1.1//EN"
 "http://www.w3.org/Graphics/SVG/1.1/DTD/svg11.dtd">
<!-- Generated by graphviz version 2.43.0 (0)
 -->
<!-- Title: cie::gl::Camera&lt; ProjectionType &gt; Pages: 1 -->
<svg width="385pt" height="921pt"
 viewBox="0.00 0.00 384.50 921.00" xmlns="http://www.w3.org/2000/svg" xmlns:xlink="http://www.w3.org/1999/xlink">
<g id="graph0" class="graph" transform="scale(1 1) rotate(0) translate(4 917)">
<title>cie::gl::Camera&lt; ProjectionType &gt;</title>
<polygon fill="white" stroke="transparent" points="-4,4 -4,-917 380.5,-917 380.5,4 -4,4"/>
<!-- Node1 -->
<g id="node1" class="node">
<title>Node1</title>
<g id="a_node1"><a xlink:title=" ">
<polygon fill="#bfbfbf" stroke="black" points="182.5,-0.5 182.5,-200.5 332.5,-200.5 332.5,-0.5 182.5,-0.5"/>
<text text-anchor="start" x="190.5" y="-188.5" font-family="Helvetica,sans-Serif" font-size="10.00">cie::gl::Camera&lt; Projection</text>
<text text-anchor="middle" x="257.5" y="-177.5" font-family="Helvetica,sans-Serif" font-size="10.00">Type &gt;</text>
<polyline fill="none" stroke="black" points="182.5,-170.5 332.5,-170.5 "/>
<text text-anchor="middle" x="257.5" y="-158.5" font-family="Helvetica,sans-Serif" font-size="10.00"> </text>
<polyline fill="none" stroke="black" points="182.5,-151.5 332.5,-151.5 "/>
<text text-anchor="start" x="190.5" y="-139.5" font-family="Helvetica,sans-Serif" font-size="10.00">+ Camera()</text>
<text text-anchor="start" x="190.5" y="-128.5" font-family="Helvetica,sans-Serif" font-size="10.00">+ Camera()</text>
<text text-anchor="start" x="190.5" y="-117.5" font-family="Helvetica,sans-Serif" font-size="10.00">+ Camera()</text>
<text text-anchor="start" x="190.5" y="-106.5" font-family="Helvetica,sans-Serif" font-size="10.00">+ operator=()</text>
<text text-anchor="start" x="190.5" y="-95.5" font-family="Helvetica,sans-Serif" font-size="10.00">+ projectionMatrix()</text>
<text text-anchor="start" x="190.5" y="-84.5" font-family="Helvetica,sans-Serif" font-size="10.00">+ zoom()</text>
<text text-anchor="start" x="190.5" y="-73.5" font-family="Helvetica,sans-Serif" font-size="10.00">+ clippingPlanes()</text>
<text text-anchor="start" x="190.5" y="-62.5" font-family="Helvetica,sans-Serif" font-size="10.00">+ setClippingPlanes()</text>
<text text-anchor="start" x="190.5" y="-51.5" font-family="Helvetica,sans-Serif" font-size="10.00">+ aspectRatio()</text>
<text text-anchor="start" x="190.5" y="-40.5" font-family="Helvetica,sans-Serif" font-size="10.00">+ setAspectRatio()</text>
<text text-anchor="start" x="190.5" y="-29.5" font-family="Helvetica,sans-Serif" font-size="10.00">+ fieldOfView()</text>
<text text-anchor="start" x="190.5" y="-18.5" font-family="Helvetica,sans-Serif" font-size="10.00">+ setFieldOfView()</text>
<text text-anchor="start" x="190.5" y="-7.5" font-family="Helvetica,sans-Serif" font-size="10.00"># updateProjectionMatrix()</text>
</a>
</g>
</g>
<!-- Node2 -->
<g id="node2" class="node">
<title>Node2</title>
<g id="a_node2"><a xlink:href="classcie_1_1gl_1_1AbsCamera.html" target="_top" xlink:title=" ">
<polygon fill="white" stroke="black" points="96.5,-238.5 96.5,-449.5 270.5,-449.5 270.5,-238.5 96.5,-238.5"/>
<text text-anchor="middle" x="183.5" y="-437.5" font-family="Helvetica,sans-Serif" font-size="10.00">cie::gl::AbsCamera</text>
<polyline fill="none" stroke="black" points="96.5,-430.5 270.5,-430.5 "/>
<text text-anchor="middle" x="183.5" y="-418.5" font-family="Helvetica,sans-Serif" font-size="10.00"> </text>
<polyline fill="none" stroke="black" points="96.5,-411.5 270.5,-411.5 "/>
<text text-anchor="start" x="104.5" y="-399.5" font-family="Helvetica,sans-Serif" font-size="10.00">+ AbsCamera()</text>
<text text-anchor="start" x="104.5" y="-388.5" font-family="Helvetica,sans-Serif" font-size="10.00">+ AbsCamera()</text>
<text text-anchor="start" x="104.5" y="-377.5" font-family="Helvetica,sans-Serif" font-size="10.00">+ AbsCamera()</text>
<text text-anchor="start" x="104.5" y="-366.5" font-family="Helvetica,sans-Serif" font-size="10.00">+ operator=()</text>
<text text-anchor="start" x="104.5" y="-355.5" font-family="Helvetica,sans-Serif" font-size="10.00">+ update()</text>
<text text-anchor="start" x="104.5" y="-344.5" font-family="Helvetica,sans-Serif" font-size="10.00">+ setPosition()</text>
<text text-anchor="start" x="104.5" y="-333.5" font-family="Helvetica,sans-Serif" font-size="10.00">+ setPose()</text>
<text text-anchor="start" x="104.5" y="-322.5" font-family="Helvetica,sans-Serif" font-size="10.00">+ rotate()</text>
<text text-anchor="start" x="104.5" y="-311.5" font-family="Helvetica,sans-Serif" font-size="10.00">+ rotate()</text>
<text text-anchor="start" x="104.5" y="-300.5" font-family="Helvetica,sans-Serif" font-size="10.00">+ viewMatrix()</text>
<text text-anchor="start" x="104.5" y="-289.5" font-family="Helvetica,sans-Serif" font-size="10.00">and 9 more...</text>
<text text-anchor="start" x="104.5" y="-278.5" font-family="Helvetica,sans-Serif" font-size="10.00"># rotateInPlace()</text>
<text text-anchor="start" x="104.5" y="-267.5" font-family="Helvetica,sans-Serif" font-size="10.00"># updateViewMatrix()</text>
<text text-anchor="start" x="104.5" y="-256.5" font-family="Helvetica,sans-Serif" font-size="10.00"># updateProjectionMatrix()</text>
<text text-anchor="start" x="104.5" y="-245.5" font-family="Helvetica,sans-Serif" font-size="10.00"># updateTransformationMatrix()</text>
</a>
</g>
</g>
<!-- Node2&#45;&gt;Node1 -->
<g id="edge1" class="edge">
<title>Node2&#45;&gt;Node1</title>
<path fill="none" stroke="midnightblue" d="M218.5,-228.78C221.36,-219.44 224.24,-210.06 227.06,-200.84"/>
<polygon fill="none" stroke="midnightblue" points="215.11,-227.89 215.53,-238.48 221.8,-229.94 215.11,-227.89"/>
</g>
<!-- Node3 -->
<g id="node3" class="node">
<title>Node3</title>
<g id="a_node3"><a target="_parent" xlink:href="../../../cieutils/docs/html/classcie_1_1utils_1_1Loggee.html" xlink:title=" ">
<polygon fill="white" stroke="black" points="16,-519.5 16,-675.5 115,-675.5 115,-519.5 16,-519.5"/>
<text text-anchor="middle" x="65.5" y="-663.5" font-family="Helvetica,sans-Serif" font-size="10.00">cie::utils::Loggee</text>
<polyline fill="none" stroke="black" points="16,-656.5 115,-656.5 "/>
<text text-anchor="middle" x="65.5" y="-644.5" font-family="Helvetica,sans-Serif" font-size="10.00"> </text>
<polyline fill="none" stroke="black" points="16,-637.5 115,-637.5 "/>
<text text-anchor="start" x="24" y="-625.5" font-family="Helvetica,sans-Serif" font-size="10.00">+ Loggee()</text>
<text text-anchor="start" x="24" y="-614.5" font-family="Helvetica,sans-Serif" font-size="10.00">+ ~Loggee()</text>
<text text-anchor="start" x="24" y="-603.5" font-family="Helvetica,sans-Serif" font-size="10.00">+ log()</text>
<text text-anchor="start" x="24" y="-592.5" font-family="Helvetica,sans-Serif" font-size="10.00">+ logID()</text>
<text text-anchor="start" x="24" y="-581.5" font-family="Helvetica,sans-Serif" font-size="10.00">+ tic()</text>
<text text-anchor="start" x="24" y="-570.5" font-family="Helvetica,sans-Serif" font-size="10.00">+ toc()</text>
<text text-anchor="start" x="24" y="-559.5" font-family="Helvetica,sans-Serif" font-size="10.00">+ toc()</text>
<text text-anchor="start" x="24" y="-548.5" font-family="Helvetica,sans-Serif" font-size="10.00">+ newBlock()</text>
<text text-anchor="start" x="24" y="-537.5" font-family="Helvetica,sans-Serif" font-size="10.00">+ separate()</text>
<text text-anchor="start" x="24" y="-526.5" font-family="Helvetica,sans-Serif" font-size="10.00"># logger()</text>
</a>
</g>
</g>
<!-- Node3&#45;&gt;Node2 -->
<g id="edge2" class="edge">
<title>Node3&#45;&gt;Node2</title>
<path fill="none" stroke="midnightblue" d="M105.99,-510.21C115.11,-490.76 124.89,-469.92 134.33,-449.81"/>
<polygon fill="none" stroke="midnightblue" points="102.78,-508.79 101.71,-519.33 109.12,-511.77 102.78,-508.79"/>
</g>
<!-- Node4 -->
<g id="node4" class="node">
<title>Node4</title>
<g id="a_node4"><a target="_parent" xlink:href="../../../cieutils/docs/html/classcie_1_1utils_1_1NamedObject.html" xlink:title=" ">
<polygon fill="white" stroke="black" points="0,-756.5 0,-912.5 131,-912.5 131,-756.5 0,-756.5"/>
<text text-anchor="middle" x="65.5" y="-900.5" font-family="Helvetica,sans-Serif" font-size="10.00">cie::utils::NamedObject</text>
<polyline fill="none" stroke="black" points="0,-893.5 131,-893.5 "/>
<text text-anchor="middle" x="65.5" y="-881.5" font-family="Helvetica,sans-Serif" font-size="10.00"> </text>
<polyline fill="none" stroke="black" points="0,-874.5 131,-874.5 "/>
<text text-anchor="start" x="8" y="-862.5" font-family="Helvetica,sans-Serif" font-size="10.00">+ NamedObject()</text>
<text text-anchor="start" x="8" y="-851.5" font-family="Helvetica,sans-Serif" font-size="10.00">+ NamedObject()</text>
<text text-anchor="start" x="8" y="-840.5" font-family="Helvetica,sans-Serif" font-size="10.00">+ NamedObject()</text>
<text text-anchor="start" x="8" y="-829.5" font-family="Helvetica,sans-Serif" font-size="10.00">+ NamedObject()</text>
<text text-anchor="start" x="8" y="-818.5" font-family="Helvetica,sans-Serif" font-size="10.00">+ operator=()</text>
<text text-anchor="start" x="8" y="-807.5" font-family="Helvetica,sans-Serif" font-size="10.00">+ operator=()</text>
<text text-anchor="start" x="8" y="-796.5" font-family="Helvetica,sans-Serif" font-size="10.00">+ name()</text>
<text text-anchor="start" x="8" y="-785.5" font-family="Helvetica,sans-Serif" font-size="10.00">+ setName()</text>
<text text-anchor="start" x="8" y="-774.5" font-family="Helvetica,sans-Serif" font-size="10.00">+ setName()</text>
<text text-anchor="start" x="8" y="-763.5" font-family="Helvetica,sans-Serif" font-size="10.00">+ ~NamedObject()</text>
</a>
</g>
</g>
<!-- Node4&#45;&gt;Node3 -->
<g id="edge3" class="edge">
<title>Node4&#45;&gt;Node3</title>
<path fill="none" stroke="midnightblue" d="M65.5,-746.11C65.5,-723.04 65.5,-698.31 65.5,-675.82"/>
<polygon fill="none" stroke="midnightblue" points="62,-746.23 65.5,-756.23 69,-746.23 62,-746.23"/>
</g>
<!-- Node5 -->
<g id="node5" class="node">
<title>Node5</title>
<g id="a_node5"><a xlink:href="classcie_1_1gl_1_1RigidBody.html" target="_top" xlink:title=" ">
<polygon fill="white" stroke="black" points="133,-508.5 133,-686.5 234,-686.5 234,-508.5 133,-508.5"/>
<text text-anchor="middle" x="183.5" y="-674.5" font-family="Helvetica,sans-Serif" font-size="10.00">cie::gl::RigidBody</text>
<polyline fill="none" stroke="black" points="133,-667.5 234,-667.5 "/>
<text text-anchor="middle" x="183.5" y="-655.5" font-family="Helvetica,sans-Serif" font-size="10.00"> </text>
<polyline fill="none" stroke="black" points="133,-648.5 234,-648.5 "/>
<text text-anchor="start" x="141" y="-636.5" font-family="Helvetica,sans-Serif" font-size="10.00">+ RigidBody()</text>
<text text-anchor="start" x="141" y="-625.5" font-family="Helvetica,sans-Serif" font-size="10.00">+ RigidBody()</text>
<text text-anchor="start" x="141" y="-614.5" font-family="Helvetica,sans-Serif" font-size="10.00">+ RigidBody()</text>
<text text-anchor="start" x="141" y="-603.5" font-family="Helvetica,sans-Serif" font-size="10.00">+ RigidBody()</text>
<text text-anchor="start" x="141" y="-592.5" font-family="Helvetica,sans-Serif" font-size="10.00">+ position()</text>
<text text-anchor="start" x="141" y="-581.5" font-family="Helvetica,sans-Serif" font-size="10.00">+ direction()</text>
<text text-anchor="start" x="141" y="-570.5" font-family="Helvetica,sans-Serif" font-size="10.00">+ up()</text>
<text text-anchor="start" x="141" y="-559.5" font-family="Helvetica,sans-Serif" font-size="10.00">+ setPosition()</text>
<text text-anchor="start" x="141" y="-548.5" font-family="Helvetica,sans-Serif" font-size="10.00">+ setPose()</text>
<text text-anchor="start" x="141" y="-537.5" font-family="Helvetica,sans-Serif" font-size="10.00">+ translate()</text>
<text text-anchor="start" x="141" y="-526.5" font-family="Helvetica,sans-Serif" font-size="10.00">and 8 more...</text>
<text text-anchor="start" x="141" y="-515.5" font-family="Helvetica,sans-Serif" font-size="10.00"># rotateInPlace()</text>
</a>
</g>
</g>
<!-- Node5&#45;&gt;Node2 -->
<g id="edge4" class="edge">
<title>Node5&#45;&gt;Node2</title>
<path fill="none" stroke="midnightblue" d="M183.5,-497.93C183.5,-482.17 183.5,-465.82 183.5,-449.93"/>
<polygon fill="none" stroke="midnightblue" points="180,-498.18 183.5,-508.18 187,-498.18 180,-498.18"/>
</g>
<!-- Node6 -->
<g id="node6" class="node">
<title>Node6</title>
<g id="a_node6"><a xlink:title=" ">
<polygon fill="white" stroke="#bfbfbf" points="160.5,-806 160.5,-863 206.5,-863 206.5,-806 160.5,-806"/>
<text text-anchor="middle" x="183.5" y="-851" font-family="Helvetica,sans-Serif" font-size="10.00">dvec3</text>
<polyline fill="none" stroke="#bfbfbf" points="160.5,-844 206.5,-844 "/>
<text text-anchor="middle" x="183.5" y="-832" font-family="Helvetica,sans-Serif" font-size="10.00"> </text>
<polyline fill="none" stroke="#bfbfbf" points="160.5,-825 206.5,-825 "/>
<text text-anchor="middle" x="183.5" y="-813" font-family="Helvetica,sans-Serif" font-size="10.00"> </text>
</a>
</g>
</g>
<!-- Node6&#45;&gt;Node5 -->
<g id="edge5" class="edge">
<title>Node6&#45;&gt;Node5</title>
<path fill="none" stroke="#404040" d="M183.5,-805.62C183.5,-779.12 183.5,-737.66 183.5,-698.77"/>
<polygon fill="none" stroke="#404040" points="183.5,-698.52 179.5,-692.53 183.5,-686.52 187.5,-692.52 183.5,-698.52"/>
<text text-anchor="middle" x="213.5" y="-730" font-family="Helvetica,sans-Serif" font-size="10.00"> #_direction</text>
<text text-anchor="middle" x="213.5" y="-719" font-family="Helvetica,sans-Serif" font-size="10.00">#_position</text>
<text text-anchor="middle" x="213.5" y="-708" font-family="Helvetica,sans-Serif" font-size="10.00">#_up</text>
</g>
<!-- Node7 -->
<g id="node7" class="node">
<title>Node7</title>
<g id="a_node7"><a xlink:title=" ">
<polygon fill="white" stroke="#bfbfbf" points="252.5,-569 252.5,-626 294.5,-626 294.5,-569 252.5,-569"/>
<text text-anchor="middle" x="273.5" y="-614" font-family="Helvetica,sans-Serif" font-size="10.00">mat4</text>
<polyline fill="none" stroke="#bfbfbf" points="252.5,-607 294.5,-607 "/>
<text text-anchor="middle" x="273.5" y="-595" font-family="Helvetica,sans-Serif" font-size="10.00"> </text>
<polyline fill="none" stroke="#bfbfbf" points="252.5,-588 294.5,-588 "/>
<text text-anchor="middle" x="273.5" y="-576" font-family="Helvetica,sans-Serif" font-size="10.00"> </text>
</a>
</g>
</g>
<!-- Node7&#45;&gt;Node2 -->
<g id="edge6" class="edge">
<title>Node7&#45;&gt;Node2</title>
<path fill="none" stroke="#404040" d="M263.94,-568.97C257.85,-551.49 249.76,-528.4 242.5,-508 237.1,-492.83 231.38,-476.88 225.7,-461.14"/>
<polygon fill="none" stroke="#404040" points="225.66,-461.01 219.86,-456.73 221.59,-449.73 227.39,-454.01 225.66,-461.01"/>
<text text-anchor="middle" x="296" y="-482" font-family="Helvetica,sans-Serif" font-size="10.00"> #_transformationMatrix</text>
<text text-anchor="middle" x="296" y="-471" font-family="Helvetica,sans-Serif" font-size="10.00">#_viewMatrix</text>
</g>
<!-- Node8 -->
<g id="node8" class="node">
<title>Node8</title>
<g id="a_node8"><a xlink:href="classcie_1_1gl_1_1ProjectionType.html" target="_top" xlink:title=" ">
<polygon fill="white" stroke="black" points="288.5,-315.5 288.5,-372.5 376.5,-372.5 376.5,-315.5 288.5,-315.5"/>
<text text-anchor="middle" x="332.5" y="-360.5" font-family="Helvetica,sans-Serif" font-size="10.00">ProjectionType</text>
<polyline fill="none" stroke="black" points="288.5,-353.5 376.5,-353.5 "/>
<text text-anchor="middle" x="332.5" y="-341.5" font-family="Helvetica,sans-Serif" font-size="10.00"> </text>
<polyline fill="none" stroke="black" points="288.5,-334.5 376.5,-334.5 "/>
<text text-anchor="middle" x="332.5" y="-322.5" font-family="Helvetica,sans-Serif" font-size="10.00"> </text>
</a>
</g>
</g>
<!-- Node8&#45;&gt;Node1 -->
<g id="edge7" class="edge">
<title>Node8&#45;&gt;Node1</title>
<path fill="none" stroke="midnightblue" d="M320.86,-305.51C312.13,-277.42 299.77,-237.62 288.28,-200.62"/>
<polygon fill="none" stroke="midnightblue" points="317.59,-306.78 323.9,-315.3 324.27,-304.71 317.59,-306.78"/>
</g>
</g>
</svg>
