<?xml version="1.0" encoding="UTF-8" standalone="no"?>
<!DOCTYPE svg PUBLIC "-//W3C//DTD SVG 1.1//EN"
 "http://www.w3.org/Graphics/SVG/1.1/DTD/svg11.dtd">
<!-- Generated by graphviz version 2.43.0 (0)
 -->
<!-- Title: cie::gl::Triangulated3DPart Pages: 1 -->
<!--zoomable 590 -->
<svg id="main" version="1.1" xmlns="http://www.w3.org/2000/svg" xmlns:xlink="http://www.w3.org/1999/xlink" xml:space="preserve" onload="init(evt)">
<style type="text/css"><![CDATA[
.edge:hover path { stroke: red; }
.edge:hover polygon { stroke: red; fill: red; }
]]></style>
<script type="text/javascript"><![CDATA[
var edges = document.getElementsByTagName('g');
if (edges && edges.length) {
  for (var i=0;i<edges.length;i++) {
    if (edges[i].id.substr(0,4)=='edge') {
      edges[i].setAttribute('class','edge');
    }
  }
}
]]></script>
        <defs>
                <circle id="rim" cx="0" cy="0" r="7"/>
                <circle id="rim2" cx="0" cy="0" r="3.5"/>
                <g id="zoomPlus">
                        <use xlink:href="#rim" fill="#404040">
                                <set attributeName="fill" to="#808080" begin="zoomplus.mouseover" end="zoomplus.mouseout"/>
                        </use>
                        <path d="M-4,0h8M0,-4v8" fill="none" stroke="white" stroke-width="1.5" pointer-events="none"/>
                </g>
                <g id="zoomMin">
                        <use xlink:href="#rim" fill="#404040">
                                <set attributeName="fill" to="#808080" begin="zoomminus.mouseover" end="zoomminus.mouseout"/>
                        </use>
                        <path d="M-4,0h8" fill="none" stroke="white" stroke-width="1.5" pointer-events="none"/>
                </g>
                <g id="dirArrow">
                        <path fill="none" stroke="white" stroke-width="1.5" d="M0,-3.0v7 M-2.5,-0.5L0,-3.0L2.5,-0.5"/>
                </g>
               <g id="resetDef">
                       <use xlink:href="#rim2" fill="#404040">
                               <set attributeName="fill" to="#808080" begin="reset.mouseover" end="reset.mouseout"/>
                       </use>
               </g>
        </defs>

<script type="text/javascript">
var viewWidth = 202;
var viewHeight = 590;
var sectionId = 'dynsection-0';
</script>
<script xlink:href="svgpan.js"/>
<svg id="graph" class="graph">
<g id="viewport">
<title>cie::gl::Triangulated3DPart</title>
<polygon fill="white" stroke="transparent" points="-4,4 -4,-586 197.5,-586 197.5,4 -4,4"/>
<!-- Node1 -->
<g id="node1" class="node">
<title>Node1</title>
<g id="a_node1"><a xlink:title=" ">
<polygon fill="#bfbfbf" stroke="black" points="24.5,-116.5 24.5,-206.5 168.5,-206.5 168.5,-116.5 24.5,-116.5"/>
<text text-anchor="middle" x="96.5" y="-194.5" font-family="Helvetica,sans-Serif" font-size="10.00">cie::gl::Triangulated3DPart</text>
<polyline fill="none" stroke="black" points="24.5,-187.5 168.5,-187.5 "/>
<text text-anchor="middle" x="96.5" y="-175.5" font-family="Helvetica,sans-Serif" font-size="10.00"> </text>
<polyline fill="none" stroke="black" points="24.5,-168.5 168.5,-168.5 "/>
<text text-anchor="start" x="32.5" y="-156.5" font-family="Helvetica,sans-Serif" font-size="10.00">+ dimension()</text>
<text text-anchor="start" x="32.5" y="-145.5" font-family="Helvetica,sans-Serif" font-size="10.00">+ vertexAttributeSize()</text>
<text text-anchor="start" x="32.5" y="-134.5" font-family="Helvetica,sans-Serif" font-size="10.00">+ primitiveVertexSize()</text>
<text text-anchor="start" x="32.5" y="-123.5" font-family="Helvetica,sans-Serif" font-size="10.00">+ writeSTL()</text>
</a>
</g>
</g>
<!-- Node4 -->
<g id="node4" class="node">
<title>Node4</title>
<g id="a_node4"><a xlink:href="classcie_1_1gl_1_1ObjPart.html" target="_top" xlink:title=" ">
<polygon fill="white" stroke="black" points="0,-0.5 0,-79.5 87,-79.5 87,-0.5 0,-0.5"/>
<text text-anchor="middle" x="43.5" y="-67.5" font-family="Helvetica,sans-Serif" font-size="10.00">cie::gl::ObjPart</text>
<polyline fill="none" stroke="black" points="0,-60.5 87,-60.5 "/>
<text text-anchor="middle" x="43.5" y="-48.5" font-family="Helvetica,sans-Serif" font-size="10.00"> </text>
<polyline fill="none" stroke="black" points="0,-41.5 87,-41.5 "/>
<text text-anchor="start" x="8" y="-29.5" font-family="Helvetica,sans-Serif" font-size="10.00">+ ObjPart()</text>
<text text-anchor="start" x="8" y="-18.5" font-family="Helvetica,sans-Serif" font-size="10.00">+ ObjPart()</text>
<text text-anchor="start" x="8" y="-7.5" font-family="Helvetica,sans-Serif" font-size="10.00">+ load()</text>
</a>
</g>
</g>
<!-- Node1&#45;&gt;Node4 -->
<g id="edge3" class="edge">
<title>Node1&#45;&gt;Node4</title>
<path fill="none" stroke="midnightblue" d="M72.75,-106.94C68.7,-97.82 64.57,-88.51 60.73,-79.86"/>
<polygon fill="none" stroke="midnightblue" points="69.66,-108.62 76.92,-116.34 76.06,-105.78 69.66,-108.62"/>
</g>
<!-- Node5 -->
<g id="node5" class="node">
<title>Node5</title>
<g id="a_node5"><a xlink:href="classcie_1_1gl_1_1STLPart.html" target="_top" xlink:title=" ">
<polygon fill="white" stroke="black" points="105.5,-0.5 105.5,-79.5 193.5,-79.5 193.5,-0.5 105.5,-0.5"/>
<text text-anchor="middle" x="149.5" y="-67.5" font-family="Helvetica,sans-Serif" font-size="10.00">cie::gl::STLPart</text>
<polyline fill="none" stroke="black" points="105.5,-60.5 193.5,-60.5 "/>
<text text-anchor="middle" x="149.5" y="-48.5" font-family="Helvetica,sans-Serif" font-size="10.00"> </text>
<polyline fill="none" stroke="black" points="105.5,-41.5 193.5,-41.5 "/>
<text text-anchor="start" x="113.5" y="-29.5" font-family="Helvetica,sans-Serif" font-size="10.00">+ STLPart()</text>
<text text-anchor="start" x="113.5" y="-18.5" font-family="Helvetica,sans-Serif" font-size="10.00">+ STLPart()</text>
<text text-anchor="start" x="113.5" y="-7.5" font-family="Helvetica,sans-Serif" font-size="10.00">+ load()</text>
</a>
</g>
</g>
<!-- Node1&#45;&gt;Node5 -->
<g id="edge4" class="edge">
<title>Node1&#45;&gt;Node5</title>
<path fill="none" stroke="midnightblue" d="M120.25,-106.94C124.3,-97.82 128.43,-88.51 132.27,-79.86"/>
<polygon fill="none" stroke="midnightblue" points="116.94,-105.78 116.08,-116.34 123.34,-108.62 116.94,-105.78"/>
</g>
<!-- Node2 -->
<g id="node2" class="node">
<title>Node2</title>
<g id="a_node2"><a xlink:href="classcie_1_1gl_1_1Part.html" target="_top" xlink:title=" ">
<polygon fill="white" stroke="black" points="25,-243.5 25,-487.5 168,-487.5 168,-243.5 25,-243.5"/>
<text text-anchor="middle" x="96.5" y="-475.5" font-family="Helvetica,sans-Serif" font-size="10.00">cie::gl::Part</text>
<polyline fill="none" stroke="black" points="25,-468.5 168,-468.5 "/>
<text text-anchor="start" x="33" y="-456.5" font-family="Helvetica,sans-Serif" font-size="10.00"># _p_attributes</text>
<text text-anchor="start" x="33" y="-445.5" font-family="Helvetica,sans-Serif" font-size="10.00"># _indices</text>
<polyline fill="none" stroke="black" points="25,-438.5 168,-438.5 "/>
<text text-anchor="start" x="33" y="-426.5" font-family="Helvetica,sans-Serif" font-size="10.00">+ Part()</text>
<text text-anchor="start" x="33" y="-415.5" font-family="Helvetica,sans-Serif" font-size="10.00">+ attributeByteCount()</text>
<text text-anchor="start" x="33" y="-404.5" font-family="Helvetica,sans-Serif" font-size="10.00">+ indexByteCount()</text>
<text text-anchor="start" x="33" y="-393.5" font-family="Helvetica,sans-Serif" font-size="10.00">+ numberOfVertices()</text>
<text text-anchor="start" x="33" y="-382.5" font-family="Helvetica,sans-Serif" font-size="10.00">+ numberOfPrimitives()</text>
<text text-anchor="start" x="33" y="-371.5" font-family="Helvetica,sans-Serif" font-size="10.00">+ load()</text>
<text text-anchor="start" x="33" y="-360.5" font-family="Helvetica,sans-Serif" font-size="10.00">+ attributes()</text>
<text text-anchor="start" x="33" y="-349.5" font-family="Helvetica,sans-Serif" font-size="10.00">+ indices()</text>
<text text-anchor="start" x="33" y="-338.5" font-family="Helvetica,sans-Serif" font-size="10.00">+ dimension()</text>
<text text-anchor="start" x="33" y="-327.5" font-family="Helvetica,sans-Serif" font-size="10.00">+ vertexAttributeSize()</text>
<text text-anchor="start" x="33" y="-316.5" font-family="Helvetica,sans-Serif" font-size="10.00">+ primitiveVertexSize()</text>
<text text-anchor="start" x="33" y="-305.5" font-family="Helvetica,sans-Serif" font-size="10.00">+ primitiveAttributeSize()</text>
<text text-anchor="start" x="33" y="-294.5" font-family="Helvetica,sans-Serif" font-size="10.00">+ primitiveByteSize()</text>
<text text-anchor="start" x="33" y="-283.5" font-family="Helvetica,sans-Serif" font-size="10.00">+ writeSTL()</text>
<text text-anchor="start" x="33" y="-272.5" font-family="Helvetica,sans-Serif" font-size="10.00"># Part()</text>
<text text-anchor="start" x="33" y="-261.5" font-family="Helvetica,sans-Serif" font-size="10.00"># Part()</text>
<text text-anchor="start" x="33" y="-250.5" font-family="Helvetica,sans-Serif" font-size="10.00"># operator=()</text>
</a>
</g>
</g>
<!-- Node2&#45;&gt;Node1 -->
<g id="edge1" class="edge">
<title>Node2&#45;&gt;Node1</title>
<path fill="none" stroke="midnightblue" d="M96.5,-233.47C96.5,-223.97 96.5,-214.85 96.5,-206.51"/>
<polygon fill="none" stroke="midnightblue" points="93,-233.5 96.5,-243.5 100,-233.5 93,-233.5"/>
</g>
<!-- Node3 -->
<g id="node3" class="node">
<title>Node3</title>
<g id="a_node3"><a xlink:href="structcie_1_1gl_1_1GLTraits.html" target="_top" xlink:title=" ">
<polygon fill="white" stroke="black" points="51.5,-524.5 51.5,-581.5 141.5,-581.5 141.5,-524.5 51.5,-524.5"/>
<text text-anchor="middle" x="96.5" y="-569.5" font-family="Helvetica,sans-Serif" font-size="10.00">cie::gl::GLTraits</text>
<polyline fill="none" stroke="black" points="51.5,-562.5 141.5,-562.5 "/>
<text text-anchor="middle" x="96.5" y="-550.5" font-family="Helvetica,sans-Serif" font-size="10.00"> </text>
<polyline fill="none" stroke="black" points="51.5,-543.5 141.5,-543.5 "/>
<text text-anchor="middle" x="96.5" y="-531.5" font-family="Helvetica,sans-Serif" font-size="10.00"> </text>
</a>
</g>
</g>
<!-- Node3&#45;&gt;Node2 -->
<g id="edge2" class="edge">
<title>Node3&#45;&gt;Node2</title>
<path fill="none" stroke="midnightblue" d="M96.5,-514.14C96.5,-506.05 96.5,-497.1 96.5,-487.72"/>
<polygon fill="none" stroke="midnightblue" points="93,-514.23 96.5,-524.23 100,-514.23 93,-514.23"/>
</g>
</g>
</svg>
        <g id="navigator" transform="translate(0 0)" fill="#404254">
                <rect fill="#f2f5e9" fill-opacity="0.5" stroke="#606060" stroke-width=".5" x="0" y="0" width="60" height="60"/>
                <use id="zoomplus" xlink:href="#zoomPlus" x="17" y="9" onmousedown="handleZoom(evt,'in')"/>
                <use id="zoomminus" xlink:href="#zoomMin" x="42" y="9" onmousedown="handleZoom(evt,'out')"/>
                <use id="reset" xlink:href="#resetDef" x="30" y="36" onmousedown="handleReset()"/>
                <g id="arrowUp" xlink:href="#dirArrow" transform="translate(30 24)" onmousedown="handlePan(0,-1)">
                  <use xlink:href="#rim" fill="#404040">
                        <set attributeName="fill" to="#808080" begin="arrowUp.mouseover" end="arrowUp.mouseout"/>
                  </use>
                  <path fill="none" stroke="white" stroke-width="1.5" d="M0,-3.0v7 M-2.5,-0.5L0,-3.0L2.5,-0.5"/>
                </g>
                <g id="arrowRight" xlink:href="#dirArrow" transform="rotate(90) translate(36 -43)" onmousedown="handlePan(1,0)">
                  <use xlink:href="#rim" fill="#404040">
                        <set attributeName="fill" to="#808080" begin="arrowRight.mouseover" end="arrowRight.mouseout"/>
                  </use>
                  <path fill="none" stroke="white" stroke-width="1.5" d="M0,-3.0v7 M-2.5,-0.5L0,-3.0L2.5,-0.5"/>
                </g>
                <g id="arrowDown" xlink:href="#dirArrow" transform="rotate(180) translate(-30 -48)" onmousedown="handlePan(0,1)">
                  <use xlink:href="#rim" fill="#404040">
                        <set attributeName="fill" to="#808080" begin="arrowDown.mouseover" end="arrowDown.mouseout"/>
                  </use>
                  <path fill="none" stroke="white" stroke-width="1.5" d="M0,-3.0v7 M-2.5,-0.5L0,-3.0L2.5,-0.5"/>
                </g>
                <g id="arrowLeft" xlink:href="#dirArrow" transform="rotate(270) translate(-36 17)" onmousedown="handlePan(-1,0)">
                  <use xlink:href="#rim" fill="#404040">
                        <set attributeName="fill" to="#808080" begin="arrowLeft.mouseover" end="arrowLeft.mouseout"/>
                  </use>
                  <path fill="none" stroke="white" stroke-width="1.5" d="M0,-3.0v7 M-2.5,-0.5L0,-3.0L2.5,-0.5"/>
                </g>
        </g>
        <svg viewBox="0 0 15 15" width="100%" height="30px" preserveAspectRatio="xMaxYMin meet">
         <g id="arrow_out" transform="scale(0.3 0.3)">
          <a xlink:href="classcie_1_1gl_1_1Triangulated3DPart__inherit__graph_org.svg" target="_base">
           <rect id="button" ry="5" rx="5" y="6" x="6" height="38" width="38"
                fill="#f2f5e9" fill-opacity="0.5" stroke="#606060" stroke-width="1.0"/>
           <path id="arrow"
             d="M 11.500037,31.436501 C 11.940474,20.09759 22.043105,11.32322 32.158766,21.979434 L 37.068811,17.246167 C 37.068811,17.246167 37.088388,32 37.088388,32 L 22.160133,31.978069 C 22.160133,31.978069 26.997745,27.140456 26.997745,27.140456 C 18.528582,18.264221 13.291696,25.230495 11.500037,31.436501 z"
             style="fill:#404040;"/>
          </a>
         </g>
        </svg>
</svg>
