<?xml version="1.0" encoding="UTF-8" standalone="no"?>
<!DOCTYPE svg PUBLIC "-//W3C//DTD SVG 1.1//EN"
 "http://www.w3.org/Graphics/SVG/1.1/DTD/svg11.dtd">
<!-- Generated by graphviz version 2.43.0 (0)
 -->
<!-- Title: cie::gl::GLUniform Pages: 1 -->
<svg width="544pt" height="601pt"
 viewBox="0.00 0.00 543.50 601.00" xmlns="http://www.w3.org/2000/svg" xmlns:xlink="http://www.w3.org/1999/xlink">
<g id="graph0" class="graph" transform="scale(1 1) rotate(0) translate(4 597)">
<title>cie::gl::GLUniform</title>
<polygon fill="white" stroke="transparent" points="-4,4 -4,-597 539.5,-597 539.5,4 -4,4"/>
<!-- Node1 -->
<g id="node1" class="node">
<title>Node1</title>
<g id="a_node1"><a xlink:title="Interface for loading uniforms into GL.">
<polygon fill="#bfbfbf" stroke="black" points="263.5,-0.5 263.5,-79.5 367.5,-79.5 367.5,-0.5 263.5,-0.5"/>
<text text-anchor="middle" x="315.5" y="-67.5" font-family="Helvetica,sans-Serif" font-size="10.00">cie::gl::GLUniform</text>
<polyline fill="none" stroke="black" points="263.5,-60.5 367.5,-60.5 "/>
<text text-anchor="middle" x="315.5" y="-48.5" font-family="Helvetica,sans-Serif" font-size="10.00"> </text>
<polyline fill="none" stroke="black" points="263.5,-41.5 367.5,-41.5 "/>
<text text-anchor="start" x="271.5" y="-29.5" font-family="Helvetica,sans-Serif" font-size="10.00">+ GLUniform()</text>
<text text-anchor="start" x="271.5" y="-18.5" font-family="Helvetica,sans-Serif" font-size="10.00">+ write()</text>
<text text-anchor="start" x="271.5" y="-7.5" font-family="Helvetica,sans-Serif" font-size="10.00">+ properties()</text>
</a>
</g>
</g>
<!-- Node2 -->
<g id="node2" class="node">
<title>Node2</title>
<g id="a_node2"><a xlink:href="classcie_1_1gl_1_1Shader_1_1Uniform.html" target="_top" xlink:title="Immutable uniform descriptor (for any shader).">
<polygon fill="white" stroke="black" points="111,-160.5 111,-239.5 242,-239.5 242,-160.5 111,-160.5"/>
<text text-anchor="middle" x="176.5" y="-227.5" font-family="Helvetica,sans-Serif" font-size="10.00">cie::gl::Shader::Uniform</text>
<polyline fill="none" stroke="black" points="111,-220.5 242,-220.5 "/>
<text text-anchor="middle" x="176.5" y="-208.5" font-family="Helvetica,sans-Serif" font-size="10.00"> </text>
<polyline fill="none" stroke="black" points="111,-201.5 242,-201.5 "/>
<text text-anchor="start" x="119" y="-189.5" font-family="Helvetica,sans-Serif" font-size="10.00">+ Uniform()</text>
<text text-anchor="start" x="119" y="-178.5" font-family="Helvetica,sans-Serif" font-size="10.00">+ size()</text>
<text text-anchor="start" x="119" y="-167.5" font-family="Helvetica,sans-Serif" font-size="10.00">+ type()</text>
</a>
</g>
</g>
<!-- Node2&#45;&gt;Node1 -->
<g id="edge1" class="edge">
<title>Node2&#45;&gt;Node1</title>
<path fill="none" stroke="midnightblue" d="M217.27,-152.66C237.72,-129.41 262.2,-101.58 281.61,-79.53"/>
<polygon fill="none" stroke="midnightblue" points="214.48,-150.53 210.5,-160.35 219.74,-155.15 214.48,-150.53"/>
</g>
<!-- Node3 -->
<g id="node3" class="node">
<title>Node3</title>
<g id="a_node3"><a target="_parent" xlink:href="../../../cieutils/docs/html/classcie_1_1utils_1_1NamedObject.html" xlink:title=" ">
<polygon fill="white" stroke="black" points="0,-331.5 0,-487.5 131,-487.5 131,-331.5 0,-331.5"/>
<text text-anchor="middle" x="65.5" y="-475.5" font-family="Helvetica,sans-Serif" font-size="10.00">cie::utils::NamedObject</text>
<polyline fill="none" stroke="black" points="0,-468.5 131,-468.5 "/>
<text text-anchor="middle" x="65.5" y="-456.5" font-family="Helvetica,sans-Serif" font-size="10.00"> </text>
<polyline fill="none" stroke="black" points="0,-449.5 131,-449.5 "/>
<text text-anchor="start" x="8" y="-437.5" font-family="Helvetica,sans-Serif" font-size="10.00">+ NamedObject()</text>
<text text-anchor="start" x="8" y="-426.5" font-family="Helvetica,sans-Serif" font-size="10.00">+ NamedObject()</text>
<text text-anchor="start" x="8" y="-415.5" font-family="Helvetica,sans-Serif" font-size="10.00">+ NamedObject()</text>
<text text-anchor="start" x="8" y="-404.5" font-family="Helvetica,sans-Serif" font-size="10.00">+ NamedObject()</text>
<text text-anchor="start" x="8" y="-393.5" font-family="Helvetica,sans-Serif" font-size="10.00">+ operator=()</text>
<text text-anchor="start" x="8" y="-382.5" font-family="Helvetica,sans-Serif" font-size="10.00">+ operator=()</text>
<text text-anchor="start" x="8" y="-371.5" font-family="Helvetica,sans-Serif" font-size="10.00">+ name()</text>
<text text-anchor="start" x="8" y="-360.5" font-family="Helvetica,sans-Serif" font-size="10.00">+ setName()</text>
<text text-anchor="start" x="8" y="-349.5" font-family="Helvetica,sans-Serif" font-size="10.00">+ setName()</text>
<text text-anchor="start" x="8" y="-338.5" font-family="Helvetica,sans-Serif" font-size="10.00">+ ~NamedObject()</text>
</a>
</g>
</g>
<!-- Node3&#45;&gt;Node2 -->
<g id="edge2" class="edge">
<title>Node3&#45;&gt;Node2</title>
<path fill="none" stroke="midnightblue" d="M111.57,-322.37C126.97,-293.59 143.36,-262.94 155.83,-239.65"/>
<polygon fill="none" stroke="midnightblue" points="108.46,-320.77 106.83,-331.23 114.64,-324.07 108.46,-320.77"/>
</g>
<!-- Node4 -->
<g id="node4" class="node">
<title>Node4</title>
<g id="a_node4"><a xlink:title=" ">
<polygon fill="white" stroke="#bfbfbf" points="149,-381 149,-438 194,-438 194,-381 149,-381"/>
<text text-anchor="middle" x="171.5" y="-426" font-family="Helvetica,sans-Serif" font-size="10.00">size_t</text>
<polyline fill="none" stroke="#bfbfbf" points="149,-419 194,-419 "/>
<text text-anchor="middle" x="171.5" y="-407" font-family="Helvetica,sans-Serif" font-size="10.00"> </text>
<polyline fill="none" stroke="#bfbfbf" points="149,-400 194,-400 "/>
<text text-anchor="middle" x="171.5" y="-388" font-family="Helvetica,sans-Serif" font-size="10.00"> </text>
</a>
</g>
</g>
<!-- Node4&#45;&gt;Node2 -->
<g id="edge3" class="edge">
<title>Node4&#45;&gt;Node2</title>
<path fill="none" stroke="#404040" d="M172.16,-380.95C172.96,-348.08 174.3,-292.47 175.28,-251.75"/>
<polygon fill="none" stroke="#404040" points="175.28,-251.63 171.43,-245.53 175.57,-239.63 179.42,-245.73 175.28,-251.63"/>
<text text-anchor="middle" x="193" y="-299.5" font-family="Helvetica,sans-Serif" font-size="10.00"> #_size</text>
</g>
<!-- Node5 -->
<g id="node5" class="node">
<title>Node5</title>
<g id="a_node5"><a xlink:title=" ">
<polygon fill="white" stroke="#bfbfbf" points="212.5,-381 212.5,-438 256.5,-438 256.5,-381 212.5,-381"/>
<text text-anchor="middle" x="234.5" y="-426" font-family="Helvetica,sans-Serif" font-size="10.00">string</text>
<polyline fill="none" stroke="#bfbfbf" points="212.5,-419 256.5,-419 "/>
<text text-anchor="middle" x="234.5" y="-407" font-family="Helvetica,sans-Serif" font-size="10.00"> </text>
<polyline fill="none" stroke="#bfbfbf" points="212.5,-400 256.5,-400 "/>
<text text-anchor="middle" x="234.5" y="-388" font-family="Helvetica,sans-Serif" font-size="10.00"> </text>
</a>
</g>
</g>
<!-- Node5&#45;&gt;Node2 -->
<g id="edge4" class="edge">
<title>Node5&#45;&gt;Node2</title>
<path fill="none" stroke="#404040" d="M230.85,-380.6C227.33,-356.57 221.24,-321.09 212.5,-291 208.69,-277.89 203.68,-264.04 198.61,-251.25"/>
<polygon fill="none" stroke="#404040" points="198.49,-250.96 192.52,-246.91 193.97,-239.84 199.93,-243.89 198.49,-250.96"/>
<text text-anchor="middle" x="238" y="-299.5" font-family="Helvetica,sans-Serif" font-size="10.00"> #_type</text>
</g>
<!-- Node6 -->
<g id="node6" class="node">
<title>Node6</title>
<g id="a_node6"><a target="_parent" xlink:href="../../../cieutils/docs/html/classcie_1_1utils_1_1IDObject.html" xlink:title=" ">
<polygon fill="white" stroke="black" points="262.5,-127.5 262.5,-272.5 368.5,-272.5 368.5,-127.5 262.5,-127.5"/>
<text text-anchor="start" x="270.5" y="-260.5" font-family="Helvetica,sans-Serif" font-size="10.00">cie::utils::IDObject</text>
<text text-anchor="middle" x="315.5" y="-249.5" font-family="Helvetica,sans-Serif" font-size="10.00">&lt; GLint &gt;</text>
<polyline fill="none" stroke="black" points="262.5,-242.5 368.5,-242.5 "/>
<text text-anchor="start" x="270.5" y="-230.5" font-family="Helvetica,sans-Serif" font-size="10.00"># _id</text>
<polyline fill="none" stroke="black" points="262.5,-223.5 368.5,-223.5 "/>
<text text-anchor="start" x="270.5" y="-211.5" font-family="Helvetica,sans-Serif" font-size="10.00">+ IDObject()</text>
<text text-anchor="start" x="270.5" y="-200.5" font-family="Helvetica,sans-Serif" font-size="10.00">+ IDObject()</text>
<text text-anchor="start" x="270.5" y="-189.5" font-family="Helvetica,sans-Serif" font-size="10.00">+ IDObject()</text>
<text text-anchor="start" x="270.5" y="-178.5" font-family="Helvetica,sans-Serif" font-size="10.00">+ IDObject()</text>
<text text-anchor="start" x="270.5" y="-167.5" font-family="Helvetica,sans-Serif" font-size="10.00">+ operator=()</text>
<text text-anchor="start" x="270.5" y="-156.5" font-family="Helvetica,sans-Serif" font-size="10.00">+ operator=()</text>
<text text-anchor="start" x="270.5" y="-145.5" font-family="Helvetica,sans-Serif" font-size="10.00">+ setID()</text>
<text text-anchor="start" x="270.5" y="-134.5" font-family="Helvetica,sans-Serif" font-size="10.00">+ getID()</text>
</a>
</g>
</g>
<!-- Node6&#45;&gt;Node1 -->
<g id="edge5" class="edge">
<title>Node6&#45;&gt;Node1</title>
<path fill="none" stroke="midnightblue" d="M315.5,-117.32C315.5,-104.13 315.5,-91.04 315.5,-79.52"/>
<polygon fill="none" stroke="midnightblue" points="312,-117.4 315.5,-127.4 319,-117.4 312,-117.4"/>
</g>
<!-- Node7 -->
<g id="node7" class="node">
<title>Node7</title>
<g id="a_node7"><a target="_parent" xlink:href="../../../cieutils/docs/html/classcie_1_1utils_1_1IDObject.html" xlink:title=" ">
<polygon fill="white" stroke="black" points="274.5,-337 274.5,-482 380.5,-482 380.5,-337 274.5,-337"/>
<text text-anchor="start" x="282.5" y="-470" font-family="Helvetica,sans-Serif" font-size="10.00">cie::utils::IDObject</text>
<text text-anchor="middle" x="327.5" y="-459" font-family="Helvetica,sans-Serif" font-size="10.00">&lt; class &gt;</text>
<polyline fill="none" stroke="black" points="274.5,-452 380.5,-452 "/>
<text text-anchor="middle" x="327.5" y="-440" font-family="Helvetica,sans-Serif" font-size="10.00"> </text>
<polyline fill="none" stroke="black" points="274.5,-433 380.5,-433 "/>
<text text-anchor="start" x="282.5" y="-421" font-family="Helvetica,sans-Serif" font-size="10.00">+ IDObject()</text>
<text text-anchor="start" x="282.5" y="-410" font-family="Helvetica,sans-Serif" font-size="10.00">+ IDObject()</text>
<text text-anchor="start" x="282.5" y="-399" font-family="Helvetica,sans-Serif" font-size="10.00">+ IDObject()</text>
<text text-anchor="start" x="282.5" y="-388" font-family="Helvetica,sans-Serif" font-size="10.00">+ IDObject()</text>
<text text-anchor="start" x="282.5" y="-377" font-family="Helvetica,sans-Serif" font-size="10.00">+ operator=()</text>
<text text-anchor="start" x="282.5" y="-366" font-family="Helvetica,sans-Serif" font-size="10.00">+ operator=()</text>
<text text-anchor="start" x="282.5" y="-355" font-family="Helvetica,sans-Serif" font-size="10.00">+ setID()</text>
<text text-anchor="start" x="282.5" y="-344" font-family="Helvetica,sans-Serif" font-size="10.00">+ getID()</text>
</a>
</g>
</g>
<!-- Node7&#45;&gt;Node6 -->
<g id="edge6" class="edge">
<title>Node7&#45;&gt;Node6</title>
<path fill="none" stroke="orange" d="M322.76,-326.46C321.73,-308.69 320.65,-290.04 319.65,-272.7"/>
<polygon fill="orange" stroke="orange" points="319.28,-327.02 323.35,-336.8 326.27,-326.61 319.28,-327.02"/>
<text text-anchor="middle" x="348.5" y="-299.5" font-family="Helvetica,sans-Serif" font-size="10.00"> &lt; GLint &gt;</text>
</g>
<!-- Node8 -->
<g id="node8" class="node">
<title>Node8</title>
<g id="a_node8"><a xlink:title=" ">
<polygon fill="white" stroke="#bfbfbf" points="311,-535.5 311,-592.5 344,-592.5 344,-535.5 311,-535.5"/>
<text text-anchor="middle" x="327.5" y="-580.5" font-family="Helvetica,sans-Serif" font-size="10.00">TID</text>
<polyline fill="none" stroke="#bfbfbf" points="311,-573.5 344,-573.5 "/>
<text text-anchor="middle" x="327.5" y="-561.5" font-family="Helvetica,sans-Serif" font-size="10.00"> </text>
<polyline fill="none" stroke="#bfbfbf" points="311,-554.5 344,-554.5 "/>
<text text-anchor="middle" x="327.5" y="-542.5" font-family="Helvetica,sans-Serif" font-size="10.00"> </text>
</a>
</g>
</g>
<!-- Node8&#45;&gt;Node7 -->
<g id="edge7" class="edge">
<title>Node8&#45;&gt;Node7</title>
<path fill="none" stroke="#404040" d="M327.5,-535.38C327.5,-523.53 327.5,-508.99 327.5,-494.07"/>
<polygon fill="none" stroke="#404040" points="327.5,-494.07 323.5,-488.07 327.5,-482.07 331.5,-488.07 327.5,-494.07"/>
<text text-anchor="middle" x="340.5" y="-509" font-family="Helvetica,sans-Serif" font-size="10.00"> #_id</text>
</g>
<!-- Node9 -->
<g id="node9" class="node">
<title>Node9</title>
<g id="a_node9"><a xlink:title=" ">
<polygon fill="white" stroke="#bfbfbf" points="386.5,-166 386.5,-234 490.5,-234 490.5,-166 386.5,-166"/>
<text text-anchor="start" x="394.5" y="-222" font-family="Helvetica,sans-Serif" font-size="10.00">cie::gl::GLUniform</text>
<text text-anchor="middle" x="438.5" y="-211" font-family="Helvetica,sans-Serif" font-size="10.00">::Properties</text>
<polyline fill="none" stroke="#bfbfbf" points="386.5,-204 490.5,-204 "/>
<text text-anchor="middle" x="438.5" y="-192" font-family="Helvetica,sans-Serif" font-size="10.00"> </text>
<polyline fill="none" stroke="#bfbfbf" points="386.5,-185 490.5,-185 "/>
<text text-anchor="middle" x="438.5" y="-173" font-family="Helvetica,sans-Serif" font-size="10.00"> </text>
</a>
</g>
</g>
<!-- Node9&#45;&gt;Node1 -->
<g id="edge8" class="edge">
<title>Node9&#45;&gt;Node1</title>
<path fill="none" stroke="#404040" d="M412.72,-165.88C395.43,-143.67 372.38,-114.06 353.06,-89.25"/>
<polygon fill="none" stroke="#404040" points="352.96,-89.12 346.11,-86.84 345.59,-79.65 352.43,-81.92 352.96,-89.12"/>
<text text-anchor="middle" x="400" y="-101" font-family="Helvetica,sans-Serif" font-size="10.00"> #_properties</text>
</g>
<!-- Node10 -->
<g id="node10" class="node">
<title>Node10</title>
<g id="a_node10"><a xlink:title=" ">
<polygon fill="white" stroke="#bfbfbf" points="408,-381 408,-438 465,-438 465,-381 408,-381"/>
<text text-anchor="middle" x="436.5" y="-426" font-family="Helvetica,sans-Serif" font-size="10.00">GLenum</text>
<polyline fill="none" stroke="#bfbfbf" points="408,-419 465,-419 "/>
<text text-anchor="middle" x="436.5" y="-407" font-family="Helvetica,sans-Serif" font-size="10.00"> </text>
<polyline fill="none" stroke="#bfbfbf" points="408,-400 465,-400 "/>
<text text-anchor="middle" x="436.5" y="-388" font-family="Helvetica,sans-Serif" font-size="10.00"> </text>
</a>
</g>
</g>
<!-- Node10&#45;&gt;Node9 -->
<g id="edge9" class="edge">
<title>Node10&#45;&gt;Node9</title>
<path fill="none" stroke="#404040" d="M436.77,-380.95C437.1,-346.58 437.67,-287.35 438.06,-246.28"/>
<polygon fill="none" stroke="#404040" points="438.06,-246.16 434.12,-240.12 438.18,-234.16 442.12,-240.2 438.06,-246.16"/>
<text text-anchor="middle" x="455.5" y="-299.5" font-family="Helvetica,sans-Serif" font-size="10.00"> +type</text>
</g>
<!-- Node11 -->
<g id="node11" class="node">
<title>Node11</title>
<g id="a_node11"><a xlink:title=" ">
<polygon fill="white" stroke="#bfbfbf" points="483.5,-381 483.5,-438 535.5,-438 535.5,-381 483.5,-381"/>
<text text-anchor="middle" x="509.5" y="-426" font-family="Helvetica,sans-Serif" font-size="10.00">GLsizei</text>
<polyline fill="none" stroke="#bfbfbf" points="483.5,-419 535.5,-419 "/>
<text text-anchor="middle" x="509.5" y="-407" font-family="Helvetica,sans-Serif" font-size="10.00"> </text>
<polyline fill="none" stroke="#bfbfbf" points="483.5,-400 535.5,-400 "/>
<text text-anchor="middle" x="509.5" y="-388" font-family="Helvetica,sans-Serif" font-size="10.00"> </text>
</a>
</g>
</g>
<!-- Node11&#45;&gt;Node9 -->
<g id="edge10" class="edge">
<title>Node11&#45;&gt;Node9</title>
<path fill="none" stroke="#404040" d="M502.73,-380.66C496.65,-356.65 487.07,-321.2 476.5,-291 471.24,-275.97 464.73,-259.86 458.59,-245.48"/>
<polygon fill="none" stroke="#404040" points="458.54,-245.38 452.49,-241.47 453.77,-234.37 459.83,-238.29 458.54,-245.38"/>
<text text-anchor="middle" x="504" y="-305" font-family="Helvetica,sans-Serif" font-size="10.00"> +length</text>
<text text-anchor="middle" x="504" y="-294" font-family="Helvetica,sans-Serif" font-size="10.00">+size</text>
</g>
</g>
</svg>
