<?xml version="1.0" encoding="UTF-8" standalone="no"?>
<!DOCTYPE svg PUBLIC "-//W3C//DTD SVG 1.1//EN"
 "http://www.w3.org/Graphics/SVG/1.1/DTD/svg11.dtd">
<!-- Generated by graphviz version 2.43.0 (0)
 -->
<!-- Title: cie::gl::MappedControls Pages: 1 -->
<svg width="161pt" height="226pt"
 viewBox="0.00 0.00 161.00 226.00" xmlns="http://www.w3.org/2000/svg" xmlns:xlink="http://www.w3.org/1999/xlink">
<g id="graph0" class="graph" transform="scale(1 1) rotate(0) translate(4 222)">
<title>cie::gl::MappedControls</title>
<polygon fill="white" stroke="transparent" points="-4,4 -4,-222 157,-222 157,4 -4,4"/>
<!-- Node1 -->
<g id="node1" class="node">
<title>Node1</title>
<g id="a_node1"><a xlink:title=" ">
<polygon fill="#bfbfbf" stroke="black" points="2,-0.5 2,-101.5 151,-101.5 151,-0.5 2,-0.5"/>
<text text-anchor="middle" x="76.5" y="-89.5" font-family="Helvetica,sans-Serif" font-size="10.00">cie::gl::MappedControls</text>
<polyline fill="none" stroke="black" points="2,-82.5 151,-82.5 "/>
<text text-anchor="middle" x="76.5" y="-70.5" font-family="Helvetica,sans-Serif" font-size="10.00"> </text>
<polyline fill="none" stroke="black" points="2,-63.5 151,-63.5 "/>
<text text-anchor="start" x="10" y="-51.5" font-family="Helvetica,sans-Serif" font-size="10.00">+ MappedControls()</text>
<text text-anchor="start" x="10" y="-40.5" font-family="Helvetica,sans-Serif" font-size="10.00">+ configure()</text>
<text text-anchor="start" x="10" y="-29.5" font-family="Helvetica,sans-Serif" font-size="10.00">+ configure()</text>
<text text-anchor="start" x="10" y="-18.5" font-family="Helvetica,sans-Serif" font-size="10.00">+ callControl()</text>
<text text-anchor="start" x="10" y="-7.5" font-family="Helvetica,sans-Serif" font-size="10.00"># makeConfigurationMap()</text>
</a>
</g>
</g>
<!-- Node2 -->
<g id="node2" class="node">
<title>Node2</title>
<g id="a_node2"><a xlink:title=" ">
<polygon fill="white" stroke="#bfbfbf" points="0,-149.5 0,-217.5 153,-217.5 153,-149.5 0,-149.5"/>
<text text-anchor="start" x="8" y="-205.5" font-family="Helvetica,sans-Serif" font-size="10.00">unordered_map&lt; KeyEnum,</text>
<text text-anchor="middle" x="76.5" y="-194.5" font-family="Helvetica,sans-Serif" font-size="10.00"> control_function &gt;</text>
<polyline fill="none" stroke="#bfbfbf" points="0,-187.5 153,-187.5 "/>
<text text-anchor="middle" x="76.5" y="-175.5" font-family="Helvetica,sans-Serif" font-size="10.00"> </text>
<polyline fill="none" stroke="#bfbfbf" points="0,-168.5 153,-168.5 "/>
<text text-anchor="middle" x="76.5" y="-156.5" font-family="Helvetica,sans-Serif" font-size="10.00"> </text>
</a>
</g>
</g>
<!-- Node2&#45;&gt;Node1 -->
<g id="edge1" class="edge">
<title>Node2&#45;&gt;Node1</title>
<path fill="none" stroke="#404040" d="M76.5,-149.23C76.5,-138.47 76.5,-126.17 76.5,-114.02"/>
<polygon fill="none" stroke="#404040" points="76.5,-113.98 72.5,-107.98 76.5,-101.98 80.5,-107.98 76.5,-113.98"/>
<text text-anchor="middle" x="112.5" y="-123" font-family="Helvetica,sans-Serif" font-size="10.00"> #_controlMap</text>
</g>
</g>
</svg>
