<?xml version="1.0" encoding="UTF-8" standalone="no"?>
<!DOCTYPE svg PUBLIC "-//W3C//DTD SVG 1.1//EN"
 "http://www.w3.org/Graphics/SVG/1.1/DTD/svg11.dtd">
<!-- Generated by graphviz version 2.43.0 (0)
 -->
<!-- Title: cie::gl::AbsVertex Pages: 1 -->
<svg width="422pt" height="292pt"
 viewBox="0.00 0.00 422.00 292.00" xmlns="http://www.w3.org/2000/svg" xmlns:xlink="http://www.w3.org/1999/xlink">
<g id="graph0" class="graph" transform="scale(1 1) rotate(0) translate(4 288)">
<title>cie::gl::AbsVertex</title>
<polygon fill="white" stroke="transparent" points="-4,4 -4,-288 418,-288 418,4 -4,4"/>
<!-- Node1 -->
<g id="node1" class="node">
<title>Node1</title>
<g id="a_node1"><a xlink:title=" ">
<polygon fill="#bfbfbf" stroke="black" points="107.5,-0.5 107.5,-178.5 262.5,-178.5 262.5,-0.5 107.5,-0.5"/>
<text text-anchor="middle" x="185" y="-166.5" font-family="Helvetica,sans-Serif" font-size="10.00">cie::gl::AbsVertex</text>
<polyline fill="none" stroke="black" points="107.5,-159.5 262.5,-159.5 "/>
<text text-anchor="middle" x="185" y="-147.5" font-family="Helvetica,sans-Serif" font-size="10.00"> </text>
<polyline fill="none" stroke="black" points="107.5,-140.5 262.5,-140.5 "/>
<text text-anchor="start" x="115.5" y="-128.5" font-family="Helvetica,sans-Serif" font-size="10.00">+ AbsVertex()</text>
<text text-anchor="start" x="115.5" y="-117.5" font-family="Helvetica,sans-Serif" font-size="10.00">+ AbsVertex()</text>
<text text-anchor="start" x="115.5" y="-106.5" font-family="Helvetica,sans-Serif" font-size="10.00">+ operator=()</text>
<text text-anchor="start" x="115.5" y="-95.5" font-family="Helvetica,sans-Serif" font-size="10.00">+ numberOfAttributes()</text>
<text text-anchor="start" x="115.5" y="-84.5" font-family="Helvetica,sans-Serif" font-size="10.00">+ attribute()</text>
<text text-anchor="start" x="115.5" y="-73.5" font-family="Helvetica,sans-Serif" font-size="10.00">+ attribute()</text>
<text text-anchor="start" x="115.5" y="-62.5" font-family="Helvetica,sans-Serif" font-size="10.00">+ at()</text>
<text text-anchor="start" x="115.5" y="-51.5" font-family="Helvetica,sans-Serif" font-size="10.00">+ at()</text>
<text text-anchor="start" x="115.5" y="-40.5" font-family="Helvetica,sans-Serif" font-size="10.00"># AbsVertex()</text>
<text text-anchor="start" x="115.5" y="-29.5" font-family="Helvetica,sans-Serif" font-size="10.00"># at()</text>
<text text-anchor="start" x="115.5" y="-18.5" font-family="Helvetica,sans-Serif" font-size="10.00"># at()</text>
<text text-anchor="start" x="115.5" y="-7.5" font-family="Helvetica,sans-Serif" font-size="10.00"># resizeAttributeContainer()</text>
</a>
</g>
</g>
<!-- Node2 -->
<g id="node2" class="node">
<title>Node2</title>
<g id="a_node2"><a xlink:href="structcie_1_1gl_1_1GLTraits.html" target="_top" xlink:title=" ">
<polygon fill="white" stroke="black" points="0,-226.5 0,-283.5 90,-283.5 90,-226.5 0,-226.5"/>
<text text-anchor="middle" x="45" y="-271.5" font-family="Helvetica,sans-Serif" font-size="10.00">cie::gl::GLTraits</text>
<polyline fill="none" stroke="black" points="0,-264.5 90,-264.5 "/>
<text text-anchor="middle" x="45" y="-252.5" font-family="Helvetica,sans-Serif" font-size="10.00"> </text>
<polyline fill="none" stroke="black" points="0,-245.5 90,-245.5 "/>
<text text-anchor="middle" x="45" y="-233.5" font-family="Helvetica,sans-Serif" font-size="10.00"> </text>
</a>
</g>
</g>
<!-- Node2&#45;&gt;Node1 -->
<g id="edge1" class="edge">
<title>Node2&#45;&gt;Node1</title>
<path fill="none" stroke="midnightblue" d="M75.5,-218.38C85.65,-206.52 97.46,-192.74 109.48,-178.7"/>
<polygon fill="none" stroke="midnightblue" points="72.59,-216.39 68.75,-226.26 77.91,-220.95 72.59,-216.39"/>
</g>
<!-- Node3 -->
<g id="node3" class="node">
<title>Node3</title>
<g id="a_node3"><a xlink:title=" ">
<polygon fill="white" stroke="#bfbfbf" points="108.5,-226.5 108.5,-283.5 153.5,-283.5 153.5,-226.5 108.5,-226.5"/>
<text text-anchor="middle" x="131" y="-271.5" font-family="Helvetica,sans-Serif" font-size="10.00">size_t</text>
<polyline fill="none" stroke="#bfbfbf" points="108.5,-264.5 153.5,-264.5 "/>
<text text-anchor="middle" x="131" y="-252.5" font-family="Helvetica,sans-Serif" font-size="10.00"> </text>
<polyline fill="none" stroke="#bfbfbf" points="108.5,-245.5 153.5,-245.5 "/>
<text text-anchor="middle" x="131" y="-233.5" font-family="Helvetica,sans-Serif" font-size="10.00"> </text>
</a>
</g>
</g>
<!-- Node3&#45;&gt;Node1 -->
<g id="edge2" class="edge">
<title>Node3&#45;&gt;Node1</title>
<path fill="none" stroke="#404040" d="M140.16,-226.26C143.58,-215.91 147.69,-203.45 152.02,-190.35"/>
<polygon fill="none" stroke="#404040" points="152.11,-190.09 150.19,-183.14 155.87,-178.7 157.79,-185.65 152.11,-190.09"/>
<text text-anchor="middle" x="170.5" y="-200" font-family="Helvetica,sans-Serif" font-size="10.00"> #_offset</text>
</g>
<!-- Node4 -->
<g id="node4" class="node">
<title>Node4</title>
<g id="a_node4"><a xlink:title=" ">
<polygon fill="white" stroke="#bfbfbf" points="171.5,-226.5 171.5,-283.5 306.5,-283.5 306.5,-226.5 171.5,-226.5"/>
<text text-anchor="middle" x="239" y="-271.5" font-family="Helvetica,sans-Serif" font-size="10.00">const offset_container &amp;</text>
<polyline fill="none" stroke="#bfbfbf" points="171.5,-264.5 306.5,-264.5 "/>
<text text-anchor="middle" x="239" y="-252.5" font-family="Helvetica,sans-Serif" font-size="10.00"> </text>
<polyline fill="none" stroke="#bfbfbf" points="171.5,-245.5 306.5,-245.5 "/>
<text text-anchor="middle" x="239" y="-233.5" font-family="Helvetica,sans-Serif" font-size="10.00"> </text>
</a>
</g>
</g>
<!-- Node4&#45;&gt;Node1 -->
<g id="edge3" class="edge">
<title>Node4&#45;&gt;Node1</title>
<path fill="none" stroke="#404040" d="M229.84,-226.26C226.42,-215.91 222.31,-203.45 217.98,-190.35"/>
<polygon fill="none" stroke="#404040" points="217.89,-190.09 212.21,-185.65 214.13,-178.7 219.81,-183.14 217.89,-190.09"/>
<text text-anchor="middle" x="274.5" y="-200" font-family="Helvetica,sans-Serif" font-size="10.00"> #_r_attributeOffsets</text>
</g>
<!-- Node5 -->
<g id="node5" class="node">
<title>Node5</title>
<g id="a_node5"><a xlink:title=" ">
<polygon fill="white" stroke="#bfbfbf" points="324.5,-226.5 324.5,-283.5 409.5,-283.5 409.5,-226.5 324.5,-226.5"/>
<text text-anchor="middle" x="367" y="-271.5" font-family="Helvetica,sans-Serif" font-size="10.00">SharedPointer</text>
<polyline fill="none" stroke="#bfbfbf" points="324.5,-264.5 409.5,-264.5 "/>
<text text-anchor="middle" x="367" y="-252.5" font-family="Helvetica,sans-Serif" font-size="10.00"> </text>
<polyline fill="none" stroke="#bfbfbf" points="324.5,-245.5 409.5,-245.5 "/>
<text text-anchor="middle" x="367" y="-233.5" font-family="Helvetica,sans-Serif" font-size="10.00"> </text>
</a>
</g>
</g>
<!-- Node5&#45;&gt;Node1 -->
<g id="edge4" class="edge">
<title>Node5&#45;&gt;Node1</title>
<path fill="none" stroke="#404040" d="M351.91,-226.44C345.81,-216.58 338.26,-205.75 330,-197 312.96,-178.94 292.52,-161.83 272.43,-146.82"/>
<polygon fill="none" stroke="#404040" points="272.3,-146.72 265.09,-146.4 262.62,-139.62 269.82,-139.95 272.3,-146.72"/>
<text text-anchor="middle" x="376" y="-200" font-family="Helvetica,sans-Serif" font-size="10.00"> #_p_attributes</text>
</g>
</g>
</svg>
