<?xml version="1.0" encoding="UTF-8" standalone="no"?>
<!DOCTYPE svg PUBLIC "-//W3C//DTD SVG 1.1//EN"
 "http://www.w3.org/Graphics/SVG/1.1/DTD/svg11.dtd">
<!-- Generated by graphviz version 2.43.0 (0)
 -->
<!-- Title: cie::gl::Vertex3 Pages: 1 -->
<svg width="422pt" height="636pt"
 viewBox="0.00 0.00 422.00 636.00" xmlns="http://www.w3.org/2000/svg" xmlns:xlink="http://www.w3.org/1999/xlink">
<g id="graph0" class="graph" transform="scale(1 1) rotate(0) translate(4 632)">
<title>cie::gl::Vertex3</title>
<polygon fill="white" stroke="transparent" points="-4,4 -4,-632 418,-632 418,4 -4,4"/>
<!-- Node1 -->
<g id="node1" class="node">
<title>Node1</title>
<g id="a_node1"><a xlink:title=" ">
<polygon fill="#bfbfbf" stroke="black" points="119,-0.5 119,-112.5 251,-112.5 251,-0.5 119,-0.5"/>
<text text-anchor="middle" x="185" y="-100.5" font-family="Helvetica,sans-Serif" font-size="10.00">cie::gl::Vertex3</text>
<polyline fill="none" stroke="black" points="119,-93.5 251,-93.5 "/>
<text text-anchor="middle" x="185" y="-81.5" font-family="Helvetica,sans-Serif" font-size="10.00"> </text>
<polyline fill="none" stroke="black" points="119,-74.5 251,-74.5 "/>
<text text-anchor="start" x="127" y="-62.5" font-family="Helvetica,sans-Serif" font-size="10.00">+ Vertex3()</text>
<text text-anchor="start" x="127" y="-51.5" font-family="Helvetica,sans-Serif" font-size="10.00">+ Vertex3()</text>
<text text-anchor="start" x="127" y="-40.5" font-family="Helvetica,sans-Serif" font-size="10.00">+ numberOfAttributes()</text>
<text text-anchor="start" x="127" y="-29.5" font-family="Helvetica,sans-Serif" font-size="10.00">+ z()</text>
<text text-anchor="start" x="127" y="-18.5" font-family="Helvetica,sans-Serif" font-size="10.00">+ z()</text>
<text text-anchor="start" x="127" y="-7.5" font-family="Helvetica,sans-Serif" font-size="10.00"># Vertex3()</text>
</a>
</g>
</g>
<!-- Node2 -->
<g id="node2" class="node">
<title>Node2</title>
<g id="a_node2"><a xlink:href="classcie_1_1gl_1_1Vertex2.html" target="_top" xlink:title=" ">
<polygon fill="white" stroke="black" points="119,-150.5 119,-306.5 251,-306.5 251,-150.5 119,-150.5"/>
<text text-anchor="middle" x="185" y="-294.5" font-family="Helvetica,sans-Serif" font-size="10.00">cie::gl::Vertex2</text>
<polyline fill="none" stroke="black" points="119,-287.5 251,-287.5 "/>
<text text-anchor="middle" x="185" y="-275.5" font-family="Helvetica,sans-Serif" font-size="10.00"> </text>
<polyline fill="none" stroke="black" points="119,-268.5 251,-268.5 "/>
<text text-anchor="start" x="127" y="-256.5" font-family="Helvetica,sans-Serif" font-size="10.00">+ Vertex2()</text>
<text text-anchor="start" x="127" y="-245.5" font-family="Helvetica,sans-Serif" font-size="10.00">+ Vertex2()</text>
<text text-anchor="start" x="127" y="-234.5" font-family="Helvetica,sans-Serif" font-size="10.00">+ numberOfAttributes()</text>
<text text-anchor="start" x="127" y="-223.5" font-family="Helvetica,sans-Serif" font-size="10.00">+ position()</text>
<text text-anchor="start" x="127" y="-212.5" font-family="Helvetica,sans-Serif" font-size="10.00">+ position()</text>
<text text-anchor="start" x="127" y="-201.5" font-family="Helvetica,sans-Serif" font-size="10.00">+ x()</text>
<text text-anchor="start" x="127" y="-190.5" font-family="Helvetica,sans-Serif" font-size="10.00">+ x()</text>
<text text-anchor="start" x="127" y="-179.5" font-family="Helvetica,sans-Serif" font-size="10.00">+ y()</text>
<text text-anchor="start" x="127" y="-168.5" font-family="Helvetica,sans-Serif" font-size="10.00">+ y()</text>
<text text-anchor="start" x="127" y="-157.5" font-family="Helvetica,sans-Serif" font-size="10.00"># Vertex2()</text>
</a>
</g>
</g>
<!-- Node2&#45;&gt;Node1 -->
<g id="edge1" class="edge">
<title>Node2&#45;&gt;Node1</title>
<path fill="none" stroke="midnightblue" d="M185,-140.35C185,-131.02 185,-121.73 185,-112.93"/>
<polygon fill="none" stroke="midnightblue" points="181.5,-140.46 185,-150.46 188.5,-140.46 181.5,-140.46"/>
</g>
<!-- Node3 -->
<g id="node3" class="node">
<title>Node3</title>
<g id="a_node3"><a xlink:href="classcie_1_1gl_1_1AbsVertex.html" target="_top" xlink:title=" ">
<polygon fill="white" stroke="black" points="107.5,-344.5 107.5,-522.5 262.5,-522.5 262.5,-344.5 107.5,-344.5"/>
<text text-anchor="middle" x="185" y="-510.5" font-family="Helvetica,sans-Serif" font-size="10.00">cie::gl::AbsVertex</text>
<polyline fill="none" stroke="black" points="107.5,-503.5 262.5,-503.5 "/>
<text text-anchor="middle" x="185" y="-491.5" font-family="Helvetica,sans-Serif" font-size="10.00"> </text>
<polyline fill="none" stroke="black" points="107.5,-484.5 262.5,-484.5 "/>
<text text-anchor="start" x="115.5" y="-472.5" font-family="Helvetica,sans-Serif" font-size="10.00">+ AbsVertex()</text>
<text text-anchor="start" x="115.5" y="-461.5" font-family="Helvetica,sans-Serif" font-size="10.00">+ AbsVertex()</text>
<text text-anchor="start" x="115.5" y="-450.5" font-family="Helvetica,sans-Serif" font-size="10.00">+ operator=()</text>
<text text-anchor="start" x="115.5" y="-439.5" font-family="Helvetica,sans-Serif" font-size="10.00">+ numberOfAttributes()</text>
<text text-anchor="start" x="115.5" y="-428.5" font-family="Helvetica,sans-Serif" font-size="10.00">+ attribute()</text>
<text text-anchor="start" x="115.5" y="-417.5" font-family="Helvetica,sans-Serif" font-size="10.00">+ attribute()</text>
<text text-anchor="start" x="115.5" y="-406.5" font-family="Helvetica,sans-Serif" font-size="10.00">+ at()</text>
<text text-anchor="start" x="115.5" y="-395.5" font-family="Helvetica,sans-Serif" font-size="10.00">+ at()</text>
<text text-anchor="start" x="115.5" y="-384.5" font-family="Helvetica,sans-Serif" font-size="10.00"># AbsVertex()</text>
<text text-anchor="start" x="115.5" y="-373.5" font-family="Helvetica,sans-Serif" font-size="10.00"># at()</text>
<text text-anchor="start" x="115.5" y="-362.5" font-family="Helvetica,sans-Serif" font-size="10.00"># at()</text>
<text text-anchor="start" x="115.5" y="-351.5" font-family="Helvetica,sans-Serif" font-size="10.00"># resizeAttributeContainer()</text>
</a>
</g>
</g>
<!-- Node3&#45;&gt;Node2 -->
<g id="edge2" class="edge">
<title>Node3&#45;&gt;Node2</title>
<path fill="none" stroke="midnightblue" d="M185,-334.33C185,-325.07 185,-315.77 185,-306.74"/>
<polygon fill="none" stroke="midnightblue" points="181.5,-334.35 185,-344.35 188.5,-334.35 181.5,-334.35"/>
</g>
<!-- Node4 -->
<g id="node4" class="node">
<title>Node4</title>
<g id="a_node4"><a xlink:href="structcie_1_1gl_1_1GLTraits.html" target="_top" xlink:title=" ">
<polygon fill="white" stroke="black" points="0,-570.5 0,-627.5 90,-627.5 90,-570.5 0,-570.5"/>
<text text-anchor="middle" x="45" y="-615.5" font-family="Helvetica,sans-Serif" font-size="10.00">cie::gl::GLTraits</text>
<polyline fill="none" stroke="black" points="0,-608.5 90,-608.5 "/>
<text text-anchor="middle" x="45" y="-596.5" font-family="Helvetica,sans-Serif" font-size="10.00"> </text>
<polyline fill="none" stroke="black" points="0,-589.5 90,-589.5 "/>
<text text-anchor="middle" x="45" y="-577.5" font-family="Helvetica,sans-Serif" font-size="10.00"> </text>
</a>
</g>
</g>
<!-- Node4&#45;&gt;Node3 -->
<g id="edge3" class="edge">
<title>Node4&#45;&gt;Node3</title>
<path fill="none" stroke="midnightblue" d="M75.5,-562.38C85.65,-550.52 97.46,-536.74 109.48,-522.7"/>
<polygon fill="none" stroke="midnightblue" points="72.59,-560.39 68.75,-570.26 77.91,-564.95 72.59,-560.39"/>
</g>
<!-- Node5 -->
<g id="node5" class="node">
<title>Node5</title>
<g id="a_node5"><a xlink:title=" ">
<polygon fill="white" stroke="#bfbfbf" points="108.5,-570.5 108.5,-627.5 153.5,-627.5 153.5,-570.5 108.5,-570.5"/>
<text text-anchor="middle" x="131" y="-615.5" font-family="Helvetica,sans-Serif" font-size="10.00">size_t</text>
<polyline fill="none" stroke="#bfbfbf" points="108.5,-608.5 153.5,-608.5 "/>
<text text-anchor="middle" x="131" y="-596.5" font-family="Helvetica,sans-Serif" font-size="10.00"> </text>
<polyline fill="none" stroke="#bfbfbf" points="108.5,-589.5 153.5,-589.5 "/>
<text text-anchor="middle" x="131" y="-577.5" font-family="Helvetica,sans-Serif" font-size="10.00"> </text>
</a>
</g>
</g>
<!-- Node5&#45;&gt;Node3 -->
<g id="edge4" class="edge">
<title>Node5&#45;&gt;Node3</title>
<path fill="none" stroke="#404040" d="M140.16,-570.26C143.58,-559.91 147.69,-547.45 152.02,-534.35"/>
<polygon fill="none" stroke="#404040" points="152.11,-534.09 150.19,-527.14 155.87,-522.7 157.79,-529.65 152.11,-534.09"/>
<text text-anchor="middle" x="170.5" y="-544" font-family="Helvetica,sans-Serif" font-size="10.00"> #_offset</text>
</g>
<!-- Node6 -->
<g id="node6" class="node">
<title>Node6</title>
<g id="a_node6"><a xlink:title=" ">
<polygon fill="white" stroke="#bfbfbf" points="171.5,-570.5 171.5,-627.5 306.5,-627.5 306.5,-570.5 171.5,-570.5"/>
<text text-anchor="middle" x="239" y="-615.5" font-family="Helvetica,sans-Serif" font-size="10.00">const offset_container &amp;</text>
<polyline fill="none" stroke="#bfbfbf" points="171.5,-608.5 306.5,-608.5 "/>
<text text-anchor="middle" x="239" y="-596.5" font-family="Helvetica,sans-Serif" font-size="10.00"> </text>
<polyline fill="none" stroke="#bfbfbf" points="171.5,-589.5 306.5,-589.5 "/>
<text text-anchor="middle" x="239" y="-577.5" font-family="Helvetica,sans-Serif" font-size="10.00"> </text>
</a>
</g>
</g>
<!-- Node6&#45;&gt;Node3 -->
<g id="edge5" class="edge">
<title>Node6&#45;&gt;Node3</title>
<path fill="none" stroke="#404040" d="M229.84,-570.26C226.42,-559.91 222.31,-547.45 217.98,-534.35"/>
<polygon fill="none" stroke="#404040" points="217.89,-534.09 212.21,-529.65 214.13,-522.7 219.81,-527.14 217.89,-534.09"/>
<text text-anchor="middle" x="274.5" y="-544" font-family="Helvetica,sans-Serif" font-size="10.00"> #_r_attributeOffsets</text>
</g>
<!-- Node7 -->
<g id="node7" class="node">
<title>Node7</title>
<g id="a_node7"><a xlink:title=" ">
<polygon fill="white" stroke="#bfbfbf" points="324.5,-570.5 324.5,-627.5 409.5,-627.5 409.5,-570.5 324.5,-570.5"/>
<text text-anchor="middle" x="367" y="-615.5" font-family="Helvetica,sans-Serif" font-size="10.00">SharedPointer</text>
<polyline fill="none" stroke="#bfbfbf" points="324.5,-608.5 409.5,-608.5 "/>
<text text-anchor="middle" x="367" y="-596.5" font-family="Helvetica,sans-Serif" font-size="10.00"> </text>
<polyline fill="none" stroke="#bfbfbf" points="324.5,-589.5 409.5,-589.5 "/>
<text text-anchor="middle" x="367" y="-577.5" font-family="Helvetica,sans-Serif" font-size="10.00"> </text>
</a>
</g>
</g>
<!-- Node7&#45;&gt;Node3 -->
<g id="edge6" class="edge">
<title>Node7&#45;&gt;Node3</title>
<path fill="none" stroke="#404040" d="M351.91,-570.44C345.81,-560.58 338.26,-549.75 330,-541 312.96,-522.94 292.52,-505.83 272.43,-490.82"/>
<polygon fill="none" stroke="#404040" points="272.3,-490.72 265.09,-490.4 262.62,-483.62 269.82,-483.95 272.3,-490.72"/>
<text text-anchor="middle" x="376" y="-544" font-family="Helvetica,sans-Serif" font-size="10.00"> #_p_attributes</text>
</g>
</g>
</svg>
