<?xml version="1.0" encoding="UTF-8" standalone="no"?>
<!DOCTYPE svg PUBLIC "-//W3C//DTD SVG 1.1//EN"
 "http://www.w3.org/Graphics/SVG/1.1/DTD/svg11.dtd">
<!-- Generated by graphviz version 2.43.0 (0)
 -->
<!-- Title: cie::gl::AbsPlot2&lt; Tag, Args &gt;::Plot2Scene Pages: 1 -->
<svg width="942pt" height="756pt"
 viewBox="0.00 0.00 941.50 756.00" xmlns="http://www.w3.org/2000/svg" xmlns:xlink="http://www.w3.org/1999/xlink">
<g id="graph0" class="graph" transform="scale(1 1) rotate(0) translate(4 752)">
<title>cie::gl::AbsPlot2&lt; Tag, Args &gt;::Plot2Scene</title>
<polygon fill="white" stroke="transparent" points="-4,4 -4,-752 937.5,-752 937.5,4 -4,4"/>
<!-- Node1 -->
<g id="node1" class="node">
<title>Node1</title>
<g id="a_node1"><a xlink:title="Internal Scene class used by AbsPlot2.">
<polygon fill="#bfbfbf" stroke="black" points="423,-0.5 423,-101.5 558,-101.5 558,-0.5 423,-0.5"/>
<text text-anchor="start" x="431" y="-89.5" font-family="Helvetica,sans-Serif" font-size="10.00">cie::gl::AbsPlot2&lt;</text>
<text text-anchor="middle" x="490.5" y="-78.5" font-family="Helvetica,sans-Serif" font-size="10.00"> Tag, Args &gt;::Plot2Scene</text>
<polyline fill="none" stroke="black" points="423,-71.5 558,-71.5 "/>
<text text-anchor="middle" x="490.5" y="-59.5" font-family="Helvetica,sans-Serif" font-size="10.00"> </text>
<polyline fill="none" stroke="black" points="423,-52.5 558,-52.5 "/>
<text text-anchor="start" x="431" y="-40.5" font-family="Helvetica,sans-Serif" font-size="10.00">+ Plot2Scene()</text>
<text text-anchor="start" x="431" y="-29.5" font-family="Helvetica,sans-Serif" font-size="10.00">+ getCamera()</text>
<text text-anchor="start" x="431" y="-18.5" font-family="Helvetica,sans-Serif" font-size="10.00">+ setUpdateFlag()</text>
<text text-anchor="start" x="431" y="-7.5" font-family="Helvetica,sans-Serif" font-size="10.00">+ setDrawMode()</text>
</a>
</g>
</g>
<!-- Node2 -->
<g id="node2" class="node">
<title>Node2</title>
<g id="a_node2"><a xlink:href="classcie_1_1gl_1_1Scene.html" target="_top" xlink:title=" ">
<polygon fill="white" stroke="black" points="435,-139.5 435,-317.5 546,-317.5 546,-139.5 435,-139.5"/>
<text text-anchor="middle" x="490.5" y="-305.5" font-family="Helvetica,sans-Serif" font-size="10.00">cie::gl::Scene</text>
<polyline fill="none" stroke="black" points="435,-298.5 546,-298.5 "/>
<text text-anchor="middle" x="490.5" y="-286.5" font-family="Helvetica,sans-Serif" font-size="10.00"> </text>
<polyline fill="none" stroke="black" points="435,-279.5 546,-279.5 "/>
<text text-anchor="start" x="443" y="-267.5" font-family="Helvetica,sans-Serif" font-size="10.00">+ Scene()</text>
<text text-anchor="start" x="443" y="-256.5" font-family="Helvetica,sans-Serif" font-size="10.00">+ ~Scene()</text>
<text text-anchor="start" x="443" y="-245.5" font-family="Helvetica,sans-Serif" font-size="10.00">+ update()</text>
<text text-anchor="start" x="443" y="-234.5" font-family="Helvetica,sans-Serif" font-size="10.00">+ activate()</text>
<text text-anchor="start" x="443" y="-223.5" font-family="Helvetica,sans-Serif" font-size="10.00">+ isActive()</text>
<text text-anchor="start" x="443" y="-212.5" font-family="Helvetica,sans-Serif" font-size="10.00">+ makeCamera()</text>
<text text-anchor="start" x="443" y="-201.5" font-family="Helvetica,sans-Serif" font-size="10.00">+ addCamera()</text>
<text text-anchor="start" x="443" y="-190.5" font-family="Helvetica,sans-Serif" font-size="10.00">+ removeCamera()</text>
<text text-anchor="start" x="443" y="-179.5" font-family="Helvetica,sans-Serif" font-size="10.00">+ cameras()</text>
<text text-anchor="start" x="443" y="-168.5" font-family="Helvetica,sans-Serif" font-size="10.00">+ camera()</text>
<text text-anchor="start" x="443" y="-157.5" font-family="Helvetica,sans-Serif" font-size="10.00">and 15 more...</text>
<text text-anchor="start" x="443" y="-146.5" font-family="Helvetica,sans-Serif" font-size="10.00"># update_impl()</text>
</a>
</g>
</g>
<!-- Node2&#45;&gt;Node1 -->
<g id="edge1" class="edge">
<title>Node2&#45;&gt;Node1</title>
<path fill="none" stroke="midnightblue" d="M490.5,-129.46C490.5,-119.87 490.5,-110.45 490.5,-101.66"/>
<polygon fill="none" stroke="midnightblue" points="487,-129.49 490.5,-139.49 494,-129.49 487,-129.49"/>
</g>
<!-- Node3 -->
<g id="node3" class="node">
<title>Node3</title>
<g id="a_node3"><a target="_parent" xlink:href="../../../cieutils/docs/html/classcie_1_1utils_1_1Loggee.html" xlink:title=" ">
<polygon fill="white" stroke="black" points="16,-387.5 16,-543.5 115,-543.5 115,-387.5 16,-387.5"/>
<text text-anchor="middle" x="65.5" y="-531.5" font-family="Helvetica,sans-Serif" font-size="10.00">cie::utils::Loggee</text>
<polyline fill="none" stroke="black" points="16,-524.5 115,-524.5 "/>
<text text-anchor="middle" x="65.5" y="-512.5" font-family="Helvetica,sans-Serif" font-size="10.00"> </text>
<polyline fill="none" stroke="black" points="16,-505.5 115,-505.5 "/>
<text text-anchor="start" x="24" y="-493.5" font-family="Helvetica,sans-Serif" font-size="10.00">+ Loggee()</text>
<text text-anchor="start" x="24" y="-482.5" font-family="Helvetica,sans-Serif" font-size="10.00">+ ~Loggee()</text>
<text text-anchor="start" x="24" y="-471.5" font-family="Helvetica,sans-Serif" font-size="10.00">+ log()</text>
<text text-anchor="start" x="24" y="-460.5" font-family="Helvetica,sans-Serif" font-size="10.00">+ logID()</text>
<text text-anchor="start" x="24" y="-449.5" font-family="Helvetica,sans-Serif" font-size="10.00">+ tic()</text>
<text text-anchor="start" x="24" y="-438.5" font-family="Helvetica,sans-Serif" font-size="10.00">+ toc()</text>
<text text-anchor="start" x="24" y="-427.5" font-family="Helvetica,sans-Serif" font-size="10.00">+ toc()</text>
<text text-anchor="start" x="24" y="-416.5" font-family="Helvetica,sans-Serif" font-size="10.00">+ newBlock()</text>
<text text-anchor="start" x="24" y="-405.5" font-family="Helvetica,sans-Serif" font-size="10.00">+ separate()</text>
<text text-anchor="start" x="24" y="-394.5" font-family="Helvetica,sans-Serif" font-size="10.00"># logger()</text>
</a>
</g>
</g>
<!-- Node3&#45;&gt;Node2 -->
<g id="edge2" class="edge">
<title>Node3&#45;&gt;Node2</title>
<path fill="none" stroke="midnightblue" d="M122.71,-388.43C123.3,-387.94 123.9,-387.47 124.5,-387 220.85,-311.72 358.62,-265.31 434.69,-243.79"/>
<polygon fill="none" stroke="midnightblue" points="120.36,-385.84 115.16,-395.07 124.98,-391.09 120.36,-385.84"/>
</g>
<!-- Node4 -->
<g id="node4" class="node">
<title>Node4</title>
<g id="a_node4"><a target="_parent" xlink:href="../../../cieutils/docs/html/classcie_1_1utils_1_1NamedObject.html" xlink:title=" ">
<polygon fill="white" stroke="black" points="0,-591.5 0,-747.5 131,-747.5 131,-591.5 0,-591.5"/>
<text text-anchor="middle" x="65.5" y="-735.5" font-family="Helvetica,sans-Serif" font-size="10.00">cie::utils::NamedObject</text>
<polyline fill="none" stroke="black" points="0,-728.5 131,-728.5 "/>
<text text-anchor="middle" x="65.5" y="-716.5" font-family="Helvetica,sans-Serif" font-size="10.00"> </text>
<polyline fill="none" stroke="black" points="0,-709.5 131,-709.5 "/>
<text text-anchor="start" x="8" y="-697.5" font-family="Helvetica,sans-Serif" font-size="10.00">+ NamedObject()</text>
<text text-anchor="start" x="8" y="-686.5" font-family="Helvetica,sans-Serif" font-size="10.00">+ NamedObject()</text>
<text text-anchor="start" x="8" y="-675.5" font-family="Helvetica,sans-Serif" font-size="10.00">+ NamedObject()</text>
<text text-anchor="start" x="8" y="-664.5" font-family="Helvetica,sans-Serif" font-size="10.00">+ NamedObject()</text>
<text text-anchor="start" x="8" y="-653.5" font-family="Helvetica,sans-Serif" font-size="10.00">+ operator=()</text>
<text text-anchor="start" x="8" y="-642.5" font-family="Helvetica,sans-Serif" font-size="10.00">+ operator=()</text>
<text text-anchor="start" x="8" y="-631.5" font-family="Helvetica,sans-Serif" font-size="10.00">+ name()</text>
<text text-anchor="start" x="8" y="-620.5" font-family="Helvetica,sans-Serif" font-size="10.00">+ setName()</text>
<text text-anchor="start" x="8" y="-609.5" font-family="Helvetica,sans-Serif" font-size="10.00">+ setName()</text>
<text text-anchor="start" x="8" y="-598.5" font-family="Helvetica,sans-Serif" font-size="10.00">+ ~NamedObject()</text>
</a>
</g>
</g>
<!-- Node4&#45;&gt;Node3 -->
<g id="edge3" class="edge">
<title>Node4&#45;&gt;Node3</title>
<path fill="none" stroke="midnightblue" d="M65.5,-580.94C65.5,-568.54 65.5,-555.87 65.5,-543.69"/>
<polygon fill="none" stroke="midnightblue" points="62,-581.27 65.5,-591.27 69,-581.27 62,-581.27"/>
</g>
<!-- Node5 -->
<g id="node5" class="node">
<title>Node5</title>
<g id="a_node5"><a target="_parent" xlink:href="../../../cieutils/docs/html/classcie_1_1utils_1_1IDObject.html" xlink:title=" ">
<polygon fill="white" stroke="black" points="133.5,-393 133.5,-538 239.5,-538 239.5,-393 133.5,-393"/>
<text text-anchor="start" x="141.5" y="-526" font-family="Helvetica,sans-Serif" font-size="10.00">cie::utils::IDObject</text>
<text text-anchor="middle" x="186.5" y="-515" font-family="Helvetica,sans-Serif" font-size="10.00">&lt; class &gt;</text>
<polyline fill="none" stroke="black" points="133.5,-508 239.5,-508 "/>
<text text-anchor="middle" x="186.5" y="-496" font-family="Helvetica,sans-Serif" font-size="10.00"> </text>
<polyline fill="none" stroke="black" points="133.5,-489 239.5,-489 "/>
<text text-anchor="start" x="141.5" y="-477" font-family="Helvetica,sans-Serif" font-size="10.00">+ IDObject()</text>
<text text-anchor="start" x="141.5" y="-466" font-family="Helvetica,sans-Serif" font-size="10.00">+ IDObject()</text>
<text text-anchor="start" x="141.5" y="-455" font-family="Helvetica,sans-Serif" font-size="10.00">+ IDObject()</text>
<text text-anchor="start" x="141.5" y="-444" font-family="Helvetica,sans-Serif" font-size="10.00">+ IDObject()</text>
<text text-anchor="start" x="141.5" y="-433" font-family="Helvetica,sans-Serif" font-size="10.00">+ operator=()</text>
<text text-anchor="start" x="141.5" y="-422" font-family="Helvetica,sans-Serif" font-size="10.00">+ operator=()</text>
<text text-anchor="start" x="141.5" y="-411" font-family="Helvetica,sans-Serif" font-size="10.00">+ setID()</text>
<text text-anchor="start" x="141.5" y="-400" font-family="Helvetica,sans-Serif" font-size="10.00">+ getID()</text>
</a>
</g>
</g>
<!-- Node5&#45;&gt;Node2 -->
<g id="edge4" class="edge">
<title>Node5&#45;&gt;Node2</title>
<path fill="none" stroke="midnightblue" d="M239.96,-384.75C253.83,-367.4 269.65,-350.06 286.5,-336 331.29,-298.63 391.34,-269.25 434.68,-250.89"/>
<polygon fill="none" stroke="midnightblue" points="237.14,-382.67 233.73,-392.7 242.65,-386.99 237.14,-382.67"/>
</g>
<!-- Node6 -->
<g id="node6" class="node">
<title>Node6</title>
<g id="a_node6"><a xlink:title=" ">
<polygon fill="white" stroke="#bfbfbf" points="170,-641 170,-698 203,-698 203,-641 170,-641"/>
<text text-anchor="middle" x="186.5" y="-686" font-family="Helvetica,sans-Serif" font-size="10.00">TID</text>
<polyline fill="none" stroke="#bfbfbf" points="170,-679 203,-679 "/>
<text text-anchor="middle" x="186.5" y="-667" font-family="Helvetica,sans-Serif" font-size="10.00"> </text>
<polyline fill="none" stroke="#bfbfbf" points="170,-660 203,-660 "/>
<text text-anchor="middle" x="186.5" y="-648" font-family="Helvetica,sans-Serif" font-size="10.00"> </text>
</a>
</g>
</g>
<!-- Node6&#45;&gt;Node5 -->
<g id="edge5" class="edge">
<title>Node6&#45;&gt;Node5</title>
<path fill="none" stroke="#404040" d="M186.5,-640.84C186.5,-617.46 186.5,-582.71 186.5,-550.37"/>
<polygon fill="none" stroke="#404040" points="186.5,-550.12 182.5,-544.12 186.5,-538.12 190.5,-544.12 186.5,-550.12"/>
<text text-anchor="middle" x="199.5" y="-565" font-family="Helvetica,sans-Serif" font-size="10.00"> #_id</text>
</g>
<!-- Node7 -->
<g id="node7" class="node">
<title>Node7</title>
<g id="a_node7"><a xlink:title=" ">
<polygon fill="white" stroke="#bfbfbf" points="257.5,-437 257.5,-494 361.5,-494 361.5,-437 257.5,-437"/>
<text text-anchor="middle" x="309.5" y="-482" font-family="Helvetica,sans-Serif" font-size="10.00">list&lt; TexturePtr &gt;</text>
<polyline fill="none" stroke="#bfbfbf" points="257.5,-475 361.5,-475 "/>
<text text-anchor="middle" x="309.5" y="-463" font-family="Helvetica,sans-Serif" font-size="10.00"> </text>
<polyline fill="none" stroke="#bfbfbf" points="257.5,-456 361.5,-456 "/>
<text text-anchor="middle" x="309.5" y="-444" font-family="Helvetica,sans-Serif" font-size="10.00"> </text>
</a>
</g>
</g>
<!-- Node7&#45;&gt;Node2 -->
<g id="edge6" class="edge">
<title>Node7&#45;&gt;Node2</title>
<path fill="none" stroke="#404040" d="M299.36,-436.87C291.09,-409.35 283.46,-366.88 301.5,-336 327.61,-291.32 380.14,-263.92 423.2,-248.12"/>
<polygon fill="none" stroke="#404040" points="423.46,-248.04 427.8,-242.28 434.78,-244.07 430.44,-249.83 423.46,-248.04"/>
<text text-anchor="middle" x="330.5" y="-350" font-family="Helvetica,sans-Serif" font-size="10.00"> #_textures</text>
</g>
<!-- Node8 -->
<g id="node8" class="node">
<title>Node8</title>
<g id="a_node8"><a xlink:title=" ">
<polygon fill="white" stroke="#bfbfbf" points="414,-437 414,-494 499,-494 499,-437 414,-437"/>
<text text-anchor="middle" x="456.5" y="-482" font-family="Helvetica,sans-Serif" font-size="10.00">SharedPointer</text>
<polyline fill="none" stroke="#bfbfbf" points="414,-475 499,-475 "/>
<text text-anchor="middle" x="456.5" y="-463" font-family="Helvetica,sans-Serif" font-size="10.00"> </text>
<polyline fill="none" stroke="#bfbfbf" points="414,-456 499,-456 "/>
<text text-anchor="middle" x="456.5" y="-444" font-family="Helvetica,sans-Serif" font-size="10.00"> </text>
</a>
</g>
</g>
<!-- Node8&#45;&gt;Node2 -->
<g id="edge7" class="edge">
<title>Node8&#45;&gt;Node2</title>
<path fill="none" stroke="#404040" d="M416.61,-436.88C385.93,-411.95 351.44,-373.54 368.5,-336 380.56,-309.47 402.85,-286.96 425.12,-269.57"/>
<polygon fill="none" stroke="#404040" points="425.37,-269.38 427.77,-262.58 434.97,-262.19 432.57,-268.99 425.37,-269.38"/>
<text text-anchor="middle" x="418.5" y="-350" font-family="Helvetica,sans-Serif" font-size="10.00"> #_p_bufferManager</text>
</g>
<!-- Node8&#45;&gt;Node2 -->
<g id="edge10" class="edge">
<title>Node8&#45;&gt;Node2</title>
<path fill="none" stroke="#404040" d="M460.53,-436.62C464.38,-410.07 470.39,-368.48 476.03,-329.51"/>
<polygon fill="none" stroke="#404040" points="476.05,-329.4 472.95,-322.89 477.76,-317.52 480.86,-324.04 476.05,-329.4"/>
<text text-anchor="middle" x="528" y="-361" font-family="Helvetica,sans-Serif" font-size="10.00"> #_p_fragmentShader</text>
<text text-anchor="middle" x="528" y="-350" font-family="Helvetica,sans-Serif" font-size="10.00">#_p_geometryShader</text>
<text text-anchor="middle" x="528" y="-339" font-family="Helvetica,sans-Serif" font-size="10.00">#_p_vertexShader</text>
</g>
<!-- Node9 -->
<g id="node9" class="node">
<title>Node9</title>
<g id="a_node9"><a xlink:title=" ">
<polygon fill="white" stroke="#bfbfbf" points="555.5,-437 555.5,-494 675.5,-494 675.5,-437 555.5,-437"/>
<text text-anchor="middle" x="615.5" y="-482" font-family="Helvetica,sans-Serif" font-size="10.00">list&lt; GLUniformPtr &gt;</text>
<polyline fill="none" stroke="#bfbfbf" points="555.5,-475 675.5,-475 "/>
<text text-anchor="middle" x="615.5" y="-463" font-family="Helvetica,sans-Serif" font-size="10.00"> </text>
<polyline fill="none" stroke="#bfbfbf" points="555.5,-456 675.5,-456 "/>
<text text-anchor="middle" x="615.5" y="-444" font-family="Helvetica,sans-Serif" font-size="10.00"> </text>
</a>
</g>
</g>
<!-- Node9&#45;&gt;Node2 -->
<g id="edge8" class="edge">
<title>Node9&#45;&gt;Node2</title>
<path fill="none" stroke="#404040" d="M613.04,-436.8C609.74,-409.81 602.23,-368.23 585.5,-336 577.24,-320.1 566.07,-304.68 554.29,-290.75"/>
<polygon fill="none" stroke="#404040" points="553.97,-290.38 547.01,-288.5 546.07,-281.35 553.03,-283.23 553.97,-290.38"/>
<text text-anchor="middle" x="628" y="-350" font-family="Helvetica,sans-Serif" font-size="10.00"> #_uniforms</text>
</g>
<!-- Node10 -->
<g id="node10" class="node">
<title>Node10</title>
<g id="a_node10"><a xlink:title=" ">
<polygon fill="white" stroke="#bfbfbf" points="694,-437 694,-494 739,-494 739,-437 694,-437"/>
<text text-anchor="middle" x="716.5" y="-482" font-family="Helvetica,sans-Serif" font-size="10.00">size_t</text>
<polyline fill="none" stroke="#bfbfbf" points="694,-475 739,-475 "/>
<text text-anchor="middle" x="716.5" y="-463" font-family="Helvetica,sans-Serif" font-size="10.00"> </text>
<polyline fill="none" stroke="#bfbfbf" points="694,-456 739,-456 "/>
<text text-anchor="middle" x="716.5" y="-444" font-family="Helvetica,sans-Serif" font-size="10.00"> </text>
</a>
</g>
</g>
<!-- Node10&#45;&gt;Node2 -->
<g id="edge9" class="edge">
<title>Node10&#45;&gt;Node2</title>
<path fill="none" stroke="#404040" d="M710.29,-436.99C702.84,-408.99 688.03,-365.59 662.5,-336 633.93,-302.89 592.46,-276.79 557.4,-258.72"/>
<polygon fill="none" stroke="#404040" points="556.99,-258.51 549.83,-259.4 546.26,-253.13 553.42,-252.25 556.99,-258.51"/>
<text text-anchor="middle" x="727" y="-350" font-family="Helvetica,sans-Serif" font-size="10.00"> #_activeSceneID</text>
</g>
<!-- Node11 -->
<g id="node11" class="node">
<title>Node11</title>
<g id="a_node11"><a xlink:title=" ">
<polygon fill="white" stroke="#bfbfbf" points="761.5,-437 761.5,-494 867.5,-494 867.5,-437 761.5,-437"/>
<text text-anchor="middle" x="814.5" y="-482" font-family="Helvetica,sans-Serif" font-size="10.00">list&lt; CameraPtr &gt;</text>
<polyline fill="none" stroke="#bfbfbf" points="761.5,-475 867.5,-475 "/>
<text text-anchor="middle" x="814.5" y="-463" font-family="Helvetica,sans-Serif" font-size="10.00"> </text>
<polyline fill="none" stroke="#bfbfbf" points="761.5,-456 867.5,-456 "/>
<text text-anchor="middle" x="814.5" y="-444" font-family="Helvetica,sans-Serif" font-size="10.00"> </text>
</a>
</g>
</g>
<!-- Node11&#45;&gt;Node2 -->
<g id="edge11" class="edge">
<title>Node11&#45;&gt;Node2</title>
<path fill="none" stroke="#404040" d="M812.85,-436.91C809.72,-408.21 800.65,-363.69 774.5,-336 717.26,-275.4 622.22,-249.02 558.01,-237.72"/>
<polygon fill="none" stroke="#404040" points="557.84,-237.69 551.26,-240.65 546,-235.71 552.58,-232.76 557.84,-237.69"/>
<text text-anchor="middle" x="823" y="-350" font-family="Helvetica,sans-Serif" font-size="10.00"> #_cameras</text>
</g>
<!-- Node12 -->
<g id="node12" class="node">
<title>Node12</title>
<g id="a_node12"><a xlink:title=" ">
<polygon fill="white" stroke="#bfbfbf" points="885.5,-437 885.5,-494 933.5,-494 933.5,-437 885.5,-437"/>
<text text-anchor="middle" x="909.5" y="-482" font-family="Helvetica,sans-Serif" font-size="10.00">GLuint</text>
<polyline fill="none" stroke="#bfbfbf" points="885.5,-475 933.5,-475 "/>
<text text-anchor="middle" x="909.5" y="-463" font-family="Helvetica,sans-Serif" font-size="10.00"> </text>
<polyline fill="none" stroke="#bfbfbf" points="885.5,-456 933.5,-456 "/>
<text text-anchor="middle" x="909.5" y="-444" font-family="Helvetica,sans-Serif" font-size="10.00"> </text>
</a>
</g>
</g>
<!-- Node12&#45;&gt;Node2 -->
<g id="edge12" class="edge">
<title>Node12&#45;&gt;Node2</title>
<path fill="none" stroke="#404040" d="M905.3,-436.88C899.42,-407.74 885.95,-362.43 856.5,-336 772.93,-261.01 639.36,-238.64 558.78,-232.08"/>
<polygon fill="none" stroke="#404040" points="558.29,-232.04 552.01,-235.59 546.32,-231.16 552.6,-227.61 558.29,-232.04"/>
<text text-anchor="middle" x="904.5" y="-350" font-family="Helvetica,sans-Serif" font-size="10.00"> #_vaoID</text>
</g>
</g>
</svg>
