<?xml version="1.0" encoding="UTF-8" standalone="no"?>
<!DOCTYPE svg PUBLIC "-//W3C//DTD SVG 1.1//EN"
 "http://www.w3.org/Graphics/SVG/1.1/DTD/svg11.dtd">
<!-- Generated by graphviz version 2.43.0 (0)
 -->
<!-- Title: cie::gl::VertexArrayObject Pages: 1 -->
<svg width="264pt" height="530pt"
 viewBox="0.00 0.00 263.50 530.00" xmlns="http://www.w3.org/2000/svg" xmlns:xlink="http://www.w3.org/1999/xlink">
<g id="graph0" class="graph" transform="scale(1 1) rotate(0) translate(4 526)">
<title>cie::gl::VertexArrayObject</title>
<polygon fill="white" stroke="transparent" points="-4,4 -4,-526 259.5,-526 259.5,4 -4,4"/>
<!-- Node1 -->
<g id="node1" class="node">
<title>Node1</title>
<g id="a_node1"><a xlink:title=" ">
<polygon fill="#bfbfbf" stroke="black" points="46.5,-0.5 46.5,-123.5 187.5,-123.5 187.5,-0.5 46.5,-0.5"/>
<text text-anchor="middle" x="117" y="-111.5" font-family="Helvetica,sans-Serif" font-size="10.00">cie::gl::VertexArrayObject</text>
<polyline fill="none" stroke="black" points="46.5,-104.5 187.5,-104.5 "/>
<text text-anchor="middle" x="117" y="-92.5" font-family="Helvetica,sans-Serif" font-size="10.00"> </text>
<polyline fill="none" stroke="black" points="46.5,-85.5 187.5,-85.5 "/>
<text text-anchor="start" x="54.5" y="-73.5" font-family="Helvetica,sans-Serif" font-size="10.00">+ VertexArrayObject()</text>
<text text-anchor="start" x="54.5" y="-62.5" font-family="Helvetica,sans-Serif" font-size="10.00">+ VertexArrayObject()</text>
<text text-anchor="start" x="54.5" y="-51.5" font-family="Helvetica,sans-Serif" font-size="10.00">+ VertexArrayObject()</text>
<text text-anchor="start" x="54.5" y="-40.5" font-family="Helvetica,sans-Serif" font-size="10.00">+ VertexArrayObject()</text>
<text text-anchor="start" x="54.5" y="-29.5" font-family="Helvetica,sans-Serif" font-size="10.00">+ operator=()</text>
<text text-anchor="start" x="54.5" y="-18.5" font-family="Helvetica,sans-Serif" font-size="10.00">+ operator=()</text>
<text text-anchor="start" x="54.5" y="-7.5" font-family="Helvetica,sans-Serif" font-size="10.00">+ ~VertexArrayObject()</text>
</a>
</g>
</g>
<!-- Node2 -->
<g id="node2" class="node">
<title>Node2</title>
<g id="a_node2"><a target="_parent" xlink:href="../../../cieutils/docs/html/classcie_1_1utils_1_1IDObject.html" xlink:title=" ">
<polygon fill="white" stroke="black" points="4,-167 4,-312 110,-312 110,-167 4,-167"/>
<text text-anchor="start" x="12" y="-300" font-family="Helvetica,sans-Serif" font-size="10.00">cie::utils::IDObject</text>
<text text-anchor="middle" x="57" y="-289" font-family="Helvetica,sans-Serif" font-size="10.00">&lt; GLuint &gt;</text>
<polyline fill="none" stroke="black" points="4,-282 110,-282 "/>
<text text-anchor="start" x="12" y="-270" font-family="Helvetica,sans-Serif" font-size="10.00"># _id</text>
<polyline fill="none" stroke="black" points="4,-263 110,-263 "/>
<text text-anchor="start" x="12" y="-251" font-family="Helvetica,sans-Serif" font-size="10.00">+ IDObject()</text>
<text text-anchor="start" x="12" y="-240" font-family="Helvetica,sans-Serif" font-size="10.00">+ IDObject()</text>
<text text-anchor="start" x="12" y="-229" font-family="Helvetica,sans-Serif" font-size="10.00">+ IDObject()</text>
<text text-anchor="start" x="12" y="-218" font-family="Helvetica,sans-Serif" font-size="10.00">+ IDObject()</text>
<text text-anchor="start" x="12" y="-207" font-family="Helvetica,sans-Serif" font-size="10.00">+ operator=()</text>
<text text-anchor="start" x="12" y="-196" font-family="Helvetica,sans-Serif" font-size="10.00">+ operator=()</text>
<text text-anchor="start" x="12" y="-185" font-family="Helvetica,sans-Serif" font-size="10.00">+ setID()</text>
<text text-anchor="start" x="12" y="-174" font-family="Helvetica,sans-Serif" font-size="10.00">+ getID()</text>
</a>
</g>
</g>
<!-- Node2&#45;&gt;Node1 -->
<g id="edge1" class="edge">
<title>Node2&#45;&gt;Node1</title>
<path fill="none" stroke="midnightblue" d="M84.84,-157.06C88.68,-145.85 92.56,-134.5 96.23,-123.75"/>
<polygon fill="none" stroke="midnightblue" points="81.41,-156.27 81.49,-166.86 88.04,-158.53 81.41,-156.27"/>
</g>
<!-- Node3 -->
<g id="node3" class="node">
<title>Node3</title>
<g id="a_node3"><a target="_parent" xlink:href="../../../cieutils/docs/html/classcie_1_1utils_1_1IDObject.html" xlink:title=" ">
<polygon fill="white" stroke="black" points="0,-371 0,-516 106,-516 106,-371 0,-371"/>
<text text-anchor="start" x="8" y="-504" font-family="Helvetica,sans-Serif" font-size="10.00">cie::utils::IDObject</text>
<text text-anchor="middle" x="53" y="-493" font-family="Helvetica,sans-Serif" font-size="10.00">&lt; class &gt;</text>
<polyline fill="none" stroke="black" points="0,-486 106,-486 "/>
<text text-anchor="start" x="8" y="-474" font-family="Helvetica,sans-Serif" font-size="10.00"># _id</text>
<polyline fill="none" stroke="black" points="0,-467 106,-467 "/>
<text text-anchor="start" x="8" y="-455" font-family="Helvetica,sans-Serif" font-size="10.00">+ IDObject()</text>
<text text-anchor="start" x="8" y="-444" font-family="Helvetica,sans-Serif" font-size="10.00">+ IDObject()</text>
<text text-anchor="start" x="8" y="-433" font-family="Helvetica,sans-Serif" font-size="10.00">+ IDObject()</text>
<text text-anchor="start" x="8" y="-422" font-family="Helvetica,sans-Serif" font-size="10.00">+ IDObject()</text>
<text text-anchor="start" x="8" y="-411" font-family="Helvetica,sans-Serif" font-size="10.00">+ operator=()</text>
<text text-anchor="start" x="8" y="-400" font-family="Helvetica,sans-Serif" font-size="10.00">+ operator=()</text>
<text text-anchor="start" x="8" y="-389" font-family="Helvetica,sans-Serif" font-size="10.00">+ setID()</text>
<text text-anchor="start" x="8" y="-378" font-family="Helvetica,sans-Serif" font-size="10.00">+ getID()</text>
</a>
</g>
</g>
<!-- Node3&#45;&gt;Node2 -->
<g id="edge2" class="edge">
<title>Node3&#45;&gt;Node2</title>
<path fill="none" stroke="orange" d="M54.62,-360.59C54.94,-344.58 55.27,-327.9 55.58,-312.25"/>
<polygon fill="orange" stroke="orange" points="51.11,-360.93 54.42,-371 58.11,-361.07 51.11,-360.93"/>
<text text-anchor="middle" x="84" y="-339" font-family="Helvetica,sans-Serif" font-size="10.00"> &lt; GLuint &gt;</text>
</g>
<!-- Node4 -->
<g id="node4" class="node">
<title>Node4</title>
<g id="a_node4"><a target="_parent" xlink:href="../../../cieutils/docs/html/classcie_1_1utils_1_1Loggee.html" xlink:title=" ">
<polygon fill="white" stroke="black" points="136.5,-161.5 136.5,-317.5 235.5,-317.5 235.5,-161.5 136.5,-161.5"/>
<text text-anchor="middle" x="186" y="-305.5" font-family="Helvetica,sans-Serif" font-size="10.00">cie::utils::Loggee</text>
<polyline fill="none" stroke="black" points="136.5,-298.5 235.5,-298.5 "/>
<text text-anchor="middle" x="186" y="-286.5" font-family="Helvetica,sans-Serif" font-size="10.00"> </text>
<polyline fill="none" stroke="black" points="136.5,-279.5 235.5,-279.5 "/>
<text text-anchor="start" x="144.5" y="-267.5" font-family="Helvetica,sans-Serif" font-size="10.00">+ Loggee()</text>
<text text-anchor="start" x="144.5" y="-256.5" font-family="Helvetica,sans-Serif" font-size="10.00">+ ~Loggee()</text>
<text text-anchor="start" x="144.5" y="-245.5" font-family="Helvetica,sans-Serif" font-size="10.00">+ log()</text>
<text text-anchor="start" x="144.5" y="-234.5" font-family="Helvetica,sans-Serif" font-size="10.00">+ logID()</text>
<text text-anchor="start" x="144.5" y="-223.5" font-family="Helvetica,sans-Serif" font-size="10.00">+ tic()</text>
<text text-anchor="start" x="144.5" y="-212.5" font-family="Helvetica,sans-Serif" font-size="10.00">+ toc()</text>
<text text-anchor="start" x="144.5" y="-201.5" font-family="Helvetica,sans-Serif" font-size="10.00">+ toc()</text>
<text text-anchor="start" x="144.5" y="-190.5" font-family="Helvetica,sans-Serif" font-size="10.00">+ newBlock()</text>
<text text-anchor="start" x="144.5" y="-179.5" font-family="Helvetica,sans-Serif" font-size="10.00">+ separate()</text>
<text text-anchor="start" x="144.5" y="-168.5" font-family="Helvetica,sans-Serif" font-size="10.00"># logger()</text>
</a>
</g>
</g>
<!-- Node4&#45;&gt;Node1 -->
<g id="edge3" class="edge">
<title>Node4&#45;&gt;Node1</title>
<path fill="none" stroke="midnightblue" d="M151.91,-151.78C148.17,-142.27 144.42,-132.75 140.85,-123.65"/>
<polygon fill="none" stroke="midnightblue" points="148.72,-153.24 155.64,-161.27 155.23,-150.68 148.72,-153.24"/>
</g>
<!-- Node5 -->
<g id="node5" class="node">
<title>Node5</title>
<g id="a_node5"><a target="_parent" xlink:href="../../../cieutils/docs/html/classcie_1_1utils_1_1NamedObject.html" xlink:title=" ">
<polygon fill="white" stroke="black" points="124.5,-365.5 124.5,-521.5 255.5,-521.5 255.5,-365.5 124.5,-365.5"/>
<text text-anchor="middle" x="190" y="-509.5" font-family="Helvetica,sans-Serif" font-size="10.00">cie::utils::NamedObject</text>
<polyline fill="none" stroke="black" points="124.5,-502.5 255.5,-502.5 "/>
<text text-anchor="middle" x="190" y="-490.5" font-family="Helvetica,sans-Serif" font-size="10.00"> </text>
<polyline fill="none" stroke="black" points="124.5,-483.5 255.5,-483.5 "/>
<text text-anchor="start" x="132.5" y="-471.5" font-family="Helvetica,sans-Serif" font-size="10.00">+ NamedObject()</text>
<text text-anchor="start" x="132.5" y="-460.5" font-family="Helvetica,sans-Serif" font-size="10.00">+ NamedObject()</text>
<text text-anchor="start" x="132.5" y="-449.5" font-family="Helvetica,sans-Serif" font-size="10.00">+ NamedObject()</text>
<text text-anchor="start" x="132.5" y="-438.5" font-family="Helvetica,sans-Serif" font-size="10.00">+ NamedObject()</text>
<text text-anchor="start" x="132.5" y="-427.5" font-family="Helvetica,sans-Serif" font-size="10.00">+ operator=()</text>
<text text-anchor="start" x="132.5" y="-416.5" font-family="Helvetica,sans-Serif" font-size="10.00">+ operator=()</text>
<text text-anchor="start" x="132.5" y="-405.5" font-family="Helvetica,sans-Serif" font-size="10.00">+ name()</text>
<text text-anchor="start" x="132.5" y="-394.5" font-family="Helvetica,sans-Serif" font-size="10.00">+ setName()</text>
<text text-anchor="start" x="132.5" y="-383.5" font-family="Helvetica,sans-Serif" font-size="10.00">+ setName()</text>
<text text-anchor="start" x="132.5" y="-372.5" font-family="Helvetica,sans-Serif" font-size="10.00">+ ~NamedObject()</text>
</a>
</g>
</g>
<!-- Node5&#45;&gt;Node4 -->
<g id="edge4" class="edge">
<title>Node5&#45;&gt;Node4</title>
<path fill="none" stroke="midnightblue" d="M188.27,-354.94C188.02,-342.54 187.77,-329.87 187.53,-317.69"/>
<polygon fill="none" stroke="midnightblue" points="184.77,-355.34 188.47,-365.27 191.77,-355.2 184.77,-355.34"/>
</g>
</g>
</svg>
