<?xml version="1.0" encoding="UTF-8" standalone="no"?>
<!DOCTYPE svg PUBLIC "-//W3C//DTD SVG 1.1//EN"
 "http://www.w3.org/Graphics/SVG/1.1/DTD/svg11.dtd">
<!-- Generated by graphviz version 2.43.0 (0)
 -->
<!-- Title: cie::gl::GenericPartScene Pages: 1 -->
<!--zoomable 905 -->
<svg id="main" version="1.1" xmlns="http://www.w3.org/2000/svg" xmlns:xlink="http://www.w3.org/1999/xlink" xml:space="preserve" onload="init(evt)">
<style type="text/css"><![CDATA[
.edge:hover path { stroke: red; }
.edge:hover polygon { stroke: red; fill: red; }
]]></style>
<script type="text/javascript"><![CDATA[
var edges = document.getElementsByTagName('g');
if (edges && edges.length) {
  for (var i=0;i<edges.length;i++) {
    if (edges[i].id.substr(0,4)=='edge') {
      edges[i].setAttribute('class','edge');
    }
  }
}
]]></script>
        <defs>
                <circle id="rim" cx="0" cy="0" r="7"/>
                <circle id="rim2" cx="0" cy="0" r="3.5"/>
                <g id="zoomPlus">
                        <use xlink:href="#rim" fill="#404040">
                                <set attributeName="fill" to="#808080" begin="zoomplus.mouseover" end="zoomplus.mouseout"/>
                        </use>
                        <path d="M-4,0h8M0,-4v8" fill="none" stroke="white" stroke-width="1.5" pointer-events="none"/>
                </g>
                <g id="zoomMin">
                        <use xlink:href="#rim" fill="#404040">
                                <set attributeName="fill" to="#808080" begin="zoomminus.mouseover" end="zoomminus.mouseout"/>
                        </use>
                        <path d="M-4,0h8" fill="none" stroke="white" stroke-width="1.5" pointer-events="none"/>
                </g>
                <g id="dirArrow">
                        <path fill="none" stroke="white" stroke-width="1.5" d="M0,-3.0v7 M-2.5,-0.5L0,-3.0L2.5,-0.5"/>
                </g>
               <g id="resetDef">
                       <use xlink:href="#rim2" fill="#404040">
                               <set attributeName="fill" to="#808080" begin="reset.mouseover" end="reset.mouseout"/>
                       </use>
               </g>
        </defs>

<script type="text/javascript">
var viewWidth = 939;
var viewHeight = 905;
var sectionId = 'dynsection-1';
</script>
<script xlink:href="svgpan.js"/>
<svg id="graph" class="graph">
<g id="viewport">
<title>cie::gl::GenericPartScene</title>
<polygon fill="white" stroke="transparent" points="-4,4 -4,-901 934.5,-901 934.5,4 -4,4"/>
<!-- Node1 -->
<g id="node1" class="node">
<title>Node1</title>
<g id="a_node1"><a xlink:title="Convenience Scene class.">
<polygon fill="#bfbfbf" stroke="black" points="0,-0.5 0,-90.5 137,-90.5 137,-0.5 0,-0.5"/>
<text text-anchor="middle" x="68.5" y="-78.5" font-family="Helvetica,sans-Serif" font-size="10.00">cie::gl::GenericPartScene</text>
<polyline fill="none" stroke="black" points="0,-71.5 137,-71.5 "/>
<text text-anchor="middle" x="68.5" y="-59.5" font-family="Helvetica,sans-Serif" font-size="10.00"> </text>
<polyline fill="none" stroke="black" points="0,-52.5 137,-52.5 "/>
<text text-anchor="start" x="8" y="-40.5" font-family="Helvetica,sans-Serif" font-size="10.00">+ GenericPartScene()</text>
<text text-anchor="start" x="8" y="-29.5" font-family="Helvetica,sans-Serif" font-size="10.00">+ GenericPartScene()</text>
<text text-anchor="start" x="8" y="-18.5" font-family="Helvetica,sans-Serif" font-size="10.00">+ setDrawMode()</text>
<text text-anchor="start" x="8" y="-7.5" font-family="Helvetica,sans-Serif" font-size="10.00"># update_impl()</text>
</a>
</g>
</g>
<!-- Node2 -->
<g id="node2" class="node">
<title>Node2</title>
<g id="a_node2"><a xlink:href="classcie_1_1gl_1_1PartScene.html" target="_top" xlink:title=" ">
<polygon fill="white" stroke="black" points="305.5,-128.5 305.5,-240.5 405.5,-240.5 405.5,-128.5 305.5,-128.5"/>
<text text-anchor="middle" x="355.5" y="-228.5" font-family="Helvetica,sans-Serif" font-size="10.00">cie::gl::PartScene</text>
<polyline fill="none" stroke="black" points="305.5,-221.5 405.5,-221.5 "/>
<text text-anchor="middle" x="355.5" y="-209.5" font-family="Helvetica,sans-Serif" font-size="10.00"> </text>
<polyline fill="none" stroke="black" points="305.5,-202.5 405.5,-202.5 "/>
<text text-anchor="start" x="313.5" y="-190.5" font-family="Helvetica,sans-Serif" font-size="10.00">+ PartScene()</text>
<text text-anchor="start" x="313.5" y="-179.5" font-family="Helvetica,sans-Serif" font-size="10.00">+ addPart()</text>
<text text-anchor="start" x="313.5" y="-168.5" font-family="Helvetica,sans-Serif" font-size="10.00">+ removePart()</text>
<text text-anchor="start" x="313.5" y="-157.5" font-family="Helvetica,sans-Serif" font-size="10.00">+ parts()</text>
<text text-anchor="start" x="313.5" y="-146.5" font-family="Helvetica,sans-Serif" font-size="10.00">+ updateParts()</text>
<text text-anchor="start" x="313.5" y="-135.5" font-family="Helvetica,sans-Serif" font-size="10.00">+ update_impl()</text>
</a>
</g>
</g>
<!-- Node2&#45;&gt;Node1 -->
<g id="edge1" class="edge">
<title>Node2&#45;&gt;Node1</title>
<path fill="none" stroke="midnightblue" d="M295.89,-155.04C249.64,-132.97 185.49,-102.34 137.11,-79.25"/>
<polygon fill="none" stroke="midnightblue" points="294.65,-158.33 305.18,-159.48 297.66,-152.01 294.65,-158.33"/>
</g>
<!-- Node3 -->
<g id="node3" class="node">
<title>Node3</title>
<g id="a_node3"><a xlink:href="classcie_1_1gl_1_1Scene.html" target="_top" xlink:title=" ">
<polygon fill="white" stroke="black" points="365,-288.5 365,-466.5 476,-466.5 476,-288.5 365,-288.5"/>
<text text-anchor="middle" x="420.5" y="-454.5" font-family="Helvetica,sans-Serif" font-size="10.00">cie::gl::Scene</text>
<polyline fill="none" stroke="black" points="365,-447.5 476,-447.5 "/>
<text text-anchor="middle" x="420.5" y="-435.5" font-family="Helvetica,sans-Serif" font-size="10.00"> </text>
<polyline fill="none" stroke="black" points="365,-428.5 476,-428.5 "/>
<text text-anchor="start" x="373" y="-416.5" font-family="Helvetica,sans-Serif" font-size="10.00">+ Scene()</text>
<text text-anchor="start" x="373" y="-405.5" font-family="Helvetica,sans-Serif" font-size="10.00">+ ~Scene()</text>
<text text-anchor="start" x="373" y="-394.5" font-family="Helvetica,sans-Serif" font-size="10.00">+ update()</text>
<text text-anchor="start" x="373" y="-383.5" font-family="Helvetica,sans-Serif" font-size="10.00">+ activate()</text>
<text text-anchor="start" x="373" y="-372.5" font-family="Helvetica,sans-Serif" font-size="10.00">+ isActive()</text>
<text text-anchor="start" x="373" y="-361.5" font-family="Helvetica,sans-Serif" font-size="10.00">+ makeCamera()</text>
<text text-anchor="start" x="373" y="-350.5" font-family="Helvetica,sans-Serif" font-size="10.00">+ addCamera()</text>
<text text-anchor="start" x="373" y="-339.5" font-family="Helvetica,sans-Serif" font-size="10.00">+ removeCamera()</text>
<text text-anchor="start" x="373" y="-328.5" font-family="Helvetica,sans-Serif" font-size="10.00">+ cameras()</text>
<text text-anchor="start" x="373" y="-317.5" font-family="Helvetica,sans-Serif" font-size="10.00">+ camera()</text>
<text text-anchor="start" x="373" y="-306.5" font-family="Helvetica,sans-Serif" font-size="10.00">and 15 more...</text>
<text text-anchor="start" x="373" y="-295.5" font-family="Helvetica,sans-Serif" font-size="10.00"># update_impl()</text>
</a>
</g>
</g>
<!-- Node3&#45;&gt;Node2 -->
<g id="edge2" class="edge">
<title>Node3&#45;&gt;Node2</title>
<path fill="none" stroke="midnightblue" d="M412.55,-278.53C410.87,-271.83 408.87,-265.26 406.5,-259 404.13,-252.76 401.12,-246.54 397.75,-240.51"/>
<polygon fill="none" stroke="midnightblue" points="409.16,-279.43 414.78,-288.42 415.99,-277.89 409.16,-279.43"/>
</g>
<!-- Node4 -->
<g id="node4" class="node">
<title>Node4</title>
<g id="a_node4"><a target="_parent" xlink:href="../../../cieutils/docs/html/classcie_1_1utils_1_1Loggee.html" xlink:title=" ">
<polygon fill="white" stroke="black" points="707,-536.5 707,-692.5 806,-692.5 806,-536.5 707,-536.5"/>
<text text-anchor="middle" x="756.5" y="-680.5" font-family="Helvetica,sans-Serif" font-size="10.00">cie::utils::Loggee</text>
<polyline fill="none" stroke="black" points="707,-673.5 806,-673.5 "/>
<text text-anchor="middle" x="756.5" y="-661.5" font-family="Helvetica,sans-Serif" font-size="10.00"> </text>
<polyline fill="none" stroke="black" points="707,-654.5 806,-654.5 "/>
<text text-anchor="start" x="715" y="-642.5" font-family="Helvetica,sans-Serif" font-size="10.00">+ Loggee()</text>
<text text-anchor="start" x="715" y="-631.5" font-family="Helvetica,sans-Serif" font-size="10.00">+ ~Loggee()</text>
<text text-anchor="start" x="715" y="-620.5" font-family="Helvetica,sans-Serif" font-size="10.00">+ log()</text>
<text text-anchor="start" x="715" y="-609.5" font-family="Helvetica,sans-Serif" font-size="10.00">+ logID()</text>
<text text-anchor="start" x="715" y="-598.5" font-family="Helvetica,sans-Serif" font-size="10.00">+ tic()</text>
<text text-anchor="start" x="715" y="-587.5" font-family="Helvetica,sans-Serif" font-size="10.00">+ toc()</text>
<text text-anchor="start" x="715" y="-576.5" font-family="Helvetica,sans-Serif" font-size="10.00">+ toc()</text>
<text text-anchor="start" x="715" y="-565.5" font-family="Helvetica,sans-Serif" font-size="10.00">+ newBlock()</text>
<text text-anchor="start" x="715" y="-554.5" font-family="Helvetica,sans-Serif" font-size="10.00">+ separate()</text>
<text text-anchor="start" x="715" y="-543.5" font-family="Helvetica,sans-Serif" font-size="10.00"># logger()</text>
</a>
</g>
</g>
<!-- Node4&#45;&gt;Node3 -->
<g id="edge3" class="edge">
<title>Node4&#45;&gt;Node3</title>
<path fill="none" stroke="midnightblue" d="M725.71,-527.56C715.96,-510.97 703.43,-495.51 687.5,-485 612.28,-435.35 564.03,-511.24 485.5,-467 482.34,-465.22 479.3,-463.22 476.37,-461.04"/>
<polygon fill="none" stroke="midnightblue" points="722.65,-529.26 730.56,-536.31 728.77,-525.87 722.65,-529.26"/>
</g>
<!-- Node5 -->
<g id="node5" class="node">
<title>Node5</title>
<g id="a_node5"><a target="_parent" xlink:href="../../../cieutils/docs/html/classcie_1_1utils_1_1NamedObject.html" xlink:title=" ">
<polygon fill="white" stroke="black" points="691,-740.5 691,-896.5 822,-896.5 822,-740.5 691,-740.5"/>
<text text-anchor="middle" x="756.5" y="-884.5" font-family="Helvetica,sans-Serif" font-size="10.00">cie::utils::NamedObject</text>
<polyline fill="none" stroke="black" points="691,-877.5 822,-877.5 "/>
<text text-anchor="middle" x="756.5" y="-865.5" font-family="Helvetica,sans-Serif" font-size="10.00"> </text>
<polyline fill="none" stroke="black" points="691,-858.5 822,-858.5 "/>
<text text-anchor="start" x="699" y="-846.5" font-family="Helvetica,sans-Serif" font-size="10.00">+ NamedObject()</text>
<text text-anchor="start" x="699" y="-835.5" font-family="Helvetica,sans-Serif" font-size="10.00">+ NamedObject()</text>
<text text-anchor="start" x="699" y="-824.5" font-family="Helvetica,sans-Serif" font-size="10.00">+ NamedObject()</text>
<text text-anchor="start" x="699" y="-813.5" font-family="Helvetica,sans-Serif" font-size="10.00">+ NamedObject()</text>
<text text-anchor="start" x="699" y="-802.5" font-family="Helvetica,sans-Serif" font-size="10.00">+ operator=()</text>
<text text-anchor="start" x="699" y="-791.5" font-family="Helvetica,sans-Serif" font-size="10.00">+ operator=()</text>
<text text-anchor="start" x="699" y="-780.5" font-family="Helvetica,sans-Serif" font-size="10.00">+ name()</text>
<text text-anchor="start" x="699" y="-769.5" font-family="Helvetica,sans-Serif" font-size="10.00">+ setName()</text>
<text text-anchor="start" x="699" y="-758.5" font-family="Helvetica,sans-Serif" font-size="10.00">+ setName()</text>
<text text-anchor="start" x="699" y="-747.5" font-family="Helvetica,sans-Serif" font-size="10.00">+ ~NamedObject()</text>
</a>
</g>
</g>
<!-- Node5&#45;&gt;Node4 -->
<g id="edge4" class="edge">
<title>Node5&#45;&gt;Node4</title>
<path fill="none" stroke="midnightblue" d="M756.5,-729.94C756.5,-717.54 756.5,-704.87 756.5,-692.69"/>
<polygon fill="none" stroke="midnightblue" points="753,-730.27 756.5,-740.27 760,-730.27 753,-730.27"/>
</g>
<!-- Node6 -->
<g id="node6" class="node">
<title>Node6</title>
<g id="a_node6"><a target="_parent" xlink:href="../../../cieutils/docs/html/classcie_1_1utils_1_1IDObject.html" xlink:title=" ">
<polygon fill="white" stroke="black" points="824.5,-542 824.5,-687 930.5,-687 930.5,-542 824.5,-542"/>
<text text-anchor="start" x="832.5" y="-675" font-family="Helvetica,sans-Serif" font-size="10.00">cie::utils::IDObject</text>
<text text-anchor="middle" x="877.5" y="-664" font-family="Helvetica,sans-Serif" font-size="10.00">&lt; class &gt;</text>
<polyline fill="none" stroke="black" points="824.5,-657 930.5,-657 "/>
<text text-anchor="middle" x="877.5" y="-645" font-family="Helvetica,sans-Serif" font-size="10.00"> </text>
<polyline fill="none" stroke="black" points="824.5,-638 930.5,-638 "/>
<text text-anchor="start" x="832.5" y="-626" font-family="Helvetica,sans-Serif" font-size="10.00">+ IDObject()</text>
<text text-anchor="start" x="832.5" y="-615" font-family="Helvetica,sans-Serif" font-size="10.00">+ IDObject()</text>
<text text-anchor="start" x="832.5" y="-604" font-family="Helvetica,sans-Serif" font-size="10.00">+ IDObject()</text>
<text text-anchor="start" x="832.5" y="-593" font-family="Helvetica,sans-Serif" font-size="10.00">+ IDObject()</text>
<text text-anchor="start" x="832.5" y="-582" font-family="Helvetica,sans-Serif" font-size="10.00">+ operator=()</text>
<text text-anchor="start" x="832.5" y="-571" font-family="Helvetica,sans-Serif" font-size="10.00">+ operator=()</text>
<text text-anchor="start" x="832.5" y="-560" font-family="Helvetica,sans-Serif" font-size="10.00">+ setID()</text>
<text text-anchor="start" x="832.5" y="-549" font-family="Helvetica,sans-Serif" font-size="10.00">+ getID()</text>
</a>
</g>
</g>
<!-- Node6&#45;&gt;Node3 -->
<g id="edge5" class="edge">
<title>Node6&#45;&gt;Node3</title>
<path fill="none" stroke="midnightblue" d="M816.6,-536.91C816.23,-536.6 815.87,-536.3 815.5,-536 777.2,-504.65 764.11,-498.52 716.5,-485 666.97,-470.93 530.5,-492.03 485.5,-467 482.33,-465.24 479.28,-463.25 476.34,-461.08"/>
<polygon fill="none" stroke="midnightblue" points="814.35,-539.6 824.15,-543.64 819.01,-534.37 814.35,-539.6"/>
</g>
<!-- Node7 -->
<g id="node7" class="node">
<title>Node7</title>
<g id="a_node7"><a xlink:title=" ">
<polygon fill="white" stroke="#bfbfbf" points="861,-790 861,-847 894,-847 894,-790 861,-790"/>
<text text-anchor="middle" x="877.5" y="-835" font-family="Helvetica,sans-Serif" font-size="10.00">TID</text>
<polyline fill="none" stroke="#bfbfbf" points="861,-828 894,-828 "/>
<text text-anchor="middle" x="877.5" y="-816" font-family="Helvetica,sans-Serif" font-size="10.00"> </text>
<polyline fill="none" stroke="#bfbfbf" points="861,-809 894,-809 "/>
<text text-anchor="middle" x="877.5" y="-797" font-family="Helvetica,sans-Serif" font-size="10.00"> </text>
</a>
</g>
</g>
<!-- Node7&#45;&gt;Node6 -->
<g id="edge6" class="edge">
<title>Node7&#45;&gt;Node6</title>
<path fill="none" stroke="#404040" d="M877.5,-789.84C877.5,-766.46 877.5,-731.71 877.5,-699.37"/>
<polygon fill="none" stroke="#404040" points="877.5,-699.12 873.5,-693.12 877.5,-687.12 881.5,-693.12 877.5,-699.12"/>
<text text-anchor="middle" x="890.5" y="-714" font-family="Helvetica,sans-Serif" font-size="10.00"> #_id</text>
</g>
<!-- Node8 -->
<g id="node8" class="node">
<title>Node8</title>
<g id="a_node8"><a xlink:title=" ">
<polygon fill="white" stroke="#bfbfbf" points="99.5,-586 99.5,-643 203.5,-643 203.5,-586 99.5,-586"/>
<text text-anchor="middle" x="151.5" y="-631" font-family="Helvetica,sans-Serif" font-size="10.00">list&lt; TexturePtr &gt;</text>
<polyline fill="none" stroke="#bfbfbf" points="99.5,-624 203.5,-624 "/>
<text text-anchor="middle" x="151.5" y="-612" font-family="Helvetica,sans-Serif" font-size="10.00"> </text>
<polyline fill="none" stroke="#bfbfbf" points="99.5,-605 203.5,-605 "/>
<text text-anchor="middle" x="151.5" y="-593" font-family="Helvetica,sans-Serif" font-size="10.00"> </text>
</a>
</g>
</g>
<!-- Node8&#45;&gt;Node3 -->
<g id="edge7" class="edge">
<title>Node8&#45;&gt;Node3</title>
<path fill="none" stroke="#404040" d="M144.83,-585.85C139.6,-556.67 136.92,-511.35 162.5,-485 186.81,-459.96 286.56,-481.06 318.5,-467 331.41,-461.32 343.88,-453.42 355.41,-444.66"/>
<polygon fill="none" stroke="#404040" points="355.48,-444.6 357.68,-437.74 364.87,-437.13 362.66,-443.99 355.48,-444.6"/>
<text text-anchor="middle" x="191.5" y="-499" font-family="Helvetica,sans-Serif" font-size="10.00"> #_textures</text>
</g>
<!-- Node9 -->
<g id="node9" class="node">
<title>Node9</title>
<g id="a_node9"><a xlink:title=" ">
<polygon fill="white" stroke="#bfbfbf" points="249,-586 249,-643 334,-643 334,-586 249,-586"/>
<text text-anchor="middle" x="291.5" y="-631" font-family="Helvetica,sans-Serif" font-size="10.00">SharedPointer</text>
<polyline fill="none" stroke="#bfbfbf" points="249,-624 334,-624 "/>
<text text-anchor="middle" x="291.5" y="-612" font-family="Helvetica,sans-Serif" font-size="10.00"> </text>
<polyline fill="none" stroke="#bfbfbf" points="249,-605 334,-605 "/>
<text text-anchor="middle" x="291.5" y="-593" font-family="Helvetica,sans-Serif" font-size="10.00"> </text>
</a>
</g>
</g>
<!-- Node9&#45;&gt;Node3 -->
<g id="edge8" class="edge">
<title>Node9&#45;&gt;Node3</title>
<path fill="none" stroke="#404040" d="M262.98,-585.94C237.84,-558.28 208.77,-515.52 233.5,-485 257.81,-455 283.93,-484.2 318.5,-467 331.29,-460.64 343.77,-452.29 355.37,-443.26"/>
<polygon fill="none" stroke="#404040" points="355.56,-443.1 357.7,-436.22 364.88,-435.54 362.74,-442.43 355.56,-443.1"/>
<text text-anchor="middle" x="283.5" y="-499" font-family="Helvetica,sans-Serif" font-size="10.00"> #_p_bufferManager</text>
</g>
<!-- Node9&#45;&gt;Node3 -->
<g id="edge11" class="edge">
<title>Node9&#45;&gt;Node3</title>
<path fill="none" stroke="#404040" d="M303.39,-585.93C315.03,-559.56 333.72,-518.92 352.5,-485 354.53,-481.34 356.63,-477.63 358.79,-473.91"/>
<polygon fill="none" stroke="#404040" points="358.9,-473.72 358.49,-466.52 364.98,-463.38 365.39,-470.58 358.9,-473.72"/>
<text text-anchor="middle" x="406" y="-510" font-family="Helvetica,sans-Serif" font-size="10.00"> #_p_fragmentShader</text>
<text text-anchor="middle" x="406" y="-499" font-family="Helvetica,sans-Serif" font-size="10.00">#_p_geometryShader</text>
<text text-anchor="middle" x="406" y="-488" font-family="Helvetica,sans-Serif" font-size="10.00">#_p_vertexShader</text>
</g>
<!-- Node10 -->
<g id="node10" class="node">
<title>Node10</title>
<g id="a_node10"><a xlink:title=" ">
<polygon fill="white" stroke="#bfbfbf" points="378.5,-586 378.5,-643 498.5,-643 498.5,-586 378.5,-586"/>
<text text-anchor="middle" x="438.5" y="-631" font-family="Helvetica,sans-Serif" font-size="10.00">list&lt; GLUniformPtr &gt;</text>
<polyline fill="none" stroke="#bfbfbf" points="378.5,-624 498.5,-624 "/>
<text text-anchor="middle" x="438.5" y="-612" font-family="Helvetica,sans-Serif" font-size="10.00"> </text>
<polyline fill="none" stroke="#bfbfbf" points="378.5,-605 498.5,-605 "/>
<text text-anchor="middle" x="438.5" y="-593" font-family="Helvetica,sans-Serif" font-size="10.00"> </text>
</a>
</g>
</g>
<!-- Node10&#45;&gt;Node3 -->
<g id="edge9" class="edge">
<title>Node10&#45;&gt;Node3</title>
<path fill="none" stroke="#404040" d="M450.06,-585.93C459.5,-559.91 470.26,-519.8 463.5,-485 463.08,-482.82 462.61,-480.63 462.1,-478.43"/>
<polygon fill="none" stroke="#404040" points="462.05,-478.24 456.67,-473.45 459.03,-466.63 464.41,-471.43 462.05,-478.24"/>
<text text-anchor="middle" x="496" y="-499" font-family="Helvetica,sans-Serif" font-size="10.00"> #_uniforms</text>
</g>
<!-- Node11 -->
<g id="node11" class="node">
<title>Node11</title>
<g id="a_node11"><a xlink:title=" ">
<polygon fill="white" stroke="#bfbfbf" points="3,-586 3,-643 48,-643 48,-586 3,-586"/>
<text text-anchor="middle" x="25.5" y="-631" font-family="Helvetica,sans-Serif" font-size="10.00">size_t</text>
<polyline fill="none" stroke="#bfbfbf" points="3,-624 48,-624 "/>
<text text-anchor="middle" x="25.5" y="-612" font-family="Helvetica,sans-Serif" font-size="10.00"> </text>
<polyline fill="none" stroke="#bfbfbf" points="3,-605 48,-605 "/>
<text text-anchor="middle" x="25.5" y="-593" font-family="Helvetica,sans-Serif" font-size="10.00"> </text>
</a>
</g>
</g>
<!-- Node11&#45;&gt;Node1 -->
<g id="edge16" class="edge">
<title>Node11&#45;&gt;Node1</title>
<path fill="none" stroke="#404040" d="M25.9,-585.91C26.39,-559.87 27.42,-519.76 29.5,-485 37.76,-347.34 53.75,-185.9 62.47,-102.59"/>
<polygon fill="none" stroke="#404040" points="62.47,-102.56 59.12,-96.18 63.73,-90.63 67.08,-97.01 62.47,-102.56"/>
<text text-anchor="middle" x="81.5" y="-262" font-family="Helvetica,sans-Serif" font-size="10.00"> #_drawMode</text>
</g>
<!-- Node11&#45;&gt;Node3 -->
<g id="edge10" class="edge">
<title>Node11&#45;&gt;Node3</title>
<path fill="none" stroke="#404040" d="M23.03,-585.91C22.06,-556.12 25.76,-509.63 54.5,-485 99.15,-446.74 264.14,-489.43 318.5,-467 331.45,-461.66 343.92,-453.98 355.41,-445.36"/>
<polygon fill="none" stroke="#404040" points="355.42,-445.36 357.65,-438.5 364.83,-437.92 362.6,-444.78 355.42,-445.36"/>
<text text-anchor="middle" x="98" y="-499" font-family="Helvetica,sans-Serif" font-size="10.00"> #_activeSceneID</text>
</g>
<!-- Node12 -->
<g id="node12" class="node">
<title>Node12</title>
<g id="a_node12"><a xlink:title=" ">
<polygon fill="white" stroke="#bfbfbf" points="516.5,-586 516.5,-643 622.5,-643 622.5,-586 516.5,-586"/>
<text text-anchor="middle" x="569.5" y="-631" font-family="Helvetica,sans-Serif" font-size="10.00">list&lt; CameraPtr &gt;</text>
<polyline fill="none" stroke="#bfbfbf" points="516.5,-624 622.5,-624 "/>
<text text-anchor="middle" x="569.5" y="-612" font-family="Helvetica,sans-Serif" font-size="10.00"> </text>
<polyline fill="none" stroke="#bfbfbf" points="516.5,-605 622.5,-605 "/>
<text text-anchor="middle" x="569.5" y="-593" font-family="Helvetica,sans-Serif" font-size="10.00"> </text>
</a>
</g>
</g>
<!-- Node12&#45;&gt;Node3 -->
<g id="edge12" class="edge">
<title>Node12&#45;&gt;Node3</title>
<path fill="none" stroke="#404040" d="M567.94,-585.77C564.92,-557.17 556.11,-512.91 530.5,-485 515.94,-469.13 502.53,-480.19 485.5,-467 485.4,-466.92 485.3,-466.85 485.2,-466.77"/>
<polygon fill="none" stroke="#404040" points="485.38,-466.92 478.22,-466.06 476.26,-459.11 483.42,-459.98 485.38,-466.92"/>
<text text-anchor="middle" x="579" y="-499" font-family="Helvetica,sans-Serif" font-size="10.00"> #_cameras</text>
</g>
<!-- Node13 -->
<g id="node13" class="node">
<title>Node13</title>
<g id="a_node13"><a xlink:title=" ">
<polygon fill="white" stroke="#bfbfbf" points="640.5,-586 640.5,-643 688.5,-643 688.5,-586 640.5,-586"/>
<text text-anchor="middle" x="664.5" y="-631" font-family="Helvetica,sans-Serif" font-size="10.00">GLuint</text>
<polyline fill="none" stroke="#bfbfbf" points="640.5,-624 688.5,-624 "/>
<text text-anchor="middle" x="664.5" y="-612" font-family="Helvetica,sans-Serif" font-size="10.00"> </text>
<polyline fill="none" stroke="#bfbfbf" points="640.5,-605 688.5,-605 "/>
<text text-anchor="middle" x="664.5" y="-593" font-family="Helvetica,sans-Serif" font-size="10.00"> </text>
</a>
</g>
</g>
<!-- Node13&#45;&gt;Node3 -->
<g id="edge13" class="edge">
<title>Node13&#45;&gt;Node3</title>
<path fill="none" stroke="#404040" d="M661.36,-585.87C656.42,-556.05 643.88,-509.53 612.5,-485 570.39,-452.08 538.62,-490.79 486.69,-466.26"/>
<polygon fill="none" stroke="#404040" points="486.58,-466.2 479.39,-466.85 476.03,-460.47 483.21,-459.82 486.58,-466.2"/>
<text text-anchor="middle" x="660.5" y="-499" font-family="Helvetica,sans-Serif" font-size="10.00"> #_vaoID</text>
</g>
<!-- Node14 -->
<g id="node14" class="node">
<title>Node14</title>
<g id="a_node14"><a xlink:title=" ">
<polygon fill="white" stroke="#bfbfbf" points="494.5,-349 494.5,-406 580.5,-406 580.5,-349 494.5,-349"/>
<text text-anchor="middle" x="537.5" y="-394" font-family="Helvetica,sans-Serif" font-size="10.00">list&lt; PartPtr &gt;</text>
<polyline fill="none" stroke="#bfbfbf" points="494.5,-387 580.5,-387 "/>
<text text-anchor="middle" x="537.5" y="-375" font-family="Helvetica,sans-Serif" font-size="10.00"> </text>
<polyline fill="none" stroke="#bfbfbf" points="494.5,-368 580.5,-368 "/>
<text text-anchor="middle" x="537.5" y="-356" font-family="Helvetica,sans-Serif" font-size="10.00"> </text>
</a>
</g>
</g>
<!-- Node14&#45;&gt;Node2 -->
<g id="edge14" class="edge">
<title>Node14&#45;&gt;Node2</title>
<path fill="none" stroke="#404040" d="M524.64,-348.84C515.31,-330.45 501.55,-306.4 485.5,-288 465.25,-264.78 439.17,-243.04 415.69,-225.6"/>
<polygon fill="none" stroke="#404040" points="415.51,-225.47 408.3,-225.17 405.81,-218.4 413.01,-218.7 415.51,-225.47"/>
<text text-anchor="middle" x="487.5" y="-262" font-family="Helvetica,sans-Serif" font-size="10.00"> #_parts</text>
</g>
<!-- Node15 -->
<g id="node15" class="node">
<title>Node15</title>
<g id="a_node15"><a xlink:title=" ">
<polygon fill="white" stroke="#bfbfbf" points="271.5,-349 271.5,-406 309.5,-406 309.5,-349 271.5,-349"/>
<text text-anchor="middle" x="290.5" y="-394" font-family="Helvetica,sans-Serif" font-size="10.00">bool</text>
<polyline fill="none" stroke="#bfbfbf" points="271.5,-387 309.5,-387 "/>
<text text-anchor="middle" x="290.5" y="-375" font-family="Helvetica,sans-Serif" font-size="10.00"> </text>
<polyline fill="none" stroke="#bfbfbf" points="271.5,-368 309.5,-368 "/>
<text text-anchor="middle" x="290.5" y="-356" font-family="Helvetica,sans-Serif" font-size="10.00"> </text>
</a>
</g>
</g>
<!-- Node15&#45;&gt;Node2 -->
<g id="edge15" class="edge">
<title>Node15&#45;&gt;Node2</title>
<path fill="none" stroke="#404040" d="M283.9,-348.86C279.41,-324.36 276.11,-288.07 287.5,-259 290.14,-252.26 293.72,-245.77 297.86,-239.62"/>
<polygon fill="none" stroke="#404040" points="298.14,-239.25 298.52,-232.05 305.31,-229.62 304.93,-236.82 298.14,-239.25"/>
<text text-anchor="middle" x="345" y="-262" font-family="Helvetica,sans-Serif" font-size="10.00"> #_partsRequireUpdate</text>
</g>
</g>
</svg>
        <g id="navigator" transform="translate(0 0)" fill="#404254">
                <rect fill="#f2f5e9" fill-opacity="0.5" stroke="#606060" stroke-width=".5" x="0" y="0" width="60" height="60"/>
                <use id="zoomplus" xlink:href="#zoomPlus" x="17" y="9" onmousedown="handleZoom(evt,'in')"/>
                <use id="zoomminus" xlink:href="#zoomMin" x="42" y="9" onmousedown="handleZoom(evt,'out')"/>
                <use id="reset" xlink:href="#resetDef" x="30" y="36" onmousedown="handleReset()"/>
                <g id="arrowUp" xlink:href="#dirArrow" transform="translate(30 24)" onmousedown="handlePan(0,-1)">
                  <use xlink:href="#rim" fill="#404040">
                        <set attributeName="fill" to="#808080" begin="arrowUp.mouseover" end="arrowUp.mouseout"/>
                  </use>
                  <path fill="none" stroke="white" stroke-width="1.5" d="M0,-3.0v7 M-2.5,-0.5L0,-3.0L2.5,-0.5"/>
                </g>
                <g id="arrowRight" xlink:href="#dirArrow" transform="rotate(90) translate(36 -43)" onmousedown="handlePan(1,0)">
                  <use xlink:href="#rim" fill="#404040">
                        <set attributeName="fill" to="#808080" begin="arrowRight.mouseover" end="arrowRight.mouseout"/>
                  </use>
                  <path fill="none" stroke="white" stroke-width="1.5" d="M0,-3.0v7 M-2.5,-0.5L0,-3.0L2.5,-0.5"/>
                </g>
                <g id="arrowDown" xlink:href="#dirArrow" transform="rotate(180) translate(-30 -48)" onmousedown="handlePan(0,1)">
                  <use xlink:href="#rim" fill="#404040">
                        <set attributeName="fill" to="#808080" begin="arrowDown.mouseover" end="arrowDown.mouseout"/>
                  </use>
                  <path fill="none" stroke="white" stroke-width="1.5" d="M0,-3.0v7 M-2.5,-0.5L0,-3.0L2.5,-0.5"/>
                </g>
                <g id="arrowLeft" xlink:href="#dirArrow" transform="rotate(270) translate(-36 17)" onmousedown="handlePan(-1,0)">
                  <use xlink:href="#rim" fill="#404040">
                        <set attributeName="fill" to="#808080" begin="arrowLeft.mouseover" end="arrowLeft.mouseout"/>
                  </use>
                  <path fill="none" stroke="white" stroke-width="1.5" d="M0,-3.0v7 M-2.5,-0.5L0,-3.0L2.5,-0.5"/>
                </g>
        </g>
        <svg viewBox="0 0 15 15" width="100%" height="30px" preserveAspectRatio="xMaxYMin meet">
         <g id="arrow_out" transform="scale(0.3 0.3)">
          <a xlink:href="classcie_1_1gl_1_1GenericPartScene__coll__graph_org.svg" target="_base">
           <rect id="button" ry="5" rx="5" y="6" x="6" height="38" width="38"
                fill="#f2f5e9" fill-opacity="0.5" stroke="#606060" stroke-width="1.0"/>
           <path id="arrow"
             d="M 11.500037,31.436501 C 11.940474,20.09759 22.043105,11.32322 32.158766,21.979434 L 37.068811,17.246167 C 37.068811,17.246167 37.088388,32 37.088388,32 L 22.160133,31.978069 C 22.160133,31.978069 26.997745,27.140456 26.997745,27.140456 C 18.528582,18.264221 13.291696,25.230495 11.500037,31.436501 z"
             style="fill:#404040;"/>
          </a>
         </g>
        </svg>
</svg>
