<?xml version="1.0" encoding="UTF-8" standalone="no"?>
<!DOCTYPE svg PUBLIC "-//W3C//DTD SVG 1.1//EN"
 "http://www.w3.org/Graphics/SVG/1.1/DTD/svg11.dtd">
<!-- Generated by graphviz version 2.43.0 (0)
 -->
<!-- Title: cie::gl::AbsGLShape Pages: 1 -->
<svg width="217pt" height="270pt"
 viewBox="0.00 0.00 217.00 270.00" xmlns="http://www.w3.org/2000/svg" xmlns:xlink="http://www.w3.org/1999/xlink">
<g id="graph0" class="graph" transform="scale(1 1) rotate(0) translate(4 266)">
<title>cie::gl::AbsGLShape</title>
<polygon fill="white" stroke="transparent" points="-4,4 -4,-266 213,-266 213,4 -4,4"/>
<!-- Node1 -->
<g id="node1" class="node">
<title>Node1</title>
<g id="a_node1"><a xlink:title=" ">
<polygon fill="#bfbfbf" stroke="black" points="41.5,-0.5 41.5,-156.5 154.5,-156.5 154.5,-0.5 41.5,-0.5"/>
<text text-anchor="middle" x="98" y="-144.5" font-family="Helvetica,sans-Serif" font-size="10.00">cie::gl::AbsGLShape</text>
<polyline fill="none" stroke="black" points="41.5,-137.5 154.5,-137.5 "/>
<text text-anchor="middle" x="98" y="-125.5" font-family="Helvetica,sans-Serif" font-size="10.00"> </text>
<polyline fill="none" stroke="black" points="41.5,-118.5 154.5,-118.5 "/>
<text text-anchor="start" x="49.5" y="-106.5" font-family="Helvetica,sans-Serif" font-size="10.00">+ AbsGLShape()</text>
<text text-anchor="start" x="49.5" y="-95.5" font-family="Helvetica,sans-Serif" font-size="10.00">+ AbsGLShape()</text>
<text text-anchor="start" x="49.5" y="-84.5" font-family="Helvetica,sans-Serif" font-size="10.00">+ setAttribute()</text>
<text text-anchor="start" x="49.5" y="-73.5" font-family="Helvetica,sans-Serif" font-size="10.00">+ updateShape()</text>
<text text-anchor="start" x="49.5" y="-62.5" font-family="Helvetica,sans-Serif" font-size="10.00">+ indices()</text>
<text text-anchor="start" x="49.5" y="-51.5" font-family="Helvetica,sans-Serif" font-size="10.00">+ attributes()</text>
<text text-anchor="start" x="49.5" y="-40.5" font-family="Helvetica,sans-Serif" font-size="10.00">+ attributes()</text>
<text text-anchor="start" x="49.5" y="-29.5" font-family="Helvetica,sans-Serif" font-size="10.00"># AbsGLShape()</text>
<text text-anchor="start" x="49.5" y="-18.5" font-family="Helvetica,sans-Serif" font-size="10.00"># AbsGLShape()</text>
<text text-anchor="start" x="49.5" y="-7.5" font-family="Helvetica,sans-Serif" font-size="10.00"># operator=()</text>
</a>
</g>
</g>
<!-- Node2 -->
<g id="node2" class="node">
<title>Node2</title>
<g id="a_node2"><a xlink:href="structcie_1_1gl_1_1GLTraits.html" target="_top" xlink:title=" ">
<polygon fill="white" stroke="black" points="0,-204.5 0,-261.5 90,-261.5 90,-204.5 0,-204.5"/>
<text text-anchor="middle" x="45" y="-249.5" font-family="Helvetica,sans-Serif" font-size="10.00">cie::gl::GLTraits</text>
<polyline fill="none" stroke="black" points="0,-242.5 90,-242.5 "/>
<text text-anchor="middle" x="45" y="-230.5" font-family="Helvetica,sans-Serif" font-size="10.00"> </text>
<polyline fill="none" stroke="black" points="0,-223.5 90,-223.5 "/>
<text text-anchor="middle" x="45" y="-211.5" font-family="Helvetica,sans-Serif" font-size="10.00"> </text>
</a>
</g>
</g>
<!-- Node2&#45;&gt;Node1 -->
<g id="edge1" class="edge">
<title>Node2&#45;&gt;Node1</title>
<path fill="none" stroke="midnightblue" d="M57.98,-194.66C62,-183.08 66.6,-169.85 71.21,-156.6"/>
<polygon fill="none" stroke="midnightblue" points="54.57,-193.79 54.6,-204.38 61.19,-196.09 54.57,-193.79"/>
</g>
<!-- Node3 -->
<g id="node3" class="node">
<title>Node3</title>
<g id="a_node3"><a xlink:title=" ">
<polygon fill="white" stroke="#bfbfbf" points="108.5,-204.5 108.5,-261.5 193.5,-261.5 193.5,-204.5 108.5,-204.5"/>
<text text-anchor="middle" x="151" y="-249.5" font-family="Helvetica,sans-Serif" font-size="10.00">SharedPointer</text>
<polyline fill="none" stroke="#bfbfbf" points="108.5,-242.5 193.5,-242.5 "/>
<text text-anchor="middle" x="151" y="-230.5" font-family="Helvetica,sans-Serif" font-size="10.00"> </text>
<polyline fill="none" stroke="#bfbfbf" points="108.5,-223.5 193.5,-223.5 "/>
<text text-anchor="middle" x="151" y="-211.5" font-family="Helvetica,sans-Serif" font-size="10.00"> </text>
</a>
</g>
</g>
<!-- Node3&#45;&gt;Node1 -->
<g id="edge2" class="edge">
<title>Node3&#45;&gt;Node1</title>
<path fill="none" stroke="#404040" d="M141.4,-204.38C137.76,-193.89 133.38,-181.3 128.83,-168.2"/>
<polygon fill="none" stroke="#404040" points="128.73,-167.93 122.99,-163.58 124.79,-156.6 130.54,-160.95 128.73,-167.93"/>
<text text-anchor="middle" x="171" y="-178" font-family="Helvetica,sans-Serif" font-size="10.00"> #_p_attributes</text>
</g>
</g>
</svg>
