<?xml version="1.0" encoding="UTF-8" standalone="no"?>
<!DOCTYPE svg PUBLIC "-//W3C//DTD SVG 1.1//EN"
 "http://www.w3.org/Graphics/SVG/1.1/DTD/svg11.dtd">
<!-- Generated by graphviz version 2.43.0 (0)
 -->
<!-- Title: cie::gl::ProjectionPolicy Pages: 1 -->
<svg width="348pt" height="270pt"
 viewBox="0.00 0.00 348.00 270.00" xmlns="http://www.w3.org/2000/svg" xmlns:xlink="http://www.w3.org/1999/xlink">
<g id="graph0" class="graph" transform="scale(1 1) rotate(0) translate(4 266)">
<title>cie::gl::ProjectionPolicy</title>
<polygon fill="white" stroke="transparent" points="-4,4 -4,-266 344,-266 344,4 -4,4"/>
<!-- Node1 -->
<g id="node1" class="node">
<title>Node1</title>
<g id="a_node1"><a xlink:title=" ">
<polygon fill="#bfbfbf" stroke="black" points="100,-116.5 100,-261.5 242,-261.5 242,-116.5 100,-116.5"/>
<text text-anchor="middle" x="171" y="-249.5" font-family="Helvetica,sans-Serif" font-size="10.00">cie::gl::ProjectionPolicy</text>
<polyline fill="none" stroke="black" points="100,-242.5 242,-242.5 "/>
<text text-anchor="start" x="108" y="-230.5" font-family="Helvetica,sans-Serif" font-size="10.00"># _projectionMatrix</text>
<text text-anchor="start" x="108" y="-219.5" font-family="Helvetica,sans-Serif" font-size="10.00"># _clippingPlanes</text>
<text text-anchor="start" x="108" y="-208.5" font-family="Helvetica,sans-Serif" font-size="10.00"># _aspectRatio</text>
<text text-anchor="start" x="108" y="-197.5" font-family="Helvetica,sans-Serif" font-size="10.00"># _fieldOfView</text>
<polyline fill="none" stroke="black" points="100,-190.5 242,-190.5 "/>
<text text-anchor="start" x="108" y="-178.5" font-family="Helvetica,sans-Serif" font-size="10.00"># ProjectionPolicy()</text>
<text text-anchor="start" x="108" y="-167.5" font-family="Helvetica,sans-Serif" font-size="10.00"># ProjectionPolicy()</text>
<text text-anchor="start" x="108" y="-156.5" font-family="Helvetica,sans-Serif" font-size="10.00"># ProjectionPolicy()</text>
<text text-anchor="start" x="108" y="-145.5" font-family="Helvetica,sans-Serif" font-size="10.00"># zoom_impl()</text>
<text text-anchor="start" x="108" y="-134.5" font-family="Helvetica,sans-Serif" font-size="10.00"># updateProjectionMatrix</text>
<text text-anchor="start" x="108" y="-123.5" font-family="Helvetica,sans-Serif" font-size="10.00">_impl()</text>
</a>
</g>
</g>
<!-- Node2 -->
<g id="node2" class="node">
<title>Node2</title>
<g id="a_node2"><a xlink:href="classcie_1_1gl_1_1OrthographicProjection.html" target="_top" xlink:title=" ">
<polygon fill="white" stroke="black" points="0,-0.5 0,-79.5 164,-79.5 164,-0.5 0,-0.5"/>
<text text-anchor="middle" x="82" y="-67.5" font-family="Helvetica,sans-Serif" font-size="10.00">cie::gl::OrthographicProjection</text>
<polyline fill="none" stroke="black" points="0,-60.5 164,-60.5 "/>
<text text-anchor="middle" x="82" y="-48.5" font-family="Helvetica,sans-Serif" font-size="10.00"> </text>
<polyline fill="none" stroke="black" points="0,-41.5 164,-41.5 "/>
<text text-anchor="start" x="8" y="-29.5" font-family="Helvetica,sans-Serif" font-size="10.00"># zoom_impl()</text>
<text text-anchor="start" x="8" y="-18.5" font-family="Helvetica,sans-Serif" font-size="10.00"># updateProjectionMatrix</text>
<text text-anchor="start" x="8" y="-7.5" font-family="Helvetica,sans-Serif" font-size="10.00">_impl()</text>
</a>
</g>
</g>
<!-- Node1&#45;&gt;Node2 -->
<g id="edge1" class="edge">
<title>Node1&#45;&gt;Node2</title>
<path fill="none" stroke="midnightblue" d="M122.21,-107.42C116.42,-97.86 110.73,-88.46 105.54,-79.87"/>
<polygon fill="none" stroke="midnightblue" points="119.37,-109.48 127.54,-116.22 125.36,-105.86 119.37,-109.48"/>
</g>
<!-- Node3 -->
<g id="node3" class="node">
<title>Node3</title>
<g id="a_node3"><a xlink:href="classcie_1_1gl_1_1PerspectiveProjection.html" target="_top" xlink:title=" ">
<polygon fill="white" stroke="black" points="182,-0.5 182,-79.5 340,-79.5 340,-0.5 182,-0.5"/>
<text text-anchor="middle" x="261" y="-67.5" font-family="Helvetica,sans-Serif" font-size="10.00">cie::gl::PerspectiveProjection</text>
<polyline fill="none" stroke="black" points="182,-60.5 340,-60.5 "/>
<text text-anchor="middle" x="261" y="-48.5" font-family="Helvetica,sans-Serif" font-size="10.00"> </text>
<polyline fill="none" stroke="black" points="182,-41.5 340,-41.5 "/>
<text text-anchor="start" x="190" y="-29.5" font-family="Helvetica,sans-Serif" font-size="10.00"># zoom_impl()</text>
<text text-anchor="start" x="190" y="-18.5" font-family="Helvetica,sans-Serif" font-size="10.00"># updateProjectionMatrix</text>
<text text-anchor="start" x="190" y="-7.5" font-family="Helvetica,sans-Serif" font-size="10.00">_impl()</text>
</a>
</g>
</g>
<!-- Node1&#45;&gt;Node3 -->
<g id="edge2" class="edge">
<title>Node1&#45;&gt;Node3</title>
<path fill="none" stroke="midnightblue" d="M220.34,-107.42C226.19,-97.86 231.94,-88.46 237.2,-79.87"/>
<polygon fill="none" stroke="midnightblue" points="217.18,-105.87 214.95,-116.22 223.15,-109.52 217.18,-105.87"/>
</g>
</g>
</svg>
