<?xml version="1.0" encoding="UTF-8" standalone="no"?>
<!DOCTYPE svg PUBLIC "-//W3C//DTD SVG 1.1//EN"
 "http://www.w3.org/Graphics/SVG/1.1/DTD/svg11.dtd">
<!-- Generated by graphviz version 2.43.0 (0)
 -->
<!-- Title: cie::gl::GenericPart Pages: 1 -->
<svg width="354pt" height="540pt"
 viewBox="0.00 0.00 354.00 540.00" xmlns="http://www.w3.org/2000/svg" xmlns:xlink="http://www.w3.org/1999/xlink">
<g id="graph0" class="graph" transform="scale(1 1) rotate(0) translate(4 536)">
<title>cie::gl::GenericPart</title>
<polygon fill="white" stroke="transparent" points="-4,4 -4,-536 350,-536 350,4 -4,4"/>
<!-- Node1 -->
<g id="node1" class="node">
<title>Node1</title>
<g id="a_node1"><a xlink:title=" ">
<polygon fill="#bfbfbf" stroke="black" points="146.5,-0.5 146.5,-123.5 277.5,-123.5 277.5,-0.5 146.5,-0.5"/>
<text text-anchor="middle" x="212" y="-111.5" font-family="Helvetica,sans-Serif" font-size="10.00">cie::gl::GenericPart</text>
<polyline fill="none" stroke="black" points="146.5,-104.5 277.5,-104.5 "/>
<text text-anchor="middle" x="212" y="-92.5" font-family="Helvetica,sans-Serif" font-size="10.00"> </text>
<polyline fill="none" stroke="black" points="146.5,-85.5 277.5,-85.5 "/>
<text text-anchor="start" x="154.5" y="-73.5" font-family="Helvetica,sans-Serif" font-size="10.00">+ GenericPart()</text>
<text text-anchor="start" x="154.5" y="-62.5" font-family="Helvetica,sans-Serif" font-size="10.00">+ attributes()</text>
<text text-anchor="start" x="154.5" y="-51.5" font-family="Helvetica,sans-Serif" font-size="10.00">+ indices()</text>
<text text-anchor="start" x="154.5" y="-40.5" font-family="Helvetica,sans-Serif" font-size="10.00">+ dimension()</text>
<text text-anchor="start" x="154.5" y="-29.5" font-family="Helvetica,sans-Serif" font-size="10.00">+ vertexAttributeSize()</text>
<text text-anchor="start" x="154.5" y="-18.5" font-family="Helvetica,sans-Serif" font-size="10.00">+ primitiveVertexSize()</text>
<text text-anchor="start" x="154.5" y="-7.5" font-family="Helvetica,sans-Serif" font-size="10.00">+ writeSTL()</text>
</a>
</g>
</g>
<!-- Node2 -->
<g id="node2" class="node">
<title>Node2</title>
<g id="a_node2"><a xlink:href="classcie_1_1gl_1_1Part.html" target="_top" xlink:title=" ">
<polygon fill="white" stroke="black" points="84.5,-193.5 84.5,-426.5 227.5,-426.5 227.5,-193.5 84.5,-193.5"/>
<text text-anchor="middle" x="156" y="-414.5" font-family="Helvetica,sans-Serif" font-size="10.00">cie::gl::Part</text>
<polyline fill="none" stroke="black" points="84.5,-407.5 227.5,-407.5 "/>
<text text-anchor="middle" x="156" y="-395.5" font-family="Helvetica,sans-Serif" font-size="10.00"> </text>
<polyline fill="none" stroke="black" points="84.5,-388.5 227.5,-388.5 "/>
<text text-anchor="start" x="92.5" y="-376.5" font-family="Helvetica,sans-Serif" font-size="10.00">+ Part()</text>
<text text-anchor="start" x="92.5" y="-365.5" font-family="Helvetica,sans-Serif" font-size="10.00">+ attributeByteCount()</text>
<text text-anchor="start" x="92.5" y="-354.5" font-family="Helvetica,sans-Serif" font-size="10.00">+ indexByteCount()</text>
<text text-anchor="start" x="92.5" y="-343.5" font-family="Helvetica,sans-Serif" font-size="10.00">+ numberOfVertices()</text>
<text text-anchor="start" x="92.5" y="-332.5" font-family="Helvetica,sans-Serif" font-size="10.00">+ numberOfPrimitives()</text>
<text text-anchor="start" x="92.5" y="-321.5" font-family="Helvetica,sans-Serif" font-size="10.00">+ load()</text>
<text text-anchor="start" x="92.5" y="-310.5" font-family="Helvetica,sans-Serif" font-size="10.00">+ attributes()</text>
<text text-anchor="start" x="92.5" y="-299.5" font-family="Helvetica,sans-Serif" font-size="10.00">+ indices()</text>
<text text-anchor="start" x="92.5" y="-288.5" font-family="Helvetica,sans-Serif" font-size="10.00">+ dimension()</text>
<text text-anchor="start" x="92.5" y="-277.5" font-family="Helvetica,sans-Serif" font-size="10.00">+ vertexAttributeSize()</text>
<text text-anchor="start" x="92.5" y="-266.5" font-family="Helvetica,sans-Serif" font-size="10.00">+ primitiveVertexSize()</text>
<text text-anchor="start" x="92.5" y="-255.5" font-family="Helvetica,sans-Serif" font-size="10.00">+ primitiveAttributeSize()</text>
<text text-anchor="start" x="92.5" y="-244.5" font-family="Helvetica,sans-Serif" font-size="10.00">+ primitiveByteSize()</text>
<text text-anchor="start" x="92.5" y="-233.5" font-family="Helvetica,sans-Serif" font-size="10.00">+ writeSTL()</text>
<text text-anchor="start" x="92.5" y="-222.5" font-family="Helvetica,sans-Serif" font-size="10.00"># Part()</text>
<text text-anchor="start" x="92.5" y="-211.5" font-family="Helvetica,sans-Serif" font-size="10.00"># Part()</text>
<text text-anchor="start" x="92.5" y="-200.5" font-family="Helvetica,sans-Serif" font-size="10.00"># operator=()</text>
</a>
</g>
</g>
<!-- Node2&#45;&gt;Node1 -->
<g id="edge1" class="edge">
<title>Node2&#45;&gt;Node1</title>
<path fill="none" stroke="midnightblue" d="M184.61,-183.33C189.34,-162.54 194.05,-141.85 198.2,-123.64"/>
<polygon fill="none" stroke="midnightblue" points="181.17,-182.68 182.36,-193.2 187.99,-184.23 181.17,-182.68"/>
</g>
<!-- Node3 -->
<g id="node3" class="node">
<title>Node3</title>
<g id="a_node3"><a xlink:href="structcie_1_1gl_1_1GLTraits.html" target="_top" xlink:title=" ">
<polygon fill="white" stroke="black" points="0,-474.5 0,-531.5 90,-531.5 90,-474.5 0,-474.5"/>
<text text-anchor="middle" x="45" y="-519.5" font-family="Helvetica,sans-Serif" font-size="10.00">cie::gl::GLTraits</text>
<polyline fill="none" stroke="black" points="0,-512.5 90,-512.5 "/>
<text text-anchor="middle" x="45" y="-500.5" font-family="Helvetica,sans-Serif" font-size="10.00"> </text>
<polyline fill="none" stroke="black" points="0,-493.5 90,-493.5 "/>
<text text-anchor="middle" x="45" y="-481.5" font-family="Helvetica,sans-Serif" font-size="10.00"> </text>
</a>
</g>
</g>
<!-- Node3&#45;&gt;Node2 -->
<g id="edge2" class="edge">
<title>Node3&#45;&gt;Node2</title>
<path fill="none" stroke="midnightblue" d="M66.23,-465.47C72.89,-454.01 80.62,-440.7 88.71,-426.79"/>
<polygon fill="none" stroke="midnightblue" points="63.14,-463.82 61.14,-474.23 69.19,-467.34 63.14,-463.82"/>
</g>
<!-- Node4 -->
<g id="node4" class="node">
<title>Node4</title>
<g id="a_node4"><a xlink:title=" ">
<polygon fill="white" stroke="#bfbfbf" points="108.5,-474.5 108.5,-531.5 203.5,-531.5 203.5,-474.5 108.5,-474.5"/>
<text text-anchor="middle" x="156" y="-519.5" font-family="Helvetica,sans-Serif" font-size="10.00">index_container</text>
<polyline fill="none" stroke="#bfbfbf" points="108.5,-512.5 203.5,-512.5 "/>
<text text-anchor="middle" x="156" y="-500.5" font-family="Helvetica,sans-Serif" font-size="10.00"> </text>
<polyline fill="none" stroke="#bfbfbf" points="108.5,-493.5 203.5,-493.5 "/>
<text text-anchor="middle" x="156" y="-481.5" font-family="Helvetica,sans-Serif" font-size="10.00"> </text>
</a>
</g>
</g>
<!-- Node4&#45;&gt;Node2 -->
<g id="edge3" class="edge">
<title>Node4&#45;&gt;Node2</title>
<path fill="none" stroke="#404040" d="M156,-474.23C156,-464.17 156,-452.04 156,-439"/>
<polygon fill="none" stroke="#404040" points="156,-438.79 152,-432.79 156,-426.79 160,-432.79 156,-438.79"/>
<text text-anchor="middle" x="182" y="-448" font-family="Helvetica,sans-Serif" font-size="10.00"> #_indices</text>
</g>
<!-- Node5 -->
<g id="node5" class="node">
<title>Node5</title>
<g id="a_node5"><a xlink:title=" ">
<polygon fill="white" stroke="#bfbfbf" points="221.5,-474.5 221.5,-531.5 306.5,-531.5 306.5,-474.5 221.5,-474.5"/>
<text text-anchor="middle" x="264" y="-519.5" font-family="Helvetica,sans-Serif" font-size="10.00">SharedPointer</text>
<polyline fill="none" stroke="#bfbfbf" points="221.5,-512.5 306.5,-512.5 "/>
<text text-anchor="middle" x="264" y="-500.5" font-family="Helvetica,sans-Serif" font-size="10.00"> </text>
<polyline fill="none" stroke="#bfbfbf" points="221.5,-493.5 306.5,-493.5 "/>
<text text-anchor="middle" x="264" y="-481.5" font-family="Helvetica,sans-Serif" font-size="10.00"> </text>
</a>
</g>
</g>
<!-- Node5&#45;&gt;Node2 -->
<g id="edge4" class="edge">
<title>Node5&#45;&gt;Node2</title>
<path fill="none" stroke="#404040" d="M248.3,-474.23C242.38,-463.76 235.19,-451.05 227.47,-437.39"/>
<polygon fill="none" stroke="#404040" points="227.38,-437.24 220.94,-433.98 221.47,-426.79 227.91,-430.05 227.38,-437.24"/>
<text text-anchor="middle" x="275" y="-448" font-family="Helvetica,sans-Serif" font-size="10.00"> #_p_attributes</text>
</g>
<!-- Node6 -->
<g id="node6" class="node">
<title>Node6</title>
<g id="a_node6"><a xlink:title=" ">
<polygon fill="white" stroke="#bfbfbf" points="245.5,-281.5 245.5,-338.5 290.5,-338.5 290.5,-281.5 245.5,-281.5"/>
<text text-anchor="middle" x="268" y="-326.5" font-family="Helvetica,sans-Serif" font-size="10.00">size_t</text>
<polyline fill="none" stroke="#bfbfbf" points="245.5,-319.5 290.5,-319.5 "/>
<text text-anchor="middle" x="268" y="-307.5" font-family="Helvetica,sans-Serif" font-size="10.00"> </text>
<polyline fill="none" stroke="#bfbfbf" points="245.5,-300.5 290.5,-300.5 "/>
<text text-anchor="middle" x="268" y="-288.5" font-family="Helvetica,sans-Serif" font-size="10.00"> </text>
</a>
</g>
</g>
<!-- Node6&#45;&gt;Node1 -->
<g id="edge5" class="edge">
<title>Node6&#45;&gt;Node1</title>
<path fill="none" stroke="#404040" d="M261.68,-281.26C253.7,-246.2 239.67,-184.54 228.55,-135.68"/>
<polygon fill="none" stroke="#404040" points="228.52,-135.58 223.29,-130.62 225.86,-123.88 231.09,-128.84 228.52,-135.58"/>
<text text-anchor="middle" x="291" y="-167" font-family="Helvetica,sans-Serif" font-size="10.00"> #_dimension</text>
<text text-anchor="middle" x="291" y="-156" font-family="Helvetica,sans-Serif" font-size="10.00">#_primitiveVertexSize</text>
<text text-anchor="middle" x="291" y="-145" font-family="Helvetica,sans-Serif" font-size="10.00">#_vertexAttributeSize</text>
</g>
</g>
</svg>
