<?xml version="1.0" encoding="UTF-8" standalone="no"?>
<!DOCTYPE svg PUBLIC "-//W3C//DTD SVG 1.1//EN"
 "http://www.w3.org/Graphics/SVG/1.1/DTD/svg11.dtd">
<!-- Generated by graphviz version 2.43.0 (0)
 -->
<!-- Title: cie::gl::StaticShader Pages: 1 -->
<svg width="121pt" height="570pt"
 viewBox="0.00 0.00 121.00 570.00" xmlns="http://www.w3.org/2000/svg" xmlns:xlink="http://www.w3.org/1999/xlink">
<g id="graph0" class="graph" transform="scale(1 1) rotate(0) translate(4 566)">
<title>cie::gl::StaticShader</title>
<polygon fill="white" stroke="transparent" points="-4,4 -4,-566 117,-566 117,4 -4,4"/>
<!-- Node1 -->
<g id="node1" class="node">
<title>Node1</title>
<g id="a_node1"><a xlink:title="Shader loaded from memory.">
<polygon fill="#bfbfbf" stroke="black" points="0,-0.5 0,-68.5 113,-68.5 113,-0.5 0,-0.5"/>
<text text-anchor="middle" x="56.5" y="-56.5" font-family="Helvetica,sans-Serif" font-size="10.00">cie::gl::StaticShader</text>
<polyline fill="none" stroke="black" points="0,-49.5 113,-49.5 "/>
<text text-anchor="middle" x="56.5" y="-37.5" font-family="Helvetica,sans-Serif" font-size="10.00"> </text>
<polyline fill="none" stroke="black" points="0,-30.5 113,-30.5 "/>
<text text-anchor="start" x="8" y="-18.5" font-family="Helvetica,sans-Serif" font-size="10.00">+ source()</text>
<text text-anchor="start" x="8" y="-7.5" font-family="Helvetica,sans-Serif" font-size="10.00">+ configuration()</text>
</a>
</g>
</g>
<!-- Node2 -->
<g id="node2" class="node">
<title>Node2</title>
<g id="a_node2"><a xlink:href="classcie_1_1gl_1_1Shader.html" target="_top" xlink:title="Interface class representing a shader written in GLSL.">
<polygon fill="white" stroke="black" points="7,-106.5 7,-273.5 106,-273.5 106,-106.5 7,-106.5"/>
<text text-anchor="middle" x="56.5" y="-261.5" font-family="Helvetica,sans-Serif" font-size="10.00">cie::gl::Shader</text>
<polyline fill="none" stroke="black" points="7,-254.5 106,-254.5 "/>
<text text-anchor="middle" x="56.5" y="-242.5" font-family="Helvetica,sans-Serif" font-size="10.00"> </text>
<polyline fill="none" stroke="black" points="7,-235.5 106,-235.5 "/>
<text text-anchor="start" x="15" y="-223.5" font-family="Helvetica,sans-Serif" font-size="10.00">+ Shader()</text>
<text text-anchor="start" x="15" y="-212.5" font-family="Helvetica,sans-Serif" font-size="10.00">+ operator=()</text>
<text text-anchor="start" x="15" y="-201.5" font-family="Helvetica,sans-Serif" font-size="10.00">+ ~Shader()</text>
<text text-anchor="start" x="15" y="-190.5" font-family="Helvetica,sans-Serif" font-size="10.00">+ source()</text>
<text text-anchor="start" x="15" y="-179.5" font-family="Helvetica,sans-Serif" font-size="10.00">+ configuration()</text>
<text text-anchor="start" x="15" y="-168.5" font-family="Helvetica,sans-Serif" font-size="10.00">+ attributes()</text>
<text text-anchor="start" x="15" y="-157.5" font-family="Helvetica,sans-Serif" font-size="10.00">+ uniforms()</text>
<text text-anchor="start" x="15" y="-146.5" font-family="Helvetica,sans-Serif" font-size="10.00">+ textures()</text>
<text text-anchor="start" x="15" y="-135.5" font-family="Helvetica,sans-Serif" font-size="10.00">+ outputs()</text>
<text text-anchor="start" x="15" y="-124.5" font-family="Helvetica,sans-Serif" font-size="10.00"># Shader()</text>
<text text-anchor="start" x="15" y="-113.5" font-family="Helvetica,sans-Serif" font-size="10.00"># parseConfig()</text>
</a>
</g>
</g>
<!-- Node2&#45;&gt;Node1 -->
<g id="edge1" class="edge">
<title>Node2&#45;&gt;Node1</title>
<path fill="none" stroke="midnightblue" d="M56.5,-96.17C56.5,-86.44 56.5,-77.07 56.5,-68.72"/>
<polygon fill="none" stroke="midnightblue" points="53,-96.41 56.5,-106.41 60,-96.41 53,-96.41"/>
</g>
<!-- Node3 -->
<g id="node3" class="node">
<title>Node3</title>
<g id="a_node3"><a target="_parent" xlink:href="../../../cieutils/docs/html/classcie_1_1utils_1_1IDObject.html" xlink:title=" ">
<polygon fill="white" stroke="black" points="3.5,-311.5 3.5,-456.5 109.5,-456.5 109.5,-311.5 3.5,-311.5"/>
<text text-anchor="start" x="11.5" y="-444.5" font-family="Helvetica,sans-Serif" font-size="10.00">cie::utils::IDObject</text>
<text text-anchor="middle" x="56.5" y="-433.5" font-family="Helvetica,sans-Serif" font-size="10.00">&lt; class &gt;</text>
<polyline fill="none" stroke="black" points="3.5,-426.5 109.5,-426.5 "/>
<text text-anchor="middle" x="56.5" y="-414.5" font-family="Helvetica,sans-Serif" font-size="10.00"> </text>
<polyline fill="none" stroke="black" points="3.5,-407.5 109.5,-407.5 "/>
<text text-anchor="start" x="11.5" y="-395.5" font-family="Helvetica,sans-Serif" font-size="10.00">+ IDObject()</text>
<text text-anchor="start" x="11.5" y="-384.5" font-family="Helvetica,sans-Serif" font-size="10.00">+ IDObject()</text>
<text text-anchor="start" x="11.5" y="-373.5" font-family="Helvetica,sans-Serif" font-size="10.00">+ IDObject()</text>
<text text-anchor="start" x="11.5" y="-362.5" font-family="Helvetica,sans-Serif" font-size="10.00">+ IDObject()</text>
<text text-anchor="start" x="11.5" y="-351.5" font-family="Helvetica,sans-Serif" font-size="10.00">+ operator=()</text>
<text text-anchor="start" x="11.5" y="-340.5" font-family="Helvetica,sans-Serif" font-size="10.00">+ operator=()</text>
<text text-anchor="start" x="11.5" y="-329.5" font-family="Helvetica,sans-Serif" font-size="10.00">+ setID()</text>
<text text-anchor="start" x="11.5" y="-318.5" font-family="Helvetica,sans-Serif" font-size="10.00">+ getID()</text>
</a>
</g>
</g>
<!-- Node3&#45;&gt;Node2 -->
<g id="edge2" class="edge">
<title>Node3&#45;&gt;Node2</title>
<path fill="none" stroke="midnightblue" d="M56.5,-301.08C56.5,-292 56.5,-282.75 56.5,-273.67"/>
<polygon fill="none" stroke="midnightblue" points="53,-301.23 56.5,-311.23 60,-301.23 53,-301.23"/>
</g>
<!-- Node4 -->
<g id="node4" class="node">
<title>Node4</title>
<g id="a_node4"><a xlink:title=" ">
<polygon fill="white" stroke="#bfbfbf" points="40,-504.5 40,-561.5 73,-561.5 73,-504.5 40,-504.5"/>
<text text-anchor="middle" x="56.5" y="-549.5" font-family="Helvetica,sans-Serif" font-size="10.00">TID</text>
<polyline fill="none" stroke="#bfbfbf" points="40,-542.5 73,-542.5 "/>
<text text-anchor="middle" x="56.5" y="-530.5" font-family="Helvetica,sans-Serif" font-size="10.00"> </text>
<polyline fill="none" stroke="#bfbfbf" points="40,-523.5 73,-523.5 "/>
<text text-anchor="middle" x="56.5" y="-511.5" font-family="Helvetica,sans-Serif" font-size="10.00"> </text>
</a>
</g>
</g>
<!-- Node4&#45;&gt;Node3 -->
<g id="edge3" class="edge">
<title>Node4&#45;&gt;Node3</title>
<path fill="none" stroke="#404040" d="M56.5,-504.35C56.5,-494.01 56.5,-481.66 56.5,-468.89"/>
<polygon fill="none" stroke="#404040" points="56.5,-468.56 52.5,-462.56 56.5,-456.56 60.5,-462.56 56.5,-468.56"/>
<text text-anchor="middle" x="69.5" y="-478" font-family="Helvetica,sans-Serif" font-size="10.00"> #_id</text>
</g>
</g>
</svg>
