<?xml version="1.0" encoding="UTF-8" standalone="no"?>
<!DOCTYPE svg PUBLIC "-//W3C//DTD SVG 1.1//EN"
 "http://www.w3.org/Graphics/SVG/1.1/DTD/svg11.dtd">
<!-- Generated by graphviz version 2.43.0 (0)
 -->
<!-- Title: cie::gl::CompoundShape&lt; VertexType &gt; Pages: 1 -->
<svg width="299pt" height="452pt"
 viewBox="0.00 0.00 299.00 452.00" xmlns="http://www.w3.org/2000/svg" xmlns:xlink="http://www.w3.org/1999/xlink">
<g id="graph0" class="graph" transform="scale(1 1) rotate(0) translate(4 448)">
<title>cie::gl::CompoundShape&lt; VertexType &gt;</title>
<polygon fill="white" stroke="transparent" points="-4,4 -4,-448 295,-448 295,4 -4,4"/>
<!-- Node1 -->
<g id="node1" class="node">
<title>Node1</title>
<g id="a_node1"><a xlink:title="Container of shapes with an AbsGLShape interface.">
<polygon fill="#bfbfbf" stroke="black" points="98,-0.5 98,-134.5 232,-134.5 232,-0.5 98,-0.5"/>
<text text-anchor="start" x="106" y="-122.5" font-family="Helvetica,sans-Serif" font-size="10.00">cie::gl::CompoundShape</text>
<text text-anchor="middle" x="165" y="-111.5" font-family="Helvetica,sans-Serif" font-size="10.00">&lt; VertexType &gt;</text>
<polyline fill="none" stroke="black" points="98,-104.5 232,-104.5 "/>
<text text-anchor="middle" x="165" y="-92.5" font-family="Helvetica,sans-Serif" font-size="10.00"> </text>
<polyline fill="none" stroke="black" points="98,-85.5 232,-85.5 "/>
<text text-anchor="start" x="106" y="-73.5" font-family="Helvetica,sans-Serif" font-size="10.00">+ CompoundShape()</text>
<text text-anchor="start" x="106" y="-62.5" font-family="Helvetica,sans-Serif" font-size="10.00">+ CompoundShape()</text>
<text text-anchor="start" x="106" y="-51.5" font-family="Helvetica,sans-Serif" font-size="10.00">+ CompoundShape()</text>
<text text-anchor="start" x="106" y="-40.5" font-family="Helvetica,sans-Serif" font-size="10.00">+ setAttribute()</text>
<text text-anchor="start" x="106" y="-29.5" font-family="Helvetica,sans-Serif" font-size="10.00">+ updateShape()</text>
<text text-anchor="start" x="106" y="-18.5" font-family="Helvetica,sans-Serif" font-size="10.00">+ indices()</text>
<text text-anchor="start" x="106" y="-7.5" font-family="Helvetica,sans-Serif" font-size="10.00">+ shapes()</text>
</a>
</g>
</g>
<!-- Node2 -->
<g id="node2" class="node">
<title>Node2</title>
<g id="a_node2"><a xlink:href="classcie_1_1gl_1_1AbsGLShape.html" target="_top" xlink:title=" ">
<polygon fill="white" stroke="black" points="41.5,-182.5 41.5,-338.5 154.5,-338.5 154.5,-182.5 41.5,-182.5"/>
<text text-anchor="middle" x="98" y="-326.5" font-family="Helvetica,sans-Serif" font-size="10.00">cie::gl::AbsGLShape</text>
<polyline fill="none" stroke="black" points="41.5,-319.5 154.5,-319.5 "/>
<text text-anchor="middle" x="98" y="-307.5" font-family="Helvetica,sans-Serif" font-size="10.00"> </text>
<polyline fill="none" stroke="black" points="41.5,-300.5 154.5,-300.5 "/>
<text text-anchor="start" x="49.5" y="-288.5" font-family="Helvetica,sans-Serif" font-size="10.00">+ AbsGLShape()</text>
<text text-anchor="start" x="49.5" y="-277.5" font-family="Helvetica,sans-Serif" font-size="10.00">+ AbsGLShape()</text>
<text text-anchor="start" x="49.5" y="-266.5" font-family="Helvetica,sans-Serif" font-size="10.00">+ setAttribute()</text>
<text text-anchor="start" x="49.5" y="-255.5" font-family="Helvetica,sans-Serif" font-size="10.00">+ updateShape()</text>
<text text-anchor="start" x="49.5" y="-244.5" font-family="Helvetica,sans-Serif" font-size="10.00">+ indices()</text>
<text text-anchor="start" x="49.5" y="-233.5" font-family="Helvetica,sans-Serif" font-size="10.00">+ attributes()</text>
<text text-anchor="start" x="49.5" y="-222.5" font-family="Helvetica,sans-Serif" font-size="10.00">+ attributes()</text>
<text text-anchor="start" x="49.5" y="-211.5" font-family="Helvetica,sans-Serif" font-size="10.00"># AbsGLShape()</text>
<text text-anchor="start" x="49.5" y="-200.5" font-family="Helvetica,sans-Serif" font-size="10.00"># AbsGLShape()</text>
<text text-anchor="start" x="49.5" y="-189.5" font-family="Helvetica,sans-Serif" font-size="10.00"># operator=()</text>
</a>
</g>
</g>
<!-- Node2&#45;&gt;Node1 -->
<g id="edge1" class="edge">
<title>Node2&#45;&gt;Node1</title>
<path fill="none" stroke="midnightblue" d="M128.47,-172.64C132.96,-159.85 137.52,-146.85 141.82,-134.57"/>
<polygon fill="none" stroke="midnightblue" points="125.07,-171.77 125.06,-182.36 131.67,-174.09 125.07,-171.77"/>
</g>
<!-- Node3 -->
<g id="node3" class="node">
<title>Node3</title>
<g id="a_node3"><a xlink:href="structcie_1_1gl_1_1GLTraits.html" target="_top" xlink:title=" ">
<polygon fill="white" stroke="black" points="0,-386.5 0,-443.5 90,-443.5 90,-386.5 0,-386.5"/>
<text text-anchor="middle" x="45" y="-431.5" font-family="Helvetica,sans-Serif" font-size="10.00">cie::gl::GLTraits</text>
<polyline fill="none" stroke="black" points="0,-424.5 90,-424.5 "/>
<text text-anchor="middle" x="45" y="-412.5" font-family="Helvetica,sans-Serif" font-size="10.00"> </text>
<polyline fill="none" stroke="black" points="0,-405.5 90,-405.5 "/>
<text text-anchor="middle" x="45" y="-393.5" font-family="Helvetica,sans-Serif" font-size="10.00"> </text>
</a>
</g>
</g>
<!-- Node3&#45;&gt;Node2 -->
<g id="edge2" class="edge">
<title>Node3&#45;&gt;Node2</title>
<path fill="none" stroke="midnightblue" d="M57.98,-376.66C62,-365.08 66.6,-351.85 71.21,-338.6"/>
<polygon fill="none" stroke="midnightblue" points="54.57,-375.79 54.6,-386.38 61.19,-378.09 54.57,-375.79"/>
</g>
<!-- Node4 -->
<g id="node4" class="node">
<title>Node4</title>
<g id="a_node4"><a xlink:title=" ">
<polygon fill="white" stroke="#bfbfbf" points="108.5,-386.5 108.5,-443.5 193.5,-443.5 193.5,-386.5 108.5,-386.5"/>
<text text-anchor="middle" x="151" y="-431.5" font-family="Helvetica,sans-Serif" font-size="10.00">SharedPointer</text>
<polyline fill="none" stroke="#bfbfbf" points="108.5,-424.5 193.5,-424.5 "/>
<text text-anchor="middle" x="151" y="-412.5" font-family="Helvetica,sans-Serif" font-size="10.00"> </text>
<polyline fill="none" stroke="#bfbfbf" points="108.5,-405.5 193.5,-405.5 "/>
<text text-anchor="middle" x="151" y="-393.5" font-family="Helvetica,sans-Serif" font-size="10.00"> </text>
</a>
</g>
</g>
<!-- Node4&#45;&gt;Node2 -->
<g id="edge3" class="edge">
<title>Node4&#45;&gt;Node2</title>
<path fill="none" stroke="#404040" d="M141.4,-386.38C137.76,-375.89 133.38,-363.3 128.83,-350.2"/>
<polygon fill="none" stroke="#404040" points="128.73,-349.93 122.99,-345.58 124.79,-338.6 130.54,-342.95 128.73,-349.93"/>
<text text-anchor="middle" x="172" y="-360" font-family="Helvetica,sans-Serif" font-size="10.00"> #_p_attributes</text>
</g>
<!-- Node5 -->
<g id="node5" class="node">
<title>Node5</title>
<g id="a_node5"><a xlink:title=" ">
<polygon fill="white" stroke="#bfbfbf" points="173,-232 173,-289 291,-289 291,-232 173,-232"/>
<text text-anchor="middle" x="232" y="-277" font-family="Helvetica,sans-Serif" font-size="10.00">vector&lt; shape_ptr &gt;</text>
<polyline fill="none" stroke="#bfbfbf" points="173,-270 291,-270 "/>
<text text-anchor="middle" x="232" y="-258" font-family="Helvetica,sans-Serif" font-size="10.00"> </text>
<polyline fill="none" stroke="#bfbfbf" points="173,-251 291,-251 "/>
<text text-anchor="middle" x="232" y="-239" font-family="Helvetica,sans-Serif" font-size="10.00"> </text>
</a>
</g>
</g>
<!-- Node5&#45;&gt;Node1 -->
<g id="edge4" class="edge">
<title>Node5&#45;&gt;Node1</title>
<path fill="none" stroke="#404040" d="M222.26,-231.73C214.37,-209.25 202.87,-176.46 192.24,-146.16"/>
<polygon fill="none" stroke="#404040" points="192.19,-146.01 186.43,-141.68 188.22,-134.69 193.98,-139.03 192.19,-146.01"/>
<text text-anchor="middle" x="224" y="-156" font-family="Helvetica,sans-Serif" font-size="10.00"> #_shapes</text>
</g>
</g>
</svg>
