<?xml version="1.0" encoding="UTF-8" standalone="no"?>
<!DOCTYPE svg PUBLIC "-//W3C//DTD SVG 1.1//EN"
 "http://www.w3.org/Graphics/SVG/1.1/DTD/svg11.dtd">
<!-- Generated by graphviz version 2.43.0 (0)
 -->
<!-- Title: cie::gl::DynamicShader Pages: 1 -->
<svg width="137pt" height="592pt"
 viewBox="0.00 0.00 137.00 592.00" xmlns="http://www.w3.org/2000/svg" xmlns:xlink="http://www.w3.org/1999/xlink">
<g id="graph0" class="graph" transform="scale(1 1) rotate(0) translate(4 588)">
<title>cie::gl::DynamicShader</title>
<polygon fill="white" stroke="transparent" points="-4,4 -4,-588 133,-588 133,4 -4,4"/>
<!-- Node1 -->
<g id="node1" class="node">
<title>Node1</title>
<g id="a_node1"><a xlink:title="Shader loaded from the filesystem.">
<polygon fill="#bfbfbf" stroke="black" points="0,-0.5 0,-90.5 129,-90.5 129,-0.5 0,-0.5"/>
<text text-anchor="middle" x="64.5" y="-78.5" font-family="Helvetica,sans-Serif" font-size="10.00">cie::gl::DynamicShader</text>
<polyline fill="none" stroke="black" points="0,-71.5 129,-71.5 "/>
<text text-anchor="middle" x="64.5" y="-59.5" font-family="Helvetica,sans-Serif" font-size="10.00"> </text>
<polyline fill="none" stroke="black" points="0,-52.5 129,-52.5 "/>
<text text-anchor="start" x="8" y="-40.5" font-family="Helvetica,sans-Serif" font-size="10.00">+ source()</text>
<text text-anchor="start" x="8" y="-29.5" font-family="Helvetica,sans-Serif" font-size="10.00">+ configuration()</text>
<text text-anchor="start" x="8" y="-18.5" font-family="Helvetica,sans-Serif" font-size="10.00">+ sourcePath()</text>
<text text-anchor="start" x="8" y="-7.5" font-family="Helvetica,sans-Serif" font-size="10.00">+ configurationPath()</text>
</a>
</g>
</g>
<!-- Node2 -->
<g id="node2" class="node">
<title>Node2</title>
<g id="a_node2"><a xlink:href="classcie_1_1gl_1_1Shader.html" target="_top" xlink:title="Interface class representing a shader written in GLSL.">
<polygon fill="white" stroke="black" points="15,-128.5 15,-295.5 114,-295.5 114,-128.5 15,-128.5"/>
<text text-anchor="middle" x="64.5" y="-283.5" font-family="Helvetica,sans-Serif" font-size="10.00">cie::gl::Shader</text>
<polyline fill="none" stroke="black" points="15,-276.5 114,-276.5 "/>
<text text-anchor="middle" x="64.5" y="-264.5" font-family="Helvetica,sans-Serif" font-size="10.00"> </text>
<polyline fill="none" stroke="black" points="15,-257.5 114,-257.5 "/>
<text text-anchor="start" x="23" y="-245.5" font-family="Helvetica,sans-Serif" font-size="10.00">+ Shader()</text>
<text text-anchor="start" x="23" y="-234.5" font-family="Helvetica,sans-Serif" font-size="10.00">+ operator=()</text>
<text text-anchor="start" x="23" y="-223.5" font-family="Helvetica,sans-Serif" font-size="10.00">+ ~Shader()</text>
<text text-anchor="start" x="23" y="-212.5" font-family="Helvetica,sans-Serif" font-size="10.00">+ source()</text>
<text text-anchor="start" x="23" y="-201.5" font-family="Helvetica,sans-Serif" font-size="10.00">+ configuration()</text>
<text text-anchor="start" x="23" y="-190.5" font-family="Helvetica,sans-Serif" font-size="10.00">+ attributes()</text>
<text text-anchor="start" x="23" y="-179.5" font-family="Helvetica,sans-Serif" font-size="10.00">+ uniforms()</text>
<text text-anchor="start" x="23" y="-168.5" font-family="Helvetica,sans-Serif" font-size="10.00">+ textures()</text>
<text text-anchor="start" x="23" y="-157.5" font-family="Helvetica,sans-Serif" font-size="10.00">+ outputs()</text>
<text text-anchor="start" x="23" y="-146.5" font-family="Helvetica,sans-Serif" font-size="10.00"># Shader()</text>
<text text-anchor="start" x="23" y="-135.5" font-family="Helvetica,sans-Serif" font-size="10.00"># parseConfig()</text>
</a>
</g>
</g>
<!-- Node2&#45;&gt;Node1 -->
<g id="edge1" class="edge">
<title>Node2&#45;&gt;Node1</title>
<path fill="none" stroke="midnightblue" d="M64.5,-117.97C64.5,-108.52 64.5,-99.27 64.5,-90.72"/>
<polygon fill="none" stroke="midnightblue" points="61,-118.27 64.5,-128.27 68,-118.27 61,-118.27"/>
</g>
<!-- Node3 -->
<g id="node3" class="node">
<title>Node3</title>
<g id="a_node3"><a target="_parent" xlink:href="../../../cieutils/docs/html/classcie_1_1utils_1_1IDObject.html" xlink:title=" ">
<polygon fill="white" stroke="black" points="11.5,-333.5 11.5,-478.5 117.5,-478.5 117.5,-333.5 11.5,-333.5"/>
<text text-anchor="start" x="19.5" y="-466.5" font-family="Helvetica,sans-Serif" font-size="10.00">cie::utils::IDObject</text>
<text text-anchor="middle" x="64.5" y="-455.5" font-family="Helvetica,sans-Serif" font-size="10.00">&lt; class &gt;</text>
<polyline fill="none" stroke="black" points="11.5,-448.5 117.5,-448.5 "/>
<text text-anchor="middle" x="64.5" y="-436.5" font-family="Helvetica,sans-Serif" font-size="10.00"> </text>
<polyline fill="none" stroke="black" points="11.5,-429.5 117.5,-429.5 "/>
<text text-anchor="start" x="19.5" y="-417.5" font-family="Helvetica,sans-Serif" font-size="10.00">+ IDObject()</text>
<text text-anchor="start" x="19.5" y="-406.5" font-family="Helvetica,sans-Serif" font-size="10.00">+ IDObject()</text>
<text text-anchor="start" x="19.5" y="-395.5" font-family="Helvetica,sans-Serif" font-size="10.00">+ IDObject()</text>
<text text-anchor="start" x="19.5" y="-384.5" font-family="Helvetica,sans-Serif" font-size="10.00">+ IDObject()</text>
<text text-anchor="start" x="19.5" y="-373.5" font-family="Helvetica,sans-Serif" font-size="10.00">+ operator=()</text>
<text text-anchor="start" x="19.5" y="-362.5" font-family="Helvetica,sans-Serif" font-size="10.00">+ operator=()</text>
<text text-anchor="start" x="19.5" y="-351.5" font-family="Helvetica,sans-Serif" font-size="10.00">+ setID()</text>
<text text-anchor="start" x="19.5" y="-340.5" font-family="Helvetica,sans-Serif" font-size="10.00">+ getID()</text>
</a>
</g>
</g>
<!-- Node3&#45;&gt;Node2 -->
<g id="edge2" class="edge">
<title>Node3&#45;&gt;Node2</title>
<path fill="none" stroke="midnightblue" d="M64.5,-323.08C64.5,-314 64.5,-304.75 64.5,-295.67"/>
<polygon fill="none" stroke="midnightblue" points="61,-323.23 64.5,-333.23 68,-323.23 61,-323.23"/>
</g>
<!-- Node4 -->
<g id="node4" class="node">
<title>Node4</title>
<g id="a_node4"><a xlink:title=" ">
<polygon fill="white" stroke="#bfbfbf" points="48,-526.5 48,-583.5 81,-583.5 81,-526.5 48,-526.5"/>
<text text-anchor="middle" x="64.5" y="-571.5" font-family="Helvetica,sans-Serif" font-size="10.00">TID</text>
<polyline fill="none" stroke="#bfbfbf" points="48,-564.5 81,-564.5 "/>
<text text-anchor="middle" x="64.5" y="-552.5" font-family="Helvetica,sans-Serif" font-size="10.00"> </text>
<polyline fill="none" stroke="#bfbfbf" points="48,-545.5 81,-545.5 "/>
<text text-anchor="middle" x="64.5" y="-533.5" font-family="Helvetica,sans-Serif" font-size="10.00"> </text>
</a>
</g>
</g>
<!-- Node4&#45;&gt;Node3 -->
<g id="edge3" class="edge">
<title>Node4&#45;&gt;Node3</title>
<path fill="none" stroke="#404040" d="M64.5,-526.35C64.5,-516.01 64.5,-503.66 64.5,-490.89"/>
<polygon fill="none" stroke="#404040" points="64.5,-490.56 60.5,-484.56 64.5,-478.56 68.5,-484.56 64.5,-490.56"/>
<text text-anchor="middle" x="77.5" y="-500" font-family="Helvetica,sans-Serif" font-size="10.00"> #_id</text>
</g>
</g>
</svg>
