<?xml version="1.0" encoding="UTF-8" standalone="no"?>
<!DOCTYPE svg PUBLIC "-//W3C//DTD SVG 1.1//EN"
 "http://www.w3.org/Graphics/SVG/1.1/DTD/svg11.dtd">
<!-- Generated by graphviz version 2.43.0 (0)
 -->
<!-- Title: cie::gl::AbsContext Pages: 1 -->
<svg width="338pt" height="270pt"
 viewBox="0.00 0.00 338.00 270.00" xmlns="http://www.w3.org/2000/svg" xmlns:xlink="http://www.w3.org/1999/xlink">
<g id="graph0" class="graph" transform="scale(1 1) rotate(0) translate(4 266)">
<title>cie::gl::AbsContext</title>
<polygon fill="white" stroke="transparent" points="-4,4 -4,-266 334,-266 334,4 -4,4"/>
<!-- Node1 -->
<g id="node1" class="node">
<title>Node1</title>
<g id="a_node1"><a xlink:title=" ">
<polygon fill="#bfbfbf" stroke="black" points="104,-0.5 104,-145.5 226,-145.5 226,-0.5 104,-0.5"/>
<text text-anchor="middle" x="165" y="-133.5" font-family="Helvetica,sans-Serif" font-size="10.00">cie::gl::AbsContext</text>
<polyline fill="none" stroke="black" points="104,-126.5 226,-126.5 "/>
<text text-anchor="middle" x="165" y="-114.5" font-family="Helvetica,sans-Serif" font-size="10.00"> </text>
<polyline fill="none" stroke="black" points="104,-107.5 226,-107.5 "/>
<text text-anchor="start" x="112" y="-95.5" font-family="Helvetica,sans-Serif" font-size="10.00">+ AbsContext()</text>
<text text-anchor="start" x="112" y="-84.5" font-family="Helvetica,sans-Serif" font-size="10.00">+ ~AbsContext()</text>
<text text-anchor="start" x="112" y="-73.5" font-family="Helvetica,sans-Serif" font-size="10.00">+ version()</text>
<text text-anchor="start" x="112" y="-62.5" font-family="Helvetica,sans-Serif" font-size="10.00">+ MSAASamples()</text>
<text text-anchor="start" x="112" y="-51.5" font-family="Helvetica,sans-Serif" font-size="10.00">+ newWindow()</text>
<text text-anchor="start" x="112" y="-40.5" font-family="Helvetica,sans-Serif" font-size="10.00">+ focusWindow()</text>
<text text-anchor="start" x="112" y="-29.5" font-family="Helvetica,sans-Serif" font-size="10.00">+ logger()</text>
<text text-anchor="start" x="112" y="-18.5" font-family="Helvetica,sans-Serif" font-size="10.00"># newWindowImpl()</text>
<text text-anchor="start" x="112" y="-7.5" font-family="Helvetica,sans-Serif" font-size="10.00"># closeWindowImpl()</text>
</a>
</g>
</g>
<!-- Node2 -->
<g id="node2" class="node">
<title>Node2</title>
<g id="a_node2"><a xlink:title=" ">
<polygon fill="white" stroke="#bfbfbf" points="0,-204.5 0,-261.5 124,-261.5 124,-204.5 0,-204.5"/>
<text text-anchor="middle" x="62" y="-249.5" font-family="Helvetica,sans-Serif" font-size="10.00">shared_ptr&lt; Logger &gt;</text>
<polyline fill="none" stroke="#bfbfbf" points="0,-242.5 124,-242.5 "/>
<text text-anchor="middle" x="62" y="-230.5" font-family="Helvetica,sans-Serif" font-size="10.00"> </text>
<polyline fill="none" stroke="#bfbfbf" points="0,-223.5 124,-223.5 "/>
<text text-anchor="middle" x="62" y="-211.5" font-family="Helvetica,sans-Serif" font-size="10.00"> </text>
</a>
</g>
</g>
<!-- Node2&#45;&gt;Node1 -->
<g id="edge1" class="edge">
<title>Node2&#45;&gt;Node1</title>
<path fill="none" stroke="#404040" d="M77.67,-204.24C84.86,-191.79 93.63,-177.02 102,-164 103.67,-161.4 105.38,-158.77 107.12,-156.13"/>
<polygon fill="none" stroke="#404040" points="107.3,-155.86 107.29,-148.65 113.94,-145.87 113.95,-153.08 107.3,-155.86"/>
<text text-anchor="middle" x="131.5" y="-172.5" font-family="Helvetica,sans-Serif" font-size="10.00"> #_p_logger</text>
</g>
<!-- Node3 -->
<g id="node3" class="node">
<title>Node3</title>
<g id="a_node3"><a xlink:title=" ">
<polygon fill="white" stroke="#bfbfbf" points="142.5,-204.5 142.5,-261.5 187.5,-261.5 187.5,-204.5 142.5,-204.5"/>
<text text-anchor="middle" x="165" y="-249.5" font-family="Helvetica,sans-Serif" font-size="10.00">size_t</text>
<polyline fill="none" stroke="#bfbfbf" points="142.5,-242.5 187.5,-242.5 "/>
<text text-anchor="middle" x="165" y="-230.5" font-family="Helvetica,sans-Serif" font-size="10.00"> </text>
<polyline fill="none" stroke="#bfbfbf" points="142.5,-223.5 187.5,-223.5 "/>
<text text-anchor="middle" x="165" y="-211.5" font-family="Helvetica,sans-Serif" font-size="10.00"> </text>
</a>
</g>
</g>
<!-- Node3&#45;&gt;Node1 -->
<g id="edge2" class="edge">
<title>Node3&#45;&gt;Node1</title>
<path fill="none" stroke="#404040" d="M165,-204.48C165,-191.32 165,-174.78 165,-157.94"/>
<polygon fill="none" stroke="#404040" points="165,-157.67 161,-151.67 165,-145.67 169,-151.67 165,-157.67"/>
<text text-anchor="middle" x="210" y="-178" font-family="Helvetica,sans-Serif" font-size="10.00"> #_MSAASamples</text>
<text text-anchor="middle" x="210" y="-167" font-family="Helvetica,sans-Serif" font-size="10.00">#_windowCounter</text>
</g>
<!-- Node4 -->
<g id="node4" class="node">
<title>Node4</title>
<g id="a_node4"><a xlink:title=" ">
<polygon fill="white" stroke="#bfbfbf" points="226,-204.5 226,-261.5 330,-261.5 330,-204.5 226,-204.5"/>
<text text-anchor="middle" x="278" y="-249.5" font-family="Helvetica,sans-Serif" font-size="10.00">pair&lt; Size, Size &gt;</text>
<polyline fill="none" stroke="#bfbfbf" points="226,-242.5 330,-242.5 "/>
<text text-anchor="middle" x="278" y="-230.5" font-family="Helvetica,sans-Serif" font-size="10.00"> </text>
<polyline fill="none" stroke="#bfbfbf" points="226,-223.5 330,-223.5 "/>
<text text-anchor="middle" x="278" y="-211.5" font-family="Helvetica,sans-Serif" font-size="10.00"> </text>
</a>
</g>
</g>
<!-- Node4&#45;&gt;Node1 -->
<g id="edge3" class="edge">
<title>Node4&#45;&gt;Node1</title>
<path fill="none" stroke="#404040" d="M272.23,-204.23C268.77,-191.37 263.55,-176.26 256,-164 249.95,-154.17 242.6,-144.62 234.74,-135.65"/>
<polygon fill="none" stroke="#404040" points="234.49,-135.37 227.49,-133.64 226.39,-126.52 233.39,-128.25 234.49,-135.37"/>
<text text-anchor="middle" x="292.5" y="-172.5" font-family="Helvetica,sans-Serif" font-size="10.00"> #_version</text>
</g>
</g>
</svg>
