<?xml version="1.0" encoding="UTF-8" standalone="no"?>
<!DOCTYPE svg PUBLIC "-//W3C//DTD SVG 1.1//EN"
 "http://www.w3.org/Graphics/SVG/1.1/DTD/svg11.dtd">
<!-- Generated by graphviz version 2.43.0 (0)
 -->
<!-- Title: cie::gl::Arrow&lt; VertexType &gt; Pages: 1 -->
<!--zoomable 678 -->
<svg id="main" version="1.1" xmlns="http://www.w3.org/2000/svg" xmlns:xlink="http://www.w3.org/1999/xlink" xml:space="preserve" onload="init(evt)">
<style type="text/css"><![CDATA[
.edge:hover path { stroke: red; }
.edge:hover polygon { stroke: red; fill: red; }
]]></style>
<script type="text/javascript"><![CDATA[
var edges = document.getElementsByTagName('g');
if (edges && edges.length) {
  for (var i=0;i<edges.length;i++) {
    if (edges[i].id.substr(0,4)=='edge') {
      edges[i].setAttribute('class','edge');
    }
  }
}
]]></script>
        <defs>
                <circle id="rim" cx="0" cy="0" r="7"/>
                <circle id="rim2" cx="0" cy="0" r="3.5"/>
                <g id="zoomPlus">
                        <use xlink:href="#rim" fill="#404040">
                                <set attributeName="fill" to="#808080" begin="zoomplus.mouseover" end="zoomplus.mouseout"/>
                        </use>
                        <path d="M-4,0h8M0,-4v8" fill="none" stroke="white" stroke-width="1.5" pointer-events="none"/>
                </g>
                <g id="zoomMin">
                        <use xlink:href="#rim" fill="#404040">
                                <set attributeName="fill" to="#808080" begin="zoomminus.mouseover" end="zoomminus.mouseout"/>
                        </use>
                        <path d="M-4,0h8" fill="none" stroke="white" stroke-width="1.5" pointer-events="none"/>
                </g>
                <g id="dirArrow">
                        <path fill="none" stroke="white" stroke-width="1.5" d="M0,-3.0v7 M-2.5,-0.5L0,-3.0L2.5,-0.5"/>
                </g>
               <g id="resetDef">
                       <use xlink:href="#rim2" fill="#404040">
                               <set attributeName="fill" to="#808080" begin="reset.mouseover" end="reset.mouseout"/>
                       </use>
               </g>
        </defs>

<script type="text/javascript">
var viewWidth = 636;
var viewHeight = 678;
var sectionId = 'dynsection-1';
</script>
<script xlink:href="svgpan.js"/>
<svg id="graph" class="graph">
<g id="viewport">
<title>cie::gl::Arrow&lt; VertexType &gt;</title>
<polygon fill="white" stroke="transparent" points="-4,4 -4,-674 632,-674 632,4 -4,4"/>
<!-- Node1 -->
<g id="node1" class="node">
<title>Node1</title>
<g id="a_node1"><a xlink:title=" ">
<polygon fill="#bfbfbf" stroke="black" points="273.5,-0.5 273.5,-90.5 430.5,-90.5 430.5,-0.5 273.5,-0.5"/>
<text text-anchor="middle" x="352" y="-78.5" font-family="Helvetica,sans-Serif" font-size="10.00">cie::gl::Arrow&lt; VertexType &gt;</text>
<polyline fill="none" stroke="black" points="273.5,-71.5 430.5,-71.5 "/>
<text text-anchor="middle" x="352" y="-59.5" font-family="Helvetica,sans-Serif" font-size="10.00"> </text>
<polyline fill="none" stroke="black" points="273.5,-52.5 430.5,-52.5 "/>
<text text-anchor="start" x="281.5" y="-40.5" font-family="Helvetica,sans-Serif" font-size="10.00">+ Arrow()</text>
<text text-anchor="start" x="281.5" y="-29.5" font-family="Helvetica,sans-Serif" font-size="10.00">+ Arrow()</text>
<text text-anchor="start" x="281.5" y="-18.5" font-family="Helvetica,sans-Serif" font-size="10.00">+ updateShape()</text>
<text text-anchor="start" x="281.5" y="-7.5" font-family="Helvetica,sans-Serif" font-size="10.00">+ indices()</text>
</a>
</g>
</g>
<!-- Node2 -->
<g id="node2" class="node">
<title>Node2</title>
<g id="a_node2"><a xlink:href="classcie_1_1gl_1_1GLShape.html" target="_top" xlink:title=" ">
<polygon fill="white" stroke="black" points="130.5,-182.5 130.5,-316.5 267.5,-316.5 267.5,-182.5 130.5,-182.5"/>
<text text-anchor="start" x="138.5" y="-304.5" font-family="Helvetica,sans-Serif" font-size="10.00">cie::gl::GLShape&lt; Vertex</text>
<text text-anchor="middle" x="199" y="-293.5" font-family="Helvetica,sans-Serif" font-size="10.00">Type &gt;</text>
<polyline fill="none" stroke="black" points="130.5,-286.5 267.5,-286.5 "/>
<text text-anchor="middle" x="199" y="-274.5" font-family="Helvetica,sans-Serif" font-size="10.00"> </text>
<polyline fill="none" stroke="black" points="130.5,-267.5 267.5,-267.5 "/>
<text text-anchor="start" x="138.5" y="-255.5" font-family="Helvetica,sans-Serif" font-size="10.00">+ GLShape()</text>
<text text-anchor="start" x="138.5" y="-244.5" font-family="Helvetica,sans-Serif" font-size="10.00">+ GLShape()</text>
<text text-anchor="start" x="138.5" y="-233.5" font-family="Helvetica,sans-Serif" font-size="10.00">+ setAttribute()</text>
<text text-anchor="start" x="138.5" y="-222.5" font-family="Helvetica,sans-Serif" font-size="10.00">+ vertices()</text>
<text text-anchor="start" x="138.5" y="-211.5" font-family="Helvetica,sans-Serif" font-size="10.00"># GLShape()</text>
<text text-anchor="start" x="138.5" y="-200.5" font-family="Helvetica,sans-Serif" font-size="10.00"># GLShape()</text>
<text text-anchor="start" x="138.5" y="-189.5" font-family="Helvetica,sans-Serif" font-size="10.00"># operator=()</text>
</a>
</g>
</g>
<!-- Node2&#45;&gt;Node1 -->
<g id="edge1" class="edge">
<title>Node2&#45;&gt;Node1</title>
<path fill="none" stroke="midnightblue" d="M250.69,-174.03C265.9,-152.76 282.82,-129.74 299,-109 303.73,-102.94 308.82,-96.66 313.91,-90.52"/>
<polygon fill="none" stroke="midnightblue" points="247.68,-172.22 244.72,-182.4 253.38,-176.29 247.68,-172.22"/>
</g>
<!-- Node3 -->
<g id="node3" class="node">
<title>Node3</title>
<g id="a_node3"><a xlink:href="classcie_1_1gl_1_1AbsGLShape.html" target="_top" xlink:title=" ">
<polygon fill="white" stroke="black" points="41.5,-397.5 41.5,-553.5 154.5,-553.5 154.5,-397.5 41.5,-397.5"/>
<text text-anchor="middle" x="98" y="-541.5" font-family="Helvetica,sans-Serif" font-size="10.00">cie::gl::AbsGLShape</text>
<polyline fill="none" stroke="black" points="41.5,-534.5 154.5,-534.5 "/>
<text text-anchor="middle" x="98" y="-522.5" font-family="Helvetica,sans-Serif" font-size="10.00"> </text>
<polyline fill="none" stroke="black" points="41.5,-515.5 154.5,-515.5 "/>
<text text-anchor="start" x="49.5" y="-503.5" font-family="Helvetica,sans-Serif" font-size="10.00">+ AbsGLShape()</text>
<text text-anchor="start" x="49.5" y="-492.5" font-family="Helvetica,sans-Serif" font-size="10.00">+ AbsGLShape()</text>
<text text-anchor="start" x="49.5" y="-481.5" font-family="Helvetica,sans-Serif" font-size="10.00">+ setAttribute()</text>
<text text-anchor="start" x="49.5" y="-470.5" font-family="Helvetica,sans-Serif" font-size="10.00">+ updateShape()</text>
<text text-anchor="start" x="49.5" y="-459.5" font-family="Helvetica,sans-Serif" font-size="10.00">+ indices()</text>
<text text-anchor="start" x="49.5" y="-448.5" font-family="Helvetica,sans-Serif" font-size="10.00">+ attributes()</text>
<text text-anchor="start" x="49.5" y="-437.5" font-family="Helvetica,sans-Serif" font-size="10.00">+ attributes()</text>
<text text-anchor="start" x="49.5" y="-426.5" font-family="Helvetica,sans-Serif" font-size="10.00"># AbsGLShape()</text>
<text text-anchor="start" x="49.5" y="-415.5" font-family="Helvetica,sans-Serif" font-size="10.00"># AbsGLShape()</text>
<text text-anchor="start" x="49.5" y="-404.5" font-family="Helvetica,sans-Serif" font-size="10.00"># operator=()</text>
</a>
</g>
</g>
<!-- Node3&#45;&gt;Node2 -->
<g id="edge2" class="edge">
<title>Node3&#45;&gt;Node2</title>
<path fill="none" stroke="midnightblue" d="M136.98,-388.05C147.69,-364.3 159.13,-338.93 169.23,-316.53"/>
<polygon fill="none" stroke="midnightblue" points="133.68,-386.86 132.76,-397.41 140.06,-389.73 133.68,-386.86"/>
</g>
<!-- Node4 -->
<g id="node4" class="node">
<title>Node4</title>
<g id="a_node4"><a xlink:href="structcie_1_1gl_1_1GLTraits.html" target="_top" xlink:title=" ">
<polygon fill="white" stroke="black" points="0,-612.5 0,-669.5 90,-669.5 90,-612.5 0,-612.5"/>
<text text-anchor="middle" x="45" y="-657.5" font-family="Helvetica,sans-Serif" font-size="10.00">cie::gl::GLTraits</text>
<polyline fill="none" stroke="black" points="0,-650.5 90,-650.5 "/>
<text text-anchor="middle" x="45" y="-638.5" font-family="Helvetica,sans-Serif" font-size="10.00"> </text>
<polyline fill="none" stroke="black" points="0,-631.5 90,-631.5 "/>
<text text-anchor="middle" x="45" y="-619.5" font-family="Helvetica,sans-Serif" font-size="10.00"> </text>
</a>
</g>
</g>
<!-- Node4&#45;&gt;Node3 -->
<g id="edge3" class="edge">
<title>Node4&#45;&gt;Node3</title>
<path fill="none" stroke="midnightblue" d="M57.11,-602.64C61.84,-588.05 67.44,-570.77 72.96,-553.74"/>
<polygon fill="none" stroke="midnightblue" points="53.74,-601.67 53.99,-612.26 60.4,-603.83 53.74,-601.67"/>
</g>
<!-- Node5 -->
<g id="node5" class="node">
<title>Node5</title>
<g id="a_node5"><a xlink:title=" ">
<polygon fill="white" stroke="#bfbfbf" points="108.5,-612.5 108.5,-669.5 193.5,-669.5 193.5,-612.5 108.5,-612.5"/>
<text text-anchor="middle" x="151" y="-657.5" font-family="Helvetica,sans-Serif" font-size="10.00">SharedPointer</text>
<polyline fill="none" stroke="#bfbfbf" points="108.5,-650.5 193.5,-650.5 "/>
<text text-anchor="middle" x="151" y="-638.5" font-family="Helvetica,sans-Serif" font-size="10.00"> </text>
<polyline fill="none" stroke="#bfbfbf" points="108.5,-631.5 193.5,-631.5 "/>
<text text-anchor="middle" x="151" y="-619.5" font-family="Helvetica,sans-Serif" font-size="10.00"> </text>
</a>
</g>
</g>
<!-- Node5&#45;&gt;Node3 -->
<g id="edge4" class="edge">
<title>Node5&#45;&gt;Node3</title>
<path fill="none" stroke="#404040" d="M142.01,-612.26C137.74,-599.09 132.37,-582.52 126.86,-565.53"/>
<polygon fill="none" stroke="#404040" points="126.74,-565.16 121.08,-560.68 123.04,-553.74 128.69,-558.22 126.74,-565.16"/>
<text text-anchor="middle" x="174" y="-586" font-family="Helvetica,sans-Serif" font-size="10.00"> #_p_attributes</text>
</g>
<!-- Node6 -->
<g id="node6" class="node">
<title>Node6</title>
<g id="a_node6"><a xlink:title=" ">
<polygon fill="white" stroke="#bfbfbf" points="173,-447 173,-504 293,-504 293,-447 173,-447"/>
<text text-anchor="middle" x="233" y="-492" font-family="Helvetica,sans-Serif" font-size="10.00">vector&lt; vertex_ptr &gt;</text>
<polyline fill="none" stroke="#bfbfbf" points="173,-485 293,-485 "/>
<text text-anchor="middle" x="233" y="-473" font-family="Helvetica,sans-Serif" font-size="10.00"> </text>
<polyline fill="none" stroke="#bfbfbf" points="173,-466 293,-466 "/>
<text text-anchor="middle" x="233" y="-454" font-family="Helvetica,sans-Serif" font-size="10.00"> </text>
</a>
</g>
</g>
<!-- Node6&#45;&gt;Node2 -->
<g id="edge5" class="edge">
<title>Node6&#45;&gt;Node2</title>
<path fill="none" stroke="#404040" d="M228.76,-446.58C224.31,-417.23 217.1,-369.72 210.89,-328.81"/>
<polygon fill="none" stroke="#404040" points="210.88,-328.78 206.03,-323.45 209.08,-316.92 213.94,-322.25 210.88,-328.78"/>
<text text-anchor="middle" x="244" y="-360" font-family="Helvetica,sans-Serif" font-size="10.00"> #_vertices</text>
</g>
<!-- Node7 -->
<g id="node7" class="node">
<title>Node7</title>
<g id="a_node7"><a xlink:title=" ">
<polygon fill="white" stroke="#bfbfbf" points="285.5,-221 285.5,-278 330.5,-278 330.5,-221 285.5,-221"/>
<text text-anchor="middle" x="308" y="-266" font-family="Helvetica,sans-Serif" font-size="10.00">size_t</text>
<polyline fill="none" stroke="#bfbfbf" points="285.5,-259 330.5,-259 "/>
<text text-anchor="middle" x="308" y="-247" font-family="Helvetica,sans-Serif" font-size="10.00"> </text>
<polyline fill="none" stroke="#bfbfbf" points="285.5,-240 330.5,-240 "/>
<text text-anchor="middle" x="308" y="-228" font-family="Helvetica,sans-Serif" font-size="10.00"> </text>
</a>
</g>
</g>
<!-- Node7&#45;&gt;Node1 -->
<g id="edge6" class="edge">
<title>Node7&#45;&gt;Node1</title>
<path fill="none" stroke="#404040" d="M303.51,-220.76C299.93,-192.06 297.26,-146.31 309,-109 309.8,-106.45 310.75,-103.91 311.81,-101.39"/>
<polygon fill="none" stroke="#404040" points="311.83,-101.35 310.89,-94.2 317.12,-90.58 318.07,-97.72 311.83,-101.35"/>
<text text-anchor="middle" x="342" y="-123" font-family="Helvetica,sans-Serif" font-size="10.00"> #_resolution</text>
</g>
<!-- Node8 -->
<g id="node8" class="node">
<title>Node8</title>
<g id="a_node8"><a xlink:title=" ">
<polygon fill="white" stroke="#bfbfbf" points="354,-221 354,-278 440,-278 440,-221 354,-221"/>
<text text-anchor="middle" x="397" y="-266" font-family="Helvetica,sans-Serif" font-size="10.00">attribute_type</text>
<polyline fill="none" stroke="#bfbfbf" points="354,-259 440,-259 "/>
<text text-anchor="middle" x="397" y="-247" font-family="Helvetica,sans-Serif" font-size="10.00"> </text>
<polyline fill="none" stroke="#bfbfbf" points="354,-240 440,-240 "/>
<text text-anchor="middle" x="397" y="-228" font-family="Helvetica,sans-Serif" font-size="10.00"> </text>
</a>
</g>
</g>
<!-- Node8&#45;&gt;Node1 -->
<g id="edge7" class="edge">
<title>Node8&#45;&gt;Node1</title>
<path fill="none" stroke="#404040" d="M394.27,-220.91C391.08,-192.53 384.94,-147.2 375,-109 374.41,-106.73 373.77,-104.44 373.09,-102.12"/>
<polygon fill="none" stroke="#404040" points="373.05,-101.98 367.42,-97.47 369.43,-90.54 375.05,-95.06 373.05,-101.98"/>
<text text-anchor="middle" x="418.5" y="-134" font-family="Helvetica,sans-Serif" font-size="10.00"> #_baseRadius</text>
<text text-anchor="middle" x="418.5" y="-123" font-family="Helvetica,sans-Serif" font-size="10.00">#_headRadius</text>
<text text-anchor="middle" x="418.5" y="-112" font-family="Helvetica,sans-Serif" font-size="10.00">#_headRatio</text>
</g>
<!-- Node9 -->
<g id="node9" class="node">
<title>Node9</title>
<g id="a_node9"><a target="_parent" xlink:href="../../../cieutils/docs/html/classcie_1_1STLContainerBase.html" xlink:title=" ">
<polygon fill="white" stroke="black" points="458.5,-160.5 458.5,-338.5 583.5,-338.5 583.5,-160.5 458.5,-160.5"/>
<text text-anchor="start" x="466.5" y="-326.5" font-family="Helvetica,sans-Serif" font-size="10.00">cie::STLContainerBase</text>
<text text-anchor="middle" x="521" y="-315.5" font-family="Helvetica,sans-Serif" font-size="10.00">&lt; attribute_type, 3 &gt;</text>
<polyline fill="none" stroke="black" points="458.5,-308.5 583.5,-308.5 "/>
<text text-anchor="middle" x="521" y="-296.5" font-family="Helvetica,sans-Serif" font-size="10.00"> </text>
<polyline fill="none" stroke="black" points="458.5,-289.5 583.5,-289.5 "/>
<text text-anchor="start" x="466.5" y="-277.5" font-family="Helvetica,sans-Serif" font-size="10.00">+ STLContainerBase()</text>
<text text-anchor="start" x="466.5" y="-266.5" font-family="Helvetica,sans-Serif" font-size="10.00">+ STLContainerBase()</text>
<text text-anchor="start" x="466.5" y="-255.5" font-family="Helvetica,sans-Serif" font-size="10.00">+ STLContainerBase()</text>
<text text-anchor="start" x="466.5" y="-244.5" font-family="Helvetica,sans-Serif" font-size="10.00">+ STLContainerBase()</text>
<text text-anchor="start" x="466.5" y="-233.5" font-family="Helvetica,sans-Serif" font-size="10.00">+ STLContainerBase()</text>
<text text-anchor="start" x="466.5" y="-222.5" font-family="Helvetica,sans-Serif" font-size="10.00">+ STLContainerBase()</text>
<text text-anchor="start" x="466.5" y="-211.5" font-family="Helvetica,sans-Serif" font-size="10.00">+ STLContainerBase()</text>
<text text-anchor="start" x="466.5" y="-200.5" font-family="Helvetica,sans-Serif" font-size="10.00">+ STLContainerBase()</text>
<text text-anchor="start" x="466.5" y="-189.5" font-family="Helvetica,sans-Serif" font-size="10.00">+ STLContainerBase()</text>
<text text-anchor="start" x="466.5" y="-178.5" font-family="Helvetica,sans-Serif" font-size="10.00">+ STLContainerBase()</text>
<text text-anchor="start" x="466.5" y="-167.5" font-family="Helvetica,sans-Serif" font-size="10.00">and 37 more...</text>
</a>
</g>
</g>
<!-- Node9&#45;&gt;Node1 -->
<g id="edge8" class="edge">
<title>Node9&#45;&gt;Node1</title>
<path fill="none" stroke="#404040" d="M491.9,-160.48C483.21,-142.16 472.35,-123.91 459,-109 453.5,-102.86 447.26,-97.16 440.61,-91.9"/>
<polygon fill="none" stroke="#404040" points="440.27,-91.65 433.07,-91.31 430.62,-84.52 437.82,-84.87 440.27,-91.65"/>
<text text-anchor="middle" x="504" y="-128.5" font-family="Helvetica,sans-Serif" font-size="10.00"> #_sink</text>
<text text-anchor="middle" x="504" y="-117.5" font-family="Helvetica,sans-Serif" font-size="10.00">#_source</text>
</g>
<!-- Node10 -->
<g id="node10" class="node">
<title>Node10</title>
<g id="a_node10"><a target="_parent" xlink:href="../../../cieutils/docs/html/classcie_1_1STLContainerBase.html" xlink:title=" ">
<polygon fill="white" stroke="black" points="455,-386.5 455,-564.5 587,-564.5 587,-386.5 455,-386.5"/>
<text text-anchor="start" x="463" y="-552.5" font-family="Helvetica,sans-Serif" font-size="10.00">cie::STLContainerBase</text>
<text text-anchor="middle" x="521" y="-541.5" font-family="Helvetica,sans-Serif" font-size="10.00">&lt; TBase &gt;</text>
<polyline fill="none" stroke="black" points="455,-534.5 587,-534.5 "/>
<text text-anchor="middle" x="521" y="-522.5" font-family="Helvetica,sans-Serif" font-size="10.00"> </text>
<polyline fill="none" stroke="black" points="455,-515.5 587,-515.5 "/>
<text text-anchor="start" x="463" y="-503.5" font-family="Helvetica,sans-Serif" font-size="10.00">+ STLContainerBase()</text>
<text text-anchor="start" x="463" y="-492.5" font-family="Helvetica,sans-Serif" font-size="10.00">+ STLContainerBase()</text>
<text text-anchor="start" x="463" y="-481.5" font-family="Helvetica,sans-Serif" font-size="10.00">+ STLContainerBase()</text>
<text text-anchor="start" x="463" y="-470.5" font-family="Helvetica,sans-Serif" font-size="10.00">+ STLContainerBase()</text>
<text text-anchor="start" x="463" y="-459.5" font-family="Helvetica,sans-Serif" font-size="10.00">+ STLContainerBase()</text>
<text text-anchor="start" x="463" y="-448.5" font-family="Helvetica,sans-Serif" font-size="10.00">+ STLContainerBase()</text>
<text text-anchor="start" x="463" y="-437.5" font-family="Helvetica,sans-Serif" font-size="10.00">+ operator=()</text>
<text text-anchor="start" x="463" y="-426.5" font-family="Helvetica,sans-Serif" font-size="10.00">+ operator=()</text>
<text text-anchor="start" x="463" y="-415.5" font-family="Helvetica,sans-Serif" font-size="10.00">+ ~STLContainerBase()</text>
<text text-anchor="start" x="463" y="-404.5" font-family="Helvetica,sans-Serif" font-size="10.00">+ size()</text>
<text text-anchor="start" x="463" y="-393.5" font-family="Helvetica,sans-Serif" font-size="10.00">and 37 more...</text>
</a>
</g>
</g>
<!-- Node10&#45;&gt;Node9 -->
<g id="edge9" class="edge">
<title>Node10&#45;&gt;Node9</title>
<path fill="none" stroke="orange" d="M521,-375.93C521,-363.51 521,-350.87 521,-338.63"/>
<polygon fill="orange" stroke="orange" points="517.5,-376.29 521,-386.29 524.5,-376.29 517.5,-376.29"/>
<text text-anchor="middle" x="574.5" y="-360" font-family="Helvetica,sans-Serif" font-size="10.00"> &lt; attribute_type, 3 &gt;</text>
</g>
</g>
</svg>
        <g id="navigator" transform="translate(0 0)" fill="#404254">
                <rect fill="#f2f5e9" fill-opacity="0.5" stroke="#606060" stroke-width=".5" x="0" y="0" width="60" height="60"/>
                <use id="zoomplus" xlink:href="#zoomPlus" x="17" y="9" onmousedown="handleZoom(evt,'in')"/>
                <use id="zoomminus" xlink:href="#zoomMin" x="42" y="9" onmousedown="handleZoom(evt,'out')"/>
                <use id="reset" xlink:href="#resetDef" x="30" y="36" onmousedown="handleReset()"/>
                <g id="arrowUp" xlink:href="#dirArrow" transform="translate(30 24)" onmousedown="handlePan(0,-1)">
                  <use xlink:href="#rim" fill="#404040">
                        <set attributeName="fill" to="#808080" begin="arrowUp.mouseover" end="arrowUp.mouseout"/>
                  </use>
                  <path fill="none" stroke="white" stroke-width="1.5" d="M0,-3.0v7 M-2.5,-0.5L0,-3.0L2.5,-0.5"/>
                </g>
                <g id="arrowRight" xlink:href="#dirArrow" transform="rotate(90) translate(36 -43)" onmousedown="handlePan(1,0)">
                  <use xlink:href="#rim" fill="#404040">
                        <set attributeName="fill" to="#808080" begin="arrowRight.mouseover" end="arrowRight.mouseout"/>
                  </use>
                  <path fill="none" stroke="white" stroke-width="1.5" d="M0,-3.0v7 M-2.5,-0.5L0,-3.0L2.5,-0.5"/>
                </g>
                <g id="arrowDown" xlink:href="#dirArrow" transform="rotate(180) translate(-30 -48)" onmousedown="handlePan(0,1)">
                  <use xlink:href="#rim" fill="#404040">
                        <set attributeName="fill" to="#808080" begin="arrowDown.mouseover" end="arrowDown.mouseout"/>
                  </use>
                  <path fill="none" stroke="white" stroke-width="1.5" d="M0,-3.0v7 M-2.5,-0.5L0,-3.0L2.5,-0.5"/>
                </g>
                <g id="arrowLeft" xlink:href="#dirArrow" transform="rotate(270) translate(-36 17)" onmousedown="handlePan(-1,0)">
                  <use xlink:href="#rim" fill="#404040">
                        <set attributeName="fill" to="#808080" begin="arrowLeft.mouseover" end="arrowLeft.mouseout"/>
                  </use>
                  <path fill="none" stroke="white" stroke-width="1.5" d="M0,-3.0v7 M-2.5,-0.5L0,-3.0L2.5,-0.5"/>
                </g>
        </g>
        <svg viewBox="0 0 15 15" width="100%" height="30px" preserveAspectRatio="xMaxYMin meet">
         <g id="arrow_out" transform="scale(0.3 0.3)">
          <a xlink:href="classcie_1_1gl_1_1Arrow__coll__graph_org.svg" target="_base">
           <rect id="button" ry="5" rx="5" y="6" x="6" height="38" width="38"
                fill="#f2f5e9" fill-opacity="0.5" stroke="#606060" stroke-width="1.0"/>
           <path id="arrow"
             d="M 11.500037,31.436501 C 11.940474,20.09759 22.043105,11.32322 32.158766,21.979434 L 37.068811,17.246167 C 37.068811,17.246167 37.088388,32 37.088388,32 L 22.160133,31.978069 C 22.160133,31.978069 26.997745,27.140456 26.997745,27.140456 C 18.528582,18.264221 13.291696,25.230495 11.500037,31.436501 z"
             style="fill:#404040;"/>
          </a>
         </g>
        </svg>
</svg>
