<?xml version="1.0" encoding="UTF-8" standalone="no"?>
<!DOCTYPE svg PUBLIC "-//W3C//DTD SVG 1.1//EN"
 "http://www.w3.org/Graphics/SVG/1.1/DTD/svg11.dtd">
<!-- Generated by graphviz version 2.43.0 (0)
 -->
<!-- Title: cie::gl::Triangulated3DPartScene Pages: 1 -->
<!--zoomable 948 -->
<svg id="main" version="1.1" xmlns="http://www.w3.org/2000/svg" xmlns:xlink="http://www.w3.org/1999/xlink" xml:space="preserve" onload="init(evt)">
<style type="text/css"><![CDATA[
.edge:hover path { stroke: red; }
.edge:hover polygon { stroke: red; fill: red; }
]]></style>
<script type="text/javascript"><![CDATA[
var edges = document.getElementsByTagName('g');
if (edges && edges.length) {
  for (var i=0;i<edges.length;i++) {
    if (edges[i].id.substr(0,4)=='edge') {
      edges[i].setAttribute('class','edge');
    }
  }
}
]]></script>
        <defs>
                <circle id="rim" cx="0" cy="0" r="7"/>
                <circle id="rim2" cx="0" cy="0" r="3.5"/>
                <g id="zoomPlus">
                        <use xlink:href="#rim" fill="#404040">
                                <set attributeName="fill" to="#808080" begin="zoomplus.mouseover" end="zoomplus.mouseout"/>
                        </use>
                        <path d="M-4,0h8M0,-4v8" fill="none" stroke="white" stroke-width="1.5" pointer-events="none"/>
                </g>
                <g id="zoomMin">
                        <use xlink:href="#rim" fill="#404040">
                                <set attributeName="fill" to="#808080" begin="zoomminus.mouseover" end="zoomminus.mouseout"/>
                        </use>
                        <path d="M-4,0h8" fill="none" stroke="white" stroke-width="1.5" pointer-events="none"/>
                </g>
                <g id="dirArrow">
                        <path fill="none" stroke="white" stroke-width="1.5" d="M0,-3.0v7 M-2.5,-0.5L0,-3.0L2.5,-0.5"/>
                </g>
               <g id="resetDef">
                       <use xlink:href="#rim2" fill="#404040">
                               <set attributeName="fill" to="#808080" begin="reset.mouseover" end="reset.mouseout"/>
                       </use>
               </g>
        </defs>

<script type="text/javascript">
var viewWidth = 248;
var viewHeight = 948;
var sectionId = 'dynsection-0';
</script>
<script xlink:href="svgpan.js"/>
<svg id="graph" class="graph">
<g id="viewport">
<title>cie::gl::Triangulated3DPartScene</title>
<polygon fill="white" stroke="transparent" points="-4,4 -4,-944 243.5,-944 243.5,4 -4,4"/>
<!-- Node1 -->
<g id="node1" class="node">
<title>Node1</title>
<g id="a_node1"><a xlink:title=" ">
<polygon fill="#bfbfbf" stroke="black" points="47,-0.5 47,-90.5 204,-90.5 204,-0.5 47,-0.5"/>
<text text-anchor="start" x="55" y="-78.5" font-family="Helvetica,sans-Serif" font-size="10.00">cie::gl::Triangulated3DPart</text>
<text text-anchor="middle" x="125.5" y="-67.5" font-family="Helvetica,sans-Serif" font-size="10.00">Scene</text>
<polyline fill="none" stroke="black" points="47,-60.5 204,-60.5 "/>
<text text-anchor="middle" x="125.5" y="-48.5" font-family="Helvetica,sans-Serif" font-size="10.00"> </text>
<polyline fill="none" stroke="black" points="47,-41.5 204,-41.5 "/>
<text text-anchor="start" x="55" y="-29.5" font-family="Helvetica,sans-Serif" font-size="10.00">+ Triangulated3DPartScene()</text>
<text text-anchor="start" x="55" y="-18.5" font-family="Helvetica,sans-Serif" font-size="10.00"># update_impl()</text>
<text text-anchor="start" x="55" y="-7.5" font-family="Helvetica,sans-Serif" font-size="10.00"># Triangulated3DPartScene()</text>
</a>
</g>
</g>
<!-- Node2 -->
<g id="node2" class="node">
<title>Node2</title>
<g id="a_node2"><a xlink:href="classcie_1_1gl_1_1PartScene.html" target="_top" xlink:title=" ">
<polygon fill="white" stroke="black" points="60,-127.5 60,-250.5 191,-250.5 191,-127.5 60,-127.5"/>
<text text-anchor="middle" x="125.5" y="-238.5" font-family="Helvetica,sans-Serif" font-size="10.00">cie::gl::PartScene</text>
<polyline fill="none" stroke="black" points="60,-231.5 191,-231.5 "/>
<text text-anchor="start" x="68" y="-219.5" font-family="Helvetica,sans-Serif" font-size="10.00"># _parts</text>
<text text-anchor="start" x="68" y="-208.5" font-family="Helvetica,sans-Serif" font-size="10.00"># _partsRequireUpdate</text>
<polyline fill="none" stroke="black" points="60,-201.5 191,-201.5 "/>
<text text-anchor="start" x="68" y="-189.5" font-family="Helvetica,sans-Serif" font-size="10.00">+ PartScene()</text>
<text text-anchor="start" x="68" y="-178.5" font-family="Helvetica,sans-Serif" font-size="10.00">+ addPart()</text>
<text text-anchor="start" x="68" y="-167.5" font-family="Helvetica,sans-Serif" font-size="10.00">+ removePart()</text>
<text text-anchor="start" x="68" y="-156.5" font-family="Helvetica,sans-Serif" font-size="10.00">+ parts()</text>
<text text-anchor="start" x="68" y="-145.5" font-family="Helvetica,sans-Serif" font-size="10.00">+ updateParts()</text>
<text text-anchor="start" x="68" y="-134.5" font-family="Helvetica,sans-Serif" font-size="10.00">+ update_impl()</text>
</a>
</g>
</g>
<!-- Node2&#45;&gt;Node1 -->
<g id="edge1" class="edge">
<title>Node2&#45;&gt;Node1</title>
<path fill="none" stroke="midnightblue" d="M125.5,-117.03C125.5,-108.03 125.5,-99.03 125.5,-90.62"/>
<polygon fill="none" stroke="midnightblue" points="122,-117.17 125.5,-127.17 129,-117.17 122,-117.17"/>
</g>
<!-- Node3 -->
<g id="node3" class="node">
<title>Node3</title>
<g id="a_node3"><a xlink:href="classcie_1_1gl_1_1Scene.html" target="_top" xlink:title=" ">
<polygon fill="white" stroke="black" points="63,-287.5 63,-553.5 188,-553.5 188,-287.5 63,-287.5"/>
<text text-anchor="middle" x="125.5" y="-541.5" font-family="Helvetica,sans-Serif" font-size="10.00">cie::gl::Scene</text>
<polyline fill="none" stroke="black" points="63,-534.5 188,-534.5 "/>
<text text-anchor="start" x="71" y="-522.5" font-family="Helvetica,sans-Serif" font-size="10.00"># _cameras</text>
<text text-anchor="start" x="71" y="-511.5" font-family="Helvetica,sans-Serif" font-size="10.00"># _p_vertexShader</text>
<text text-anchor="start" x="71" y="-500.5" font-family="Helvetica,sans-Serif" font-size="10.00"># _p_geometryShader</text>
<text text-anchor="start" x="71" y="-489.5" font-family="Helvetica,sans-Serif" font-size="10.00"># _p_fragmentShader</text>
<text text-anchor="start" x="71" y="-478.5" font-family="Helvetica,sans-Serif" font-size="10.00"># _p_bufferManager</text>
<text text-anchor="start" x="71" y="-467.5" font-family="Helvetica,sans-Serif" font-size="10.00"># _uniforms</text>
<text text-anchor="start" x="71" y="-456.5" font-family="Helvetica,sans-Serif" font-size="10.00"># _textures</text>
<text text-anchor="start" x="71" y="-445.5" font-family="Helvetica,sans-Serif" font-size="10.00"># _vaoID</text>
<text text-anchor="start" x="71" y="-434.5" font-family="Helvetica,sans-Serif" font-size="10.00"># _activeSceneID</text>
<polyline fill="none" stroke="black" points="63,-427.5 188,-427.5 "/>
<text text-anchor="start" x="71" y="-415.5" font-family="Helvetica,sans-Serif" font-size="10.00">+ Scene()</text>
<text text-anchor="start" x="71" y="-404.5" font-family="Helvetica,sans-Serif" font-size="10.00">+ ~Scene()</text>
<text text-anchor="start" x="71" y="-393.5" font-family="Helvetica,sans-Serif" font-size="10.00">+ update()</text>
<text text-anchor="start" x="71" y="-382.5" font-family="Helvetica,sans-Serif" font-size="10.00">+ activate()</text>
<text text-anchor="start" x="71" y="-371.5" font-family="Helvetica,sans-Serif" font-size="10.00">+ isActive()</text>
<text text-anchor="start" x="71" y="-360.5" font-family="Helvetica,sans-Serif" font-size="10.00">+ makeCamera()</text>
<text text-anchor="start" x="71" y="-349.5" font-family="Helvetica,sans-Serif" font-size="10.00">+ addCamera()</text>
<text text-anchor="start" x="71" y="-338.5" font-family="Helvetica,sans-Serif" font-size="10.00">+ removeCamera()</text>
<text text-anchor="start" x="71" y="-327.5" font-family="Helvetica,sans-Serif" font-size="10.00">+ cameras()</text>
<text text-anchor="start" x="71" y="-316.5" font-family="Helvetica,sans-Serif" font-size="10.00">+ camera()</text>
<text text-anchor="start" x="71" y="-305.5" font-family="Helvetica,sans-Serif" font-size="10.00">and 15 more...</text>
<text text-anchor="start" x="71" y="-294.5" font-family="Helvetica,sans-Serif" font-size="10.00"># update_impl()</text>
</a>
</g>
</g>
<!-- Node3&#45;&gt;Node2 -->
<g id="edge2" class="edge">
<title>Node3&#45;&gt;Node2</title>
<path fill="none" stroke="midnightblue" d="M125.5,-277.24C125.5,-268.02 125.5,-259.06 125.5,-250.6"/>
<polygon fill="none" stroke="midnightblue" points="122,-277.33 125.5,-287.33 129,-277.33 122,-277.33"/>
</g>
<!-- Node4 -->
<g id="node4" class="node">
<title>Node4</title>
<g id="a_node4"><a target="_parent" xlink:href="../../../cieutils/docs/html/classcie_1_1utils_1_1Loggee.html" xlink:title=" ">
<polygon fill="white" stroke="black" points="16,-590.5 16,-746.5 115,-746.5 115,-590.5 16,-590.5"/>
<text text-anchor="middle" x="65.5" y="-734.5" font-family="Helvetica,sans-Serif" font-size="10.00">cie::utils::Loggee</text>
<polyline fill="none" stroke="black" points="16,-727.5 115,-727.5 "/>
<text text-anchor="middle" x="65.5" y="-715.5" font-family="Helvetica,sans-Serif" font-size="10.00"> </text>
<polyline fill="none" stroke="black" points="16,-708.5 115,-708.5 "/>
<text text-anchor="start" x="24" y="-696.5" font-family="Helvetica,sans-Serif" font-size="10.00">+ Loggee()</text>
<text text-anchor="start" x="24" y="-685.5" font-family="Helvetica,sans-Serif" font-size="10.00">+ ~Loggee()</text>
<text text-anchor="start" x="24" y="-674.5" font-family="Helvetica,sans-Serif" font-size="10.00">+ log()</text>
<text text-anchor="start" x="24" y="-663.5" font-family="Helvetica,sans-Serif" font-size="10.00">+ logID()</text>
<text text-anchor="start" x="24" y="-652.5" font-family="Helvetica,sans-Serif" font-size="10.00">+ tic()</text>
<text text-anchor="start" x="24" y="-641.5" font-family="Helvetica,sans-Serif" font-size="10.00">+ toc()</text>
<text text-anchor="start" x="24" y="-630.5" font-family="Helvetica,sans-Serif" font-size="10.00">+ toc()</text>
<text text-anchor="start" x="24" y="-619.5" font-family="Helvetica,sans-Serif" font-size="10.00">+ newBlock()</text>
<text text-anchor="start" x="24" y="-608.5" font-family="Helvetica,sans-Serif" font-size="10.00">+ separate()</text>
<text text-anchor="start" x="24" y="-597.5" font-family="Helvetica,sans-Serif" font-size="10.00"># logger()</text>
</a>
</g>
</g>
<!-- Node4&#45;&gt;Node3 -->
<g id="edge3" class="edge">
<title>Node4&#45;&gt;Node3</title>
<path fill="none" stroke="midnightblue" d="M86.69,-580.61C88.82,-571.89 91.01,-562.89 93.22,-553.83"/>
<polygon fill="none" stroke="midnightblue" points="83.29,-579.79 84.32,-590.34 90.09,-581.45 83.29,-579.79"/>
</g>
<!-- Node5 -->
<g id="node5" class="node">
<title>Node5</title>
<g id="a_node5"><a target="_parent" xlink:href="../../../cieutils/docs/html/classcie_1_1utils_1_1NamedObject.html" xlink:title=" ">
<polygon fill="white" stroke="black" points="0,-783.5 0,-939.5 131,-939.5 131,-783.5 0,-783.5"/>
<text text-anchor="middle" x="65.5" y="-927.5" font-family="Helvetica,sans-Serif" font-size="10.00">cie::utils::NamedObject</text>
<polyline fill="none" stroke="black" points="0,-920.5 131,-920.5 "/>
<text text-anchor="middle" x="65.5" y="-908.5" font-family="Helvetica,sans-Serif" font-size="10.00"> </text>
<polyline fill="none" stroke="black" points="0,-901.5 131,-901.5 "/>
<text text-anchor="start" x="8" y="-889.5" font-family="Helvetica,sans-Serif" font-size="10.00">+ NamedObject()</text>
<text text-anchor="start" x="8" y="-878.5" font-family="Helvetica,sans-Serif" font-size="10.00">+ NamedObject()</text>
<text text-anchor="start" x="8" y="-867.5" font-family="Helvetica,sans-Serif" font-size="10.00">+ NamedObject()</text>
<text text-anchor="start" x="8" y="-856.5" font-family="Helvetica,sans-Serif" font-size="10.00">+ NamedObject()</text>
<text text-anchor="start" x="8" y="-845.5" font-family="Helvetica,sans-Serif" font-size="10.00">+ operator=()</text>
<text text-anchor="start" x="8" y="-834.5" font-family="Helvetica,sans-Serif" font-size="10.00">+ operator=()</text>
<text text-anchor="start" x="8" y="-823.5" font-family="Helvetica,sans-Serif" font-size="10.00">+ name()</text>
<text text-anchor="start" x="8" y="-812.5" font-family="Helvetica,sans-Serif" font-size="10.00">+ setName()</text>
<text text-anchor="start" x="8" y="-801.5" font-family="Helvetica,sans-Serif" font-size="10.00">+ setName()</text>
<text text-anchor="start" x="8" y="-790.5" font-family="Helvetica,sans-Serif" font-size="10.00">+ ~NamedObject()</text>
</a>
</g>
</g>
<!-- Node5&#45;&gt;Node4 -->
<g id="edge4" class="edge">
<title>Node5&#45;&gt;Node4</title>
<path fill="none" stroke="midnightblue" d="M65.5,-773.35C65.5,-764.43 65.5,-755.41 65.5,-746.61"/>
<polygon fill="none" stroke="midnightblue" points="62,-773.36 65.5,-783.36 69,-773.36 62,-773.36"/>
</g>
<!-- Node6 -->
<g id="node6" class="node">
<title>Node6</title>
<g id="a_node6"><a target="_parent" xlink:href="../../../cieutils/docs/html/classcie_1_1utils_1_1IDObject.html" xlink:title=" ">
<polygon fill="white" stroke="black" points="133.5,-596 133.5,-741 239.5,-741 239.5,-596 133.5,-596"/>
<text text-anchor="start" x="141.5" y="-729" font-family="Helvetica,sans-Serif" font-size="10.00">cie::utils::IDObject</text>
<text text-anchor="middle" x="186.5" y="-718" font-family="Helvetica,sans-Serif" font-size="10.00">&lt; class &gt;</text>
<polyline fill="none" stroke="black" points="133.5,-711 239.5,-711 "/>
<text text-anchor="start" x="141.5" y="-699" font-family="Helvetica,sans-Serif" font-size="10.00"># _id</text>
<polyline fill="none" stroke="black" points="133.5,-692 239.5,-692 "/>
<text text-anchor="start" x="141.5" y="-680" font-family="Helvetica,sans-Serif" font-size="10.00">+ IDObject()</text>
<text text-anchor="start" x="141.5" y="-669" font-family="Helvetica,sans-Serif" font-size="10.00">+ IDObject()</text>
<text text-anchor="start" x="141.5" y="-658" font-family="Helvetica,sans-Serif" font-size="10.00">+ IDObject()</text>
<text text-anchor="start" x="141.5" y="-647" font-family="Helvetica,sans-Serif" font-size="10.00">+ IDObject()</text>
<text text-anchor="start" x="141.5" y="-636" font-family="Helvetica,sans-Serif" font-size="10.00">+ operator=()</text>
<text text-anchor="start" x="141.5" y="-625" font-family="Helvetica,sans-Serif" font-size="10.00">+ operator=()</text>
<text text-anchor="start" x="141.5" y="-614" font-family="Helvetica,sans-Serif" font-size="10.00">+ setID()</text>
<text text-anchor="start" x="141.5" y="-603" font-family="Helvetica,sans-Serif" font-size="10.00">+ getID()</text>
</a>
</g>
</g>
<!-- Node6&#45;&gt;Node3 -->
<g id="edge5" class="edge">
<title>Node6&#45;&gt;Node3</title>
<path fill="none" stroke="midnightblue" d="M166.25,-585.84C163.67,-575.41 160.97,-564.54 158.25,-553.57"/>
<polygon fill="none" stroke="midnightblue" points="162.89,-586.82 168.69,-595.69 169.68,-585.14 162.89,-586.82"/>
</g>
</g>
</svg>
        <g id="navigator" transform="translate(0 0)" fill="#404254">
                <rect fill="#f2f5e9" fill-opacity="0.5" stroke="#606060" stroke-width=".5" x="0" y="0" width="60" height="60"/>
                <use id="zoomplus" xlink:href="#zoomPlus" x="17" y="9" onmousedown="handleZoom(evt,'in')"/>
                <use id="zoomminus" xlink:href="#zoomMin" x="42" y="9" onmousedown="handleZoom(evt,'out')"/>
                <use id="reset" xlink:href="#resetDef" x="30" y="36" onmousedown="handleReset()"/>
                <g id="arrowUp" xlink:href="#dirArrow" transform="translate(30 24)" onmousedown="handlePan(0,-1)">
                  <use xlink:href="#rim" fill="#404040">
                        <set attributeName="fill" to="#808080" begin="arrowUp.mouseover" end="arrowUp.mouseout"/>
                  </use>
                  <path fill="none" stroke="white" stroke-width="1.5" d="M0,-3.0v7 M-2.5,-0.5L0,-3.0L2.5,-0.5"/>
                </g>
                <g id="arrowRight" xlink:href="#dirArrow" transform="rotate(90) translate(36 -43)" onmousedown="handlePan(1,0)">
                  <use xlink:href="#rim" fill="#404040">
                        <set attributeName="fill" to="#808080" begin="arrowRight.mouseover" end="arrowRight.mouseout"/>
                  </use>
                  <path fill="none" stroke="white" stroke-width="1.5" d="M0,-3.0v7 M-2.5,-0.5L0,-3.0L2.5,-0.5"/>
                </g>
                <g id="arrowDown" xlink:href="#dirArrow" transform="rotate(180) translate(-30 -48)" onmousedown="handlePan(0,1)">
                  <use xlink:href="#rim" fill="#404040">
                        <set attributeName="fill" to="#808080" begin="arrowDown.mouseover" end="arrowDown.mouseout"/>
                  </use>
                  <path fill="none" stroke="white" stroke-width="1.5" d="M0,-3.0v7 M-2.5,-0.5L0,-3.0L2.5,-0.5"/>
                </g>
                <g id="arrowLeft" xlink:href="#dirArrow" transform="rotate(270) translate(-36 17)" onmousedown="handlePan(-1,0)">
                  <use xlink:href="#rim" fill="#404040">
                        <set attributeName="fill" to="#808080" begin="arrowLeft.mouseover" end="arrowLeft.mouseout"/>
                  </use>
                  <path fill="none" stroke="white" stroke-width="1.5" d="M0,-3.0v7 M-2.5,-0.5L0,-3.0L2.5,-0.5"/>
                </g>
        </g>
        <svg viewBox="0 0 15 15" width="100%" height="30px" preserveAspectRatio="xMaxYMin meet">
         <g id="arrow_out" transform="scale(0.3 0.3)">
          <a xlink:href="classcie_1_1gl_1_1Triangulated3DPartScene__inherit__graph_org.svg" target="_base">
           <rect id="button" ry="5" rx="5" y="6" x="6" height="38" width="38"
                fill="#f2f5e9" fill-opacity="0.5" stroke="#606060" stroke-width="1.0"/>
           <path id="arrow"
             d="M 11.500037,31.436501 C 11.940474,20.09759 22.043105,11.32322 32.158766,21.979434 L 37.068811,17.246167 C 37.068811,17.246167 37.088388,32 37.088388,32 L 22.160133,31.978069 C 22.160133,31.978069 26.997745,27.140456 26.997745,27.140456 C 18.528582,18.264221 13.291696,25.230495 11.500037,31.436501 z"
             style="fill:#404040;"/>
          </a>
         </g>
        </svg>
</svg>
