<?xml version="1.0" encoding="UTF-8" standalone="no"?>
<!DOCTYPE svg PUBLIC "-//W3C//DTD SVG 1.1//EN"
 "http://www.w3.org/Graphics/SVG/1.1/DTD/svg11.dtd">
<!-- Generated by graphviz version 2.43.0 (0)
 -->
<!-- Title: cie::gl::AbsWindow Pages: 1 -->
<svg width="363pt" height="876pt"
 viewBox="0.00 0.00 362.50 876.00" xmlns="http://www.w3.org/2000/svg" xmlns:xlink="http://www.w3.org/1999/xlink">
<g id="graph0" class="graph" transform="scale(1 1) rotate(0) translate(4 872)">
<title>cie::gl::AbsWindow</title>
<polygon fill="white" stroke="transparent" points="-4,4 -4,-872 358.5,-872 358.5,4 -4,4"/>
<!-- Node1 -->
<g id="node1" class="node">
<title>Node1</title>
<g id="a_node1"><a xlink:title=" ">
<polygon fill="#bfbfbf" stroke="black" points="83.5,-160.5 83.5,-470.5 264.5,-470.5 264.5,-160.5 83.5,-160.5"/>
<text text-anchor="middle" x="174" y="-458.5" font-family="Helvetica,sans-Serif" font-size="10.00">cie::gl::AbsWindow</text>
<polyline fill="none" stroke="black" points="83.5,-451.5 264.5,-451.5 "/>
<text text-anchor="start" x="91.5" y="-439.5" font-family="Helvetica,sans-Serif" font-size="10.00"># _size</text>
<text text-anchor="start" x="91.5" y="-428.5" font-family="Helvetica,sans-Serif" font-size="10.00"># _scenes</text>
<text text-anchor="start" x="91.5" y="-417.5" font-family="Helvetica,sans-Serif" font-size="10.00"># _continueLooping</text>
<polyline fill="none" stroke="black" points="83.5,-410.5 264.5,-410.5 "/>
<text text-anchor="start" x="91.5" y="-398.5" font-family="Helvetica,sans-Serif" font-size="10.00">+ ~AbsWindow()</text>
<text text-anchor="start" x="91.5" y="-387.5" font-family="Helvetica,sans-Serif" font-size="10.00">+ update()</text>
<text text-anchor="start" x="91.5" y="-376.5" font-family="Helvetica,sans-Serif" font-size="10.00">+ activate()</text>
<text text-anchor="start" x="91.5" y="-365.5" font-family="Helvetica,sans-Serif" font-size="10.00">+ setSize()</text>
<text text-anchor="start" x="91.5" y="-354.5" font-family="Helvetica,sans-Serif" font-size="10.00">+ setSize()</text>
<text text-anchor="start" x="91.5" y="-343.5" font-family="Helvetica,sans-Serif" font-size="10.00">+ getSize()</text>
<text text-anchor="start" x="91.5" y="-332.5" font-family="Helvetica,sans-Serif" font-size="10.00">+ getAspectRatio()</text>
<text text-anchor="start" x="91.5" y="-321.5" font-family="Helvetica,sans-Serif" font-size="10.00">+ makeScene()</text>
<text text-anchor="start" x="91.5" y="-310.5" font-family="Helvetica,sans-Serif" font-size="10.00">+ removeScene()</text>
<text text-anchor="start" x="91.5" y="-299.5" font-family="Helvetica,sans-Serif" font-size="10.00">+ scenes()</text>
<text text-anchor="start" x="91.5" y="-288.5" font-family="Helvetica,sans-Serif" font-size="10.00">and 10 more...</text>
<text text-anchor="start" x="91.5" y="-277.5" font-family="Helvetica,sans-Serif" font-size="10.00"># AbsWindow()</text>
<text text-anchor="start" x="91.5" y="-266.5" font-family="Helvetica,sans-Serif" font-size="10.00"># addScene()</text>
<text text-anchor="start" x="91.5" y="-255.5" font-family="Helvetica,sans-Serif" font-size="10.00"># setSizeImpl()</text>
<text text-anchor="start" x="91.5" y="-244.5" font-family="Helvetica,sans-Serif" font-size="10.00"># updateImpl()</text>
<text text-anchor="start" x="91.5" y="-233.5" font-family="Helvetica,sans-Serif" font-size="10.00"># setWindowName()</text>
<text text-anchor="start" x="91.5" y="-222.5" font-family="Helvetica,sans-Serif" font-size="10.00"># triggerMouseButtonCallback()</text>
<text text-anchor="start" x="91.5" y="-211.5" font-family="Helvetica,sans-Serif" font-size="10.00"># triggerCursorPositionCallback()</text>
<text text-anchor="start" x="91.5" y="-200.5" font-family="Helvetica,sans-Serif" font-size="10.00"># triggerCursorEnterCallback()</text>
<text text-anchor="start" x="91.5" y="-189.5" font-family="Helvetica,sans-Serif" font-size="10.00"># triggerScrollCallback()</text>
<text text-anchor="start" x="91.5" y="-178.5" font-family="Helvetica,sans-Serif" font-size="10.00"># triggerKeyboardCallback()</text>
<text text-anchor="start" x="91.5" y="-167.5" font-family="Helvetica,sans-Serif" font-size="10.00"># triggerWindowResizeCallback()</text>
</a>
</g>
</g>
<!-- Node6 -->
<g id="node6" class="node">
<title>Node6</title>
<g id="a_node6"><a xlink:href="classcie_1_1gl_1_1GLFWWindow.html" target="_top" xlink:title=" ">
<polygon fill="white" stroke="black" points="114.5,-0.5 114.5,-123.5 233.5,-123.5 233.5,-0.5 114.5,-0.5"/>
<text text-anchor="middle" x="174" y="-111.5" font-family="Helvetica,sans-Serif" font-size="10.00">cie::gl::GLFWWindow</text>
<polyline fill="none" stroke="black" points="114.5,-104.5 233.5,-104.5 "/>
<text text-anchor="middle" x="174" y="-92.5" font-family="Helvetica,sans-Serif" font-size="10.00"> </text>
<polyline fill="none" stroke="black" points="114.5,-85.5 233.5,-85.5 "/>
<text text-anchor="start" x="122.5" y="-73.5" font-family="Helvetica,sans-Serif" font-size="10.00">+ ~GLFWWindow()</text>
<text text-anchor="start" x="122.5" y="-62.5" font-family="Helvetica,sans-Serif" font-size="10.00">+ activate()</text>
<text text-anchor="start" x="122.5" y="-51.5" font-family="Helvetica,sans-Serif" font-size="10.00">+ get()</text>
<text text-anchor="start" x="122.5" y="-40.5" font-family="Helvetica,sans-Serif" font-size="10.00">+ get()</text>
<text text-anchor="start" x="122.5" y="-29.5" font-family="Helvetica,sans-Serif" font-size="10.00"># setSizeImpl()</text>
<text text-anchor="start" x="122.5" y="-18.5" font-family="Helvetica,sans-Serif" font-size="10.00"># updateImpl()</text>
<text text-anchor="start" x="122.5" y="-7.5" font-family="Helvetica,sans-Serif" font-size="10.00"># setWindowName()</text>
</a>
</g>
</g>
<!-- Node1&#45;&gt;Node6 -->
<g id="edge5" class="edge">
<title>Node1&#45;&gt;Node6</title>
<path fill="none" stroke="midnightblue" d="M174,-150.13C174,-140.91 174,-132 174,-123.62"/>
<polygon fill="none" stroke="midnightblue" points="170.5,-150.24 174,-160.24 177.5,-150.24 170.5,-150.24"/>
</g>
<!-- Node2 -->
<g id="node2" class="node">
<title>Node2</title>
<g id="a_node2"><a target="_parent" xlink:href="../../../cieutils/docs/html/classcie_1_1utils_1_1IDObject.html" xlink:title=" ">
<polygon fill="white" stroke="black" points="0,-518.5 0,-663.5 106,-663.5 106,-518.5 0,-518.5"/>
<text text-anchor="start" x="8" y="-651.5" font-family="Helvetica,sans-Serif" font-size="10.00">cie::utils::IDObject</text>
<text text-anchor="middle" x="53" y="-640.5" font-family="Helvetica,sans-Serif" font-size="10.00">&lt; class &gt;</text>
<polyline fill="none" stroke="black" points="0,-633.5 106,-633.5 "/>
<text text-anchor="start" x="8" y="-621.5" font-family="Helvetica,sans-Serif" font-size="10.00"># _id</text>
<polyline fill="none" stroke="black" points="0,-614.5 106,-614.5 "/>
<text text-anchor="start" x="8" y="-602.5" font-family="Helvetica,sans-Serif" font-size="10.00">+ IDObject()</text>
<text text-anchor="start" x="8" y="-591.5" font-family="Helvetica,sans-Serif" font-size="10.00">+ IDObject()</text>
<text text-anchor="start" x="8" y="-580.5" font-family="Helvetica,sans-Serif" font-size="10.00">+ IDObject()</text>
<text text-anchor="start" x="8" y="-569.5" font-family="Helvetica,sans-Serif" font-size="10.00">+ IDObject()</text>
<text text-anchor="start" x="8" y="-558.5" font-family="Helvetica,sans-Serif" font-size="10.00">+ operator=()</text>
<text text-anchor="start" x="8" y="-547.5" font-family="Helvetica,sans-Serif" font-size="10.00">+ operator=()</text>
<text text-anchor="start" x="8" y="-536.5" font-family="Helvetica,sans-Serif" font-size="10.00">+ setID()</text>
<text text-anchor="start" x="8" y="-525.5" font-family="Helvetica,sans-Serif" font-size="10.00">+ getID()</text>
</a>
</g>
</g>
<!-- Node2&#45;&gt;Node1 -->
<g id="edge1" class="edge">
<title>Node2&#45;&gt;Node1</title>
<path fill="none" stroke="midnightblue" d="M88.74,-509.22C94.19,-496.9 99.97,-483.84 105.84,-470.56"/>
<polygon fill="none" stroke="midnightblue" points="85.48,-507.94 84.63,-518.5 91.88,-510.77 85.48,-507.94"/>
</g>
<!-- Node3 -->
<g id="node3" class="node">
<title>Node3</title>
<g id="a_node3"><a target="_parent" xlink:href="../../../cieutils/docs/html/classcie_1_1utils_1_1Loggee.html" xlink:title=" ">
<polygon fill="white" stroke="black" points="124.5,-513 124.5,-669 223.5,-669 223.5,-513 124.5,-513"/>
<text text-anchor="middle" x="174" y="-657" font-family="Helvetica,sans-Serif" font-size="10.00">cie::utils::Loggee</text>
<polyline fill="none" stroke="black" points="124.5,-650 223.5,-650 "/>
<text text-anchor="middle" x="174" y="-638" font-family="Helvetica,sans-Serif" font-size="10.00"> </text>
<polyline fill="none" stroke="black" points="124.5,-631 223.5,-631 "/>
<text text-anchor="start" x="132.5" y="-619" font-family="Helvetica,sans-Serif" font-size="10.00">+ Loggee()</text>
<text text-anchor="start" x="132.5" y="-608" font-family="Helvetica,sans-Serif" font-size="10.00">+ ~Loggee()</text>
<text text-anchor="start" x="132.5" y="-597" font-family="Helvetica,sans-Serif" font-size="10.00">+ log()</text>
<text text-anchor="start" x="132.5" y="-586" font-family="Helvetica,sans-Serif" font-size="10.00">+ logID()</text>
<text text-anchor="start" x="132.5" y="-575" font-family="Helvetica,sans-Serif" font-size="10.00">+ tic()</text>
<text text-anchor="start" x="132.5" y="-564" font-family="Helvetica,sans-Serif" font-size="10.00">+ toc()</text>
<text text-anchor="start" x="132.5" y="-553" font-family="Helvetica,sans-Serif" font-size="10.00">+ toc()</text>
<text text-anchor="start" x="132.5" y="-542" font-family="Helvetica,sans-Serif" font-size="10.00">+ newBlock()</text>
<text text-anchor="start" x="132.5" y="-531" font-family="Helvetica,sans-Serif" font-size="10.00">+ separate()</text>
<text text-anchor="start" x="132.5" y="-520" font-family="Helvetica,sans-Serif" font-size="10.00"># logger()</text>
</a>
</g>
</g>
<!-- Node3&#45;&gt;Node1 -->
<g id="edge2" class="edge">
<title>Node3&#45;&gt;Node1</title>
<path fill="none" stroke="midnightblue" d="M174,-502.55C174,-492.21 174,-481.45 174,-470.54"/>
<polygon fill="none" stroke="midnightblue" points="170.5,-502.72 174,-512.72 177.5,-502.72 170.5,-502.72"/>
</g>
<!-- Node4 -->
<g id="node4" class="node">
<title>Node4</title>
<g id="a_node4"><a target="_parent" xlink:href="../../../cieutils/docs/html/classcie_1_1utils_1_1NamedObject.html" xlink:title=" ">
<polygon fill="white" stroke="black" points="108.5,-711.5 108.5,-867.5 239.5,-867.5 239.5,-711.5 108.5,-711.5"/>
<text text-anchor="middle" x="174" y="-855.5" font-family="Helvetica,sans-Serif" font-size="10.00">cie::utils::NamedObject</text>
<polyline fill="none" stroke="black" points="108.5,-848.5 239.5,-848.5 "/>
<text text-anchor="middle" x="174" y="-836.5" font-family="Helvetica,sans-Serif" font-size="10.00"> </text>
<polyline fill="none" stroke="black" points="108.5,-829.5 239.5,-829.5 "/>
<text text-anchor="start" x="116.5" y="-817.5" font-family="Helvetica,sans-Serif" font-size="10.00">+ NamedObject()</text>
<text text-anchor="start" x="116.5" y="-806.5" font-family="Helvetica,sans-Serif" font-size="10.00">+ NamedObject()</text>
<text text-anchor="start" x="116.5" y="-795.5" font-family="Helvetica,sans-Serif" font-size="10.00">+ NamedObject()</text>
<text text-anchor="start" x="116.5" y="-784.5" font-family="Helvetica,sans-Serif" font-size="10.00">+ NamedObject()</text>
<text text-anchor="start" x="116.5" y="-773.5" font-family="Helvetica,sans-Serif" font-size="10.00">+ operator=()</text>
<text text-anchor="start" x="116.5" y="-762.5" font-family="Helvetica,sans-Serif" font-size="10.00">+ operator=()</text>
<text text-anchor="start" x="116.5" y="-751.5" font-family="Helvetica,sans-Serif" font-size="10.00">+ name()</text>
<text text-anchor="start" x="116.5" y="-740.5" font-family="Helvetica,sans-Serif" font-size="10.00">+ setName()</text>
<text text-anchor="start" x="116.5" y="-729.5" font-family="Helvetica,sans-Serif" font-size="10.00">+ setName()</text>
<text text-anchor="start" x="116.5" y="-718.5" font-family="Helvetica,sans-Serif" font-size="10.00">+ ~NamedObject()</text>
</a>
</g>
</g>
<!-- Node4&#45;&gt;Node3 -->
<g id="edge3" class="edge">
<title>Node4&#45;&gt;Node3</title>
<path fill="none" stroke="midnightblue" d="M174,-701.24C174,-690.56 174,-679.71 174,-669.2"/>
<polygon fill="none" stroke="midnightblue" points="170.5,-701.4 174,-711.4 177.5,-701.4 170.5,-701.4"/>
</g>
<!-- Node5 -->
<g id="node5" class="node">
<title>Node5</title>
<g id="a_node5"><a target="_parent" xlink:href="../../../cieutils/docs/html/classcie_1_1utils_1_1observer_1_1Subject.html" xlink:title=" ">
<polygon fill="white" stroke="black" points="241.5,-507.5 241.5,-674.5 354.5,-674.5 354.5,-507.5 241.5,-507.5"/>
<text text-anchor="start" x="249.5" y="-662.5" font-family="Helvetica,sans-Serif" font-size="10.00">cie::utils::observer</text>
<text text-anchor="middle" x="298" y="-651.5" font-family="Helvetica,sans-Serif" font-size="10.00">::Subject</text>
<polyline fill="none" stroke="black" points="241.5,-644.5 354.5,-644.5 "/>
<text text-anchor="start" x="249.5" y="-632.5" font-family="Helvetica,sans-Serif" font-size="10.00"># _observers</text>
<polyline fill="none" stroke="black" points="241.5,-625.5 354.5,-625.5 "/>
<text text-anchor="start" x="249.5" y="-613.5" font-family="Helvetica,sans-Serif" font-size="10.00">+ Subject()</text>
<text text-anchor="start" x="249.5" y="-602.5" font-family="Helvetica,sans-Serif" font-size="10.00">+ Subject()</text>
<text text-anchor="start" x="249.5" y="-591.5" font-family="Helvetica,sans-Serif" font-size="10.00">+ operator=()</text>
<text text-anchor="start" x="249.5" y="-580.5" font-family="Helvetica,sans-Serif" font-size="10.00">+ ~Subject()</text>
<text text-anchor="start" x="249.5" y="-569.5" font-family="Helvetica,sans-Serif" font-size="10.00">+ notifyObservers()</text>
<text text-anchor="start" x="249.5" y="-558.5" font-family="Helvetica,sans-Serif" font-size="10.00">+ attachObserver()</text>
<text text-anchor="start" x="249.5" y="-547.5" font-family="Helvetica,sans-Serif" font-size="10.00">+ detachObserver()</text>
<text text-anchor="start" x="249.5" y="-536.5" font-family="Helvetica,sans-Serif" font-size="10.00">+ observerID()</text>
<text text-anchor="start" x="249.5" y="-525.5" font-family="Helvetica,sans-Serif" font-size="10.00">+ observers()</text>
<text text-anchor="start" x="249.5" y="-514.5" font-family="Helvetica,sans-Serif" font-size="10.00">+ as()</text>
</a>
</g>
</g>
<!-- Node5&#45;&gt;Node1 -->
<g id="edge4" class="edge">
<title>Node5&#45;&gt;Node1</title>
<path fill="none" stroke="midnightblue" d="M256.3,-498.02C252.26,-489.11 248.09,-479.91 243.87,-470.6"/>
<polygon fill="none" stroke="midnightblue" points="253.14,-499.54 260.46,-507.2 259.52,-496.65 253.14,-499.54"/>
</g>
</g>
</svg>
