<?xml version="1.0" encoding="UTF-8" standalone="no"?>
<!DOCTYPE svg PUBLIC "-//W3C//DTD SVG 1.1//EN"
 "http://www.w3.org/Graphics/SVG/1.1/DTD/svg11.dtd">
<!-- Generated by graphviz version 2.43.0 (0)
 -->
<!-- Title: cie::gl::ColoredVertex3 Pages: 1 -->
<!--zoomable 797 -->
<svg id="main" version="1.1" xmlns="http://www.w3.org/2000/svg" xmlns:xlink="http://www.w3.org/1999/xlink" xml:space="preserve" onload="init(evt)">
<style type="text/css"><![CDATA[
.edge:hover path { stroke: red; }
.edge:hover polygon { stroke: red; fill: red; }
]]></style>
<script type="text/javascript"><![CDATA[
var edges = document.getElementsByTagName('g');
if (edges && edges.length) {
  for (var i=0;i<edges.length;i++) {
    if (edges[i].id.substr(0,4)=='edge') {
      edges[i].setAttribute('class','edge');
    }
  }
}
]]></script>
        <defs>
                <circle id="rim" cx="0" cy="0" r="7"/>
                <circle id="rim2" cx="0" cy="0" r="3.5"/>
                <g id="zoomPlus">
                        <use xlink:href="#rim" fill="#404040">
                                <set attributeName="fill" to="#808080" begin="zoomplus.mouseover" end="zoomplus.mouseout"/>
                        </use>
                        <path d="M-4,0h8M0,-4v8" fill="none" stroke="white" stroke-width="1.5" pointer-events="none"/>
                </g>
                <g id="zoomMin">
                        <use xlink:href="#rim" fill="#404040">
                                <set attributeName="fill" to="#808080" begin="zoomminus.mouseover" end="zoomminus.mouseout"/>
                        </use>
                        <path d="M-4,0h8" fill="none" stroke="white" stroke-width="1.5" pointer-events="none"/>
                </g>
                <g id="dirArrow">
                        <path fill="none" stroke="white" stroke-width="1.5" d="M0,-3.0v7 M-2.5,-0.5L0,-3.0L2.5,-0.5"/>
                </g>
               <g id="resetDef">
                       <use xlink:href="#rim2" fill="#404040">
                               <set attributeName="fill" to="#808080" begin="reset.mouseover" end="reset.mouseout"/>
                       </use>
               </g>
        </defs>

<script type="text/javascript">
var viewWidth = 422;
var viewHeight = 797;
var sectionId = 'dynsection-1';
</script>
<script xlink:href="svgpan.js"/>
<svg id="graph" class="graph">
<g id="viewport">
<title>cie::gl::ColoredVertex3</title>
<polygon fill="white" stroke="transparent" points="-4,4 -4,-793 418,-793 418,4 -4,4"/>
<!-- Node1 -->
<g id="node1" class="node">
<title>Node1</title>
<g id="a_node1"><a xlink:title=" ">
<polygon fill="#bfbfbf" stroke="black" points="119,-0.5 119,-123.5 251,-123.5 251,-0.5 119,-0.5"/>
<text text-anchor="middle" x="185" y="-111.5" font-family="Helvetica,sans-Serif" font-size="10.00">cie::gl::ColoredVertex3</text>
<polyline fill="none" stroke="black" points="119,-104.5 251,-104.5 "/>
<text text-anchor="middle" x="185" y="-92.5" font-family="Helvetica,sans-Serif" font-size="10.00"> </text>
<polyline fill="none" stroke="black" points="119,-85.5 251,-85.5 "/>
<text text-anchor="start" x="127" y="-73.5" font-family="Helvetica,sans-Serif" font-size="10.00">+ ColoredVertex3()</text>
<text text-anchor="start" x="127" y="-62.5" font-family="Helvetica,sans-Serif" font-size="10.00">+ ColoredVertex3()</text>
<text text-anchor="start" x="127" y="-51.5" font-family="Helvetica,sans-Serif" font-size="10.00">+ numberOfAttributes()</text>
<text text-anchor="start" x="127" y="-40.5" font-family="Helvetica,sans-Serif" font-size="10.00">+ color()</text>
<text text-anchor="start" x="127" y="-29.5" font-family="Helvetica,sans-Serif" font-size="10.00">+ color()</text>
<text text-anchor="start" x="127" y="-18.5" font-family="Helvetica,sans-Serif" font-size="10.00"># ColoredVertex3()</text>
<text text-anchor="start" x="127" y="-7.5" font-family="Helvetica,sans-Serif" font-size="10.00"># ColoredVertex3()</text>
</a>
</g>
</g>
<!-- Node2 -->
<g id="node2" class="node">
<title>Node2</title>
<g id="a_node2"><a xlink:href="classcie_1_1gl_1_1Vertex3.html" target="_top" xlink:title=" ">
<polygon fill="white" stroke="black" points="119,-161.5 119,-273.5 251,-273.5 251,-161.5 119,-161.5"/>
<text text-anchor="middle" x="185" y="-261.5" font-family="Helvetica,sans-Serif" font-size="10.00">cie::gl::Vertex3</text>
<polyline fill="none" stroke="black" points="119,-254.5 251,-254.5 "/>
<text text-anchor="middle" x="185" y="-242.5" font-family="Helvetica,sans-Serif" font-size="10.00"> </text>
<polyline fill="none" stroke="black" points="119,-235.5 251,-235.5 "/>
<text text-anchor="start" x="127" y="-223.5" font-family="Helvetica,sans-Serif" font-size="10.00">+ Vertex3()</text>
<text text-anchor="start" x="127" y="-212.5" font-family="Helvetica,sans-Serif" font-size="10.00">+ Vertex3()</text>
<text text-anchor="start" x="127" y="-201.5" font-family="Helvetica,sans-Serif" font-size="10.00">+ numberOfAttributes()</text>
<text text-anchor="start" x="127" y="-190.5" font-family="Helvetica,sans-Serif" font-size="10.00">+ z()</text>
<text text-anchor="start" x="127" y="-179.5" font-family="Helvetica,sans-Serif" font-size="10.00">+ z()</text>
<text text-anchor="start" x="127" y="-168.5" font-family="Helvetica,sans-Serif" font-size="10.00"># Vertex3()</text>
</a>
</g>
</g>
<!-- Node2&#45;&gt;Node1 -->
<g id="edge1" class="edge">
<title>Node2&#45;&gt;Node1</title>
<path fill="none" stroke="midnightblue" d="M185,-150.93C185,-141.84 185,-132.53 185,-123.53"/>
<polygon fill="none" stroke="midnightblue" points="181.5,-151.08 185,-161.08 188.5,-151.08 181.5,-151.08"/>
</g>
<!-- Node3 -->
<g id="node3" class="node">
<title>Node3</title>
<g id="a_node3"><a xlink:href="classcie_1_1gl_1_1Vertex2.html" target="_top" xlink:title=" ">
<polygon fill="white" stroke="black" points="119,-311.5 119,-467.5 251,-467.5 251,-311.5 119,-311.5"/>
<text text-anchor="middle" x="185" y="-455.5" font-family="Helvetica,sans-Serif" font-size="10.00">cie::gl::Vertex2</text>
<polyline fill="none" stroke="black" points="119,-448.5 251,-448.5 "/>
<text text-anchor="middle" x="185" y="-436.5" font-family="Helvetica,sans-Serif" font-size="10.00"> </text>
<polyline fill="none" stroke="black" points="119,-429.5 251,-429.5 "/>
<text text-anchor="start" x="127" y="-417.5" font-family="Helvetica,sans-Serif" font-size="10.00">+ Vertex2()</text>
<text text-anchor="start" x="127" y="-406.5" font-family="Helvetica,sans-Serif" font-size="10.00">+ Vertex2()</text>
<text text-anchor="start" x="127" y="-395.5" font-family="Helvetica,sans-Serif" font-size="10.00">+ numberOfAttributes()</text>
<text text-anchor="start" x="127" y="-384.5" font-family="Helvetica,sans-Serif" font-size="10.00">+ position()</text>
<text text-anchor="start" x="127" y="-373.5" font-family="Helvetica,sans-Serif" font-size="10.00">+ position()</text>
<text text-anchor="start" x="127" y="-362.5" font-family="Helvetica,sans-Serif" font-size="10.00">+ x()</text>
<text text-anchor="start" x="127" y="-351.5" font-family="Helvetica,sans-Serif" font-size="10.00">+ x()</text>
<text text-anchor="start" x="127" y="-340.5" font-family="Helvetica,sans-Serif" font-size="10.00">+ y()</text>
<text text-anchor="start" x="127" y="-329.5" font-family="Helvetica,sans-Serif" font-size="10.00">+ y()</text>
<text text-anchor="start" x="127" y="-318.5" font-family="Helvetica,sans-Serif" font-size="10.00"># Vertex2()</text>
</a>
</g>
</g>
<!-- Node3&#45;&gt;Node2 -->
<g id="edge2" class="edge">
<title>Node3&#45;&gt;Node2</title>
<path fill="none" stroke="midnightblue" d="M185,-301.35C185,-292.02 185,-282.73 185,-273.93"/>
<polygon fill="none" stroke="midnightblue" points="181.5,-301.46 185,-311.46 188.5,-301.46 181.5,-301.46"/>
</g>
<!-- Node4 -->
<g id="node4" class="node">
<title>Node4</title>
<g id="a_node4"><a xlink:href="classcie_1_1gl_1_1AbsVertex.html" target="_top" xlink:title=" ">
<polygon fill="white" stroke="black" points="107.5,-505.5 107.5,-683.5 262.5,-683.5 262.5,-505.5 107.5,-505.5"/>
<text text-anchor="middle" x="185" y="-671.5" font-family="Helvetica,sans-Serif" font-size="10.00">cie::gl::AbsVertex</text>
<polyline fill="none" stroke="black" points="107.5,-664.5 262.5,-664.5 "/>
<text text-anchor="middle" x="185" y="-652.5" font-family="Helvetica,sans-Serif" font-size="10.00"> </text>
<polyline fill="none" stroke="black" points="107.5,-645.5 262.5,-645.5 "/>
<text text-anchor="start" x="115.5" y="-633.5" font-family="Helvetica,sans-Serif" font-size="10.00">+ AbsVertex()</text>
<text text-anchor="start" x="115.5" y="-622.5" font-family="Helvetica,sans-Serif" font-size="10.00">+ AbsVertex()</text>
<text text-anchor="start" x="115.5" y="-611.5" font-family="Helvetica,sans-Serif" font-size="10.00">+ operator=()</text>
<text text-anchor="start" x="115.5" y="-600.5" font-family="Helvetica,sans-Serif" font-size="10.00">+ numberOfAttributes()</text>
<text text-anchor="start" x="115.5" y="-589.5" font-family="Helvetica,sans-Serif" font-size="10.00">+ attribute()</text>
<text text-anchor="start" x="115.5" y="-578.5" font-family="Helvetica,sans-Serif" font-size="10.00">+ attribute()</text>
<text text-anchor="start" x="115.5" y="-567.5" font-family="Helvetica,sans-Serif" font-size="10.00">+ at()</text>
<text text-anchor="start" x="115.5" y="-556.5" font-family="Helvetica,sans-Serif" font-size="10.00">+ at()</text>
<text text-anchor="start" x="115.5" y="-545.5" font-family="Helvetica,sans-Serif" font-size="10.00"># AbsVertex()</text>
<text text-anchor="start" x="115.5" y="-534.5" font-family="Helvetica,sans-Serif" font-size="10.00"># at()</text>
<text text-anchor="start" x="115.5" y="-523.5" font-family="Helvetica,sans-Serif" font-size="10.00"># at()</text>
<text text-anchor="start" x="115.5" y="-512.5" font-family="Helvetica,sans-Serif" font-size="10.00"># resizeAttributeContainer()</text>
</a>
</g>
</g>
<!-- Node4&#45;&gt;Node3 -->
<g id="edge3" class="edge">
<title>Node4&#45;&gt;Node3</title>
<path fill="none" stroke="midnightblue" d="M185,-495.33C185,-486.07 185,-476.77 185,-467.74"/>
<polygon fill="none" stroke="midnightblue" points="181.5,-495.35 185,-505.35 188.5,-495.35 181.5,-495.35"/>
</g>
<!-- Node5 -->
<g id="node5" class="node">
<title>Node5</title>
<g id="a_node5"><a xlink:href="structcie_1_1gl_1_1GLTraits.html" target="_top" xlink:title=" ">
<polygon fill="white" stroke="black" points="0,-731.5 0,-788.5 90,-788.5 90,-731.5 0,-731.5"/>
<text text-anchor="middle" x="45" y="-776.5" font-family="Helvetica,sans-Serif" font-size="10.00">cie::gl::GLTraits</text>
<polyline fill="none" stroke="black" points="0,-769.5 90,-769.5 "/>
<text text-anchor="middle" x="45" y="-757.5" font-family="Helvetica,sans-Serif" font-size="10.00"> </text>
<polyline fill="none" stroke="black" points="0,-750.5 90,-750.5 "/>
<text text-anchor="middle" x="45" y="-738.5" font-family="Helvetica,sans-Serif" font-size="10.00"> </text>
</a>
</g>
</g>
<!-- Node5&#45;&gt;Node4 -->
<g id="edge4" class="edge">
<title>Node5&#45;&gt;Node4</title>
<path fill="none" stroke="midnightblue" d="M75.5,-723.38C85.65,-711.52 97.46,-697.74 109.48,-683.7"/>
<polygon fill="none" stroke="midnightblue" points="72.59,-721.39 68.75,-731.26 77.91,-725.95 72.59,-721.39"/>
</g>
<!-- Node6 -->
<g id="node6" class="node">
<title>Node6</title>
<g id="a_node6"><a xlink:title=" ">
<polygon fill="white" stroke="#bfbfbf" points="108.5,-731.5 108.5,-788.5 153.5,-788.5 153.5,-731.5 108.5,-731.5"/>
<text text-anchor="middle" x="131" y="-776.5" font-family="Helvetica,sans-Serif" font-size="10.00">size_t</text>
<polyline fill="none" stroke="#bfbfbf" points="108.5,-769.5 153.5,-769.5 "/>
<text text-anchor="middle" x="131" y="-757.5" font-family="Helvetica,sans-Serif" font-size="10.00"> </text>
<polyline fill="none" stroke="#bfbfbf" points="108.5,-750.5 153.5,-750.5 "/>
<text text-anchor="middle" x="131" y="-738.5" font-family="Helvetica,sans-Serif" font-size="10.00"> </text>
</a>
</g>
</g>
<!-- Node6&#45;&gt;Node4 -->
<g id="edge5" class="edge">
<title>Node6&#45;&gt;Node4</title>
<path fill="none" stroke="#404040" d="M140.16,-731.26C143.58,-720.91 147.69,-708.45 152.02,-695.35"/>
<polygon fill="none" stroke="#404040" points="152.11,-695.09 150.19,-688.14 155.87,-683.7 157.79,-690.65 152.11,-695.09"/>
<text text-anchor="middle" x="170.5" y="-705" font-family="Helvetica,sans-Serif" font-size="10.00"> #_offset</text>
</g>
<!-- Node7 -->
<g id="node7" class="node">
<title>Node7</title>
<g id="a_node7"><a xlink:title=" ">
<polygon fill="white" stroke="#bfbfbf" points="171.5,-731.5 171.5,-788.5 306.5,-788.5 306.5,-731.5 171.5,-731.5"/>
<text text-anchor="middle" x="239" y="-776.5" font-family="Helvetica,sans-Serif" font-size="10.00">const offset_container &amp;</text>
<polyline fill="none" stroke="#bfbfbf" points="171.5,-769.5 306.5,-769.5 "/>
<text text-anchor="middle" x="239" y="-757.5" font-family="Helvetica,sans-Serif" font-size="10.00"> </text>
<polyline fill="none" stroke="#bfbfbf" points="171.5,-750.5 306.5,-750.5 "/>
<text text-anchor="middle" x="239" y="-738.5" font-family="Helvetica,sans-Serif" font-size="10.00"> </text>
</a>
</g>
</g>
<!-- Node7&#45;&gt;Node4 -->
<g id="edge6" class="edge">
<title>Node7&#45;&gt;Node4</title>
<path fill="none" stroke="#404040" d="M229.84,-731.26C226.42,-720.91 222.31,-708.45 217.98,-695.35"/>
<polygon fill="none" stroke="#404040" points="217.89,-695.09 212.21,-690.65 214.13,-683.7 219.81,-688.14 217.89,-695.09"/>
<text text-anchor="middle" x="274.5" y="-705" font-family="Helvetica,sans-Serif" font-size="10.00"> #_r_attributeOffsets</text>
</g>
<!-- Node8 -->
<g id="node8" class="node">
<title>Node8</title>
<g id="a_node8"><a xlink:title=" ">
<polygon fill="white" stroke="#bfbfbf" points="324.5,-731.5 324.5,-788.5 409.5,-788.5 409.5,-731.5 324.5,-731.5"/>
<text text-anchor="middle" x="367" y="-776.5" font-family="Helvetica,sans-Serif" font-size="10.00">SharedPointer</text>
<polyline fill="none" stroke="#bfbfbf" points="324.5,-769.5 409.5,-769.5 "/>
<text text-anchor="middle" x="367" y="-757.5" font-family="Helvetica,sans-Serif" font-size="10.00"> </text>
<polyline fill="none" stroke="#bfbfbf" points="324.5,-750.5 409.5,-750.5 "/>
<text text-anchor="middle" x="367" y="-738.5" font-family="Helvetica,sans-Serif" font-size="10.00"> </text>
</a>
</g>
</g>
<!-- Node8&#45;&gt;Node4 -->
<g id="edge7" class="edge">
<title>Node8&#45;&gt;Node4</title>
<path fill="none" stroke="#404040" d="M351.91,-731.44C345.81,-721.58 338.26,-710.75 330,-702 312.96,-683.94 292.52,-666.83 272.43,-651.82"/>
<polygon fill="none" stroke="#404040" points="272.3,-651.72 265.09,-651.4 262.62,-644.62 269.82,-644.95 272.3,-651.72"/>
<text text-anchor="middle" x="376" y="-705" font-family="Helvetica,sans-Serif" font-size="10.00"> #_p_attributes</text>
</g>
</g>
</svg>
        <g id="navigator" transform="translate(0 0)" fill="#404254">
                <rect fill="#f2f5e9" fill-opacity="0.5" stroke="#606060" stroke-width=".5" x="0" y="0" width="60" height="60"/>
                <use id="zoomplus" xlink:href="#zoomPlus" x="17" y="9" onmousedown="handleZoom(evt,'in')"/>
                <use id="zoomminus" xlink:href="#zoomMin" x="42" y="9" onmousedown="handleZoom(evt,'out')"/>
                <use id="reset" xlink:href="#resetDef" x="30" y="36" onmousedown="handleReset()"/>
                <g id="arrowUp" xlink:href="#dirArrow" transform="translate(30 24)" onmousedown="handlePan(0,-1)">
                  <use xlink:href="#rim" fill="#404040">
                        <set attributeName="fill" to="#808080" begin="arrowUp.mouseover" end="arrowUp.mouseout"/>
                  </use>
                  <path fill="none" stroke="white" stroke-width="1.5" d="M0,-3.0v7 M-2.5,-0.5L0,-3.0L2.5,-0.5"/>
                </g>
                <g id="arrowRight" xlink:href="#dirArrow" transform="rotate(90) translate(36 -43)" onmousedown="handlePan(1,0)">
                  <use xlink:href="#rim" fill="#404040">
                        <set attributeName="fill" to="#808080" begin="arrowRight.mouseover" end="arrowRight.mouseout"/>
                  </use>
                  <path fill="none" stroke="white" stroke-width="1.5" d="M0,-3.0v7 M-2.5,-0.5L0,-3.0L2.5,-0.5"/>
                </g>
                <g id="arrowDown" xlink:href="#dirArrow" transform="rotate(180) translate(-30 -48)" onmousedown="handlePan(0,1)">
                  <use xlink:href="#rim" fill="#404040">
                        <set attributeName="fill" to="#808080" begin="arrowDown.mouseover" end="arrowDown.mouseout"/>
                  </use>
                  <path fill="none" stroke="white" stroke-width="1.5" d="M0,-3.0v7 M-2.5,-0.5L0,-3.0L2.5,-0.5"/>
                </g>
                <g id="arrowLeft" xlink:href="#dirArrow" transform="rotate(270) translate(-36 17)" onmousedown="handlePan(-1,0)">
                  <use xlink:href="#rim" fill="#404040">
                        <set attributeName="fill" to="#808080" begin="arrowLeft.mouseover" end="arrowLeft.mouseout"/>
                  </use>
                  <path fill="none" stroke="white" stroke-width="1.5" d="M0,-3.0v7 M-2.5,-0.5L0,-3.0L2.5,-0.5"/>
                </g>
        </g>
        <svg viewBox="0 0 15 15" width="100%" height="30px" preserveAspectRatio="xMaxYMin meet">
         <g id="arrow_out" transform="scale(0.3 0.3)">
          <a xlink:href="classcie_1_1gl_1_1ColoredVertex3__coll__graph_org.svg" target="_base">
           <rect id="button" ry="5" rx="5" y="6" x="6" height="38" width="38"
                fill="#f2f5e9" fill-opacity="0.5" stroke="#606060" stroke-width="1.0"/>
           <path id="arrow"
             d="M 11.500037,31.436501 C 11.940474,20.09759 22.043105,11.32322 32.158766,21.979434 L 37.068811,17.246167 C 37.068811,17.246167 37.088388,32 37.088388,32 L 22.160133,31.978069 C 22.160133,31.978069 26.997745,27.140456 26.997745,27.140456 C 18.528582,18.264221 13.291696,25.230495 11.500037,31.436501 z"
             style="fill:#404040;"/>
          </a>
         </g>
        </svg>
</svg>
