<?xml version="1.0" encoding="UTF-8" standalone="no"?>
<!DOCTYPE svg PUBLIC "-//W3C//DTD SVG 1.1//EN"
 "http://www.w3.org/Graphics/SVG/1.1/DTD/svg11.dtd">
<!-- Generated by graphviz version 2.43.0 (0)
 -->
<!-- Title: cie::gl::Axes3DScene Pages: 1 -->
<!--zoomable 1207 -->
<svg id="main" version="1.1" xmlns="http://www.w3.org/2000/svg" xmlns:xlink="http://www.w3.org/1999/xlink" xml:space="preserve" onload="init(evt)">
<style type="text/css"><![CDATA[
.edge:hover path { stroke: red; }
.edge:hover polygon { stroke: red; fill: red; }
]]></style>
<script type="text/javascript"><![CDATA[
var edges = document.getElementsByTagName('g');
if (edges && edges.length) {
  for (var i=0;i<edges.length;i++) {
    if (edges[i].id.substr(0,4)=='edge') {
      edges[i].setAttribute('class','edge');
    }
  }
}
]]></script>
        <defs>
                <circle id="rim" cx="0" cy="0" r="7"/>
                <circle id="rim2" cx="0" cy="0" r="3.5"/>
                <g id="zoomPlus">
                        <use xlink:href="#rim" fill="#404040">
                                <set attributeName="fill" to="#808080" begin="zoomplus.mouseover" end="zoomplus.mouseout"/>
                        </use>
                        <path d="M-4,0h8M0,-4v8" fill="none" stroke="white" stroke-width="1.5" pointer-events="none"/>
                </g>
                <g id="zoomMin">
                        <use xlink:href="#rim" fill="#404040">
                                <set attributeName="fill" to="#808080" begin="zoomminus.mouseover" end="zoomminus.mouseout"/>
                        </use>
                        <path d="M-4,0h8" fill="none" stroke="white" stroke-width="1.5" pointer-events="none"/>
                </g>
                <g id="dirArrow">
                        <path fill="none" stroke="white" stroke-width="1.5" d="M0,-3.0v7 M-2.5,-0.5L0,-3.0L2.5,-0.5"/>
                </g>
               <g id="resetDef">
                       <use xlink:href="#rim2" fill="#404040">
                               <set attributeName="fill" to="#808080" begin="reset.mouseover" end="reset.mouseout"/>
                       </use>
               </g>
        </defs>

<script type="text/javascript">
var viewWidth = 1254;
var viewHeight = 1207;
var sectionId = 'dynsection-1';
</script>
<script xlink:href="svgpan.js"/>
<svg id="graph" class="graph">
<g id="viewport">
<title>cie::gl::Axes3DScene</title>
<polygon fill="white" stroke="transparent" points="-4,4 -4,-1203 1250,-1203 1250,4 -4,4"/>
<!-- Node1 -->
<g id="node1" class="node">
<title>Node1</title>
<g id="a_node1"><a xlink:title=" ">
<polygon fill="#bfbfbf" stroke="black" points="803,-0.5 803,-68.5 921,-68.5 921,-0.5 803,-0.5"/>
<text text-anchor="middle" x="862" y="-56.5" font-family="Helvetica,sans-Serif" font-size="10.00">cie::gl::Axes3DScene</text>
<polyline fill="none" stroke="black" points="803,-49.5 921,-49.5 "/>
<text text-anchor="middle" x="862" y="-37.5" font-family="Helvetica,sans-Serif" font-size="10.00"> </text>
<polyline fill="none" stroke="black" points="803,-30.5 921,-30.5 "/>
<text text-anchor="start" x="811" y="-18.5" font-family="Helvetica,sans-Serif" font-size="10.00">+ Axes3DScene()</text>
<text text-anchor="start" x="811" y="-7.5" font-family="Helvetica,sans-Serif" font-size="10.00"># update_impl()</text>
</a>
</g>
</g>
<!-- Node2 -->
<g id="node2" class="node">
<title>Node2</title>
<g id="a_node2"><a xlink:href="classcie_1_1gl_1_1GenericPartScene.html" target="_top" xlink:title="Convenience Scene class.">
<polygon fill="white" stroke="black" points="601.5,-166 601.5,-256 738.5,-256 738.5,-166 601.5,-166"/>
<text text-anchor="middle" x="670" y="-244" font-family="Helvetica,sans-Serif" font-size="10.00">cie::gl::GenericPartScene</text>
<polyline fill="none" stroke="black" points="601.5,-237 738.5,-237 "/>
<text text-anchor="middle" x="670" y="-225" font-family="Helvetica,sans-Serif" font-size="10.00"> </text>
<polyline fill="none" stroke="black" points="601.5,-218 738.5,-218 "/>
<text text-anchor="start" x="609.5" y="-206" font-family="Helvetica,sans-Serif" font-size="10.00">+ GenericPartScene()</text>
<text text-anchor="start" x="609.5" y="-195" font-family="Helvetica,sans-Serif" font-size="10.00">+ GenericPartScene()</text>
<text text-anchor="start" x="609.5" y="-184" font-family="Helvetica,sans-Serif" font-size="10.00">+ setDrawMode()</text>
<text text-anchor="start" x="609.5" y="-173" font-family="Helvetica,sans-Serif" font-size="10.00"># update_impl()</text>
</a>
</g>
</g>
<!-- Node2&#45;&gt;Node1 -->
<g id="edge1" class="edge">
<title>Node2&#45;&gt;Node1</title>
<path fill="none" stroke="midnightblue" d="M709.09,-157.94C720.88,-143.65 734.34,-128.64 748,-116 766.59,-98.81 788.99,-82.24 809.01,-68.65"/>
<polygon fill="none" stroke="midnightblue" points="706.31,-155.81 702.72,-165.78 711.74,-160.22 706.31,-155.81"/>
</g>
<!-- Node3 -->
<g id="node3" class="node">
<title>Node3</title>
<g id="a_node3"><a xlink:href="classcie_1_1gl_1_1PartScene.html" target="_top" xlink:title=" ">
<polygon fill="white" stroke="black" points="404,-397.5 404,-509.5 504,-509.5 504,-397.5 404,-397.5"/>
<text text-anchor="middle" x="454" y="-497.5" font-family="Helvetica,sans-Serif" font-size="10.00">cie::gl::PartScene</text>
<polyline fill="none" stroke="black" points="404,-490.5 504,-490.5 "/>
<text text-anchor="middle" x="454" y="-478.5" font-family="Helvetica,sans-Serif" font-size="10.00"> </text>
<polyline fill="none" stroke="black" points="404,-471.5 504,-471.5 "/>
<text text-anchor="start" x="412" y="-459.5" font-family="Helvetica,sans-Serif" font-size="10.00">+ PartScene()</text>
<text text-anchor="start" x="412" y="-448.5" font-family="Helvetica,sans-Serif" font-size="10.00">+ addPart()</text>
<text text-anchor="start" x="412" y="-437.5" font-family="Helvetica,sans-Serif" font-size="10.00">+ removePart()</text>
<text text-anchor="start" x="412" y="-426.5" font-family="Helvetica,sans-Serif" font-size="10.00">+ parts()</text>
<text text-anchor="start" x="412" y="-415.5" font-family="Helvetica,sans-Serif" font-size="10.00">+ updateParts()</text>
<text text-anchor="start" x="412" y="-404.5" font-family="Helvetica,sans-Serif" font-size="10.00">+ update_impl()</text>
</a>
</g>
</g>
<!-- Node3&#45;&gt;Node2 -->
<g id="edge2" class="edge">
<title>Node3&#45;&gt;Node2</title>
<path fill="none" stroke="midnightblue" d="M510.46,-389.64C548.15,-347.67 596.79,-293.51 630.4,-256.09"/>
<polygon fill="none" stroke="midnightblue" points="507.63,-387.55 503.55,-397.32 512.84,-392.22 507.63,-387.55"/>
</g>
<!-- Node4 -->
<g id="node4" class="node">
<title>Node4</title>
<g id="a_node4"><a xlink:href="classcie_1_1gl_1_1Scene.html" target="_top" xlink:title=" ">
<polygon fill="white" stroke="black" points="496.5,-590.5 496.5,-768.5 607.5,-768.5 607.5,-590.5 496.5,-590.5"/>
<text text-anchor="middle" x="552" y="-756.5" font-family="Helvetica,sans-Serif" font-size="10.00">cie::gl::Scene</text>
<polyline fill="none" stroke="black" points="496.5,-749.5 607.5,-749.5 "/>
<text text-anchor="middle" x="552" y="-737.5" font-family="Helvetica,sans-Serif" font-size="10.00"> </text>
<polyline fill="none" stroke="black" points="496.5,-730.5 607.5,-730.5 "/>
<text text-anchor="start" x="504.5" y="-718.5" font-family="Helvetica,sans-Serif" font-size="10.00">+ Scene()</text>
<text text-anchor="start" x="504.5" y="-707.5" font-family="Helvetica,sans-Serif" font-size="10.00">+ ~Scene()</text>
<text text-anchor="start" x="504.5" y="-696.5" font-family="Helvetica,sans-Serif" font-size="10.00">+ update()</text>
<text text-anchor="start" x="504.5" y="-685.5" font-family="Helvetica,sans-Serif" font-size="10.00">+ activate()</text>
<text text-anchor="start" x="504.5" y="-674.5" font-family="Helvetica,sans-Serif" font-size="10.00">+ isActive()</text>
<text text-anchor="start" x="504.5" y="-663.5" font-family="Helvetica,sans-Serif" font-size="10.00">+ makeCamera()</text>
<text text-anchor="start" x="504.5" y="-652.5" font-family="Helvetica,sans-Serif" font-size="10.00">+ addCamera()</text>
<text text-anchor="start" x="504.5" y="-641.5" font-family="Helvetica,sans-Serif" font-size="10.00">+ removeCamera()</text>
<text text-anchor="start" x="504.5" y="-630.5" font-family="Helvetica,sans-Serif" font-size="10.00">+ cameras()</text>
<text text-anchor="start" x="504.5" y="-619.5" font-family="Helvetica,sans-Serif" font-size="10.00">+ camera()</text>
<text text-anchor="start" x="504.5" y="-608.5" font-family="Helvetica,sans-Serif" font-size="10.00">and 15 more...</text>
<text text-anchor="start" x="504.5" y="-597.5" font-family="Helvetica,sans-Serif" font-size="10.00"># update_impl()</text>
</a>
</g>
</g>
<!-- Node4&#45;&gt;Node3 -->
<g id="edge3" class="edge">
<title>Node4&#45;&gt;Node3</title>
<path fill="none" stroke="midnightblue" d="M562.51,-580.53C561.31,-573.8 559.52,-567.23 557,-561 546.05,-533.94 524.57,-509.93 504.04,-491.6"/>
<polygon fill="none" stroke="midnightblue" points="559.05,-581.03 563.88,-590.46 565.99,-580.08 559.05,-581.03"/>
</g>
<!-- Node5 -->
<g id="node5" class="node">
<title>Node5</title>
<g id="a_node5"><a target="_parent" xlink:href="../../../cieutils/docs/html/classcie_1_1utils_1_1Loggee.html" xlink:title=" ">
<polygon fill="white" stroke="black" points="731.5,-838.5 731.5,-994.5 830.5,-994.5 830.5,-838.5 731.5,-838.5"/>
<text text-anchor="middle" x="781" y="-982.5" font-family="Helvetica,sans-Serif" font-size="10.00">cie::utils::Loggee</text>
<polyline fill="none" stroke="black" points="731.5,-975.5 830.5,-975.5 "/>
<text text-anchor="middle" x="781" y="-963.5" font-family="Helvetica,sans-Serif" font-size="10.00"> </text>
<polyline fill="none" stroke="black" points="731.5,-956.5 830.5,-956.5 "/>
<text text-anchor="start" x="739.5" y="-944.5" font-family="Helvetica,sans-Serif" font-size="10.00">+ Loggee()</text>
<text text-anchor="start" x="739.5" y="-933.5" font-family="Helvetica,sans-Serif" font-size="10.00">+ ~Loggee()</text>
<text text-anchor="start" x="739.5" y="-922.5" font-family="Helvetica,sans-Serif" font-size="10.00">+ log()</text>
<text text-anchor="start" x="739.5" y="-911.5" font-family="Helvetica,sans-Serif" font-size="10.00">+ logID()</text>
<text text-anchor="start" x="739.5" y="-900.5" font-family="Helvetica,sans-Serif" font-size="10.00">+ tic()</text>
<text text-anchor="start" x="739.5" y="-889.5" font-family="Helvetica,sans-Serif" font-size="10.00">+ toc()</text>
<text text-anchor="start" x="739.5" y="-878.5" font-family="Helvetica,sans-Serif" font-size="10.00">+ toc()</text>
<text text-anchor="start" x="739.5" y="-867.5" font-family="Helvetica,sans-Serif" font-size="10.00">+ newBlock()</text>
<text text-anchor="start" x="739.5" y="-856.5" font-family="Helvetica,sans-Serif" font-size="10.00">+ separate()</text>
<text text-anchor="start" x="739.5" y="-845.5" font-family="Helvetica,sans-Serif" font-size="10.00"># logger()</text>
</a>
</g>
</g>
<!-- Node5&#45;&gt;Node4 -->
<g id="edge4" class="edge">
<title>Node5&#45;&gt;Node4</title>
<path fill="none" stroke="midnightblue" d="M738.64,-829.43C729.31,-814.46 718.68,-799.65 707,-787 678.54,-756.18 639.59,-729.46 607.86,-710.5"/>
<polygon fill="none" stroke="midnightblue" points="735.8,-831.51 743.98,-838.26 741.79,-827.89 735.8,-831.51"/>
</g>
<!-- Node6 -->
<g id="node6" class="node">
<title>Node6</title>
<g id="a_node6"><a target="_parent" xlink:href="../../../cieutils/docs/html/classcie_1_1utils_1_1NamedObject.html" xlink:title=" ">
<polygon fill="white" stroke="black" points="715.5,-1042.5 715.5,-1198.5 846.5,-1198.5 846.5,-1042.5 715.5,-1042.5"/>
<text text-anchor="middle" x="781" y="-1186.5" font-family="Helvetica,sans-Serif" font-size="10.00">cie::utils::NamedObject</text>
<polyline fill="none" stroke="black" points="715.5,-1179.5 846.5,-1179.5 "/>
<text text-anchor="middle" x="781" y="-1167.5" font-family="Helvetica,sans-Serif" font-size="10.00"> </text>
<polyline fill="none" stroke="black" points="715.5,-1160.5 846.5,-1160.5 "/>
<text text-anchor="start" x="723.5" y="-1148.5" font-family="Helvetica,sans-Serif" font-size="10.00">+ NamedObject()</text>
<text text-anchor="start" x="723.5" y="-1137.5" font-family="Helvetica,sans-Serif" font-size="10.00">+ NamedObject()</text>
<text text-anchor="start" x="723.5" y="-1126.5" font-family="Helvetica,sans-Serif" font-size="10.00">+ NamedObject()</text>
<text text-anchor="start" x="723.5" y="-1115.5" font-family="Helvetica,sans-Serif" font-size="10.00">+ NamedObject()</text>
<text text-anchor="start" x="723.5" y="-1104.5" font-family="Helvetica,sans-Serif" font-size="10.00">+ operator=()</text>
<text text-anchor="start" x="723.5" y="-1093.5" font-family="Helvetica,sans-Serif" font-size="10.00">+ operator=()</text>
<text text-anchor="start" x="723.5" y="-1082.5" font-family="Helvetica,sans-Serif" font-size="10.00">+ name()</text>
<text text-anchor="start" x="723.5" y="-1071.5" font-family="Helvetica,sans-Serif" font-size="10.00">+ setName()</text>
<text text-anchor="start" x="723.5" y="-1060.5" font-family="Helvetica,sans-Serif" font-size="10.00">+ setName()</text>
<text text-anchor="start" x="723.5" y="-1049.5" font-family="Helvetica,sans-Serif" font-size="10.00">+ ~NamedObject()</text>
</a>
</g>
</g>
<!-- Node6&#45;&gt;Node5 -->
<g id="edge5" class="edge">
<title>Node6&#45;&gt;Node5</title>
<path fill="none" stroke="midnightblue" d="M781,-1031.94C781,-1019.54 781,-1006.87 781,-994.69"/>
<polygon fill="none" stroke="midnightblue" points="777.5,-1032.27 781,-1042.27 784.5,-1032.27 777.5,-1032.27"/>
</g>
<!-- Node7 -->
<g id="node7" class="node">
<title>Node7</title>
<g id="a_node7"><a target="_parent" xlink:href="../../../cieutils/docs/html/classcie_1_1utils_1_1IDObject.html" xlink:title=" ">
<polygon fill="white" stroke="black" points="0,-844 0,-989 106,-989 106,-844 0,-844"/>
<text text-anchor="start" x="8" y="-977" font-family="Helvetica,sans-Serif" font-size="10.00">cie::utils::IDObject</text>
<text text-anchor="middle" x="53" y="-966" font-family="Helvetica,sans-Serif" font-size="10.00">&lt; class &gt;</text>
<polyline fill="none" stroke="black" points="0,-959 106,-959 "/>
<text text-anchor="middle" x="53" y="-947" font-family="Helvetica,sans-Serif" font-size="10.00"> </text>
<polyline fill="none" stroke="black" points="0,-940 106,-940 "/>
<text text-anchor="start" x="8" y="-928" font-family="Helvetica,sans-Serif" font-size="10.00">+ IDObject()</text>
<text text-anchor="start" x="8" y="-917" font-family="Helvetica,sans-Serif" font-size="10.00">+ IDObject()</text>
<text text-anchor="start" x="8" y="-906" font-family="Helvetica,sans-Serif" font-size="10.00">+ IDObject()</text>
<text text-anchor="start" x="8" y="-895" font-family="Helvetica,sans-Serif" font-size="10.00">+ IDObject()</text>
<text text-anchor="start" x="8" y="-884" font-family="Helvetica,sans-Serif" font-size="10.00">+ operator=()</text>
<text text-anchor="start" x="8" y="-873" font-family="Helvetica,sans-Serif" font-size="10.00">+ operator=()</text>
<text text-anchor="start" x="8" y="-862" font-family="Helvetica,sans-Serif" font-size="10.00">+ setID()</text>
<text text-anchor="start" x="8" y="-851" font-family="Helvetica,sans-Serif" font-size="10.00">+ getID()</text>
</a>
</g>
</g>
<!-- Node7&#45;&gt;Node4 -->
<g id="edge6" class="edge">
<title>Node7&#45;&gt;Node4</title>
<path fill="none" stroke="midnightblue" d="M103.87,-835.95C120.73,-816.28 141.34,-797.77 165,-787 226.59,-758.96 407.72,-797.72 469,-769 478.73,-764.44 487.87,-758.19 496.28,-751.09"/>
<polygon fill="none" stroke="midnightblue" points="101.03,-833.89 97.35,-843.82 106.42,-838.35 101.03,-833.89"/>
</g>
<!-- Node8 -->
<g id="node8" class="node">
<title>Node8</title>
<g id="a_node8"><a xlink:title=" ">
<polygon fill="white" stroke="#bfbfbf" points="36.5,-1092 36.5,-1149 69.5,-1149 69.5,-1092 36.5,-1092"/>
<text text-anchor="middle" x="53" y="-1137" font-family="Helvetica,sans-Serif" font-size="10.00">TID</text>
<polyline fill="none" stroke="#bfbfbf" points="36.5,-1130 69.5,-1130 "/>
<text text-anchor="middle" x="53" y="-1118" font-family="Helvetica,sans-Serif" font-size="10.00"> </text>
<polyline fill="none" stroke="#bfbfbf" points="36.5,-1111 69.5,-1111 "/>
<text text-anchor="middle" x="53" y="-1099" font-family="Helvetica,sans-Serif" font-size="10.00"> </text>
</a>
</g>
</g>
<!-- Node8&#45;&gt;Node7 -->
<g id="edge7" class="edge">
<title>Node8&#45;&gt;Node7</title>
<path fill="none" stroke="#404040" d="M53,-1091.84C53,-1068.46 53,-1033.71 53,-1001.37"/>
<polygon fill="none" stroke="#404040" points="53,-1001.12 49,-995.12 53,-989.12 57,-995.12 53,-1001.12"/>
<text text-anchor="middle" x="66" y="-1016" font-family="Helvetica,sans-Serif" font-size="10.00"> #_id</text>
</g>
<!-- Node9 -->
<g id="node9" class="node">
<title>Node9</title>
<g id="a_node9"><a xlink:title=" ">
<polygon fill="white" stroke="#bfbfbf" points="124,-888 124,-945 228,-945 228,-888 124,-888"/>
<text text-anchor="middle" x="176" y="-933" font-family="Helvetica,sans-Serif" font-size="10.00">list&lt; TexturePtr &gt;</text>
<polyline fill="none" stroke="#bfbfbf" points="124,-926 228,-926 "/>
<text text-anchor="middle" x="176" y="-914" font-family="Helvetica,sans-Serif" font-size="10.00"> </text>
<polyline fill="none" stroke="#bfbfbf" points="124,-907 228,-907 "/>
<text text-anchor="middle" x="176" y="-895" font-family="Helvetica,sans-Serif" font-size="10.00"> </text>
</a>
</g>
</g>
<!-- Node9&#45;&gt;Node4 -->
<g id="edge8" class="edge">
<title>Node9&#45;&gt;Node4</title>
<path fill="none" stroke="#404040" d="M168.87,-887.89C163.13,-858.53 159.79,-812.84 186,-787 208.44,-764.88 440.5,-782.43 469,-769 475.07,-766.14 480.92,-762.62 486.51,-758.64"/>
<polygon fill="none" stroke="#404040" points="486.79,-758.42 489.07,-751.58 496.26,-751.05 493.98,-757.89 486.79,-758.42"/>
<text text-anchor="middle" x="215" y="-801" font-family="Helvetica,sans-Serif" font-size="10.00"> #_textures</text>
</g>
<!-- Node10 -->
<g id="node10" class="node">
<title>Node10</title>
<g id="a_node10"><a xlink:title=" ">
<polygon fill="white" stroke="#bfbfbf" points="273.5,-888 273.5,-945 358.5,-945 358.5,-888 273.5,-888"/>
<text text-anchor="middle" x="316" y="-933" font-family="Helvetica,sans-Serif" font-size="10.00">SharedPointer</text>
<polyline fill="none" stroke="#bfbfbf" points="273.5,-926 358.5,-926 "/>
<text text-anchor="middle" x="316" y="-914" font-family="Helvetica,sans-Serif" font-size="10.00"> </text>
<polyline fill="none" stroke="#bfbfbf" points="273.5,-907 358.5,-907 "/>
<text text-anchor="middle" x="316" y="-895" font-family="Helvetica,sans-Serif" font-size="10.00"> </text>
</a>
</g>
</g>
<!-- Node10&#45;&gt;Node4 -->
<g id="edge9" class="edge">
<title>Node10&#45;&gt;Node4</title>
<path fill="none" stroke="#404040" d="M287.19,-887.8C261.34,-859.64 231.26,-816.12 258,-787 289.83,-752.34 426.65,-789.52 469,-769 475.04,-766.07 480.87,-762.5 486.43,-758.49"/>
<polygon fill="none" stroke="#404040" points="486.73,-758.26 488.98,-751.41 496.17,-750.85 493.92,-757.7 486.73,-758.26"/>
<text text-anchor="middle" x="308" y="-801" font-family="Helvetica,sans-Serif" font-size="10.00"> #_p_bufferManager</text>
</g>
<!-- Node10&#45;&gt;Node4 -->
<g id="edge12" class="edge">
<title>Node10&#45;&gt;Node4</title>
<path fill="none" stroke="#404040" d="M327.53,-887.89C342.14,-854.22 367.49,-800.16 385,-787 415.52,-764.06 435.76,-787.78 469,-769 475.11,-765.55 481.03,-761.5 486.72,-757.06"/>
<polygon fill="none" stroke="#404040" points="486.84,-756.96 488.88,-750.04 496.05,-749.26 494.01,-756.18 486.84,-756.96"/>
<text text-anchor="middle" x="438.5" y="-812" font-family="Helvetica,sans-Serif" font-size="10.00"> #_p_fragmentShader</text>
<text text-anchor="middle" x="438.5" y="-801" font-family="Helvetica,sans-Serif" font-size="10.00">#_p_geometryShader</text>
<text text-anchor="middle" x="438.5" y="-790" font-family="Helvetica,sans-Serif" font-size="10.00">#_p_vertexShader</text>
</g>
<!-- Node11 -->
<g id="node11" class="node">
<title>Node11</title>
<g id="a_node11"><a xlink:title=" ">
<polygon fill="white" stroke="#bfbfbf" points="403,-888 403,-945 523,-945 523,-888 403,-888"/>
<text text-anchor="middle" x="463" y="-933" font-family="Helvetica,sans-Serif" font-size="10.00">list&lt; GLUniformPtr &gt;</text>
<polyline fill="none" stroke="#bfbfbf" points="403,-926 523,-926 "/>
<text text-anchor="middle" x="463" y="-914" font-family="Helvetica,sans-Serif" font-size="10.00"> </text>
<polyline fill="none" stroke="#bfbfbf" points="403,-907 523,-907 "/>
<text text-anchor="middle" x="463" y="-895" font-family="Helvetica,sans-Serif" font-size="10.00"> </text>
</a>
</g>
</g>
<!-- Node11&#45;&gt;Node4 -->
<g id="edge10" class="edge">
<title>Node11&#45;&gt;Node4</title>
<path fill="none" stroke="#404040" d="M471.89,-887.73C480.41,-861.56 493.87,-821.36 507,-787 507.9,-784.66 508.81,-782.29 509.74,-779.9"/>
<polygon fill="none" stroke="#404040" points="509.78,-779.8 508.27,-772.75 514.2,-768.64 515.71,-775.69 509.78,-779.8"/>
<text text-anchor="middle" x="537.5" y="-801" font-family="Helvetica,sans-Serif" font-size="10.00"> #_uniforms</text>
</g>
<!-- Node12 -->
<g id="node12" class="node">
<title>Node12</title>
<g id="a_node12"><a xlink:title=" ">
<polygon fill="white" stroke="#bfbfbf" points="849.5,-888 849.5,-945 894.5,-945 894.5,-888 849.5,-888"/>
<text text-anchor="middle" x="872" y="-933" font-family="Helvetica,sans-Serif" font-size="10.00">size_t</text>
<polyline fill="none" stroke="#bfbfbf" points="849.5,-926 894.5,-926 "/>
<text text-anchor="middle" x="872" y="-914" font-family="Helvetica,sans-Serif" font-size="10.00"> </text>
<polyline fill="none" stroke="#bfbfbf" points="849.5,-907 894.5,-907 "/>
<text text-anchor="middle" x="872" y="-895" font-family="Helvetica,sans-Serif" font-size="10.00"> </text>
</a>
</g>
</g>
<!-- Node12&#45;&gt;Node2 -->
<g id="edge17" class="edge">
<title>Node12&#45;&gt;Node2</title>
<path fill="none" stroke="#404040" d="M870.64,-887.66C868.96,-861.45 865.38,-821.22 858,-787 815.87,-591.51 732.4,-368.72 692.4,-267.39"/>
<polygon fill="none" stroke="#404040" points="692.4,-267.38 686.47,-263.28 687.98,-256.23 693.9,-260.33 692.4,-267.38"/>
<text text-anchor="middle" x="835" y="-564" font-family="Helvetica,sans-Serif" font-size="10.00"> #_drawMode</text>
</g>
<!-- Node12&#45;&gt;Node4 -->
<g id="edge11" class="edge">
<title>Node12&#45;&gt;Node4</title>
<path fill="none" stroke="#404040" d="M866.65,-887.84C862.04,-871.15 853.71,-850.73 839,-838 815.36,-817.54 798.53,-834.81 771,-820 751.59,-809.56 751.82,-799.96 734,-787 697.38,-760.36 653.65,-734.6 618.24,-715.09"/>
<polygon fill="none" stroke="#404040" points="618.06,-714.99 610.88,-715.62 607.53,-709.24 614.72,-708.6 618.06,-714.99"/>
<text text-anchor="middle" x="814.5" y="-801" font-family="Helvetica,sans-Serif" font-size="10.00"> #_activeSceneID</text>
</g>
<!-- Node13 -->
<g id="node13" class="node">
<title>Node13</title>
<g id="a_node13"><a xlink:title=" ">
<polygon fill="white" stroke="#bfbfbf" points="541,-888 541,-945 647,-945 647,-888 541,-888"/>
<text text-anchor="middle" x="594" y="-933" font-family="Helvetica,sans-Serif" font-size="10.00">list&lt; CameraPtr &gt;</text>
<polyline fill="none" stroke="#bfbfbf" points="541,-926 647,-926 "/>
<text text-anchor="middle" x="594" y="-914" font-family="Helvetica,sans-Serif" font-size="10.00"> </text>
<polyline fill="none" stroke="#bfbfbf" points="541,-907 647,-907 "/>
<text text-anchor="middle" x="594" y="-895" font-family="Helvetica,sans-Serif" font-size="10.00"> </text>
</a>
</g>
</g>
<!-- Node13&#45;&gt;Node4 -->
<g id="edge13" class="edge">
<title>Node13&#45;&gt;Node4</title>
<path fill="none" stroke="#404040" d="M589.41,-887.9C585.04,-861.87 578.24,-821.75 572,-787 571.61,-784.84 571.22,-782.65 570.82,-780.45"/>
<polygon fill="none" stroke="#404040" points="570.8,-780.33 565.79,-775.15 568.64,-768.53 573.66,-773.71 570.8,-780.33"/>
<text text-anchor="middle" x="607.5" y="-801" font-family="Helvetica,sans-Serif" font-size="10.00"> #_cameras</text>
</g>
<!-- Node14 -->
<g id="node14" class="node">
<title>Node14</title>
<g id="a_node14"><a xlink:title=" ">
<polygon fill="white" stroke="#bfbfbf" points="665,-888 665,-945 713,-945 713,-888 665,-888"/>
<text text-anchor="middle" x="689" y="-933" font-family="Helvetica,sans-Serif" font-size="10.00">GLuint</text>
<polyline fill="none" stroke="#bfbfbf" points="665,-926 713,-926 "/>
<text text-anchor="middle" x="689" y="-914" font-family="Helvetica,sans-Serif" font-size="10.00"> </text>
<polyline fill="none" stroke="#bfbfbf" points="665,-907 713,-907 "/>
<text text-anchor="middle" x="689" y="-895" font-family="Helvetica,sans-Serif" font-size="10.00"> </text>
</a>
</g>
</g>
<!-- Node14&#45;&gt;Node4 -->
<g id="edge14" class="edge">
<title>Node14&#45;&gt;Node4</title>
<path fill="none" stroke="#404040" d="M681.67,-887.98C673.86,-861.11 659.98,-819.63 641,-787 633.54,-774.18 624.53,-761.37 615.13,-749.3"/>
<polygon fill="none" stroke="#404040" points="615.03,-749.18 608.16,-746.99 607.54,-739.8 614.41,-741.99 615.03,-749.18"/>
<text text-anchor="middle" x="680" y="-801" font-family="Helvetica,sans-Serif" font-size="10.00"> #_vaoID</text>
</g>
<!-- Node15 -->
<g id="node15" class="node">
<title>Node15</title>
<g id="a_node15"><a xlink:title=" ">
<polygon fill="white" stroke="#bfbfbf" points="318,-651 318,-708 404,-708 404,-651 318,-651"/>
<text text-anchor="middle" x="361" y="-696" font-family="Helvetica,sans-Serif" font-size="10.00">list&lt; PartPtr &gt;</text>
<polyline fill="none" stroke="#bfbfbf" points="318,-689 404,-689 "/>
<text text-anchor="middle" x="361" y="-677" font-family="Helvetica,sans-Serif" font-size="10.00"> </text>
<polyline fill="none" stroke="#bfbfbf" points="318,-670 404,-670 "/>
<text text-anchor="middle" x="361" y="-658" font-family="Helvetica,sans-Serif" font-size="10.00"> </text>
</a>
</g>
</g>
<!-- Node15&#45;&gt;Node3 -->
<g id="edge15" class="edge">
<title>Node15&#45;&gt;Node3</title>
<path fill="none" stroke="#404040" d="M367.49,-650.87C373.57,-626.7 383.58,-590.87 396,-561 401.59,-547.56 408.39,-533.61 415.34,-520.41"/>
<polygon fill="none" stroke="#404040" points="415.51,-520.09 414.83,-512.91 421.19,-509.52 421.87,-516.7 415.51,-520.09"/>
<text text-anchor="middle" x="417" y="-564" font-family="Helvetica,sans-Serif" font-size="10.00"> #_parts</text>
</g>
<!-- Node16 -->
<g id="node16" class="node">
<title>Node16</title>
<g id="a_node16"><a xlink:title=" ">
<polygon fill="white" stroke="#bfbfbf" points="422,-651 422,-708 460,-708 460,-651 422,-651"/>
<text text-anchor="middle" x="441" y="-696" font-family="Helvetica,sans-Serif" font-size="10.00">bool</text>
<polyline fill="none" stroke="#bfbfbf" points="422,-689 460,-689 "/>
<text text-anchor="middle" x="441" y="-677" font-family="Helvetica,sans-Serif" font-size="10.00"> </text>
<polyline fill="none" stroke="#bfbfbf" points="422,-670 460,-670 "/>
<text text-anchor="middle" x="441" y="-658" font-family="Helvetica,sans-Serif" font-size="10.00"> </text>
</a>
</g>
</g>
<!-- Node16&#45;&gt;Node3 -->
<g id="edge16" class="edge">
<title>Node16&#45;&gt;Node3</title>
<path fill="none" stroke="#404040" d="M440.43,-650.93C440.13,-627.1 440.14,-591.75 442,-561 442.77,-548.33 443.97,-534.86 445.34,-521.9"/>
<polygon fill="none" stroke="#404040" points="445.37,-521.61 442.05,-515.21 446.68,-509.68 450,-516.08 445.37,-521.61"/>
<text text-anchor="middle" x="499.5" y="-564" font-family="Helvetica,sans-Serif" font-size="10.00"> #_partsRequireUpdate</text>
</g>
<!-- Node17 -->
<g id="node17" class="node">
<title>Node17</title>
<g id="a_node17"><a xlink:href="structcie_1_1gl_1_1GLTraits.html" target="_top" xlink:title=" ">
<polygon fill="white" stroke="black" points="757,-182.5 757,-239.5 847,-239.5 847,-182.5 757,-182.5"/>
<text text-anchor="middle" x="802" y="-227.5" font-family="Helvetica,sans-Serif" font-size="10.00">cie::gl::GLTraits</text>
<polyline fill="none" stroke="black" points="757,-220.5 847,-220.5 "/>
<text text-anchor="middle" x="802" y="-208.5" font-family="Helvetica,sans-Serif" font-size="10.00"> </text>
<polyline fill="none" stroke="black" points="757,-201.5 847,-201.5 "/>
<text text-anchor="middle" x="802" y="-189.5" font-family="Helvetica,sans-Serif" font-size="10.00"> </text>
</a>
</g>
</g>
<!-- Node17&#45;&gt;Node1 -->
<g id="edge18" class="edge">
<title>Node17&#45;&gt;Node1</title>
<path fill="none" stroke="midnightblue" d="M814.79,-172.8C825.41,-141.92 840.37,-98.4 850.59,-68.68"/>
<polygon fill="none" stroke="midnightblue" points="811.45,-171.76 811.51,-182.35 818.07,-174.03 811.45,-171.76"/>
</g>
<!-- Node18 -->
<g id="node18" class="node">
<title>Node18</title>
<g id="a_node18"><a xlink:title=" ">
<polygon fill="white" stroke="#bfbfbf" points="865,-182.5 865,-239.5 907,-239.5 907,-182.5 865,-182.5"/>
<text text-anchor="middle" x="886" y="-227.5" font-family="Helvetica,sans-Serif" font-size="10.00">mat4</text>
<polyline fill="none" stroke="#bfbfbf" points="865,-220.5 907,-220.5 "/>
<text text-anchor="middle" x="886" y="-208.5" font-family="Helvetica,sans-Serif" font-size="10.00"> </text>
<polyline fill="none" stroke="#bfbfbf" points="865,-201.5 907,-201.5 "/>
<text text-anchor="middle" x="886" y="-189.5" font-family="Helvetica,sans-Serif" font-size="10.00"> </text>
</a>
</g>
</g>
<!-- Node18&#45;&gt;Node1 -->
<g id="edge19" class="edge">
<title>Node18&#45;&gt;Node1</title>
<path fill="none" stroke="#404040" d="M878.77,-182.15C873.29,-159.63 866.18,-127.01 863,-98 862.4,-92.51 862,-86.74 861.74,-81.01"/>
<polygon fill="none" stroke="#404040" points="861.73,-80.65 857.56,-74.77 861.38,-68.66 865.55,-74.54 861.73,-80.65"/>
<text text-anchor="middle" x="923.5" y="-90" font-family="Helvetica,sans-Serif" font-size="10.00"> #_transformationMatrix</text>
</g>
<!-- Node19 -->
<g id="node19" class="node">
<title>Node19</title>
<g id="a_node19"><a xlink:title=" ">
<polygon fill="white" stroke="#bfbfbf" points="949,-182.5 949,-239.5 1063,-239.5 1063,-182.5 949,-182.5"/>
<text text-anchor="middle" x="1006" y="-227.5" font-family="Helvetica,sans-Serif" font-size="10.00">shared_ptr&lt; Axes &gt;</text>
<polyline fill="none" stroke="#bfbfbf" points="949,-220.5 1063,-220.5 "/>
<text text-anchor="middle" x="1006" y="-208.5" font-family="Helvetica,sans-Serif" font-size="10.00"> </text>
<polyline fill="none" stroke="#bfbfbf" points="949,-201.5 1063,-201.5 "/>
<text text-anchor="middle" x="1006" y="-189.5" font-family="Helvetica,sans-Serif" font-size="10.00"> </text>
</a>
</g>
</g>
<!-- Node19&#45;&gt;Node1 -->
<g id="edge20" class="edge">
<title>Node19&#45;&gt;Node1</title>
<path fill="none" stroke="#404040" d="M1008.19,-182.27C1008.82,-155.13 1005.6,-114.03 984,-87 970.92,-70.63 951.7,-59.4 932.36,-51.71"/>
<polygon fill="none" stroke="#404040" points="932.29,-51.68 925.28,-53.39 921.01,-47.58 928.01,-45.87 932.29,-51.68"/>
<text text-anchor="middle" x="1015.5" y="-90" font-family="Helvetica,sans-Serif" font-size="10.00"> #_p_axes</text>
</g>
<!-- Node20 -->
<g id="node20" class="node">
<title>Node20</title>
<g id="a_node20"><a target="_parent" xlink:href="../../../cieutils/docs/html/classcie_1_1STLContainerBase.html" xlink:title=" ">
<polygon fill="white" stroke="black" points="1081.5,-116.5 1081.5,-305.5 1206.5,-305.5 1206.5,-116.5 1081.5,-116.5"/>
<text text-anchor="start" x="1089.5" y="-293.5" font-family="Helvetica,sans-Serif" font-size="10.00">cie::STLContainerBase</text>
<text text-anchor="start" x="1089.5" y="-282.5" font-family="Helvetica,sans-Serif" font-size="10.00">&lt; std::pair&lt; double,</text>
<text text-anchor="middle" x="1144" y="-271.5" font-family="Helvetica,sans-Serif" font-size="10.00"> double &gt;, 2 &gt;</text>
<polyline fill="none" stroke="black" points="1081.5,-264.5 1206.5,-264.5 "/>
<text text-anchor="middle" x="1144" y="-252.5" font-family="Helvetica,sans-Serif" font-size="10.00"> </text>
<polyline fill="none" stroke="black" points="1081.5,-245.5 1206.5,-245.5 "/>
<text text-anchor="start" x="1089.5" y="-233.5" font-family="Helvetica,sans-Serif" font-size="10.00">+ STLContainerBase()</text>
<text text-anchor="start" x="1089.5" y="-222.5" font-family="Helvetica,sans-Serif" font-size="10.00">+ STLContainerBase()</text>
<text text-anchor="start" x="1089.5" y="-211.5" font-family="Helvetica,sans-Serif" font-size="10.00">+ STLContainerBase()</text>
<text text-anchor="start" x="1089.5" y="-200.5" font-family="Helvetica,sans-Serif" font-size="10.00">+ STLContainerBase()</text>
<text text-anchor="start" x="1089.5" y="-189.5" font-family="Helvetica,sans-Serif" font-size="10.00">+ STLContainerBase()</text>
<text text-anchor="start" x="1089.5" y="-178.5" font-family="Helvetica,sans-Serif" font-size="10.00">+ STLContainerBase()</text>
<text text-anchor="start" x="1089.5" y="-167.5" font-family="Helvetica,sans-Serif" font-size="10.00">+ STLContainerBase()</text>
<text text-anchor="start" x="1089.5" y="-156.5" font-family="Helvetica,sans-Serif" font-size="10.00">+ STLContainerBase()</text>
<text text-anchor="start" x="1089.5" y="-145.5" font-family="Helvetica,sans-Serif" font-size="10.00">+ STLContainerBase()</text>
<text text-anchor="start" x="1089.5" y="-134.5" font-family="Helvetica,sans-Serif" font-size="10.00">+ STLContainerBase()</text>
<text text-anchor="start" x="1089.5" y="-123.5" font-family="Helvetica,sans-Serif" font-size="10.00">and 37 more...</text>
</a>
</g>
</g>
<!-- Node20&#45;&gt;Node1 -->
<g id="edge21" class="edge">
<title>Node20&#45;&gt;Node1</title>
<path fill="none" stroke="#404040" d="M1081.43,-117.02C1070.43,-105.56 1058.22,-95.06 1045,-87 1011.23,-66.4 968.96,-53.8 933.56,-46.22"/>
<polygon fill="none" stroke="#404040" points="933.11,-46.13 926.43,-48.86 921.35,-43.75 928.02,-41.02 933.11,-46.13"/>
<text text-anchor="middle" x="1076.5" y="-90" font-family="Helvetica,sans-Serif" font-size="10.00"> #_box</text>
</g>
<!-- Node21 -->
<g id="node21" class="node">
<title>Node21</title>
<g id="a_node21"><a target="_parent" xlink:href="../../../cieutils/docs/html/classcie_1_1STLContainerBase.html" xlink:title=" ">
<polygon fill="white" stroke="black" points="1078,-364.5 1078,-542.5 1210,-542.5 1210,-364.5 1078,-364.5"/>
<text text-anchor="start" x="1086" y="-530.5" font-family="Helvetica,sans-Serif" font-size="10.00">cie::STLContainerBase</text>
<text text-anchor="middle" x="1144" y="-519.5" font-family="Helvetica,sans-Serif" font-size="10.00">&lt; TBase &gt;</text>
<polyline fill="none" stroke="black" points="1078,-512.5 1210,-512.5 "/>
<text text-anchor="middle" x="1144" y="-500.5" font-family="Helvetica,sans-Serif" font-size="10.00"> </text>
<polyline fill="none" stroke="black" points="1078,-493.5 1210,-493.5 "/>
<text text-anchor="start" x="1086" y="-481.5" font-family="Helvetica,sans-Serif" font-size="10.00">+ STLContainerBase()</text>
<text text-anchor="start" x="1086" y="-470.5" font-family="Helvetica,sans-Serif" font-size="10.00">+ STLContainerBase()</text>
<text text-anchor="start" x="1086" y="-459.5" font-family="Helvetica,sans-Serif" font-size="10.00">+ STLContainerBase()</text>
<text text-anchor="start" x="1086" y="-448.5" font-family="Helvetica,sans-Serif" font-size="10.00">+ STLContainerBase()</text>
<text text-anchor="start" x="1086" y="-437.5" font-family="Helvetica,sans-Serif" font-size="10.00">+ STLContainerBase()</text>
<text text-anchor="start" x="1086" y="-426.5" font-family="Helvetica,sans-Serif" font-size="10.00">+ STLContainerBase()</text>
<text text-anchor="start" x="1086" y="-415.5" font-family="Helvetica,sans-Serif" font-size="10.00">+ operator=()</text>
<text text-anchor="start" x="1086" y="-404.5" font-family="Helvetica,sans-Serif" font-size="10.00">+ operator=()</text>
<text text-anchor="start" x="1086" y="-393.5" font-family="Helvetica,sans-Serif" font-size="10.00">+ ~STLContainerBase()</text>
<text text-anchor="start" x="1086" y="-382.5" font-family="Helvetica,sans-Serif" font-size="10.00">+ size()</text>
<text text-anchor="start" x="1086" y="-371.5" font-family="Helvetica,sans-Serif" font-size="10.00">and 37 more...</text>
</a>
</g>
</g>
<!-- Node21&#45;&gt;Node20 -->
<g id="edge22" class="edge">
<title>Node21&#45;&gt;Node20</title>
<path fill="none" stroke="orange" d="M1144,-353.95C1144,-338.05 1144,-321.62 1144,-305.84"/>
<polygon fill="orange" stroke="orange" points="1140.5,-354.31 1144,-364.31 1147.5,-354.31 1140.5,-354.31"/>
<text text-anchor="start" x="1144" y="-338" font-family="Helvetica,sans-Serif" font-size="10.00"> &lt; std::pair&lt; double,</text>
<text text-anchor="middle" x="1195" y="-327" font-family="Helvetica,sans-Serif" font-size="10.00"> double &gt;, 2 &gt;</text>
</g>
</g>
</svg>
        <g id="navigator" transform="translate(0 0)" fill="#404254">
                <rect fill="#f2f5e9" fill-opacity="0.5" stroke="#606060" stroke-width=".5" x="0" y="0" width="60" height="60"/>
                <use id="zoomplus" xlink:href="#zoomPlus" x="17" y="9" onmousedown="handleZoom(evt,'in')"/>
                <use id="zoomminus" xlink:href="#zoomMin" x="42" y="9" onmousedown="handleZoom(evt,'out')"/>
                <use id="reset" xlink:href="#resetDef" x="30" y="36" onmousedown="handleReset()"/>
                <g id="arrowUp" xlink:href="#dirArrow" transform="translate(30 24)" onmousedown="handlePan(0,-1)">
                  <use xlink:href="#rim" fill="#404040">
                        <set attributeName="fill" to="#808080" begin="arrowUp.mouseover" end="arrowUp.mouseout"/>
                  </use>
                  <path fill="none" stroke="white" stroke-width="1.5" d="M0,-3.0v7 M-2.5,-0.5L0,-3.0L2.5,-0.5"/>
                </g>
                <g id="arrowRight" xlink:href="#dirArrow" transform="rotate(90) translate(36 -43)" onmousedown="handlePan(1,0)">
                  <use xlink:href="#rim" fill="#404040">
                        <set attributeName="fill" to="#808080" begin="arrowRight.mouseover" end="arrowRight.mouseout"/>
                  </use>
                  <path fill="none" stroke="white" stroke-width="1.5" d="M0,-3.0v7 M-2.5,-0.5L0,-3.0L2.5,-0.5"/>
                </g>
                <g id="arrowDown" xlink:href="#dirArrow" transform="rotate(180) translate(-30 -48)" onmousedown="handlePan(0,1)">
                  <use xlink:href="#rim" fill="#404040">
                        <set attributeName="fill" to="#808080" begin="arrowDown.mouseover" end="arrowDown.mouseout"/>
                  </use>
                  <path fill="none" stroke="white" stroke-width="1.5" d="M0,-3.0v7 M-2.5,-0.5L0,-3.0L2.5,-0.5"/>
                </g>
                <g id="arrowLeft" xlink:href="#dirArrow" transform="rotate(270) translate(-36 17)" onmousedown="handlePan(-1,0)">
                  <use xlink:href="#rim" fill="#404040">
                        <set attributeName="fill" to="#808080" begin="arrowLeft.mouseover" end="arrowLeft.mouseout"/>
                  </use>
                  <path fill="none" stroke="white" stroke-width="1.5" d="M0,-3.0v7 M-2.5,-0.5L0,-3.0L2.5,-0.5"/>
                </g>
        </g>
        <svg viewBox="0 0 15 15" width="100%" height="30px" preserveAspectRatio="xMaxYMin meet">
         <g id="arrow_out" transform="scale(0.3 0.3)">
          <a xlink:href="classcie_1_1gl_1_1Axes3DScene__coll__graph_org.svg" target="_base">
           <rect id="button" ry="5" rx="5" y="6" x="6" height="38" width="38"
                fill="#f2f5e9" fill-opacity="0.5" stroke="#606060" stroke-width="1.0"/>
           <path id="arrow"
             d="M 11.500037,31.436501 C 11.940474,20.09759 22.043105,11.32322 32.158766,21.979434 L 37.068811,17.246167 C 37.068811,17.246167 37.088388,32 37.088388,32 L 22.160133,31.978069 C 22.160133,31.978069 26.997745,27.140456 26.997745,27.140456 C 18.528582,18.264221 13.291696,25.230495 11.500037,31.436501 z"
             style="fill:#404040;"/>
          </a>
         </g>
        </svg>
</svg>
