<?xml version="1.0" encoding="UTF-8" standalone="no"?>
<!DOCTYPE svg PUBLIC "-//W3C//DTD SVG 1.1//EN"
 "http://www.w3.org/Graphics/SVG/1.1/DTD/svg11.dtd">
<!-- Generated by graphviz version 2.43.0 (0)
 -->
<!-- Title: cie::gl::AbsMonitor Pages: 1 -->
<svg width="320pt" height="397pt"
 viewBox="0.00 0.00 320.00 397.00" xmlns="http://www.w3.org/2000/svg" xmlns:xlink="http://www.w3.org/1999/xlink">
<g id="graph0" class="graph" transform="scale(1 1) rotate(0) translate(4 393)">
<title>cie::gl::AbsMonitor</title>
<polygon fill="white" stroke="transparent" points="-4,4 -4,-393 316,-393 316,4 -4,4"/>
<!-- Node1 -->
<g id="node1" class="node">
<title>Node1</title>
<g id="a_node1"><a xlink:title=" ">
<polygon fill="#bfbfbf" stroke="black" points="122.5,-0.5 122.5,-90.5 229.5,-90.5 229.5,-0.5 122.5,-0.5"/>
<text text-anchor="middle" x="176" y="-78.5" font-family="Helvetica,sans-Serif" font-size="10.00">cie::gl::AbsMonitor</text>
<polyline fill="none" stroke="black" points="122.5,-71.5 229.5,-71.5 "/>
<text text-anchor="middle" x="176" y="-59.5" font-family="Helvetica,sans-Serif" font-size="10.00"> </text>
<polyline fill="none" stroke="black" points="122.5,-52.5 229.5,-52.5 "/>
<text text-anchor="start" x="130.5" y="-40.5" font-family="Helvetica,sans-Serif" font-size="10.00">+ AbsMonitor()</text>
<text text-anchor="start" x="130.5" y="-29.5" font-family="Helvetica,sans-Serif" font-size="10.00">+ ~AbsMonitor()</text>
<text text-anchor="start" x="130.5" y="-18.5" font-family="Helvetica,sans-Serif" font-size="10.00">+ resolution()</text>
<text text-anchor="start" x="130.5" y="-7.5" font-family="Helvetica,sans-Serif" font-size="10.00">+ isPrimary()</text>
</a>
</g>
</g>
<!-- Node2 -->
<g id="node2" class="node">
<title>Node2</title>
<g id="a_node2"><a target="_parent" xlink:href="../../../cieutils/docs/html/classcie_1_1utils_1_1IDObject.html" xlink:title=" ">
<polygon fill="white" stroke="black" points="0,-138.5 0,-283.5 106,-283.5 106,-138.5 0,-138.5"/>
<text text-anchor="start" x="8" y="-271.5" font-family="Helvetica,sans-Serif" font-size="10.00">cie::utils::IDObject</text>
<text text-anchor="middle" x="53" y="-260.5" font-family="Helvetica,sans-Serif" font-size="10.00">&lt; class &gt;</text>
<polyline fill="none" stroke="black" points="0,-253.5 106,-253.5 "/>
<text text-anchor="middle" x="53" y="-241.5" font-family="Helvetica,sans-Serif" font-size="10.00"> </text>
<polyline fill="none" stroke="black" points="0,-234.5 106,-234.5 "/>
<text text-anchor="start" x="8" y="-222.5" font-family="Helvetica,sans-Serif" font-size="10.00">+ IDObject()</text>
<text text-anchor="start" x="8" y="-211.5" font-family="Helvetica,sans-Serif" font-size="10.00">+ IDObject()</text>
<text text-anchor="start" x="8" y="-200.5" font-family="Helvetica,sans-Serif" font-size="10.00">+ IDObject()</text>
<text text-anchor="start" x="8" y="-189.5" font-family="Helvetica,sans-Serif" font-size="10.00">+ IDObject()</text>
<text text-anchor="start" x="8" y="-178.5" font-family="Helvetica,sans-Serif" font-size="10.00">+ operator=()</text>
<text text-anchor="start" x="8" y="-167.5" font-family="Helvetica,sans-Serif" font-size="10.00">+ operator=()</text>
<text text-anchor="start" x="8" y="-156.5" font-family="Helvetica,sans-Serif" font-size="10.00">+ setID()</text>
<text text-anchor="start" x="8" y="-145.5" font-family="Helvetica,sans-Serif" font-size="10.00">+ getID()</text>
</a>
</g>
</g>
<!-- Node2&#45;&gt;Node1 -->
<g id="edge1" class="edge">
<title>Node2&#45;&gt;Node1</title>
<path fill="none" stroke="midnightblue" d="M112.33,-131.13C122.72,-117.32 133.2,-103.4 142.56,-90.95"/>
<polygon fill="none" stroke="midnightblue" points="109.45,-129.14 106.23,-139.24 115.04,-133.35 109.45,-129.14"/>
</g>
<!-- Node3 -->
<g id="node3" class="node">
<title>Node3</title>
<g id="a_node3"><a xlink:title=" ">
<polygon fill="white" stroke="#bfbfbf" points="36.5,-331.5 36.5,-388.5 69.5,-388.5 69.5,-331.5 36.5,-331.5"/>
<text text-anchor="middle" x="53" y="-376.5" font-family="Helvetica,sans-Serif" font-size="10.00">TID</text>
<polyline fill="none" stroke="#bfbfbf" points="36.5,-369.5 69.5,-369.5 "/>
<text text-anchor="middle" x="53" y="-357.5" font-family="Helvetica,sans-Serif" font-size="10.00"> </text>
<polyline fill="none" stroke="#bfbfbf" points="36.5,-350.5 69.5,-350.5 "/>
<text text-anchor="middle" x="53" y="-338.5" font-family="Helvetica,sans-Serif" font-size="10.00"> </text>
</a>
</g>
</g>
<!-- Node3&#45;&gt;Node2 -->
<g id="edge2" class="edge">
<title>Node3&#45;&gt;Node2</title>
<path fill="none" stroke="#404040" d="M53,-331.35C53,-321.01 53,-308.66 53,-295.89"/>
<polygon fill="none" stroke="#404040" points="53,-295.56 49,-289.56 53,-283.56 57,-289.56 53,-295.56"/>
<text text-anchor="middle" x="66" y="-305" font-family="Helvetica,sans-Serif" font-size="10.00"> #_id</text>
</g>
<!-- Node4 -->
<g id="node4" class="node">
<title>Node4</title>
<g id="a_node4"><a xlink:title=" ">
<polygon fill="white" stroke="#bfbfbf" points="124,-182.5 124,-239.5 228,-239.5 228,-182.5 124,-182.5"/>
<text text-anchor="middle" x="176" y="-227.5" font-family="Helvetica,sans-Serif" font-size="10.00">pair&lt; Size, Size &gt;</text>
<polyline fill="none" stroke="#bfbfbf" points="124,-220.5 228,-220.5 "/>
<text text-anchor="middle" x="176" y="-208.5" font-family="Helvetica,sans-Serif" font-size="10.00"> </text>
<polyline fill="none" stroke="#bfbfbf" points="124,-201.5 228,-201.5 "/>
<text text-anchor="middle" x="176" y="-189.5" font-family="Helvetica,sans-Serif" font-size="10.00"> </text>
</a>
</g>
</g>
<!-- Node4&#45;&gt;Node1 -->
<g id="edge3" class="edge">
<title>Node4&#45;&gt;Node1</title>
<path fill="none" stroke="#404040" d="M176,-182.26C176,-160.54 176,-129.6 176,-102.74"/>
<polygon fill="none" stroke="#404040" points="176,-102.73 172,-96.73 176,-90.73 180,-96.73 176,-102.73"/>
<text text-anchor="middle" x="209" y="-112" font-family="Helvetica,sans-Serif" font-size="10.00"> #_resolution</text>
</g>
<!-- Node5 -->
<g id="node5" class="node">
<title>Node5</title>
<g id="a_node5"><a xlink:title=" ">
<polygon fill="white" stroke="#bfbfbf" points="246,-182.5 246,-239.5 284,-239.5 284,-182.5 246,-182.5"/>
<text text-anchor="middle" x="265" y="-227.5" font-family="Helvetica,sans-Serif" font-size="10.00">bool</text>
<polyline fill="none" stroke="#bfbfbf" points="246,-220.5 284,-220.5 "/>
<text text-anchor="middle" x="265" y="-208.5" font-family="Helvetica,sans-Serif" font-size="10.00"> </text>
<polyline fill="none" stroke="#bfbfbf" points="246,-201.5 284,-201.5 "/>
<text text-anchor="middle" x="265" y="-189.5" font-family="Helvetica,sans-Serif" font-size="10.00"> </text>
</a>
</g>
</g>
<!-- Node5&#45;&gt;Node1 -->
<g id="edge4" class="edge">
<title>Node5&#45;&gt;Node1</title>
<path fill="none" stroke="#404040" d="M263.44,-182.26C261.22,-161.02 255.87,-131.62 243,-109 241.27,-105.95 239.34,-102.97 237.25,-100.06"/>
<polygon fill="none" stroke="#404040" points="237.11,-99.87 230.25,-97.65 229.66,-90.46 236.52,-92.68 237.11,-99.87"/>
<text text-anchor="middle" x="280" y="-112" font-family="Helvetica,sans-Serif" font-size="10.00"> #_isPrimary</text>
</g>
</g>
</svg>
