<?xml version="1.0" encoding="UTF-8" standalone="no"?>
<!DOCTYPE svg PUBLIC "-//W3C//DTD SVG 1.1//EN"
 "http://www.w3.org/Graphics/SVG/1.1/DTD/svg11.dtd">
<!-- Generated by graphviz version 2.43.0 (0)
 -->
<!-- Title: cie::gl::RigidBody Pages: 1 -->
<svg width="276pt" height="705pt"
 viewBox="0.00 0.00 275.50 705.00" xmlns="http://www.w3.org/2000/svg" xmlns:xlink="http://www.w3.org/1999/xlink">
<g id="graph0" class="graph" transform="scale(1 1) rotate(0) translate(4 701)">
<title>cie::gl::RigidBody</title>
<polygon fill="white" stroke="transparent" points="-4,4 -4,-701 271.5,-701 271.5,4 -4,4"/>
<!-- Node1 -->
<g id="node1" class="node">
<title>Node1</title>
<g id="a_node1"><a xlink:title=" ">
<polygon fill="#bfbfbf" stroke="black" points="107.5,-496.5 107.5,-696.5 208.5,-696.5 208.5,-496.5 107.5,-496.5"/>
<text text-anchor="middle" x="158" y="-684.5" font-family="Helvetica,sans-Serif" font-size="10.00">cie::gl::RigidBody</text>
<polyline fill="none" stroke="black" points="107.5,-677.5 208.5,-677.5 "/>
<text text-anchor="start" x="115.5" y="-665.5" font-family="Helvetica,sans-Serif" font-size="10.00"># _position</text>
<text text-anchor="start" x="115.5" y="-654.5" font-family="Helvetica,sans-Serif" font-size="10.00"># _direction</text>
<text text-anchor="start" x="115.5" y="-643.5" font-family="Helvetica,sans-Serif" font-size="10.00"># _up</text>
<polyline fill="none" stroke="black" points="107.5,-636.5 208.5,-636.5 "/>
<text text-anchor="start" x="115.5" y="-624.5" font-family="Helvetica,sans-Serif" font-size="10.00">+ RigidBody()</text>
<text text-anchor="start" x="115.5" y="-613.5" font-family="Helvetica,sans-Serif" font-size="10.00">+ RigidBody()</text>
<text text-anchor="start" x="115.5" y="-602.5" font-family="Helvetica,sans-Serif" font-size="10.00">+ RigidBody()</text>
<text text-anchor="start" x="115.5" y="-591.5" font-family="Helvetica,sans-Serif" font-size="10.00">+ RigidBody()</text>
<text text-anchor="start" x="115.5" y="-580.5" font-family="Helvetica,sans-Serif" font-size="10.00">+ position()</text>
<text text-anchor="start" x="115.5" y="-569.5" font-family="Helvetica,sans-Serif" font-size="10.00">+ direction()</text>
<text text-anchor="start" x="115.5" y="-558.5" font-family="Helvetica,sans-Serif" font-size="10.00">+ up()</text>
<text text-anchor="start" x="115.5" y="-547.5" font-family="Helvetica,sans-Serif" font-size="10.00">+ setPosition()</text>
<text text-anchor="start" x="115.5" y="-536.5" font-family="Helvetica,sans-Serif" font-size="10.00">+ setPose()</text>
<text text-anchor="start" x="115.5" y="-525.5" font-family="Helvetica,sans-Serif" font-size="10.00">+ translate()</text>
<text text-anchor="start" x="115.5" y="-514.5" font-family="Helvetica,sans-Serif" font-size="10.00">and 8 more...</text>
<text text-anchor="start" x="115.5" y="-503.5" font-family="Helvetica,sans-Serif" font-size="10.00"># rotateInPlace()</text>
</a>
</g>
</g>
<!-- Node2 -->
<g id="node2" class="node">
<title>Node2</title>
<g id="a_node2"><a xlink:href="classcie_1_1gl_1_1AbsCamera.html" target="_top" xlink:title=" ">
<polygon fill="white" stroke="black" points="0,-237.5 0,-459.5 174,-459.5 174,-237.5 0,-237.5"/>
<text text-anchor="middle" x="87" y="-447.5" font-family="Helvetica,sans-Serif" font-size="10.00">cie::gl::AbsCamera</text>
<polyline fill="none" stroke="black" points="0,-440.5 174,-440.5 "/>
<text text-anchor="start" x="8" y="-428.5" font-family="Helvetica,sans-Serif" font-size="10.00"># _viewMatrix</text>
<text text-anchor="start" x="8" y="-417.5" font-family="Helvetica,sans-Serif" font-size="10.00"># _transformationMatrix</text>
<polyline fill="none" stroke="black" points="0,-410.5 174,-410.5 "/>
<text text-anchor="start" x="8" y="-398.5" font-family="Helvetica,sans-Serif" font-size="10.00">+ AbsCamera()</text>
<text text-anchor="start" x="8" y="-387.5" font-family="Helvetica,sans-Serif" font-size="10.00">+ AbsCamera()</text>
<text text-anchor="start" x="8" y="-376.5" font-family="Helvetica,sans-Serif" font-size="10.00">+ AbsCamera()</text>
<text text-anchor="start" x="8" y="-365.5" font-family="Helvetica,sans-Serif" font-size="10.00">+ operator=()</text>
<text text-anchor="start" x="8" y="-354.5" font-family="Helvetica,sans-Serif" font-size="10.00">+ update()</text>
<text text-anchor="start" x="8" y="-343.5" font-family="Helvetica,sans-Serif" font-size="10.00">+ setPosition()</text>
<text text-anchor="start" x="8" y="-332.5" font-family="Helvetica,sans-Serif" font-size="10.00">+ setPose()</text>
<text text-anchor="start" x="8" y="-321.5" font-family="Helvetica,sans-Serif" font-size="10.00">+ rotate()</text>
<text text-anchor="start" x="8" y="-310.5" font-family="Helvetica,sans-Serif" font-size="10.00">+ rotate()</text>
<text text-anchor="start" x="8" y="-299.5" font-family="Helvetica,sans-Serif" font-size="10.00">+ viewMatrix()</text>
<text text-anchor="start" x="8" y="-288.5" font-family="Helvetica,sans-Serif" font-size="10.00">and 9 more...</text>
<text text-anchor="start" x="8" y="-277.5" font-family="Helvetica,sans-Serif" font-size="10.00"># rotateInPlace()</text>
<text text-anchor="start" x="8" y="-266.5" font-family="Helvetica,sans-Serif" font-size="10.00"># updateViewMatrix()</text>
<text text-anchor="start" x="8" y="-255.5" font-family="Helvetica,sans-Serif" font-size="10.00"># updateProjectionMatrix()</text>
<text text-anchor="start" x="8" y="-244.5" font-family="Helvetica,sans-Serif" font-size="10.00"># updateTransformationMatrix()</text>
</a>
</g>
</g>
<!-- Node1&#45;&gt;Node2 -->
<g id="edge1" class="edge">
<title>Node1&#45;&gt;Node2</title>
<path fill="none" stroke="midnightblue" d="M126.55,-486.53C123.98,-477.62 121.38,-468.61 118.8,-459.69"/>
<polygon fill="none" stroke="midnightblue" points="123.19,-487.51 129.33,-496.15 129.92,-485.57 123.19,-487.51"/>
</g>
<!-- Node4 -->
<g id="node4" class="node">
<title>Node4</title>
<g id="a_node4"><a xlink:href="classcie_1_1gl_1_1Axes.html" target="_top" xlink:title=" ">
<polygon fill="white" stroke="black" points="192.5,-320 192.5,-377 267.5,-377 267.5,-320 192.5,-320"/>
<text text-anchor="middle" x="230" y="-365" font-family="Helvetica,sans-Serif" font-size="10.00">cie::gl::Axes</text>
<polyline fill="none" stroke="black" points="192.5,-358 267.5,-358 "/>
<text text-anchor="middle" x="230" y="-346" font-family="Helvetica,sans-Serif" font-size="10.00"> </text>
<polyline fill="none" stroke="black" points="192.5,-339 267.5,-339 "/>
<text text-anchor="start" x="200.5" y="-327" font-family="Helvetica,sans-Serif" font-size="10.00">+ Axes()</text>
</a>
</g>
</g>
<!-- Node1&#45;&gt;Node4 -->
<g id="edge3" class="edge">
<title>Node1&#45;&gt;Node4</title>
<path fill="none" stroke="midnightblue" d="M189.9,-486.5C201.7,-446.19 214.09,-403.84 221.92,-377.09"/>
<polygon fill="none" stroke="midnightblue" points="186.53,-485.57 187.08,-496.15 193.25,-487.54 186.53,-485.57"/>
</g>
<!-- Node3 -->
<g id="node3" class="node">
<title>Node3</title>
<g id="a_node3"><a xlink:href="classcie_1_1gl_1_1Camera.html" target="_top" xlink:title=" ">
<polygon fill="white" stroke="black" points="12,-0.5 12,-200.5 162,-200.5 162,-0.5 12,-0.5"/>
<text text-anchor="start" x="20" y="-188.5" font-family="Helvetica,sans-Serif" font-size="10.00">cie::gl::Camera&lt; Projection</text>
<text text-anchor="middle" x="87" y="-177.5" font-family="Helvetica,sans-Serif" font-size="10.00">Type &gt;</text>
<polyline fill="none" stroke="black" points="12,-170.5 162,-170.5 "/>
<text text-anchor="middle" x="87" y="-158.5" font-family="Helvetica,sans-Serif" font-size="10.00"> </text>
<polyline fill="none" stroke="black" points="12,-151.5 162,-151.5 "/>
<text text-anchor="start" x="20" y="-139.5" font-family="Helvetica,sans-Serif" font-size="10.00">+ Camera()</text>
<text text-anchor="start" x="20" y="-128.5" font-family="Helvetica,sans-Serif" font-size="10.00">+ Camera()</text>
<text text-anchor="start" x="20" y="-117.5" font-family="Helvetica,sans-Serif" font-size="10.00">+ Camera()</text>
<text text-anchor="start" x="20" y="-106.5" font-family="Helvetica,sans-Serif" font-size="10.00">+ operator=()</text>
<text text-anchor="start" x="20" y="-95.5" font-family="Helvetica,sans-Serif" font-size="10.00">+ projectionMatrix()</text>
<text text-anchor="start" x="20" y="-84.5" font-family="Helvetica,sans-Serif" font-size="10.00">+ zoom()</text>
<text text-anchor="start" x="20" y="-73.5" font-family="Helvetica,sans-Serif" font-size="10.00">+ clippingPlanes()</text>
<text text-anchor="start" x="20" y="-62.5" font-family="Helvetica,sans-Serif" font-size="10.00">+ setClippingPlanes()</text>
<text text-anchor="start" x="20" y="-51.5" font-family="Helvetica,sans-Serif" font-size="10.00">+ aspectRatio()</text>
<text text-anchor="start" x="20" y="-40.5" font-family="Helvetica,sans-Serif" font-size="10.00">+ setAspectRatio()</text>
<text text-anchor="start" x="20" y="-29.5" font-family="Helvetica,sans-Serif" font-size="10.00">+ fieldOfView()</text>
<text text-anchor="start" x="20" y="-18.5" font-family="Helvetica,sans-Serif" font-size="10.00">+ setFieldOfView()</text>
<text text-anchor="start" x="20" y="-7.5" font-family="Helvetica,sans-Serif" font-size="10.00"># updateProjectionMatrix()</text>
</a>
</g>
</g>
<!-- Node2&#45;&gt;Node3 -->
<g id="edge2" class="edge">
<title>Node2&#45;&gt;Node3</title>
<path fill="none" stroke="midnightblue" d="M87,-227.35C87,-218.38 87,-209.4 87,-200.58"/>
<polygon fill="none" stroke="midnightblue" points="83.5,-227.45 87,-237.45 90.5,-227.45 83.5,-227.45"/>
</g>
</g>
</svg>
