<?xml version="1.0" encoding="UTF-8" standalone="no"?>
<!DOCTYPE svg PUBLIC "-//W3C//DTD SVG 1.1//EN"
 "http://www.w3.org/Graphics/SVG/1.1/DTD/svg11.dtd">
<!-- Generated by graphviz version 2.43.0 (0)
 -->
<!-- Title: cie::gl::FlyCameraControls Pages: 1 -->
<!--zoomable 862 -->
<svg id="main" version="1.1" xmlns="http://www.w3.org/2000/svg" xmlns:xlink="http://www.w3.org/1999/xlink" xml:space="preserve" onload="init(evt)">
<style type="text/css"><![CDATA[
.edge:hover path { stroke: red; }
.edge:hover polygon { stroke: red; fill: red; }
]]></style>
<script type="text/javascript"><![CDATA[
var edges = document.getElementsByTagName('g');
if (edges && edges.length) {
  for (var i=0;i<edges.length;i++) {
    if (edges[i].id.substr(0,4)=='edge') {
      edges[i].setAttribute('class','edge');
    }
  }
}
]]></script>
        <defs>
                <circle id="rim" cx="0" cy="0" r="7"/>
                <circle id="rim2" cx="0" cy="0" r="3.5"/>
                <g id="zoomPlus">
                        <use xlink:href="#rim" fill="#404040">
                                <set attributeName="fill" to="#808080" begin="zoomplus.mouseover" end="zoomplus.mouseout"/>
                        </use>
                        <path d="M-4,0h8M0,-4v8" fill="none" stroke="white" stroke-width="1.5" pointer-events="none"/>
                </g>
                <g id="zoomMin">
                        <use xlink:href="#rim" fill="#404040">
                                <set attributeName="fill" to="#808080" begin="zoomminus.mouseover" end="zoomminus.mouseout"/>
                        </use>
                        <path d="M-4,0h8" fill="none" stroke="white" stroke-width="1.5" pointer-events="none"/>
                </g>
                <g id="dirArrow">
                        <path fill="none" stroke="white" stroke-width="1.5" d="M0,-3.0v7 M-2.5,-0.5L0,-3.0L2.5,-0.5"/>
                </g>
               <g id="resetDef">
                       <use xlink:href="#rim2" fill="#404040">
                               <set attributeName="fill" to="#808080" begin="reset.mouseover" end="reset.mouseout"/>
                       </use>
               </g>
        </defs>

<script type="text/javascript">
var viewWidth = 808;
var viewHeight = 862;
var sectionId = 'dynsection-1';
</script>
<script xlink:href="svgpan.js"/>
<svg id="graph" class="graph">
<g id="viewport">
<title>cie::gl::FlyCameraControls</title>
<polygon fill="white" stroke="transparent" points="-4,4 -4,-858 803.5,-858 803.5,4 -4,4"/>
<!-- Node1 -->
<g id="node1" class="node">
<title>Node1</title>
<g id="a_node1"><a xlink:title=" ">
<polygon fill="#bfbfbf" stroke="black" points="335,-0.5 335,-90.5 481,-90.5 481,-0.5 335,-0.5"/>
<text text-anchor="middle" x="408" y="-78.5" font-family="Helvetica,sans-Serif" font-size="10.00">cie::gl::FlyCameraControls</text>
<polyline fill="none" stroke="black" points="335,-71.5 481,-71.5 "/>
<text text-anchor="middle" x="408" y="-59.5" font-family="Helvetica,sans-Serif" font-size="10.00"> </text>
<polyline fill="none" stroke="black" points="335,-52.5 481,-52.5 "/>
<text text-anchor="start" x="343" y="-40.5" font-family="Helvetica,sans-Serif" font-size="10.00">+ FlyCameraControls()</text>
<text text-anchor="start" x="343" y="-29.5" font-family="Helvetica,sans-Serif" font-size="10.00">+ setMovementScale()</text>
<text text-anchor="start" x="343" y="-18.5" font-family="Helvetica,sans-Serif" font-size="10.00">+ setRotationScale()</text>
<text text-anchor="start" x="343" y="-7.5" font-family="Helvetica,sans-Serif" font-size="10.00">+ setZoomScale()</text>
</a>
</g>
</g>
<!-- Node2 -->
<g id="node2" class="node">
<title>Node2</title>
<g id="a_node2"><a xlink:href="classcie_1_1gl_1_1MappedCameraControls.html" target="_top" xlink:title=" ">
<polygon fill="white" stroke="black" points="323,-128.5 323,-196.5 493,-196.5 493,-128.5 323,-128.5"/>
<text text-anchor="middle" x="408" y="-184.5" font-family="Helvetica,sans-Serif" font-size="10.00">cie::gl::MappedCameraControls</text>
<polyline fill="none" stroke="black" points="323,-177.5 493,-177.5 "/>
<text text-anchor="middle" x="408" y="-165.5" font-family="Helvetica,sans-Serif" font-size="10.00"> </text>
<polyline fill="none" stroke="black" points="323,-158.5 493,-158.5 "/>
<text text-anchor="start" x="331" y="-146.5" font-family="Helvetica,sans-Serif" font-size="10.00">+ MappedCameraControls()</text>
<text text-anchor="start" x="331" y="-135.5" font-family="Helvetica,sans-Serif" font-size="10.00"># onSubjectChange()</text>
</a>
</g>
</g>
<!-- Node2&#45;&gt;Node1 -->
<g id="edge1" class="edge">
<title>Node2&#45;&gt;Node1</title>
<path fill="none" stroke="midnightblue" d="M408,-118.05C408,-109.15 408,-99.76 408,-90.82"/>
<polygon fill="none" stroke="midnightblue" points="404.5,-118.24 408,-128.24 411.5,-118.24 404.5,-118.24"/>
</g>
<!-- Node3 -->
<g id="node3" class="node">
<title>Node3</title>
<g id="a_node3"><a xlink:href="classcie_1_1gl_1_1AbsCameraControls.html" target="_top" xlink:title=" ">
<polygon fill="white" stroke="black" points="249.5,-234.5 249.5,-500.5 400.5,-500.5 400.5,-234.5 249.5,-234.5"/>
<text text-anchor="middle" x="325" y="-488.5" font-family="Helvetica,sans-Serif" font-size="10.00">cie::gl::AbsCameraControls</text>
<polyline fill="none" stroke="black" points="249.5,-481.5 400.5,-481.5 "/>
<text text-anchor="middle" x="325" y="-469.5" font-family="Helvetica,sans-Serif" font-size="10.00"> </text>
<polyline fill="none" stroke="black" points="249.5,-462.5 400.5,-462.5 "/>
<text text-anchor="start" x="257.5" y="-450.5" font-family="Helvetica,sans-Serif" font-size="10.00">+ AbsCameraControls()</text>
<text text-anchor="start" x="257.5" y="-439.5" font-family="Helvetica,sans-Serif" font-size="10.00">+ mouseButtonCallback()</text>
<text text-anchor="start" x="257.5" y="-428.5" font-family="Helvetica,sans-Serif" font-size="10.00">+ cursorPositionCallback()</text>
<text text-anchor="start" x="257.5" y="-417.5" font-family="Helvetica,sans-Serif" font-size="10.00">+ cursorEnterCallback()</text>
<text text-anchor="start" x="257.5" y="-406.5" font-family="Helvetica,sans-Serif" font-size="10.00">+ scrollCallback()</text>
<text text-anchor="start" x="257.5" y="-395.5" font-family="Helvetica,sans-Serif" font-size="10.00">+ keyboardCallback()</text>
<text text-anchor="start" x="257.5" y="-384.5" font-family="Helvetica,sans-Serif" font-size="10.00">+ bind()</text>
<text text-anchor="start" x="257.5" y="-373.5" font-family="Helvetica,sans-Serif" font-size="10.00"># onMouseButtonPress()</text>
<text text-anchor="start" x="257.5" y="-362.5" font-family="Helvetica,sans-Serif" font-size="10.00"># onMouseButtonHold()</text>
<text text-anchor="start" x="257.5" y="-351.5" font-family="Helvetica,sans-Serif" font-size="10.00"># onMouseButtonRelease()</text>
<text text-anchor="start" x="257.5" y="-340.5" font-family="Helvetica,sans-Serif" font-size="10.00"># onCursorMovement()</text>
<text text-anchor="start" x="257.5" y="-329.5" font-family="Helvetica,sans-Serif" font-size="10.00"># onCursorEnter()</text>
<text text-anchor="start" x="257.5" y="-318.5" font-family="Helvetica,sans-Serif" font-size="10.00"># onCursorLeave()</text>
<text text-anchor="start" x="257.5" y="-307.5" font-family="Helvetica,sans-Serif" font-size="10.00"># onHorizontalScroll()</text>
<text text-anchor="start" x="257.5" y="-296.5" font-family="Helvetica,sans-Serif" font-size="10.00"># onVerticalScroll()</text>
<text text-anchor="start" x="257.5" y="-285.5" font-family="Helvetica,sans-Serif" font-size="10.00"># onKeyboardPress()</text>
<text text-anchor="start" x="257.5" y="-274.5" font-family="Helvetica,sans-Serif" font-size="10.00"># onKeyboardHold()</text>
<text text-anchor="start" x="257.5" y="-263.5" font-family="Helvetica,sans-Serif" font-size="10.00"># onKeyboardRelease()</text>
<text text-anchor="start" x="257.5" y="-252.5" font-family="Helvetica,sans-Serif" font-size="10.00"># onSubjectChange()</text>
<text text-anchor="start" x="257.5" y="-241.5" font-family="Helvetica,sans-Serif" font-size="10.00"># getWindow()</text>
</a>
</g>
</g>
<!-- Node3&#45;&gt;Node2 -->
<g id="edge2" class="edge">
<title>Node3&#45;&gt;Node2</title>
<path fill="none" stroke="midnightblue" d="M382.87,-224.96C387.04,-214.75 390.95,-205.19 394.39,-196.79"/>
<polygon fill="none" stroke="midnightblue" points="379.52,-223.92 378.97,-234.5 385.99,-226.57 379.52,-223.92"/>
</g>
<!-- Node4 -->
<g id="node4" class="node">
<title>Node4</title>
<g id="a_node4"><a target="_parent" xlink:href="../../../cieutils/docs/html/classcie_1_1utils_1_1observer_1_1Observer.html" xlink:title=" ">
<polygon fill="white" stroke="black" points="0,-559.5 0,-737.5 120,-737.5 120,-559.5 0,-559.5"/>
<text text-anchor="start" x="8" y="-725.5" font-family="Helvetica,sans-Serif" font-size="10.00">cie::utils::observer</text>
<text text-anchor="middle" x="60" y="-714.5" font-family="Helvetica,sans-Serif" font-size="10.00">::Observer</text>
<polyline fill="none" stroke="black" points="0,-707.5 120,-707.5 "/>
<text text-anchor="middle" x="60" y="-695.5" font-family="Helvetica,sans-Serif" font-size="10.00"> </text>
<polyline fill="none" stroke="black" points="0,-688.5 120,-688.5 "/>
<text text-anchor="start" x="8" y="-676.5" font-family="Helvetica,sans-Serif" font-size="10.00">+ Observer()</text>
<text text-anchor="start" x="8" y="-665.5" font-family="Helvetica,sans-Serif" font-size="10.00">+ Observer()</text>
<text text-anchor="start" x="8" y="-654.5" font-family="Helvetica,sans-Serif" font-size="10.00">+ Observer()</text>
<text text-anchor="start" x="8" y="-643.5" font-family="Helvetica,sans-Serif" font-size="10.00">+ operator=()</text>
<text text-anchor="start" x="8" y="-632.5" font-family="Helvetica,sans-Serif" font-size="10.00">+ ~Observer()</text>
<text text-anchor="start" x="8" y="-621.5" font-family="Helvetica,sans-Serif" font-size="10.00">+ onSubjectChange()</text>
<text text-anchor="start" x="8" y="-610.5" font-family="Helvetica,sans-Serif" font-size="10.00">+ detach()</text>
<text text-anchor="start" x="8" y="-599.5" font-family="Helvetica,sans-Serif" font-size="10.00">+ as()</text>
<text text-anchor="start" x="8" y="-588.5" font-family="Helvetica,sans-Serif" font-size="10.00">+ setSubject()</text>
<text text-anchor="start" x="8" y="-577.5" font-family="Helvetica,sans-Serif" font-size="10.00">+ subject()</text>
<text text-anchor="start" x="8" y="-566.5" font-family="Helvetica,sans-Serif" font-size="10.00">+ subject()</text>
</a>
</g>
</g>
<!-- Node4&#45;&gt;Node3 -->
<g id="edge3" class="edge">
<title>Node4&#45;&gt;Node3</title>
<path fill="none" stroke="midnightblue" d="M127.12,-561.11C127.75,-560.4 128.37,-559.7 129,-559 166.7,-516.96 211.7,-472.84 249.07,-437.66"/>
<polygon fill="none" stroke="midnightblue" points="124.31,-559.01 120.39,-568.85 129.59,-563.6 124.31,-559.01"/>
</g>
<!-- Node5 -->
<g id="node5" class="node">
<title>Node5</title>
<g id="a_node5"><a xlink:title=" ">
<polygon fill="white" stroke="#bfbfbf" points="0.5,-785.5 0.5,-853.5 119.5,-853.5 119.5,-785.5 0.5,-785.5"/>
<text text-anchor="start" x="8.5" y="-841.5" font-family="Helvetica,sans-Serif" font-size="10.00">weak_ptr&lt; cie::utils</text>
<text text-anchor="middle" x="60" y="-830.5" font-family="Helvetica,sans-Serif" font-size="10.00">::observer::Subject &gt;</text>
<polyline fill="none" stroke="#bfbfbf" points="0.5,-823.5 119.5,-823.5 "/>
<text text-anchor="middle" x="60" y="-811.5" font-family="Helvetica,sans-Serif" font-size="10.00"> </text>
<polyline fill="none" stroke="#bfbfbf" points="0.5,-804.5 119.5,-804.5 "/>
<text text-anchor="middle" x="60" y="-792.5" font-family="Helvetica,sans-Serif" font-size="10.00"> </text>
</a>
</g>
</g>
<!-- Node5&#45;&gt;Node4 -->
<g id="edge4" class="edge">
<title>Node5&#45;&gt;Node4</title>
<path fill="none" stroke="#404040" d="M60,-785.11C60,-774.69 60,-762.6 60,-750.02"/>
<polygon fill="none" stroke="#404040" points="60,-749.85 56,-743.85 60,-737.85 64,-743.85 60,-749.85"/>
<text text-anchor="middle" x="86" y="-759" font-family="Helvetica,sans-Serif" font-size="10.00"> #_subject</text>
</g>
<!-- Node6 -->
<g id="node6" class="node">
<title>Node6</title>
<g id="a_node6"><a xlink:title=" ">
<polygon fill="white" stroke="#bfbfbf" points="138,-620 138,-677 188,-677 188,-620 138,-620"/>
<text text-anchor="middle" x="163" y="-665" font-family="Helvetica,sans-Serif" font-size="10.00">double</text>
<polyline fill="none" stroke="#bfbfbf" points="138,-658 188,-658 "/>
<text text-anchor="middle" x="163" y="-646" font-family="Helvetica,sans-Serif" font-size="10.00"> </text>
<polyline fill="none" stroke="#bfbfbf" points="138,-639 188,-639 "/>
<text text-anchor="middle" x="163" y="-627" font-family="Helvetica,sans-Serif" font-size="10.00"> </text>
</a>
</g>
</g>
<!-- Node6&#45;&gt;Node3 -->
<g id="edge5" class="edge">
<title>Node6&#45;&gt;Node3</title>
<path fill="none" stroke="#404040" d="M171.88,-619.69C177.99,-601.9 186.83,-578.57 197,-559 210.32,-533.36 226.37,-506.97 242.52,-482.3"/>
<polygon fill="none" stroke="#404040" points="242.58,-482.21 242.55,-475 249.2,-472.2 249.22,-479.41 242.58,-482.21"/>
<text text-anchor="middle" x="230.5" y="-533" font-family="Helvetica,sans-Serif" font-size="10.00"> #_x</text>
<text text-anchor="middle" x="230.5" y="-522" font-family="Helvetica,sans-Serif" font-size="10.00">#_y</text>
</g>
<!-- Node7 -->
<g id="node7" class="node">
<title>Node7</title>
<g id="a_node7"><a xlink:title=" ">
<polygon fill="white" stroke="#bfbfbf" points="206,-620 206,-677 284,-677 284,-620 206,-620"/>
<text text-anchor="middle" x="245" y="-665" font-family="Helvetica,sans-Serif" font-size="10.00">WeakPointer</text>
<polyline fill="none" stroke="#bfbfbf" points="206,-658 284,-658 "/>
<text text-anchor="middle" x="245" y="-646" font-family="Helvetica,sans-Serif" font-size="10.00"> </text>
<polyline fill="none" stroke="#bfbfbf" points="206,-639 284,-639 "/>
<text text-anchor="middle" x="245" y="-627" font-family="Helvetica,sans-Serif" font-size="10.00"> </text>
</a>
</g>
</g>
<!-- Node7&#45;&gt;Node3 -->
<g id="edge6" class="edge">
<title>Node7&#45;&gt;Node3</title>
<path fill="none" stroke="#404040" d="M244.33,-619.96C244.35,-593.61 246.09,-552.98 255,-519 255.56,-516.85 256.16,-514.69 256.78,-512.52"/>
<polygon fill="none" stroke="#404040" points="256.83,-512.38 254.77,-505.47 260.35,-500.91 262.41,-507.82 256.83,-512.38"/>
<text text-anchor="middle" x="288" y="-527.5" font-family="Helvetica,sans-Serif" font-size="10.00"> #_p_window</text>
</g>
<!-- Node8 -->
<g id="node8" class="node">
<title>Node8</title>
<g id="a_node8"><a xlink:title=" ">
<polygon fill="white" stroke="#bfbfbf" points="310.5,-620 310.5,-677 339.5,-677 339.5,-620 310.5,-620"/>
<text text-anchor="middle" x="325" y="-665" font-family="Helvetica,sans-Serif" font-size="10.00">int</text>
<polyline fill="none" stroke="#bfbfbf" points="310.5,-658 339.5,-658 "/>
<text text-anchor="middle" x="325" y="-646" font-family="Helvetica,sans-Serif" font-size="10.00"> </text>
<polyline fill="none" stroke="#bfbfbf" points="310.5,-639 339.5,-639 "/>
<text text-anchor="middle" x="325" y="-627" font-family="Helvetica,sans-Serif" font-size="10.00"> </text>
</a>
</g>
</g>
<!-- Node8&#45;&gt;Node3 -->
<g id="edge7" class="edge">
<title>Node8&#45;&gt;Node3</title>
<path fill="none" stroke="#404040" d="M325,-619.98C325,-594.27 325,-553.78 325,-512.75"/>
<polygon fill="none" stroke="#404040" points="325,-512.59 321,-506.59 325,-500.59 329,-506.59 325,-512.59"/>
<text text-anchor="middle" x="360" y="-527.5" font-family="Helvetica,sans-Serif" font-size="10.00"> #_escapeKey</text>
</g>
<!-- Node9 -->
<g id="node9" class="node">
<title>Node9</title>
<g id="a_node9"><a xlink:title=" ">
<polygon fill="white" stroke="#bfbfbf" points="363,-620 363,-677 463,-677 463,-620 363,-620"/>
<text text-anchor="middle" x="413" y="-665" font-family="Helvetica,sans-Serif" font-size="10.00">set&lt; KeyEnum &gt;</text>
<polyline fill="none" stroke="#bfbfbf" points="363,-658 463,-658 "/>
<text text-anchor="middle" x="413" y="-646" font-family="Helvetica,sans-Serif" font-size="10.00"> </text>
<polyline fill="none" stroke="#bfbfbf" points="363,-639 463,-639 "/>
<text text-anchor="middle" x="413" y="-627" font-family="Helvetica,sans-Serif" font-size="10.00"> </text>
</a>
</g>
</g>
<!-- Node9&#45;&gt;Node3 -->
<g id="edge8" class="edge">
<title>Node9&#45;&gt;Node3</title>
<path fill="none" stroke="#404040" d="M411.81,-619.92C410.11,-593.55 405.97,-552.89 396,-519 395.33,-516.71 394.62,-514.42 393.89,-512.12"/>
<polygon fill="none" stroke="#404040" points="393.84,-511.95 388.14,-507.53 390.02,-500.57 395.72,-504.99 393.84,-511.95"/>
<text text-anchor="middle" x="437" y="-527.5" font-family="Helvetica,sans-Serif" font-size="10.00"> #_activeKeys</text>
</g>
<!-- Node10 -->
<g id="node10" class="node">
<title>Node10</title>
<g id="a_node10"><a xlink:title=" ">
<polygon fill="white" stroke="#bfbfbf" points="481.5,-620 481.5,-677 628.5,-677 628.5,-620 481.5,-620"/>
<text text-anchor="middle" x="555" y="-665" font-family="Helvetica,sans-Serif" font-size="10.00">shared_ptr&lt; AbsCamera &gt;</text>
<polyline fill="none" stroke="#bfbfbf" points="481.5,-658 628.5,-658 "/>
<text text-anchor="middle" x="555" y="-646" font-family="Helvetica,sans-Serif" font-size="10.00"> </text>
<polyline fill="none" stroke="#bfbfbf" points="481.5,-639 628.5,-639 "/>
<text text-anchor="middle" x="555" y="-627" font-family="Helvetica,sans-Serif" font-size="10.00"> </text>
</a>
</g>
</g>
<!-- Node10&#45;&gt;Node3 -->
<g id="edge9" class="edge">
<title>Node10&#45;&gt;Node3</title>
<path fill="none" stroke="#404040" d="M540.56,-619.95C525.9,-593.06 501.75,-551.56 476,-519 456.05,-493.77 432.24,-468.33 409.5,-445.73"/>
<polygon fill="none" stroke="#404040" points="409.4,-445.63 402.32,-444.27 400.84,-437.21 407.93,-438.57 409.4,-445.63"/>
<text text-anchor="middle" x="522.5" y="-527.5" font-family="Helvetica,sans-Serif" font-size="10.00"> #_p_camera</text>
</g>
<!-- Node11 -->
<g id="node11" class="node">
<title>Node11</title>
<g id="a_node11"><a xlink:href="classcie_1_1gl_1_1MappedControls.html" target="_top" xlink:title=" ">
<polygon fill="white" stroke="black" points="533.5,-317 533.5,-418 682.5,-418 682.5,-317 533.5,-317"/>
<text text-anchor="middle" x="608" y="-406" font-family="Helvetica,sans-Serif" font-size="10.00">cie::gl::MappedControls</text>
<polyline fill="none" stroke="black" points="533.5,-399 682.5,-399 "/>
<text text-anchor="middle" x="608" y="-387" font-family="Helvetica,sans-Serif" font-size="10.00"> </text>
<polyline fill="none" stroke="black" points="533.5,-380 682.5,-380 "/>
<text text-anchor="start" x="541.5" y="-368" font-family="Helvetica,sans-Serif" font-size="10.00">+ MappedControls()</text>
<text text-anchor="start" x="541.5" y="-357" font-family="Helvetica,sans-Serif" font-size="10.00">+ configure()</text>
<text text-anchor="start" x="541.5" y="-346" font-family="Helvetica,sans-Serif" font-size="10.00">+ configure()</text>
<text text-anchor="start" x="541.5" y="-335" font-family="Helvetica,sans-Serif" font-size="10.00">+ callControl()</text>
<text text-anchor="start" x="541.5" y="-324" font-family="Helvetica,sans-Serif" font-size="10.00"># makeConfigurationMap()</text>
</a>
</g>
</g>
<!-- Node11&#45;&gt;Node2 -->
<g id="edge10" class="edge">
<title>Node11&#45;&gt;Node2</title>
<path fill="none" stroke="midnightblue" d="M552.04,-309.7C516.2,-273.32 470.92,-227.36 440.79,-196.79"/>
<polygon fill="none" stroke="midnightblue" points="549.56,-312.17 559.07,-316.84 554.55,-307.26 549.56,-312.17"/>
</g>
<!-- Node12 -->
<g id="node12" class="node">
<title>Node12</title>
<g id="a_node12"><a xlink:title=" ">
<polygon fill="white" stroke="#bfbfbf" points="646.5,-614.5 646.5,-682.5 799.5,-682.5 799.5,-614.5 646.5,-614.5"/>
<text text-anchor="start" x="654.5" y="-670.5" font-family="Helvetica,sans-Serif" font-size="10.00">unordered_map&lt; KeyEnum,</text>
<text text-anchor="middle" x="723" y="-659.5" font-family="Helvetica,sans-Serif" font-size="10.00"> control_function &gt;</text>
<polyline fill="none" stroke="#bfbfbf" points="646.5,-652.5 799.5,-652.5 "/>
<text text-anchor="middle" x="723" y="-640.5" font-family="Helvetica,sans-Serif" font-size="10.00"> </text>
<polyline fill="none" stroke="#bfbfbf" points="646.5,-633.5 799.5,-633.5 "/>
<text text-anchor="middle" x="723" y="-621.5" font-family="Helvetica,sans-Serif" font-size="10.00"> </text>
</a>
</g>
</g>
<!-- Node12&#45;&gt;Node11 -->
<g id="edge11" class="edge">
<title>Node12&#45;&gt;Node11</title>
<path fill="none" stroke="#404040" d="M709.36,-614.4C690.63,-568.96 656.61,-486.43 633.19,-429.61"/>
<polygon fill="none" stroke="#404040" points="633.08,-429.34 627.09,-425.32 628.51,-418.25 634.49,-422.27 633.08,-429.34"/>
<text text-anchor="middle" x="711" y="-527.5" font-family="Helvetica,sans-Serif" font-size="10.00"> #_controlMap</text>
</g>
</g>
</svg>
        <g id="navigator" transform="translate(0 0)" fill="#404254">
                <rect fill="#f2f5e9" fill-opacity="0.5" stroke="#606060" stroke-width=".5" x="0" y="0" width="60" height="60"/>
                <use id="zoomplus" xlink:href="#zoomPlus" x="17" y="9" onmousedown="handleZoom(evt,'in')"/>
                <use id="zoomminus" xlink:href="#zoomMin" x="42" y="9" onmousedown="handleZoom(evt,'out')"/>
                <use id="reset" xlink:href="#resetDef" x="30" y="36" onmousedown="handleReset()"/>
                <g id="arrowUp" xlink:href="#dirArrow" transform="translate(30 24)" onmousedown="handlePan(0,-1)">
                  <use xlink:href="#rim" fill="#404040">
                        <set attributeName="fill" to="#808080" begin="arrowUp.mouseover" end="arrowUp.mouseout"/>
                  </use>
                  <path fill="none" stroke="white" stroke-width="1.5" d="M0,-3.0v7 M-2.5,-0.5L0,-3.0L2.5,-0.5"/>
                </g>
                <g id="arrowRight" xlink:href="#dirArrow" transform="rotate(90) translate(36 -43)" onmousedown="handlePan(1,0)">
                  <use xlink:href="#rim" fill="#404040">
                        <set attributeName="fill" to="#808080" begin="arrowRight.mouseover" end="arrowRight.mouseout"/>
                  </use>
                  <path fill="none" stroke="white" stroke-width="1.5" d="M0,-3.0v7 M-2.5,-0.5L0,-3.0L2.5,-0.5"/>
                </g>
                <g id="arrowDown" xlink:href="#dirArrow" transform="rotate(180) translate(-30 -48)" onmousedown="handlePan(0,1)">
                  <use xlink:href="#rim" fill="#404040">
                        <set attributeName="fill" to="#808080" begin="arrowDown.mouseover" end="arrowDown.mouseout"/>
                  </use>
                  <path fill="none" stroke="white" stroke-width="1.5" d="M0,-3.0v7 M-2.5,-0.5L0,-3.0L2.5,-0.5"/>
                </g>
                <g id="arrowLeft" xlink:href="#dirArrow" transform="rotate(270) translate(-36 17)" onmousedown="handlePan(-1,0)">
                  <use xlink:href="#rim" fill="#404040">
                        <set attributeName="fill" to="#808080" begin="arrowLeft.mouseover" end="arrowLeft.mouseout"/>
                  </use>
                  <path fill="none" stroke="white" stroke-width="1.5" d="M0,-3.0v7 M-2.5,-0.5L0,-3.0L2.5,-0.5"/>
                </g>
        </g>
        <svg viewBox="0 0 15 15" width="100%" height="30px" preserveAspectRatio="xMaxYMin meet">
         <g id="arrow_out" transform="scale(0.3 0.3)">
          <a xlink:href="classcie_1_1gl_1_1FlyCameraControls__coll__graph_org.svg" target="_base">
           <rect id="button" ry="5" rx="5" y="6" x="6" height="38" width="38"
                fill="#f2f5e9" fill-opacity="0.5" stroke="#606060" stroke-width="1.0"/>
           <path id="arrow"
             d="M 11.500037,31.436501 C 11.940474,20.09759 22.043105,11.32322 32.158766,21.979434 L 37.068811,17.246167 C 37.068811,17.246167 37.088388,32 37.088388,32 L 22.160133,31.978069 C 22.160133,31.978069 26.997745,27.140456 26.997745,27.140456 C 18.528582,18.264221 13.291696,25.230495 11.500037,31.436501 z"
             style="fill:#404040;"/>
          </a>
         </g>
        </svg>
</svg>
