<?xml version="1.0" encoding="UTF-8" standalone="no"?>
<!DOCTYPE svg PUBLIC "-//W3C//DTD SVG 1.1//EN"
 "http://www.w3.org/Graphics/SVG/1.1/DTD/svg11.dtd">
<!-- Generated by graphviz version 2.43.0 (0)
 -->
<!-- Title: cie::gl::Vertex2 Pages: 1 -->
<!--zoomable 486 -->
<svg id="main" version="1.1" xmlns="http://www.w3.org/2000/svg" xmlns:xlink="http://www.w3.org/1999/xlink" xml:space="preserve" onload="init(evt)">
<style type="text/css"><![CDATA[
.edge:hover path { stroke: red; }
.edge:hover polygon { stroke: red; fill: red; }
]]></style>
<script type="text/javascript"><![CDATA[
var edges = document.getElementsByTagName('g');
if (edges && edges.length) {
  for (var i=0;i<edges.length;i++) {
    if (edges[i].id.substr(0,4)=='edge') {
      edges[i].setAttribute('class','edge');
    }
  }
}
]]></script>
        <defs>
                <circle id="rim" cx="0" cy="0" r="7"/>
                <circle id="rim2" cx="0" cy="0" r="3.5"/>
                <g id="zoomPlus">
                        <use xlink:href="#rim" fill="#404040">
                                <set attributeName="fill" to="#808080" begin="zoomplus.mouseover" end="zoomplus.mouseout"/>
                        </use>
                        <path d="M-4,0h8M0,-4v8" fill="none" stroke="white" stroke-width="1.5" pointer-events="none"/>
                </g>
                <g id="zoomMin">
                        <use xlink:href="#rim" fill="#404040">
                                <set attributeName="fill" to="#808080" begin="zoomminus.mouseover" end="zoomminus.mouseout"/>
                        </use>
                        <path d="M-4,0h8" fill="none" stroke="white" stroke-width="1.5" pointer-events="none"/>
                </g>
                <g id="dirArrow">
                        <path fill="none" stroke="white" stroke-width="1.5" d="M0,-3.0v7 M-2.5,-0.5L0,-3.0L2.5,-0.5"/>
                </g>
               <g id="resetDef">
                       <use xlink:href="#rim2" fill="#404040">
                               <set attributeName="fill" to="#808080" begin="reset.mouseover" end="reset.mouseout"/>
                       </use>
               </g>
        </defs>

<script type="text/javascript">
var viewWidth = 422;
var viewHeight = 486;
var sectionId = 'dynsection-1';
</script>
<script xlink:href="svgpan.js"/>
<svg id="graph" class="graph">
<g id="viewport">
<title>cie::gl::Vertex2</title>
<polygon fill="white" stroke="transparent" points="-4,4 -4,-482 418,-482 418,4 -4,4"/>
<!-- Node1 -->
<g id="node1" class="node">
<title>Node1</title>
<g id="a_node1"><a xlink:title=" ">
<polygon fill="#bfbfbf" stroke="black" points="119,-0.5 119,-156.5 251,-156.5 251,-0.5 119,-0.5"/>
<text text-anchor="middle" x="185" y="-144.5" font-family="Helvetica,sans-Serif" font-size="10.00">cie::gl::Vertex2</text>
<polyline fill="none" stroke="black" points="119,-137.5 251,-137.5 "/>
<text text-anchor="middle" x="185" y="-125.5" font-family="Helvetica,sans-Serif" font-size="10.00"> </text>
<polyline fill="none" stroke="black" points="119,-118.5 251,-118.5 "/>
<text text-anchor="start" x="127" y="-106.5" font-family="Helvetica,sans-Serif" font-size="10.00">+ Vertex2()</text>
<text text-anchor="start" x="127" y="-95.5" font-family="Helvetica,sans-Serif" font-size="10.00">+ Vertex2()</text>
<text text-anchor="start" x="127" y="-84.5" font-family="Helvetica,sans-Serif" font-size="10.00">+ numberOfAttributes()</text>
<text text-anchor="start" x="127" y="-73.5" font-family="Helvetica,sans-Serif" font-size="10.00">+ position()</text>
<text text-anchor="start" x="127" y="-62.5" font-family="Helvetica,sans-Serif" font-size="10.00">+ position()</text>
<text text-anchor="start" x="127" y="-51.5" font-family="Helvetica,sans-Serif" font-size="10.00">+ x()</text>
<text text-anchor="start" x="127" y="-40.5" font-family="Helvetica,sans-Serif" font-size="10.00">+ x()</text>
<text text-anchor="start" x="127" y="-29.5" font-family="Helvetica,sans-Serif" font-size="10.00">+ y()</text>
<text text-anchor="start" x="127" y="-18.5" font-family="Helvetica,sans-Serif" font-size="10.00">+ y()</text>
<text text-anchor="start" x="127" y="-7.5" font-family="Helvetica,sans-Serif" font-size="10.00"># Vertex2()</text>
</a>
</g>
</g>
<!-- Node2 -->
<g id="node2" class="node">
<title>Node2</title>
<g id="a_node2"><a xlink:href="classcie_1_1gl_1_1AbsVertex.html" target="_top" xlink:title=" ">
<polygon fill="white" stroke="black" points="107.5,-194.5 107.5,-372.5 262.5,-372.5 262.5,-194.5 107.5,-194.5"/>
<text text-anchor="middle" x="185" y="-360.5" font-family="Helvetica,sans-Serif" font-size="10.00">cie::gl::AbsVertex</text>
<polyline fill="none" stroke="black" points="107.5,-353.5 262.5,-353.5 "/>
<text text-anchor="middle" x="185" y="-341.5" font-family="Helvetica,sans-Serif" font-size="10.00"> </text>
<polyline fill="none" stroke="black" points="107.5,-334.5 262.5,-334.5 "/>
<text text-anchor="start" x="115.5" y="-322.5" font-family="Helvetica,sans-Serif" font-size="10.00">+ AbsVertex()</text>
<text text-anchor="start" x="115.5" y="-311.5" font-family="Helvetica,sans-Serif" font-size="10.00">+ AbsVertex()</text>
<text text-anchor="start" x="115.5" y="-300.5" font-family="Helvetica,sans-Serif" font-size="10.00">+ operator=()</text>
<text text-anchor="start" x="115.5" y="-289.5" font-family="Helvetica,sans-Serif" font-size="10.00">+ numberOfAttributes()</text>
<text text-anchor="start" x="115.5" y="-278.5" font-family="Helvetica,sans-Serif" font-size="10.00">+ attribute()</text>
<text text-anchor="start" x="115.5" y="-267.5" font-family="Helvetica,sans-Serif" font-size="10.00">+ attribute()</text>
<text text-anchor="start" x="115.5" y="-256.5" font-family="Helvetica,sans-Serif" font-size="10.00">+ at()</text>
<text text-anchor="start" x="115.5" y="-245.5" font-family="Helvetica,sans-Serif" font-size="10.00">+ at()</text>
<text text-anchor="start" x="115.5" y="-234.5" font-family="Helvetica,sans-Serif" font-size="10.00"># AbsVertex()</text>
<text text-anchor="start" x="115.5" y="-223.5" font-family="Helvetica,sans-Serif" font-size="10.00"># at()</text>
<text text-anchor="start" x="115.5" y="-212.5" font-family="Helvetica,sans-Serif" font-size="10.00"># at()</text>
<text text-anchor="start" x="115.5" y="-201.5" font-family="Helvetica,sans-Serif" font-size="10.00"># resizeAttributeContainer()</text>
</a>
</g>
</g>
<!-- Node2&#45;&gt;Node1 -->
<g id="edge1" class="edge">
<title>Node2&#45;&gt;Node1</title>
<path fill="none" stroke="midnightblue" d="M185,-184.33C185,-175.07 185,-165.77 185,-156.74"/>
<polygon fill="none" stroke="midnightblue" points="181.5,-184.35 185,-194.35 188.5,-184.35 181.5,-184.35"/>
</g>
<!-- Node3 -->
<g id="node3" class="node">
<title>Node3</title>
<g id="a_node3"><a xlink:href="structcie_1_1gl_1_1GLTraits.html" target="_top" xlink:title=" ">
<polygon fill="white" stroke="black" points="0,-420.5 0,-477.5 90,-477.5 90,-420.5 0,-420.5"/>
<text text-anchor="middle" x="45" y="-465.5" font-family="Helvetica,sans-Serif" font-size="10.00">cie::gl::GLTraits</text>
<polyline fill="none" stroke="black" points="0,-458.5 90,-458.5 "/>
<text text-anchor="middle" x="45" y="-446.5" font-family="Helvetica,sans-Serif" font-size="10.00"> </text>
<polyline fill="none" stroke="black" points="0,-439.5 90,-439.5 "/>
<text text-anchor="middle" x="45" y="-427.5" font-family="Helvetica,sans-Serif" font-size="10.00"> </text>
</a>
</g>
</g>
<!-- Node3&#45;&gt;Node2 -->
<g id="edge2" class="edge">
<title>Node3&#45;&gt;Node2</title>
<path fill="none" stroke="midnightblue" d="M75.5,-412.38C85.65,-400.52 97.46,-386.74 109.48,-372.7"/>
<polygon fill="none" stroke="midnightblue" points="72.59,-410.39 68.75,-420.26 77.91,-414.95 72.59,-410.39"/>
</g>
<!-- Node4 -->
<g id="node4" class="node">
<title>Node4</title>
<g id="a_node4"><a xlink:title=" ">
<polygon fill="white" stroke="#bfbfbf" points="108.5,-420.5 108.5,-477.5 153.5,-477.5 153.5,-420.5 108.5,-420.5"/>
<text text-anchor="middle" x="131" y="-465.5" font-family="Helvetica,sans-Serif" font-size="10.00">size_t</text>
<polyline fill="none" stroke="#bfbfbf" points="108.5,-458.5 153.5,-458.5 "/>
<text text-anchor="middle" x="131" y="-446.5" font-family="Helvetica,sans-Serif" font-size="10.00"> </text>
<polyline fill="none" stroke="#bfbfbf" points="108.5,-439.5 153.5,-439.5 "/>
<text text-anchor="middle" x="131" y="-427.5" font-family="Helvetica,sans-Serif" font-size="10.00"> </text>
</a>
</g>
</g>
<!-- Node4&#45;&gt;Node2 -->
<g id="edge3" class="edge">
<title>Node4&#45;&gt;Node2</title>
<path fill="none" stroke="#404040" d="M140.16,-420.26C143.58,-409.91 147.69,-397.45 152.02,-384.35"/>
<polygon fill="none" stroke="#404040" points="152.11,-384.09 150.19,-377.14 155.87,-372.7 157.79,-379.65 152.11,-384.09"/>
<text text-anchor="middle" x="170.5" y="-394" font-family="Helvetica,sans-Serif" font-size="10.00"> #_offset</text>
</g>
<!-- Node5 -->
<g id="node5" class="node">
<title>Node5</title>
<g id="a_node5"><a xlink:title=" ">
<polygon fill="white" stroke="#bfbfbf" points="171.5,-420.5 171.5,-477.5 306.5,-477.5 306.5,-420.5 171.5,-420.5"/>
<text text-anchor="middle" x="239" y="-465.5" font-family="Helvetica,sans-Serif" font-size="10.00">const offset_container &amp;</text>
<polyline fill="none" stroke="#bfbfbf" points="171.5,-458.5 306.5,-458.5 "/>
<text text-anchor="middle" x="239" y="-446.5" font-family="Helvetica,sans-Serif" font-size="10.00"> </text>
<polyline fill="none" stroke="#bfbfbf" points="171.5,-439.5 306.5,-439.5 "/>
<text text-anchor="middle" x="239" y="-427.5" font-family="Helvetica,sans-Serif" font-size="10.00"> </text>
</a>
</g>
</g>
<!-- Node5&#45;&gt;Node2 -->
<g id="edge4" class="edge">
<title>Node5&#45;&gt;Node2</title>
<path fill="none" stroke="#404040" d="M229.84,-420.26C226.42,-409.91 222.31,-397.45 217.98,-384.35"/>
<polygon fill="none" stroke="#404040" points="217.89,-384.09 212.21,-379.65 214.13,-372.7 219.81,-377.14 217.89,-384.09"/>
<text text-anchor="middle" x="274.5" y="-394" font-family="Helvetica,sans-Serif" font-size="10.00"> #_r_attributeOffsets</text>
</g>
<!-- Node6 -->
<g id="node6" class="node">
<title>Node6</title>
<g id="a_node6"><a xlink:title=" ">
<polygon fill="white" stroke="#bfbfbf" points="324.5,-420.5 324.5,-477.5 409.5,-477.5 409.5,-420.5 324.5,-420.5"/>
<text text-anchor="middle" x="367" y="-465.5" font-family="Helvetica,sans-Serif" font-size="10.00">SharedPointer</text>
<polyline fill="none" stroke="#bfbfbf" points="324.5,-458.5 409.5,-458.5 "/>
<text text-anchor="middle" x="367" y="-446.5" font-family="Helvetica,sans-Serif" font-size="10.00"> </text>
<polyline fill="none" stroke="#bfbfbf" points="324.5,-439.5 409.5,-439.5 "/>
<text text-anchor="middle" x="367" y="-427.5" font-family="Helvetica,sans-Serif" font-size="10.00"> </text>
</a>
</g>
</g>
<!-- Node6&#45;&gt;Node2 -->
<g id="edge5" class="edge">
<title>Node6&#45;&gt;Node2</title>
<path fill="none" stroke="#404040" d="M351.91,-420.44C345.81,-410.58 338.26,-399.75 330,-391 312.96,-372.94 292.52,-355.83 272.43,-340.82"/>
<polygon fill="none" stroke="#404040" points="272.3,-340.72 265.09,-340.4 262.62,-333.62 269.82,-333.95 272.3,-340.72"/>
<text text-anchor="middle" x="376" y="-394" font-family="Helvetica,sans-Serif" font-size="10.00"> #_p_attributes</text>
</g>
</g>
</svg>
        <g id="navigator" transform="translate(0 0)" fill="#404254">
                <rect fill="#f2f5e9" fill-opacity="0.5" stroke="#606060" stroke-width=".5" x="0" y="0" width="60" height="60"/>
                <use id="zoomplus" xlink:href="#zoomPlus" x="17" y="9" onmousedown="handleZoom(evt,'in')"/>
                <use id="zoomminus" xlink:href="#zoomMin" x="42" y="9" onmousedown="handleZoom(evt,'out')"/>
                <use id="reset" xlink:href="#resetDef" x="30" y="36" onmousedown="handleReset()"/>
                <g id="arrowUp" xlink:href="#dirArrow" transform="translate(30 24)" onmousedown="handlePan(0,-1)">
                  <use xlink:href="#rim" fill="#404040">
                        <set attributeName="fill" to="#808080" begin="arrowUp.mouseover" end="arrowUp.mouseout"/>
                  </use>
                  <path fill="none" stroke="white" stroke-width="1.5" d="M0,-3.0v7 M-2.5,-0.5L0,-3.0L2.5,-0.5"/>
                </g>
                <g id="arrowRight" xlink:href="#dirArrow" transform="rotate(90) translate(36 -43)" onmousedown="handlePan(1,0)">
                  <use xlink:href="#rim" fill="#404040">
                        <set attributeName="fill" to="#808080" begin="arrowRight.mouseover" end="arrowRight.mouseout"/>
                  </use>
                  <path fill="none" stroke="white" stroke-width="1.5" d="M0,-3.0v7 M-2.5,-0.5L0,-3.0L2.5,-0.5"/>
                </g>
                <g id="arrowDown" xlink:href="#dirArrow" transform="rotate(180) translate(-30 -48)" onmousedown="handlePan(0,1)">
                  <use xlink:href="#rim" fill="#404040">
                        <set attributeName="fill" to="#808080" begin="arrowDown.mouseover" end="arrowDown.mouseout"/>
                  </use>
                  <path fill="none" stroke="white" stroke-width="1.5" d="M0,-3.0v7 M-2.5,-0.5L0,-3.0L2.5,-0.5"/>
                </g>
                <g id="arrowLeft" xlink:href="#dirArrow" transform="rotate(270) translate(-36 17)" onmousedown="handlePan(-1,0)">
                  <use xlink:href="#rim" fill="#404040">
                        <set attributeName="fill" to="#808080" begin="arrowLeft.mouseover" end="arrowLeft.mouseout"/>
                  </use>
                  <path fill="none" stroke="white" stroke-width="1.5" d="M0,-3.0v7 M-2.5,-0.5L0,-3.0L2.5,-0.5"/>
                </g>
        </g>
        <svg viewBox="0 0 15 15" width="100%" height="30px" preserveAspectRatio="xMaxYMin meet">
         <g id="arrow_out" transform="scale(0.3 0.3)">
          <a xlink:href="classcie_1_1gl_1_1Vertex2__coll__graph_org.svg" target="_base">
           <rect id="button" ry="5" rx="5" y="6" x="6" height="38" width="38"
                fill="#f2f5e9" fill-opacity="0.5" stroke="#606060" stroke-width="1.0"/>
           <path id="arrow"
             d="M 11.500037,31.436501 C 11.940474,20.09759 22.043105,11.32322 32.158766,21.979434 L 37.068811,17.246167 C 37.068811,17.246167 37.088388,32 37.088388,32 L 22.160133,31.978069 C 22.160133,31.978069 26.997745,27.140456 26.997745,27.140456 C 18.528582,18.264221 13.291696,25.230495 11.500037,31.436501 z"
             style="fill:#404040;"/>
          </a>
         </g>
        </svg>
</svg>
