<?xml version="1.0" encoding="UTF-8" standalone="no"?>
<!DOCTYPE svg PUBLIC "-//W3C//DTD SVG 1.1//EN"
 "http://www.w3.org/Graphics/SVG/1.1/DTD/svg11.dtd">
<!-- Generated by graphviz version 2.43.0 (0)
 -->
<!-- Title: cie::gl::Shader Pages: 1 -->
<svg width="114pt" height="464pt"
 viewBox="0.00 0.00 114.00 464.00" xmlns="http://www.w3.org/2000/svg" xmlns:xlink="http://www.w3.org/1999/xlink">
<g id="graph0" class="graph" transform="scale(1 1) rotate(0) translate(4 460)">
<title>cie::gl::Shader</title>
<polygon fill="white" stroke="transparent" points="-4,4 -4,-460 110,-460 110,4 -4,4"/>
<!-- Node1 -->
<g id="node1" class="node">
<title>Node1</title>
<g id="a_node1"><a xlink:title="Interface class representing a shader written in GLSL.">
<polygon fill="#bfbfbf" stroke="black" points="3.5,-0.5 3.5,-167.5 102.5,-167.5 102.5,-0.5 3.5,-0.5"/>
<text text-anchor="middle" x="53" y="-155.5" font-family="Helvetica,sans-Serif" font-size="10.00">cie::gl::Shader</text>
<polyline fill="none" stroke="black" points="3.5,-148.5 102.5,-148.5 "/>
<text text-anchor="middle" x="53" y="-136.5" font-family="Helvetica,sans-Serif" font-size="10.00"> </text>
<polyline fill="none" stroke="black" points="3.5,-129.5 102.5,-129.5 "/>
<text text-anchor="start" x="11.5" y="-117.5" font-family="Helvetica,sans-Serif" font-size="10.00">+ Shader()</text>
<text text-anchor="start" x="11.5" y="-106.5" font-family="Helvetica,sans-Serif" font-size="10.00">+ operator=()</text>
<text text-anchor="start" x="11.5" y="-95.5" font-family="Helvetica,sans-Serif" font-size="10.00">+ ~Shader()</text>
<text text-anchor="start" x="11.5" y="-84.5" font-family="Helvetica,sans-Serif" font-size="10.00">+ source()</text>
<text text-anchor="start" x="11.5" y="-73.5" font-family="Helvetica,sans-Serif" font-size="10.00">+ configuration()</text>
<text text-anchor="start" x="11.5" y="-62.5" font-family="Helvetica,sans-Serif" font-size="10.00">+ attributes()</text>
<text text-anchor="start" x="11.5" y="-51.5" font-family="Helvetica,sans-Serif" font-size="10.00">+ uniforms()</text>
<text text-anchor="start" x="11.5" y="-40.5" font-family="Helvetica,sans-Serif" font-size="10.00">+ textures()</text>
<text text-anchor="start" x="11.5" y="-29.5" font-family="Helvetica,sans-Serif" font-size="10.00">+ outputs()</text>
<text text-anchor="start" x="11.5" y="-18.5" font-family="Helvetica,sans-Serif" font-size="10.00"># Shader()</text>
<text text-anchor="start" x="11.5" y="-7.5" font-family="Helvetica,sans-Serif" font-size="10.00"># parseConfig()</text>
</a>
</g>
</g>
<!-- Node2 -->
<g id="node2" class="node">
<title>Node2</title>
<g id="a_node2"><a target="_parent" xlink:href="../../../cieutils/docs/html/classcie_1_1utils_1_1IDObject.html" xlink:title=" ">
<polygon fill="white" stroke="black" points="0,-205.5 0,-350.5 106,-350.5 106,-205.5 0,-205.5"/>
<text text-anchor="start" x="8" y="-338.5" font-family="Helvetica,sans-Serif" font-size="10.00">cie::utils::IDObject</text>
<text text-anchor="middle" x="53" y="-327.5" font-family="Helvetica,sans-Serif" font-size="10.00">&lt; class &gt;</text>
<polyline fill="none" stroke="black" points="0,-320.5 106,-320.5 "/>
<text text-anchor="middle" x="53" y="-308.5" font-family="Helvetica,sans-Serif" font-size="10.00"> </text>
<polyline fill="none" stroke="black" points="0,-301.5 106,-301.5 "/>
<text text-anchor="start" x="8" y="-289.5" font-family="Helvetica,sans-Serif" font-size="10.00">+ IDObject()</text>
<text text-anchor="start" x="8" y="-278.5" font-family="Helvetica,sans-Serif" font-size="10.00">+ IDObject()</text>
<text text-anchor="start" x="8" y="-267.5" font-family="Helvetica,sans-Serif" font-size="10.00">+ IDObject()</text>
<text text-anchor="start" x="8" y="-256.5" font-family="Helvetica,sans-Serif" font-size="10.00">+ IDObject()</text>
<text text-anchor="start" x="8" y="-245.5" font-family="Helvetica,sans-Serif" font-size="10.00">+ operator=()</text>
<text text-anchor="start" x="8" y="-234.5" font-family="Helvetica,sans-Serif" font-size="10.00">+ operator=()</text>
<text text-anchor="start" x="8" y="-223.5" font-family="Helvetica,sans-Serif" font-size="10.00">+ setID()</text>
<text text-anchor="start" x="8" y="-212.5" font-family="Helvetica,sans-Serif" font-size="10.00">+ getID()</text>
</a>
</g>
</g>
<!-- Node2&#45;&gt;Node1 -->
<g id="edge1" class="edge">
<title>Node2&#45;&gt;Node1</title>
<path fill="none" stroke="midnightblue" d="M53,-195.08C53,-186 53,-176.75 53,-167.67"/>
<polygon fill="none" stroke="midnightblue" points="49.5,-195.23 53,-205.23 56.5,-195.23 49.5,-195.23"/>
</g>
<!-- Node3 -->
<g id="node3" class="node">
<title>Node3</title>
<g id="a_node3"><a xlink:title=" ">
<polygon fill="white" stroke="#bfbfbf" points="36.5,-398.5 36.5,-455.5 69.5,-455.5 69.5,-398.5 36.5,-398.5"/>
<text text-anchor="middle" x="53" y="-443.5" font-family="Helvetica,sans-Serif" font-size="10.00">TID</text>
<polyline fill="none" stroke="#bfbfbf" points="36.5,-436.5 69.5,-436.5 "/>
<text text-anchor="middle" x="53" y="-424.5" font-family="Helvetica,sans-Serif" font-size="10.00"> </text>
<polyline fill="none" stroke="#bfbfbf" points="36.5,-417.5 69.5,-417.5 "/>
<text text-anchor="middle" x="53" y="-405.5" font-family="Helvetica,sans-Serif" font-size="10.00"> </text>
</a>
</g>
</g>
<!-- Node3&#45;&gt;Node2 -->
<g id="edge2" class="edge">
<title>Node3&#45;&gt;Node2</title>
<path fill="none" stroke="#404040" d="M53,-398.35C53,-388.01 53,-375.66 53,-362.89"/>
<polygon fill="none" stroke="#404040" points="53,-362.56 49,-356.56 53,-350.56 57,-356.56 53,-362.56"/>
<text text-anchor="middle" x="66" y="-372" font-family="Helvetica,sans-Serif" font-size="10.00"> #_id</text>
</g>
</g>
</svg>
