<?xml version="1.0" encoding="UTF-8" standalone="no"?>
<!DOCTYPE svg PUBLIC "-//W3C//DTD SVG 1.1//EN"
 "http://www.w3.org/Graphics/SVG/1.1/DTD/svg11.dtd">
<!-- Generated by graphviz version 2.43.0 (0)
 -->
<!-- Title: cie::gl::Triangulated3DPartScene Pages: 1 -->
<svg width="946pt" height="905pt"
 viewBox="0.00 0.00 945.50 905.00" xmlns="http://www.w3.org/2000/svg" xmlns:xlink="http://www.w3.org/1999/xlink">
<g id="graph0" class="graph" transform="scale(1 1) rotate(0) translate(4 901)">
<title>cie::gl::Triangulated3DPartScene</title>
<polygon fill="white" stroke="transparent" points="-4,4 -4,-901 941.5,-901 941.5,4 -4,4"/>
<!-- Node1 -->
<g id="node1" class="node">
<title>Node1</title>
<g id="a_node1"><a xlink:title=" ">
<polygon fill="#bfbfbf" stroke="black" points="529,-0.5 529,-90.5 686,-90.5 686,-0.5 529,-0.5"/>
<text text-anchor="start" x="537" y="-78.5" font-family="Helvetica,sans-Serif" font-size="10.00">cie::gl::Triangulated3DPart</text>
<text text-anchor="middle" x="607.5" y="-67.5" font-family="Helvetica,sans-Serif" font-size="10.00">Scene</text>
<polyline fill="none" stroke="black" points="529,-60.5 686,-60.5 "/>
<text text-anchor="middle" x="607.5" y="-48.5" font-family="Helvetica,sans-Serif" font-size="10.00"> </text>
<polyline fill="none" stroke="black" points="529,-41.5 686,-41.5 "/>
<text text-anchor="start" x="537" y="-29.5" font-family="Helvetica,sans-Serif" font-size="10.00">+ Triangulated3DPartScene()</text>
<text text-anchor="start" x="537" y="-18.5" font-family="Helvetica,sans-Serif" font-size="10.00"># update_impl()</text>
<text text-anchor="start" x="537" y="-7.5" font-family="Helvetica,sans-Serif" font-size="10.00"># Triangulated3DPartScene()</text>
</a>
</g>
</g>
<!-- Node2 -->
<g id="node2" class="node">
<title>Node2</title>
<g id="a_node2"><a xlink:href="classcie_1_1gl_1_1PartScene.html" target="_top" xlink:title=" ">
<polygon fill="white" stroke="black" points="557.5,-128.5 557.5,-240.5 657.5,-240.5 657.5,-128.5 557.5,-128.5"/>
<text text-anchor="middle" x="607.5" y="-228.5" font-family="Helvetica,sans-Serif" font-size="10.00">cie::gl::PartScene</text>
<polyline fill="none" stroke="black" points="557.5,-221.5 657.5,-221.5 "/>
<text text-anchor="middle" x="607.5" y="-209.5" font-family="Helvetica,sans-Serif" font-size="10.00"> </text>
<polyline fill="none" stroke="black" points="557.5,-202.5 657.5,-202.5 "/>
<text text-anchor="start" x="565.5" y="-190.5" font-family="Helvetica,sans-Serif" font-size="10.00">+ PartScene()</text>
<text text-anchor="start" x="565.5" y="-179.5" font-family="Helvetica,sans-Serif" font-size="10.00">+ addPart()</text>
<text text-anchor="start" x="565.5" y="-168.5" font-family="Helvetica,sans-Serif" font-size="10.00">+ removePart()</text>
<text text-anchor="start" x="565.5" y="-157.5" font-family="Helvetica,sans-Serif" font-size="10.00">+ parts()</text>
<text text-anchor="start" x="565.5" y="-146.5" font-family="Helvetica,sans-Serif" font-size="10.00">+ updateParts()</text>
<text text-anchor="start" x="565.5" y="-135.5" font-family="Helvetica,sans-Serif" font-size="10.00">+ update_impl()</text>
</a>
</g>
</g>
<!-- Node2&#45;&gt;Node1 -->
<g id="edge1" class="edge">
<title>Node2&#45;&gt;Node1</title>
<path fill="none" stroke="midnightblue" d="M607.5,-118.13C607.5,-108.83 607.5,-99.44 607.5,-90.67"/>
<polygon fill="none" stroke="midnightblue" points="604,-118.17 607.5,-128.17 611,-118.17 604,-118.17"/>
</g>
<!-- Node3 -->
<g id="node3" class="node">
<title>Node3</title>
<g id="a_node3"><a xlink:href="classcie_1_1gl_1_1Scene.html" target="_top" xlink:title=" ">
<polygon fill="white" stroke="black" points="435,-288.5 435,-466.5 546,-466.5 546,-288.5 435,-288.5"/>
<text text-anchor="middle" x="490.5" y="-454.5" font-family="Helvetica,sans-Serif" font-size="10.00">cie::gl::Scene</text>
<polyline fill="none" stroke="black" points="435,-447.5 546,-447.5 "/>
<text text-anchor="middle" x="490.5" y="-435.5" font-family="Helvetica,sans-Serif" font-size="10.00"> </text>
<polyline fill="none" stroke="black" points="435,-428.5 546,-428.5 "/>
<text text-anchor="start" x="443" y="-416.5" font-family="Helvetica,sans-Serif" font-size="10.00">+ Scene()</text>
<text text-anchor="start" x="443" y="-405.5" font-family="Helvetica,sans-Serif" font-size="10.00">+ ~Scene()</text>
<text text-anchor="start" x="443" y="-394.5" font-family="Helvetica,sans-Serif" font-size="10.00">+ update()</text>
<text text-anchor="start" x="443" y="-383.5" font-family="Helvetica,sans-Serif" font-size="10.00">+ activate()</text>
<text text-anchor="start" x="443" y="-372.5" font-family="Helvetica,sans-Serif" font-size="10.00">+ isActive()</text>
<text text-anchor="start" x="443" y="-361.5" font-family="Helvetica,sans-Serif" font-size="10.00">+ makeCamera()</text>
<text text-anchor="start" x="443" y="-350.5" font-family="Helvetica,sans-Serif" font-size="10.00">+ addCamera()</text>
<text text-anchor="start" x="443" y="-339.5" font-family="Helvetica,sans-Serif" font-size="10.00">+ removeCamera()</text>
<text text-anchor="start" x="443" y="-328.5" font-family="Helvetica,sans-Serif" font-size="10.00">+ cameras()</text>
<text text-anchor="start" x="443" y="-317.5" font-family="Helvetica,sans-Serif" font-size="10.00">+ camera()</text>
<text text-anchor="start" x="443" y="-306.5" font-family="Helvetica,sans-Serif" font-size="10.00">and 15 more...</text>
<text text-anchor="start" x="443" y="-295.5" font-family="Helvetica,sans-Serif" font-size="10.00"># update_impl()</text>
</a>
</g>
</g>
<!-- Node3&#45;&gt;Node2 -->
<g id="edge2" class="edge">
<title>Node3&#45;&gt;Node2</title>
<path fill="none" stroke="midnightblue" d="M549.92,-279.51C558.09,-266.16 566.24,-252.86 573.73,-240.63"/>
<polygon fill="none" stroke="midnightblue" points="546.79,-277.91 544.55,-288.27 552.76,-281.57 546.79,-277.91"/>
</g>
<!-- Node4 -->
<g id="node4" class="node">
<title>Node4</title>
<g id="a_node4"><a target="_parent" xlink:href="../../../cieutils/docs/html/classcie_1_1utils_1_1Loggee.html" xlink:title=" ">
<polygon fill="white" stroke="black" points="16,-536.5 16,-692.5 115,-692.5 115,-536.5 16,-536.5"/>
<text text-anchor="middle" x="65.5" y="-680.5" font-family="Helvetica,sans-Serif" font-size="10.00">cie::utils::Loggee</text>
<polyline fill="none" stroke="black" points="16,-673.5 115,-673.5 "/>
<text text-anchor="middle" x="65.5" y="-661.5" font-family="Helvetica,sans-Serif" font-size="10.00"> </text>
<polyline fill="none" stroke="black" points="16,-654.5 115,-654.5 "/>
<text text-anchor="start" x="24" y="-642.5" font-family="Helvetica,sans-Serif" font-size="10.00">+ Loggee()</text>
<text text-anchor="start" x="24" y="-631.5" font-family="Helvetica,sans-Serif" font-size="10.00">+ ~Loggee()</text>
<text text-anchor="start" x="24" y="-620.5" font-family="Helvetica,sans-Serif" font-size="10.00">+ log()</text>
<text text-anchor="start" x="24" y="-609.5" font-family="Helvetica,sans-Serif" font-size="10.00">+ logID()</text>
<text text-anchor="start" x="24" y="-598.5" font-family="Helvetica,sans-Serif" font-size="10.00">+ tic()</text>
<text text-anchor="start" x="24" y="-587.5" font-family="Helvetica,sans-Serif" font-size="10.00">+ toc()</text>
<text text-anchor="start" x="24" y="-576.5" font-family="Helvetica,sans-Serif" font-size="10.00">+ toc()</text>
<text text-anchor="start" x="24" y="-565.5" font-family="Helvetica,sans-Serif" font-size="10.00">+ newBlock()</text>
<text text-anchor="start" x="24" y="-554.5" font-family="Helvetica,sans-Serif" font-size="10.00">+ separate()</text>
<text text-anchor="start" x="24" y="-543.5" font-family="Helvetica,sans-Serif" font-size="10.00"># logger()</text>
</a>
</g>
</g>
<!-- Node4&#45;&gt;Node3 -->
<g id="edge3" class="edge">
<title>Node4&#45;&gt;Node3</title>
<path fill="none" stroke="midnightblue" d="M122.71,-537.43C123.3,-536.94 123.9,-536.47 124.5,-536 220.85,-460.72 358.62,-414.31 434.69,-392.79"/>
<polygon fill="none" stroke="midnightblue" points="120.36,-534.84 115.16,-544.07 124.98,-540.09 120.36,-534.84"/>
</g>
<!-- Node5 -->
<g id="node5" class="node">
<title>Node5</title>
<g id="a_node5"><a target="_parent" xlink:href="../../../cieutils/docs/html/classcie_1_1utils_1_1NamedObject.html" xlink:title=" ">
<polygon fill="white" stroke="black" points="0,-740.5 0,-896.5 131,-896.5 131,-740.5 0,-740.5"/>
<text text-anchor="middle" x="65.5" y="-884.5" font-family="Helvetica,sans-Serif" font-size="10.00">cie::utils::NamedObject</text>
<polyline fill="none" stroke="black" points="0,-877.5 131,-877.5 "/>
<text text-anchor="middle" x="65.5" y="-865.5" font-family="Helvetica,sans-Serif" font-size="10.00"> </text>
<polyline fill="none" stroke="black" points="0,-858.5 131,-858.5 "/>
<text text-anchor="start" x="8" y="-846.5" font-family="Helvetica,sans-Serif" font-size="10.00">+ NamedObject()</text>
<text text-anchor="start" x="8" y="-835.5" font-family="Helvetica,sans-Serif" font-size="10.00">+ NamedObject()</text>
<text text-anchor="start" x="8" y="-824.5" font-family="Helvetica,sans-Serif" font-size="10.00">+ NamedObject()</text>
<text text-anchor="start" x="8" y="-813.5" font-family="Helvetica,sans-Serif" font-size="10.00">+ NamedObject()</text>
<text text-anchor="start" x="8" y="-802.5" font-family="Helvetica,sans-Serif" font-size="10.00">+ operator=()</text>
<text text-anchor="start" x="8" y="-791.5" font-family="Helvetica,sans-Serif" font-size="10.00">+ operator=()</text>
<text text-anchor="start" x="8" y="-780.5" font-family="Helvetica,sans-Serif" font-size="10.00">+ name()</text>
<text text-anchor="start" x="8" y="-769.5" font-family="Helvetica,sans-Serif" font-size="10.00">+ setName()</text>
<text text-anchor="start" x="8" y="-758.5" font-family="Helvetica,sans-Serif" font-size="10.00">+ setName()</text>
<text text-anchor="start" x="8" y="-747.5" font-family="Helvetica,sans-Serif" font-size="10.00">+ ~NamedObject()</text>
</a>
</g>
</g>
<!-- Node5&#45;&gt;Node4 -->
<g id="edge4" class="edge">
<title>Node5&#45;&gt;Node4</title>
<path fill="none" stroke="midnightblue" d="M65.5,-729.94C65.5,-717.54 65.5,-704.87 65.5,-692.69"/>
<polygon fill="none" stroke="midnightblue" points="62,-730.27 65.5,-740.27 69,-730.27 62,-730.27"/>
</g>
<!-- Node6 -->
<g id="node6" class="node">
<title>Node6</title>
<g id="a_node6"><a target="_parent" xlink:href="../../../cieutils/docs/html/classcie_1_1utils_1_1IDObject.html" xlink:title=" ">
<polygon fill="white" stroke="black" points="133.5,-542 133.5,-687 239.5,-687 239.5,-542 133.5,-542"/>
<text text-anchor="start" x="141.5" y="-675" font-family="Helvetica,sans-Serif" font-size="10.00">cie::utils::IDObject</text>
<text text-anchor="middle" x="186.5" y="-664" font-family="Helvetica,sans-Serif" font-size="10.00">&lt; class &gt;</text>
<polyline fill="none" stroke="black" points="133.5,-657 239.5,-657 "/>
<text text-anchor="middle" x="186.5" y="-645" font-family="Helvetica,sans-Serif" font-size="10.00"> </text>
<polyline fill="none" stroke="black" points="133.5,-638 239.5,-638 "/>
<text text-anchor="start" x="141.5" y="-626" font-family="Helvetica,sans-Serif" font-size="10.00">+ IDObject()</text>
<text text-anchor="start" x="141.5" y="-615" font-family="Helvetica,sans-Serif" font-size="10.00">+ IDObject()</text>
<text text-anchor="start" x="141.5" y="-604" font-family="Helvetica,sans-Serif" font-size="10.00">+ IDObject()</text>
<text text-anchor="start" x="141.5" y="-593" font-family="Helvetica,sans-Serif" font-size="10.00">+ IDObject()</text>
<text text-anchor="start" x="141.5" y="-582" font-family="Helvetica,sans-Serif" font-size="10.00">+ operator=()</text>
<text text-anchor="start" x="141.5" y="-571" font-family="Helvetica,sans-Serif" font-size="10.00">+ operator=()</text>
<text text-anchor="start" x="141.5" y="-560" font-family="Helvetica,sans-Serif" font-size="10.00">+ setID()</text>
<text text-anchor="start" x="141.5" y="-549" font-family="Helvetica,sans-Serif" font-size="10.00">+ getID()</text>
</a>
</g>
</g>
<!-- Node6&#45;&gt;Node3 -->
<g id="edge5" class="edge">
<title>Node6&#45;&gt;Node3</title>
<path fill="none" stroke="midnightblue" d="M241.27,-533.83C255.41,-516.48 271.49,-499.11 288.5,-485 332.9,-448.17 392.08,-418.8 434.9,-400.31"/>
<polygon fill="none" stroke="midnightblue" points="238.42,-531.79 234.92,-541.79 243.89,-536.16 238.42,-531.79"/>
</g>
<!-- Node7 -->
<g id="node7" class="node">
<title>Node7</title>
<g id="a_node7"><a xlink:title=" ">
<polygon fill="white" stroke="#bfbfbf" points="170,-790 170,-847 203,-847 203,-790 170,-790"/>
<text text-anchor="middle" x="186.5" y="-835" font-family="Helvetica,sans-Serif" font-size="10.00">TID</text>
<polyline fill="none" stroke="#bfbfbf" points="170,-828 203,-828 "/>
<text text-anchor="middle" x="186.5" y="-816" font-family="Helvetica,sans-Serif" font-size="10.00"> </text>
<polyline fill="none" stroke="#bfbfbf" points="170,-809 203,-809 "/>
<text text-anchor="middle" x="186.5" y="-797" font-family="Helvetica,sans-Serif" font-size="10.00"> </text>
</a>
</g>
</g>
<!-- Node7&#45;&gt;Node6 -->
<g id="edge6" class="edge">
<title>Node7&#45;&gt;Node6</title>
<path fill="none" stroke="#404040" d="M186.5,-789.84C186.5,-766.46 186.5,-731.71 186.5,-699.37"/>
<polygon fill="none" stroke="#404040" points="186.5,-699.12 182.5,-693.12 186.5,-687.12 190.5,-693.12 186.5,-699.12"/>
<text text-anchor="middle" x="199.5" y="-714" font-family="Helvetica,sans-Serif" font-size="10.00"> #_id</text>
</g>
<!-- Node8 -->
<g id="node8" class="node">
<title>Node8</title>
<g id="a_node8"><a xlink:title=" ">
<polygon fill="white" stroke="#bfbfbf" points="257.5,-586 257.5,-643 361.5,-643 361.5,-586 257.5,-586"/>
<text text-anchor="middle" x="309.5" y="-631" font-family="Helvetica,sans-Serif" font-size="10.00">list&lt; TexturePtr &gt;</text>
<polyline fill="none" stroke="#bfbfbf" points="257.5,-624 361.5,-624 "/>
<text text-anchor="middle" x="309.5" y="-612" font-family="Helvetica,sans-Serif" font-size="10.00"> </text>
<polyline fill="none" stroke="#bfbfbf" points="257.5,-605 361.5,-605 "/>
<text text-anchor="middle" x="309.5" y="-593" font-family="Helvetica,sans-Serif" font-size="10.00"> </text>
</a>
</g>
</g>
<!-- Node8&#45;&gt;Node3 -->
<g id="edge7" class="edge">
<title>Node8&#45;&gt;Node3</title>
<path fill="none" stroke="#404040" d="M299.69,-585.87C291.73,-558.36 284.5,-515.88 302.5,-485 328.37,-440.62 380.36,-413.24 423.12,-397.38"/>
<polygon fill="none" stroke="#404040" points="423.31,-397.31 427.63,-391.54 434.62,-393.3 430.3,-399.08 423.31,-397.31"/>
<text text-anchor="middle" x="331.5" y="-499" font-family="Helvetica,sans-Serif" font-size="10.00"> #_textures</text>
</g>
<!-- Node9 -->
<g id="node9" class="node">
<title>Node9</title>
<g id="a_node9"><a xlink:title=" ">
<polygon fill="white" stroke="#bfbfbf" points="414,-586 414,-643 499,-643 499,-586 414,-586"/>
<text text-anchor="middle" x="456.5" y="-631" font-family="Helvetica,sans-Serif" font-size="10.00">SharedPointer</text>
<polyline fill="none" stroke="#bfbfbf" points="414,-624 499,-624 "/>
<text text-anchor="middle" x="456.5" y="-612" font-family="Helvetica,sans-Serif" font-size="10.00"> </text>
<polyline fill="none" stroke="#bfbfbf" points="414,-605 499,-605 "/>
<text text-anchor="middle" x="456.5" y="-593" font-family="Helvetica,sans-Serif" font-size="10.00"> </text>
</a>
</g>
</g>
<!-- Node9&#45;&gt;Node3 -->
<g id="edge8" class="edge">
<title>Node9&#45;&gt;Node3</title>
<path fill="none" stroke="#404040" d="M416.61,-585.88C385.93,-560.95 351.44,-522.54 368.5,-485 380.56,-458.47 402.85,-435.96 425.12,-418.57"/>
<polygon fill="none" stroke="#404040" points="425.37,-418.38 427.77,-411.58 434.97,-411.19 432.57,-417.99 425.37,-418.38"/>
<text text-anchor="middle" x="418.5" y="-499" font-family="Helvetica,sans-Serif" font-size="10.00"> #_p_bufferManager</text>
</g>
<!-- Node9&#45;&gt;Node3 -->
<g id="edge11" class="edge">
<title>Node9&#45;&gt;Node3</title>
<path fill="none" stroke="#404040" d="M460.53,-585.62C464.38,-559.07 470.39,-517.48 476.03,-478.51"/>
<polygon fill="none" stroke="#404040" points="476.05,-478.4 472.95,-471.89 477.76,-466.52 480.86,-473.04 476.05,-478.4"/>
<text text-anchor="middle" x="529" y="-510" font-family="Helvetica,sans-Serif" font-size="10.00"> #_p_fragmentShader</text>
<text text-anchor="middle" x="529" y="-499" font-family="Helvetica,sans-Serif" font-size="10.00">#_p_geometryShader</text>
<text text-anchor="middle" x="529" y="-488" font-family="Helvetica,sans-Serif" font-size="10.00">#_p_vertexShader</text>
</g>
<!-- Node10 -->
<g id="node10" class="node">
<title>Node10</title>
<g id="a_node10"><a xlink:title=" ">
<polygon fill="white" stroke="#bfbfbf" points="555.5,-586 555.5,-643 675.5,-643 675.5,-586 555.5,-586"/>
<text text-anchor="middle" x="615.5" y="-631" font-family="Helvetica,sans-Serif" font-size="10.00">list&lt; GLUniformPtr &gt;</text>
<polyline fill="none" stroke="#bfbfbf" points="555.5,-624 675.5,-624 "/>
<text text-anchor="middle" x="615.5" y="-612" font-family="Helvetica,sans-Serif" font-size="10.00"> </text>
<polyline fill="none" stroke="#bfbfbf" points="555.5,-605 675.5,-605 "/>
<text text-anchor="middle" x="615.5" y="-593" font-family="Helvetica,sans-Serif" font-size="10.00"> </text>
</a>
</g>
</g>
<!-- Node10&#45;&gt;Node3 -->
<g id="edge9" class="edge">
<title>Node10&#45;&gt;Node3</title>
<path fill="none" stroke="#404040" d="M615.49,-585.81C614.14,-557.85 608.29,-514.68 586.5,-485 577.07,-472.16 567.35,-477.64 555.5,-467 555.4,-466.91 555.31,-466.82 555.21,-466.74"/>
<polygon fill="none" stroke="#404040" points="554.94,-466.48 547.85,-465.18 546.32,-458.13 553.41,-459.43 554.94,-466.48"/>
<text text-anchor="middle" x="633" y="-499" font-family="Helvetica,sans-Serif" font-size="10.00"> #_uniforms</text>
</g>
<!-- Node11 -->
<g id="node11" class="node">
<title>Node11</title>
<g id="a_node11"><a xlink:title=" ">
<polygon fill="white" stroke="#bfbfbf" points="694,-586 694,-643 739,-643 739,-586 694,-586"/>
<text text-anchor="middle" x="716.5" y="-631" font-family="Helvetica,sans-Serif" font-size="10.00">size_t</text>
<polyline fill="none" stroke="#bfbfbf" points="694,-624 739,-624 "/>
<text text-anchor="middle" x="716.5" y="-612" font-family="Helvetica,sans-Serif" font-size="10.00"> </text>
<polyline fill="none" stroke="#bfbfbf" points="694,-605 739,-605 "/>
<text text-anchor="middle" x="716.5" y="-593" font-family="Helvetica,sans-Serif" font-size="10.00"> </text>
</a>
</g>
</g>
<!-- Node11&#45;&gt;Node3 -->
<g id="edge10" class="edge">
<title>Node11&#45;&gt;Node3</title>
<path fill="none" stroke="#404040" d="M713.91,-585.76C709.58,-556.06 698.06,-509.86 667.5,-485 631.14,-455.42 602.77,-488 556.82,-466.3"/>
<polygon fill="none" stroke="#404040" points="556.59,-466.18 549.41,-466.79 546.08,-460.4 553.26,-459.78 556.59,-466.18"/>
<text text-anchor="middle" x="736" y="-499" font-family="Helvetica,sans-Serif" font-size="10.00"> #_activeSceneID</text>
</g>
<!-- Node12 -->
<g id="node12" class="node">
<title>Node12</title>
<g id="a_node12"><a xlink:title=" ">
<polygon fill="white" stroke="#bfbfbf" points="761.5,-586 761.5,-643 867.5,-643 867.5,-586 761.5,-586"/>
<text text-anchor="middle" x="814.5" y="-631" font-family="Helvetica,sans-Serif" font-size="10.00">list&lt; CameraPtr &gt;</text>
<polyline fill="none" stroke="#bfbfbf" points="761.5,-624 867.5,-624 "/>
<text text-anchor="middle" x="814.5" y="-612" font-family="Helvetica,sans-Serif" font-size="10.00"> </text>
<polyline fill="none" stroke="#bfbfbf" points="761.5,-605 867.5,-605 "/>
<text text-anchor="middle" x="814.5" y="-593" font-family="Helvetica,sans-Serif" font-size="10.00"> </text>
</a>
</g>
</g>
<!-- Node12&#45;&gt;Node3 -->
<g id="edge12" class="edge">
<title>Node12&#45;&gt;Node3</title>
<path fill="none" stroke="#404040" d="M816.45,-585.92C816.88,-556.14 812.39,-509.65 783.5,-485 747.26,-454.07 617.61,-487.04 557.41,-466.04"/>
<polygon fill="none" stroke="#404040" points="557.29,-465.98 550.18,-467.18 546.34,-461.08 553.45,-459.88 557.29,-465.98"/>
<text text-anchor="middle" x="834" y="-499" font-family="Helvetica,sans-Serif" font-size="10.00"> #_cameras</text>
</g>
<!-- Node13 -->
<g id="node13" class="node">
<title>Node13</title>
<g id="a_node13"><a xlink:title=" ">
<polygon fill="white" stroke="#bfbfbf" points="885.5,-586 885.5,-643 933.5,-643 933.5,-586 885.5,-586"/>
<text text-anchor="middle" x="909.5" y="-631" font-family="Helvetica,sans-Serif" font-size="10.00">GLuint</text>
<polyline fill="none" stroke="#bfbfbf" points="885.5,-624 933.5,-624 "/>
<text text-anchor="middle" x="909.5" y="-612" font-family="Helvetica,sans-Serif" font-size="10.00"> </text>
<polyline fill="none" stroke="#bfbfbf" points="885.5,-605 933.5,-605 "/>
<text text-anchor="middle" x="909.5" y="-593" font-family="Helvetica,sans-Serif" font-size="10.00"> </text>
</a>
</g>
</g>
<!-- Node13&#45;&gt;Node3 -->
<g id="edge13" class="edge">
<title>Node13&#45;&gt;Node3</title>
<path fill="none" stroke="#404040" d="M909.02,-585.84C906.86,-555.75 898.37,-508.77 867.5,-485 815.16,-444.69 635.33,-494.76 557.45,-466.21"/>
<polygon fill="none" stroke="#404040" points="557.23,-466.11 550.11,-467.28 546.29,-461.17 553.41,-459.99 557.23,-466.11"/>
<text text-anchor="middle" x="914.5" y="-499" font-family="Helvetica,sans-Serif" font-size="10.00"> #_vaoID</text>
</g>
<!-- Node14 -->
<g id="node14" class="node">
<title>Node14</title>
<g id="a_node14"><a xlink:title=" ">
<polygon fill="white" stroke="#bfbfbf" points="564.5,-349 564.5,-406 650.5,-406 650.5,-349 564.5,-349"/>
<text text-anchor="middle" x="607.5" y="-394" font-family="Helvetica,sans-Serif" font-size="10.00">list&lt; PartPtr &gt;</text>
<polyline fill="none" stroke="#bfbfbf" points="564.5,-387 650.5,-387 "/>
<text text-anchor="middle" x="607.5" y="-375" font-family="Helvetica,sans-Serif" font-size="10.00"> </text>
<polyline fill="none" stroke="#bfbfbf" points="564.5,-368 650.5,-368 "/>
<text text-anchor="middle" x="607.5" y="-356" font-family="Helvetica,sans-Serif" font-size="10.00"> </text>
</a>
</g>
</g>
<!-- Node14&#45;&gt;Node2 -->
<g id="edge14" class="edge">
<title>Node14&#45;&gt;Node2</title>
<path fill="none" stroke="#404040" d="M607.5,-348.73C607.5,-323.68 607.5,-285.83 607.5,-252.88"/>
<polygon fill="none" stroke="#404040" points="607.5,-252.53 603.5,-246.53 607.5,-240.53 611.5,-246.53 607.5,-252.53"/>
<text text-anchor="middle" x="628.5" y="-262" font-family="Helvetica,sans-Serif" font-size="10.00"> #_parts</text>
</g>
<!-- Node15 -->
<g id="node15" class="node">
<title>Node15</title>
<g id="a_node15"><a xlink:title=" ">
<polygon fill="white" stroke="#bfbfbf" points="668.5,-349 668.5,-406 706.5,-406 706.5,-349 668.5,-349"/>
<text text-anchor="middle" x="687.5" y="-394" font-family="Helvetica,sans-Serif" font-size="10.00">bool</text>
<polyline fill="none" stroke="#bfbfbf" points="668.5,-387 706.5,-387 "/>
<text text-anchor="middle" x="687.5" y="-375" font-family="Helvetica,sans-Serif" font-size="10.00"> </text>
<polyline fill="none" stroke="#bfbfbf" points="668.5,-368 706.5,-368 "/>
<text text-anchor="middle" x="687.5" y="-356" font-family="Helvetica,sans-Serif" font-size="10.00"> </text>
</a>
</g>
</g>
<!-- Node15&#45;&gt;Node2 -->
<g id="edge15" class="edge">
<title>Node15&#45;&gt;Node2</title>
<path fill="none" stroke="#404040" d="M681.75,-348.67C676.19,-324.37 666.68,-288.47 653.5,-259 652.4,-256.54 651.23,-254.07 650.01,-251.6"/>
<polygon fill="none" stroke="#404040" points="649.91,-251.41 643.58,-247.96 644.33,-240.79 650.66,-244.24 649.91,-251.41"/>
<text text-anchor="middle" x="714" y="-262" font-family="Helvetica,sans-Serif" font-size="10.00"> #_partsRequireUpdate</text>
</g>
</g>
</svg>
