<?xml version="1.0" encoding="UTF-8" standalone="no"?>
<!DOCTYPE svg PUBLIC "-//W3C//DTD SVG 1.1//EN"
 "http://www.w3.org/Graphics/SVG/1.1/DTD/svg11.dtd">
<!-- Generated by graphviz version 2.43.0 (0)
 -->
<!-- Title: modules.glmesh.meshvisual.MeshVisual Pages: 1 -->
<svg width="168pt" height="215pt"
 viewBox="0.00 0.00 168.00 215.00" xmlns="http://www.w3.org/2000/svg" xmlns:xlink="http://www.w3.org/1999/xlink">
<g id="graph0" class="graph" transform="scale(1 1) rotate(0) translate(4 211)">
<title>modules.glmesh.meshvisual.MeshVisual</title>
<polygon fill="white" stroke="transparent" points="-4,4 -4,-211 164,-211 164,4 -4,4"/>
<!-- Node1 -->
<g id="node1" class="node">
<title>Node1</title>
<g id="a_node1"><a xlink:title=" ">
<polygon fill="#bfbfbf" stroke="black" points="0,-0.5 0,-112.5 160,-112.5 160,-0.5 0,-0.5"/>
<text text-anchor="start" x="8" y="-100.5" font-family="Helvetica,sans-Serif" font-size="10.00">modules.glmesh.meshvisual.</text>
<text text-anchor="middle" x="80" y="-89.5" font-family="Helvetica,sans-Serif" font-size="10.00">MeshVisual</text>
<polyline fill="none" stroke="black" points="0,-82.5 160,-82.5 "/>
<text text-anchor="start" x="8" y="-70.5" font-family="Helvetica,sans-Serif" font-size="10.00">+ light</text>
<text text-anchor="start" x="8" y="-59.5" font-family="Helvetica,sans-Serif" font-size="10.00">+ camera</text>
<text text-anchor="start" x="8" y="-48.5" font-family="Helvetica,sans-Serif" font-size="10.00">+ root</text>
<polyline fill="none" stroke="black" points="0,-41.5 160,-41.5 "/>
<text text-anchor="start" x="8" y="-29.5" font-family="Helvetica,sans-Serif" font-size="10.00">+ __init__()</text>
<text text-anchor="start" x="8" y="-18.5" font-family="Helvetica,sans-Serif" font-size="10.00">+ updateMesh()</text>
<text text-anchor="start" x="8" y="-7.5" font-family="Helvetica,sans-Serif" font-size="10.00">+ updateLight()</text>
</a>
</g>
</g>
<!-- Node2 -->
<g id="node2" class="node">
<title>Node2</title>
<g id="a_node2"><a xlink:title=" ">
<polygon fill="white" stroke="#bfbfbf" points="56.5,-149.5 56.5,-206.5 103.5,-206.5 103.5,-149.5 56.5,-149.5"/>
<text text-anchor="middle" x="80" y="-194.5" font-family="Helvetica,sans-Serif" font-size="10.00">Visual</text>
<polyline fill="none" stroke="#bfbfbf" points="56.5,-187.5 103.5,-187.5 "/>
<text text-anchor="middle" x="80" y="-175.5" font-family="Helvetica,sans-Serif" font-size="10.00"> </text>
<polyline fill="none" stroke="#bfbfbf" points="56.5,-168.5 103.5,-168.5 "/>
<text text-anchor="middle" x="80" y="-156.5" font-family="Helvetica,sans-Serif" font-size="10.00"> </text>
</a>
</g>
</g>
<!-- Node2&#45;&gt;Node1 -->
<g id="edge1" class="edge">
<title>Node2&#45;&gt;Node1</title>
<path fill="none" stroke="midnightblue" d="M80,-139.11C80,-130.75 80,-121.73 80,-112.83"/>
<polygon fill="none" stroke="midnightblue" points="76.5,-139.28 80,-149.28 83.5,-139.28 76.5,-139.28"/>
</g>
</g>
</svg>
