<?xml version="1.0" encoding="UTF-8" standalone="no"?>
<!DOCTYPE svg PUBLIC "-//W3C//DTD SVG 1.1//EN"
 "http://www.w3.org/Graphics/SVG/1.1/DTD/svg11.dtd">
<!-- Generated by graphviz version 2.43.0 (0)
 -->
<!-- Title: cie::gl::Axes Pages: 1 -->
<svg width="262pt" height="775pt"
 viewBox="0.00 0.00 261.50 775.00" xmlns="http://www.w3.org/2000/svg" xmlns:xlink="http://www.w3.org/1999/xlink">
<g id="graph0" class="graph" transform="scale(1 1) rotate(0) translate(4 771)">
<title>cie::gl::Axes</title>
<polygon fill="white" stroke="transparent" points="-4,4 -4,-771 257.5,-771 257.5,4 -4,4"/>
<!-- Node1 -->
<g id="node1" class="node">
<title>Node1</title>
<g id="a_node1"><a xlink:title=" ">
<polygon fill="#bfbfbf" stroke="black" points="97.5,-0.5 97.5,-57.5 172.5,-57.5 172.5,-0.5 97.5,-0.5"/>
<text text-anchor="middle" x="135" y="-45.5" font-family="Helvetica,sans-Serif" font-size="10.00">cie::gl::Axes</text>
<polyline fill="none" stroke="black" points="97.5,-38.5 172.5,-38.5 "/>
<text text-anchor="middle" x="135" y="-26.5" font-family="Helvetica,sans-Serif" font-size="10.00"> </text>
<polyline fill="none" stroke="black" points="97.5,-19.5 172.5,-19.5 "/>
<text text-anchor="start" x="105.5" y="-7.5" font-family="Helvetica,sans-Serif" font-size="10.00">+ Axes()</text>
</a>
</g>
</g>
<!-- Node2 -->
<g id="node2" class="node">
<title>Node2</title>
<g id="a_node2"><a xlink:href="classcie_1_1gl_1_1CompoundShape.html" target="_top" xlink:title=" ">
<polygon fill="white" stroke="black" points="0,-128.5 0,-262.5 134,-262.5 134,-128.5 0,-128.5"/>
<text text-anchor="start" x="8" y="-250.5" font-family="Helvetica,sans-Serif" font-size="10.00">cie::gl::CompoundShape</text>
<text text-anchor="middle" x="67" y="-239.5" font-family="Helvetica,sans-Serif" font-size="10.00">&lt; ColoredVertex3 &gt;</text>
<polyline fill="none" stroke="black" points="0,-232.5 134,-232.5 "/>
<text text-anchor="start" x="8" y="-220.5" font-family="Helvetica,sans-Serif" font-size="10.00"># _shapes</text>
<polyline fill="none" stroke="black" points="0,-213.5 134,-213.5 "/>
<text text-anchor="start" x="8" y="-201.5" font-family="Helvetica,sans-Serif" font-size="10.00">+ CompoundShape()</text>
<text text-anchor="start" x="8" y="-190.5" font-family="Helvetica,sans-Serif" font-size="10.00">+ CompoundShape()</text>
<text text-anchor="start" x="8" y="-179.5" font-family="Helvetica,sans-Serif" font-size="10.00">+ CompoundShape()</text>
<text text-anchor="start" x="8" y="-168.5" font-family="Helvetica,sans-Serif" font-size="10.00">+ setAttribute()</text>
<text text-anchor="start" x="8" y="-157.5" font-family="Helvetica,sans-Serif" font-size="10.00">+ updateShape()</text>
<text text-anchor="start" x="8" y="-146.5" font-family="Helvetica,sans-Serif" font-size="10.00">+ indices()</text>
<text text-anchor="start" x="8" y="-135.5" font-family="Helvetica,sans-Serif" font-size="10.00">+ shapes()</text>
</a>
</g>
</g>
<!-- Node2&#45;&gt;Node1 -->
<g id="edge1" class="edge">
<title>Node2&#45;&gt;Node1</title>
<path fill="none" stroke="midnightblue" d="M98.31,-118.76C107.33,-96.93 116.62,-74.47 123.59,-57.61"/>
<polygon fill="none" stroke="midnightblue" points="95.05,-117.49 94.46,-128.07 101.52,-120.16 95.05,-117.49"/>
</g>
<!-- Node3 -->
<g id="node3" class="node">
<title>Node3</title>
<g id="a_node3"><a xlink:href="classcie_1_1gl_1_1AbsGLShape.html" target="_top" xlink:title=" ">
<polygon fill="white" stroke="black" points="6.5,-515.5 6.5,-671.5 119.5,-671.5 119.5,-515.5 6.5,-515.5"/>
<text text-anchor="middle" x="63" y="-659.5" font-family="Helvetica,sans-Serif" font-size="10.00">cie::gl::AbsGLShape</text>
<polyline fill="none" stroke="black" points="6.5,-652.5 119.5,-652.5 "/>
<text text-anchor="start" x="14.5" y="-640.5" font-family="Helvetica,sans-Serif" font-size="10.00"># _p_attributes</text>
<polyline fill="none" stroke="black" points="6.5,-633.5 119.5,-633.5 "/>
<text text-anchor="start" x="14.5" y="-621.5" font-family="Helvetica,sans-Serif" font-size="10.00">+ AbsGLShape()</text>
<text text-anchor="start" x="14.5" y="-610.5" font-family="Helvetica,sans-Serif" font-size="10.00">+ AbsGLShape()</text>
<text text-anchor="start" x="14.5" y="-599.5" font-family="Helvetica,sans-Serif" font-size="10.00">+ setAttribute()</text>
<text text-anchor="start" x="14.5" y="-588.5" font-family="Helvetica,sans-Serif" font-size="10.00">+ updateShape()</text>
<text text-anchor="start" x="14.5" y="-577.5" font-family="Helvetica,sans-Serif" font-size="10.00">+ indices()</text>
<text text-anchor="start" x="14.5" y="-566.5" font-family="Helvetica,sans-Serif" font-size="10.00">+ attributes()</text>
<text text-anchor="start" x="14.5" y="-555.5" font-family="Helvetica,sans-Serif" font-size="10.00">+ attributes()</text>
<text text-anchor="start" x="14.5" y="-544.5" font-family="Helvetica,sans-Serif" font-size="10.00"># AbsGLShape()</text>
<text text-anchor="start" x="14.5" y="-533.5" font-family="Helvetica,sans-Serif" font-size="10.00"># AbsGLShape()</text>
<text text-anchor="start" x="14.5" y="-522.5" font-family="Helvetica,sans-Serif" font-size="10.00"># operator=()</text>
</a>
</g>
</g>
<!-- Node3&#45;&gt;Node2 -->
<g id="edge2" class="edge">
<title>Node3&#45;&gt;Node2</title>
<path fill="none" stroke="midnightblue" d="M63.88,-505.09C64.62,-431.97 65.66,-329.23 66.33,-262.75"/>
<polygon fill="none" stroke="midnightblue" points="60.38,-505.17 63.78,-515.21 67.38,-505.24 60.38,-505.17"/>
</g>
<!-- Node5 -->
<g id="node5" class="node">
<title>Node5</title>
<g id="a_node5"><a xlink:href="classcie_1_1gl_1_1CompoundShape.html" target="_top" xlink:title="Container of shapes with an AbsGLShape interface.">
<polygon fill="white" stroke="black" points="79,-343.5 79,-477.5 213,-477.5 213,-343.5 79,-343.5"/>
<text text-anchor="start" x="87" y="-465.5" font-family="Helvetica,sans-Serif" font-size="10.00">cie::gl::CompoundShape</text>
<text text-anchor="middle" x="146" y="-454.5" font-family="Helvetica,sans-Serif" font-size="10.00">&lt; VertexType &gt;</text>
<polyline fill="none" stroke="black" points="79,-447.5 213,-447.5 "/>
<text text-anchor="start" x="87" y="-435.5" font-family="Helvetica,sans-Serif" font-size="10.00"># _shapes</text>
<polyline fill="none" stroke="black" points="79,-428.5 213,-428.5 "/>
<text text-anchor="start" x="87" y="-416.5" font-family="Helvetica,sans-Serif" font-size="10.00">+ CompoundShape()</text>
<text text-anchor="start" x="87" y="-405.5" font-family="Helvetica,sans-Serif" font-size="10.00">+ CompoundShape()</text>
<text text-anchor="start" x="87" y="-394.5" font-family="Helvetica,sans-Serif" font-size="10.00">+ CompoundShape()</text>
<text text-anchor="start" x="87" y="-383.5" font-family="Helvetica,sans-Serif" font-size="10.00">+ setAttribute()</text>
<text text-anchor="start" x="87" y="-372.5" font-family="Helvetica,sans-Serif" font-size="10.00">+ updateShape()</text>
<text text-anchor="start" x="87" y="-361.5" font-family="Helvetica,sans-Serif" font-size="10.00">+ indices()</text>
<text text-anchor="start" x="87" y="-350.5" font-family="Helvetica,sans-Serif" font-size="10.00">+ shapes()</text>
</a>
</g>
</g>
<!-- Node3&#45;&gt;Node5 -->
<g id="edge5" class="edge">
<title>Node3&#45;&gt;Node5</title>
<path fill="none" stroke="midnightblue" d="M102.54,-506.27C106.96,-496.63 111.41,-486.93 115.69,-477.6"/>
<polygon fill="none" stroke="midnightblue" points="99.31,-504.93 98.32,-515.48 105.67,-507.85 99.31,-504.93"/>
</g>
<!-- Node4 -->
<g id="node4" class="node">
<title>Node4</title>
<g id="a_node4"><a xlink:href="structcie_1_1gl_1_1GLTraits.html" target="_top" xlink:title=" ">
<polygon fill="white" stroke="black" points="18,-709.5 18,-766.5 108,-766.5 108,-709.5 18,-709.5"/>
<text text-anchor="middle" x="63" y="-754.5" font-family="Helvetica,sans-Serif" font-size="10.00">cie::gl::GLTraits</text>
<polyline fill="none" stroke="black" points="18,-747.5 108,-747.5 "/>
<text text-anchor="middle" x="63" y="-735.5" font-family="Helvetica,sans-Serif" font-size="10.00"> </text>
<polyline fill="none" stroke="black" points="18,-728.5 108,-728.5 "/>
<text text-anchor="middle" x="63" y="-716.5" font-family="Helvetica,sans-Serif" font-size="10.00"> </text>
</a>
</g>
</g>
<!-- Node4&#45;&gt;Node3 -->
<g id="edge3" class="edge">
<title>Node4&#45;&gt;Node3</title>
<path fill="none" stroke="midnightblue" d="M63,-698.91C63,-690.42 63,-681.12 63,-671.69"/>
<polygon fill="none" stroke="midnightblue" points="59.5,-699.19 63,-709.19 66.5,-699.19 59.5,-699.19"/>
</g>
<!-- Node5&#45;&gt;Node2 -->
<g id="edge4" class="edge">
<title>Node5&#45;&gt;Node2</title>
<path fill="none" stroke="orange" d="M117.93,-333.81C109.31,-310.59 99.91,-285.22 91.55,-262.69"/>
<polygon fill="orange" stroke="orange" points="114.68,-335.11 121.44,-343.27 121.24,-332.68 114.68,-335.11"/>
<text text-anchor="middle" x="164.5" y="-317" font-family="Helvetica,sans-Serif" font-size="10.00"> &lt; ColoredVertex3 &gt;</text>
</g>
<!-- Node6 -->
<g id="node6" class="node">
<title>Node6</title>
<g id="a_node6"><a xlink:href="classcie_1_1gl_1_1RigidBody.html" target="_top" xlink:title=" ">
<polygon fill="white" stroke="black" points="152.5,-95.5 152.5,-295.5 253.5,-295.5 253.5,-95.5 152.5,-95.5"/>
<text text-anchor="middle" x="203" y="-283.5" font-family="Helvetica,sans-Serif" font-size="10.00">cie::gl::RigidBody</text>
<polyline fill="none" stroke="black" points="152.5,-276.5 253.5,-276.5 "/>
<text text-anchor="start" x="160.5" y="-264.5" font-family="Helvetica,sans-Serif" font-size="10.00"># _position</text>
<text text-anchor="start" x="160.5" y="-253.5" font-family="Helvetica,sans-Serif" font-size="10.00"># _direction</text>
<text text-anchor="start" x="160.5" y="-242.5" font-family="Helvetica,sans-Serif" font-size="10.00"># _up</text>
<polyline fill="none" stroke="black" points="152.5,-235.5 253.5,-235.5 "/>
<text text-anchor="start" x="160.5" y="-223.5" font-family="Helvetica,sans-Serif" font-size="10.00">+ RigidBody()</text>
<text text-anchor="start" x="160.5" y="-212.5" font-family="Helvetica,sans-Serif" font-size="10.00">+ RigidBody()</text>
<text text-anchor="start" x="160.5" y="-201.5" font-family="Helvetica,sans-Serif" font-size="10.00">+ RigidBody()</text>
<text text-anchor="start" x="160.5" y="-190.5" font-family="Helvetica,sans-Serif" font-size="10.00">+ RigidBody()</text>
<text text-anchor="start" x="160.5" y="-179.5" font-family="Helvetica,sans-Serif" font-size="10.00">+ position()</text>
<text text-anchor="start" x="160.5" y="-168.5" font-family="Helvetica,sans-Serif" font-size="10.00">+ direction()</text>
<text text-anchor="start" x="160.5" y="-157.5" font-family="Helvetica,sans-Serif" font-size="10.00">+ up()</text>
<text text-anchor="start" x="160.5" y="-146.5" font-family="Helvetica,sans-Serif" font-size="10.00">+ setPosition()</text>
<text text-anchor="start" x="160.5" y="-135.5" font-family="Helvetica,sans-Serif" font-size="10.00">+ setPose()</text>
<text text-anchor="start" x="160.5" y="-124.5" font-family="Helvetica,sans-Serif" font-size="10.00">+ translate()</text>
<text text-anchor="start" x="160.5" y="-113.5" font-family="Helvetica,sans-Serif" font-size="10.00">and 8 more...</text>
<text text-anchor="start" x="160.5" y="-102.5" font-family="Helvetica,sans-Serif" font-size="10.00"># rotateInPlace()</text>
</a>
</g>
</g>
<!-- Node6&#45;&gt;Node1 -->
<g id="edge6" class="edge">
<title>Node6&#45;&gt;Node1</title>
<path fill="none" stroke="midnightblue" d="M158.22,-86.17C153.91,-75.74 149.85,-65.93 146.37,-57.51"/>
<polygon fill="none" stroke="midnightblue" points="155.02,-87.58 162.07,-95.49 161.49,-84.91 155.02,-87.58"/>
</g>
</g>
</svg>
