<?xml version="1.0" encoding="UTF-8" standalone="no"?>
<!DOCTYPE svg PUBLIC "-//W3C//DTD SVG 1.1//EN"
 "http://www.w3.org/Graphics/SVG/1.1/DTD/svg11.dtd">
<!-- Generated by graphviz version 2.43.0 (0)
 -->
<!-- Title: modules.glvisuals.linemarkercanvas.LineMarkerCanvas Pages: 1 -->
<svg width="206pt" height="204pt"
 viewBox="0.00 0.00 206.00 204.00" xmlns="http://www.w3.org/2000/svg" xmlns:xlink="http://www.w3.org/1999/xlink">
<g id="graph0" class="graph" transform="scale(1 1) rotate(0) translate(4 200)">
<title>modules.glvisuals.linemarkercanvas.LineMarkerCanvas</title>
<polygon fill="white" stroke="transparent" points="-4,4 -4,-200 202,-200 202,4 -4,4"/>
<!-- Node1 -->
<g id="node1" class="node">
<title>Node1</title>
<g id="a_node1"><a xlink:title=" ">
<polygon fill="#bfbfbf" stroke="black" points="0,-0.5 0,-101.5 198,-101.5 198,-0.5 0,-0.5"/>
<text text-anchor="start" x="8" y="-89.5" font-family="Helvetica,sans-Serif" font-size="10.00">modules.glvisuals.linemarkercanvas.</text>
<text text-anchor="middle" x="99" y="-78.5" font-family="Helvetica,sans-Serif" font-size="10.00">LineMarkerCanvas</text>
<polyline fill="none" stroke="black" points="0,-71.5 198,-71.5 "/>
<text text-anchor="start" x="8" y="-59.5" font-family="Helvetica,sans-Serif" font-size="10.00">+ eventClass</text>
<polyline fill="none" stroke="black" points="0,-52.5 198,-52.5 "/>
<text text-anchor="start" x="8" y="-40.5" font-family="Helvetica,sans-Serif" font-size="10.00">+ __init__()</text>
<text text-anchor="start" x="8" y="-29.5" font-family="Helvetica,sans-Serif" font-size="10.00">+ getPos()</text>
<text text-anchor="start" x="8" y="-18.5" font-family="Helvetica,sans-Serif" font-size="10.00">+ addPoint()</text>
<text text-anchor="start" x="8" y="-7.5" font-family="Helvetica,sans-Serif" font-size="10.00">+ setPoint()</text>
</a>
</g>
</g>
<!-- Node2 -->
<g id="node2" class="node">
<title>Node2</title>
<g id="a_node2"><a xlink:title=" ">
<polygon fill="white" stroke="#bfbfbf" points="53,-138.5 53,-195.5 145,-195.5 145,-138.5 53,-138.5"/>
<text text-anchor="middle" x="99" y="-183.5" font-family="Helvetica,sans-Serif" font-size="10.00">ModularCanvas</text>
<polyline fill="none" stroke="#bfbfbf" points="53,-176.5 145,-176.5 "/>
<text text-anchor="middle" x="99" y="-164.5" font-family="Helvetica,sans-Serif" font-size="10.00"> </text>
<polyline fill="none" stroke="#bfbfbf" points="53,-157.5 145,-157.5 "/>
<text text-anchor="middle" x="99" y="-145.5" font-family="Helvetica,sans-Serif" font-size="10.00"> </text>
</a>
</g>
</g>
<!-- Node2&#45;&gt;Node1 -->
<g id="edge1" class="edge">
<title>Node2&#45;&gt;Node1</title>
<path fill="none" stroke="midnightblue" d="M99,-128.35C99,-119.8 99,-110.58 99,-101.61"/>
<polygon fill="none" stroke="midnightblue" points="95.5,-128.4 99,-138.4 102.5,-128.4 95.5,-128.4"/>
</g>
</g>
</svg>
