<?xml version="1.0" encoding="UTF-8" standalone="no"?>
<!DOCTYPE svg PUBLIC "-//W3C//DTD SVG 1.1//EN"
 "http://www.w3.org/Graphics/SVG/1.1/DTD/svg11.dtd">
<!-- Generated by graphviz version 2.43.0 (0)
 -->
<!-- Title: cie::gl::Plot2&lt; Args &gt; Pages: 1 -->
<svg width="841pt" height="608pt"
 viewBox="0.00 0.00 841.38 608.00" xmlns="http://www.w3.org/2000/svg" xmlns:xlink="http://www.w3.org/1999/xlink">
<g id="graph0" class="graph" transform="scale(1 1) rotate(0) translate(4 604)">
<title>cie::gl::Plot2&lt; Args &gt;</title>
<polygon fill="white" stroke="transparent" points="-4,4 -4,-604 837.38,-604 837.38,4 -4,4"/>
<!-- Node1 -->
<g id="node1" class="node">
<title>Node1</title>
<g id="a_node1"><a xlink:title="Default Plot2 that will cause a compilation error.">
<polygon fill="#bfbfbf" stroke="black" points="355.38,-0.5 355.38,-57.5 476.38,-57.5 476.38,-0.5 355.38,-0.5"/>
<text text-anchor="middle" x="415.88" y="-45.5" font-family="Helvetica,sans-Serif" font-size="10.00">cie::gl::Plot2&lt; Args &gt;</text>
<polyline fill="none" stroke="black" points="355.38,-38.5 476.38,-38.5 "/>
<text text-anchor="middle" x="415.88" y="-26.5" font-family="Helvetica,sans-Serif" font-size="10.00"> </text>
<polyline fill="none" stroke="black" points="355.38,-19.5 476.38,-19.5 "/>
<text text-anchor="middle" x="415.88" y="-7.5" font-family="Helvetica,sans-Serif" font-size="10.00"> </text>
</a>
</g>
</g>
<!-- Node2 -->
<g id="node2" class="node">
<title>Node2</title>
<g id="a_node2"><a xlink:href="classcie_1_1gl_1_1AbsPlot2.html" target="_top" xlink:title=" ">
<polygon fill="white" stroke="black" points="345.88,-95.5 345.88,-185.5 485.88,-185.5 485.88,-95.5 345.88,-95.5"/>
<text text-anchor="start" x="353.88" y="-173.5" font-family="Helvetica,sans-Serif" font-size="10.00">cie::gl::AbsPlot2&lt;</text>
<text text-anchor="middle" x="415.88" y="-162.5" font-family="Helvetica,sans-Serif" font-size="10.00"> std::false_type, Args... &gt;</text>
<polyline fill="none" stroke="black" points="345.88,-155.5 485.88,-155.5 "/>
<text text-anchor="middle" x="415.88" y="-143.5" font-family="Helvetica,sans-Serif" font-size="10.00"> </text>
<polyline fill="none" stroke="black" points="345.88,-136.5 485.88,-136.5 "/>
<text text-anchor="start" x="353.88" y="-124.5" font-family="Helvetica,sans-Serif" font-size="10.00">+ AbsPlot2()</text>
<text text-anchor="start" x="353.88" y="-113.5" font-family="Helvetica,sans-Serif" font-size="10.00">+ AbsPlot2()</text>
<text text-anchor="start" x="353.88" y="-102.5" font-family="Helvetica,sans-Serif" font-size="10.00">+ fit()</text>
</a>
</g>
</g>
<!-- Node2&#45;&gt;Node1 -->
<g id="edge1" class="edge">
<title>Node2&#45;&gt;Node1</title>
<path fill="none" stroke="midnightblue" d="M415.88,-85.04C415.88,-75.56 415.88,-66.06 415.88,-57.69"/>
<polygon fill="none" stroke="midnightblue" points="412.38,-85.28 415.88,-95.28 419.38,-85.28 412.38,-85.28"/>
</g>
<!-- Node3 -->
<g id="node3" class="node">
<title>Node3</title>
<g id="a_node3"><a xlink:href="classcie_1_1gl_1_1AbsPlot.html" target="_top" xlink:title=" ">
<polygon fill="white" stroke="black" points="370.38,-382.5 370.38,-494.5 459.38,-494.5 459.38,-382.5 370.38,-382.5"/>
<text text-anchor="middle" x="414.88" y="-482.5" font-family="Helvetica,sans-Serif" font-size="10.00">cie::gl::AbsPlot</text>
<polyline fill="none" stroke="black" points="370.38,-475.5 459.38,-475.5 "/>
<text text-anchor="middle" x="414.88" y="-463.5" font-family="Helvetica,sans-Serif" font-size="10.00"> </text>
<polyline fill="none" stroke="black" points="370.38,-456.5 459.38,-456.5 "/>
<text text-anchor="start" x="378.38" y="-444.5" font-family="Helvetica,sans-Serif" font-size="10.00">+ AbsPlot()</text>
<text text-anchor="start" x="378.38" y="-433.5" font-family="Helvetica,sans-Serif" font-size="10.00">+ AbsPlot()</text>
<text text-anchor="start" x="378.38" y="-422.5" font-family="Helvetica,sans-Serif" font-size="10.00">+ update()</text>
<text text-anchor="start" x="378.38" y="-411.5" font-family="Helvetica,sans-Serif" font-size="10.00">+ fit()</text>
<text text-anchor="start" x="378.38" y="-400.5" font-family="Helvetica,sans-Serif" font-size="10.00">+ show()</text>
<text text-anchor="start" x="378.38" y="-389.5" font-family="Helvetica,sans-Serif" font-size="10.00">+ attributes()</text>
</a>
</g>
</g>
<!-- Node3&#45;&gt;Node2 -->
<g id="edge2" class="edge">
<title>Node3&#45;&gt;Node2</title>
<path fill="none" stroke="midnightblue" d="M415.1,-371.9C415.29,-315.36 415.56,-235.26 415.73,-185.93"/>
<polygon fill="none" stroke="midnightblue" points="411.6,-372.16 415.06,-382.17 418.6,-372.18 411.6,-372.16"/>
</g>
<!-- Node9 -->
<g id="node9" class="node">
<title>Node9</title>
<g id="a_node9"><a xlink:href="classcie_1_1gl_1_1AbsPlot2.html" target="_top" xlink:title=" ">
<polygon fill="white" stroke="black" points="444.38,-244.5 444.38,-334.5 547.38,-334.5 547.38,-244.5 444.38,-244.5"/>
<text text-anchor="start" x="452.38" y="-322.5" font-family="Helvetica,sans-Serif" font-size="10.00">cie::gl::AbsPlot2&lt;</text>
<text text-anchor="middle" x="495.88" y="-311.5" font-family="Helvetica,sans-Serif" font-size="10.00"> Tag, Args &gt;</text>
<polyline fill="none" stroke="black" points="444.38,-304.5 547.38,-304.5 "/>
<text text-anchor="middle" x="495.88" y="-292.5" font-family="Helvetica,sans-Serif" font-size="10.00"> </text>
<polyline fill="none" stroke="black" points="444.38,-285.5 547.38,-285.5 "/>
<text text-anchor="start" x="452.38" y="-273.5" font-family="Helvetica,sans-Serif" font-size="10.00">+ AbsPlot2()</text>
<text text-anchor="start" x="452.38" y="-262.5" font-family="Helvetica,sans-Serif" font-size="10.00">+ AbsPlot2()</text>
<text text-anchor="start" x="452.38" y="-251.5" font-family="Helvetica,sans-Serif" font-size="10.00">+ fit()</text>
</a>
</g>
</g>
<!-- Node3&#45;&gt;Node9 -->
<g id="edge11" class="edge">
<title>Node3&#45;&gt;Node9</title>
<path fill="none" stroke="midnightblue" d="M450.17,-373.44C457.33,-360.46 464.7,-347.08 471.38,-334.95"/>
<polygon fill="none" stroke="midnightblue" points="447.03,-371.9 445.27,-382.34 453.16,-375.28 447.03,-371.9"/>
</g>
<!-- Node4 -->
<g id="node4" class="node">
<title>Node4</title>
<g id="a_node4"><a xlink:title=" ">
<polygon fill="white" stroke="#bfbfbf" points="322.38,-542.5 322.38,-599.5 407.38,-599.5 407.38,-542.5 322.38,-542.5"/>
<text text-anchor="middle" x="364.88" y="-587.5" font-family="Helvetica,sans-Serif" font-size="10.00">SharedPointer</text>
<polyline fill="none" stroke="#bfbfbf" points="322.38,-580.5 407.38,-580.5 "/>
<text text-anchor="middle" x="364.88" y="-568.5" font-family="Helvetica,sans-Serif" font-size="10.00"> </text>
<polyline fill="none" stroke="#bfbfbf" points="322.38,-561.5 407.38,-561.5 "/>
<text text-anchor="middle" x="364.88" y="-549.5" font-family="Helvetica,sans-Serif" font-size="10.00"> </text>
</a>
</g>
</g>
<!-- Node4&#45;&gt;Node2 -->
<g id="edge8" class="edge">
<title>Node4&#45;&gt;Node2</title>
<path fill="none" stroke="#404040" d="M322.36,-567.25C238.49,-560.84 56.59,-541.77 18.88,-495 -12.65,-455.91 2.61,-429.52 18.88,-382 55.93,-273.74 98.55,-246.26 204.88,-204 246.47,-187.47 294.19,-172.98 333.71,-162.12"/>
<polygon fill="none" stroke="#404040" points="333.85,-162.08 338.59,-156.65 345.43,-158.94 340.68,-164.37 333.85,-162.08"/>
<text text-anchor="middle" x="62.38" y="-356" font-family="Helvetica,sans-Serif" font-size="10.00"> #_p_camera</text>
</g>
<!-- Node4&#45;&gt;Node3 -->
<g id="edge3" class="edge">
<title>Node4&#45;&gt;Node3</title>
<path fill="none" stroke="#404040" d="M323.12,-542.25C314.67,-533.24 310.17,-522.99 316.88,-513 327,-497.92 339.28,-504.2 359.51,-494.4"/>
<polygon fill="none" stroke="#404040" points="359.77,-494.25 362.9,-487.75 370.1,-488.14 366.97,-494.64 359.77,-494.25"/>
<text text-anchor="middle" x="354.88" y="-516" font-family="Helvetica,sans-Serif" font-size="10.00"> #_p_attributes</text>
</g>
<!-- Node4&#45;&gt;Node3 -->
<g id="edge4" class="edge">
<title>Node4&#45;&gt;Node3</title>
<path fill="none" stroke="#404040" d="M383.41,-542.48C386.89,-536.55 390.25,-530.2 392.88,-524 395.25,-518.39 397.43,-512.45 399.4,-506.43"/>
<polygon fill="none" stroke="#404040" points="399.44,-506.3 397.38,-499.39 402.96,-494.82 405.03,-501.73 399.44,-506.3"/>
<text text-anchor="middle" x="429.88" y="-516" font-family="Helvetica,sans-Serif" font-size="10.00"> #_p_window</text>
</g>
<!-- Node4&#45;&gt;Node9 -->
<g id="edge15" class="edge">
<title>Node4&#45;&gt;Node9</title>
<path fill="none" stroke="#404040" d="M407.38,-561.23C428.59,-554.6 452.7,-543.23 466.88,-524 504.5,-472.97 507.16,-397.99 503.43,-346.86"/>
<polygon fill="none" stroke="#404040" points="503.41,-346.68 498.91,-341.04 502.39,-334.72 506.89,-340.36 503.41,-346.68"/>
<text text-anchor="middle" x="537.38" y="-436" font-family="Helvetica,sans-Serif" font-size="10.00"> #_p_camera</text>
</g>
<!-- Node5 -->
<g id="node5" class="node">
<title>Node5</title>
<g id="a_node5"><a xlink:title=" ">
<polygon fill="white" stroke="#bfbfbf" points="183.38,-410 183.38,-467 352.38,-467 352.38,-410 183.38,-410"/>
<text text-anchor="middle" x="267.88" y="-455" font-family="Helvetica,sans-Serif" font-size="10.00">shared_ptr&lt; index_container &gt;</text>
<polyline fill="none" stroke="#bfbfbf" points="183.38,-448 352.38,-448 "/>
<text text-anchor="middle" x="267.88" y="-436" font-family="Helvetica,sans-Serif" font-size="10.00"> </text>
<polyline fill="none" stroke="#bfbfbf" points="183.38,-429 352.38,-429 "/>
<text text-anchor="middle" x="267.88" y="-417" font-family="Helvetica,sans-Serif" font-size="10.00"> </text>
</a>
</g>
</g>
<!-- Node5&#45;&gt;Node2 -->
<g id="edge5" class="edge">
<title>Node5&#45;&gt;Node2</title>
<path fill="none" stroke="#404040" d="M248.5,-409.63C239.46,-393.12 232.04,-371.81 238.88,-353 261.72,-290.11 312.37,-232.86 353.66,-193.83"/>
<polygon fill="none" stroke="#404040" points="353.79,-193.7 355.46,-186.69 362.58,-185.53 360.91,-192.55 353.79,-193.7"/>
<text text-anchor="middle" x="335.38" y="-287" font-family="Helvetica,sans-Serif" font-size="10.00"> #_p_indices</text>
</g>
<!-- Node5&#45;&gt;Node9 -->
<g id="edge12" class="edge">
<title>Node5&#45;&gt;Node9</title>
<path fill="none" stroke="#404040" d="M305.76,-409.87C329.34,-392.96 360.49,-371.16 388.88,-353 403.17,-343.86 418.81,-334.42 433.61,-325.73"/>
<polygon fill="none" stroke="#404040" points="433.84,-325.59 437.01,-319.12 444.21,-319.55 441.04,-326.03 433.84,-325.59"/>
<text text-anchor="middle" x="420.38" y="-356" font-family="Helvetica,sans-Serif" font-size="10.00"> #_p_indices</text>
</g>
<!-- Node6 -->
<g id="node6" class="node">
<title>Node6</title>
<g id="a_node6"><a xlink:title=" ">
<polygon fill="white" stroke="#bfbfbf" points="28.38,-404.5 28.38,-472.5 165.38,-472.5 165.38,-404.5 28.38,-404.5"/>
<text text-anchor="start" x="36.38" y="-460.5" font-family="Helvetica,sans-Serif" font-size="10.00">shared_ptr&lt; cie::gl</text>
<text text-anchor="middle" x="96.88" y="-449.5" font-family="Helvetica,sans-Serif" font-size="10.00">::AbsPlot2::Plot2Scene &gt;</text>
<polyline fill="none" stroke="#bfbfbf" points="28.38,-442.5 165.38,-442.5 "/>
<text text-anchor="middle" x="96.88" y="-430.5" font-family="Helvetica,sans-Serif" font-size="10.00"> </text>
<polyline fill="none" stroke="#bfbfbf" points="28.38,-423.5 165.38,-423.5 "/>
<text text-anchor="middle" x="96.88" y="-411.5" font-family="Helvetica,sans-Serif" font-size="10.00"> </text>
</a>
</g>
</g>
<!-- Node6&#45;&gt;Node2 -->
<g id="edge6" class="edge">
<title>Node6&#45;&gt;Node2</title>
<path fill="none" stroke="#404040" d="M104.43,-404.21C115.58,-361.94 140.24,-289.09 185.88,-244 226.6,-203.76 285.84,-177.87 334,-162.17"/>
<polygon fill="none" stroke="#404040" points="334.23,-162.1 338.75,-156.48 345.67,-158.5 341.15,-164.12 334.23,-162.1"/>
<text text-anchor="middle" x="214.38" y="-287" font-family="Helvetica,sans-Serif" font-size="10.00"> #_p_scene</text>
</g>
<!-- Node6&#45;&gt;Node9 -->
<g id="edge13" class="edge">
<title>Node6&#45;&gt;Node9</title>
<path fill="none" stroke="#404040" d="M137.17,-404.46C148.54,-396.27 161.27,-388.1 173.88,-382 258.83,-340.89 365.57,-315.12 432.28,-301.77"/>
<polygon fill="none" stroke="#404040" points="432.48,-301.73 437.6,-296.65 444.25,-299.42 439.14,-304.5 432.48,-301.73"/>
<text text-anchor="middle" x="270.38" y="-356" font-family="Helvetica,sans-Serif" font-size="10.00"> #_p_scene</text>
</g>
<!-- Node7 -->
<g id="node7" class="node">
<title>Node7</title>
<g id="a_node7"><a xlink:title=" ">
<polygon fill="white" stroke="#bfbfbf" points="579.38,-404.5 579.38,-472.5 698.38,-472.5 698.38,-404.5 579.38,-404.5"/>
<text text-anchor="start" x="587.38" y="-460.5" font-family="Helvetica,sans-Serif" font-size="10.00">shared_ptr&lt; controls</text>
<text text-anchor="middle" x="638.88" y="-449.5" font-family="Helvetica,sans-Serif" font-size="10.00">_type &gt;</text>
<polyline fill="none" stroke="#bfbfbf" points="579.38,-442.5 698.38,-442.5 "/>
<text text-anchor="middle" x="638.88" y="-430.5" font-family="Helvetica,sans-Serif" font-size="10.00"> </text>
<polyline fill="none" stroke="#bfbfbf" points="579.38,-423.5 698.38,-423.5 "/>
<text text-anchor="middle" x="638.88" y="-411.5" font-family="Helvetica,sans-Serif" font-size="10.00"> </text>
</a>
</g>
</g>
<!-- Node7&#45;&gt;Node2 -->
<g id="edge7" class="edge">
<title>Node7&#45;&gt;Node2</title>
<path fill="none" stroke="#404040" d="M635.62,-404.3C629.02,-354.43 609.69,-260.06 554.88,-204 538.96,-187.72 518.04,-175.33 497.28,-166.04"/>
<polygon fill="none" stroke="#404040" points="497.19,-166 490.11,-167.35 486.13,-161.33 493.22,-159.98 497.19,-166"/>
<text text-anchor="middle" x="655.38" y="-287" font-family="Helvetica,sans-Serif" font-size="10.00"> #_p_controls</text>
</g>
<!-- Node7&#45;&gt;Node9 -->
<g id="edge14" class="edge">
<title>Node7&#45;&gt;Node9</title>
<path fill="none" stroke="#404040" d="M595.03,-404.25C580.34,-392.25 564.3,-378.16 550.88,-364 545.13,-357.94 539.43,-351.28 534,-344.52"/>
<polygon fill="none" stroke="#404040" points="533.65,-344.06 526.8,-341.79 526.27,-334.6 533.11,-336.87 533.65,-344.06"/>
<text text-anchor="middle" x="584.38" y="-356" font-family="Helvetica,sans-Serif" font-size="10.00"> #_p_controls</text>
</g>
<!-- Node8 -->
<g id="node8" class="node">
<title>Node8</title>
<g id="a_node8"><a xlink:title=" ">
<polygon fill="white" stroke="#bfbfbf" points="716.38,-404.5 716.38,-472.5 833.38,-472.5 833.38,-404.5 716.38,-404.5"/>
<text text-anchor="start" x="724.38" y="-460.5" font-family="Helvetica,sans-Serif" font-size="10.00">vector&lt; vertex_type</text>
<text text-anchor="middle" x="774.88" y="-449.5" font-family="Helvetica,sans-Serif" font-size="10.00">::SharedPointer &gt;</text>
<polyline fill="none" stroke="#bfbfbf" points="716.38,-442.5 833.38,-442.5 "/>
<text text-anchor="middle" x="774.88" y="-430.5" font-family="Helvetica,sans-Serif" font-size="10.00"> </text>
<polyline fill="none" stroke="#bfbfbf" points="716.38,-423.5 833.38,-423.5 "/>
<text text-anchor="middle" x="774.88" y="-411.5" font-family="Helvetica,sans-Serif" font-size="10.00"> </text>
</a>
</g>
</g>
<!-- Node8&#45;&gt;Node2 -->
<g id="edge9" class="edge">
<title>Node8&#45;&gt;Node2</title>
<path fill="none" stroke="#404040" d="M769.16,-404.15C760.18,-361.48 738.8,-287.84 692.88,-244 639.5,-193.05 558.6,-166.99 497.99,-153.94"/>
<polygon fill="none" stroke="#404040" points="497.91,-153.92 491.22,-156.63 486.15,-151.5 492.84,-148.79 497.91,-153.92"/>
<text text-anchor="middle" x="775.88" y="-287" font-family="Helvetica,sans-Serif" font-size="10.00"> #_vertices</text>
</g>
<!-- Node8&#45;&gt;Node9 -->
<g id="edge16" class="edge">
<title>Node8&#45;&gt;Node9</title>
<path fill="none" stroke="#404040" d="M738.73,-404.4C729.11,-396.49 718.44,-388.47 707.88,-382 681.76,-366 611.3,-336.51 558.73,-315.33"/>
<polygon fill="none" stroke="#404040" points="558.61,-315.28 551.55,-316.75 547.48,-310.81 554.53,-309.33 558.61,-315.28"/>
<text text-anchor="middle" x="696.88" y="-356" font-family="Helvetica,sans-Serif" font-size="10.00"> #_vertices</text>
</g>
<!-- Node9&#45;&gt;Node2 -->
<g id="edge10" class="edge">
<title>Node9&#45;&gt;Node2</title>
<path fill="none" stroke="orange" d="M467.02,-235.48C458.11,-219.11 448.4,-201.27 439.86,-185.57"/>
<polygon fill="orange" stroke="orange" points="464.02,-237.28 471.87,-244.4 470.17,-233.94 464.02,-237.28"/>
<text text-anchor="start" x="460.88" y="-218" font-family="Helvetica,sans-Serif" font-size="10.00"> &lt; std::false_type,</text>
<text text-anchor="middle" x="505.88" y="-207" font-family="Helvetica,sans-Serif" font-size="10.00"> Args... &gt;</text>
</g>
</g>
</svg>
