<?xml version="1.0" encoding="UTF-8" standalone="no"?>
<!DOCTYPE svg PUBLIC "-//W3C//DTD SVG 1.1//EN"
 "http://www.w3.org/Graphics/SVG/1.1/DTD/svg11.dtd">
<!-- Generated by graphviz version 2.43.0 (0)
 -->
<!-- Title: cie::gl::FloatVec3GLUniform&lt; BoundType &gt; Pages: 1 -->
<svg width="544pt" height="718pt"
 viewBox="0.00 0.00 543.50 718.00" xmlns="http://www.w3.org/2000/svg" xmlns:xlink="http://www.w3.org/1999/xlink">
<g id="graph0" class="graph" transform="scale(1 1) rotate(0) translate(4 714)">
<title>cie::gl::FloatVec3GLUniform&lt; BoundType &gt;</title>
<polygon fill="white" stroke="transparent" points="-4,4 -4,-714 539.5,-714 539.5,4 -4,4"/>
<!-- Node1 -->
<g id="node1" class="node">
<title>Node1</title>
<g id="a_node1"><a xlink:title=" ">
<polygon fill="#bfbfbf" stroke="black" points="239.5,-0.5 239.5,-79.5 391.5,-79.5 391.5,-0.5 239.5,-0.5"/>
<text text-anchor="start" x="247.5" y="-67.5" font-family="Helvetica,sans-Serif" font-size="10.00">cie::gl::FloatVec3GLUniform</text>
<text text-anchor="middle" x="315.5" y="-56.5" font-family="Helvetica,sans-Serif" font-size="10.00">&lt; BoundType &gt;</text>
<polyline fill="none" stroke="black" points="239.5,-49.5 391.5,-49.5 "/>
<text text-anchor="middle" x="315.5" y="-37.5" font-family="Helvetica,sans-Serif" font-size="10.00"> </text>
<polyline fill="none" stroke="black" points="239.5,-30.5 391.5,-30.5 "/>
<text text-anchor="start" x="247.5" y="-18.5" font-family="Helvetica,sans-Serif" font-size="10.00">+ FloatVec3GLUniform()</text>
<text text-anchor="start" x="247.5" y="-7.5" font-family="Helvetica,sans-Serif" font-size="10.00">+ write()</text>
</a>
</g>
</g>
<!-- Node2 -->
<g id="node2" class="node">
<title>Node2</title>
<g id="a_node2"><a xlink:href="classcie_1_1gl_1_1GLUniform.html" target="_top" xlink:title="Interface for loading uniforms into GL.">
<polygon fill="white" stroke="black" points="263.5,-117.5 263.5,-196.5 367.5,-196.5 367.5,-117.5 263.5,-117.5"/>
<text text-anchor="middle" x="315.5" y="-184.5" font-family="Helvetica,sans-Serif" font-size="10.00">cie::gl::GLUniform</text>
<polyline fill="none" stroke="black" points="263.5,-177.5 367.5,-177.5 "/>
<text text-anchor="middle" x="315.5" y="-165.5" font-family="Helvetica,sans-Serif" font-size="10.00"> </text>
<polyline fill="none" stroke="black" points="263.5,-158.5 367.5,-158.5 "/>
<text text-anchor="start" x="271.5" y="-146.5" font-family="Helvetica,sans-Serif" font-size="10.00">+ GLUniform()</text>
<text text-anchor="start" x="271.5" y="-135.5" font-family="Helvetica,sans-Serif" font-size="10.00">+ write()</text>
<text text-anchor="start" x="271.5" y="-124.5" font-family="Helvetica,sans-Serif" font-size="10.00">+ properties()</text>
</a>
</g>
</g>
<!-- Node2&#45;&gt;Node1 -->
<g id="edge1" class="edge">
<title>Node2&#45;&gt;Node1</title>
<path fill="none" stroke="midnightblue" d="M315.5,-107.2C315.5,-98.02 315.5,-88.53 315.5,-79.71"/>
<polygon fill="none" stroke="midnightblue" points="312,-107.39 315.5,-117.39 319,-107.39 312,-107.39"/>
</g>
<!-- Node3 -->
<g id="node3" class="node">
<title>Node3</title>
<g id="a_node3"><a xlink:href="classcie_1_1gl_1_1Shader_1_1Uniform.html" target="_top" xlink:title="Immutable uniform descriptor (for any shader).">
<polygon fill="white" stroke="black" points="111,-277.5 111,-356.5 242,-356.5 242,-277.5 111,-277.5"/>
<text text-anchor="middle" x="176.5" y="-344.5" font-family="Helvetica,sans-Serif" font-size="10.00">cie::gl::Shader::Uniform</text>
<polyline fill="none" stroke="black" points="111,-337.5 242,-337.5 "/>
<text text-anchor="middle" x="176.5" y="-325.5" font-family="Helvetica,sans-Serif" font-size="10.00"> </text>
<polyline fill="none" stroke="black" points="111,-318.5 242,-318.5 "/>
<text text-anchor="start" x="119" y="-306.5" font-family="Helvetica,sans-Serif" font-size="10.00">+ Uniform()</text>
<text text-anchor="start" x="119" y="-295.5" font-family="Helvetica,sans-Serif" font-size="10.00">+ size()</text>
<text text-anchor="start" x="119" y="-284.5" font-family="Helvetica,sans-Serif" font-size="10.00">+ type()</text>
</a>
</g>
</g>
<!-- Node3&#45;&gt;Node2 -->
<g id="edge2" class="edge">
<title>Node3&#45;&gt;Node2</title>
<path fill="none" stroke="midnightblue" d="M217.27,-269.66C237.72,-246.41 262.2,-218.58 281.61,-196.53"/>
<polygon fill="none" stroke="midnightblue" points="214.48,-267.53 210.5,-277.35 219.74,-272.15 214.48,-267.53"/>
</g>
<!-- Node4 -->
<g id="node4" class="node">
<title>Node4</title>
<g id="a_node4"><a target="_parent" xlink:href="../../../cieutils/docs/html/classcie_1_1utils_1_1NamedObject.html" xlink:title=" ">
<polygon fill="white" stroke="black" points="0,-448.5 0,-604.5 131,-604.5 131,-448.5 0,-448.5"/>
<text text-anchor="middle" x="65.5" y="-592.5" font-family="Helvetica,sans-Serif" font-size="10.00">cie::utils::NamedObject</text>
<polyline fill="none" stroke="black" points="0,-585.5 131,-585.5 "/>
<text text-anchor="middle" x="65.5" y="-573.5" font-family="Helvetica,sans-Serif" font-size="10.00"> </text>
<polyline fill="none" stroke="black" points="0,-566.5 131,-566.5 "/>
<text text-anchor="start" x="8" y="-554.5" font-family="Helvetica,sans-Serif" font-size="10.00">+ NamedObject()</text>
<text text-anchor="start" x="8" y="-543.5" font-family="Helvetica,sans-Serif" font-size="10.00">+ NamedObject()</text>
<text text-anchor="start" x="8" y="-532.5" font-family="Helvetica,sans-Serif" font-size="10.00">+ NamedObject()</text>
<text text-anchor="start" x="8" y="-521.5" font-family="Helvetica,sans-Serif" font-size="10.00">+ NamedObject()</text>
<text text-anchor="start" x="8" y="-510.5" font-family="Helvetica,sans-Serif" font-size="10.00">+ operator=()</text>
<text text-anchor="start" x="8" y="-499.5" font-family="Helvetica,sans-Serif" font-size="10.00">+ operator=()</text>
<text text-anchor="start" x="8" y="-488.5" font-family="Helvetica,sans-Serif" font-size="10.00">+ name()</text>
<text text-anchor="start" x="8" y="-477.5" font-family="Helvetica,sans-Serif" font-size="10.00">+ setName()</text>
<text text-anchor="start" x="8" y="-466.5" font-family="Helvetica,sans-Serif" font-size="10.00">+ setName()</text>
<text text-anchor="start" x="8" y="-455.5" font-family="Helvetica,sans-Serif" font-size="10.00">+ ~NamedObject()</text>
</a>
</g>
</g>
<!-- Node4&#45;&gt;Node3 -->
<g id="edge3" class="edge">
<title>Node4&#45;&gt;Node3</title>
<path fill="none" stroke="midnightblue" d="M111.57,-439.37C126.97,-410.59 143.36,-379.94 155.83,-356.65"/>
<polygon fill="none" stroke="midnightblue" points="108.46,-437.77 106.83,-448.23 114.64,-441.07 108.46,-437.77"/>
</g>
<!-- Node5 -->
<g id="node5" class="node">
<title>Node5</title>
<g id="a_node5"><a xlink:title=" ">
<polygon fill="white" stroke="#bfbfbf" points="149,-498 149,-555 194,-555 194,-498 149,-498"/>
<text text-anchor="middle" x="171.5" y="-543" font-family="Helvetica,sans-Serif" font-size="10.00">size_t</text>
<polyline fill="none" stroke="#bfbfbf" points="149,-536 194,-536 "/>
<text text-anchor="middle" x="171.5" y="-524" font-family="Helvetica,sans-Serif" font-size="10.00"> </text>
<polyline fill="none" stroke="#bfbfbf" points="149,-517 194,-517 "/>
<text text-anchor="middle" x="171.5" y="-505" font-family="Helvetica,sans-Serif" font-size="10.00"> </text>
</a>
</g>
</g>
<!-- Node5&#45;&gt;Node3 -->
<g id="edge4" class="edge">
<title>Node5&#45;&gt;Node3</title>
<path fill="none" stroke="#404040" d="M172.16,-497.95C172.96,-465.08 174.3,-409.47 175.28,-368.75"/>
<polygon fill="none" stroke="#404040" points="175.28,-368.63 171.43,-362.53 175.57,-356.63 179.42,-362.73 175.28,-368.63"/>
<text text-anchor="middle" x="193" y="-416.5" font-family="Helvetica,sans-Serif" font-size="10.00"> #_size</text>
</g>
<!-- Node6 -->
<g id="node6" class="node">
<title>Node6</title>
<g id="a_node6"><a xlink:title=" ">
<polygon fill="white" stroke="#bfbfbf" points="212.5,-498 212.5,-555 256.5,-555 256.5,-498 212.5,-498"/>
<text text-anchor="middle" x="234.5" y="-543" font-family="Helvetica,sans-Serif" font-size="10.00">string</text>
<polyline fill="none" stroke="#bfbfbf" points="212.5,-536 256.5,-536 "/>
<text text-anchor="middle" x="234.5" y="-524" font-family="Helvetica,sans-Serif" font-size="10.00"> </text>
<polyline fill="none" stroke="#bfbfbf" points="212.5,-517 256.5,-517 "/>
<text text-anchor="middle" x="234.5" y="-505" font-family="Helvetica,sans-Serif" font-size="10.00"> </text>
</a>
</g>
</g>
<!-- Node6&#45;&gt;Node3 -->
<g id="edge5" class="edge">
<title>Node6&#45;&gt;Node3</title>
<path fill="none" stroke="#404040" d="M230.85,-497.6C227.33,-473.57 221.24,-438.09 212.5,-408 208.69,-394.89 203.68,-381.04 198.61,-368.25"/>
<polygon fill="none" stroke="#404040" points="198.49,-367.96 192.52,-363.91 193.97,-356.84 199.93,-360.89 198.49,-367.96"/>
<text text-anchor="middle" x="238" y="-416.5" font-family="Helvetica,sans-Serif" font-size="10.00"> #_type</text>
</g>
<!-- Node7 -->
<g id="node7" class="node">
<title>Node7</title>
<g id="a_node7"><a target="_parent" xlink:href="../../../cieutils/docs/html/classcie_1_1utils_1_1IDObject.html" xlink:title=" ">
<polygon fill="white" stroke="black" points="262.5,-244.5 262.5,-389.5 368.5,-389.5 368.5,-244.5 262.5,-244.5"/>
<text text-anchor="start" x="270.5" y="-377.5" font-family="Helvetica,sans-Serif" font-size="10.00">cie::utils::IDObject</text>
<text text-anchor="middle" x="315.5" y="-366.5" font-family="Helvetica,sans-Serif" font-size="10.00">&lt; GLint &gt;</text>
<polyline fill="none" stroke="black" points="262.5,-359.5 368.5,-359.5 "/>
<text text-anchor="start" x="270.5" y="-347.5" font-family="Helvetica,sans-Serif" font-size="10.00"># _id</text>
<polyline fill="none" stroke="black" points="262.5,-340.5 368.5,-340.5 "/>
<text text-anchor="start" x="270.5" y="-328.5" font-family="Helvetica,sans-Serif" font-size="10.00">+ IDObject()</text>
<text text-anchor="start" x="270.5" y="-317.5" font-family="Helvetica,sans-Serif" font-size="10.00">+ IDObject()</text>
<text text-anchor="start" x="270.5" y="-306.5" font-family="Helvetica,sans-Serif" font-size="10.00">+ IDObject()</text>
<text text-anchor="start" x="270.5" y="-295.5" font-family="Helvetica,sans-Serif" font-size="10.00">+ IDObject()</text>
<text text-anchor="start" x="270.5" y="-284.5" font-family="Helvetica,sans-Serif" font-size="10.00">+ operator=()</text>
<text text-anchor="start" x="270.5" y="-273.5" font-family="Helvetica,sans-Serif" font-size="10.00">+ operator=()</text>
<text text-anchor="start" x="270.5" y="-262.5" font-family="Helvetica,sans-Serif" font-size="10.00">+ setID()</text>
<text text-anchor="start" x="270.5" y="-251.5" font-family="Helvetica,sans-Serif" font-size="10.00">+ getID()</text>
</a>
</g>
</g>
<!-- Node7&#45;&gt;Node2 -->
<g id="edge6" class="edge">
<title>Node7&#45;&gt;Node2</title>
<path fill="none" stroke="midnightblue" d="M315.5,-234.32C315.5,-221.13 315.5,-208.04 315.5,-196.52"/>
<polygon fill="none" stroke="midnightblue" points="312,-234.4 315.5,-244.4 319,-234.4 312,-234.4"/>
</g>
<!-- Node8 -->
<g id="node8" class="node">
<title>Node8</title>
<g id="a_node8"><a target="_parent" xlink:href="../../../cieutils/docs/html/classcie_1_1utils_1_1IDObject.html" xlink:title=" ">
<polygon fill="white" stroke="black" points="274.5,-454 274.5,-599 380.5,-599 380.5,-454 274.5,-454"/>
<text text-anchor="start" x="282.5" y="-587" font-family="Helvetica,sans-Serif" font-size="10.00">cie::utils::IDObject</text>
<text text-anchor="middle" x="327.5" y="-576" font-family="Helvetica,sans-Serif" font-size="10.00">&lt; class &gt;</text>
<polyline fill="none" stroke="black" points="274.5,-569 380.5,-569 "/>
<text text-anchor="middle" x="327.5" y="-557" font-family="Helvetica,sans-Serif" font-size="10.00"> </text>
<polyline fill="none" stroke="black" points="274.5,-550 380.5,-550 "/>
<text text-anchor="start" x="282.5" y="-538" font-family="Helvetica,sans-Serif" font-size="10.00">+ IDObject()</text>
<text text-anchor="start" x="282.5" y="-527" font-family="Helvetica,sans-Serif" font-size="10.00">+ IDObject()</text>
<text text-anchor="start" x="282.5" y="-516" font-family="Helvetica,sans-Serif" font-size="10.00">+ IDObject()</text>
<text text-anchor="start" x="282.5" y="-505" font-family="Helvetica,sans-Serif" font-size="10.00">+ IDObject()</text>
<text text-anchor="start" x="282.5" y="-494" font-family="Helvetica,sans-Serif" font-size="10.00">+ operator=()</text>
<text text-anchor="start" x="282.5" y="-483" font-family="Helvetica,sans-Serif" font-size="10.00">+ operator=()</text>
<text text-anchor="start" x="282.5" y="-472" font-family="Helvetica,sans-Serif" font-size="10.00">+ setID()</text>
<text text-anchor="start" x="282.5" y="-461" font-family="Helvetica,sans-Serif" font-size="10.00">+ getID()</text>
</a>
</g>
</g>
<!-- Node8&#45;&gt;Node7 -->
<g id="edge7" class="edge">
<title>Node8&#45;&gt;Node7</title>
<path fill="none" stroke="orange" d="M322.76,-443.46C321.73,-425.69 320.65,-407.04 319.65,-389.7"/>
<polygon fill="orange" stroke="orange" points="319.28,-444.02 323.35,-453.8 326.27,-443.61 319.28,-444.02"/>
<text text-anchor="middle" x="348.5" y="-416.5" font-family="Helvetica,sans-Serif" font-size="10.00"> &lt; GLint &gt;</text>
</g>
<!-- Node9 -->
<g id="node9" class="node">
<title>Node9</title>
<g id="a_node9"><a xlink:title=" ">
<polygon fill="white" stroke="#bfbfbf" points="311,-652.5 311,-709.5 344,-709.5 344,-652.5 311,-652.5"/>
<text text-anchor="middle" x="327.5" y="-697.5" font-family="Helvetica,sans-Serif" font-size="10.00">TID</text>
<polyline fill="none" stroke="#bfbfbf" points="311,-690.5 344,-690.5 "/>
<text text-anchor="middle" x="327.5" y="-678.5" font-family="Helvetica,sans-Serif" font-size="10.00"> </text>
<polyline fill="none" stroke="#bfbfbf" points="311,-671.5 344,-671.5 "/>
<text text-anchor="middle" x="327.5" y="-659.5" font-family="Helvetica,sans-Serif" font-size="10.00"> </text>
</a>
</g>
</g>
<!-- Node9&#45;&gt;Node8 -->
<g id="edge8" class="edge">
<title>Node9&#45;&gt;Node8</title>
<path fill="none" stroke="#404040" d="M327.5,-652.38C327.5,-640.53 327.5,-625.99 327.5,-611.07"/>
<polygon fill="none" stroke="#404040" points="327.5,-611.07 323.5,-605.07 327.5,-599.07 331.5,-605.07 327.5,-611.07"/>
<text text-anchor="middle" x="340.5" y="-626" font-family="Helvetica,sans-Serif" font-size="10.00"> #_id</text>
</g>
<!-- Node10 -->
<g id="node10" class="node">
<title>Node10</title>
<g id="a_node10"><a xlink:title=" ">
<polygon fill="white" stroke="#bfbfbf" points="386.5,-283 386.5,-351 490.5,-351 490.5,-283 386.5,-283"/>
<text text-anchor="start" x="394.5" y="-339" font-family="Helvetica,sans-Serif" font-size="10.00">cie::gl::GLUniform</text>
<text text-anchor="middle" x="438.5" y="-328" font-family="Helvetica,sans-Serif" font-size="10.00">::Properties</text>
<polyline fill="none" stroke="#bfbfbf" points="386.5,-321 490.5,-321 "/>
<text text-anchor="middle" x="438.5" y="-309" font-family="Helvetica,sans-Serif" font-size="10.00"> </text>
<polyline fill="none" stroke="#bfbfbf" points="386.5,-302 490.5,-302 "/>
<text text-anchor="middle" x="438.5" y="-290" font-family="Helvetica,sans-Serif" font-size="10.00"> </text>
</a>
</g>
</g>
<!-- Node10&#45;&gt;Node2 -->
<g id="edge9" class="edge">
<title>Node10&#45;&gt;Node2</title>
<path fill="none" stroke="#404040" d="M412.72,-282.88C395.43,-260.67 372.38,-231.06 353.06,-206.25"/>
<polygon fill="none" stroke="#404040" points="352.96,-206.12 346.11,-203.84 345.59,-196.65 352.43,-198.92 352.96,-206.12"/>
<text text-anchor="middle" x="400" y="-218" font-family="Helvetica,sans-Serif" font-size="10.00"> #_properties</text>
</g>
<!-- Node11 -->
<g id="node11" class="node">
<title>Node11</title>
<g id="a_node11"><a xlink:title=" ">
<polygon fill="white" stroke="#bfbfbf" points="408,-498 408,-555 465,-555 465,-498 408,-498"/>
<text text-anchor="middle" x="436.5" y="-543" font-family="Helvetica,sans-Serif" font-size="10.00">GLenum</text>
<polyline fill="none" stroke="#bfbfbf" points="408,-536 465,-536 "/>
<text text-anchor="middle" x="436.5" y="-524" font-family="Helvetica,sans-Serif" font-size="10.00"> </text>
<polyline fill="none" stroke="#bfbfbf" points="408,-517 465,-517 "/>
<text text-anchor="middle" x="436.5" y="-505" font-family="Helvetica,sans-Serif" font-size="10.00"> </text>
</a>
</g>
</g>
<!-- Node11&#45;&gt;Node10 -->
<g id="edge10" class="edge">
<title>Node11&#45;&gt;Node10</title>
<path fill="none" stroke="#404040" d="M436.77,-497.95C437.1,-463.58 437.67,-404.35 438.06,-363.28"/>
<polygon fill="none" stroke="#404040" points="438.06,-363.16 434.12,-357.12 438.18,-351.16 442.12,-357.2 438.06,-363.16"/>
<text text-anchor="middle" x="455.5" y="-416.5" font-family="Helvetica,sans-Serif" font-size="10.00"> +type</text>
</g>
<!-- Node12 -->
<g id="node12" class="node">
<title>Node12</title>
<g id="a_node12"><a xlink:title=" ">
<polygon fill="white" stroke="#bfbfbf" points="483.5,-498 483.5,-555 535.5,-555 535.5,-498 483.5,-498"/>
<text text-anchor="middle" x="509.5" y="-543" font-family="Helvetica,sans-Serif" font-size="10.00">GLsizei</text>
<polyline fill="none" stroke="#bfbfbf" points="483.5,-536 535.5,-536 "/>
<text text-anchor="middle" x="509.5" y="-524" font-family="Helvetica,sans-Serif" font-size="10.00"> </text>
<polyline fill="none" stroke="#bfbfbf" points="483.5,-517 535.5,-517 "/>
<text text-anchor="middle" x="509.5" y="-505" font-family="Helvetica,sans-Serif" font-size="10.00"> </text>
</a>
</g>
</g>
<!-- Node12&#45;&gt;Node10 -->
<g id="edge11" class="edge">
<title>Node12&#45;&gt;Node10</title>
<path fill="none" stroke="#404040" d="M502.73,-497.66C496.65,-473.65 487.07,-438.2 476.5,-408 471.24,-392.97 464.73,-376.86 458.59,-362.48"/>
<polygon fill="none" stroke="#404040" points="458.54,-362.38 452.49,-358.47 453.77,-351.37 459.83,-355.29 458.54,-362.38"/>
<text text-anchor="middle" x="504" y="-422" font-family="Helvetica,sans-Serif" font-size="10.00"> +length</text>
<text text-anchor="middle" x="504" y="-411" font-family="Helvetica,sans-Serif" font-size="10.00">+size</text>
</g>
</g>
</svg>
