<?xml version="1.0" encoding="UTF-8" standalone="no"?>
<!DOCTYPE svg PUBLIC "-//W3C//DTD SVG 1.1//EN"
 "http://www.w3.org/Graphics/SVG/1.1/DTD/svg11.dtd">
<!-- Generated by graphviz version 2.43.0 (0)
 -->
<!-- Title: cie::gl::DebugCameraControls Pages: 1 -->
<svg width="642pt" height="822pt"
 viewBox="0.00 0.00 641.50 822.00" xmlns="http://www.w3.org/2000/svg" xmlns:xlink="http://www.w3.org/1999/xlink">
<g id="graph0" class="graph" transform="scale(1 1) rotate(0) translate(4 818)">
<title>cie::gl::DebugCameraControls</title>
<polygon fill="white" stroke="transparent" points="-4,4 -4,-818 637.5,-818 637.5,4 -4,4"/>
<!-- Node1 -->
<g id="node1" class="node">
<title>Node1</title>
<g id="a_node1"><a xlink:title=" ">
<polygon fill="#bfbfbf" stroke="black" points="199,-0.5 199,-156.5 361,-156.5 361,-0.5 199,-0.5"/>
<text text-anchor="middle" x="280" y="-144.5" font-family="Helvetica,sans-Serif" font-size="10.00">cie::gl::DebugCameraControls</text>
<polyline fill="none" stroke="black" points="199,-137.5 361,-137.5 "/>
<text text-anchor="middle" x="280" y="-125.5" font-family="Helvetica,sans-Serif" font-size="10.00"> </text>
<polyline fill="none" stroke="black" points="199,-118.5 361,-118.5 "/>
<text text-anchor="start" x="207" y="-106.5" font-family="Helvetica,sans-Serif" font-size="10.00">+ DebugCameraControls()</text>
<text text-anchor="start" x="207" y="-95.5" font-family="Helvetica,sans-Serif" font-size="10.00">+ onMouseButtonPress()</text>
<text text-anchor="start" x="207" y="-84.5" font-family="Helvetica,sans-Serif" font-size="10.00">+ onMouseButtonRelease()</text>
<text text-anchor="start" x="207" y="-73.5" font-family="Helvetica,sans-Serif" font-size="10.00">+ onCursorMovement()</text>
<text text-anchor="start" x="207" y="-62.5" font-family="Helvetica,sans-Serif" font-size="10.00">+ onCursorEnter()</text>
<text text-anchor="start" x="207" y="-51.5" font-family="Helvetica,sans-Serif" font-size="10.00">+ onCursorLeave()</text>
<text text-anchor="start" x="207" y="-40.5" font-family="Helvetica,sans-Serif" font-size="10.00">+ onHorizontalScroll()</text>
<text text-anchor="start" x="207" y="-29.5" font-family="Helvetica,sans-Serif" font-size="10.00">+ onVerticalScroll()</text>
<text text-anchor="start" x="207" y="-18.5" font-family="Helvetica,sans-Serif" font-size="10.00">+ onKeyboardPress()</text>
<text text-anchor="start" x="207" y="-7.5" font-family="Helvetica,sans-Serif" font-size="10.00">+ onKeyboardRelease()</text>
</a>
</g>
</g>
<!-- Node2 -->
<g id="node2" class="node">
<title>Node2</title>
<g id="a_node2"><a xlink:href="classcie_1_1gl_1_1AbsCameraControls.html" target="_top" xlink:title=" ">
<polygon fill="white" stroke="black" points="204.5,-194.5 204.5,-460.5 355.5,-460.5 355.5,-194.5 204.5,-194.5"/>
<text text-anchor="middle" x="280" y="-448.5" font-family="Helvetica,sans-Serif" font-size="10.00">cie::gl::AbsCameraControls</text>
<polyline fill="none" stroke="black" points="204.5,-441.5 355.5,-441.5 "/>
<text text-anchor="middle" x="280" y="-429.5" font-family="Helvetica,sans-Serif" font-size="10.00"> </text>
<polyline fill="none" stroke="black" points="204.5,-422.5 355.5,-422.5 "/>
<text text-anchor="start" x="212.5" y="-410.5" font-family="Helvetica,sans-Serif" font-size="10.00">+ AbsCameraControls()</text>
<text text-anchor="start" x="212.5" y="-399.5" font-family="Helvetica,sans-Serif" font-size="10.00">+ mouseButtonCallback()</text>
<text text-anchor="start" x="212.5" y="-388.5" font-family="Helvetica,sans-Serif" font-size="10.00">+ cursorPositionCallback()</text>
<text text-anchor="start" x="212.5" y="-377.5" font-family="Helvetica,sans-Serif" font-size="10.00">+ cursorEnterCallback()</text>
<text text-anchor="start" x="212.5" y="-366.5" font-family="Helvetica,sans-Serif" font-size="10.00">+ scrollCallback()</text>
<text text-anchor="start" x="212.5" y="-355.5" font-family="Helvetica,sans-Serif" font-size="10.00">+ keyboardCallback()</text>
<text text-anchor="start" x="212.5" y="-344.5" font-family="Helvetica,sans-Serif" font-size="10.00">+ bind()</text>
<text text-anchor="start" x="212.5" y="-333.5" font-family="Helvetica,sans-Serif" font-size="10.00"># onMouseButtonPress()</text>
<text text-anchor="start" x="212.5" y="-322.5" font-family="Helvetica,sans-Serif" font-size="10.00"># onMouseButtonHold()</text>
<text text-anchor="start" x="212.5" y="-311.5" font-family="Helvetica,sans-Serif" font-size="10.00"># onMouseButtonRelease()</text>
<text text-anchor="start" x="212.5" y="-300.5" font-family="Helvetica,sans-Serif" font-size="10.00"># onCursorMovement()</text>
<text text-anchor="start" x="212.5" y="-289.5" font-family="Helvetica,sans-Serif" font-size="10.00"># onCursorEnter()</text>
<text text-anchor="start" x="212.5" y="-278.5" font-family="Helvetica,sans-Serif" font-size="10.00"># onCursorLeave()</text>
<text text-anchor="start" x="212.5" y="-267.5" font-family="Helvetica,sans-Serif" font-size="10.00"># onHorizontalScroll()</text>
<text text-anchor="start" x="212.5" y="-256.5" font-family="Helvetica,sans-Serif" font-size="10.00"># onVerticalScroll()</text>
<text text-anchor="start" x="212.5" y="-245.5" font-family="Helvetica,sans-Serif" font-size="10.00"># onKeyboardPress()</text>
<text text-anchor="start" x="212.5" y="-234.5" font-family="Helvetica,sans-Serif" font-size="10.00"># onKeyboardHold()</text>
<text text-anchor="start" x="212.5" y="-223.5" font-family="Helvetica,sans-Serif" font-size="10.00"># onKeyboardRelease()</text>
<text text-anchor="start" x="212.5" y="-212.5" font-family="Helvetica,sans-Serif" font-size="10.00"># onSubjectChange()</text>
<text text-anchor="start" x="212.5" y="-201.5" font-family="Helvetica,sans-Serif" font-size="10.00"># getWindow()</text>
</a>
</g>
</g>
<!-- Node2&#45;&gt;Node1 -->
<g id="edge1" class="edge">
<title>Node2&#45;&gt;Node1</title>
<path fill="none" stroke="midnightblue" d="M280,-184.12C280,-174.77 280,-165.56 280,-156.72"/>
<polygon fill="none" stroke="midnightblue" points="276.5,-184.32 280,-194.32 283.5,-184.32 276.5,-184.32"/>
</g>
<!-- Node3 -->
<g id="node3" class="node">
<title>Node3</title>
<g id="a_node3"><a target="_parent" xlink:href="../../../cieutils/docs/html/classcie_1_1utils_1_1observer_1_1Observer.html" xlink:title=" ">
<polygon fill="white" stroke="black" points="0,-519.5 0,-697.5 120,-697.5 120,-519.5 0,-519.5"/>
<text text-anchor="start" x="8" y="-685.5" font-family="Helvetica,sans-Serif" font-size="10.00">cie::utils::observer</text>
<text text-anchor="middle" x="60" y="-674.5" font-family="Helvetica,sans-Serif" font-size="10.00">::Observer</text>
<polyline fill="none" stroke="black" points="0,-667.5 120,-667.5 "/>
<text text-anchor="middle" x="60" y="-655.5" font-family="Helvetica,sans-Serif" font-size="10.00"> </text>
<polyline fill="none" stroke="black" points="0,-648.5 120,-648.5 "/>
<text text-anchor="start" x="8" y="-636.5" font-family="Helvetica,sans-Serif" font-size="10.00">+ Observer()</text>
<text text-anchor="start" x="8" y="-625.5" font-family="Helvetica,sans-Serif" font-size="10.00">+ Observer()</text>
<text text-anchor="start" x="8" y="-614.5" font-family="Helvetica,sans-Serif" font-size="10.00">+ Observer()</text>
<text text-anchor="start" x="8" y="-603.5" font-family="Helvetica,sans-Serif" font-size="10.00">+ operator=()</text>
<text text-anchor="start" x="8" y="-592.5" font-family="Helvetica,sans-Serif" font-size="10.00">+ ~Observer()</text>
<text text-anchor="start" x="8" y="-581.5" font-family="Helvetica,sans-Serif" font-size="10.00">+ onSubjectChange()</text>
<text text-anchor="start" x="8" y="-570.5" font-family="Helvetica,sans-Serif" font-size="10.00">+ detach()</text>
<text text-anchor="start" x="8" y="-559.5" font-family="Helvetica,sans-Serif" font-size="10.00">+ as()</text>
<text text-anchor="start" x="8" y="-548.5" font-family="Helvetica,sans-Serif" font-size="10.00">+ setSubject()</text>
<text text-anchor="start" x="8" y="-537.5" font-family="Helvetica,sans-Serif" font-size="10.00">+ subject()</text>
<text text-anchor="start" x="8" y="-526.5" font-family="Helvetica,sans-Serif" font-size="10.00">+ subject()</text>
</a>
</g>
</g>
<!-- Node3&#45;&gt;Node2 -->
<g id="edge2" class="edge">
<title>Node3&#45;&gt;Node2</title>
<path fill="none" stroke="midnightblue" d="M126.55,-522.12C127.37,-521.07 128.19,-520.03 129,-519 153.39,-487.98 180.1,-454.21 204.19,-423.83"/>
<polygon fill="none" stroke="midnightblue" points="123.59,-520.22 120.17,-530.24 129.1,-524.54 123.59,-520.22"/>
</g>
<!-- Node4 -->
<g id="node4" class="node">
<title>Node4</title>
<g id="a_node4"><a xlink:title=" ">
<polygon fill="white" stroke="#bfbfbf" points="0.5,-745.5 0.5,-813.5 119.5,-813.5 119.5,-745.5 0.5,-745.5"/>
<text text-anchor="start" x="8.5" y="-801.5" font-family="Helvetica,sans-Serif" font-size="10.00">weak_ptr&lt; cie::utils</text>
<text text-anchor="middle" x="60" y="-790.5" font-family="Helvetica,sans-Serif" font-size="10.00">::observer::Subject &gt;</text>
<polyline fill="none" stroke="#bfbfbf" points="0.5,-783.5 119.5,-783.5 "/>
<text text-anchor="middle" x="60" y="-771.5" font-family="Helvetica,sans-Serif" font-size="10.00"> </text>
<polyline fill="none" stroke="#bfbfbf" points="0.5,-764.5 119.5,-764.5 "/>
<text text-anchor="middle" x="60" y="-752.5" font-family="Helvetica,sans-Serif" font-size="10.00"> </text>
</a>
</g>
</g>
<!-- Node4&#45;&gt;Node3 -->
<g id="edge3" class="edge">
<title>Node4&#45;&gt;Node3</title>
<path fill="none" stroke="#404040" d="M60,-745.11C60,-734.69 60,-722.6 60,-710.02"/>
<polygon fill="none" stroke="#404040" points="60,-709.85 56,-703.85 60,-697.85 64,-703.85 60,-709.85"/>
<text text-anchor="middle" x="86" y="-719" font-family="Helvetica,sans-Serif" font-size="10.00"> #_subject</text>
</g>
<!-- Node5 -->
<g id="node5" class="node">
<title>Node5</title>
<g id="a_node5"><a xlink:title=" ">
<polygon fill="white" stroke="#bfbfbf" points="138,-580 138,-637 188,-637 188,-580 138,-580"/>
<text text-anchor="middle" x="163" y="-625" font-family="Helvetica,sans-Serif" font-size="10.00">double</text>
<polyline fill="none" stroke="#bfbfbf" points="138,-618 188,-618 "/>
<text text-anchor="middle" x="163" y="-606" font-family="Helvetica,sans-Serif" font-size="10.00"> </text>
<polyline fill="none" stroke="#bfbfbf" points="138,-599 188,-599 "/>
<text text-anchor="middle" x="163" y="-587" font-family="Helvetica,sans-Serif" font-size="10.00"> </text>
</a>
</g>
</g>
<!-- Node5&#45;&gt;Node2 -->
<g id="edge4" class="edge">
<title>Node5&#45;&gt;Node2</title>
<path fill="none" stroke="#404040" d="M172.1,-579.63C180.88,-553.4 194.87,-513.16 209,-479 209.97,-476.65 210.96,-474.29 211.96,-471.92"/>
<polygon fill="none" stroke="#404040" points="212.03,-471.76 210.71,-464.67 216.75,-460.73 218.07,-467.82 212.03,-471.76"/>
<text text-anchor="middle" x="220.5" y="-493" font-family="Helvetica,sans-Serif" font-size="10.00"> #_x</text>
<text text-anchor="middle" x="220.5" y="-482" font-family="Helvetica,sans-Serif" font-size="10.00">#_y</text>
</g>
<!-- Node6 -->
<g id="node6" class="node">
<title>Node6</title>
<g id="a_node6"><a xlink:title=" ">
<polygon fill="white" stroke="#bfbfbf" points="206,-580 206,-637 284,-637 284,-580 206,-580"/>
<text text-anchor="middle" x="245" y="-625" font-family="Helvetica,sans-Serif" font-size="10.00">WeakPointer</text>
<polyline fill="none" stroke="#bfbfbf" points="206,-618 284,-618 "/>
<text text-anchor="middle" x="245" y="-606" font-family="Helvetica,sans-Serif" font-size="10.00"> </text>
<polyline fill="none" stroke="#bfbfbf" points="206,-599 284,-599 "/>
<text text-anchor="middle" x="245" y="-587" font-family="Helvetica,sans-Serif" font-size="10.00"> </text>
</a>
</g>
</g>
<!-- Node6&#45;&gt;Node2 -->
<g id="edge5" class="edge">
<title>Node6&#45;&gt;Node2</title>
<path fill="none" stroke="#404040" d="M242.36,-579.95C240.44,-558.47 238.01,-527.87 237,-501 236.63,-491.23 235.64,-488.68 237,-479 237.3,-476.82 237.63,-474.64 237.98,-472.44"/>
<polygon fill="none" stroke="#404040" points="237.99,-472.42 235.08,-465.82 240.05,-460.6 242.96,-467.2 237.99,-472.42"/>
<text text-anchor="middle" x="270" y="-487.5" font-family="Helvetica,sans-Serif" font-size="10.00"> #_p_window</text>
</g>
<!-- Node7 -->
<g id="node7" class="node">
<title>Node7</title>
<g id="a_node7"><a xlink:title=" ">
<polygon fill="white" stroke="#bfbfbf" points="310.5,-580 310.5,-637 339.5,-637 339.5,-580 310.5,-580"/>
<text text-anchor="middle" x="325" y="-625" font-family="Helvetica,sans-Serif" font-size="10.00">int</text>
<polyline fill="none" stroke="#bfbfbf" points="310.5,-618 339.5,-618 "/>
<text text-anchor="middle" x="325" y="-606" font-family="Helvetica,sans-Serif" font-size="10.00"> </text>
<polyline fill="none" stroke="#bfbfbf" points="310.5,-599 339.5,-599 "/>
<text text-anchor="middle" x="325" y="-587" font-family="Helvetica,sans-Serif" font-size="10.00"> </text>
</a>
</g>
</g>
<!-- Node7&#45;&gt;Node2 -->
<g id="edge6" class="edge">
<title>Node7&#45;&gt;Node2</title>
<path fill="none" stroke="#404040" d="M320.56,-579.98C316.41,-554.22 309.86,-513.61 303.22,-472.48"/>
<polygon fill="none" stroke="#404040" points="303.22,-472.44 298.31,-467.15 301.31,-460.59 306.21,-465.88 303.22,-472.44"/>
<text text-anchor="middle" x="341" y="-487.5" font-family="Helvetica,sans-Serif" font-size="10.00"> #_escapeKey</text>
</g>
<!-- Node8 -->
<g id="node8" class="node">
<title>Node8</title>
<g id="a_node8"><a xlink:title=" ">
<polygon fill="white" stroke="#bfbfbf" points="368,-580 368,-637 468,-637 468,-580 368,-580"/>
<text text-anchor="middle" x="418" y="-625" font-family="Helvetica,sans-Serif" font-size="10.00">set&lt; KeyEnum &gt;</text>
<polyline fill="none" stroke="#bfbfbf" points="368,-618 468,-618 "/>
<text text-anchor="middle" x="418" y="-606" font-family="Helvetica,sans-Serif" font-size="10.00"> </text>
<polyline fill="none" stroke="#bfbfbf" points="368,-599 468,-599 "/>
<text text-anchor="middle" x="418" y="-587" font-family="Helvetica,sans-Serif" font-size="10.00"> </text>
</a>
</g>
</g>
<!-- Node8&#45;&gt;Node2 -->
<g id="edge7" class="edge">
<title>Node8&#45;&gt;Node2</title>
<path fill="none" stroke="#404040" d="M412.34,-579.81C406.32,-553.19 395.51,-512.2 380,-479 374.61,-467.47 368.42,-455.81 361.81,-444.35"/>
<polygon fill="none" stroke="#404040" points="361.74,-444.24 355.25,-441.1 355.64,-433.9 362.14,-437.03 361.74,-444.24"/>
<text text-anchor="middle" x="423" y="-487.5" font-family="Helvetica,sans-Serif" font-size="10.00"> #_activeKeys</text>
</g>
<!-- Node9 -->
<g id="node9" class="node">
<title>Node9</title>
<g id="a_node9"><a xlink:title=" ">
<polygon fill="white" stroke="#bfbfbf" points="486.5,-580 486.5,-637 633.5,-637 633.5,-580 486.5,-580"/>
<text text-anchor="middle" x="560" y="-625" font-family="Helvetica,sans-Serif" font-size="10.00">shared_ptr&lt; AbsCamera &gt;</text>
<polyline fill="none" stroke="#bfbfbf" points="486.5,-618 633.5,-618 "/>
<text text-anchor="middle" x="560" y="-606" font-family="Helvetica,sans-Serif" font-size="10.00"> </text>
<polyline fill="none" stroke="#bfbfbf" points="486.5,-599 633.5,-599 "/>
<text text-anchor="middle" x="560" y="-587" font-family="Helvetica,sans-Serif" font-size="10.00"> </text>
</a>
</g>
</g>
<!-- Node9&#45;&gt;Node2 -->
<g id="edge8" class="edge">
<title>Node9&#45;&gt;Node2</title>
<path fill="none" stroke="#404040" d="M541.77,-579.99C523.23,-552.94 492.92,-511.16 462,-479 432.51,-448.33 397.03,-417.8 365.25,-392.33"/>
<polygon fill="none" stroke="#404040" points="364.92,-392.06 357.73,-391.46 355.52,-384.59 362.71,-385.19 364.92,-392.06"/>
<text text-anchor="middle" x="511.5" y="-487.5" font-family="Helvetica,sans-Serif" font-size="10.00"> #_p_camera</text>
</g>
</g>
</svg>
