<?xml version="1.0" encoding="UTF-8" standalone="no"?>
<!DOCTYPE svg PUBLIC "-//W3C//DTD SVG 1.1//EN"
 "http://www.w3.org/Graphics/SVG/1.1/DTD/svg11.dtd">
<!-- Generated by graphviz version 2.43.0 (0)
 -->
<!-- Title: cie::gl::FloatVec3GLUniform&lt; BoundType &gt; Pages: 1 -->
<!--zoomable 592 -->
<svg id="main" version="1.1" xmlns="http://www.w3.org/2000/svg" xmlns:xlink="http://www.w3.org/1999/xlink" xml:space="preserve" onload="init(evt)">
<style type="text/css"><![CDATA[
.edge:hover path { stroke: red; }
.edge:hover polygon { stroke: red; fill: red; }
]]></style>
<script type="text/javascript"><![CDATA[
var edges = document.getElementsByTagName('g');
if (edges && edges.length) {
  for (var i=0;i<edges.length;i++) {
    if (edges[i].id.substr(0,4)=='edge') {
      edges[i].setAttribute('class','edge');
    }
  }
}
]]></script>
        <defs>
                <circle id="rim" cx="0" cy="0" r="7"/>
                <circle id="rim2" cx="0" cy="0" r="3.5"/>
                <g id="zoomPlus">
                        <use xlink:href="#rim" fill="#404040">
                                <set attributeName="fill" to="#808080" begin="zoomplus.mouseover" end="zoomplus.mouseout"/>
                        </use>
                        <path d="M-4,0h8M0,-4v8" fill="none" stroke="white" stroke-width="1.5" pointer-events="none"/>
                </g>
                <g id="zoomMin">
                        <use xlink:href="#rim" fill="#404040">
                                <set attributeName="fill" to="#808080" begin="zoomminus.mouseover" end="zoomminus.mouseout"/>
                        </use>
                        <path d="M-4,0h8" fill="none" stroke="white" stroke-width="1.5" pointer-events="none"/>
                </g>
                <g id="dirArrow">
                        <path fill="none" stroke="white" stroke-width="1.5" d="M0,-3.0v7 M-2.5,-0.5L0,-3.0L2.5,-0.5"/>
                </g>
               <g id="resetDef">
                       <use xlink:href="#rim2" fill="#404040">
                               <set attributeName="fill" to="#808080" begin="reset.mouseover" end="reset.mouseout"/>
                       </use>
               </g>
        </defs>

<script type="text/javascript">
var viewWidth = 264;
var viewHeight = 592;
var sectionId = 'dynsection-0';
</script>
<script xlink:href="svgpan.js"/>
<svg id="graph" class="graph">
<g id="viewport">
<title>cie::gl::FloatVec3GLUniform&lt; BoundType &gt;</title>
<polygon fill="white" stroke="transparent" points="-4,4 -4,-588 259.5,-588 259.5,4 -4,4"/>
<!-- Node1 -->
<g id="node1" class="node">
<title>Node1</title>
<g id="a_node1"><a xlink:title=" ">
<polygon fill="#bfbfbf" stroke="black" points="57.5,-0.5 57.5,-79.5 209.5,-79.5 209.5,-0.5 57.5,-0.5"/>
<text text-anchor="start" x="65.5" y="-67.5" font-family="Helvetica,sans-Serif" font-size="10.00">cie::gl::FloatVec3GLUniform</text>
<text text-anchor="middle" x="133.5" y="-56.5" font-family="Helvetica,sans-Serif" font-size="10.00">&lt; BoundType &gt;</text>
<polyline fill="none" stroke="black" points="57.5,-49.5 209.5,-49.5 "/>
<text text-anchor="middle" x="133.5" y="-37.5" font-family="Helvetica,sans-Serif" font-size="10.00"> </text>
<polyline fill="none" stroke="black" points="57.5,-30.5 209.5,-30.5 "/>
<text text-anchor="start" x="65.5" y="-18.5" font-family="Helvetica,sans-Serif" font-size="10.00">+ FloatVec3GLUniform()</text>
<text text-anchor="start" x="65.5" y="-7.5" font-family="Helvetica,sans-Serif" font-size="10.00">+ write()</text>
</a>
</g>
</g>
<!-- Node2 -->
<g id="node2" class="node">
<title>Node2</title>
<g id="a_node2"><a xlink:href="classcie_1_1gl_1_1GLUniform.html" target="_top" xlink:title="Interface for loading uniforms into GL.">
<polygon fill="white" stroke="black" points="81.5,-117.5 81.5,-196.5 185.5,-196.5 185.5,-117.5 81.5,-117.5"/>
<text text-anchor="middle" x="133.5" y="-184.5" font-family="Helvetica,sans-Serif" font-size="10.00">cie::gl::GLUniform</text>
<polyline fill="none" stroke="black" points="81.5,-177.5 185.5,-177.5 "/>
<text text-anchor="start" x="89.5" y="-165.5" font-family="Helvetica,sans-Serif" font-size="10.00"># _properties</text>
<polyline fill="none" stroke="black" points="81.5,-158.5 185.5,-158.5 "/>
<text text-anchor="start" x="89.5" y="-146.5" font-family="Helvetica,sans-Serif" font-size="10.00">+ GLUniform()</text>
<text text-anchor="start" x="89.5" y="-135.5" font-family="Helvetica,sans-Serif" font-size="10.00">+ write()</text>
<text text-anchor="start" x="89.5" y="-124.5" font-family="Helvetica,sans-Serif" font-size="10.00">+ properties()</text>
</a>
</g>
</g>
<!-- Node2&#45;&gt;Node1 -->
<g id="edge1" class="edge">
<title>Node2&#45;&gt;Node1</title>
<path fill="none" stroke="midnightblue" d="M133.5,-107.2C133.5,-98.02 133.5,-88.53 133.5,-79.71"/>
<polygon fill="none" stroke="midnightblue" points="130,-107.39 133.5,-117.39 137,-107.39 130,-107.39"/>
</g>
<!-- Node3 -->
<g id="node3" class="node">
<title>Node3</title>
<g id="a_node3"><a xlink:href="classcie_1_1gl_1_1Shader_1_1Uniform.html" target="_top" xlink:title="Immutable uniform descriptor (for any shader).">
<polygon fill="white" stroke="black" points="0,-262 0,-352 131,-352 131,-262 0,-262"/>
<text text-anchor="middle" x="65.5" y="-340" font-family="Helvetica,sans-Serif" font-size="10.00">cie::gl::Shader::Uniform</text>
<polyline fill="none" stroke="black" points="0,-333 131,-333 "/>
<text text-anchor="start" x="8" y="-321" font-family="Helvetica,sans-Serif" font-size="10.00"># _size</text>
<text text-anchor="start" x="8" y="-310" font-family="Helvetica,sans-Serif" font-size="10.00"># _type</text>
<polyline fill="none" stroke="black" points="0,-303 131,-303 "/>
<text text-anchor="start" x="8" y="-291" font-family="Helvetica,sans-Serif" font-size="10.00">+ Uniform()</text>
<text text-anchor="start" x="8" y="-280" font-family="Helvetica,sans-Serif" font-size="10.00">+ size()</text>
<text text-anchor="start" x="8" y="-269" font-family="Helvetica,sans-Serif" font-size="10.00">+ type()</text>
</a>
</g>
</g>
<!-- Node3&#45;&gt;Node2 -->
<g id="edge2" class="edge">
<title>Node3&#45;&gt;Node2</title>
<path fill="none" stroke="midnightblue" d="M89.96,-252.77C98.49,-234.19 107.9,-213.71 115.78,-196.56"/>
<polygon fill="none" stroke="midnightblue" points="86.71,-251.45 85.72,-262 93.07,-254.37 86.71,-251.45"/>
</g>
<!-- Node4 -->
<g id="node4" class="node">
<title>Node4</title>
<g id="a_node4"><a target="_parent" xlink:href="../../../cieutils/docs/html/classcie_1_1utils_1_1NamedObject.html" xlink:title=" ">
<polygon fill="white" stroke="black" points="0,-427.5 0,-583.5 131,-583.5 131,-427.5 0,-427.5"/>
<text text-anchor="middle" x="65.5" y="-571.5" font-family="Helvetica,sans-Serif" font-size="10.00">cie::utils::NamedObject</text>
<polyline fill="none" stroke="black" points="0,-564.5 131,-564.5 "/>
<text text-anchor="middle" x="65.5" y="-552.5" font-family="Helvetica,sans-Serif" font-size="10.00"> </text>
<polyline fill="none" stroke="black" points="0,-545.5 131,-545.5 "/>
<text text-anchor="start" x="8" y="-533.5" font-family="Helvetica,sans-Serif" font-size="10.00">+ NamedObject()</text>
<text text-anchor="start" x="8" y="-522.5" font-family="Helvetica,sans-Serif" font-size="10.00">+ NamedObject()</text>
<text text-anchor="start" x="8" y="-511.5" font-family="Helvetica,sans-Serif" font-size="10.00">+ NamedObject()</text>
<text text-anchor="start" x="8" y="-500.5" font-family="Helvetica,sans-Serif" font-size="10.00">+ NamedObject()</text>
<text text-anchor="start" x="8" y="-489.5" font-family="Helvetica,sans-Serif" font-size="10.00">+ operator=()</text>
<text text-anchor="start" x="8" y="-478.5" font-family="Helvetica,sans-Serif" font-size="10.00">+ operator=()</text>
<text text-anchor="start" x="8" y="-467.5" font-family="Helvetica,sans-Serif" font-size="10.00">+ name()</text>
<text text-anchor="start" x="8" y="-456.5" font-family="Helvetica,sans-Serif" font-size="10.00">+ setName()</text>
<text text-anchor="start" x="8" y="-445.5" font-family="Helvetica,sans-Serif" font-size="10.00">+ setName()</text>
<text text-anchor="start" x="8" y="-434.5" font-family="Helvetica,sans-Serif" font-size="10.00">+ ~NamedObject()</text>
</a>
</g>
</g>
<!-- Node4&#45;&gt;Node3 -->
<g id="edge3" class="edge">
<title>Node4&#45;&gt;Node3</title>
<path fill="none" stroke="midnightblue" d="M65.5,-417.12C65.5,-394.58 65.5,-371.26 65.5,-352"/>
<polygon fill="none" stroke="midnightblue" points="62,-417.4 65.5,-427.4 69,-417.4 62,-417.4"/>
</g>
<!-- Node5 -->
<g id="node5" class="node">
<title>Node5</title>
<g id="a_node5"><a target="_parent" xlink:href="../../../cieutils/docs/html/classcie_1_1utils_1_1IDObject.html" xlink:title=" ">
<polygon fill="white" stroke="black" points="149.5,-234.5 149.5,-379.5 255.5,-379.5 255.5,-234.5 149.5,-234.5"/>
<text text-anchor="start" x="157.5" y="-367.5" font-family="Helvetica,sans-Serif" font-size="10.00">cie::utils::IDObject</text>
<text text-anchor="middle" x="202.5" y="-356.5" font-family="Helvetica,sans-Serif" font-size="10.00">&lt; GLint &gt;</text>
<polyline fill="none" stroke="black" points="149.5,-349.5 255.5,-349.5 "/>
<text text-anchor="start" x="157.5" y="-337.5" font-family="Helvetica,sans-Serif" font-size="10.00"># _id</text>
<polyline fill="none" stroke="black" points="149.5,-330.5 255.5,-330.5 "/>
<text text-anchor="start" x="157.5" y="-318.5" font-family="Helvetica,sans-Serif" font-size="10.00">+ IDObject()</text>
<text text-anchor="start" x="157.5" y="-307.5" font-family="Helvetica,sans-Serif" font-size="10.00">+ IDObject()</text>
<text text-anchor="start" x="157.5" y="-296.5" font-family="Helvetica,sans-Serif" font-size="10.00">+ IDObject()</text>
<text text-anchor="start" x="157.5" y="-285.5" font-family="Helvetica,sans-Serif" font-size="10.00">+ IDObject()</text>
<text text-anchor="start" x="157.5" y="-274.5" font-family="Helvetica,sans-Serif" font-size="10.00">+ operator=()</text>
<text text-anchor="start" x="157.5" y="-263.5" font-family="Helvetica,sans-Serif" font-size="10.00">+ operator=()</text>
<text text-anchor="start" x="157.5" y="-252.5" font-family="Helvetica,sans-Serif" font-size="10.00">+ setID()</text>
<text text-anchor="start" x="157.5" y="-241.5" font-family="Helvetica,sans-Serif" font-size="10.00">+ getID()</text>
</a>
</g>
</g>
<!-- Node5&#45;&gt;Node2 -->
<g id="edge4" class="edge">
<title>Node5&#45;&gt;Node2</title>
<path fill="none" stroke="midnightblue" d="M164.76,-225.06C160.15,-215.17 155.62,-205.45 151.5,-196.61"/>
<polygon fill="none" stroke="midnightblue" points="161.61,-226.58 169.01,-234.17 167.96,-223.63 161.61,-226.58"/>
</g>
<!-- Node6 -->
<g id="node6" class="node">
<title>Node6</title>
<g id="a_node6"><a target="_parent" xlink:href="../../../cieutils/docs/html/classcie_1_1utils_1_1IDObject.html" xlink:title=" ">
<polygon fill="white" stroke="black" points="149.5,-433 149.5,-578 255.5,-578 255.5,-433 149.5,-433"/>
<text text-anchor="start" x="157.5" y="-566" font-family="Helvetica,sans-Serif" font-size="10.00">cie::utils::IDObject</text>
<text text-anchor="middle" x="202.5" y="-555" font-family="Helvetica,sans-Serif" font-size="10.00">&lt; class &gt;</text>
<polyline fill="none" stroke="black" points="149.5,-548 255.5,-548 "/>
<text text-anchor="start" x="157.5" y="-536" font-family="Helvetica,sans-Serif" font-size="10.00"># _id</text>
<polyline fill="none" stroke="black" points="149.5,-529 255.5,-529 "/>
<text text-anchor="start" x="157.5" y="-517" font-family="Helvetica,sans-Serif" font-size="10.00">+ IDObject()</text>
<text text-anchor="start" x="157.5" y="-506" font-family="Helvetica,sans-Serif" font-size="10.00">+ IDObject()</text>
<text text-anchor="start" x="157.5" y="-495" font-family="Helvetica,sans-Serif" font-size="10.00">+ IDObject()</text>
<text text-anchor="start" x="157.5" y="-484" font-family="Helvetica,sans-Serif" font-size="10.00">+ IDObject()</text>
<text text-anchor="start" x="157.5" y="-473" font-family="Helvetica,sans-Serif" font-size="10.00">+ operator=()</text>
<text text-anchor="start" x="157.5" y="-462" font-family="Helvetica,sans-Serif" font-size="10.00">+ operator=()</text>
<text text-anchor="start" x="157.5" y="-451" font-family="Helvetica,sans-Serif" font-size="10.00">+ setID()</text>
<text text-anchor="start" x="157.5" y="-440" font-family="Helvetica,sans-Serif" font-size="10.00">+ getID()</text>
</a>
</g>
</g>
<!-- Node6&#45;&gt;Node5 -->
<g id="edge5" class="edge">
<title>Node6&#45;&gt;Node5</title>
<path fill="none" stroke="orange" d="M202.5,-422.46C202.5,-408.22 202.5,-393.51 202.5,-379.58"/>
<polygon fill="orange" stroke="orange" points="199,-422.72 202.5,-432.72 206,-422.72 199,-422.72"/>
<text text-anchor="middle" x="228.5" y="-401" font-family="Helvetica,sans-Serif" font-size="10.00"> &lt; GLint &gt;</text>
</g>
</g>
</svg>
        <g id="navigator" transform="translate(0 0)" fill="#404254">
                <rect fill="#f2f5e9" fill-opacity="0.5" stroke="#606060" stroke-width=".5" x="0" y="0" width="60" height="60"/>
                <use id="zoomplus" xlink:href="#zoomPlus" x="17" y="9" onmousedown="handleZoom(evt,'in')"/>
                <use id="zoomminus" xlink:href="#zoomMin" x="42" y="9" onmousedown="handleZoom(evt,'out')"/>
                <use id="reset" xlink:href="#resetDef" x="30" y="36" onmousedown="handleReset()"/>
                <g id="arrowUp" xlink:href="#dirArrow" transform="translate(30 24)" onmousedown="handlePan(0,-1)">
                  <use xlink:href="#rim" fill="#404040">
                        <set attributeName="fill" to="#808080" begin="arrowUp.mouseover" end="arrowUp.mouseout"/>
                  </use>
                  <path fill="none" stroke="white" stroke-width="1.5" d="M0,-3.0v7 M-2.5,-0.5L0,-3.0L2.5,-0.5"/>
                </g>
                <g id="arrowRight" xlink:href="#dirArrow" transform="rotate(90) translate(36 -43)" onmousedown="handlePan(1,0)">
                  <use xlink:href="#rim" fill="#404040">
                        <set attributeName="fill" to="#808080" begin="arrowRight.mouseover" end="arrowRight.mouseout"/>
                  </use>
                  <path fill="none" stroke="white" stroke-width="1.5" d="M0,-3.0v7 M-2.5,-0.5L0,-3.0L2.5,-0.5"/>
                </g>
                <g id="arrowDown" xlink:href="#dirArrow" transform="rotate(180) translate(-30 -48)" onmousedown="handlePan(0,1)">
                  <use xlink:href="#rim" fill="#404040">
                        <set attributeName="fill" to="#808080" begin="arrowDown.mouseover" end="arrowDown.mouseout"/>
                  </use>
                  <path fill="none" stroke="white" stroke-width="1.5" d="M0,-3.0v7 M-2.5,-0.5L0,-3.0L2.5,-0.5"/>
                </g>
                <g id="arrowLeft" xlink:href="#dirArrow" transform="rotate(270) translate(-36 17)" onmousedown="handlePan(-1,0)">
                  <use xlink:href="#rim" fill="#404040">
                        <set attributeName="fill" to="#808080" begin="arrowLeft.mouseover" end="arrowLeft.mouseout"/>
                  </use>
                  <path fill="none" stroke="white" stroke-width="1.5" d="M0,-3.0v7 M-2.5,-0.5L0,-3.0L2.5,-0.5"/>
                </g>
        </g>
        <svg viewBox="0 0 15 15" width="100%" height="30px" preserveAspectRatio="xMaxYMin meet">
         <g id="arrow_out" transform="scale(0.3 0.3)">
          <a xlink:href="classcie_1_1gl_1_1FloatVec3GLUniform__inherit__graph_org.svg" target="_base">
           <rect id="button" ry="5" rx="5" y="6" x="6" height="38" width="38"
                fill="#f2f5e9" fill-opacity="0.5" stroke="#606060" stroke-width="1.0"/>
           <path id="arrow"
             d="M 11.500037,31.436501 C 11.940474,20.09759 22.043105,11.32322 32.158766,21.979434 L 37.068811,17.246167 C 37.068811,17.246167 37.088388,32 37.088388,32 L 22.160133,31.978069 C 22.160133,31.978069 26.997745,27.140456 26.997745,27.140456 C 18.528582,18.264221 13.291696,25.230495 11.500037,31.436501 z"
             style="fill:#404040;"/>
          </a>
         </g>
        </svg>
</svg>
