<?xml version="1.0" encoding="UTF-8" standalone="no"?>
<!DOCTYPE svg PUBLIC "-//W3C//DTD SVG 1.1//EN"
 "http://www.w3.org/Graphics/SVG/1.1/DTD/svg11.dtd">
<!-- Generated by graphviz version 2.43.0 (0)
 -->
<!-- Title: modules.glvisuals.markervisual.MarkerVisual Pages: 1 -->
<svg width="183pt" height="314pt"
 viewBox="0.00 0.00 183.00 314.00" xmlns="http://www.w3.org/2000/svg" xmlns:xlink="http://www.w3.org/1999/xlink">
<g id="graph0" class="graph" transform="scale(1 1) rotate(0) translate(4 310)">
<title>modules.glvisuals.markervisual.MarkerVisual</title>
<polygon fill="white" stroke="transparent" points="-4,4 -4,-310 179,-310 179,4 -4,4"/>
<!-- Node1 -->
<g id="node1" class="node">
<title>Node1</title>
<g id="a_node1"><a xlink:title=" ">
<polygon fill="#bfbfbf" stroke="black" points="0,-0.5 0,-211.5 175,-211.5 175,-0.5 0,-0.5"/>
<text text-anchor="start" x="8" y="-199.5" font-family="Helvetica,sans-Serif" font-size="10.00">modules.glvisuals.markervisual.</text>
<text text-anchor="middle" x="87.5" y="-188.5" font-family="Helvetica,sans-Serif" font-size="10.00">MarkerVisual</text>
<polyline fill="none" stroke="black" points="0,-181.5 175,-181.5 "/>
<text text-anchor="start" x="8" y="-169.5" font-family="Helvetica,sans-Serif" font-size="10.00">+ pos</text>
<text text-anchor="start" x="8" y="-158.5" font-family="Helvetica,sans-Serif" font-size="10.00">+ marker_colors</text>
<text text-anchor="start" x="8" y="-147.5" font-family="Helvetica,sans-Serif" font-size="10.00">+ selected_point</text>
<text text-anchor="start" x="8" y="-136.5" font-family="Helvetica,sans-Serif" font-size="10.00">+ selected_index</text>
<text text-anchor="start" x="8" y="-125.5" font-family="Helvetica,sans-Serif" font-size="10.00">+ gridsize</text>
<polyline fill="none" stroke="black" points="0,-118.5 175,-118.5 "/>
<text text-anchor="start" x="8" y="-106.5" font-family="Helvetica,sans-Serif" font-size="10.00">+ __init__()</text>
<text text-anchor="start" x="8" y="-95.5" font-family="Helvetica,sans-Serif" font-size="10.00">+ reset()</text>
<text text-anchor="start" x="8" y="-84.5" font-family="Helvetica,sans-Serif" font-size="10.00">+ updateMarkers()</text>
<text text-anchor="start" x="8" y="-73.5" font-family="Helvetica,sans-Serif" font-size="10.00">+ highlightMarkers()</text>
<text text-anchor="start" x="8" y="-62.5" font-family="Helvetica,sans-Serif" font-size="10.00">+ addPoint()</text>
<text text-anchor="start" x="8" y="-51.5" font-family="Helvetica,sans-Serif" font-size="10.00">+ setPoint()</text>
<text text-anchor="start" x="8" y="-40.5" font-family="Helvetica,sans-Serif" font-size="10.00">+ selectPoint()</text>
<text text-anchor="start" x="8" y="-29.5" font-family="Helvetica,sans-Serif" font-size="10.00">+ enable()</text>
<text text-anchor="start" x="8" y="-18.5" font-family="Helvetica,sans-Serif" font-size="10.00">+ disable()</text>
<text text-anchor="start" x="8" y="-7.5" font-family="Helvetica,sans-Serif" font-size="10.00">+ on_draw()</text>
</a>
</g>
</g>
<!-- Node2 -->
<g id="node2" class="node">
<title>Node2</title>
<g id="a_node2"><a target="_parent" xlink:href="../../../geo/docs/html/classscene_1_1visuals_1_1Markers.html" xlink:title=" ">
<polygon fill="white" stroke="black" points="22,-248.5 22,-305.5 153,-305.5 153,-248.5 22,-248.5"/>
<text text-anchor="middle" x="87.5" y="-293.5" font-family="Helvetica,sans-Serif" font-size="10.00">scene::visuals::Markers</text>
<polyline fill="none" stroke="black" points="22,-286.5 153,-286.5 "/>
<text text-anchor="middle" x="87.5" y="-274.5" font-family="Helvetica,sans-Serif" font-size="10.00"> </text>
<polyline fill="none" stroke="black" points="22,-267.5 153,-267.5 "/>
<text text-anchor="middle" x="87.5" y="-255.5" font-family="Helvetica,sans-Serif" font-size="10.00"> </text>
</a>
</g>
</g>
<!-- Node2&#45;&gt;Node1 -->
<g id="edge1" class="edge">
<title>Node2&#45;&gt;Node1</title>
<path fill="none" stroke="midnightblue" d="M87.5,-238.23C87.5,-230.04 87.5,-220.99 87.5,-211.58"/>
<polygon fill="none" stroke="midnightblue" points="84,-238.47 87.5,-248.47 91,-238.47 84,-238.47"/>
</g>
</g>
</svg>
