<?xml version="1.0" encoding="UTF-8" standalone="no"?>
<!DOCTYPE svg PUBLIC "-//W3C//DTD SVG 1.1//EN"
 "http://www.w3.org/Graphics/SVG/1.1/DTD/svg11.dtd">
<!-- Generated by graphviz version 2.43.0 (0)
 -->
<!-- Title: cie::gl::Shader::Texture Pages: 1 -->
<svg width="139pt" height="441pt"
 viewBox="0.00 0.00 139.00 441.00" xmlns="http://www.w3.org/2000/svg" xmlns:xlink="http://www.w3.org/1999/xlink">
<g id="graph0" class="graph" transform="scale(1 1) rotate(0) translate(4 437)">
<title>cie::gl::Shader::Texture</title>
<polygon fill="white" stroke="transparent" points="-4,4 -4,-437 135,-437 135,4 -4,4"/>
<!-- Node1 -->
<g id="node1" class="node">
<title>Node1</title>
<g id="a_node1"><a xlink:title="Immutable texture descriptor.">
<polygon fill="#bfbfbf" stroke="black" points="1.5,-127.5 1.5,-239.5 129.5,-239.5 129.5,-127.5 1.5,-127.5"/>
<text text-anchor="middle" x="65.5" y="-227.5" font-family="Helvetica,sans-Serif" font-size="10.00">cie::gl::Shader::Texture</text>
<polyline fill="none" stroke="black" points="1.5,-220.5 129.5,-220.5 "/>
<text text-anchor="start" x="9.5" y="-208.5" font-family="Helvetica,sans-Serif" font-size="10.00"># _dimension</text>
<text text-anchor="start" x="9.5" y="-197.5" font-family="Helvetica,sans-Serif" font-size="10.00"># _channels</text>
<text text-anchor="start" x="9.5" y="-186.5" font-family="Helvetica,sans-Serif" font-size="10.00"># _type</text>
<polyline fill="none" stroke="black" points="1.5,-179.5 129.5,-179.5 "/>
<text text-anchor="start" x="9.5" y="-167.5" font-family="Helvetica,sans-Serif" font-size="10.00">+ Texture()</text>
<text text-anchor="start" x="9.5" y="-156.5" font-family="Helvetica,sans-Serif" font-size="10.00">+ dimension()</text>
<text text-anchor="start" x="9.5" y="-145.5" font-family="Helvetica,sans-Serif" font-size="10.00">+ channels()</text>
<text text-anchor="start" x="9.5" y="-134.5" font-family="Helvetica,sans-Serif" font-size="10.00">+ type()</text>
</a>
</g>
</g>
<!-- Node3 -->
<g id="node3" class="node">
<title>Node3</title>
<g id="a_node3"><a xlink:href="classcie_1_1gl_1_1Texture.html" target="_top" xlink:title="Interface for loading textures onto the GPU.">
<polygon fill="white" stroke="black" points="21.5,-0.5 21.5,-90.5 109.5,-90.5 109.5,-0.5 21.5,-0.5"/>
<text text-anchor="middle" x="65.5" y="-78.5" font-family="Helvetica,sans-Serif" font-size="10.00">cie::gl::Texture</text>
<polyline fill="none" stroke="black" points="21.5,-71.5 109.5,-71.5 "/>
<text text-anchor="middle" x="65.5" y="-59.5" font-family="Helvetica,sans-Serif" font-size="10.00"> </text>
<polyline fill="none" stroke="black" points="21.5,-52.5 109.5,-52.5 "/>
<text text-anchor="start" x="29.5" y="-40.5" font-family="Helvetica,sans-Serif" font-size="10.00">+ Texture()</text>
<text text-anchor="start" x="29.5" y="-29.5" font-family="Helvetica,sans-Serif" font-size="10.00">+ write()</text>
<text text-anchor="start" x="29.5" y="-18.5" font-family="Helvetica,sans-Serif" font-size="10.00">+ write()</text>
<text text-anchor="start" x="29.5" y="-7.5" font-family="Helvetica,sans-Serif" font-size="10.00">+ properties()</text>
</a>
</g>
</g>
<!-- Node1&#45;&gt;Node3 -->
<g id="edge2" class="edge">
<title>Node1&#45;&gt;Node3</title>
<path fill="none" stroke="midnightblue" d="M65.5,-117.08C65.5,-108.07 65.5,-99.01 65.5,-90.51"/>
<polygon fill="none" stroke="midnightblue" points="62,-117.18 65.5,-127.18 69,-117.18 62,-117.18"/>
</g>
<!-- Node2 -->
<g id="node2" class="node">
<title>Node2</title>
<g id="a_node2"><a target="_parent" xlink:href="../../../cieutils/docs/html/classcie_1_1utils_1_1NamedObject.html" xlink:title=" ">
<polygon fill="white" stroke="black" points="0,-276.5 0,-432.5 131,-432.5 131,-276.5 0,-276.5"/>
<text text-anchor="middle" x="65.5" y="-420.5" font-family="Helvetica,sans-Serif" font-size="10.00">cie::utils::NamedObject</text>
<polyline fill="none" stroke="black" points="0,-413.5 131,-413.5 "/>
<text text-anchor="middle" x="65.5" y="-401.5" font-family="Helvetica,sans-Serif" font-size="10.00"> </text>
<polyline fill="none" stroke="black" points="0,-394.5 131,-394.5 "/>
<text text-anchor="start" x="8" y="-382.5" font-family="Helvetica,sans-Serif" font-size="10.00">+ NamedObject()</text>
<text text-anchor="start" x="8" y="-371.5" font-family="Helvetica,sans-Serif" font-size="10.00">+ NamedObject()</text>
<text text-anchor="start" x="8" y="-360.5" font-family="Helvetica,sans-Serif" font-size="10.00">+ NamedObject()</text>
<text text-anchor="start" x="8" y="-349.5" font-family="Helvetica,sans-Serif" font-size="10.00">+ NamedObject()</text>
<text text-anchor="start" x="8" y="-338.5" font-family="Helvetica,sans-Serif" font-size="10.00">+ operator=()</text>
<text text-anchor="start" x="8" y="-327.5" font-family="Helvetica,sans-Serif" font-size="10.00">+ operator=()</text>
<text text-anchor="start" x="8" y="-316.5" font-family="Helvetica,sans-Serif" font-size="10.00">+ name()</text>
<text text-anchor="start" x="8" y="-305.5" font-family="Helvetica,sans-Serif" font-size="10.00">+ setName()</text>
<text text-anchor="start" x="8" y="-294.5" font-family="Helvetica,sans-Serif" font-size="10.00">+ setName()</text>
<text text-anchor="start" x="8" y="-283.5" font-family="Helvetica,sans-Serif" font-size="10.00">+ ~NamedObject()</text>
</a>
</g>
</g>
<!-- Node2&#45;&gt;Node1 -->
<g id="edge1" class="edge">
<title>Node2&#45;&gt;Node1</title>
<path fill="none" stroke="midnightblue" d="M65.5,-266.25C65.5,-257.24 65.5,-248.28 65.5,-239.76"/>
<polygon fill="none" stroke="midnightblue" points="62,-266.42 65.5,-276.42 69,-266.42 62,-266.42"/>
</g>
</g>
</svg>
