<?xml version="1.0" encoding="UTF-8" standalone="no"?>
<!DOCTYPE svg PUBLIC "-//W3C//DTD SVG 1.1//EN"
 "http://www.w3.org/Graphics/SVG/1.1/DTD/svg11.dtd">
<!-- Generated by graphviz version 2.43.0 (0)
 -->
<!-- Title: cie::gl::Axes Pages: 1 -->
<svg width="354pt" height="795pt"
 viewBox="0.00 0.00 354.00 795.00" xmlns="http://www.w3.org/2000/svg" xmlns:xlink="http://www.w3.org/1999/xlink">
<g id="graph0" class="graph" transform="scale(1 1) rotate(0) translate(4 791)">
<title>cie::gl::Axes</title>
<polygon fill="white" stroke="transparent" points="-4,4 -4,-791 350,-791 350,4 -4,4"/>
<!-- Node1 -->
<g id="node1" class="node">
<title>Node1</title>
<g id="a_node1"><a xlink:title=" ">
<polygon fill="#bfbfbf" stroke="black" points="179.5,-0.5 179.5,-57.5 254.5,-57.5 254.5,-0.5 179.5,-0.5"/>
<text text-anchor="middle" x="217" y="-45.5" font-family="Helvetica,sans-Serif" font-size="10.00">cie::gl::Axes</text>
<polyline fill="none" stroke="black" points="179.5,-38.5 254.5,-38.5 "/>
<text text-anchor="middle" x="217" y="-26.5" font-family="Helvetica,sans-Serif" font-size="10.00"> </text>
<polyline fill="none" stroke="black" points="179.5,-19.5 254.5,-19.5 "/>
<text text-anchor="start" x="187.5" y="-7.5" font-family="Helvetica,sans-Serif" font-size="10.00">+ Axes()</text>
</a>
</g>
</g>
<!-- Node2 -->
<g id="node2" class="node">
<title>Node2</title>
<g id="a_node2"><a xlink:href="classcie_1_1gl_1_1CompoundShape.html" target="_top" xlink:title=" ">
<polygon fill="white" stroke="black" points="83,-117.5 83,-251.5 217,-251.5 217,-117.5 83,-117.5"/>
<text text-anchor="start" x="91" y="-239.5" font-family="Helvetica,sans-Serif" font-size="10.00">cie::gl::CompoundShape</text>
<text text-anchor="middle" x="150" y="-228.5" font-family="Helvetica,sans-Serif" font-size="10.00">&lt; ColoredVertex3 &gt;</text>
<polyline fill="none" stroke="black" points="83,-221.5 217,-221.5 "/>
<text text-anchor="start" x="91" y="-209.5" font-family="Helvetica,sans-Serif" font-size="10.00"># _shapes</text>
<polyline fill="none" stroke="black" points="83,-202.5 217,-202.5 "/>
<text text-anchor="start" x="91" y="-190.5" font-family="Helvetica,sans-Serif" font-size="10.00">+ CompoundShape()</text>
<text text-anchor="start" x="91" y="-179.5" font-family="Helvetica,sans-Serif" font-size="10.00">+ CompoundShape()</text>
<text text-anchor="start" x="91" y="-168.5" font-family="Helvetica,sans-Serif" font-size="10.00">+ CompoundShape()</text>
<text text-anchor="start" x="91" y="-157.5" font-family="Helvetica,sans-Serif" font-size="10.00">+ setAttribute()</text>
<text text-anchor="start" x="91" y="-146.5" font-family="Helvetica,sans-Serif" font-size="10.00">+ updateShape()</text>
<text text-anchor="start" x="91" y="-135.5" font-family="Helvetica,sans-Serif" font-size="10.00">+ indices()</text>
<text text-anchor="start" x="91" y="-124.5" font-family="Helvetica,sans-Serif" font-size="10.00">+ shapes()</text>
</a>
</g>
</g>
<!-- Node2&#45;&gt;Node1 -->
<g id="edge1" class="edge">
<title>Node2&#45;&gt;Node1</title>
<path fill="none" stroke="midnightblue" d="M183.08,-107.71C190.91,-89.76 198.78,-71.75 204.96,-57.59"/>
<polygon fill="none" stroke="midnightblue" points="179.79,-106.5 179,-117.07 186.21,-109.3 179.79,-106.5"/>
</g>
<!-- Node3 -->
<g id="node3" class="node">
<title>Node3</title>
<g id="a_node3"><a xlink:href="classcie_1_1gl_1_1AbsGLShape.html" target="_top" xlink:title=" ">
<polygon fill="white" stroke="black" points="136.5,-525.5 136.5,-681.5 249.5,-681.5 249.5,-525.5 136.5,-525.5"/>
<text text-anchor="middle" x="193" y="-669.5" font-family="Helvetica,sans-Serif" font-size="10.00">cie::gl::AbsGLShape</text>
<polyline fill="none" stroke="black" points="136.5,-662.5 249.5,-662.5 "/>
<text text-anchor="middle" x="193" y="-650.5" font-family="Helvetica,sans-Serif" font-size="10.00"> </text>
<polyline fill="none" stroke="black" points="136.5,-643.5 249.5,-643.5 "/>
<text text-anchor="start" x="144.5" y="-631.5" font-family="Helvetica,sans-Serif" font-size="10.00">+ AbsGLShape()</text>
<text text-anchor="start" x="144.5" y="-620.5" font-family="Helvetica,sans-Serif" font-size="10.00">+ AbsGLShape()</text>
<text text-anchor="start" x="144.5" y="-609.5" font-family="Helvetica,sans-Serif" font-size="10.00">+ setAttribute()</text>
<text text-anchor="start" x="144.5" y="-598.5" font-family="Helvetica,sans-Serif" font-size="10.00">+ updateShape()</text>
<text text-anchor="start" x="144.5" y="-587.5" font-family="Helvetica,sans-Serif" font-size="10.00">+ indices()</text>
<text text-anchor="start" x="144.5" y="-576.5" font-family="Helvetica,sans-Serif" font-size="10.00">+ attributes()</text>
<text text-anchor="start" x="144.5" y="-565.5" font-family="Helvetica,sans-Serif" font-size="10.00">+ attributes()</text>
<text text-anchor="start" x="144.5" y="-554.5" font-family="Helvetica,sans-Serif" font-size="10.00"># AbsGLShape()</text>
<text text-anchor="start" x="144.5" y="-543.5" font-family="Helvetica,sans-Serif" font-size="10.00"># AbsGLShape()</text>
<text text-anchor="start" x="144.5" y="-532.5" font-family="Helvetica,sans-Serif" font-size="10.00"># operator=()</text>
</a>
</g>
</g>
<!-- Node3&#45;&gt;Node2 -->
<g id="edge2" class="edge">
<title>Node3&#45;&gt;Node2</title>
<path fill="none" stroke="midnightblue" d="M194.19,-515.25C193.8,-452.74 190.71,-366.74 179,-292 176.94,-278.84 173.86,-264.98 170.47,-251.76"/>
<polygon fill="none" stroke="midnightblue" points="190.69,-515.48 194.23,-525.47 197.69,-515.45 190.69,-515.48"/>
</g>
<!-- Node6 -->
<g id="node6" class="node">
<title>Node6</title>
<g id="a_node6"><a xlink:href="classcie_1_1gl_1_1CompoundShape.html" target="_top" xlink:title="Container of shapes with an AbsGLShape interface.">
<polygon fill="white" stroke="black" points="10,-343.5 10,-477.5 144,-477.5 144,-343.5 10,-343.5"/>
<text text-anchor="start" x="18" y="-465.5" font-family="Helvetica,sans-Serif" font-size="10.00">cie::gl::CompoundShape</text>
<text text-anchor="middle" x="77" y="-454.5" font-family="Helvetica,sans-Serif" font-size="10.00">&lt; VertexType &gt;</text>
<polyline fill="none" stroke="black" points="10,-447.5 144,-447.5 "/>
<text text-anchor="middle" x="77" y="-435.5" font-family="Helvetica,sans-Serif" font-size="10.00"> </text>
<polyline fill="none" stroke="black" points="10,-428.5 144,-428.5 "/>
<text text-anchor="start" x="18" y="-416.5" font-family="Helvetica,sans-Serif" font-size="10.00">+ CompoundShape()</text>
<text text-anchor="start" x="18" y="-405.5" font-family="Helvetica,sans-Serif" font-size="10.00">+ CompoundShape()</text>
<text text-anchor="start" x="18" y="-394.5" font-family="Helvetica,sans-Serif" font-size="10.00">+ CompoundShape()</text>
<text text-anchor="start" x="18" y="-383.5" font-family="Helvetica,sans-Serif" font-size="10.00">+ setAttribute()</text>
<text text-anchor="start" x="18" y="-372.5" font-family="Helvetica,sans-Serif" font-size="10.00">+ updateShape()</text>
<text text-anchor="start" x="18" y="-361.5" font-family="Helvetica,sans-Serif" font-size="10.00">+ indices()</text>
<text text-anchor="start" x="18" y="-350.5" font-family="Helvetica,sans-Serif" font-size="10.00">+ shapes()</text>
</a>
</g>
</g>
<!-- Node3&#45;&gt;Node6 -->
<g id="edge6" class="edge">
<title>Node3&#45;&gt;Node6</title>
<path fill="none" stroke="midnightblue" d="M140.93,-516.77C132.94,-503.61 124.8,-490.21 117.13,-477.57"/>
<polygon fill="none" stroke="midnightblue" points="137.97,-518.63 146.15,-525.36 143.95,-515 137.97,-518.63"/>
</g>
<!-- Node4 -->
<g id="node4" class="node">
<title>Node4</title>
<g id="a_node4"><a xlink:href="structcie_1_1gl_1_1GLTraits.html" target="_top" xlink:title=" ">
<polygon fill="white" stroke="black" points="95,-729.5 95,-786.5 185,-786.5 185,-729.5 95,-729.5"/>
<text text-anchor="middle" x="140" y="-774.5" font-family="Helvetica,sans-Serif" font-size="10.00">cie::gl::GLTraits</text>
<polyline fill="none" stroke="black" points="95,-767.5 185,-767.5 "/>
<text text-anchor="middle" x="140" y="-755.5" font-family="Helvetica,sans-Serif" font-size="10.00"> </text>
<polyline fill="none" stroke="black" points="95,-748.5 185,-748.5 "/>
<text text-anchor="middle" x="140" y="-736.5" font-family="Helvetica,sans-Serif" font-size="10.00"> </text>
</a>
</g>
</g>
<!-- Node4&#45;&gt;Node3 -->
<g id="edge3" class="edge">
<title>Node4&#45;&gt;Node3</title>
<path fill="none" stroke="midnightblue" d="M152.98,-719.66C157,-708.08 161.6,-694.85 166.21,-681.6"/>
<polygon fill="none" stroke="midnightblue" points="149.57,-718.79 149.6,-729.38 156.19,-721.09 149.57,-718.79"/>
</g>
<!-- Node5 -->
<g id="node5" class="node">
<title>Node5</title>
<g id="a_node5"><a xlink:title=" ">
<polygon fill="white" stroke="#bfbfbf" points="203.5,-729.5 203.5,-786.5 288.5,-786.5 288.5,-729.5 203.5,-729.5"/>
<text text-anchor="middle" x="246" y="-774.5" font-family="Helvetica,sans-Serif" font-size="10.00">SharedPointer</text>
<polyline fill="none" stroke="#bfbfbf" points="203.5,-767.5 288.5,-767.5 "/>
<text text-anchor="middle" x="246" y="-755.5" font-family="Helvetica,sans-Serif" font-size="10.00"> </text>
<polyline fill="none" stroke="#bfbfbf" points="203.5,-748.5 288.5,-748.5 "/>
<text text-anchor="middle" x="246" y="-736.5" font-family="Helvetica,sans-Serif" font-size="10.00"> </text>
</a>
</g>
</g>
<!-- Node5&#45;&gt;Node3 -->
<g id="edge4" class="edge">
<title>Node5&#45;&gt;Node3</title>
<path fill="none" stroke="#404040" d="M236.4,-729.38C232.76,-718.89 228.38,-706.3 223.83,-693.2"/>
<polygon fill="none" stroke="#404040" points="223.73,-692.93 217.99,-688.58 219.79,-681.6 225.54,-685.95 223.73,-692.93"/>
<text text-anchor="middle" x="267" y="-703" font-family="Helvetica,sans-Serif" font-size="10.00"> #_p_attributes</text>
</g>
<!-- Node6&#45;&gt;Node2 -->
<g id="edge5" class="edge">
<title>Node6&#45;&gt;Node2</title>
<path fill="none" stroke="orange" d="M71.2,-333.14C71.95,-319.23 73.95,-305.01 78,-292 82.31,-278.15 89.07,-264.46 96.76,-251.76"/>
<polygon fill="orange" stroke="orange" points="67.7,-333.08 70.86,-343.2 74.7,-333.32 67.7,-333.08"/>
<text text-anchor="middle" x="128.5" y="-306" font-family="Helvetica,sans-Serif" font-size="10.00"> &lt; ColoredVertex3 &gt;</text>
</g>
<!-- Node7 -->
<g id="node7" class="node">
<title>Node7</title>
<g id="a_node7"><a xlink:title=" ">
<polygon fill="white" stroke="#bfbfbf" points="0,-575 0,-632 118,-632 118,-575 0,-575"/>
<text text-anchor="middle" x="59" y="-620" font-family="Helvetica,sans-Serif" font-size="10.00">vector&lt; shape_ptr &gt;</text>
<polyline fill="none" stroke="#bfbfbf" points="0,-613 118,-613 "/>
<text text-anchor="middle" x="59" y="-601" font-family="Helvetica,sans-Serif" font-size="10.00"> </text>
<polyline fill="none" stroke="#bfbfbf" points="0,-594 118,-594 "/>
<text text-anchor="middle" x="59" y="-582" font-family="Helvetica,sans-Serif" font-size="10.00"> </text>
</a>
</g>
</g>
<!-- Node7&#45;&gt;Node6 -->
<g id="edge7" class="edge">
<title>Node7&#45;&gt;Node6</title>
<path fill="none" stroke="#404040" d="M61.62,-574.73C63.72,-552.45 66.77,-520.04 69.61,-489.96"/>
<polygon fill="none" stroke="#404040" points="69.64,-489.64 66.22,-483.29 70.76,-477.69 74.18,-484.04 69.64,-489.64"/>
<text text-anchor="middle" x="95" y="-499" font-family="Helvetica,sans-Serif" font-size="10.00"> #_shapes</text>
</g>
<!-- Node8 -->
<g id="node8" class="node">
<title>Node8</title>
<g id="a_node8"><a xlink:href="classcie_1_1gl_1_1RigidBody.html" target="_top" xlink:title=" ">
<polygon fill="white" stroke="black" points="235.5,-95.5 235.5,-273.5 336.5,-273.5 336.5,-95.5 235.5,-95.5"/>
<text text-anchor="middle" x="286" y="-261.5" font-family="Helvetica,sans-Serif" font-size="10.00">cie::gl::RigidBody</text>
<polyline fill="none" stroke="black" points="235.5,-254.5 336.5,-254.5 "/>
<text text-anchor="middle" x="286" y="-242.5" font-family="Helvetica,sans-Serif" font-size="10.00"> </text>
<polyline fill="none" stroke="black" points="235.5,-235.5 336.5,-235.5 "/>
<text text-anchor="start" x="243.5" y="-223.5" font-family="Helvetica,sans-Serif" font-size="10.00">+ RigidBody()</text>
<text text-anchor="start" x="243.5" y="-212.5" font-family="Helvetica,sans-Serif" font-size="10.00">+ RigidBody()</text>
<text text-anchor="start" x="243.5" y="-201.5" font-family="Helvetica,sans-Serif" font-size="10.00">+ RigidBody()</text>
<text text-anchor="start" x="243.5" y="-190.5" font-family="Helvetica,sans-Serif" font-size="10.00">+ RigidBody()</text>
<text text-anchor="start" x="243.5" y="-179.5" font-family="Helvetica,sans-Serif" font-size="10.00">+ position()</text>
<text text-anchor="start" x="243.5" y="-168.5" font-family="Helvetica,sans-Serif" font-size="10.00">+ direction()</text>
<text text-anchor="start" x="243.5" y="-157.5" font-family="Helvetica,sans-Serif" font-size="10.00">+ up()</text>
<text text-anchor="start" x="243.5" y="-146.5" font-family="Helvetica,sans-Serif" font-size="10.00">+ setPosition()</text>
<text text-anchor="start" x="243.5" y="-135.5" font-family="Helvetica,sans-Serif" font-size="10.00">+ setPose()</text>
<text text-anchor="start" x="243.5" y="-124.5" font-family="Helvetica,sans-Serif" font-size="10.00">+ translate()</text>
<text text-anchor="start" x="243.5" y="-113.5" font-family="Helvetica,sans-Serif" font-size="10.00">and 8 more...</text>
<text text-anchor="start" x="243.5" y="-102.5" font-family="Helvetica,sans-Serif" font-size="10.00"># rotateInPlace()</text>
</a>
</g>
</g>
<!-- Node8&#45;&gt;Node1 -->
<g id="edge8" class="edge">
<title>Node8&#45;&gt;Node1</title>
<path fill="none" stroke="midnightblue" d="M242.15,-85.95C237.54,-75.68 233.16,-65.95 229.39,-57.57"/>
<polygon fill="none" stroke="midnightblue" points="238.97,-87.41 246.26,-95.1 245.35,-84.54 238.97,-87.41"/>
</g>
<!-- Node9 -->
<g id="node9" class="node">
<title>Node9</title>
<g id="a_node9"><a xlink:title=" ">
<polygon fill="white" stroke="#bfbfbf" points="263,-382 263,-439 309,-439 309,-382 263,-382"/>
<text text-anchor="middle" x="286" y="-427" font-family="Helvetica,sans-Serif" font-size="10.00">dvec3</text>
<polyline fill="none" stroke="#bfbfbf" points="263,-420 309,-420 "/>
<text text-anchor="middle" x="286" y="-408" font-family="Helvetica,sans-Serif" font-size="10.00"> </text>
<polyline fill="none" stroke="#bfbfbf" points="263,-401 309,-401 "/>
<text text-anchor="middle" x="286" y="-389" font-family="Helvetica,sans-Serif" font-size="10.00"> </text>
</a>
</g>
</g>
<!-- Node9&#45;&gt;Node8 -->
<g id="edge9" class="edge">
<title>Node9&#45;&gt;Node8</title>
<path fill="none" stroke="#404040" d="M286,-381.58C286,-357.4 286,-320.9 286,-285.91"/>
<polygon fill="none" stroke="#404040" points="286,-285.63 282,-279.63 286,-273.63 290,-279.63 286,-285.63"/>
<text text-anchor="middle" x="316" y="-317" font-family="Helvetica,sans-Serif" font-size="10.00"> #_direction</text>
<text text-anchor="middle" x="316" y="-306" font-family="Helvetica,sans-Serif" font-size="10.00">#_position</text>
<text text-anchor="middle" x="316" y="-295" font-family="Helvetica,sans-Serif" font-size="10.00">#_up</text>
</g>
</g>
</svg>
