<?xml version="1.0" encoding="UTF-8" standalone="no"?>
<!DOCTYPE svg PUBLIC "-//W3C//DTD SVG 1.1//EN"
 "http://www.w3.org/Graphics/SVG/1.1/DTD/svg11.dtd">
<!-- Generated by graphviz version 2.43.0 (0)
 -->
<!-- Title: cie::gl::ObjPart Pages: 1 -->
<svg width="321pt" height="592pt"
 viewBox="0.00 0.00 321.00 592.00" xmlns="http://www.w3.org/2000/svg" xmlns:xlink="http://www.w3.org/1999/xlink">
<g id="graph0" class="graph" transform="scale(1 1) rotate(0) translate(4 588)">
<title>cie::gl::ObjPart</title>
<polygon fill="white" stroke="transparent" points="-4,4 -4,-588 317,-588 317,4 -4,4"/>
<!-- Node1 -->
<g id="node1" class="node">
<title>Node1</title>
<g id="a_node1"><a xlink:title=" ">
<polygon fill="#bfbfbf" stroke="black" points="112.5,-0.5 112.5,-79.5 199.5,-79.5 199.5,-0.5 112.5,-0.5"/>
<text text-anchor="middle" x="156" y="-67.5" font-family="Helvetica,sans-Serif" font-size="10.00">cie::gl::ObjPart</text>
<polyline fill="none" stroke="black" points="112.5,-60.5 199.5,-60.5 "/>
<text text-anchor="middle" x="156" y="-48.5" font-family="Helvetica,sans-Serif" font-size="10.00"> </text>
<polyline fill="none" stroke="black" points="112.5,-41.5 199.5,-41.5 "/>
<text text-anchor="start" x="120.5" y="-29.5" font-family="Helvetica,sans-Serif" font-size="10.00">+ ObjPart()</text>
<text text-anchor="start" x="120.5" y="-18.5" font-family="Helvetica,sans-Serif" font-size="10.00">+ ObjPart()</text>
<text text-anchor="start" x="120.5" y="-7.5" font-family="Helvetica,sans-Serif" font-size="10.00">+ load()</text>
</a>
</g>
</g>
<!-- Node2 -->
<g id="node2" class="node">
<title>Node2</title>
<g id="a_node2"><a xlink:href="classcie_1_1gl_1_1Triangulated3DPart.html" target="_top" xlink:title=" ">
<polygon fill="white" stroke="black" points="84,-117.5 84,-207.5 228,-207.5 228,-117.5 84,-117.5"/>
<text text-anchor="middle" x="156" y="-195.5" font-family="Helvetica,sans-Serif" font-size="10.00">cie::gl::Triangulated3DPart</text>
<polyline fill="none" stroke="black" points="84,-188.5 228,-188.5 "/>
<text text-anchor="middle" x="156" y="-176.5" font-family="Helvetica,sans-Serif" font-size="10.00"> </text>
<polyline fill="none" stroke="black" points="84,-169.5 228,-169.5 "/>
<text text-anchor="start" x="92" y="-157.5" font-family="Helvetica,sans-Serif" font-size="10.00">+ dimension()</text>
<text text-anchor="start" x="92" y="-146.5" font-family="Helvetica,sans-Serif" font-size="10.00">+ vertexAttributeSize()</text>
<text text-anchor="start" x="92" y="-135.5" font-family="Helvetica,sans-Serif" font-size="10.00">+ primitiveVertexSize()</text>
<text text-anchor="start" x="92" y="-124.5" font-family="Helvetica,sans-Serif" font-size="10.00">+ writeSTL()</text>
</a>
</g>
</g>
<!-- Node2&#45;&gt;Node1 -->
<g id="edge1" class="edge">
<title>Node2&#45;&gt;Node1</title>
<path fill="none" stroke="midnightblue" d="M156,-107.3C156,-97.97 156,-88.43 156,-79.61"/>
<polygon fill="none" stroke="midnightblue" points="152.5,-107.31 156,-117.31 159.5,-107.31 152.5,-107.31"/>
</g>
<!-- Node3 -->
<g id="node3" class="node">
<title>Node3</title>
<g id="a_node3"><a xlink:href="classcie_1_1gl_1_1Part.html" target="_top" xlink:title=" ">
<polygon fill="white" stroke="black" points="84.5,-245.5 84.5,-478.5 227.5,-478.5 227.5,-245.5 84.5,-245.5"/>
<text text-anchor="middle" x="156" y="-466.5" font-family="Helvetica,sans-Serif" font-size="10.00">cie::gl::Part</text>
<polyline fill="none" stroke="black" points="84.5,-459.5 227.5,-459.5 "/>
<text text-anchor="middle" x="156" y="-447.5" font-family="Helvetica,sans-Serif" font-size="10.00"> </text>
<polyline fill="none" stroke="black" points="84.5,-440.5 227.5,-440.5 "/>
<text text-anchor="start" x="92.5" y="-428.5" font-family="Helvetica,sans-Serif" font-size="10.00">+ Part()</text>
<text text-anchor="start" x="92.5" y="-417.5" font-family="Helvetica,sans-Serif" font-size="10.00">+ attributeByteCount()</text>
<text text-anchor="start" x="92.5" y="-406.5" font-family="Helvetica,sans-Serif" font-size="10.00">+ indexByteCount()</text>
<text text-anchor="start" x="92.5" y="-395.5" font-family="Helvetica,sans-Serif" font-size="10.00">+ numberOfVertices()</text>
<text text-anchor="start" x="92.5" y="-384.5" font-family="Helvetica,sans-Serif" font-size="10.00">+ numberOfPrimitives()</text>
<text text-anchor="start" x="92.5" y="-373.5" font-family="Helvetica,sans-Serif" font-size="10.00">+ load()</text>
<text text-anchor="start" x="92.5" y="-362.5" font-family="Helvetica,sans-Serif" font-size="10.00">+ attributes()</text>
<text text-anchor="start" x="92.5" y="-351.5" font-family="Helvetica,sans-Serif" font-size="10.00">+ indices()</text>
<text text-anchor="start" x="92.5" y="-340.5" font-family="Helvetica,sans-Serif" font-size="10.00">+ dimension()</text>
<text text-anchor="start" x="92.5" y="-329.5" font-family="Helvetica,sans-Serif" font-size="10.00">+ vertexAttributeSize()</text>
<text text-anchor="start" x="92.5" y="-318.5" font-family="Helvetica,sans-Serif" font-size="10.00">+ primitiveVertexSize()</text>
<text text-anchor="start" x="92.5" y="-307.5" font-family="Helvetica,sans-Serif" font-size="10.00">+ primitiveAttributeSize()</text>
<text text-anchor="start" x="92.5" y="-296.5" font-family="Helvetica,sans-Serif" font-size="10.00">+ primitiveByteSize()</text>
<text text-anchor="start" x="92.5" y="-285.5" font-family="Helvetica,sans-Serif" font-size="10.00">+ writeSTL()</text>
<text text-anchor="start" x="92.5" y="-274.5" font-family="Helvetica,sans-Serif" font-size="10.00"># Part()</text>
<text text-anchor="start" x="92.5" y="-263.5" font-family="Helvetica,sans-Serif" font-size="10.00"># Part()</text>
<text text-anchor="start" x="92.5" y="-252.5" font-family="Helvetica,sans-Serif" font-size="10.00"># operator=()</text>
</a>
</g>
</g>
<!-- Node3&#45;&gt;Node2 -->
<g id="edge2" class="edge">
<title>Node3&#45;&gt;Node2</title>
<path fill="none" stroke="midnightblue" d="M156,-235.07C156,-225.41 156,-216.12 156,-207.63"/>
<polygon fill="none" stroke="midnightblue" points="152.5,-235.26 156,-245.26 159.5,-235.26 152.5,-235.26"/>
</g>
<!-- Node4 -->
<g id="node4" class="node">
<title>Node4</title>
<g id="a_node4"><a xlink:href="structcie_1_1gl_1_1GLTraits.html" target="_top" xlink:title=" ">
<polygon fill="white" stroke="black" points="0,-526.5 0,-583.5 90,-583.5 90,-526.5 0,-526.5"/>
<text text-anchor="middle" x="45" y="-571.5" font-family="Helvetica,sans-Serif" font-size="10.00">cie::gl::GLTraits</text>
<polyline fill="none" stroke="black" points="0,-564.5 90,-564.5 "/>
<text text-anchor="middle" x="45" y="-552.5" font-family="Helvetica,sans-Serif" font-size="10.00"> </text>
<polyline fill="none" stroke="black" points="0,-545.5 90,-545.5 "/>
<text text-anchor="middle" x="45" y="-533.5" font-family="Helvetica,sans-Serif" font-size="10.00"> </text>
</a>
</g>
</g>
<!-- Node4&#45;&gt;Node3 -->
<g id="edge3" class="edge">
<title>Node4&#45;&gt;Node3</title>
<path fill="none" stroke="midnightblue" d="M66.23,-517.47C72.89,-506.01 80.62,-492.7 88.71,-478.79"/>
<polygon fill="none" stroke="midnightblue" points="63.14,-515.82 61.14,-526.23 69.19,-519.34 63.14,-515.82"/>
</g>
<!-- Node5 -->
<g id="node5" class="node">
<title>Node5</title>
<g id="a_node5"><a xlink:title=" ">
<polygon fill="white" stroke="#bfbfbf" points="108.5,-526.5 108.5,-583.5 203.5,-583.5 203.5,-526.5 108.5,-526.5"/>
<text text-anchor="middle" x="156" y="-571.5" font-family="Helvetica,sans-Serif" font-size="10.00">index_container</text>
<polyline fill="none" stroke="#bfbfbf" points="108.5,-564.5 203.5,-564.5 "/>
<text text-anchor="middle" x="156" y="-552.5" font-family="Helvetica,sans-Serif" font-size="10.00"> </text>
<polyline fill="none" stroke="#bfbfbf" points="108.5,-545.5 203.5,-545.5 "/>
<text text-anchor="middle" x="156" y="-533.5" font-family="Helvetica,sans-Serif" font-size="10.00"> </text>
</a>
</g>
</g>
<!-- Node5&#45;&gt;Node3 -->
<g id="edge4" class="edge">
<title>Node5&#45;&gt;Node3</title>
<path fill="none" stroke="#404040" d="M156,-526.23C156,-516.17 156,-504.04 156,-491"/>
<polygon fill="none" stroke="#404040" points="156,-490.79 152,-484.79 156,-478.79 160,-484.79 156,-490.79"/>
<text text-anchor="middle" x="182" y="-500" font-family="Helvetica,sans-Serif" font-size="10.00"> #_indices</text>
</g>
<!-- Node6 -->
<g id="node6" class="node">
<title>Node6</title>
<g id="a_node6"><a xlink:title=" ">
<polygon fill="white" stroke="#bfbfbf" points="221.5,-526.5 221.5,-583.5 306.5,-583.5 306.5,-526.5 221.5,-526.5"/>
<text text-anchor="middle" x="264" y="-571.5" font-family="Helvetica,sans-Serif" font-size="10.00">SharedPointer</text>
<polyline fill="none" stroke="#bfbfbf" points="221.5,-564.5 306.5,-564.5 "/>
<text text-anchor="middle" x="264" y="-552.5" font-family="Helvetica,sans-Serif" font-size="10.00"> </text>
<polyline fill="none" stroke="#bfbfbf" points="221.5,-545.5 306.5,-545.5 "/>
<text text-anchor="middle" x="264" y="-533.5" font-family="Helvetica,sans-Serif" font-size="10.00"> </text>
</a>
</g>
</g>
<!-- Node6&#45;&gt;Node3 -->
<g id="edge5" class="edge">
<title>Node6&#45;&gt;Node3</title>
<path fill="none" stroke="#404040" d="M248.3,-526.23C242.38,-515.76 235.19,-503.05 227.47,-489.39"/>
<polygon fill="none" stroke="#404040" points="227.38,-489.24 220.94,-485.98 221.47,-478.79 227.91,-482.05 227.38,-489.24"/>
<text text-anchor="middle" x="275" y="-500" font-family="Helvetica,sans-Serif" font-size="10.00"> #_p_attributes</text>
</g>
</g>
</svg>
