<?xml version="1.0" encoding="UTF-8" standalone="no"?>
<!DOCTYPE svg PUBLIC "-//W3C//DTD SVG 1.1//EN"
 "http://www.w3.org/Graphics/SVG/1.1/DTD/svg11.dtd">
<!-- Generated by graphviz version 2.43.0 (0)
 -->
<!-- Title: ColoredVertex3.hpp Pages: 1 -->
<svg width="1177pt" height="575pt"
 viewBox="0.00 0.00 1177.00 575.00" xmlns="http://www.w3.org/2000/svg" xmlns:xlink="http://www.w3.org/1999/xlink">
<g id="graph0" class="graph" transform="scale(1 1) rotate(0) translate(4 571)">
<title>ColoredVertex3.hpp</title>
<polygon fill="white" stroke="transparent" points="-4,4 -4,-571 1173,-571 1173,4 -4,4"/>
<!-- Node1 -->
<g id="node1" class="node">
<title>Node1</title>
<g id="a_node1"><a xlink:title=" ">
<polygon fill="#bfbfbf" stroke="black" points="145,-547.5 145,-566.5 258,-566.5 258,-547.5 145,-547.5"/>
<text text-anchor="middle" x="201.5" y="-554.5" font-family="Helvetica,sans-Serif" font-size="10.00">ColoredVertex3.hpp</text>
</a>
</g>
</g>
<!-- Node2 -->
<g id="node2" class="node">
<title>Node2</title>
<g id="a_node2"><a target="_parent" xlink:href="../../../cieutils/docs/html/TransformView_8hpp.html.html" xlink:title=" ">
<polygon fill="white" stroke="black" points="16.5,-480.5 16.5,-510.5 132.5,-510.5 132.5,-480.5 16.5,-480.5"/>
<text text-anchor="start" x="24.5" y="-498.5" font-family="Helvetica,sans-Serif" font-size="10.00">packages/ranges/inc</text>
<text text-anchor="middle" x="74.5" y="-487.5" font-family="Helvetica,sans-Serif" font-size="10.00">/TransformView.hpp</text>
</a>
</g>
</g>
<!-- Node1&#45;&gt;Node2 -->
<g id="edge1" class="edge">
<title>Node1&#45;&gt;Node2</title>
<path fill="none" stroke="midnightblue" d="M183.3,-547.48C165.22,-539 136.91,-525.74 113.69,-514.86"/>
<polygon fill="midnightblue" stroke="midnightblue" points="114.97,-511.6 104.43,-510.52 112,-517.93 114.97,-511.6"/>
</g>
<!-- Node3 -->
<g id="node3" class="node">
<title>Node3</title>
<g id="a_node3"><a target="_parent" xlink:href="../../../cieutils/docs/html/StaticArray_8hpp.html.html" xlink:title=" ">
<polygon fill="white" stroke="black" points="0,-212.5 0,-242.5 131,-242.5 131,-212.5 0,-212.5"/>
<text text-anchor="start" x="8" y="-230.5" font-family="Helvetica,sans-Serif" font-size="10.00">packages/stl_extension</text>
<text text-anchor="middle" x="65.5" y="-219.5" font-family="Helvetica,sans-Serif" font-size="10.00">/inc/StaticArray.hpp</text>
</a>
</g>
</g>
<!-- Node1&#45;&gt;Node3 -->
<g id="edge2" class="edge">
<title>Node1&#45;&gt;Node3</title>
<path fill="none" stroke="midnightblue" d="M196.64,-547.42C185.78,-527.42 160.5,-475.9 160.5,-429.5 160.5,-429.5 160.5,-429.5 160.5,-360.5 160.5,-313.99 121.16,-272.68 93.11,-249.13"/>
<polygon fill="midnightblue" stroke="midnightblue" points="95.15,-246.28 85.18,-242.69 90.74,-251.71 95.15,-246.28"/>
</g>
<!-- Node4 -->
<g id="node4" class="node">
<title>Node4</title>
<g id="a_node4"><a xlink:href="Vertex3_8hpp.html" target="_top" xlink:title=" ">
<polygon fill="white" stroke="black" points="895,-480.5 895,-510.5 1006,-510.5 1006,-480.5 895,-480.5"/>
<text text-anchor="start" x="903" y="-498.5" font-family="Helvetica,sans-Serif" font-size="10.00">packages/buffer/inc</text>
<text text-anchor="middle" x="950.5" y="-487.5" font-family="Helvetica,sans-Serif" font-size="10.00">/Vertex3.hpp</text>
</a>
</g>
</g>
<!-- Node1&#45;&gt;Node4 -->
<g id="edge3" class="edge">
<title>Node1&#45;&gt;Node4</title>
<path fill="none" stroke="midnightblue" d="M258.1,-551.5C394.31,-540.68 739.76,-513.24 884.8,-501.72"/>
<polygon fill="midnightblue" stroke="midnightblue" points="885.2,-505.2 894.89,-500.92 884.64,-498.22 885.2,-505.2"/>
</g>
<!-- Node20 -->
<g id="node20" class="node">
<title>Node20</title>
<g id="a_node20"><a xlink:href="GLTraits_8hpp.html" target="_top" xlink:title=" ">
<polygon fill="white" stroke="black" points="188.5,-279.5 188.5,-309.5 296.5,-309.5 296.5,-279.5 188.5,-279.5"/>
<text text-anchor="start" x="196.5" y="-297.5" font-family="Helvetica,sans-Serif" font-size="10.00">packages/traits/inc</text>
<text text-anchor="middle" x="242.5" y="-286.5" font-family="Helvetica,sans-Serif" font-size="10.00">/GLTraits.hpp</text>
</a>
</g>
</g>
<!-- Node1&#45;&gt;Node20 -->
<g id="edge35" class="edge">
<title>Node1&#45;&gt;Node20</title>
<path fill="none" stroke="midnightblue" d="M202.86,-547.33C208.48,-511.66 229.92,-375.45 238.71,-319.6"/>
<polygon fill="midnightblue" stroke="midnightblue" points="242.19,-319.98 240.29,-309.56 235.28,-318.89 242.19,-319.98"/>
</g>
<!-- Node5 -->
<g id="node5" class="node">
<title>Node5</title>
<g id="a_node5"><a xlink:href="Vertex2_8hpp.html" target="_top" xlink:title=" ">
<polygon fill="white" stroke="black" points="895,-413.5 895,-443.5 1006,-443.5 1006,-413.5 895,-413.5"/>
<text text-anchor="start" x="903" y="-431.5" font-family="Helvetica,sans-Serif" font-size="10.00">packages/buffer/inc</text>
<text text-anchor="middle" x="950.5" y="-420.5" font-family="Helvetica,sans-Serif" font-size="10.00">/Vertex2.hpp</text>
</a>
</g>
</g>
<!-- Node4&#45;&gt;Node5 -->
<g id="edge4" class="edge">
<title>Node4&#45;&gt;Node5</title>
<path fill="none" stroke="midnightblue" d="M950.5,-480.4C950.5,-472.64 950.5,-462.81 950.5,-453.86"/>
<polygon fill="midnightblue" stroke="midnightblue" points="954,-453.58 950.5,-443.58 947,-453.58 954,-453.58"/>
</g>
<!-- Node8 -->
<g id="node8" class="node">
<title>Node8</title>
<g id="a_node8"><a target="_parent" xlink:href="../../../cieutils/docs/html/typedefs_8hpp.html.html" xlink:title=" ">
<polygon fill="white" stroke="black" points="1050,-140 1050,-170 1169,-170 1169,-140 1050,-140"/>
<text text-anchor="start" x="1058" y="-158" font-family="Helvetica,sans-Serif" font-size="10.00">packages/macros/inc</text>
<text text-anchor="middle" x="1109.5" y="-147" font-family="Helvetica,sans-Serif" font-size="10.00">/typedefs.hpp</text>
</a>
</g>
</g>
<!-- Node4&#45;&gt;Node8 -->
<g id="edge34" class="edge">
<title>Node4&#45;&gt;Node8</title>
<path fill="none" stroke="midnightblue" d="M1006.13,-485.36C1070.12,-471.3 1166.5,-437.65 1166.5,-362.5 1166.5,-362.5 1166.5,-362.5 1166.5,-293.5 1166.5,-250.27 1142.16,-204.83 1125.29,-178.52"/>
<polygon fill="midnightblue" stroke="midnightblue" points="1128.13,-176.46 1119.69,-170.05 1122.29,-180.32 1128.13,-176.46"/>
</g>
<!-- Node6 -->
<g id="node6" class="node">
<title>Node6</title>
<g id="a_node6"><a xlink:href="AbsVertex_8hpp.html" target="_top" xlink:title=" ">
<polygon fill="white" stroke="black" points="763,-346.5 763,-376.5 874,-376.5 874,-346.5 763,-346.5"/>
<text text-anchor="start" x="771" y="-364.5" font-family="Helvetica,sans-Serif" font-size="10.00">packages/buffer/inc</text>
<text text-anchor="middle" x="818.5" y="-353.5" font-family="Helvetica,sans-Serif" font-size="10.00">/AbsVertex.hpp</text>
</a>
</g>
</g>
<!-- Node5&#45;&gt;Node6 -->
<g id="edge5" class="edge">
<title>Node5&#45;&gt;Node6</title>
<path fill="none" stroke="midnightblue" d="M921.86,-413.4C902.66,-403.94 877.17,-391.39 856.31,-381.12"/>
<polygon fill="midnightblue" stroke="midnightblue" points="857.6,-377.85 847.09,-376.58 854.51,-384.13 857.6,-377.85"/>
</g>
<!-- Node5&#45;&gt;Node8 -->
<g id="edge33" class="edge">
<title>Node5&#45;&gt;Node8</title>
<path fill="none" stroke="midnightblue" d="M976.33,-413.38C1008.95,-394.22 1064.55,-356.93 1095.5,-310 1121.53,-270.54 1118.37,-212.5 1113.87,-180.11"/>
<polygon fill="midnightblue" stroke="midnightblue" points="1117.32,-179.52 1112.33,-170.17 1110.4,-180.59 1117.32,-179.52"/>
</g>
<!-- Node7 -->
<g id="node7" class="node">
<title>Node7</title>
<g id="a_node7"><a xlink:title=" ">
<polygon fill="white" stroke="#bfbfbf" points="523,-6 523,-25 594,-25 594,-6 523,-6"/>
<text text-anchor="middle" x="558.5" y="-13" font-family="Helvetica,sans-Serif" font-size="10.00">glad/glad.h</text>
</a>
</g>
</g>
<!-- Node6&#45;&gt;Node7 -->
<g id="edge6" class="edge">
<title>Node6&#45;&gt;Node7</title>
<path fill="none" stroke="midnightblue" d="M823.35,-346.3C835.4,-308.27 862.64,-202.39 818.5,-134 771.01,-60.43 665.14,-32.44 604.15,-22.16"/>
<polygon fill="midnightblue" stroke="midnightblue" points="604.46,-18.66 594.03,-20.55 603.36,-25.58 604.46,-18.66"/>
</g>
<!-- Node6&#45;&gt;Node8 -->
<g id="edge7" class="edge">
<title>Node6&#45;&gt;Node8</title>
<path fill="none" stroke="midnightblue" d="M874.21,-356.27C939.93,-350.15 1043.78,-336.5 1071.5,-310 1107.06,-276 1111.5,-214.45 1110.93,-180.36"/>
<polygon fill="midnightblue" stroke="midnightblue" points="1114.42,-180.21 1110.6,-170.33 1107.43,-180.44 1114.42,-180.21"/>
</g>
<!-- Node9 -->
<g id="node9" class="node">
<title>Node9</title>
<g id="a_node9"><a target="_parent" xlink:href="../../../cieutils/docs/html/types_8hpp.html.html" xlink:title=" ">
<polygon fill="white" stroke="black" points="884.5,-279.5 884.5,-309.5 994.5,-309.5 994.5,-279.5 884.5,-279.5"/>
<text text-anchor="start" x="892.5" y="-297.5" font-family="Helvetica,sans-Serif" font-size="10.00">packages/types/inc</text>
<text text-anchor="middle" x="939.5" y="-286.5" font-family="Helvetica,sans-Serif" font-size="10.00">/types.hpp</text>
</a>
</g>
</g>
<!-- Node6&#45;&gt;Node9 -->
<g id="edge8" class="edge">
<title>Node6&#45;&gt;Node9</title>
<path fill="none" stroke="midnightblue" d="M844.76,-346.4C862.2,-337.03 885.3,-324.62 904.33,-314.39"/>
<polygon fill="midnightblue" stroke="midnightblue" points="906.14,-317.39 913.3,-309.58 902.83,-311.23 906.14,-317.39"/>
</g>
<!-- Node10 -->
<g id="node10" class="node">
<title>Node10</title>
<g id="a_node10"><a target="_parent" xlink:href="../../../cieutils/docs/html/basic__concepts_8hpp.html.html" xlink:title=" ">
<polygon fill="white" stroke="black" points="865.5,-134.5 865.5,-175.5 997.5,-175.5 997.5,-134.5 865.5,-134.5"/>
<text text-anchor="start" x="873.5" y="-163.5" font-family="Helvetica,sans-Serif" font-size="10.00">packages/compile_time</text>
<text text-anchor="start" x="873.5" y="-152.5" font-family="Helvetica,sans-Serif" font-size="10.00">/packages/concepts/inc</text>
<text text-anchor="middle" x="931.5" y="-141.5" font-family="Helvetica,sans-Serif" font-size="10.00">/basic_concepts.hpp</text>
</a>
</g>
</g>
<!-- Node6&#45;&gt;Node10 -->
<g id="edge9" class="edge">
<title>Node6&#45;&gt;Node10</title>
<path fill="none" stroke="midnightblue" d="M826.27,-346.44C844.65,-313.17 891.15,-229.03 915.72,-184.56"/>
<polygon fill="midnightblue" stroke="midnightblue" points="918.84,-186.15 920.61,-175.71 912.71,-182.77 918.84,-186.15"/>
</g>
<!-- Node14 -->
<g id="node14" class="node">
<title>Node14</title>
<g id="a_node14"><a xlink:href="AttributeContainer_8hpp.html" target="_top" xlink:title=" ">
<polygon fill="white" stroke="black" points="525.5,-212.5 525.5,-242.5 655.5,-242.5 655.5,-212.5 525.5,-212.5"/>
<text text-anchor="start" x="533.5" y="-230.5" font-family="Helvetica,sans-Serif" font-size="10.00">packages/buffer/inc</text>
<text text-anchor="middle" x="590.5" y="-219.5" font-family="Helvetica,sans-Serif" font-size="10.00">/AttributeContainer.hpp</text>
</a>
</g>
</g>
<!-- Node6&#45;&gt;Node14 -->
<g id="edge14" class="edge">
<title>Node6&#45;&gt;Node14</title>
<path fill="none" stroke="midnightblue" d="M805.21,-346.41C787.84,-328.67 755.82,-298.2 723.5,-279 700.45,-265.31 673.04,-254.15 649.1,-245.84"/>
<polygon fill="midnightblue" stroke="midnightblue" points="650.02,-242.45 639.43,-242.56 647.78,-249.08 650.02,-242.45"/>
</g>
<!-- Node16 -->
<g id="node16" class="node">
<title>Node16</title>
<g id="a_node16"><a xlink:title=" ">
<polygon fill="white" stroke="#bfbfbf" points="244,-145.5 244,-164.5 291,-164.5 291,-145.5 244,-145.5"/>
<text text-anchor="middle" x="267.5" y="-152.5" font-family="Helvetica,sans-Serif" font-size="10.00">vector</text>
</a>
</g>
</g>
<!-- Node6&#45;&gt;Node16 -->
<g id="edge29" class="edge">
<title>Node6&#45;&gt;Node16</title>
<path fill="none" stroke="midnightblue" d="M762.65,-352.14C715.02,-344.12 645.15,-330.22 586.5,-310 471.02,-270.18 342.69,-199.44 290.98,-169.73"/>
<polygon fill="midnightblue" stroke="midnightblue" points="292.64,-166.65 282.23,-164.68 289.14,-172.71 292.64,-166.65"/>
</g>
<!-- Node17 -->
<g id="node17" class="node">
<title>Node17</title>
<g id="a_node17"><a xlink:title=" ">
<polygon fill="white" stroke="#bfbfbf" points="751.5,-145.5 751.5,-164.5 809.5,-164.5 809.5,-145.5 751.5,-145.5"/>
<text text-anchor="middle" x="780.5" y="-152.5" font-family="Helvetica,sans-Serif" font-size="10.00">memory</text>
</a>
</g>
</g>
<!-- Node6&#45;&gt;Node17 -->
<g id="edge30" class="edge">
<title>Node6&#45;&gt;Node17</title>
<path fill="none" stroke="midnightblue" d="M814.14,-346.46C811.12,-336.39 807.19,-322.45 804.5,-310 794.07,-261.66 786.3,-203.86 782.71,-174.74"/>
<polygon fill="midnightblue" stroke="midnightblue" points="786.18,-174.26 781.5,-164.75 779.23,-175.1 786.18,-174.26"/>
</g>
<!-- Node6&#45;&gt;Node20 -->
<g id="edge23" class="edge">
<title>Node6&#45;&gt;Node20</title>
<path fill="none" stroke="midnightblue" d="M762.75,-354.21C655.32,-342.09 420.22,-315.55 306.55,-302.73"/>
<polygon fill="midnightblue" stroke="midnightblue" points="306.93,-299.25 296.6,-301.6 306.14,-306.2 306.93,-299.25"/>
</g>
<!-- Node22 -->
<g id="node22" class="node">
<title>Node22</title>
<g id="a_node22"><a xlink:title=" ">
<polygon fill="white" stroke="#bfbfbf" points="1012.5,-285 1012.5,-304 1062.5,-304 1062.5,-285 1012.5,-285"/>
<text text-anchor="middle" x="1037.5" y="-292" font-family="Helvetica,sans-Serif" font-size="10.00">ranges</text>
</a>
</g>
</g>
<!-- Node6&#45;&gt;Node22 -->
<g id="edge31" class="edge">
<title>Node6&#45;&gt;Node22</title>
<path fill="none" stroke="midnightblue" d="M874.15,-347.42C911.2,-338.2 960.74,-324.88 1003.5,-310 1005.36,-309.35 1007.27,-308.65 1009.18,-307.92"/>
<polygon fill="midnightblue" stroke="midnightblue" points="1010.66,-311.09 1018.62,-304.09 1008.04,-304.6 1010.66,-311.09"/>
</g>
<!-- Node23 -->
<g id="node23" class="node">
<title>Node23</title>
<g id="a_node23"><a xlink:title=" ">
<polygon fill="white" stroke="#bfbfbf" points="595,-279.5 595,-309.5 714,-309.5 714,-279.5 595,-279.5"/>
<text text-anchor="start" x="603" y="-297.5" font-family="Helvetica,sans-Serif" font-size="10.00">packages/buffer/impl</text>
<text text-anchor="middle" x="654.5" y="-286.5" font-family="Helvetica,sans-Serif" font-size="10.00">/AbsVertex_impl.hpp</text>
</a>
</g>
</g>
<!-- Node6&#45;&gt;Node23 -->
<g id="edge32" class="edge">
<title>Node6&#45;&gt;Node23</title>
<path fill="none" stroke="midnightblue" d="M782.91,-346.4C758.41,-336.69 725.67,-323.71 699.38,-313.29"/>
<polygon fill="midnightblue" stroke="midnightblue" points="700.6,-310.01 690.02,-309.58 698.02,-316.51 700.6,-310.01"/>
</g>
<!-- Node11 -->
<g id="node11" class="node">
<title>Node11</title>
<g id="a_node11"><a xlink:href="types_8hpp.html" target="_top" xlink:title=" ">
<polygon fill="white" stroke="black" points="870.5,-67.5 870.5,-97.5 980.5,-97.5 980.5,-67.5 870.5,-67.5"/>
<text text-anchor="start" x="878.5" y="-85.5" font-family="Helvetica,sans-Serif" font-size="10.00">packages/types/inc</text>
<text text-anchor="middle" x="925.5" y="-74.5" font-family="Helvetica,sans-Serif" font-size="10.00">/types.hpp</text>
</a>
</g>
</g>
<!-- Node10&#45;&gt;Node11 -->
<g id="edge10" class="edge">
<title>Node10&#45;&gt;Node11</title>
<path fill="none" stroke="midnightblue" d="M929.83,-134.36C929.14,-126.23 928.33,-116.7 927.59,-108.11"/>
<polygon fill="midnightblue" stroke="midnightblue" points="931.06,-107.56 926.72,-97.89 924.09,-108.15 931.06,-107.56"/>
</g>
<!-- Node11&#45;&gt;Node7 -->
<g id="edge11" class="edge">
<title>Node11&#45;&gt;Node7</title>
<path fill="none" stroke="midnightblue" d="M870.17,-70.51C863.87,-69.31 857.55,-68.11 851.5,-67 764.1,-50.91 661.74,-33.62 604.07,-24.02"/>
<polygon fill="midnightblue" stroke="midnightblue" points="604.62,-20.57 594.18,-22.38 603.47,-27.47 604.62,-20.57"/>
</g>
<!-- Node12 -->
<g id="node12" class="node">
<title>Node12</title>
<g id="a_node12"><a xlink:title=" ">
<polygon fill="white" stroke="#bfbfbf" points="850.5,-6 850.5,-25 894.5,-25 894.5,-6 850.5,-6"/>
<text text-anchor="middle" x="872.5" y="-13" font-family="Helvetica,sans-Serif" font-size="10.00">string</text>
</a>
</g>
</g>
<!-- Node11&#45;&gt;Node12 -->
<g id="edge12" class="edge">
<title>Node11&#45;&gt;Node12</title>
<path fill="none" stroke="midnightblue" d="M914,-67.4C905.82,-57.36 894.79,-43.84 886.16,-33.25"/>
<polygon fill="midnightblue" stroke="midnightblue" points="888.62,-30.73 879.59,-25.19 883.2,-35.16 888.62,-30.73"/>
</g>
<!-- Node13 -->
<g id="node13" class="node">
<title>Node13</title>
<g id="a_node13"><a xlink:title=" ">
<polygon fill="white" stroke="#bfbfbf" points="912.5,-0.5 912.5,-30.5 1028.5,-30.5 1028.5,-0.5 912.5,-0.5"/>
<text text-anchor="start" x="920.5" y="-18.5" font-family="Helvetica,sans-Serif" font-size="10.00">packages/traits/impl</text>
<text text-anchor="middle" x="970.5" y="-7.5" font-family="Helvetica,sans-Serif" font-size="10.00">/types_impl.hpp</text>
</a>
</g>
</g>
<!-- Node11&#45;&gt;Node13 -->
<g id="edge13" class="edge">
<title>Node11&#45;&gt;Node13</title>
<path fill="none" stroke="midnightblue" d="M935.26,-67.4C941.04,-59.05 948.49,-48.29 955.05,-38.81"/>
<polygon fill="midnightblue" stroke="midnightblue" points="957.94,-40.79 960.75,-30.58 952.18,-36.81 957.94,-40.79"/>
</g>
<!-- Node14&#45;&gt;Node7 -->
<g id="edge15" class="edge">
<title>Node14&#45;&gt;Node7</title>
<path fill="none" stroke="midnightblue" d="M525.48,-217.73C455.11,-207.58 351.29,-190.4 339.5,-176 281.85,-105.59 436.42,-50.5 515.37,-27.8"/>
<polygon fill="midnightblue" stroke="midnightblue" points="516.39,-31.15 525.06,-25.06 514.49,-24.41 516.39,-31.15"/>
</g>
<!-- Node14&#45;&gt;Node8 -->
<g id="edge16" class="edge">
<title>Node14&#45;&gt;Node8</title>
<path fill="none" stroke="midnightblue" d="M655.55,-220.05C737.59,-211.58 882.89,-195.48 1006.5,-176 1017.31,-174.3 1028.73,-172.29 1039.86,-170.22"/>
<polygon fill="midnightblue" stroke="midnightblue" points="1040.81,-173.6 1049.99,-168.3 1039.51,-166.72 1040.81,-173.6"/>
</g>
<!-- Node14&#45;&gt;Node10 -->
<g id="edge17" class="edge">
<title>Node14&#45;&gt;Node10</title>
<path fill="none" stroke="midnightblue" d="M655.84,-212.99C712.7,-201.24 795.15,-184.19 855.05,-171.81"/>
<polygon fill="midnightblue" stroke="midnightblue" points="856.13,-175.16 865.21,-169.7 854.71,-168.3 856.13,-175.16"/>
</g>
<!-- Node15 -->
<g id="node15" class="node">
<title>Node15</title>
<g id="a_node15"><a target="_parent" xlink:href="../../../cieutils/docs/html/DynamicArray_8hpp.html.html" xlink:title=" ">
<polygon fill="white" stroke="black" points="348,-140 348,-170 479,-170 479,-140 348,-140"/>
<text text-anchor="start" x="356" y="-158" font-family="Helvetica,sans-Serif" font-size="10.00">packages/stl_extension</text>
<text text-anchor="middle" x="413.5" y="-147" font-family="Helvetica,sans-Serif" font-size="10.00">/inc/DynamicArray.hpp</text>
</a>
</g>
</g>
<!-- Node14&#45;&gt;Node15 -->
<g id="edge18" class="edge">
<title>Node14&#45;&gt;Node15</title>
<path fill="none" stroke="midnightblue" d="M555.11,-212.4C527.25,-201.31 488.26,-185.78 458.24,-173.82"/>
<polygon fill="midnightblue" stroke="midnightblue" points="459.42,-170.52 448.83,-170.07 456.83,-177.02 459.42,-170.52"/>
</g>
<!-- Node14&#45;&gt;Node16 -->
<g id="edge19" class="edge">
<title>Node14&#45;&gt;Node16</title>
<path fill="none" stroke="midnightblue" d="M525.19,-217.32C454.06,-206.89 345.14,-189.57 305.5,-176 300.43,-174.26 295.21,-171.92 290.32,-169.46"/>
<polygon fill="midnightblue" stroke="midnightblue" points="291.93,-166.35 281.47,-164.68 288.61,-172.51 291.93,-166.35"/>
</g>
<!-- Node14&#45;&gt;Node17 -->
<g id="edge20" class="edge">
<title>Node14&#45;&gt;Node17</title>
<path fill="none" stroke="midnightblue" d="M639.51,-212.45C669.67,-203.26 708.86,-190.33 742.5,-176 747.14,-174.02 751.99,-171.69 756.6,-169.34"/>
<polygon fill="midnightblue" stroke="midnightblue" points="758.42,-172.34 765.61,-164.56 755.14,-166.15 758.42,-172.34"/>
</g>
<!-- Node18 -->
<g id="node18" class="node">
<title>Node18</title>
<g id="a_node18"><a xlink:title=" ">
<polygon fill="white" stroke="#bfbfbf" points="497.5,-145.5 497.5,-164.5 557.5,-164.5 557.5,-145.5 497.5,-145.5"/>
<text text-anchor="middle" x="527.5" y="-152.5" font-family="Helvetica,sans-Serif" font-size="10.00">concepts</text>
</a>
</g>
</g>
<!-- Node14&#45;&gt;Node18 -->
<g id="edge21" class="edge">
<title>Node14&#45;&gt;Node18</title>
<path fill="none" stroke="midnightblue" d="M577.75,-212.23C567.47,-200.73 552.99,-184.53 542.22,-172.47"/>
<polygon fill="midnightblue" stroke="midnightblue" points="544.72,-170.02 535.45,-164.89 539.5,-174.68 544.72,-170.02"/>
</g>
<!-- Node19 -->
<g id="node19" class="node">
<title>Node19</title>
<g id="a_node19"><a xlink:title=" ">
<polygon fill="white" stroke="#bfbfbf" points="575.5,-140 575.5,-170 733.5,-170 733.5,-140 575.5,-140"/>
<text text-anchor="start" x="583.5" y="-158" font-family="Helvetica,sans-Serif" font-size="10.00">packages/buffer/impl</text>
<text text-anchor="middle" x="654.5" y="-147" font-family="Helvetica,sans-Serif" font-size="10.00">/AttributeContainer_impl.hpp</text>
</a>
</g>
</g>
<!-- Node14&#45;&gt;Node19 -->
<g id="edge22" class="edge">
<title>Node14&#45;&gt;Node19</title>
<path fill="none" stroke="midnightblue" d="M603.45,-212.23C612.39,-202.39 624.44,-189.12 634.59,-177.94"/>
<polygon fill="midnightblue" stroke="midnightblue" points="637.44,-180 641.57,-170.25 632.25,-175.3 637.44,-180"/>
</g>
<!-- Node20&#45;&gt;Node3 -->
<g id="edge26" class="edge">
<title>Node20&#45;&gt;Node3</title>
<path fill="none" stroke="midnightblue" d="M204.09,-279.4C177.54,-269.64 142,-256.59 113.57,-246.15"/>
<polygon fill="midnightblue" stroke="midnightblue" points="114.43,-242.74 103.83,-242.58 112.01,-249.31 114.43,-242.74"/>
</g>
<!-- Node20&#45;&gt;Node7 -->
<g id="edge24" class="edge">
<title>Node20&#45;&gt;Node7</title>
<path fill="none" stroke="midnightblue" d="M237.04,-279.07C226.83,-249.53 208.25,-181 235.5,-134 291.45,-37.49 437.95,-19.27 512.9,-16.47"/>
<polygon fill="midnightblue" stroke="midnightblue" points="513.09,-19.97 522.98,-16.17 512.88,-12.97 513.09,-19.97"/>
</g>
<!-- Node20&#45;&gt;Node14 -->
<g id="edge25" class="edge">
<title>Node20&#45;&gt;Node14</title>
<path fill="none" stroke="midnightblue" d="M296.88,-283.34C355.61,-272.37 449.58,-254.82 515.35,-242.54"/>
<polygon fill="midnightblue" stroke="midnightblue" points="516.06,-245.96 525.25,-240.69 514.78,-239.08 516.06,-245.96"/>
</g>
<!-- Node20&#45;&gt;Node16 -->
<g id="edge28" class="edge">
<title>Node20&#45;&gt;Node16</title>
<path fill="none" stroke="midnightblue" d="M245.08,-279.3C249.62,-254.34 259.03,-202.58 264.1,-174.72"/>
<polygon fill="midnightblue" stroke="midnightblue" points="267.57,-175.17 265.92,-164.7 260.69,-173.91 267.57,-175.17"/>
</g>
<!-- Node21 -->
<g id="node21" class="node">
<title>Node21</title>
<g id="a_node21"><a xlink:title=" ">
<polygon fill="white" stroke="#bfbfbf" points="149.5,-218 149.5,-237 191.5,-237 191.5,-218 149.5,-218"/>
<text text-anchor="middle" x="170.5" y="-225" font-family="Helvetica,sans-Serif" font-size="10.00">array</text>
</a>
</g>
</g>
<!-- Node20&#45;&gt;Node21 -->
<g id="edge27" class="edge">
<title>Node20&#45;&gt;Node21</title>
<path fill="none" stroke="midnightblue" d="M226.88,-279.4C215.32,-268.96 199.58,-254.75 187.67,-244"/>
<polygon fill="midnightblue" stroke="midnightblue" points="189.9,-241.3 180.13,-237.19 185.21,-246.49 189.9,-241.3"/>
</g>
</g>
</svg>
