<?xml version="1.0" encoding="UTF-8" standalone="no"?>
<!DOCTYPE svg PUBLIC "-//W3C//DTD SVG 1.1//EN"
 "http://www.w3.org/Graphics/SVG/1.1/DTD/svg11.dtd">
<!-- Generated by graphviz version 2.43.0 (0)
 -->
<!-- Title: CompoundShape.hpp Pages: 1 -->
<!--zoomable 519 -->
<svg id="main" version="1.1" xmlns="http://www.w3.org/2000/svg" xmlns:xlink="http://www.w3.org/1999/xlink" xml:space="preserve" onload="init(evt)">
<style type="text/css"><![CDATA[
.edge:hover path { stroke: red; }
.edge:hover polygon { stroke: red; fill: red; }
]]></style>
<script type="text/javascript"><![CDATA[
var edges = document.getElementsByTagName('g');
if (edges && edges.length) {
  for (var i=0;i<edges.length;i++) {
    if (edges[i].id.substr(0,4)=='edge') {
      edges[i].setAttribute('class','edge');
    }
  }
}
]]></script>
        <defs>
                <circle id="rim" cx="0" cy="0" r="7"/>
                <circle id="rim2" cx="0" cy="0" r="3.5"/>
                <g id="zoomPlus">
                        <use xlink:href="#rim" fill="#404040">
                                <set attributeName="fill" to="#808080" begin="zoomplus.mouseover" end="zoomplus.mouseout"/>
                        </use>
                        <path d="M-4,0h8M0,-4v8" fill="none" stroke="white" stroke-width="1.5" pointer-events="none"/>
                </g>
                <g id="zoomMin">
                        <use xlink:href="#rim" fill="#404040">
                                <set attributeName="fill" to="#808080" begin="zoomminus.mouseover" end="zoomminus.mouseout"/>
                        </use>
                        <path d="M-4,0h8" fill="none" stroke="white" stroke-width="1.5" pointer-events="none"/>
                </g>
                <g id="dirArrow">
                        <path fill="none" stroke="white" stroke-width="1.5" d="M0,-3.0v7 M-2.5,-0.5L0,-3.0L2.5,-0.5"/>
                </g>
               <g id="resetDef">
                       <use xlink:href="#rim2" fill="#404040">
                               <set attributeName="fill" to="#808080" begin="reset.mouseover" end="reset.mouseout"/>
                       </use>
               </g>
        </defs>

<script type="text/javascript">
var viewWidth = 1367;
var viewHeight = 519;
var sectionId = 'dynsection-0';
</script>
<script xlink:href="svgpan.js"/>
<svg id="graph" class="graph">
<g id="viewport">
<title>CompoundShape.hpp</title>
<polygon fill="white" stroke="transparent" points="-4,4 -4,-515 1362.5,-515 1362.5,4 -4,4"/>
<!-- Node1 -->
<g id="node1" class="node">
<title>Node1</title>
<g id="a_node1"><a xlink:title=" ">
<polygon fill="#bfbfbf" stroke="black" points="638.5,-491.5 638.5,-510.5 758.5,-510.5 758.5,-491.5 638.5,-491.5"/>
<text text-anchor="middle" x="698.5" y="-498.5" font-family="Helvetica,sans-Serif" font-size="10.00">CompoundShape.hpp</text>
</a>
</g>
</g>
<!-- Node2 -->
<g id="node2" class="node">
<title>Node2</title>
<g id="a_node2"><a target="_parent" xlink:href="../../../cieutils/docs/html/container__concepts_8hpp.html.html" xlink:title=" ">
<polygon fill="white" stroke="black" points="0,-413.5 0,-454.5 135,-454.5 135,-413.5 0,-413.5"/>
<text text-anchor="start" x="8" y="-442.5" font-family="Helvetica,sans-Serif" font-size="10.00">packages/compile_time</text>
<text text-anchor="start" x="8" y="-431.5" font-family="Helvetica,sans-Serif" font-size="10.00">/packages/concepts/inc</text>
<text text-anchor="middle" x="67.5" y="-420.5" font-family="Helvetica,sans-Serif" font-size="10.00">/container_concepts.hpp</text>
</a>
</g>
</g>
<!-- Node1&#45;&gt;Node2 -->
<g id="edge1" class="edge">
<title>Node1&#45;&gt;Node2</title>
<path fill="none" stroke="midnightblue" d="M638.42,-498.17C537.03,-494.39 325.8,-483.54 149.5,-455 148.2,-454.79 146.89,-454.57 145.57,-454.34"/>
<polygon fill="midnightblue" stroke="midnightblue" points="145.82,-450.83 135.34,-452.42 144.53,-457.7 145.82,-450.83"/>
</g>
<!-- Node3 -->
<g id="node3" class="node">
<title>Node3</title>
<g id="a_node3"><a xlink:href="GLShape_8hpp.html" target="_top" xlink:title=" ">
<polygon fill="white" stroke="black" points="640,-419 640,-449 757,-449 757,-419 640,-419"/>
<text text-anchor="start" x="648" y="-437" font-family="Helvetica,sans-Serif" font-size="10.00">packages/shapes/inc</text>
<text text-anchor="middle" x="698.5" y="-426" font-family="Helvetica,sans-Serif" font-size="10.00">/GLShape.hpp</text>
</a>
</g>
</g>
<!-- Node1&#45;&gt;Node3 -->
<g id="edge2" class="edge">
<title>Node1&#45;&gt;Node3</title>
<path fill="none" stroke="midnightblue" d="M698.5,-491.23C698.5,-483.04 698.5,-470.42 698.5,-459.21"/>
<polygon fill="midnightblue" stroke="midnightblue" points="702,-459.09 698.5,-449.09 695,-459.09 702,-459.09"/>
</g>
<!-- Node14 -->
<g id="node14" class="node">
<title>Node14</title>
<g id="a_node14"><a xlink:title=" ">
<polygon fill="white" stroke="#bfbfbf" points="1119,-145.5 1119,-164.5 1166,-164.5 1166,-145.5 1119,-145.5"/>
<text text-anchor="middle" x="1142.5" y="-152.5" font-family="Helvetica,sans-Serif" font-size="10.00">vector</text>
</a>
</g>
</g>
<!-- Node1&#45;&gt;Node14 -->
<g id="edge36" class="edge">
<title>Node1&#45;&gt;Node14</title>
<path fill="none" stroke="midnightblue" d="M758.57,-495.55C887.78,-484.32 1180.5,-449.3 1180.5,-362.5 1180.5,-362.5 1180.5,-362.5 1180.5,-293.5 1180.5,-249.31 1162.04,-199.93 1150.85,-174.06"/>
<polygon fill="midnightblue" stroke="midnightblue" points="1153.98,-172.48 1146.71,-164.78 1147.59,-175.33 1153.98,-172.48"/>
</g>
<!-- Node15 -->
<g id="node15" class="node">
<title>Node15</title>
<g id="a_node15"><a xlink:title=" ">
<polygon fill="white" stroke="#bfbfbf" points="236.5,-145.5 236.5,-164.5 294.5,-164.5 294.5,-145.5 236.5,-145.5"/>
<text text-anchor="middle" x="265.5" y="-152.5" font-family="Helvetica,sans-Serif" font-size="10.00">memory</text>
</a>
</g>
</g>
<!-- Node1&#45;&gt;Node15 -->
<g id="edge37" class="edge">
<title>Node1&#45;&gt;Node15</title>
<path fill="none" stroke="midnightblue" d="M638.43,-497.23C498.67,-489.16 163.5,-459.66 163.5,-362.5 163.5,-362.5 163.5,-362.5 163.5,-293.5 163.5,-239.67 214.56,-193.18 244.43,-170.59"/>
<polygon fill="midnightblue" stroke="midnightblue" points="246.58,-173.35 252.58,-164.62 242.45,-167.7 246.58,-173.35"/>
</g>
<!-- Node25 -->
<g id="node25" class="node">
<title>Node25</title>
<g id="a_node25"><a xlink:title=" ">
<polygon fill="white" stroke="#bfbfbf" points="1208.5,-419 1208.5,-449 1358.5,-449 1358.5,-419 1208.5,-419"/>
<text text-anchor="start" x="1216.5" y="-437" font-family="Helvetica,sans-Serif" font-size="10.00">packages/shapes/impl</text>
<text text-anchor="middle" x="1283.5" y="-426" font-family="Helvetica,sans-Serif" font-size="10.00">/CompoundShape_impl.hpp</text>
</a>
</g>
</g>
<!-- Node1&#45;&gt;Node25 -->
<g id="edge38" class="edge">
<title>Node1&#45;&gt;Node25</title>
<path fill="none" stroke="midnightblue" d="M758.75,-497.08C852.4,-491.96 1038.4,-479.51 1194.5,-455 1201.6,-453.89 1208.98,-452.54 1216.31,-451.07"/>
<polygon fill="midnightblue" stroke="midnightblue" points="1217.18,-454.47 1226.26,-449.02 1215.76,-447.61 1217.18,-454.47"/>
</g>
<!-- Node4 -->
<g id="node4" class="node">
<title>Node4</title>
<g id="a_node4"><a xlink:href="AbsGLShape_8hpp.html" target="_top" xlink:title=" ">
<polygon fill="white" stroke="black" points="779,-346.5 779,-376.5 896,-376.5 896,-346.5 779,-346.5"/>
<text text-anchor="start" x="787" y="-364.5" font-family="Helvetica,sans-Serif" font-size="10.00">packages/shapes/inc</text>
<text text-anchor="middle" x="837.5" y="-353.5" font-family="Helvetica,sans-Serif" font-size="10.00">/AbsGLShape.hpp</text>
</a>
</g>
</g>
<!-- Node3&#45;&gt;Node4 -->
<g id="edge3" class="edge">
<title>Node3&#45;&gt;Node4</title>
<path fill="none" stroke="midnightblue" d="M726.29,-418.9C747.7,-408.05 777.47,-392.95 800.83,-381.1"/>
<polygon fill="midnightblue" stroke="midnightblue" points="802.42,-384.22 809.75,-376.57 799.25,-377.97 802.42,-384.22"/>
</g>
<!-- Node20 -->
<g id="node20" class="node">
<title>Node20</title>
<g id="a_node20"><a xlink:href="AbsVertex_8hpp.html" target="_top" xlink:title=" ">
<polygon fill="white" stroke="black" points="507,-346.5 507,-376.5 618,-376.5 618,-346.5 507,-346.5"/>
<text text-anchor="start" x="515" y="-364.5" font-family="Helvetica,sans-Serif" font-size="10.00">packages/buffer/inc</text>
<text text-anchor="middle" x="562.5" y="-353.5" font-family="Helvetica,sans-Serif" font-size="10.00">/AbsVertex.hpp</text>
</a>
</g>
</g>
<!-- Node3&#45;&gt;Node20 -->
<g id="edge24" class="edge">
<title>Node3&#45;&gt;Node20</title>
<path fill="none" stroke="midnightblue" d="M671.31,-418.9C650.46,-408.1 621.49,-393.08 598.69,-381.26"/>
<polygon fill="midnightblue" stroke="midnightblue" points="600.14,-378.07 589.65,-376.57 596.91,-384.28 600.14,-378.07"/>
</g>
<!-- Node24 -->
<g id="node24" class="node">
<title>Node24</title>
<g id="a_node24"><a xlink:title=" ">
<polygon fill="white" stroke="#bfbfbf" points="636,-346.5 636,-376.5 761,-376.5 761,-346.5 636,-346.5"/>
<text text-anchor="start" x="644" y="-364.5" font-family="Helvetica,sans-Serif" font-size="10.00">packages/shapes/impl</text>
<text text-anchor="middle" x="698.5" y="-353.5" font-family="Helvetica,sans-Serif" font-size="10.00">/GLShape_impl.hpp</text>
</a>
</g>
</g>
<!-- Node3&#45;&gt;Node24 -->
<g id="edge35" class="edge">
<title>Node3&#45;&gt;Node24</title>
<path fill="none" stroke="midnightblue" d="M698.5,-418.73C698.5,-409.66 698.5,-397.66 698.5,-387.08"/>
<polygon fill="midnightblue" stroke="midnightblue" points="702,-386.75 698.5,-376.75 695,-386.75 702,-386.75"/>
</g>
<!-- Node5 -->
<g id="node5" class="node">
<title>Node5</title>
<g id="a_node5"><a xlink:href="GLTraits_8hpp.html" target="_top" xlink:title=" ">
<polygon fill="white" stroke="black" points="783.5,-279.5 783.5,-309.5 891.5,-309.5 891.5,-279.5 783.5,-279.5"/>
<text text-anchor="start" x="791.5" y="-297.5" font-family="Helvetica,sans-Serif" font-size="10.00">packages/traits/inc</text>
<text text-anchor="middle" x="837.5" y="-286.5" font-family="Helvetica,sans-Serif" font-size="10.00">/GLTraits.hpp</text>
</a>
</g>
</g>
<!-- Node4&#45;&gt;Node5 -->
<g id="edge4" class="edge">
<title>Node4&#45;&gt;Node5</title>
<path fill="none" stroke="midnightblue" d="M837.5,-346.4C837.5,-338.64 837.5,-328.81 837.5,-319.86"/>
<polygon fill="midnightblue" stroke="midnightblue" points="841,-319.58 837.5,-309.58 834,-319.58 841,-319.58"/>
</g>
<!-- Node4&#45;&gt;Node14 -->
<g id="edge22" class="edge">
<title>Node4&#45;&gt;Node14</title>
<path fill="none" stroke="midnightblue" d="M896.25,-357.77C969.38,-353.09 1088.36,-340.84 1118.5,-310 1154.19,-273.47 1150.3,-207.09 1145.79,-174.74"/>
<polygon fill="midnightblue" stroke="midnightblue" points="1149.24,-174.15 1144.23,-164.82 1142.33,-175.24 1149.24,-174.15"/>
</g>
<!-- Node4&#45;&gt;Node15 -->
<g id="edge23" class="edge">
<title>Node4&#45;&gt;Node15</title>
<path fill="none" stroke="midnightblue" d="M812.06,-346.5C779.51,-328.99 721.04,-298.91 668.5,-279 589.69,-249.14 381.77,-207.24 303.5,-176 298.73,-174.1 293.78,-171.77 289.08,-169.38"/>
<polygon fill="midnightblue" stroke="midnightblue" points="290.43,-166.14 279.96,-164.53 287.14,-172.31 290.43,-166.14"/>
</g>
<!-- Node6 -->
<g id="node6" class="node">
<title>Node6</title>
<g id="a_node6"><a xlink:title=" ">
<polygon fill="white" stroke="#bfbfbf" points="764,-6 764,-25 835,-25 835,-6 764,-6"/>
<text text-anchor="middle" x="799.5" y="-13" font-family="Helvetica,sans-Serif" font-size="10.00">glad/glad.h</text>
</a>
</g>
</g>
<!-- Node5&#45;&gt;Node6 -->
<g id="edge5" class="edge">
<title>Node5&#45;&gt;Node6</title>
<path fill="none" stroke="midnightblue" d="M832.72,-279.22C827.71,-261.27 822.57,-230.59 838.5,-212 901.55,-138.44 990.9,-249.95 1053.5,-176 1065.56,-161.75 1059.38,-151.72 1053.5,-134 1041.79,-98.74 1034.45,-87.55 1003.5,-67 955.52,-35.14 889.15,-23.37 845.31,-19.03"/>
<polygon fill="midnightblue" stroke="midnightblue" points="845.5,-15.53 835.22,-18.12 844.87,-22.5 845.5,-15.53"/>
</g>
<!-- Node7 -->
<g id="node7" class="node">
<title>Node7</title>
<g id="a_node7"><a xlink:href="AttributeContainer_8hpp.html" target="_top" xlink:title=" ">
<polygon fill="white" stroke="black" points="660.5,-212.5 660.5,-242.5 790.5,-242.5 790.5,-212.5 660.5,-212.5"/>
<text text-anchor="start" x="668.5" y="-230.5" font-family="Helvetica,sans-Serif" font-size="10.00">packages/buffer/inc</text>
<text text-anchor="middle" x="725.5" y="-219.5" font-family="Helvetica,sans-Serif" font-size="10.00">/AttributeContainer.hpp</text>
</a>
</g>
</g>
<!-- Node5&#45;&gt;Node7 -->
<g id="edge6" class="edge">
<title>Node5&#45;&gt;Node7</title>
<path fill="none" stroke="midnightblue" d="M813.2,-279.4C797.2,-270.11 776.06,-257.84 758.54,-247.67"/>
<polygon fill="midnightblue" stroke="midnightblue" points="760.16,-244.57 749.75,-242.58 756.65,-250.62 760.16,-244.57"/>
</g>
<!-- Node5&#45;&gt;Node14 -->
<g id="edge21" class="edge">
<title>Node5&#45;&gt;Node14</title>
<path fill="none" stroke="midnightblue" d="M891.93,-288.03C935.97,-281.86 998.5,-269.06 1047.5,-243 1065.26,-233.55 1104.98,-194.42 1127.02,-171.99"/>
<polygon fill="midnightblue" stroke="midnightblue" points="1129.78,-174.16 1134.26,-164.56 1124.77,-169.27 1129.78,-174.16"/>
</g>
<!-- Node18 -->
<g id="node18" class="node">
<title>Node18</title>
<g id="a_node18"><a target="_parent" xlink:href="../../../cieutils/docs/html/StaticArray_8hpp.html.html" xlink:title=" ">
<polygon fill="white" stroke="black" points="847,-212.5 847,-242.5 978,-242.5 978,-212.5 847,-212.5"/>
<text text-anchor="start" x="855" y="-230.5" font-family="Helvetica,sans-Serif" font-size="10.00">packages/stl_extension</text>
<text text-anchor="middle" x="912.5" y="-219.5" font-family="Helvetica,sans-Serif" font-size="10.00">/inc/StaticArray.hpp</text>
</a>
</g>
</g>
<!-- Node5&#45;&gt;Node18 -->
<g id="edge19" class="edge">
<title>Node5&#45;&gt;Node18</title>
<path fill="none" stroke="midnightblue" d="M853.77,-279.4C863.9,-270.62 877.1,-259.18 888.42,-249.37"/>
<polygon fill="midnightblue" stroke="midnightblue" points="890.99,-251.77 896.26,-242.58 886.41,-246.48 890.99,-251.77"/>
</g>
<!-- Node19 -->
<g id="node19" class="node">
<title>Node19</title>
<g id="a_node19"><a xlink:title=" ">
<polygon fill="white" stroke="#bfbfbf" points="996.5,-218 996.5,-237 1038.5,-237 1038.5,-218 996.5,-218"/>
<text text-anchor="middle" x="1017.5" y="-225" font-family="Helvetica,sans-Serif" font-size="10.00">array</text>
</a>
</g>
</g>
<!-- Node5&#45;&gt;Node19 -->
<g id="edge20" class="edge">
<title>Node5&#45;&gt;Node19</title>
<path fill="none" stroke="midnightblue" d="M884.34,-279.4C914.2,-270 953.54,-256.86 987.5,-243 988.87,-242.44 990.27,-241.85 991.68,-241.23"/>
<polygon fill="midnightblue" stroke="midnightblue" points="993.23,-244.37 1000.85,-237.01 990.3,-238.01 993.23,-244.37"/>
</g>
<!-- Node7&#45;&gt;Node6 -->
<g id="edge7" class="edge">
<title>Node7&#45;&gt;Node6</title>
<path fill="none" stroke="midnightblue" d="M790.57,-214.42C795.28,-213.59 799.96,-212.77 804.5,-212 855.28,-203.35 1000.02,-215.15 1033.5,-176 1095.44,-103.56 929.37,-49.36 845.11,-27.32"/>
<polygon fill="midnightblue" stroke="midnightblue" points="845.81,-23.89 835.26,-24.8 844.07,-30.67 845.81,-23.89"/>
</g>
<!-- Node8 -->
<g id="node8" class="node">
<title>Node8</title>
<g id="a_node8"><a target="_parent" xlink:href="../../../cieutils/docs/html/typedefs_8hpp.html.html" xlink:title=" ">
<polygon fill="white" stroke="black" points="501,-140 501,-170 620,-170 620,-140 501,-140"/>
<text text-anchor="start" x="509" y="-158" font-family="Helvetica,sans-Serif" font-size="10.00">packages/macros/inc</text>
<text text-anchor="middle" x="560.5" y="-147" font-family="Helvetica,sans-Serif" font-size="10.00">/typedefs.hpp</text>
</a>
</g>
</g>
<!-- Node7&#45;&gt;Node8 -->
<g id="edge8" class="edge">
<title>Node7&#45;&gt;Node8</title>
<path fill="none" stroke="midnightblue" d="M692.51,-212.4C666.76,-201.4 630.82,-186.04 602.93,-174.13"/>
<polygon fill="midnightblue" stroke="midnightblue" points="604.01,-170.78 593.44,-170.07 601.26,-177.22 604.01,-170.78"/>
</g>
<!-- Node9 -->
<g id="node9" class="node">
<title>Node9</title>
<g id="a_node9"><a target="_parent" xlink:href="../../../cieutils/docs/html/basic__concepts_8hpp.html.html" xlink:title=" ">
<polygon fill="white" stroke="black" points="312.5,-134.5 312.5,-175.5 444.5,-175.5 444.5,-134.5 312.5,-134.5"/>
<text text-anchor="start" x="320.5" y="-163.5" font-family="Helvetica,sans-Serif" font-size="10.00">packages/compile_time</text>
<text text-anchor="start" x="320.5" y="-152.5" font-family="Helvetica,sans-Serif" font-size="10.00">/packages/concepts/inc</text>
<text text-anchor="middle" x="378.5" y="-141.5" font-family="Helvetica,sans-Serif" font-size="10.00">/basic_concepts.hpp</text>
</a>
</g>
</g>
<!-- Node7&#45;&gt;Node9 -->
<g id="edge9" class="edge">
<title>Node7&#45;&gt;Node9</title>
<path fill="none" stroke="midnightblue" d="M660.23,-213.24C601.84,-201.38 516.21,-183.98 454.7,-171.48"/>
<polygon fill="midnightblue" stroke="midnightblue" points="455.15,-168 444.66,-169.44 453.76,-174.86 455.15,-168"/>
</g>
<!-- Node13 -->
<g id="node13" class="node">
<title>Node13</title>
<g id="a_node13"><a target="_parent" xlink:href="../../../cieutils/docs/html/DynamicArray_8hpp.html.html" xlink:title=" ">
<polygon fill="white" stroke="black" points="815,-140 815,-170 946,-170 946,-140 815,-140"/>
<text text-anchor="start" x="823" y="-158" font-family="Helvetica,sans-Serif" font-size="10.00">packages/stl_extension</text>
<text text-anchor="middle" x="880.5" y="-147" font-family="Helvetica,sans-Serif" font-size="10.00">/inc/DynamicArray.hpp</text>
</a>
</g>
</g>
<!-- Node7&#45;&gt;Node13 -->
<g id="edge14" class="edge">
<title>Node7&#45;&gt;Node13</title>
<path fill="none" stroke="midnightblue" d="M756.49,-212.4C780.57,-201.45 814.15,-186.18 840.3,-174.29"/>
<polygon fill="midnightblue" stroke="midnightblue" points="841.91,-177.4 849.56,-170.07 839.01,-171.03 841.91,-177.4"/>
</g>
<!-- Node7&#45;&gt;Node14 -->
<g id="edge15" class="edge">
<title>Node7&#45;&gt;Node14</title>
<path fill="none" stroke="midnightblue" d="M790.55,-217.74C874.29,-206.31 1015.13,-186.53 1066.5,-176 1080.42,-173.15 1095.6,-169.3 1108.7,-165.75"/>
<polygon fill="midnightblue" stroke="midnightblue" points="1109.99,-169.02 1118.7,-162.99 1108.13,-162.28 1109.99,-169.02"/>
</g>
<!-- Node7&#45;&gt;Node15 -->
<g id="edge16" class="edge">
<title>Node7&#45;&gt;Node15</title>
<path fill="none" stroke="midnightblue" d="M660.32,-220.02C550.37,-208.89 336.74,-186.35 303.5,-176 298.29,-174.38 292.96,-172.05 288,-169.56"/>
<polygon fill="midnightblue" stroke="midnightblue" points="289.5,-166.39 279.05,-164.68 286.16,-172.54 289.5,-166.39"/>
</g>
<!-- Node16 -->
<g id="node16" class="node">
<title>Node16</title>
<g id="a_node16"><a xlink:title=" ">
<polygon fill="white" stroke="#bfbfbf" points="964.5,-145.5 964.5,-164.5 1024.5,-164.5 1024.5,-145.5 964.5,-145.5"/>
<text text-anchor="middle" x="994.5" y="-152.5" font-family="Helvetica,sans-Serif" font-size="10.00">concepts</text>
</a>
</g>
</g>
<!-- Node7&#45;&gt;Node16 -->
<g id="edge17" class="edge">
<title>Node7&#45;&gt;Node16</title>
<path fill="none" stroke="midnightblue" d="M790.73,-214.12C847.66,-202.97 925.68,-186.72 955.5,-176 960.65,-174.15 965.98,-171.76 970.99,-169.28"/>
<polygon fill="midnightblue" stroke="midnightblue" points="972.85,-172.26 980.09,-164.52 969.6,-166.06 972.85,-172.26"/>
</g>
<!-- Node17 -->
<g id="node17" class="node">
<title>Node17</title>
<g id="a_node17"><a xlink:title=" ">
<polygon fill="white" stroke="#bfbfbf" points="638.5,-140 638.5,-170 796.5,-170 796.5,-140 638.5,-140"/>
<text text-anchor="start" x="646.5" y="-158" font-family="Helvetica,sans-Serif" font-size="10.00">packages/buffer/impl</text>
<text text-anchor="middle" x="717.5" y="-147" font-family="Helvetica,sans-Serif" font-size="10.00">/AttributeContainer_impl.hpp</text>
</a>
</g>
</g>
<!-- Node7&#45;&gt;Node17 -->
<g id="edge18" class="edge">
<title>Node7&#45;&gt;Node17</title>
<path fill="none" stroke="midnightblue" d="M723.88,-212.23C722.84,-203.06 721.46,-190.91 720.25,-180.24"/>
<polygon fill="midnightblue" stroke="midnightblue" points="723.72,-179.79 719.12,-170.25 716.77,-180.58 723.72,-179.79"/>
</g>
<!-- Node10 -->
<g id="node10" class="node">
<title>Node10</title>
<g id="a_node10"><a xlink:href="types_8hpp.html" target="_top" xlink:title=" ">
<polygon fill="white" stroke="black" points="329.5,-67.5 329.5,-97.5 439.5,-97.5 439.5,-67.5 329.5,-67.5"/>
<text text-anchor="start" x="337.5" y="-85.5" font-family="Helvetica,sans-Serif" font-size="10.00">packages/types/inc</text>
<text text-anchor="middle" x="384.5" y="-74.5" font-family="Helvetica,sans-Serif" font-size="10.00">/types.hpp</text>
</a>
</g>
</g>
<!-- Node9&#45;&gt;Node10 -->
<g id="edge10" class="edge">
<title>Node9&#45;&gt;Node10</title>
<path fill="none" stroke="midnightblue" d="M380.17,-134.36C380.86,-126.23 381.67,-116.7 382.41,-108.11"/>
<polygon fill="midnightblue" stroke="midnightblue" points="385.91,-108.15 383.28,-97.89 378.94,-107.56 385.91,-108.15"/>
</g>
<!-- Node10&#45;&gt;Node6 -->
<g id="edge11" class="edge">
<title>Node10&#45;&gt;Node6</title>
<path fill="none" stroke="midnightblue" d="M439.81,-70.37C446.1,-69.19 452.44,-68.04 458.5,-67 563.75,-48.9 687.97,-31.5 753.56,-22.61"/>
<polygon fill="midnightblue" stroke="midnightblue" points="754.13,-26.07 763.57,-21.26 753.2,-19.13 754.13,-26.07"/>
</g>
<!-- Node11 -->
<g id="node11" class="node">
<title>Node11</title>
<g id="a_node11"><a xlink:title=" ">
<polygon fill="white" stroke="#bfbfbf" points="313.5,-6 313.5,-25 357.5,-25 357.5,-6 313.5,-6"/>
<text text-anchor="middle" x="335.5" y="-13" font-family="Helvetica,sans-Serif" font-size="10.00">string</text>
</a>
</g>
</g>
<!-- Node10&#45;&gt;Node11 -->
<g id="edge12" class="edge">
<title>Node10&#45;&gt;Node11</title>
<path fill="none" stroke="midnightblue" d="M373.87,-67.4C366.3,-57.36 356.11,-43.84 348.13,-33.25"/>
<polygon fill="midnightblue" stroke="midnightblue" points="350.87,-31.07 342.05,-25.19 345.28,-35.29 350.87,-31.07"/>
</g>
<!-- Node12 -->
<g id="node12" class="node">
<title>Node12</title>
<g id="a_node12"><a xlink:title=" ">
<polygon fill="white" stroke="#bfbfbf" points="375.5,-0.5 375.5,-30.5 491.5,-30.5 491.5,-0.5 375.5,-0.5"/>
<text text-anchor="start" x="383.5" y="-18.5" font-family="Helvetica,sans-Serif" font-size="10.00">packages/traits/impl</text>
<text text-anchor="middle" x="433.5" y="-7.5" font-family="Helvetica,sans-Serif" font-size="10.00">/types_impl.hpp</text>
</a>
</g>
</g>
<!-- Node10&#45;&gt;Node12 -->
<g id="edge13" class="edge">
<title>Node10&#45;&gt;Node12</title>
<path fill="none" stroke="midnightblue" d="M395.13,-67.4C401.42,-59.05 409.54,-48.29 416.68,-38.81"/>
<polygon fill="midnightblue" stroke="midnightblue" points="419.66,-40.67 422.89,-30.58 414.07,-36.45 419.66,-40.67"/>
</g>
<!-- Node20&#45;&gt;Node5 -->
<g id="edge30" class="edge">
<title>Node20&#45;&gt;Node5</title>
<path fill="none" stroke="midnightblue" d="M618.15,-347.35C663.13,-336.71 726.49,-321.74 773.55,-310.61"/>
<polygon fill="midnightblue" stroke="midnightblue" points="774.41,-314.01 783.34,-308.3 772.8,-307.2 774.41,-314.01"/>
</g>
<!-- Node20&#45;&gt;Node6 -->
<g id="edge25" class="edge">
<title>Node20&#45;&gt;Node6</title>
<path fill="none" stroke="midnightblue" d="M554.98,-346.22C532.31,-302.31 467.71,-170.03 492.5,-134 551.81,-47.8 683.62,-24.8 753.68,-18.69"/>
<polygon fill="midnightblue" stroke="midnightblue" points="754.26,-22.16 763.96,-17.88 753.71,-15.18 754.26,-22.16"/>
</g>
<!-- Node20&#45;&gt;Node7 -->
<g id="edge29" class="edge">
<title>Node20&#45;&gt;Node7</title>
<path fill="none" stroke="midnightblue" d="M604.14,-346.48C624.97,-338.09 649.68,-325.94 668.5,-310 687.74,-293.71 703.57,-269.5 713.62,-251.7"/>
<polygon fill="midnightblue" stroke="midnightblue" points="716.89,-253.02 718.6,-242.56 710.74,-249.67 716.89,-253.02"/>
</g>
<!-- Node20&#45;&gt;Node8 -->
<g id="edge26" class="edge">
<title>Node20&#45;&gt;Node8</title>
<path fill="none" stroke="midnightblue" d="M562.36,-346.44C562.03,-312.08 561.16,-223.46 560.74,-180.32"/>
<polygon fill="midnightblue" stroke="midnightblue" points="564.24,-180.12 560.64,-170.15 557.24,-180.19 564.24,-180.12"/>
</g>
<!-- Node20&#45;&gt;Node9 -->
<g id="edge28" class="edge">
<title>Node20&#45;&gt;Node9</title>
<path fill="none" stroke="midnightblue" d="M506.9,-360.7C419.66,-359.7 256.83,-352.08 220.5,-310 178,-260.77 261.37,-209.1 322.35,-179.88"/>
<polygon fill="midnightblue" stroke="midnightblue" points="323.98,-182.99 331.54,-175.57 321,-176.65 323.98,-182.99"/>
</g>
<!-- Node20&#45;&gt;Node14 -->
<g id="edge31" class="edge">
<title>Node20&#45;&gt;Node14</title>
<path fill="none" stroke="midnightblue" d="M618.1,-347.76C621.28,-347.14 624.43,-346.54 627.5,-346 830.38,-310.07 915.61,-367.87 1079.5,-243 1104.13,-224.23 1123.32,-193.21 1133.76,-173.72"/>
<polygon fill="midnightblue" stroke="midnightblue" points="1136.93,-175.2 1138.4,-164.71 1130.71,-172 1136.93,-175.2"/>
</g>
<!-- Node20&#45;&gt;Node15 -->
<g id="edge32" class="edge">
<title>Node20&#45;&gt;Node15</title>
<path fill="none" stroke="midnightblue" d="M551.54,-346.26C537.71,-328.9 512.55,-299.39 486.5,-279 469.25,-265.5 344.65,-198.33 290.51,-169.35"/>
<polygon fill="midnightblue" stroke="midnightblue" points="292.02,-166.19 281.55,-164.56 288.72,-172.36 292.02,-166.19"/>
</g>
<!-- Node21 -->
<g id="node21" class="node">
<title>Node21</title>
<g id="a_node21"><a target="_parent" xlink:href="../../../cieutils/docs/html/types_8hpp.html.html" xlink:title=" ">
<polygon fill="white" stroke="black" points="367.5,-279.5 367.5,-309.5 477.5,-309.5 477.5,-279.5 367.5,-279.5"/>
<text text-anchor="start" x="375.5" y="-297.5" font-family="Helvetica,sans-Serif" font-size="10.00">packages/types/inc</text>
<text text-anchor="middle" x="422.5" y="-286.5" font-family="Helvetica,sans-Serif" font-size="10.00">/types.hpp</text>
</a>
</g>
</g>
<!-- Node20&#45;&gt;Node21 -->
<g id="edge27" class="edge">
<title>Node20&#45;&gt;Node21</title>
<path fill="none" stroke="midnightblue" d="M532.12,-346.4C511.57,-336.86 484.24,-324.16 462,-313.84"/>
<polygon fill="midnightblue" stroke="midnightblue" points="463.36,-310.61 452.82,-309.58 460.41,-316.96 463.36,-310.61"/>
</g>
<!-- Node22 -->
<g id="node22" class="node">
<title>Node22</title>
<g id="a_node22"><a xlink:title=" ">
<polygon fill="white" stroke="#bfbfbf" points="609.5,-285 609.5,-304 659.5,-304 659.5,-285 609.5,-285"/>
<text text-anchor="middle" x="634.5" y="-292" font-family="Helvetica,sans-Serif" font-size="10.00">ranges</text>
</a>
</g>
</g>
<!-- Node20&#45;&gt;Node22 -->
<g id="edge33" class="edge">
<title>Node20&#45;&gt;Node22</title>
<path fill="none" stroke="midnightblue" d="M578.12,-346.4C589.68,-335.96 605.42,-321.75 617.33,-311"/>
<polygon fill="midnightblue" stroke="midnightblue" points="619.79,-313.49 624.87,-304.19 615.1,-308.3 619.79,-313.49"/>
</g>
<!-- Node23 -->
<g id="node23" class="node">
<title>Node23</title>
<g id="a_node23"><a xlink:title=" ">
<polygon fill="white" stroke="#bfbfbf" points="230,-279.5 230,-309.5 349,-309.5 349,-279.5 230,-279.5"/>
<text text-anchor="start" x="238" y="-297.5" font-family="Helvetica,sans-Serif" font-size="10.00">packages/buffer/impl</text>
<text text-anchor="middle" x="289.5" y="-286.5" font-family="Helvetica,sans-Serif" font-size="10.00">/AbsVertex_impl.hpp</text>
</a>
</g>
</g>
<!-- Node20&#45;&gt;Node23 -->
<g id="edge34" class="edge">
<title>Node20&#45;&gt;Node23</title>
<path fill="none" stroke="midnightblue" d="M506.93,-347.27C463.93,-337.03 404.18,-322.8 358.19,-311.85"/>
<polygon fill="midnightblue" stroke="midnightblue" points="358.84,-308.41 348.3,-309.5 357.22,-315.22 358.84,-308.41"/>
</g>
</g>
</svg>
        <g id="navigator" transform="translate(0 0)" fill="#404254">
                <rect fill="#f2f5e9" fill-opacity="0.5" stroke="#606060" stroke-width=".5" x="0" y="0" width="60" height="60"/>
                <use id="zoomplus" xlink:href="#zoomPlus" x="17" y="9" onmousedown="handleZoom(evt,'in')"/>
                <use id="zoomminus" xlink:href="#zoomMin" x="42" y="9" onmousedown="handleZoom(evt,'out')"/>
                <use id="reset" xlink:href="#resetDef" x="30" y="36" onmousedown="handleReset()"/>
                <g id="arrowUp" xlink:href="#dirArrow" transform="translate(30 24)" onmousedown="handlePan(0,-1)">
                  <use xlink:href="#rim" fill="#404040">
                        <set attributeName="fill" to="#808080" begin="arrowUp.mouseover" end="arrowUp.mouseout"/>
                  </use>
                  <path fill="none" stroke="white" stroke-width="1.5" d="M0,-3.0v7 M-2.5,-0.5L0,-3.0L2.5,-0.5"/>
                </g>
                <g id="arrowRight" xlink:href="#dirArrow" transform="rotate(90) translate(36 -43)" onmousedown="handlePan(1,0)">
                  <use xlink:href="#rim" fill="#404040">
                        <set attributeName="fill" to="#808080" begin="arrowRight.mouseover" end="arrowRight.mouseout"/>
                  </use>
                  <path fill="none" stroke="white" stroke-width="1.5" d="M0,-3.0v7 M-2.5,-0.5L0,-3.0L2.5,-0.5"/>
                </g>
                <g id="arrowDown" xlink:href="#dirArrow" transform="rotate(180) translate(-30 -48)" onmousedown="handlePan(0,1)">
                  <use xlink:href="#rim" fill="#404040">
                        <set attributeName="fill" to="#808080" begin="arrowDown.mouseover" end="arrowDown.mouseout"/>
                  </use>
                  <path fill="none" stroke="white" stroke-width="1.5" d="M0,-3.0v7 M-2.5,-0.5L0,-3.0L2.5,-0.5"/>
                </g>
                <g id="arrowLeft" xlink:href="#dirArrow" transform="rotate(270) translate(-36 17)" onmousedown="handlePan(-1,0)">
                  <use xlink:href="#rim" fill="#404040">
                        <set attributeName="fill" to="#808080" begin="arrowLeft.mouseover" end="arrowLeft.mouseout"/>
                  </use>
                  <path fill="none" stroke="white" stroke-width="1.5" d="M0,-3.0v7 M-2.5,-0.5L0,-3.0L2.5,-0.5"/>
                </g>
        </g>
        <svg viewBox="0 0 15 15" width="100%" height="30px" preserveAspectRatio="xMaxYMin meet">
         <g id="arrow_out" transform="scale(0.3 0.3)">
          <a xlink:href="CompoundShape_8hpp__incl_org.svg" target="_base">
           <rect id="button" ry="5" rx="5" y="6" x="6" height="38" width="38"
                fill="#f2f5e9" fill-opacity="0.5" stroke="#606060" stroke-width="1.0"/>
           <path id="arrow"
             d="M 11.500037,31.436501 C 11.940474,20.09759 22.043105,11.32322 32.158766,21.979434 L 37.068811,17.246167 C 37.068811,17.246167 37.088388,32 37.088388,32 L 22.160133,31.978069 C 22.160133,31.978069 26.997745,27.140456 26.997745,27.140456 C 18.528582,18.264221 13.291696,25.230495 11.500037,31.436501 z"
             style="fill:#404040;"/>
          </a>
         </g>
        </svg>
</svg>
