<?xml version="1.0" encoding="UTF-8" standalone="no"?>
<!DOCTYPE svg PUBLIC "-//W3C//DTD SVG 1.1//EN"
 "http://www.w3.org/Graphics/SVG/1.1/DTD/svg11.dtd">
<!-- Generated by graphviz version 2.43.0 (0)
 -->
<!-- Title: ControlKey.hpp Pages: 1 -->
<svg width="489pt" height="364pt"
 viewBox="0.00 0.00 488.50 364.00" xmlns="http://www.w3.org/2000/svg" xmlns:xlink="http://www.w3.org/1999/xlink">
<g id="graph0" class="graph" transform="scale(1 1) rotate(0) translate(4 360)">
<title>ControlKey.hpp</title>
<polygon fill="white" stroke="transparent" points="-4,4 -4,-360 484.5,-360 484.5,4 -4,4"/>
<!-- Node1 -->
<g id="node1" class="node">
<title>Node1</title>
<g id="a_node1"><a xlink:title=" ">
<polygon fill="#bfbfbf" stroke="black" points="190,-336.5 190,-355.5 279,-355.5 279,-336.5 190,-336.5"/>
<text text-anchor="middle" x="234.5" y="-343.5" font-family="Helvetica,sans-Serif" font-size="10.00">ControlKey.hpp</text>
</a>
</g>
</g>
<!-- Node2 -->
<g id="node2" class="node">
<title>Node2</title>
<g id="a_node2"><a xlink:href="MappedControls_8hpp.html" target="_top" xlink:title=" ">
<polygon fill="white" stroke="black" points="176,-280.5 176,-299.5 293,-299.5 293,-280.5 176,-280.5"/>
<text text-anchor="middle" x="234.5" y="-287.5" font-family="Helvetica,sans-Serif" font-size="10.00">MappedControls.hpp</text>
</a>
</g>
</g>
<!-- Node1&#45;&gt;Node2 -->
<g id="edge1" class="edge">
<title>Node1&#45;&gt;Node2</title>
<path fill="none" stroke="midnightblue" d="M234.5,-325.8C234.5,-316.91 234.5,-306.78 234.5,-299.75"/>
<polygon fill="midnightblue" stroke="midnightblue" points="231,-326.08 234.5,-336.08 238,-326.08 231,-326.08"/>
</g>
<!-- Node3 -->
<g id="node3" class="node">
<title>Node3</title>
<g id="a_node3"><a xlink:href="MappedCameraControls_8hpp.html" target="_top" xlink:title=" ">
<polygon fill="white" stroke="black" points="157,-224.5 157,-243.5 312,-243.5 312,-224.5 157,-224.5"/>
<text text-anchor="middle" x="234.5" y="-231.5" font-family="Helvetica,sans-Serif" font-size="10.00">MappedCameraControls.hpp</text>
</a>
</g>
</g>
<!-- Node2&#45;&gt;Node3 -->
<g id="edge2" class="edge">
<title>Node2&#45;&gt;Node3</title>
<path fill="none" stroke="midnightblue" d="M234.5,-269.8C234.5,-260.91 234.5,-250.78 234.5,-243.75"/>
<polygon fill="midnightblue" stroke="midnightblue" points="231,-270.08 234.5,-280.08 238,-270.08 231,-270.08"/>
</g>
<!-- Node4 -->
<g id="node4" class="node">
<title>Node4</title>
<g id="a_node4"><a xlink:href="ArcBallCameraControls_8hpp.html" target="_top" xlink:title=" ">
<polygon fill="white" stroke="black" points="0,-168.5 0,-187.5 151,-187.5 151,-168.5 0,-168.5"/>
<text text-anchor="middle" x="75.5" y="-175.5" font-family="Helvetica,sans-Serif" font-size="10.00">ArcBallCameraControls.hpp</text>
</a>
</g>
</g>
<!-- Node3&#45;&gt;Node4 -->
<g id="edge3" class="edge">
<title>Node3&#45;&gt;Node4</title>
<path fill="none" stroke="midnightblue" d="M199.67,-221.17C169.73,-211 127.28,-196.59 100.58,-187.52"/>
<polygon fill="midnightblue" stroke="midnightblue" points="198.71,-224.54 209.31,-224.44 200.96,-217.91 198.71,-224.54"/>
</g>
<!-- Node5 -->
<g id="node5" class="node">
<title>Node5</title>
<g id="a_node5"><a xlink:href="FlyCameraControls_8hpp.html" target="_top" xlink:title=" ">
<polygon fill="white" stroke="black" points="169,-168.5 169,-187.5 300,-187.5 300,-168.5 169,-168.5"/>
<text text-anchor="middle" x="234.5" y="-175.5" font-family="Helvetica,sans-Serif" font-size="10.00">FlyCameraControls.hpp</text>
</a>
</g>
</g>
<!-- Node3&#45;&gt;Node5 -->
<g id="edge4" class="edge">
<title>Node3&#45;&gt;Node5</title>
<path fill="none" stroke="midnightblue" d="M234.5,-213.8C234.5,-204.91 234.5,-194.78 234.5,-187.75"/>
<polygon fill="midnightblue" stroke="midnightblue" points="231,-214.08 234.5,-224.08 238,-214.08 231,-214.08"/>
</g>
<!-- Node6 -->
<g id="node6" class="node">
<title>Node6</title>
<g id="a_node6"><a xlink:href="PanZoomCameraControls_8hpp.html" target="_top" xlink:title=" ">
<polygon fill="white" stroke="black" points="318.5,-168.5 318.5,-187.5 480.5,-187.5 480.5,-168.5 318.5,-168.5"/>
<text text-anchor="middle" x="399.5" y="-175.5" font-family="Helvetica,sans-Serif" font-size="10.00">PanZoomCameraControls.hpp</text>
</a>
</g>
</g>
<!-- Node3&#45;&gt;Node6 -->
<g id="edge5" class="edge">
<title>Node3&#45;&gt;Node6</title>
<path fill="none" stroke="midnightblue" d="M270.24,-221.3C301.33,-211.13 345.65,-196.62 373.48,-187.52"/>
<polygon fill="midnightblue" stroke="midnightblue" points="269.06,-218.01 260.64,-224.44 271.24,-224.66 269.06,-218.01"/>
</g>
<!-- Node7 -->
<g id="node7" class="node">
<title>Node7</title>
<g id="a_node7"><a xlink:href="AbsPlot2_8hpp.html" target="_top" xlink:title=" ">
<polygon fill="white" stroke="black" points="359.5,-112.5 359.5,-131.5 439.5,-131.5 439.5,-112.5 359.5,-112.5"/>
<text text-anchor="middle" x="399.5" y="-119.5" font-family="Helvetica,sans-Serif" font-size="10.00">AbsPlot2.hpp</text>
</a>
</g>
</g>
<!-- Node6&#45;&gt;Node7 -->
<g id="edge6" class="edge">
<title>Node6&#45;&gt;Node7</title>
<path fill="none" stroke="midnightblue" d="M399.5,-157.8C399.5,-148.91 399.5,-138.78 399.5,-131.75"/>
<polygon fill="midnightblue" stroke="midnightblue" points="396,-158.08 399.5,-168.08 403,-158.08 396,-158.08"/>
</g>
<!-- Node8 -->
<g id="node8" class="node">
<title>Node8</title>
<g id="a_node8"><a xlink:href="Plot2_8hpp.html" target="_top" xlink:title=" ">
<polygon fill="white" stroke="black" points="368.5,-56.5 368.5,-75.5 430.5,-75.5 430.5,-56.5 368.5,-56.5"/>
<text text-anchor="middle" x="399.5" y="-63.5" font-family="Helvetica,sans-Serif" font-size="10.00">Plot2.hpp</text>
</a>
</g>
</g>
<!-- Node7&#45;&gt;Node8 -->
<g id="edge7" class="edge">
<title>Node7&#45;&gt;Node8</title>
<path fill="none" stroke="midnightblue" d="M399.5,-101.8C399.5,-92.91 399.5,-82.78 399.5,-75.75"/>
<polygon fill="midnightblue" stroke="midnightblue" points="396,-102.08 399.5,-112.08 403,-102.08 396,-102.08"/>
</g>
<!-- Node9 -->
<g id="node9" class="node">
<title>Node9</title>
<g id="a_node9"><a xlink:href="Plot2__MarchingCubes_8hpp.html" target="_top" xlink:title=" ">
<polygon fill="white" stroke="black" points="328,-0.5 328,-19.5 471,-19.5 471,-0.5 328,-0.5"/>
<text text-anchor="middle" x="399.5" y="-7.5" font-family="Helvetica,sans-Serif" font-size="10.00">Plot2_MarchingCubes.hpp</text>
</a>
</g>
</g>
<!-- Node8&#45;&gt;Node9 -->
<g id="edge8" class="edge">
<title>Node8&#45;&gt;Node9</title>
<path fill="none" stroke="midnightblue" d="M399.5,-45.8C399.5,-36.91 399.5,-26.78 399.5,-19.75"/>
<polygon fill="midnightblue" stroke="midnightblue" points="396,-46.08 399.5,-56.08 403,-46.08 396,-46.08"/>
</g>
</g>
</svg>
