<?xml version="1.0" encoding="UTF-8" standalone="no"?>
<!DOCTYPE svg PUBLIC "-//W3C//DTD SVG 1.1//EN"
 "http://www.w3.org/Graphics/SVG/1.1/DTD/svg11.dtd">
<!-- Generated by graphviz version 2.43.0 (0)
 -->
<!-- Title: ControlKey.hpp Pages: 1 -->
<svg width="433pt" height="162pt"
 viewBox="0.00 0.00 433.00 162.00" xmlns="http://www.w3.org/2000/svg" xmlns:xlink="http://www.w3.org/1999/xlink">
<g id="graph0" class="graph" transform="scale(1 1) rotate(0) translate(4 158)">
<title>ControlKey.hpp</title>
<polygon fill="white" stroke="transparent" points="-4,4 -4,-158 429,-158 429,4 -4,4"/>
<!-- Node1 -->
<g id="node1" class="node">
<title>Node1</title>
<g id="a_node1"><a xlink:title=" ">
<polygon fill="#bfbfbf" stroke="black" points="160.5,-134.5 160.5,-153.5 249.5,-153.5 249.5,-134.5 160.5,-134.5"/>
<text text-anchor="middle" x="205" y="-141.5" font-family="Helvetica,sans-Serif" font-size="10.00">ControlKey.hpp</text>
</a>
</g>
</g>
<!-- Node2 -->
<g id="node2" class="node">
<title>Node2</title>
<g id="a_node2"><a xlink:href="callback__types_8hpp.html" target="_top" xlink:title=" ">
<polygon fill="white" stroke="black" points="17,-67.5 17,-97.5 133,-97.5 133,-67.5 17,-67.5"/>
<text text-anchor="start" x="25" y="-85.5" font-family="Helvetica,sans-Serif" font-size="10.00">packages/control/inc</text>
<text text-anchor="middle" x="75" y="-74.5" font-family="Helvetica,sans-Serif" font-size="10.00">/callback_types.hpp</text>
</a>
</g>
</g>
<!-- Node1&#45;&gt;Node2 -->
<g id="edge1" class="edge">
<title>Node1&#45;&gt;Node2</title>
<path fill="none" stroke="midnightblue" d="M186.37,-134.48C167.78,-125.96 138.62,-112.62 114.8,-101.72"/>
<polygon fill="midnightblue" stroke="midnightblue" points="116.19,-98.5 105.64,-97.52 113.27,-104.87 116.19,-98.5"/>
</g>
<!-- Node4 -->
<g id="node4" class="node">
<title>Node4</title>
<g id="a_node4"><a xlink:title=" ">
<polygon fill="white" stroke="#bfbfbf" points="128.5,-6 128.5,-25 193.5,-25 193.5,-6 128.5,-6"/>
<text text-anchor="middle" x="161" y="-13" font-family="Helvetica,sans-Serif" font-size="10.00">functional</text>
</a>
</g>
</g>
<!-- Node1&#45;&gt;Node4 -->
<g id="edge6" class="edge">
<title>Node1&#45;&gt;Node4</title>
<path fill="none" stroke="midnightblue" d="M199.26,-134.39C193.62,-125.58 185.15,-111.34 180,-98 172.01,-77.29 166.79,-52.28 163.88,-35.47"/>
<polygon fill="midnightblue" stroke="midnightblue" points="167.29,-34.61 162.23,-25.3 160.38,-35.73 167.29,-34.61"/>
</g>
<!-- Node5 -->
<g id="node5" class="node">
<title>Node5</title>
<g id="a_node5"><a xlink:title=" ">
<polygon fill="white" stroke="#bfbfbf" points="189,-73 189,-92 221,-92 221,-73 189,-73"/>
<text text-anchor="middle" x="205" y="-80" font-family="Helvetica,sans-Serif" font-size="10.00">set</text>
</a>
</g>
</g>
<!-- Node1&#45;&gt;Node5 -->
<g id="edge4" class="edge">
<title>Node1&#45;&gt;Node5</title>
<path fill="none" stroke="midnightblue" d="M205,-134.48C205,-126.08 205,-112.98 205,-102.16"/>
<polygon fill="midnightblue" stroke="midnightblue" points="208.5,-102.01 205,-92.01 201.5,-102.01 208.5,-102.01"/>
</g>
<!-- Node6 -->
<g id="node6" class="node">
<title>Node6</title>
<g id="a_node6"><a xlink:title=" ">
<polygon fill="white" stroke="#bfbfbf" points="239,-73 239,-92 283,-92 283,-73 239,-73"/>
<text text-anchor="middle" x="261" y="-80" font-family="Helvetica,sans-Serif" font-size="10.00">string</text>
</a>
</g>
</g>
<!-- Node1&#45;&gt;Node6 -->
<g id="edge5" class="edge">
<title>Node1&#45;&gt;Node6</title>
<path fill="none" stroke="midnightblue" d="M213.02,-134.48C221.59,-125.37 235.36,-110.74 245.96,-99.48"/>
<polygon fill="midnightblue" stroke="midnightblue" points="248.69,-101.69 252.99,-92.01 243.59,-96.89 248.69,-101.69"/>
</g>
<!-- Node7 -->
<g id="node7" class="node">
<title>Node7</title>
<g id="a_node7"><a xlink:title=" ">
<polygon fill="white" stroke="#bfbfbf" points="301,-67.5 301,-97.5 425,-97.5 425,-67.5 301,-67.5"/>
<text text-anchor="start" x="309" y="-85.5" font-family="Helvetica,sans-Serif" font-size="10.00">packages/control/impl</text>
<text text-anchor="middle" x="363" y="-74.5" font-family="Helvetica,sans-Serif" font-size="10.00">/ControlKey_impl.hpp</text>
</a>
</g>
</g>
<!-- Node1&#45;&gt;Node7 -->
<g id="edge7" class="edge">
<title>Node1&#45;&gt;Node7</title>
<path fill="none" stroke="midnightblue" d="M227.64,-134.48C250.64,-125.81 286.93,-112.15 316.15,-101.14"/>
<polygon fill="midnightblue" stroke="midnightblue" points="317.64,-104.32 325.76,-97.52 315.17,-97.77 317.64,-104.32"/>
</g>
<!-- Node3 -->
<g id="node3" class="node">
<title>Node3</title>
<g id="a_node3"><a target="_parent" xlink:href="../../../cieutils/docs/html/types_8hpp.html.html" xlink:title=" ">
<polygon fill="white" stroke="black" points="0,-0.5 0,-30.5 110,-30.5 110,-0.5 0,-0.5"/>
<text text-anchor="start" x="8" y="-18.5" font-family="Helvetica,sans-Serif" font-size="10.00">packages/types/inc</text>
<text text-anchor="middle" x="55" y="-7.5" font-family="Helvetica,sans-Serif" font-size="10.00">/types.hpp</text>
</a>
</g>
</g>
<!-- Node2&#45;&gt;Node3 -->
<g id="edge2" class="edge">
<title>Node2&#45;&gt;Node3</title>
<path fill="none" stroke="midnightblue" d="M70.66,-67.4C68.22,-59.47 65.12,-49.38 62.31,-40.27"/>
<polygon fill="midnightblue" stroke="midnightblue" points="65.62,-39.1 59.33,-30.58 58.93,-41.16 65.62,-39.1"/>
</g>
<!-- Node2&#45;&gt;Node4 -->
<g id="edge3" class="edge">
<title>Node2&#45;&gt;Node4</title>
<path fill="none" stroke="midnightblue" d="M93.66,-67.4C107.73,-56.76 126.99,-42.2 141.31,-31.38"/>
<polygon fill="midnightblue" stroke="midnightblue" points="143.63,-34.02 149.5,-25.19 139.41,-28.43 143.63,-34.02"/>
</g>
</g>
</svg>
