<?xml version="1.0" encoding="UTF-8" standalone="no"?>
<!DOCTYPE svg PUBLIC "-//W3C//DTD SVG 1.1//EN"
 "http://www.w3.org/Graphics/SVG/1.1/DTD/svg11.dtd">
<!-- Generated by graphviz version 2.43.0 (0)
 -->
<!-- Title: GLFWMonitor.hpp Pages: 1 -->
<svg width="454pt" height="296pt"
 viewBox="0.00 0.00 454.00 296.00" xmlns="http://www.w3.org/2000/svg" xmlns:xlink="http://www.w3.org/1999/xlink">
<g id="graph0" class="graph" transform="scale(1 1) rotate(0) translate(4 292)">
<title>GLFWMonitor.hpp</title>
<polygon fill="white" stroke="transparent" points="-4,4 -4,-292 450,-292 450,4 -4,4"/>
<!-- Node1 -->
<g id="node1" class="node">
<title>Node1</title>
<g id="a_node1"><a xlink:title=" ">
<polygon fill="#bfbfbf" stroke="black" points="231,-268.5 231,-287.5 334,-287.5 334,-268.5 231,-268.5"/>
<text text-anchor="middle" x="282.5" y="-275.5" font-family="Helvetica,sans-Serif" font-size="10.00">GLFWMonitor.hpp</text>
</a>
</g>
</g>
<!-- Node2 -->
<g id="node2" class="node">
<title>Node2</title>
<g id="a_node2"><a xlink:title=" ">
<polygon fill="white" stroke="#bfbfbf" points="0,-6 0,-25 71,-25 71,-6 0,-6"/>
<text text-anchor="middle" x="35.5" y="-13" font-family="Helvetica,sans-Serif" font-size="10.00">glad/glad.h</text>
</a>
</g>
</g>
<!-- Node1&#45;&gt;Node2 -->
<g id="edge1" class="edge">
<title>Node1&#45;&gt;Node2</title>
<path fill="none" stroke="midnightblue" d="M230.78,-271.13C195.44,-265.31 148.65,-253.94 112.5,-232 78.07,-211.11 68.03,-201.72 51.5,-165 32.04,-121.77 32.22,-64.56 33.9,-35.37"/>
<polygon fill="midnightblue" stroke="midnightblue" points="37.42,-35.24 34.64,-25.02 30.44,-34.74 37.42,-35.24"/>
</g>
<!-- Node3 -->
<g id="node3" class="node">
<title>Node3</title>
<g id="a_node3"><a xlink:title=" ">
<polygon fill="white" stroke="#bfbfbf" points="122,-207 122,-226 205,-226 205,-207 122,-207"/>
<text text-anchor="middle" x="163.5" y="-214" font-family="Helvetica,sans-Serif" font-size="10.00">GLFW/glfw3.h</text>
</a>
</g>
</g>
<!-- Node1&#45;&gt;Node3 -->
<g id="edge2" class="edge">
<title>Node1&#45;&gt;Node3</title>
<path fill="none" stroke="midnightblue" d="M265.45,-268.48C245.66,-258.58 212.78,-242.14 189.73,-230.62"/>
<polygon fill="midnightblue" stroke="midnightblue" points="191.03,-227.35 180.52,-226.01 187.9,-233.61 191.03,-227.35"/>
</g>
<!-- Node4 -->
<g id="node4" class="node">
<title>Node4</title>
<g id="a_node4"><a xlink:href="AbsMonitor_8hpp.html" target="_top" xlink:title=" ">
<polygon fill="white" stroke="black" points="223,-201.5 223,-231.5 342,-231.5 342,-201.5 223,-201.5"/>
<text text-anchor="start" x="231" y="-219.5" font-family="Helvetica,sans-Serif" font-size="10.00">packages/context/inc</text>
<text text-anchor="middle" x="282.5" y="-208.5" font-family="Helvetica,sans-Serif" font-size="10.00">/AbsMonitor.hpp</text>
</a>
</g>
</g>
<!-- Node1&#45;&gt;Node4 -->
<g id="edge3" class="edge">
<title>Node1&#45;&gt;Node4</title>
<path fill="none" stroke="midnightblue" d="M282.5,-268.48C282.5,-261.47 282.5,-251.19 282.5,-241.7"/>
<polygon fill="midnightblue" stroke="midnightblue" points="286,-241.52 282.5,-231.52 279,-241.52 286,-241.52"/>
</g>
<!-- Node11 -->
<g id="node11" class="node">
<title>Node11</title>
<g id="a_node11"><a xlink:title=" ">
<polygon fill="white" stroke="#bfbfbf" points="380.5,-140 380.5,-159 438.5,-159 438.5,-140 380.5,-140"/>
<text text-anchor="middle" x="409.5" y="-147" font-family="Helvetica,sans-Serif" font-size="10.00">memory</text>
</a>
</g>
</g>
<!-- Node1&#45;&gt;Node11 -->
<g id="edge13" class="edge">
<title>Node1&#45;&gt;Node11</title>
<path fill="none" stroke="midnightblue" d="M299.36,-268.37C314.15,-260.27 335.72,-247.16 351.5,-232 371.5,-212.8 389.11,-185.84 399.54,-168.28"/>
<polygon fill="midnightblue" stroke="midnightblue" points="402.84,-169.56 404.81,-159.15 396.78,-166.06 402.84,-169.56"/>
</g>
<!-- Node12 -->
<g id="node12" class="node">
<title>Node12</title>
<g id="a_node12"><a xlink:title=" ">
<polygon fill="white" stroke="#bfbfbf" points="399,-207 399,-226 446,-226 446,-207 399,-207"/>
<text text-anchor="middle" x="422.5" y="-214" font-family="Helvetica,sans-Serif" font-size="10.00">vector</text>
</a>
</g>
</g>
<!-- Node1&#45;&gt;Node12 -->
<g id="edge12" class="edge">
<title>Node1&#45;&gt;Node12</title>
<path fill="none" stroke="midnightblue" d="M302.56,-268.48C326.26,-258.4 365.91,-241.55 393.08,-230"/>
<polygon fill="midnightblue" stroke="midnightblue" points="394.64,-233.14 402.48,-226.01 391.91,-226.7 394.64,-233.14"/>
</g>
<!-- Node5 -->
<g id="node5" class="node">
<title>Node5</title>
<g id="a_node5"><a target="_parent" xlink:href="../../../cieutils/docs/html/IDObject_8hpp.html.html" xlink:title=" ">
<polygon fill="white" stroke="black" points="60.5,-134.5 60.5,-164.5 170.5,-164.5 170.5,-134.5 60.5,-134.5"/>
<text text-anchor="start" x="68.5" y="-152.5" font-family="Helvetica,sans-Serif" font-size="10.00">packages/types/inc</text>
<text text-anchor="middle" x="115.5" y="-141.5" font-family="Helvetica,sans-Serif" font-size="10.00">/IDObject.hpp</text>
</a>
</g>
</g>
<!-- Node4&#45;&gt;Node5 -->
<g id="edge4" class="edge">
<title>Node4&#45;&gt;Node5</title>
<path fill="none" stroke="midnightblue" d="M246.26,-201.4C221.32,-191.69 187.97,-178.71 161.2,-168.29"/>
<polygon fill="midnightblue" stroke="midnightblue" points="162.25,-164.94 151.67,-164.58 159.72,-171.47 162.25,-164.94"/>
</g>
<!-- Node9 -->
<g id="node9" class="node">
<title>Node9</title>
<g id="a_node9"><a target="_parent" xlink:href="../../../cieutils/docs/html/types_8hpp.html.html" xlink:title=" ">
<polygon fill="white" stroke="black" points="188.5,-134.5 188.5,-164.5 298.5,-164.5 298.5,-134.5 188.5,-134.5"/>
<text text-anchor="start" x="196.5" y="-152.5" font-family="Helvetica,sans-Serif" font-size="10.00">packages/types/inc</text>
<text text-anchor="middle" x="243.5" y="-141.5" font-family="Helvetica,sans-Serif" font-size="10.00">/types.hpp</text>
</a>
</g>
</g>
<!-- Node4&#45;&gt;Node9 -->
<g id="edge9" class="edge">
<title>Node4&#45;&gt;Node9</title>
<path fill="none" stroke="midnightblue" d="M274.04,-201.4C269.13,-193.22 262.84,-182.73 257.24,-173.39"/>
<polygon fill="midnightblue" stroke="midnightblue" points="260.09,-171.35 251.95,-164.58 254.09,-174.95 260.09,-171.35"/>
</g>
<!-- Node10 -->
<g id="node10" class="node">
<title>Node10</title>
<g id="a_node10"><a xlink:title=" ">
<polygon fill="white" stroke="#bfbfbf" points="317,-140 317,-159 362,-159 362,-140 317,-140"/>
<text text-anchor="middle" x="339.5" y="-147" font-family="Helvetica,sans-Serif" font-size="10.00">utility</text>
</a>
</g>
</g>
<!-- Node4&#45;&gt;Node10 -->
<g id="edge10" class="edge">
<title>Node4&#45;&gt;Node10</title>
<path fill="none" stroke="midnightblue" d="M294.87,-201.4C303.76,-191.26 315.76,-177.57 325.09,-166.94"/>
<polygon fill="midnightblue" stroke="midnightblue" points="327.91,-169.02 331.88,-159.19 322.65,-164.41 327.91,-169.02"/>
</g>
<!-- Node4&#45;&gt;Node11 -->
<g id="edge11" class="edge">
<title>Node4&#45;&gt;Node11</title>
<path fill="none" stroke="midnightblue" d="M310.06,-201.4C331.95,-190.19 362.33,-174.64 383.74,-163.69"/>
<polygon fill="midnightblue" stroke="midnightblue" points="385.57,-166.68 392.88,-159.01 382.38,-160.45 385.57,-166.68"/>
</g>
<!-- Node6 -->
<g id="node6" class="node">
<title>Node6</title>
<g id="a_node6"><a xlink:href="types_8hpp.html" target="_top" xlink:title=" ">
<polygon fill="white" stroke="black" points="60.5,-67.5 60.5,-97.5 170.5,-97.5 170.5,-67.5 60.5,-67.5"/>
<text text-anchor="start" x="68.5" y="-85.5" font-family="Helvetica,sans-Serif" font-size="10.00">packages/types/inc</text>
<text text-anchor="middle" x="115.5" y="-74.5" font-family="Helvetica,sans-Serif" font-size="10.00">/types.hpp</text>
</a>
</g>
</g>
<!-- Node5&#45;&gt;Node6 -->
<g id="edge5" class="edge">
<title>Node5&#45;&gt;Node6</title>
<path fill="none" stroke="midnightblue" d="M115.5,-134.4C115.5,-126.64 115.5,-116.81 115.5,-107.86"/>
<polygon fill="midnightblue" stroke="midnightblue" points="119,-107.58 115.5,-97.58 112,-107.58 119,-107.58"/>
</g>
<!-- Node6&#45;&gt;Node2 -->
<g id="edge6" class="edge">
<title>Node6&#45;&gt;Node2</title>
<path fill="none" stroke="midnightblue" d="M98.14,-67.4C85.17,-56.86 67.47,-42.48 54.19,-31.69"/>
<polygon fill="midnightblue" stroke="midnightblue" points="56.17,-28.78 46.2,-25.19 51.76,-34.22 56.17,-28.78"/>
</g>
<!-- Node7 -->
<g id="node7" class="node">
<title>Node7</title>
<g id="a_node7"><a xlink:title=" ">
<polygon fill="white" stroke="#bfbfbf" points="91.5,-6 91.5,-25 135.5,-25 135.5,-6 91.5,-6"/>
<text text-anchor="middle" x="113.5" y="-13" font-family="Helvetica,sans-Serif" font-size="10.00">string</text>
</a>
</g>
</g>
<!-- Node6&#45;&gt;Node7 -->
<g id="edge7" class="edge">
<title>Node6&#45;&gt;Node7</title>
<path fill="none" stroke="midnightblue" d="M115.07,-67.4C114.78,-58.06 114.4,-45.71 114.09,-35.52"/>
<polygon fill="midnightblue" stroke="midnightblue" points="117.57,-35.08 113.77,-25.19 110.58,-35.3 117.57,-35.08"/>
</g>
<!-- Node8 -->
<g id="node8" class="node">
<title>Node8</title>
<g id="a_node8"><a xlink:title=" ">
<polygon fill="white" stroke="#bfbfbf" points="153.5,-0.5 153.5,-30.5 269.5,-30.5 269.5,-0.5 153.5,-0.5"/>
<text text-anchor="start" x="161.5" y="-18.5" font-family="Helvetica,sans-Serif" font-size="10.00">packages/traits/impl</text>
<text text-anchor="middle" x="211.5" y="-7.5" font-family="Helvetica,sans-Serif" font-size="10.00">/types_impl.hpp</text>
</a>
</g>
</g>
<!-- Node6&#45;&gt;Node8 -->
<g id="edge8" class="edge">
<title>Node6&#45;&gt;Node8</title>
<path fill="none" stroke="midnightblue" d="M136.33,-67.4C149.79,-58.28 167.5,-46.29 182.35,-36.24"/>
<polygon fill="midnightblue" stroke="midnightblue" points="184.39,-39.08 190.71,-30.58 180.47,-33.28 184.39,-39.08"/>
</g>
</g>
</svg>
