<?xml version="1.0" encoding="UTF-8" standalone="no"?>
<!DOCTYPE svg PUBLIC "-//W3C//DTD SVG 1.1//EN"
 "http://www.w3.org/Graphics/SVG/1.1/DTD/svg11.dtd">
<!-- Generated by graphviz version 2.43.0 (0)
 -->
<!-- Title: glm_overloads.hpp Pages: 1 -->
<svg width="423pt" height="95pt"
 viewBox="0.00 0.00 422.50 95.00" xmlns="http://www.w3.org/2000/svg" xmlns:xlink="http://www.w3.org/1999/xlink">
<g id="graph0" class="graph" transform="scale(1 1) rotate(0) translate(4 91)">
<title>glm_overloads.hpp</title>
<polygon fill="white" stroke="transparent" points="-4,4 -4,-91 418.5,-91 418.5,4 -4,4"/>
<!-- Node1 -->
<g id="node1" class="node">
<title>Node1</title>
<g id="a_node1"><a xlink:title=" ">
<polygon fill="#bfbfbf" stroke="black" points="163,-67.5 163,-86.5 273,-86.5 273,-67.5 163,-67.5"/>
<text text-anchor="middle" x="218" y="-74.5" font-family="Helvetica,sans-Serif" font-size="10.00">glm_overloads.hpp</text>
</a>
</g>
</g>
<!-- Node2 -->
<g id="node2" class="node">
<title>Node2</title>
<g id="a_node2"><a xlink:title=" ">
<polygon fill="white" stroke="#bfbfbf" points="0,-6 0,-25 140,-25 140,-6 0,-6"/>
<text text-anchor="middle" x="70" y="-13" font-family="Helvetica,sans-Serif" font-size="10.00">glm/detail/type_vec3.hpp</text>
</a>
</g>
</g>
<!-- Node1&#45;&gt;Node2 -->
<g id="edge1" class="edge">
<title>Node1&#45;&gt;Node2</title>
<path fill="none" stroke="midnightblue" d="M196.8,-67.48C171.63,-57.36 129.46,-40.4 100.72,-28.85"/>
<polygon fill="midnightblue" stroke="midnightblue" points="101.75,-25.49 91.17,-25.01 99.14,-31.99 101.75,-25.49"/>
</g>
<!-- Node3 -->
<g id="node3" class="node">
<title>Node3</title>
<g id="a_node3"><a target="_parent" xlink:href="../../../cieutils/docs/html/Loggee_8hpp.html.html" xlink:title=" ">
<polygon fill="white" stroke="black" points="158.5,-0.5 158.5,-30.5 277.5,-30.5 277.5,-0.5 158.5,-0.5"/>
<text text-anchor="start" x="166.5" y="-18.5" font-family="Helvetica,sans-Serif" font-size="10.00">packages/logging/inc</text>
<text text-anchor="middle" x="218" y="-7.5" font-family="Helvetica,sans-Serif" font-size="10.00">/Loggee.hpp</text>
</a>
</g>
</g>
<!-- Node1&#45;&gt;Node3 -->
<g id="edge2" class="edge">
<title>Node1&#45;&gt;Node3</title>
<path fill="none" stroke="midnightblue" d="M218,-67.48C218,-60.47 218,-50.19 218,-40.7"/>
<polygon fill="midnightblue" stroke="midnightblue" points="221.5,-40.52 218,-30.52 214.5,-40.52 221.5,-40.52"/>
</g>
<!-- Node4 -->
<g id="node4" class="node">
<title>Node4</title>
<g id="a_node4"><a xlink:title=" ">
<polygon fill="white" stroke="#bfbfbf" points="295.5,-0.5 295.5,-30.5 414.5,-30.5 414.5,-0.5 295.5,-0.5"/>
<text text-anchor="start" x="303.5" y="-18.5" font-family="Helvetica,sans-Serif" font-size="10.00">packages/utility/impl</text>
<text text-anchor="middle" x="355" y="-7.5" font-family="Helvetica,sans-Serif" font-size="10.00">/glm_overloads.hpp</text>
</a>
</g>
</g>
<!-- Node1&#45;&gt;Node4 -->
<g id="edge3" class="edge">
<title>Node1&#45;&gt;Node4</title>
<path fill="none" stroke="midnightblue" d="M237.63,-67.48C257.31,-58.93 288.22,-45.5 313.39,-34.57"/>
<polygon fill="midnightblue" stroke="midnightblue" points="314.93,-37.72 322.71,-30.52 312.15,-31.3 314.93,-37.72"/>
</g>
</g>
</svg>
