<?xml version="1.0" encoding="UTF-8" standalone="no"?>
<!DOCTYPE svg PUBLIC "-//W3C//DTD SVG 1.1//EN"
 "http://www.w3.org/Graphics/SVG/1.1/DTD/svg11.dtd">
<!-- Generated by graphviz version 2.43.0 (0)
 -->
<!-- Title: GLShape.hpp Pages: 1 -->
<!--zoomable 441 -->
<svg id="main" version="1.1" xmlns="http://www.w3.org/2000/svg" xmlns:xlink="http://www.w3.org/1999/xlink" xml:space="preserve" onload="init(evt)">
<style type="text/css"><![CDATA[
.edge:hover path { stroke: red; }
.edge:hover polygon { stroke: red; fill: red; }
]]></style>
<script type="text/javascript"><![CDATA[
var edges = document.getElementsByTagName('g');
if (edges && edges.length) {
  for (var i=0;i<edges.length;i++) {
    if (edges[i].id.substr(0,4)=='edge') {
      edges[i].setAttribute('class','edge');
    }
  }
}
]]></script>
        <defs>
                <circle id="rim" cx="0" cy="0" r="7"/>
                <circle id="rim2" cx="0" cy="0" r="3.5"/>
                <g id="zoomPlus">
                        <use xlink:href="#rim" fill="#404040">
                                <set attributeName="fill" to="#808080" begin="zoomplus.mouseover" end="zoomplus.mouseout"/>
                        </use>
                        <path d="M-4,0h8M0,-4v8" fill="none" stroke="white" stroke-width="1.5" pointer-events="none"/>
                </g>
                <g id="zoomMin">
                        <use xlink:href="#rim" fill="#404040">
                                <set attributeName="fill" to="#808080" begin="zoomminus.mouseover" end="zoomminus.mouseout"/>
                        </use>
                        <path d="M-4,0h8" fill="none" stroke="white" stroke-width="1.5" pointer-events="none"/>
                </g>
                <g id="dirArrow">
                        <path fill="none" stroke="white" stroke-width="1.5" d="M0,-3.0v7 M-2.5,-0.5L0,-3.0L2.5,-0.5"/>
                </g>
               <g id="resetDef">
                       <use xlink:href="#rim2" fill="#404040">
                               <set attributeName="fill" to="#808080" begin="reset.mouseover" end="reset.mouseout"/>
                       </use>
               </g>
        </defs>

<script type="text/javascript">
var viewWidth = 956;
var viewHeight = 441;
var sectionId = 'dynsection-0';
</script>
<script xlink:href="svgpan.js"/>
<svg id="graph" class="graph">
<g id="viewport">
<title>GLShape.hpp</title>
<polygon fill="white" stroke="transparent" points="-4,4 -4,-437 952.09,-437 952.09,4 -4,4"/>
<!-- Node1 -->
<g id="node1" class="node">
<title>Node1</title>
<g id="a_node1"><a xlink:title=" ">
<polygon fill="#bfbfbf" stroke="black" points="488.59,-413.5 488.59,-432.5 568.59,-432.5 568.59,-413.5 488.59,-413.5"/>
<text text-anchor="middle" x="528.59" y="-420.5" font-family="Helvetica,sans-Serif" font-size="10.00">GLShape.hpp</text>
</a>
</g>
</g>
<!-- Node2 -->
<g id="node2" class="node">
<title>Node2</title>
<g id="a_node2"><a xlink:href="AbsGLShape_8hpp.html" target="_top" xlink:title=" ">
<polygon fill="white" stroke="black" points="167.09,-346.5 167.09,-376.5 284.09,-376.5 284.09,-346.5 167.09,-346.5"/>
<text text-anchor="start" x="175.09" y="-364.5" font-family="Helvetica,sans-Serif" font-size="10.00">packages/shapes/inc</text>
<text text-anchor="middle" x="225.59" y="-353.5" font-family="Helvetica,sans-Serif" font-size="10.00">/AbsGLShape.hpp</text>
</a>
</g>
</g>
<!-- Node1&#45;&gt;Node2 -->
<g id="edge1" class="edge">
<title>Node1&#45;&gt;Node2</title>
<path fill="none" stroke="midnightblue" d="M488.35,-414.1C438.89,-404.39 354.18,-387.75 294.32,-376"/>
<polygon fill="midnightblue" stroke="midnightblue" points="294.69,-372.5 284.2,-374.01 293.34,-379.37 294.69,-372.5"/>
</g>
<!-- Node18 -->
<g id="node18" class="node">
<title>Node18</title>
<g id="a_node18"><a xlink:href="AbsVertex_8hpp.html" target="_top" xlink:title=" ">
<polygon fill="white" stroke="black" points="473.09,-346.5 473.09,-376.5 584.09,-376.5 584.09,-346.5 473.09,-346.5"/>
<text text-anchor="start" x="481.09" y="-364.5" font-family="Helvetica,sans-Serif" font-size="10.00">packages/buffer/inc</text>
<text text-anchor="middle" x="528.59" y="-353.5" font-family="Helvetica,sans-Serif" font-size="10.00">/AbsVertex.hpp</text>
</a>
</g>
</g>
<!-- Node1&#45;&gt;Node18 -->
<g id="edge22" class="edge">
<title>Node1&#45;&gt;Node18</title>
<path fill="none" stroke="midnightblue" d="M528.59,-413.48C528.59,-406.47 528.59,-396.19 528.59,-386.7"/>
<polygon fill="midnightblue" stroke="midnightblue" points="532.09,-386.52 528.59,-376.52 525.09,-386.52 532.09,-386.52"/>
</g>
<!-- Node22 -->
<g id="node22" class="node">
<title>Node22</title>
<g id="a_node22"><a xlink:title=" ">
<polygon fill="white" stroke="#bfbfbf" points="602.09,-346.5 602.09,-376.5 727.09,-376.5 727.09,-346.5 602.09,-346.5"/>
<text text-anchor="start" x="610.09" y="-364.5" font-family="Helvetica,sans-Serif" font-size="10.00">packages/shapes/impl</text>
<text text-anchor="middle" x="664.59" y="-353.5" font-family="Helvetica,sans-Serif" font-size="10.00">/GLShape_impl.hpp</text>
</a>
</g>
</g>
<!-- Node1&#45;&gt;Node22 -->
<g id="edge33" class="edge">
<title>Node1&#45;&gt;Node22</title>
<path fill="none" stroke="midnightblue" d="M548.07,-413.48C567.61,-404.93 598.3,-391.5 623.27,-380.57"/>
<polygon fill="midnightblue" stroke="midnightblue" points="624.77,-383.74 632.53,-376.52 621.97,-377.32 624.77,-383.74"/>
</g>
<!-- Node3 -->
<g id="node3" class="node">
<title>Node3</title>
<g id="a_node3"><a xlink:href="GLTraits_8hpp.html" target="_top" xlink:title=" ">
<polygon fill="white" stroke="black" points="124.59,-279.5 124.59,-309.5 232.59,-309.5 232.59,-279.5 124.59,-279.5"/>
<text text-anchor="start" x="132.59" y="-297.5" font-family="Helvetica,sans-Serif" font-size="10.00">packages/traits/inc</text>
<text text-anchor="middle" x="178.59" y="-286.5" font-family="Helvetica,sans-Serif" font-size="10.00">/GLTraits.hpp</text>
</a>
</g>
</g>
<!-- Node2&#45;&gt;Node3 -->
<g id="edge2" class="edge">
<title>Node2&#45;&gt;Node3</title>
<path fill="none" stroke="midnightblue" d="M215.39,-346.4C209.35,-338.05 201.57,-327.29 194.72,-317.81"/>
<polygon fill="midnightblue" stroke="midnightblue" points="197.46,-315.63 188.76,-309.58 191.79,-319.73 197.46,-315.63"/>
</g>
<!-- Node12 -->
<g id="node12" class="node">
<title>Node12</title>
<g id="a_node12"><a xlink:title=" ">
<polygon fill="white" stroke="#bfbfbf" points="26.09,-145.5 26.09,-164.5 73.09,-164.5 73.09,-145.5 26.09,-145.5"/>
<text text-anchor="middle" x="49.59" y="-152.5" font-family="Helvetica,sans-Serif" font-size="10.00">vector</text>
</a>
</g>
</g>
<!-- Node2&#45;&gt;Node12 -->
<g id="edge20" class="edge">
<title>Node2&#45;&gt;Node12</title>
<path fill="none" stroke="midnightblue" d="M173.02,-346.36C125.3,-330.27 58.41,-298.7 31.59,-243 20.74,-220.49 30.83,-191.63 39.7,-173.47"/>
<polygon fill="midnightblue" stroke="midnightblue" points="42.81,-175.07 44.36,-164.59 36.62,-171.82 42.81,-175.07"/>
</g>
<!-- Node13 -->
<g id="node13" class="node">
<title>Node13</title>
<g id="a_node13"><a xlink:title=" ">
<polygon fill="white" stroke="#bfbfbf" points="96.59,-145.5 96.59,-164.5 154.59,-164.5 154.59,-145.5 96.59,-145.5"/>
<text text-anchor="middle" x="125.59" y="-152.5" font-family="Helvetica,sans-Serif" font-size="10.00">memory</text>
</a>
</g>
</g>
<!-- Node2&#45;&gt;Node13 -->
<g id="edge21" class="edge">
<title>Node2&#45;&gt;Node13</title>
<path fill="none" stroke="midnightblue" d="M234.62,-346.08C251,-317.91 281.44,-254.6 253.59,-212 248,-203.46 194.51,-181.97 158.46,-168.23"/>
<polygon fill="midnightblue" stroke="midnightblue" points="159.41,-164.85 148.82,-164.58 156.93,-171.4 159.41,-164.85"/>
</g>
<!-- Node4 -->
<g id="node4" class="node">
<title>Node4</title>
<g id="a_node4"><a xlink:title=" ">
<polygon fill="white" stroke="#bfbfbf" points="401.09,-6 401.09,-25 472.09,-25 472.09,-6 401.09,-6"/>
<text text-anchor="middle" x="436.59" y="-13" font-family="Helvetica,sans-Serif" font-size="10.00">glad/glad.h</text>
</a>
</g>
</g>
<!-- Node3&#45;&gt;Node4 -->
<g id="edge3" class="edge">
<title>Node3&#45;&gt;Node4</title>
<path fill="none" stroke="midnightblue" d="M124.53,-287.98C93.1,-281.95 55.16,-269.34 31.59,-243 -1.03,-206.56 -11.98,-173.69 16.59,-134 60.74,-72.64 291.55,-35.51 390.96,-22.15"/>
<polygon fill="midnightblue" stroke="midnightblue" points="391.55,-25.6 401.01,-20.82 390.64,-18.66 391.55,-25.6"/>
</g>
<!-- Node5 -->
<g id="node5" class="node">
<title>Node5</title>
<g id="a_node5"><a xlink:href="AttributeContainer_8hpp.html" target="_top" xlink:title=" ">
<polygon fill="white" stroke="black" points="376.59,-212.5 376.59,-242.5 506.59,-242.5 506.59,-212.5 376.59,-212.5"/>
<text text-anchor="start" x="384.59" y="-230.5" font-family="Helvetica,sans-Serif" font-size="10.00">packages/buffer/inc</text>
<text text-anchor="middle" x="441.59" y="-219.5" font-family="Helvetica,sans-Serif" font-size="10.00">/AttributeContainer.hpp</text>
</a>
</g>
</g>
<!-- Node3&#45;&gt;Node5 -->
<g id="edge4" class="edge">
<title>Node3&#45;&gt;Node5</title>
<path fill="none" stroke="midnightblue" d="M232.76,-280.11C274,-269.92 330.98,-255.84 375,-244.96"/>
<polygon fill="midnightblue" stroke="midnightblue" points="375.88,-248.34 384.75,-242.55 374.2,-241.55 375.88,-248.34"/>
</g>
<!-- Node3&#45;&gt;Node12 -->
<g id="edge19" class="edge">
<title>Node3&#45;&gt;Node12</title>
<path fill="none" stroke="midnightblue" d="M124.43,-287.92C95.33,-281.85 61.77,-269.22 43.59,-243 29.53,-222.73 35.79,-193.02 42.21,-174.1"/>
<polygon fill="midnightblue" stroke="midnightblue" points="45.54,-175.18 45.75,-164.59 38.98,-172.74 45.54,-175.18"/>
</g>
<!-- Node16 -->
<g id="node16" class="node">
<title>Node16</title>
<g id="a_node16"><a target="_parent" xlink:href="../../../cieutils/docs/html/StaticArray_8hpp.html.html" xlink:title=" ">
<polygon fill="white" stroke="black" points="113.09,-212.5 113.09,-242.5 244.09,-242.5 244.09,-212.5 113.09,-212.5"/>
<text text-anchor="start" x="121.09" y="-230.5" font-family="Helvetica,sans-Serif" font-size="10.00">packages/stl_extension</text>
<text text-anchor="middle" x="178.59" y="-219.5" font-family="Helvetica,sans-Serif" font-size="10.00">/inc/StaticArray.hpp</text>
</a>
</g>
</g>
<!-- Node3&#45;&gt;Node16 -->
<g id="edge17" class="edge">
<title>Node3&#45;&gt;Node16</title>
<path fill="none" stroke="midnightblue" d="M178.59,-279.4C178.59,-271.64 178.59,-261.81 178.59,-252.86"/>
<polygon fill="midnightblue" stroke="midnightblue" points="182.09,-252.58 178.59,-242.58 175.09,-252.58 182.09,-252.58"/>
</g>
<!-- Node17 -->
<g id="node17" class="node">
<title>Node17</title>
<g id="a_node17"><a xlink:title=" ">
<polygon fill="white" stroke="#bfbfbf" points="52.59,-218 52.59,-237 94.59,-237 94.59,-218 52.59,-218"/>
<text text-anchor="middle" x="73.59" y="-225" font-family="Helvetica,sans-Serif" font-size="10.00">array</text>
</a>
</g>
</g>
<!-- Node3&#45;&gt;Node17 -->
<g id="edge18" class="edge">
<title>Node3&#45;&gt;Node17</title>
<path fill="none" stroke="midnightblue" d="M155.8,-279.4C138.03,-268.39 113.49,-253.2 95.85,-242.28"/>
<polygon fill="midnightblue" stroke="midnightblue" points="97.67,-239.29 87.33,-237.01 93.99,-245.25 97.67,-239.29"/>
</g>
<!-- Node5&#45;&gt;Node4 -->
<g id="edge5" class="edge">
<title>Node5&#45;&gt;Node4</title>
<path fill="none" stroke="midnightblue" d="M376.38,-213.81C306.27,-200.01 204.39,-179.46 201.59,-176 141.35,-101.77 307.12,-48.5 391.13,-27.01"/>
<polygon fill="midnightblue" stroke="midnightblue" points="392.1,-30.37 400.95,-24.55 390.4,-23.58 392.1,-30.37"/>
</g>
<!-- Node6 -->
<g id="node6" class="node">
<title>Node6</title>
<g id="a_node6"><a target="_parent" xlink:href="../../../cieutils/docs/html/typedefs_8hpp.html.html" xlink:title=" ">
<polygon fill="white" stroke="black" points="615.09,-140 615.09,-170 734.09,-170 734.09,-140 615.09,-140"/>
<text text-anchor="start" x="623.09" y="-158" font-family="Helvetica,sans-Serif" font-size="10.00">packages/macros/inc</text>
<text text-anchor="middle" x="674.59" y="-147" font-family="Helvetica,sans-Serif" font-size="10.00">/typedefs.hpp</text>
</a>
</g>
</g>
<!-- Node5&#45;&gt;Node6 -->
<g id="edge6" class="edge">
<title>Node5&#45;&gt;Node6</title>
<path fill="none" stroke="midnightblue" d="M487.9,-212.49C525.41,-201.14 578.41,-185.1 618.36,-173.01"/>
<polygon fill="midnightblue" stroke="midnightblue" points="619.4,-176.35 627.96,-170.11 617.38,-169.65 619.4,-176.35"/>
</g>
<!-- Node7 -->
<g id="node7" class="node">
<title>Node7</title>
<g id="a_node7"><a target="_parent" xlink:href="../../../cieutils/docs/html/basic__concepts_8hpp.html.html" xlink:title=" ">
<polygon fill="white" stroke="black" points="790.59,-134.5 790.59,-175.5 922.59,-175.5 922.59,-134.5 790.59,-134.5"/>
<text text-anchor="start" x="798.59" y="-163.5" font-family="Helvetica,sans-Serif" font-size="10.00">packages/compile_time</text>
<text text-anchor="start" x="798.59" y="-152.5" font-family="Helvetica,sans-Serif" font-size="10.00">/packages/concepts/inc</text>
<text text-anchor="middle" x="856.59" y="-141.5" font-family="Helvetica,sans-Serif" font-size="10.00">/basic_concepts.hpp</text>
</a>
</g>
</g>
<!-- Node5&#45;&gt;Node7 -->
<g id="edge7" class="edge">
<title>Node5&#45;&gt;Node7</title>
<path fill="none" stroke="midnightblue" d="M506.71,-215.79C567.89,-205.69 661.99,-190.04 743.59,-176 755.59,-173.93 768.31,-171.71 780.72,-169.53"/>
<polygon fill="midnightblue" stroke="midnightblue" points="781.34,-172.97 790.58,-167.79 780.12,-166.08 781.34,-172.97"/>
</g>
<!-- Node11 -->
<g id="node11" class="node">
<title>Node11</title>
<g id="a_node11"><a target="_parent" xlink:href="../../../cieutils/docs/html/DynamicArray_8hpp.html.html" xlink:title=" ">
<polygon fill="white" stroke="black" points="211.09,-140 211.09,-170 342.09,-170 342.09,-140 211.09,-140"/>
<text text-anchor="start" x="219.09" y="-158" font-family="Helvetica,sans-Serif" font-size="10.00">packages/stl_extension</text>
<text text-anchor="middle" x="276.59" y="-147" font-family="Helvetica,sans-Serif" font-size="10.00">/inc/DynamicArray.hpp</text>
</a>
</g>
</g>
<!-- Node5&#45;&gt;Node11 -->
<g id="edge12" class="edge">
<title>Node5&#45;&gt;Node11</title>
<path fill="none" stroke="midnightblue" d="M408.59,-212.4C382.85,-201.4 346.9,-186.04 319.02,-174.13"/>
<polygon fill="midnightblue" stroke="midnightblue" points="320.09,-170.78 309.52,-170.07 317.34,-177.22 320.09,-170.78"/>
</g>
<!-- Node5&#45;&gt;Node12 -->
<g id="edge13" class="edge">
<title>Node5&#45;&gt;Node12</title>
<path fill="none" stroke="midnightblue" d="M376.29,-218.41C281.58,-206.49 114.42,-184.69 87.59,-176 82.4,-174.32 77.07,-171.97 72.11,-169.47"/>
<polygon fill="midnightblue" stroke="midnightblue" points="73.62,-166.3 63.16,-164.6 70.28,-172.45 73.62,-166.3"/>
</g>
<!-- Node5&#45;&gt;Node13 -->
<g id="edge14" class="edge">
<title>Node5&#45;&gt;Node13</title>
<path fill="none" stroke="midnightblue" d="M376.58,-214.53C296.23,-199.72 169.84,-176.4 168.59,-176 162.66,-174.11 156.48,-171.59 150.72,-168.98"/>
<polygon fill="midnightblue" stroke="midnightblue" points="152.06,-165.74 141.53,-164.59 149.05,-172.06 152.06,-165.74"/>
</g>
<!-- Node14 -->
<g id="node14" class="node">
<title>Node14</title>
<g id="a_node14"><a xlink:title=" ">
<polygon fill="white" stroke="#bfbfbf" points="360.59,-145.5 360.59,-164.5 420.59,-164.5 420.59,-145.5 360.59,-145.5"/>
<text text-anchor="middle" x="390.59" y="-152.5" font-family="Helvetica,sans-Serif" font-size="10.00">concepts</text>
</a>
</g>
</g>
<!-- Node5&#45;&gt;Node14 -->
<g id="edge15" class="edge">
<title>Node5&#45;&gt;Node14</title>
<path fill="none" stroke="midnightblue" d="M431.26,-212.23C423.1,-200.95 411.67,-185.15 403.01,-173.17"/>
<polygon fill="midnightblue" stroke="midnightblue" points="405.72,-170.94 397.02,-164.89 400.04,-175.05 405.72,-170.94"/>
</g>
<!-- Node15 -->
<g id="node15" class="node">
<title>Node15</title>
<g id="a_node15"><a xlink:title=" ">
<polygon fill="white" stroke="#bfbfbf" points="438.59,-140 438.59,-170 596.59,-170 596.59,-140 438.59,-140"/>
<text text-anchor="start" x="446.59" y="-158" font-family="Helvetica,sans-Serif" font-size="10.00">packages/buffer/impl</text>
<text text-anchor="middle" x="517.59" y="-147" font-family="Helvetica,sans-Serif" font-size="10.00">/AttributeContainer_impl.hpp</text>
</a>
</g>
</g>
<!-- Node5&#45;&gt;Node15 -->
<g id="edge16" class="edge">
<title>Node5&#45;&gt;Node15</title>
<path fill="none" stroke="midnightblue" d="M456.96,-212.23C467.85,-202.13 482.63,-188.42 494.88,-177.07"/>
<polygon fill="midnightblue" stroke="midnightblue" points="497.54,-179.37 502.49,-170 492.78,-174.24 497.54,-179.37"/>
</g>
<!-- Node8 -->
<g id="node8" class="node">
<title>Node8</title>
<g id="a_node8"><a xlink:href="types_8hpp.html" target="_top" xlink:title=" ">
<polygon fill="white" stroke="black" points="795.59,-67.5 795.59,-97.5 905.59,-97.5 905.59,-67.5 795.59,-67.5"/>
<text text-anchor="start" x="803.59" y="-85.5" font-family="Helvetica,sans-Serif" font-size="10.00">packages/types/inc</text>
<text text-anchor="middle" x="850.59" y="-74.5" font-family="Helvetica,sans-Serif" font-size="10.00">/types.hpp</text>
</a>
</g>
</g>
<!-- Node7&#45;&gt;Node8 -->
<g id="edge8" class="edge">
<title>Node7&#45;&gt;Node8</title>
<path fill="none" stroke="midnightblue" d="M854.91,-134.36C854.22,-126.23 853.41,-116.7 852.68,-108.11"/>
<polygon fill="midnightblue" stroke="midnightblue" points="856.15,-107.56 851.81,-97.89 849.17,-108.15 856.15,-107.56"/>
</g>
<!-- Node8&#45;&gt;Node4 -->
<g id="edge9" class="edge">
<title>Node8&#45;&gt;Node4</title>
<path fill="none" stroke="midnightblue" d="M795.28,-70.37C788.98,-69.19 782.65,-68.04 776.59,-67 671.64,-48.93 547.79,-31.52 482.39,-22.62"/>
<polygon fill="midnightblue" stroke="midnightblue" points="482.79,-19.14 472.41,-21.27 481.84,-26.08 482.79,-19.14"/>
</g>
<!-- Node9 -->
<g id="node9" class="node">
<title>Node9</title>
<g id="a_node9"><a xlink:title=" ">
<polygon fill="white" stroke="#bfbfbf" points="877.59,-6 877.59,-25 921.59,-25 921.59,-6 877.59,-6"/>
<text text-anchor="middle" x="899.59" y="-13" font-family="Helvetica,sans-Serif" font-size="10.00">string</text>
</a>
</g>
</g>
<!-- Node8&#45;&gt;Node9 -->
<g id="edge10" class="edge">
<title>Node8&#45;&gt;Node9</title>
<path fill="none" stroke="midnightblue" d="M861.22,-67.4C868.78,-57.36 878.98,-43.84 886.96,-33.25"/>
<polygon fill="midnightblue" stroke="midnightblue" points="889.81,-35.29 893.03,-25.19 884.22,-31.07 889.81,-35.29"/>
</g>
<!-- Node10 -->
<g id="node10" class="node">
<title>Node10</title>
<g id="a_node10"><a xlink:title=" ">
<polygon fill="white" stroke="#bfbfbf" points="743.59,-0.5 743.59,-30.5 859.59,-30.5 859.59,-0.5 743.59,-0.5"/>
<text text-anchor="start" x="751.59" y="-18.5" font-family="Helvetica,sans-Serif" font-size="10.00">packages/traits/impl</text>
<text text-anchor="middle" x="801.59" y="-7.5" font-family="Helvetica,sans-Serif" font-size="10.00">/types_impl.hpp</text>
</a>
</g>
</g>
<!-- Node8&#45;&gt;Node10 -->
<g id="edge11" class="edge">
<title>Node8&#45;&gt;Node10</title>
<path fill="none" stroke="midnightblue" d="M839.95,-67.4C833.66,-59.05 825.55,-48.29 818.4,-38.81"/>
<polygon fill="midnightblue" stroke="midnightblue" points="821.01,-36.45 812.2,-30.58 815.42,-40.67 821.01,-36.45"/>
</g>
<!-- Node18&#45;&gt;Node3 -->
<g id="edge28" class="edge">
<title>Node18&#45;&gt;Node3</title>
<path fill="none" stroke="midnightblue" d="M472.74,-350.13C410.05,-338.49 308.51,-319.63 242.64,-307.4"/>
<polygon fill="midnightblue" stroke="midnightblue" points="243.26,-303.95 232.79,-305.57 241.99,-310.83 243.26,-303.95"/>
</g>
<!-- Node18&#45;&gt;Node4 -->
<g id="edge23" class="edge">
<title>Node18&#45;&gt;Node4</title>
<path fill="none" stroke="midnightblue" d="M584.31,-347.78C647.53,-333.3 742.14,-311.44 743.59,-310 769.86,-283.68 762.59,-265.69 762.59,-228.5 762.59,-228.5 762.59,-228.5 762.59,-154 762.59,-33.76 571.98,-17.01 482.26,-15.78"/>
<polygon fill="midnightblue" stroke="midnightblue" points="482.12,-12.28 472.09,-15.71 482.07,-19.28 482.12,-12.28"/>
</g>
<!-- Node18&#45;&gt;Node5 -->
<g id="edge27" class="edge">
<title>Node18&#45;&gt;Node5</title>
<path fill="none" stroke="midnightblue" d="M519.27,-346.37C504.23,-323.55 474.45,-278.36 456.44,-251.04"/>
<polygon fill="midnightblue" stroke="midnightblue" points="459.25,-248.95 450.83,-242.52 453.41,-252.8 459.25,-248.95"/>
</g>
<!-- Node18&#45;&gt;Node6 -->
<g id="edge24" class="edge">
<title>Node18&#45;&gt;Node6</title>
<path fill="none" stroke="midnightblue" d="M529.46,-346.36C531.03,-329.38 535.42,-300.49 547.59,-279 572.09,-235.73 616.44,-197.96 645.71,-176.07"/>
<polygon fill="midnightblue" stroke="midnightblue" points="647.91,-178.79 653.9,-170.06 643.76,-173.15 647.91,-178.79"/>
</g>
<!-- Node18&#45;&gt;Node7 -->
<g id="edge26" class="edge">
<title>Node18&#45;&gt;Node7</title>
<path fill="none" stroke="midnightblue" d="M584.23,-347.99C587.4,-347.31 590.53,-346.64 593.59,-346 674.71,-328.97 710.24,-359.7 776.59,-310 817.84,-279.09 839.69,-220.7 849.64,-185.37"/>
<polygon fill="midnightblue" stroke="midnightblue" points="853.04,-186.2 852.25,-175.64 846.28,-184.39 853.04,-186.2"/>
</g>
<!-- Node18&#45;&gt;Node12 -->
<g id="edge29" class="edge">
<title>Node18&#45;&gt;Node12</title>
<path fill="none" stroke="midnightblue" d="M493.28,-346.46C470.23,-336.93 439.67,-323.64 413.59,-310 339.68,-271.37 330.98,-243.05 253.59,-212 183.52,-183.89 158.53,-201.82 87.59,-176 82.55,-174.17 77.34,-171.79 72.46,-169.31"/>
<polygon fill="midnightblue" stroke="midnightblue" points="74.07,-166.2 63.6,-164.55 70.75,-172.36 74.07,-166.2"/>
</g>
<!-- Node18&#45;&gt;Node13 -->
<g id="edge30" class="edge">
<title>Node18&#45;&gt;Node13</title>
<path fill="none" stroke="midnightblue" d="M509.17,-346.33C458.46,-309.32 325.87,-212.61 324.59,-212 266.88,-184.74 246.78,-194.1 185.59,-176 177.11,-173.49 168.03,-170.58 159.57,-167.78"/>
<polygon fill="midnightblue" stroke="midnightblue" points="160.58,-164.42 149.99,-164.55 158.35,-171.06 160.58,-164.42"/>
</g>
<!-- Node19 -->
<g id="node19" class="node">
<title>Node19</title>
<g id="a_node19"><a target="_parent" xlink:href="../../../cieutils/docs/html/types_8hpp.html.html" xlink:title=" ">
<polygon fill="white" stroke="black" points="556.59,-279.5 556.59,-309.5 666.59,-309.5 666.59,-279.5 556.59,-279.5"/>
<text text-anchor="start" x="564.59" y="-297.5" font-family="Helvetica,sans-Serif" font-size="10.00">packages/types/inc</text>
<text text-anchor="middle" x="611.59" y="-286.5" font-family="Helvetica,sans-Serif" font-size="10.00">/types.hpp</text>
</a>
</g>
</g>
<!-- Node18&#45;&gt;Node19 -->
<g id="edge25" class="edge">
<title>Node18&#45;&gt;Node19</title>
<path fill="none" stroke="midnightblue" d="M546.59,-346.4C558.02,-337.45 572.97,-325.74 585.66,-315.8"/>
<polygon fill="midnightblue" stroke="midnightblue" points="587.9,-318.5 593.61,-309.58 583.58,-312.99 587.9,-318.5"/>
</g>
<!-- Node20 -->
<g id="node20" class="node">
<title>Node20</title>
<g id="a_node20"><a xlink:title=" ">
<polygon fill="white" stroke="#bfbfbf" points="684.59,-285 684.59,-304 734.59,-304 734.59,-285 684.59,-285"/>
<text text-anchor="middle" x="709.59" y="-292" font-family="Helvetica,sans-Serif" font-size="10.00">ranges</text>
</a>
</g>
</g>
<!-- Node18&#45;&gt;Node20 -->
<g id="edge31" class="edge">
<title>Node18&#45;&gt;Node20</title>
<path fill="none" stroke="midnightblue" d="M572.3,-346.4C601.69,-336.7 641.2,-323.22 675.59,-310 677.23,-309.37 678.92,-308.7 680.61,-308.02"/>
<polygon fill="midnightblue" stroke="midnightblue" points="682.36,-311.08 690.27,-304.02 679.69,-304.62 682.36,-311.08"/>
</g>
<!-- Node21 -->
<g id="node21" class="node">
<title>Node21</title>
<g id="a_node21"><a xlink:title=" ">
<polygon fill="white" stroke="#bfbfbf" points="829.09,-279.5 829.09,-309.5 948.09,-309.5 948.09,-279.5 829.09,-279.5"/>
<text text-anchor="start" x="837.09" y="-297.5" font-family="Helvetica,sans-Serif" font-size="10.00">packages/buffer/impl</text>
<text text-anchor="middle" x="888.59" y="-286.5" font-family="Helvetica,sans-Serif" font-size="10.00">/AbsVertex_impl.hpp</text>
</a>
</g>
</g>
<!-- Node18&#45;&gt;Node21 -->
<g id="edge32" class="edge">
<title>Node18&#45;&gt;Node21</title>
<path fill="none" stroke="midnightblue" d="M584.21,-347.87C587.38,-347.22 590.52,-346.59 593.59,-346 691.3,-327.16 716.63,-327.57 814.59,-310 816.03,-309.74 817.5,-309.47 818.98,-309.21"/>
<polygon fill="midnightblue" stroke="midnightblue" points="819.65,-312.64 828.84,-307.38 818.37,-305.76 819.65,-312.64"/>
</g>
</g>
</svg>
        <g id="navigator" transform="translate(0 0)" fill="#404254">
                <rect fill="#f2f5e9" fill-opacity="0.5" stroke="#606060" stroke-width=".5" x="0" y="0" width="60" height="60"/>
                <use id="zoomplus" xlink:href="#zoomPlus" x="17" y="9" onmousedown="handleZoom(evt,'in')"/>
                <use id="zoomminus" xlink:href="#zoomMin" x="42" y="9" onmousedown="handleZoom(evt,'out')"/>
                <use id="reset" xlink:href="#resetDef" x="30" y="36" onmousedown="handleReset()"/>
                <g id="arrowUp" xlink:href="#dirArrow" transform="translate(30 24)" onmousedown="handlePan(0,-1)">
                  <use xlink:href="#rim" fill="#404040">
                        <set attributeName="fill" to="#808080" begin="arrowUp.mouseover" end="arrowUp.mouseout"/>
                  </use>
                  <path fill="none" stroke="white" stroke-width="1.5" d="M0,-3.0v7 M-2.5,-0.5L0,-3.0L2.5,-0.5"/>
                </g>
                <g id="arrowRight" xlink:href="#dirArrow" transform="rotate(90) translate(36 -43)" onmousedown="handlePan(1,0)">
                  <use xlink:href="#rim" fill="#404040">
                        <set attributeName="fill" to="#808080" begin="arrowRight.mouseover" end="arrowRight.mouseout"/>
                  </use>
                  <path fill="none" stroke="white" stroke-width="1.5" d="M0,-3.0v7 M-2.5,-0.5L0,-3.0L2.5,-0.5"/>
                </g>
                <g id="arrowDown" xlink:href="#dirArrow" transform="rotate(180) translate(-30 -48)" onmousedown="handlePan(0,1)">
                  <use xlink:href="#rim" fill="#404040">
                        <set attributeName="fill" to="#808080" begin="arrowDown.mouseover" end="arrowDown.mouseout"/>
                  </use>
                  <path fill="none" stroke="white" stroke-width="1.5" d="M0,-3.0v7 M-2.5,-0.5L0,-3.0L2.5,-0.5"/>
                </g>
                <g id="arrowLeft" xlink:href="#dirArrow" transform="rotate(270) translate(-36 17)" onmousedown="handlePan(-1,0)">
                  <use xlink:href="#rim" fill="#404040">
                        <set attributeName="fill" to="#808080" begin="arrowLeft.mouseover" end="arrowLeft.mouseout"/>
                  </use>
                  <path fill="none" stroke="white" stroke-width="1.5" d="M0,-3.0v7 M-2.5,-0.5L0,-3.0L2.5,-0.5"/>
                </g>
        </g>
        <svg viewBox="0 0 15 15" width="100%" height="30px" preserveAspectRatio="xMaxYMin meet">
         <g id="arrow_out" transform="scale(0.3 0.3)">
          <a xlink:href="GLShape_8hpp__incl_org.svg" target="_base">
           <rect id="button" ry="5" rx="5" y="6" x="6" height="38" width="38"
                fill="#f2f5e9" fill-opacity="0.5" stroke="#606060" stroke-width="1.0"/>
           <path id="arrow"
             d="M 11.500037,31.436501 C 11.940474,20.09759 22.043105,11.32322 32.158766,21.979434 L 37.068811,17.246167 C 37.068811,17.246167 37.088388,32 37.088388,32 L 22.160133,31.978069 C 22.160133,31.978069 26.997745,27.140456 26.997745,27.140456 C 18.528582,18.264221 13.291696,25.230495 11.500037,31.436501 z"
             style="fill:#404040;"/>
          </a>
         </g>
        </svg>
</svg>
