<?xml version="1.0" encoding="UTF-8" standalone="no"?>
<!DOCTYPE svg PUBLIC "-//W3C//DTD SVG 1.1//EN"
 "http://www.w3.org/Graphics/SVG/1.1/DTD/svg11.dtd">
<!-- Generated by graphviz version 2.43.0 (0)
 -->
<!-- Title: GLTraits.hpp Pages: 1 -->
<svg width="923pt" height="364pt"
 viewBox="0.00 0.00 923.00 364.00" xmlns="http://www.w3.org/2000/svg" xmlns:xlink="http://www.w3.org/1999/xlink">
<g id="graph0" class="graph" transform="scale(1 1) rotate(0) translate(4 360)">
<title>GLTraits.hpp</title>
<polygon fill="white" stroke="transparent" points="-4,4 -4,-360 919,-360 919,4 -4,4"/>
<!-- Node1 -->
<g id="node1" class="node">
<title>Node1</title>
<g id="a_node1"><a xlink:title=" ">
<polygon fill="#bfbfbf" stroke="black" points="330,-336.5 330,-355.5 406,-355.5 406,-336.5 330,-336.5"/>
<text text-anchor="middle" x="368" y="-343.5" font-family="Helvetica,sans-Serif" font-size="10.00">GLTraits.hpp</text>
</a>
</g>
</g>
<!-- Node2 -->
<g id="node2" class="node">
<title>Node2</title>
<g id="a_node2"><a xlink:href="AbsVertex_8hpp.html" target="_top" xlink:title=" ">
<polygon fill="white" stroke="black" points="235.5,-280.5 235.5,-299.5 322.5,-299.5 322.5,-280.5 235.5,-280.5"/>
<text text-anchor="middle" x="279" y="-287.5" font-family="Helvetica,sans-Serif" font-size="10.00">AbsVertex.hpp</text>
</a>
</g>
</g>
<!-- Node1&#45;&gt;Node2 -->
<g id="edge1" class="edge">
<title>Node1&#45;&gt;Node2</title>
<path fill="none" stroke="midnightblue" d="M344.76,-330.9C328.44,-321 307.13,-308.07 293.26,-299.65"/>
<polygon fill="midnightblue" stroke="midnightblue" points="343.34,-334.13 353.7,-336.32 346.97,-328.14 343.34,-334.13"/>
</g>
<!-- Node5 -->
<g id="node5" class="node">
<title>Node5</title>
<g id="a_node5"><a xlink:href="ColoredVertex3_8hpp.html" target="_top" xlink:title=" ">
<polygon fill="white" stroke="black" points="143.5,-112.5 143.5,-131.5 256.5,-131.5 256.5,-112.5 143.5,-112.5"/>
<text text-anchor="middle" x="200" y="-119.5" font-family="Helvetica,sans-Serif" font-size="10.00">ColoredVertex3.hpp</text>
</a>
</g>
</g>
<!-- Node1&#45;&gt;Node5 -->
<g id="edge14" class="edge">
<title>Node1&#45;&gt;Node5</title>
<path fill="none" stroke="midnightblue" d="M372.02,-326.52C378.53,-291.28 387.09,-213.94 349,-168 335.98,-152.29 286.48,-139.46 248.06,-131.57"/>
<polygon fill="midnightblue" stroke="midnightblue" points="368.58,-325.89 370.04,-336.38 375.44,-327.27 368.58,-325.89"/>
</g>
<!-- Node7 -->
<g id="node7" class="node">
<title>Node7</title>
<g id="a_node7"><a xlink:href="Axes3DScene_8hpp.html" target="_top" xlink:title=" ">
<polygon fill="white" stroke="black" points="354,-0.5 354,-19.5 458,-19.5 458,-0.5 354,-0.5"/>
<text text-anchor="middle" x="406" y="-7.5" font-family="Helvetica,sans-Serif" font-size="10.00">Axes3DScene.hpp</text>
</a>
</g>
</g>
<!-- Node1&#45;&gt;Node7 -->
<g id="edge25" class="edge">
<title>Node1&#45;&gt;Node7</title>
<path fill="none" stroke="midnightblue" d="M378.14,-327.43C389.4,-306.24 406,-269.19 406,-235 406,-235 406,-235 406,-121 406,-83.19 406,-38.06 406,-19.56"/>
<polygon fill="midnightblue" stroke="midnightblue" points="375.05,-325.78 373.28,-336.23 381.18,-329.17 375.05,-325.78"/>
</g>
<!-- Node14 -->
<g id="node14" class="node">
<title>Node14</title>
<g id="a_node14"><a xlink:href="Part_8hpp.html" target="_top" xlink:title=" ">
<polygon fill="white" stroke="black" points="566,-280.5 566,-299.5 622,-299.5 622,-280.5 566,-280.5"/>
<text text-anchor="middle" x="594" y="-287.5" font-family="Helvetica,sans-Serif" font-size="10.00">Part.hpp</text>
</a>
</g>
</g>
<!-- Node1&#45;&gt;Node14 -->
<g id="edge15" class="edge">
<title>Node1&#45;&gt;Node14</title>
<path fill="none" stroke="midnightblue" d="M413.73,-334.07C459.27,-323.19 527.75,-306.83 565.85,-297.73"/>
<polygon fill="midnightblue" stroke="midnightblue" points="412.72,-330.72 403.81,-336.44 414.35,-337.52 412.72,-330.72"/>
</g>
<!-- Node23 -->
<g id="node23" class="node">
<title>Node23</title>
<g id="a_node23"><a xlink:href="AbsGLShape_8hpp.html" target="_top" xlink:title=" ">
<polygon fill="white" stroke="black" points="85,-280.5 85,-299.5 183,-299.5 183,-280.5 85,-280.5"/>
<text text-anchor="middle" x="134" y="-287.5" font-family="Helvetica,sans-Serif" font-size="10.00">AbsGLShape.hpp</text>
</a>
</g>
</g>
<!-- Node1&#45;&gt;Node23 -->
<g id="edge26" class="edge">
<title>Node1&#45;&gt;Node23</title>
<path fill="none" stroke="midnightblue" d="M321,-334.15C276.78,-323.95 211.48,-308.88 170.9,-299.52"/>
<polygon fill="midnightblue" stroke="midnightblue" points="320.39,-337.61 330.92,-336.44 321.97,-330.78 320.39,-337.61"/>
</g>
<!-- Node3 -->
<g id="node3" class="node">
<title>Node3</title>
<g id="a_node3"><a xlink:href="Vertex2_8hpp.html" target="_top" xlink:title=" ">
<polygon fill="white" stroke="black" points="241.5,-224.5 241.5,-243.5 316.5,-243.5 316.5,-224.5 241.5,-224.5"/>
<text text-anchor="middle" x="279" y="-231.5" font-family="Helvetica,sans-Serif" font-size="10.00">Vertex2.hpp</text>
</a>
</g>
</g>
<!-- Node2&#45;&gt;Node3 -->
<g id="edge2" class="edge">
<title>Node2&#45;&gt;Node3</title>
<path fill="none" stroke="midnightblue" d="M279,-269.8C279,-260.91 279,-250.78 279,-243.75"/>
<polygon fill="midnightblue" stroke="midnightblue" points="275.5,-270.08 279,-280.08 282.5,-270.08 275.5,-270.08"/>
</g>
<!-- Node11 -->
<g id="node11" class="node">
<title>Node11</title>
<g id="a_node11"><a xlink:href="GLShape_8hpp.html" target="_top" xlink:title=" ">
<polygon fill="white" stroke="black" points="85,-224.5 85,-243.5 165,-243.5 165,-224.5 85,-224.5"/>
<text text-anchor="middle" x="125" y="-231.5" font-family="Helvetica,sans-Serif" font-size="10.00">GLShape.hpp</text>
</a>
</g>
</g>
<!-- Node2&#45;&gt;Node11 -->
<g id="edge10" class="edge">
<title>Node2&#45;&gt;Node11</title>
<path fill="none" stroke="midnightblue" d="M244.89,-277.04C215.91,-266.88 175.04,-252.55 149.29,-243.52"/>
<polygon fill="midnightblue" stroke="midnightblue" points="244,-280.44 254.6,-280.44 246.32,-273.83 244,-280.44"/>
</g>
<!-- Node4 -->
<g id="node4" class="node">
<title>Node4</title>
<g id="a_node4"><a xlink:href="Vertex3_8hpp.html" target="_top" xlink:title=" ">
<polygon fill="white" stroke="black" points="166.5,-168.5 166.5,-187.5 241.5,-187.5 241.5,-168.5 166.5,-168.5"/>
<text text-anchor="middle" x="204" y="-175.5" font-family="Helvetica,sans-Serif" font-size="10.00">Vertex3.hpp</text>
</a>
</g>
</g>
<!-- Node3&#45;&gt;Node4 -->
<g id="edge3" class="edge">
<title>Node3&#45;&gt;Node4</title>
<path fill="none" stroke="midnightblue" d="M258.69,-218.38C245.14,-208.62 227.76,-196.11 216.27,-187.83"/>
<polygon fill="midnightblue" stroke="midnightblue" points="256.79,-221.32 266.95,-224.32 260.88,-215.64 256.79,-221.32"/>
</g>
<!-- Node8 -->
<g id="node8" class="node">
<title>Node8</title>
<g id="a_node8"><a xlink:href="AbsPlot2_8hpp.html" target="_top" xlink:title=" ">
<polygon fill="white" stroke="black" points="260,-168.5 260,-187.5 340,-187.5 340,-168.5 260,-168.5"/>
<text text-anchor="middle" x="300" y="-175.5" font-family="Helvetica,sans-Serif" font-size="10.00">AbsPlot2.hpp</text>
</a>
</g>
</g>
<!-- Node3&#45;&gt;Node8 -->
<g id="edge7" class="edge">
<title>Node3&#45;&gt;Node8</title>
<path fill="none" stroke="midnightblue" d="M286.12,-214.69C289.66,-205.59 293.77,-195.01 296.6,-187.75"/>
<polygon fill="midnightblue" stroke="midnightblue" points="282.83,-213.49 282.47,-224.08 289.35,-216.03 282.83,-213.49"/>
</g>
<!-- Node4&#45;&gt;Node5 -->
<g id="edge4" class="edge">
<title>Node4&#45;&gt;Node5</title>
<path fill="none" stroke="midnightblue" d="M202.6,-158.1C201.94,-149.14 201.17,-138.86 200.65,-131.75"/>
<polygon fill="midnightblue" stroke="midnightblue" points="199.11,-158.37 203.34,-168.08 206.09,-157.85 199.11,-158.37"/>
</g>
<!-- Node6 -->
<g id="node6" class="node">
<title>Node6</title>
<g id="a_node6"><a xlink:href="Axes_8hpp.html" target="_top" xlink:title=" ">
<polygon fill="white" stroke="black" points="155.5,-56.5 155.5,-75.5 216.5,-75.5 216.5,-56.5 155.5,-56.5"/>
<text text-anchor="middle" x="186" y="-63.5" font-family="Helvetica,sans-Serif" font-size="10.00">Axes.hpp</text>
</a>
</g>
</g>
<!-- Node5&#45;&gt;Node6 -->
<g id="edge5" class="edge">
<title>Node5&#45;&gt;Node6</title>
<path fill="none" stroke="midnightblue" d="M195.18,-102.4C192.83,-93.36 190.13,-82.94 188.27,-75.75"/>
<polygon fill="midnightblue" stroke="midnightblue" points="191.79,-103.28 197.69,-112.08 198.57,-101.52 191.79,-103.28"/>
</g>
<!-- Node6&#45;&gt;Node7 -->
<g id="edge6" class="edge">
<title>Node6&#45;&gt;Node7</title>
<path fill="none" stroke="midnightblue" d="M226.38,-55.09C267.94,-44.89 331.99,-29.17 371.32,-19.51"/>
<polygon fill="midnightblue" stroke="midnightblue" points="225.47,-51.71 216.59,-57.49 227.14,-58.51 225.47,-51.71"/>
</g>
<!-- Node9 -->
<g id="node9" class="node">
<title>Node9</title>
<g id="a_node9"><a xlink:href="Plot2_8hpp.html" target="_top" xlink:title=" ">
<polygon fill="white" stroke="black" points="275,-112.5 275,-131.5 337,-131.5 337,-112.5 275,-112.5"/>
<text text-anchor="middle" x="306" y="-119.5" font-family="Helvetica,sans-Serif" font-size="10.00">Plot2.hpp</text>
</a>
</g>
</g>
<!-- Node8&#45;&gt;Node9 -->
<g id="edge8" class="edge">
<title>Node8&#45;&gt;Node9</title>
<path fill="none" stroke="midnightblue" d="M302.1,-158.1C303.1,-149.14 304.24,-138.86 305.03,-131.75"/>
<polygon fill="midnightblue" stroke="midnightblue" points="298.62,-157.76 300.99,-168.08 305.57,-158.53 298.62,-157.76"/>
</g>
<!-- Node10 -->
<g id="node10" class="node">
<title>Node10</title>
<g id="a_node10"><a xlink:href="Plot2__MarchingCubes_8hpp.html" target="_top" xlink:title=" ">
<polygon fill="white" stroke="black" points="234.5,-56.5 234.5,-75.5 377.5,-75.5 377.5,-56.5 234.5,-56.5"/>
<text text-anchor="middle" x="306" y="-63.5" font-family="Helvetica,sans-Serif" font-size="10.00">Plot2_MarchingCubes.hpp</text>
</a>
</g>
</g>
<!-- Node9&#45;&gt;Node10 -->
<g id="edge9" class="edge">
<title>Node9&#45;&gt;Node10</title>
<path fill="none" stroke="midnightblue" d="M306,-101.8C306,-92.91 306,-82.78 306,-75.75"/>
<polygon fill="midnightblue" stroke="midnightblue" points="302.5,-102.08 306,-112.08 309.5,-102.08 302.5,-102.08"/>
</g>
<!-- Node12 -->
<g id="node12" class="node">
<title>Node12</title>
<g id="a_node12"><a xlink:href="Arrow_8hpp.html" target="_top" xlink:title=" ">
<polygon fill="white" stroke="black" points="83.5,-168.5 83.5,-187.5 148.5,-187.5 148.5,-168.5 83.5,-168.5"/>
<text text-anchor="middle" x="116" y="-175.5" font-family="Helvetica,sans-Serif" font-size="10.00">Arrow.hpp</text>
</a>
</g>
</g>
<!-- Node11&#45;&gt;Node12 -->
<g id="edge11" class="edge">
<title>Node11&#45;&gt;Node12</title>
<path fill="none" stroke="midnightblue" d="M121.85,-214.1C120.36,-205.14 118.64,-194.86 117.46,-187.75"/>
<polygon fill="midnightblue" stroke="midnightblue" points="118.42,-214.79 123.51,-224.08 125.32,-213.64 118.42,-214.79"/>
</g>
<!-- Node13 -->
<g id="node13" class="node">
<title>Node13</title>
<g id="a_node13"><a xlink:href="CompoundShape_8hpp.html" target="_top" xlink:title=" ">
<polygon fill="white" stroke="black" points="0,-112.5 0,-131.5 120,-131.5 120,-112.5 0,-112.5"/>
<text text-anchor="middle" x="60" y="-119.5" font-family="Helvetica,sans-Serif" font-size="10.00">CompoundShape.hpp</text>
</a>
</g>
</g>
<!-- Node11&#45;&gt;Node13 -->
<g id="edge12" class="edge">
<title>Node11&#45;&gt;Node13</title>
<path fill="none" stroke="midnightblue" d="M102.85,-218.5C92.57,-210.66 81.09,-200.1 74,-188 63.38,-169.87 60.78,-144.67 60.17,-131.61"/>
<polygon fill="midnightblue" stroke="midnightblue" points="100.92,-221.42 111.08,-224.42 105.01,-215.74 100.92,-221.42"/>
</g>
<!-- Node13&#45;&gt;Node6 -->
<g id="edge13" class="edge">
<title>Node13&#45;&gt;Node6</title>
<path fill="none" stroke="midnightblue" d="M89.16,-108.5C112.78,-98.38 145.43,-84.39 166.13,-75.52"/>
<polygon fill="midnightblue" stroke="midnightblue" points="87.78,-105.29 79.97,-112.44 90.54,-111.72 87.78,-105.29"/>
</g>
<!-- Node15 -->
<g id="node15" class="node">
<title>Node15</title>
<g id="a_node15"><a xlink:href="GenericPart_8hpp.html" target="_top" xlink:title=" ">
<polygon fill="white" stroke="black" points="547,-224.5 547,-243.5 641,-243.5 641,-224.5 547,-224.5"/>
<text text-anchor="middle" x="594" y="-231.5" font-family="Helvetica,sans-Serif" font-size="10.00">GenericPart.hpp</text>
</a>
</g>
</g>
<!-- Node14&#45;&gt;Node15 -->
<g id="edge16" class="edge">
<title>Node14&#45;&gt;Node15</title>
<path fill="none" stroke="midnightblue" d="M594,-269.8C594,-260.91 594,-250.78 594,-243.75"/>
<polygon fill="midnightblue" stroke="midnightblue" points="590.5,-270.08 594,-280.08 597.5,-270.08 590.5,-270.08"/>
</g>
<!-- Node16 -->
<g id="node16" class="node">
<title>Node16</title>
<g id="a_node16"><a xlink:href="Line2DPart_8hpp.html" target="_top" xlink:title=" ">
<polygon fill="white" stroke="black" points="659,-224.5 659,-243.5 749,-243.5 749,-224.5 659,-224.5"/>
<text text-anchor="middle" x="704" y="-231.5" font-family="Helvetica,sans-Serif" font-size="10.00">Line2DPart.hpp</text>
</a>
</g>
</g>
<!-- Node14&#45;&gt;Node16 -->
<g id="edge17" class="edge">
<title>Node14&#45;&gt;Node16</title>
<path fill="none" stroke="midnightblue" d="M620.76,-275.86C641.16,-265.85 668.67,-252.35 686.37,-243.65"/>
<polygon fill="midnightblue" stroke="midnightblue" points="619.11,-272.78 611.67,-280.32 622.19,-279.06 619.11,-272.78"/>
</g>
<!-- Node17 -->
<g id="node17" class="node">
<title>Node17</title>
<g id="a_node17"><a xlink:href="Triangulated3DPart_8hpp.html" target="_top" xlink:title=" ">
<polygon fill="white" stroke="black" points="767,-224.5 767,-243.5 897,-243.5 897,-224.5 767,-224.5"/>
<text text-anchor="middle" x="832" y="-231.5" font-family="Helvetica,sans-Serif" font-size="10.00">Triangulated3DPart.hpp</text>
</a>
</g>
</g>
<!-- Node14&#45;&gt;Node17 -->
<g id="edge18" class="edge">
<title>Node14&#45;&gt;Node17</title>
<path fill="none" stroke="midnightblue" d="M632.1,-280.35C676.69,-270.24 750.05,-253.59 794.41,-243.53"/>
<polygon fill="midnightblue" stroke="midnightblue" points="631.21,-276.97 622.24,-282.59 632.76,-283.79 631.21,-276.97"/>
</g>
<!-- Node20 -->
<g id="node20" class="node">
<title>Node20</title>
<g id="a_node20"><a xlink:href="PartScene_8hpp.html" target="_top" xlink:title=" ">
<polygon fill="white" stroke="black" points="443,-224.5 443,-243.5 529,-243.5 529,-224.5 443,-224.5"/>
<text text-anchor="middle" x="486" y="-231.5" font-family="Helvetica,sans-Serif" font-size="10.00">PartScene.hpp</text>
</a>
</g>
</g>
<!-- Node14&#45;&gt;Node20 -->
<g id="edge21" class="edge">
<title>Node14&#45;&gt;Node20</title>
<path fill="none" stroke="midnightblue" d="M567.45,-275.73C547.45,-265.73 520.61,-252.31 503.31,-243.65"/>
<polygon fill="midnightblue" stroke="midnightblue" points="566.14,-278.98 576.65,-280.32 569.27,-272.72 566.14,-278.98"/>
</g>
<!-- Node18 -->
<g id="node18" class="node">
<title>Node18</title>
<g id="a_node18"><a xlink:href="ObjPart_8hpp.html" target="_top" xlink:title=" ">
<polygon fill="white" stroke="black" points="749.5,-168.5 749.5,-187.5 822.5,-187.5 822.5,-168.5 749.5,-168.5"/>
<text text-anchor="middle" x="786" y="-175.5" font-family="Helvetica,sans-Serif" font-size="10.00">ObjPart.hpp</text>
</a>
</g>
</g>
<!-- Node17&#45;&gt;Node18 -->
<g id="edge19" class="edge">
<title>Node17&#45;&gt;Node18</title>
<path fill="none" stroke="midnightblue" d="M817.89,-216.43C809.82,-206.97 800.04,-195.48 793.45,-187.75"/>
<polygon fill="midnightblue" stroke="midnightblue" points="815.25,-218.74 824.4,-224.08 820.58,-214.2 815.25,-218.74"/>
</g>
<!-- Node19 -->
<g id="node19" class="node">
<title>Node19</title>
<g id="a_node19"><a xlink:href="STLPart_8hpp.html" target="_top" xlink:title=" ">
<polygon fill="white" stroke="black" points="841,-168.5 841,-187.5 915,-187.5 915,-168.5 841,-168.5"/>
<text text-anchor="middle" x="878" y="-175.5" font-family="Helvetica,sans-Serif" font-size="10.00">STLPart.hpp</text>
</a>
</g>
</g>
<!-- Node17&#45;&gt;Node19 -->
<g id="edge20" class="edge">
<title>Node17&#45;&gt;Node19</title>
<path fill="none" stroke="midnightblue" d="M846.11,-216.43C854.18,-206.97 863.96,-195.48 870.55,-187.75"/>
<polygon fill="midnightblue" stroke="midnightblue" points="843.42,-214.2 839.6,-224.08 848.75,-218.74 843.42,-214.2"/>
</g>
<!-- Node21 -->
<g id="node21" class="node">
<title>Node21</title>
<g id="a_node21"><a xlink:href="GenericPartScene_8hpp.html" target="_top" xlink:title=" ">
<polygon fill="white" stroke="black" points="434.5,-112.5 434.5,-131.5 557.5,-131.5 557.5,-112.5 434.5,-112.5"/>
<text text-anchor="middle" x="496" y="-119.5" font-family="Helvetica,sans-Serif" font-size="10.00">GenericPartScene.hpp</text>
</a>
</g>
</g>
<!-- Node20&#45;&gt;Node21 -->
<g id="edge22" class="edge">
<title>Node20&#45;&gt;Node21</title>
<path fill="none" stroke="midnightblue" d="M487.7,-214.35C489.89,-190.25 493.61,-149.31 495.22,-131.59"/>
<polygon fill="midnightblue" stroke="midnightblue" points="484.2,-214.09 486.78,-224.37 491.18,-214.73 484.2,-214.09"/>
</g>
<!-- Node22 -->
<g id="node22" class="node">
<title>Node22</title>
<g id="a_node22"><a xlink:href="Triangulated3DPartScene_8hpp.html" target="_top" xlink:title=" ">
<polygon fill="white" stroke="black" points="513.5,-168.5 513.5,-187.5 672.5,-187.5 672.5,-168.5 513.5,-168.5"/>
<text text-anchor="middle" x="593" y="-175.5" font-family="Helvetica,sans-Serif" font-size="10.00">Triangulated3DPartScene.hpp</text>
</a>
</g>
</g>
<!-- Node20&#45;&gt;Node22 -->
<g id="edge24" class="edge">
<title>Node20&#45;&gt;Node22</title>
<path fill="none" stroke="midnightblue" d="M512.3,-219.73C532.11,-209.73 558.71,-196.31 575.85,-187.65"/>
<polygon fill="midnightblue" stroke="midnightblue" points="510.54,-216.69 503.19,-224.32 513.7,-222.94 510.54,-216.69"/>
</g>
<!-- Node21&#45;&gt;Node7 -->
<g id="edge23" class="edge">
<title>Node21&#45;&gt;Node7</title>
<path fill="none" stroke="midnightblue" d="M482.57,-104.59C463.17,-80.87 427.98,-37.87 413.03,-19.59"/>
<polygon fill="midnightblue" stroke="midnightblue" points="479.9,-106.85 488.94,-112.37 485.31,-102.41 479.9,-106.85"/>
</g>
<!-- Node23&#45;&gt;Node11 -->
<g id="edge27" class="edge">
<title>Node23&#45;&gt;Node11</title>
<path fill="none" stroke="midnightblue" d="M130.85,-270.1C129.36,-261.14 127.64,-250.86 126.46,-243.75"/>
<polygon fill="midnightblue" stroke="midnightblue" points="127.42,-270.79 132.51,-280.08 134.32,-269.64 127.42,-270.79"/>
</g>
</g>
</svg>
