<?xml version="1.0" encoding="UTF-8" standalone="no"?>
<!DOCTYPE svg PUBLIC "-//W3C//DTD SVG 1.1//EN"
 "http://www.w3.org/Graphics/SVG/1.1/DTD/svg11.dtd">
<!-- Generated by graphviz version 2.43.0 (0)
 -->
<!-- Title: GLTraits.hpp Pages: 1 -->
<svg width="886pt" height="307pt"
 viewBox="0.00 0.00 886.00 307.00" xmlns="http://www.w3.org/2000/svg" xmlns:xlink="http://www.w3.org/1999/xlink">
<g id="graph0" class="graph" transform="scale(1 1) rotate(0) translate(4 303)">
<title>GLTraits.hpp</title>
<polygon fill="white" stroke="transparent" points="-4,4 -4,-303 882,-303 882,4 -4,4"/>
<!-- Node1 -->
<g id="node1" class="node">
<title>Node1</title>
<g id="a_node1"><a xlink:title=" ">
<polygon fill="#bfbfbf" stroke="black" points="528.5,-279.5 528.5,-298.5 604.5,-298.5 604.5,-279.5 528.5,-279.5"/>
<text text-anchor="middle" x="566.5" y="-286.5" font-family="Helvetica,sans-Serif" font-size="10.00">GLTraits.hpp</text>
</a>
</g>
</g>
<!-- Node2 -->
<g id="node2" class="node">
<title>Node2</title>
<g id="a_node2"><a xlink:title=" ">
<polygon fill="white" stroke="#bfbfbf" points="0,-6 0,-25 71,-25 71,-6 0,-6"/>
<text text-anchor="middle" x="35.5" y="-13" font-family="Helvetica,sans-Serif" font-size="10.00">glad/glad.h</text>
</a>
</g>
</g>
<!-- Node1&#45;&gt;Node2 -->
<g id="edge1" class="edge">
<title>Node1&#45;&gt;Node2</title>
<path fill="none" stroke="midnightblue" d="M528.12,-285.87C416.14,-278.79 93.53,-252.05 27.5,-176 -7.12,-136.12 14.2,-67.29 27.39,-34.66"/>
<polygon fill="midnightblue" stroke="midnightblue" points="30.77,-35.65 31.46,-25.08 24.33,-32.92 30.77,-35.65"/>
</g>
<!-- Node3 -->
<g id="node3" class="node">
<title>Node3</title>
<g id="a_node3"><a xlink:href="AttributeContainer_8hpp.html" target="_top" xlink:title=" ">
<polygon fill="white" stroke="black" points="408.5,-212.5 408.5,-242.5 538.5,-242.5 538.5,-212.5 408.5,-212.5"/>
<text text-anchor="start" x="416.5" y="-230.5" font-family="Helvetica,sans-Serif" font-size="10.00">packages/buffer/inc</text>
<text text-anchor="middle" x="473.5" y="-219.5" font-family="Helvetica,sans-Serif" font-size="10.00">/AttributeContainer.hpp</text>
</a>
</g>
</g>
<!-- Node1&#45;&gt;Node3 -->
<g id="edge2" class="edge">
<title>Node1&#45;&gt;Node3</title>
<path fill="none" stroke="midnightblue" d="M553.18,-279.48C540.46,-271.34 520.85,-258.79 504.26,-248.18"/>
<polygon fill="midnightblue" stroke="midnightblue" points="505.73,-244.96 495.42,-242.52 501.96,-250.86 505.73,-244.96"/>
</g>
<!-- Node10 -->
<g id="node10" class="node">
<title>Node10</title>
<g id="a_node10"><a xlink:title=" ">
<polygon fill="white" stroke="#bfbfbf" points="831,-145.5 831,-164.5 878,-164.5 878,-145.5 831,-145.5"/>
<text text-anchor="middle" x="854.5" y="-152.5" font-family="Helvetica,sans-Serif" font-size="10.00">vector</text>
</a>
</g>
</g>
<!-- Node1&#45;&gt;Node10 -->
<g id="edge17" class="edge">
<title>Node1&#45;&gt;Node10</title>
<path fill="none" stroke="midnightblue" d="M565.97,-279.41C565.51,-263.51 567.02,-229.52 586.5,-212 665.39,-141.05 723.01,-212.88 822.5,-176 826.65,-174.46 830.83,-172.35 834.75,-170.06"/>
<polygon fill="midnightblue" stroke="midnightblue" points="836.71,-172.96 843.24,-164.62 832.93,-167.07 836.71,-172.96"/>
</g>
<!-- Node14 -->
<g id="node14" class="node">
<title>Node14</title>
<g id="a_node14"><a target="_parent" xlink:href="../../../cieutils/docs/html/StaticArray_8hpp.html.html" xlink:title=" ">
<polygon fill="white" stroke="black" points="595,-212.5 595,-242.5 726,-242.5 726,-212.5 595,-212.5"/>
<text text-anchor="start" x="603" y="-230.5" font-family="Helvetica,sans-Serif" font-size="10.00">packages/stl_extension</text>
<text text-anchor="middle" x="660.5" y="-219.5" font-family="Helvetica,sans-Serif" font-size="10.00">/inc/StaticArray.hpp</text>
</a>
</g>
</g>
<!-- Node1&#45;&gt;Node14 -->
<g id="edge15" class="edge">
<title>Node1&#45;&gt;Node14</title>
<path fill="none" stroke="midnightblue" d="M579.97,-279.48C592.94,-271.27 613.01,-258.56 629.88,-247.88"/>
<polygon fill="midnightblue" stroke="midnightblue" points="631.77,-250.83 638.35,-242.52 628.02,-244.91 631.77,-250.83"/>
</g>
<!-- Node15 -->
<g id="node15" class="node">
<title>Node15</title>
<g id="a_node15"><a xlink:title=" ">
<polygon fill="white" stroke="#bfbfbf" points="744.5,-218 744.5,-237 786.5,-237 786.5,-218 744.5,-218"/>
<text text-anchor="middle" x="765.5" y="-225" font-family="Helvetica,sans-Serif" font-size="10.00">array</text>
</a>
</g>
</g>
<!-- Node1&#45;&gt;Node15 -->
<g id="edge16" class="edge">
<title>Node1&#45;&gt;Node15</title>
<path fill="none" stroke="midnightblue" d="M604.73,-280.01C639.41,-272.24 691.66,-259.26 735.5,-243 736.92,-242.47 738.37,-241.9 739.82,-241.3"/>
<polygon fill="midnightblue" stroke="midnightblue" points="741.56,-244.35 749.24,-237.05 738.69,-237.97 741.56,-244.35"/>
</g>
<!-- Node3&#45;&gt;Node2 -->
<g id="edge3" class="edge">
<title>Node3&#45;&gt;Node2</title>
<path fill="none" stroke="midnightblue" d="M408.33,-223.02C296.83,-216.43 79.03,-200.56 54.5,-176 16.97,-138.42 24.77,-68.46 31.22,-35.12"/>
<polygon fill="midnightblue" stroke="midnightblue" points="34.65,-35.82 33.29,-25.31 27.8,-34.37 34.65,-35.82"/>
</g>
<!-- Node4 -->
<g id="node4" class="node">
<title>Node4</title>
<g id="a_node4"><a target="_parent" xlink:href="../../../cieutils/docs/html/typedefs_8hpp.html.html" xlink:title=" ">
<polygon fill="white" stroke="black" points="64,-140 64,-170 183,-170 183,-140 64,-140"/>
<text text-anchor="start" x="72" y="-158" font-family="Helvetica,sans-Serif" font-size="10.00">packages/macros/inc</text>
<text text-anchor="middle" x="123.5" y="-147" font-family="Helvetica,sans-Serif" font-size="10.00">/typedefs.hpp</text>
</a>
</g>
</g>
<!-- Node3&#45;&gt;Node4 -->
<g id="edge4" class="edge">
<title>Node3&#45;&gt;Node4</title>
<path fill="none" stroke="midnightblue" d="M408.37,-216.77C351.17,-207.76 265.86,-193.17 192.5,-176 188.15,-174.98 183.66,-173.86 179.16,-172.67"/>
<polygon fill="midnightblue" stroke="midnightblue" points="179.91,-169.25 169.35,-170.01 178.08,-176.01 179.91,-169.25"/>
</g>
<!-- Node5 -->
<g id="node5" class="node">
<title>Node5</title>
<g id="a_node5"><a target="_parent" xlink:href="../../../cieutils/docs/html/basic__concepts_8hpp.html.html" xlink:title=" ">
<polygon fill="white" stroke="black" points="201.5,-134.5 201.5,-175.5 333.5,-175.5 333.5,-134.5 201.5,-134.5"/>
<text text-anchor="start" x="209.5" y="-163.5" font-family="Helvetica,sans-Serif" font-size="10.00">packages/compile_time</text>
<text text-anchor="start" x="209.5" y="-152.5" font-family="Helvetica,sans-Serif" font-size="10.00">/packages/concepts/inc</text>
<text text-anchor="middle" x="267.5" y="-141.5" font-family="Helvetica,sans-Serif" font-size="10.00">/basic_concepts.hpp</text>
</a>
</g>
</g>
<!-- Node3&#45;&gt;Node5 -->
<g id="edge5" class="edge">
<title>Node3&#45;&gt;Node5</title>
<path fill="none" stroke="midnightblue" d="M432.31,-212.4C404.32,-202.83 366.68,-189.94 334.43,-178.91"/>
<polygon fill="midnightblue" stroke="midnightblue" points="335.21,-175.47 324.61,-175.55 332.94,-182.1 335.21,-175.47"/>
</g>
<!-- Node9 -->
<g id="node9" class="node">
<title>Node9</title>
<g id="a_node9"><a target="_parent" xlink:href="../../../cieutils/docs/html/DynamicArray_8hpp.html.html" xlink:title=" ">
<polygon fill="white" stroke="black" points="352,-140 352,-170 483,-170 483,-140 352,-140"/>
<text text-anchor="start" x="360" y="-158" font-family="Helvetica,sans-Serif" font-size="10.00">packages/stl_extension</text>
<text text-anchor="middle" x="417.5" y="-147" font-family="Helvetica,sans-Serif" font-size="10.00">/inc/DynamicArray.hpp</text>
</a>
</g>
</g>
<!-- Node3&#45;&gt;Node9 -->
<g id="edge10" class="edge">
<title>Node3&#45;&gt;Node9</title>
<path fill="none" stroke="midnightblue" d="M462.17,-212.23C454.43,-202.49 444.01,-189.37 435.18,-178.26"/>
<polygon fill="midnightblue" stroke="midnightblue" points="437.78,-175.9 428.82,-170.25 432.29,-180.25 437.78,-175.9"/>
</g>
<!-- Node3&#45;&gt;Node10 -->
<g id="edge11" class="edge">
<title>Node3&#45;&gt;Node10</title>
<path fill="none" stroke="midnightblue" d="M538.55,-214.3C543.27,-213.49 547.95,-212.72 552.5,-212 672.07,-193.07 708.6,-217.01 822.5,-176 826.66,-174.5 830.85,-172.4 834.77,-170.13"/>
<polygon fill="midnightblue" stroke="midnightblue" points="836.73,-173.02 843.26,-164.68 832.96,-167.13 836.73,-173.02"/>
</g>
<!-- Node11 -->
<g id="node11" class="node">
<title>Node11</title>
<g id="a_node11"><a xlink:title=" ">
<polygon fill="white" stroke="#bfbfbf" points="501.5,-145.5 501.5,-164.5 559.5,-164.5 559.5,-145.5 501.5,-145.5"/>
<text text-anchor="middle" x="530.5" y="-152.5" font-family="Helvetica,sans-Serif" font-size="10.00">memory</text>
</a>
</g>
</g>
<!-- Node3&#45;&gt;Node11 -->
<g id="edge12" class="edge">
<title>Node3&#45;&gt;Node11</title>
<path fill="none" stroke="midnightblue" d="M485.03,-212.23C494.25,-200.84 507.18,-184.84 516.9,-172.82"/>
<polygon fill="midnightblue" stroke="midnightblue" points="519.74,-174.87 523.31,-164.89 514.3,-170.47 519.74,-174.87"/>
</g>
<!-- Node12 -->
<g id="node12" class="node">
<title>Node12</title>
<g id="a_node12"><a xlink:title=" ">
<polygon fill="white" stroke="#bfbfbf" points="577.5,-145.5 577.5,-164.5 637.5,-164.5 637.5,-145.5 577.5,-145.5"/>
<text text-anchor="middle" x="607.5" y="-152.5" font-family="Helvetica,sans-Serif" font-size="10.00">concepts</text>
</a>
</g>
</g>
<!-- Node3&#45;&gt;Node12 -->
<g id="edge13" class="edge">
<title>Node3&#45;&gt;Node12</title>
<path fill="none" stroke="midnightblue" d="M500.29,-212.4C524.19,-199.83 558.92,-181.56 582.31,-169.25"/>
<polygon fill="midnightblue" stroke="midnightblue" points="584.06,-172.29 591.28,-164.53 580.8,-166.09 584.06,-172.29"/>
</g>
<!-- Node13 -->
<g id="node13" class="node">
<title>Node13</title>
<g id="a_node13"><a xlink:title=" ">
<polygon fill="white" stroke="#bfbfbf" points="655.5,-140 655.5,-170 813.5,-170 813.5,-140 655.5,-140"/>
<text text-anchor="start" x="663.5" y="-158" font-family="Helvetica,sans-Serif" font-size="10.00">packages/buffer/impl</text>
<text text-anchor="middle" x="734.5" y="-147" font-family="Helvetica,sans-Serif" font-size="10.00">/AttributeContainer_impl.hpp</text>
</a>
</g>
</g>
<!-- Node3&#45;&gt;Node13 -->
<g id="edge14" class="edge">
<title>Node3&#45;&gt;Node13</title>
<path fill="none" stroke="midnightblue" d="M525.38,-212.49C567.67,-201.06 627.53,-184.9 672.37,-172.78"/>
<polygon fill="midnightblue" stroke="midnightblue" points="673.53,-176.09 682.27,-170.11 671.71,-169.34 673.53,-176.09"/>
</g>
<!-- Node6 -->
<g id="node6" class="node">
<title>Node6</title>
<g id="a_node6"><a xlink:href="types_8hpp.html" target="_top" xlink:title=" ">
<polygon fill="white" stroke="black" points="108.5,-67.5 108.5,-97.5 218.5,-97.5 218.5,-67.5 108.5,-67.5"/>
<text text-anchor="start" x="116.5" y="-85.5" font-family="Helvetica,sans-Serif" font-size="10.00">packages/types/inc</text>
<text text-anchor="middle" x="163.5" y="-74.5" font-family="Helvetica,sans-Serif" font-size="10.00">/types.hpp</text>
</a>
</g>
</g>
<!-- Node5&#45;&gt;Node6 -->
<g id="edge6" class="edge">
<title>Node5&#45;&gt;Node6</title>
<path fill="none" stroke="midnightblue" d="M238.53,-134.36C224.3,-124.71 207.17,-113.11 192.88,-103.42"/>
<polygon fill="midnightblue" stroke="midnightblue" points="194.64,-100.38 184.4,-97.67 190.72,-106.18 194.64,-100.38"/>
</g>
<!-- Node6&#45;&gt;Node2 -->
<g id="edge7" class="edge">
<title>Node6&#45;&gt;Node2</title>
<path fill="none" stroke="midnightblue" d="M135.73,-67.4C113.56,-56.14 82.76,-40.5 61.17,-29.54"/>
<polygon fill="midnightblue" stroke="midnightblue" points="62.75,-26.41 52.25,-25.01 59.58,-32.66 62.75,-26.41"/>
</g>
<!-- Node7 -->
<g id="node7" class="node">
<title>Node7</title>
<g id="a_node7"><a xlink:title=" ">
<polygon fill="white" stroke="#bfbfbf" points="115.5,-6 115.5,-25 159.5,-25 159.5,-6 115.5,-6"/>
<text text-anchor="middle" x="137.5" y="-13" font-family="Helvetica,sans-Serif" font-size="10.00">string</text>
</a>
</g>
</g>
<!-- Node6&#45;&gt;Node7 -->
<g id="edge8" class="edge">
<title>Node6&#45;&gt;Node7</title>
<path fill="none" stroke="midnightblue" d="M157.86,-67.4C154.01,-57.76 148.87,-44.91 144.71,-34.54"/>
<polygon fill="midnightblue" stroke="midnightblue" points="147.94,-33.18 140.98,-25.19 141.44,-35.78 147.94,-33.18"/>
</g>
<!-- Node8 -->
<g id="node8" class="node">
<title>Node8</title>
<g id="a_node8"><a xlink:title=" ">
<polygon fill="white" stroke="#bfbfbf" points="177.5,-0.5 177.5,-30.5 293.5,-30.5 293.5,-0.5 177.5,-0.5"/>
<text text-anchor="start" x="185.5" y="-18.5" font-family="Helvetica,sans-Serif" font-size="10.00">packages/traits/impl</text>
<text text-anchor="middle" x="235.5" y="-7.5" font-family="Helvetica,sans-Serif" font-size="10.00">/types_impl.hpp</text>
</a>
</g>
</g>
<!-- Node6&#45;&gt;Node8 -->
<g id="edge9" class="edge">
<title>Node6&#45;&gt;Node8</title>
<path fill="none" stroke="midnightblue" d="M179.12,-67.4C188.84,-58.62 201.51,-47.18 212.38,-37.37"/>
<polygon fill="midnightblue" stroke="midnightblue" points="214.83,-39.88 219.91,-30.58 210.14,-34.68 214.83,-39.88"/>
</g>
</g>
</svg>
