<?xml version="1.0" encoding="UTF-8" standalone="no"?>
<!DOCTYPE svg PUBLIC "-//W3C//DTD SVG 1.1//EN"
 "http://www.w3.org/Graphics/SVG/1.1/DTD/svg11.dtd">
<!-- Generated by graphviz version 2.43.0 (0)
 -->
<!-- Title: Image.hpp Pages: 1 -->
<svg width="1006pt" height="532pt"
 viewBox="0.00 0.00 1005.50 532.00" xmlns="http://www.w3.org/2000/svg" xmlns:xlink="http://www.w3.org/1999/xlink">
<g id="graph0" class="graph" transform="scale(1 1) rotate(0) translate(4 528)">
<title>Image.hpp</title>
<polygon fill="white" stroke="transparent" points="-4,4 -4,-528 1001.5,-528 1001.5,4 -4,4"/>
<!-- Node1 -->
<g id="node1" class="node">
<title>Node1</title>
<g id="a_node1"><a xlink:title=" ">
<polygon fill="#bfbfbf" stroke="black" points="515,-504.5 515,-523.5 583,-523.5 583,-504.5 515,-504.5"/>
<text text-anchor="middle" x="549" y="-511.5" font-family="Helvetica,sans-Serif" font-size="10.00">Image.hpp</text>
</a>
</g>
</g>
<!-- Node2 -->
<g id="node2" class="node">
<title>Node2</title>
<g id="a_node2"><a xlink:href="AbsWindow_8hpp.html" target="_top" xlink:title=" ">
<polygon fill="white" stroke="black" points="409,-336.5 409,-355.5 503,-355.5 503,-336.5 409,-336.5"/>
<text text-anchor="middle" x="456" y="-343.5" font-family="Helvetica,sans-Serif" font-size="10.00">AbsWindow.hpp</text>
</a>
</g>
</g>
<!-- Node1&#45;&gt;Node2 -->
<g id="edge1" class="edge">
<title>Node1&#45;&gt;Node2</title>
<path fill="none" stroke="midnightblue" d="M539.09,-495.31C519.26,-459.92 475.36,-381.56 460.8,-355.57"/>
<polygon fill="midnightblue" stroke="midnightblue" points="536.06,-497.06 544,-504.08 542.17,-493.64 536.06,-497.06"/>
</g>
<!-- Node17 -->
<g id="node17" class="node">
<title>Node17</title>
<g id="a_node17"><a xlink:href="Texture_8hpp.html" target="_top" xlink:title=" ">
<polygon fill="white" stroke="black" points="575,-448.5 575,-467.5 649,-467.5 649,-448.5 575,-448.5"/>
<text text-anchor="middle" x="612" y="-455.5" font-family="Helvetica,sans-Serif" font-size="10.00">Texture.hpp</text>
</a>
</g>
</g>
<!-- Node1&#45;&gt;Node17 -->
<g id="edge18" class="edge">
<title>Node1&#45;&gt;Node17</title>
<path fill="none" stroke="midnightblue" d="M567.04,-497.54C578.27,-487.91 592.32,-475.87 601.69,-467.83"/>
<polygon fill="midnightblue" stroke="midnightblue" points="564.44,-495.16 559.12,-504.32 568.99,-500.47 564.44,-495.16"/>
</g>
<!-- Node3 -->
<g id="node3" class="node">
<title>Node3</title>
<g id="a_node3"><a xlink:href="AbsContext_8hpp.html" target="_top" xlink:title=" ">
<polygon fill="white" stroke="black" points="112,-280.5 112,-299.5 206,-299.5 206,-280.5 112,-280.5"/>
<text text-anchor="middle" x="159" y="-287.5" font-family="Helvetica,sans-Serif" font-size="10.00">AbsContext.hpp</text>
</a>
</g>
</g>
<!-- Node2&#45;&gt;Node3 -->
<g id="edge2" class="edge">
<title>Node2&#45;&gt;Node3</title>
<path fill="none" stroke="midnightblue" d="M398.8,-334.6C342.67,-324.4 258.1,-309.02 205.84,-299.52"/>
<polygon fill="midnightblue" stroke="midnightblue" points="398.47,-338.1 408.94,-336.44 399.73,-331.21 398.47,-338.1"/>
</g>
<!-- Node5 -->
<g id="node5" class="node">
<title>Node5</title>
<g id="a_node5"><a xlink:href="AbsPlot_8hpp.html" target="_top" xlink:title=" ">
<polygon fill="white" stroke="black" points="122,-224.5 122,-243.5 196,-243.5 196,-224.5 122,-224.5"/>
<text text-anchor="middle" x="159" y="-231.5" font-family="Helvetica,sans-Serif" font-size="10.00">AbsPlot.hpp</text>
</a>
</g>
</g>
<!-- Node2&#45;&gt;Node5 -->
<g id="edge17" class="edge">
<title>Node2&#45;&gt;Node5</title>
<path fill="none" stroke="midnightblue" d="M398.96,-337.57C358.47,-330.99 303.45,-319.34 258,-300 222.81,-285.03 186.49,-257.5 169.26,-243.56"/>
<polygon fill="midnightblue" stroke="midnightblue" points="398.51,-341.04 408.93,-339.14 399.59,-334.13 398.51,-341.04"/>
</g>
<!-- Node9 -->
<g id="node9" class="node">
<title>Node9</title>
<g id="a_node9"><a xlink:href="GLFWWindow_8hpp.html" target="_top" xlink:title=" ">
<polygon fill="white" stroke="black" points="267,-280.5 267,-299.5 371,-299.5 371,-280.5 267,-280.5"/>
<text text-anchor="middle" x="319" y="-287.5" font-family="Helvetica,sans-Serif" font-size="10.00">GLFWWindow.hpp</text>
</a>
</g>
</g>
<!-- Node2&#45;&gt;Node9 -->
<g id="edge8" class="edge">
<title>Node2&#45;&gt;Node9</title>
<path fill="none" stroke="midnightblue" d="M424.98,-332.77C399.24,-322.63 363.31,-308.47 340.61,-299.52"/>
<polygon fill="midnightblue" stroke="midnightblue" points="423.71,-336.03 434.29,-336.44 426.27,-329.52 423.71,-336.03"/>
</g>
<!-- Node10 -->
<g id="node10" class="node">
<title>Node10</title>
<g id="a_node10"><a xlink:href="AbsCameraControls_8hpp.html" target="_top" xlink:title=" ">
<polygon fill="white" stroke="black" points="389,-280.5 389,-299.5 523,-299.5 523,-280.5 389,-280.5"/>
<text text-anchor="middle" x="456" y="-287.5" font-family="Helvetica,sans-Serif" font-size="10.00">AbsCameraControls.hpp</text>
</a>
</g>
</g>
<!-- Node2&#45;&gt;Node10 -->
<g id="edge9" class="edge">
<title>Node2&#45;&gt;Node10</title>
<path fill="none" stroke="midnightblue" d="M456,-325.8C456,-316.91 456,-306.78 456,-299.75"/>
<polygon fill="midnightblue" stroke="midnightblue" points="452.5,-326.08 456,-336.08 459.5,-326.08 452.5,-326.08"/>
</g>
<!-- Node16 -->
<g id="node16" class="node">
<title>Node16</title>
<g id="a_node16"><a xlink:href="utilities_8hpp.html" target="_top" xlink:title=" ">
<polygon fill="white" stroke="black" points="541,-280.5 541,-299.5 615,-299.5 615,-280.5 541,-280.5"/>
<text text-anchor="middle" x="578" y="-287.5" font-family="Helvetica,sans-Serif" font-size="10.00">utilities.hpp</text>
</a>
</g>
</g>
<!-- Node2&#45;&gt;Node16 -->
<g id="edge16" class="edge">
<title>Node2&#45;&gt;Node16</title>
<path fill="none" stroke="midnightblue" d="M484.54,-332.37C507.39,-322.26 538.81,-308.35 558.76,-299.52"/>
<polygon fill="midnightblue" stroke="midnightblue" points="483.06,-329.2 475.33,-336.44 485.89,-335.6 483.06,-329.2"/>
</g>
<!-- Node4 -->
<g id="node4" class="node">
<title>Node4</title>
<g id="a_node4"><a xlink:href="GLFWContext_8hpp.html" target="_top" xlink:title=" ">
<polygon fill="white" stroke="black" points="0,-224.5 0,-243.5 104,-243.5 104,-224.5 0,-224.5"/>
<text text-anchor="middle" x="52" y="-231.5" font-family="Helvetica,sans-Serif" font-size="10.00">GLFWContext.hpp</text>
</a>
</g>
</g>
<!-- Node3&#45;&gt;Node4 -->
<g id="edge3" class="edge">
<title>Node3&#45;&gt;Node4</title>
<path fill="none" stroke="midnightblue" d="M132.7,-275.73C112.89,-265.73 86.29,-252.31 69.15,-243.65"/>
<polygon fill="midnightblue" stroke="midnightblue" points="131.3,-278.94 141.81,-280.32 134.46,-272.69 131.3,-278.94"/>
</g>
<!-- Node3&#45;&gt;Node5 -->
<g id="edge4" class="edge">
<title>Node3&#45;&gt;Node5</title>
<path fill="none" stroke="midnightblue" d="M159,-269.8C159,-260.91 159,-250.78 159,-243.75"/>
<polygon fill="midnightblue" stroke="midnightblue" points="155.5,-270.08 159,-280.08 162.5,-270.08 155.5,-270.08"/>
</g>
<!-- Node6 -->
<g id="node6" class="node">
<title>Node6</title>
<g id="a_node6"><a xlink:href="AbsPlot2_8hpp.html" target="_top" xlink:title=" ">
<polygon fill="white" stroke="black" points="520,-112.5 520,-131.5 600,-131.5 600,-112.5 520,-112.5"/>
<text text-anchor="middle" x="560" y="-119.5" font-family="Helvetica,sans-Serif" font-size="10.00">AbsPlot2.hpp</text>
</a>
</g>
</g>
<!-- Node5&#45;&gt;Node6 -->
<g id="edge5" class="edge">
<title>Node5&#45;&gt;Node6</title>
<path fill="none" stroke="midnightblue" d="M150.34,-214.75C144.89,-200.3 140.79,-180.52 152,-168 176.28,-140.9 421.54,-128.4 519.7,-124.45"/>
<polygon fill="midnightblue" stroke="midnightblue" points="147.2,-216.33 154.34,-224.16 153.64,-213.59 147.2,-216.33"/>
</g>
<!-- Node7 -->
<g id="node7" class="node">
<title>Node7</title>
<g id="a_node7"><a xlink:href="Plot2_8hpp.html" target="_top" xlink:title=" ">
<polygon fill="white" stroke="black" points="529,-56.5 529,-75.5 591,-75.5 591,-56.5 529,-56.5"/>
<text text-anchor="middle" x="560" y="-63.5" font-family="Helvetica,sans-Serif" font-size="10.00">Plot2.hpp</text>
</a>
</g>
</g>
<!-- Node6&#45;&gt;Node7 -->
<g id="edge6" class="edge">
<title>Node6&#45;&gt;Node7</title>
<path fill="none" stroke="midnightblue" d="M560,-101.8C560,-92.91 560,-82.78 560,-75.75"/>
<polygon fill="midnightblue" stroke="midnightblue" points="556.5,-102.08 560,-112.08 563.5,-102.08 556.5,-102.08"/>
</g>
<!-- Node8 -->
<g id="node8" class="node">
<title>Node8</title>
<g id="a_node8"><a xlink:href="Plot2__MarchingCubes_8hpp.html" target="_top" xlink:title=" ">
<polygon fill="white" stroke="black" points="488.5,-0.5 488.5,-19.5 631.5,-19.5 631.5,-0.5 488.5,-0.5"/>
<text text-anchor="middle" x="560" y="-7.5" font-family="Helvetica,sans-Serif" font-size="10.00">Plot2_MarchingCubes.hpp</text>
</a>
</g>
</g>
<!-- Node7&#45;&gt;Node8 -->
<g id="edge7" class="edge">
<title>Node7&#45;&gt;Node8</title>
<path fill="none" stroke="midnightblue" d="M560,-45.8C560,-36.91 560,-26.78 560,-19.75"/>
<polygon fill="midnightblue" stroke="midnightblue" points="556.5,-46.08 560,-56.08 563.5,-46.08 556.5,-46.08"/>
</g>
<!-- Node11 -->
<g id="node11" class="node">
<title>Node11</title>
<g id="a_node11"><a xlink:href="DebugCameraControls_8hpp.html" target="_top" xlink:title=" ">
<polygon fill="white" stroke="black" points="214,-224.5 214,-243.5 362,-243.5 362,-224.5 214,-224.5"/>
<text text-anchor="middle" x="288" y="-231.5" font-family="Helvetica,sans-Serif" font-size="10.00">DebugCameraControls.hpp</text>
</a>
</g>
</g>
<!-- Node10&#45;&gt;Node11 -->
<g id="edge10" class="edge">
<title>Node10&#45;&gt;Node11</title>
<path fill="none" stroke="midnightblue" d="M419.61,-277.3C387.96,-267.13 342.83,-252.62 314.5,-243.52"/>
<polygon fill="midnightblue" stroke="midnightblue" points="418.79,-280.72 429.38,-280.44 420.93,-274.05 418.79,-280.72"/>
</g>
<!-- Node12 -->
<g id="node12" class="node">
<title>Node12</title>
<g id="a_node12"><a xlink:href="MappedCameraControls_8hpp.html" target="_top" xlink:title=" ">
<polygon fill="white" stroke="black" points="380.5,-224.5 380.5,-243.5 535.5,-243.5 535.5,-224.5 380.5,-224.5"/>
<text text-anchor="middle" x="458" y="-231.5" font-family="Helvetica,sans-Serif" font-size="10.00">MappedCameraControls.hpp</text>
</a>
</g>
</g>
<!-- Node10&#45;&gt;Node12 -->
<g id="edge11" class="edge">
<title>Node10&#45;&gt;Node12</title>
<path fill="none" stroke="midnightblue" d="M456.71,-269.8C457.04,-260.91 457.42,-250.78 457.68,-243.75"/>
<polygon fill="midnightblue" stroke="midnightblue" points="453.2,-269.96 456.33,-280.08 460.2,-270.22 453.2,-269.96"/>
</g>
<!-- Node13 -->
<g id="node13" class="node">
<title>Node13</title>
<g id="a_node13"><a xlink:href="ArcBallCameraControls_8hpp.html" target="_top" xlink:title=" ">
<polygon fill="white" stroke="black" points="160.5,-168.5 160.5,-187.5 311.5,-187.5 311.5,-168.5 160.5,-168.5"/>
<text text-anchor="middle" x="236" y="-175.5" font-family="Helvetica,sans-Serif" font-size="10.00">ArcBallCameraControls.hpp</text>
</a>
</g>
</g>
<!-- Node12&#45;&gt;Node13 -->
<g id="edge12" class="edge">
<title>Node12&#45;&gt;Node13</title>
<path fill="none" stroke="midnightblue" d="M412.88,-222.02C370.94,-211.82 309.35,-196.84 271.01,-187.52"/>
<polygon fill="midnightblue" stroke="midnightblue" points="412.28,-225.48 422.82,-224.44 413.93,-218.68 412.28,-225.48"/>
</g>
<!-- Node14 -->
<g id="node14" class="node">
<title>Node14</title>
<g id="a_node14"><a xlink:href="FlyCameraControls_8hpp.html" target="_top" xlink:title=" ">
<polygon fill="white" stroke="black" points="329.5,-168.5 329.5,-187.5 460.5,-187.5 460.5,-168.5 329.5,-168.5"/>
<text text-anchor="middle" x="395" y="-175.5" font-family="Helvetica,sans-Serif" font-size="10.00">FlyCameraControls.hpp</text>
</a>
</g>
</g>
<!-- Node12&#45;&gt;Node14 -->
<g id="edge13" class="edge">
<title>Node12&#45;&gt;Node14</title>
<path fill="none" stroke="midnightblue" d="M439.96,-217.54C428.73,-207.91 414.68,-195.87 405.31,-187.83"/>
<polygon fill="midnightblue" stroke="midnightblue" points="438.01,-220.47 447.88,-224.32 442.56,-215.16 438.01,-220.47"/>
</g>
<!-- Node15 -->
<g id="node15" class="node">
<title>Node15</title>
<g id="a_node15"><a xlink:href="PanZoomCameraControls_8hpp.html" target="_top" xlink:title=" ">
<polygon fill="white" stroke="black" points="479,-168.5 479,-187.5 641,-187.5 641,-168.5 479,-168.5"/>
<text text-anchor="middle" x="560" y="-175.5" font-family="Helvetica,sans-Serif" font-size="10.00">PanZoomCameraControls.hpp</text>
</a>
</g>
</g>
<!-- Node12&#45;&gt;Node15 -->
<g id="edge14" class="edge">
<title>Node12&#45;&gt;Node15</title>
<path fill="none" stroke="midnightblue" d="M483.33,-219.59C502.19,-209.61 527.38,-196.27 543.65,-187.65"/>
<polygon fill="midnightblue" stroke="midnightblue" points="481.59,-216.55 474.39,-224.32 484.86,-222.74 481.59,-216.55"/>
</g>
<!-- Node15&#45;&gt;Node6 -->
<g id="edge15" class="edge">
<title>Node15&#45;&gt;Node6</title>
<path fill="none" stroke="midnightblue" d="M560,-157.8C560,-148.91 560,-138.78 560,-131.75"/>
<polygon fill="midnightblue" stroke="midnightblue" points="556.5,-158.08 560,-168.08 563.5,-158.08 556.5,-158.08"/>
</g>
<!-- Node18 -->
<g id="node18" class="node">
<title>Node18</title>
<g id="a_node18"><a xlink:href="Scene_8hpp.html" target="_top" xlink:title=" ">
<polygon fill="white" stroke="black" points="606.5,-392.5 606.5,-411.5 673.5,-411.5 673.5,-392.5 606.5,-392.5"/>
<text text-anchor="middle" x="640" y="-399.5" font-family="Helvetica,sans-Serif" font-size="10.00">Scene.hpp</text>
</a>
</g>
</g>
<!-- Node17&#45;&gt;Node18 -->
<g id="edge19" class="edge">
<title>Node17&#45;&gt;Node18</title>
<path fill="none" stroke="midnightblue" d="M621.34,-438.98C626.09,-429.82 631.66,-419.09 635.46,-411.75"/>
<polygon fill="midnightblue" stroke="midnightblue" points="618.12,-437.59 616.62,-448.08 624.33,-440.82 618.12,-437.59"/>
</g>
<!-- Node18&#45;&gt;Node2 -->
<g id="edge20" class="edge">
<title>Node18&#45;&gt;Node2</title>
<path fill="none" stroke="midnightblue" d="M601.05,-389.57C566.34,-379.38 516.32,-364.7 485.02,-355.52"/>
<polygon fill="midnightblue" stroke="midnightblue" points="600.26,-392.99 610.84,-392.44 602.23,-386.27 600.26,-392.99"/>
</g>
<!-- Node18&#45;&gt;Node6 -->
<g id="edge21" class="edge">
<title>Node18&#45;&gt;Node6</title>
<path fill="none" stroke="midnightblue" d="M647.84,-382.91C656.43,-361.42 669,-324.28 669,-291 669,-291 669,-291 669,-233 669,-202.9 669.29,-191.1 650,-168 634.88,-149.9 610.68,-138.37 591.18,-131.52"/>
<polygon fill="midnightblue" stroke="midnightblue" points="644.52,-381.79 643.91,-392.36 650.98,-384.47 644.52,-381.79"/>
</g>
<!-- Node19 -->
<g id="node19" class="node">
<title>Node19</title>
<g id="a_node19"><a xlink:href="PartScene_8hpp.html" target="_top" xlink:title=" ">
<polygon fill="white" stroke="black" points="716,-336.5 716,-355.5 802,-355.5 802,-336.5 716,-336.5"/>
<text text-anchor="middle" x="759" y="-343.5" font-family="Helvetica,sans-Serif" font-size="10.00">PartScene.hpp</text>
</a>
</g>
</g>
<!-- Node18&#45;&gt;Node19 -->
<g id="edge22" class="edge">
<title>Node18&#45;&gt;Node19</title>
<path fill="none" stroke="midnightblue" d="M668.14,-388.23C690.4,-378.13 720.86,-364.31 740.23,-355.52"/>
<polygon fill="midnightblue" stroke="midnightblue" points="666.52,-385.12 658.86,-392.44 669.41,-391.5 666.52,-385.12"/>
</g>
<!-- Node20 -->
<g id="node20" class="node">
<title>Node20</title>
<g id="a_node20"><a xlink:href="GenericPartScene_8hpp.html" target="_top" xlink:title=" ">
<polygon fill="white" stroke="black" points="697.5,-280.5 697.5,-299.5 820.5,-299.5 820.5,-280.5 697.5,-280.5"/>
<text text-anchor="middle" x="759" y="-287.5" font-family="Helvetica,sans-Serif" font-size="10.00">GenericPartScene.hpp</text>
</a>
</g>
</g>
<!-- Node19&#45;&gt;Node20 -->
<g id="edge23" class="edge">
<title>Node19&#45;&gt;Node20</title>
<path fill="none" stroke="midnightblue" d="M759,-325.8C759,-316.91 759,-306.78 759,-299.75"/>
<polygon fill="midnightblue" stroke="midnightblue" points="755.5,-326.08 759,-336.08 762.5,-326.08 755.5,-326.08"/>
</g>
<!-- Node22 -->
<g id="node22" class="node">
<title>Node22</title>
<g id="a_node22"><a xlink:href="Triangulated3DPartScene_8hpp.html" target="_top" xlink:title=" ">
<polygon fill="white" stroke="black" points="838.5,-280.5 838.5,-299.5 997.5,-299.5 997.5,-280.5 838.5,-280.5"/>
<text text-anchor="middle" x="918" y="-287.5" font-family="Helvetica,sans-Serif" font-size="10.00">Triangulated3DPartScene.hpp</text>
</a>
</g>
</g>
<!-- Node19&#45;&gt;Node22 -->
<g id="edge25" class="edge">
<title>Node19&#45;&gt;Node22</title>
<path fill="none" stroke="midnightblue" d="M793.83,-333.17C823.77,-323 866.22,-308.59 892.92,-299.52"/>
<polygon fill="midnightblue" stroke="midnightblue" points="792.54,-329.91 784.19,-336.44 794.79,-336.54 792.54,-329.91"/>
</g>
<!-- Node21 -->
<g id="node21" class="node">
<title>Node21</title>
<g id="a_node21"><a xlink:href="Axes3DScene_8hpp.html" target="_top" xlink:title=" ">
<polygon fill="white" stroke="black" points="707,-224.5 707,-243.5 811,-243.5 811,-224.5 707,-224.5"/>
<text text-anchor="middle" x="759" y="-231.5" font-family="Helvetica,sans-Serif" font-size="10.00">Axes3DScene.hpp</text>
</a>
</g>
</g>
<!-- Node20&#45;&gt;Node21 -->
<g id="edge24" class="edge">
<title>Node20&#45;&gt;Node21</title>
<path fill="none" stroke="midnightblue" d="M759,-269.8C759,-260.91 759,-250.78 759,-243.75"/>
<polygon fill="midnightblue" stroke="midnightblue" points="755.5,-270.08 759,-280.08 762.5,-270.08 755.5,-270.08"/>
</g>
</g>
</svg>
