<?xml version="1.0" encoding="UTF-8" standalone="no"?>
<!DOCTYPE svg PUBLIC "-//W3C//DTD SVG 1.1//EN"
 "http://www.w3.org/Graphics/SVG/1.1/DTD/svg11.dtd">
<!-- Generated by graphviz version 2.43.0 (0)
 -->
<!-- Title: Graphical Class Hierarchy Pages: 1 -->
<svg width="718pt" height="110pt"
 viewBox="0.00 0.00 718.00 109.50" xmlns="http://www.w3.org/2000/svg" xmlns:xlink="http://www.w3.org/1999/xlink">
<g id="graph0" class="graph" transform="scale(1 1) rotate(0) translate(4 105.5)">
<title>Graphical Class Hierarchy</title>
<polygon fill="white" stroke="transparent" points="-4,4 -4,-105.5 714,-105.5 714,4 -4,4"/>
<!-- Node0 -->
<g id="node1" class="node">
<title>Node0</title>
<g id="a_node1"><a xlink:href="classcie_1_1gl_1_1MappedControls.html" target="_top" xlink:title=" ">
<polygon fill="white" stroke="black" points="152,-44 152,-63 283,-63 283,-44 152,-44"/>
<text text-anchor="middle" x="217.5" y="-51" font-family="Helvetica,sans-Serif" font-size="10.00">cie::gl::MappedControls</text>
</a>
</g>
</g>
<!-- Node1 -->
<g id="node2" class="node">
<title>Node1</title>
<g id="a_node2"><a xlink:href="classcie_1_1gl_1_1MappedCameraControls.html" target="_top" xlink:title=" ">
<polygon fill="white" stroke="black" points="328,-44 328,-63 498,-63 498,-44 328,-44"/>
<text text-anchor="middle" x="413" y="-51" font-family="Helvetica,sans-Serif" font-size="10.00">cie::gl::MappedCameraControls</text>
</a>
</g>
</g>
<!-- Node0&#45;&gt;Node1 -->
<g id="edge1" class="edge">
<title>Node0&#45;&gt;Node1</title>
<path fill="none" stroke="midnightblue" d="M293.4,-53.5C304.65,-53.5 316.32,-53.5 327.75,-53.5"/>
<polygon fill="midnightblue" stroke="midnightblue" points="293.2,-50 283.2,-53.5 293.2,-57 293.2,-50"/>
</g>
<!-- Node2 -->
<g id="node3" class="node">
<title>Node2</title>
<g id="a_node3"><a xlink:href="classcie_1_1gl_1_1ArcBallCameraControls.html" target="_top" xlink:title=" ">
<polygon fill="white" stroke="black" points="539.5,-82 539.5,-101 704.5,-101 704.5,-82 539.5,-82"/>
<text text-anchor="middle" x="622" y="-89" font-family="Helvetica,sans-Serif" font-size="10.00">cie::gl::ArcBallCameraControls</text>
</a>
</g>
</g>
<!-- Node1&#45;&gt;Node2 -->
<g id="edge2" class="edge">
<title>Node1&#45;&gt;Node2</title>
<path fill="none" stroke="midnightblue" d="M475.81,-64.85C505.51,-70.3 540.71,-76.76 569.01,-81.96"/>
<polygon fill="midnightblue" stroke="midnightblue" points="476.44,-61.4 465.97,-63.04 475.17,-68.29 476.44,-61.4"/>
</g>
<!-- Node3 -->
<g id="node4" class="node">
<title>Node3</title>
<g id="a_node4"><a xlink:href="classcie_1_1gl_1_1FlyCameraControls.html" target="_top" xlink:title=" ">
<polygon fill="white" stroke="black" points="549,-44 549,-63 695,-63 695,-44 549,-44"/>
<text text-anchor="middle" x="622" y="-51" font-family="Helvetica,sans-Serif" font-size="10.00">cie::gl::FlyCameraControls</text>
</a>
</g>
</g>
<!-- Node1&#45;&gt;Node3 -->
<g id="edge3" class="edge">
<title>Node1&#45;&gt;Node3</title>
<path fill="none" stroke="midnightblue" d="M508.5,-53.5C522.04,-53.5 535.8,-53.5 548.82,-53.5"/>
<polygon fill="midnightblue" stroke="midnightblue" points="508.19,-50 498.19,-53.5 508.19,-57 508.19,-50"/>
</g>
<!-- Node4 -->
<g id="node5" class="node">
<title>Node4</title>
<g id="a_node5"><a xlink:href="classcie_1_1gl_1_1PanZoomCameraControls.html" target="_top" xlink:title=" ">
<polygon fill="white" stroke="black" points="534,-6 534,-25 710,-25 710,-6 534,-6"/>
<text text-anchor="middle" x="622" y="-13" font-family="Helvetica,sans-Serif" font-size="10.00">cie::gl::PanZoomCameraControls</text>
</a>
</g>
</g>
<!-- Node1&#45;&gt;Node4 -->
<g id="edge4" class="edge">
<title>Node1&#45;&gt;Node4</title>
<path fill="none" stroke="midnightblue" d="M475.81,-42.15C505.51,-36.7 540.71,-30.24 569.01,-25.04"/>
<polygon fill="midnightblue" stroke="midnightblue" points="475.17,-38.71 465.97,-43.96 476.44,-45.6 475.17,-38.71"/>
</g>
<!-- Node81 -->
<g id="node6" class="node">
<title>Node81</title>
<g id="a_node6"><a target="_parent" xlink:href="../../../cieutils/docs/html/classcie_1_1utils_1_1observer_1_1Observer.html" xlink:title=" ">
<polygon fill="white" stroke="black" points="0,-0.5 0,-30.5 107,-30.5 107,-0.5 0,-0.5"/>
<text text-anchor="start" x="8" y="-18.5" font-family="Helvetica,sans-Serif" font-size="10.00">cie::utils::observer</text>
<text text-anchor="middle" x="53.5" y="-7.5" font-family="Helvetica,sans-Serif" font-size="10.00">::Observer</text>
</a>
</g>
</g>
<!-- Node82 -->
<g id="node7" class="node">
<title>Node82</title>
<g id="a_node7"><a xlink:href="classcie_1_1gl_1_1AbsCameraControls.html" target="_top" xlink:title=" ">
<polygon fill="white" stroke="black" points="143,-6 143,-25 292,-25 292,-6 143,-6"/>
<text text-anchor="middle" x="217.5" y="-13" font-family="Helvetica,sans-Serif" font-size="10.00">cie::gl::AbsCameraControls</text>
</a>
</g>
</g>
<!-- Node81&#45;&gt;Node82 -->
<g id="edge5" class="edge">
<title>Node81&#45;&gt;Node82</title>
<path fill="none" stroke="midnightblue" d="M117.22,-15.5C125.66,-15.5 134.37,-15.5 142.98,-15.5"/>
<polygon fill="midnightblue" stroke="midnightblue" points="117.1,-12 107.1,-15.5 117.1,-19 117.1,-12"/>
</g>
<!-- Node82&#45;&gt;Node1 -->
<g id="edge7" class="edge">
<title>Node82&#45;&gt;Node1</title>
<path fill="none" stroke="midnightblue" d="M277.25,-27.04C304.85,-32.46 337.35,-38.84 363.52,-43.98"/>
<polygon fill="midnightblue" stroke="midnightblue" points="277.82,-23.58 267.33,-25.09 276.47,-30.45 277.82,-23.58"/>
</g>
<!-- Node83 -->
<g id="node8" class="node">
<title>Node83</title>
<g id="a_node8"><a xlink:href="classcie_1_1gl_1_1DebugCameraControls.html" target="_top" xlink:title=" ">
<polygon fill="white" stroke="black" points="332,-6 332,-25 494,-25 494,-6 332,-6"/>
<text text-anchor="middle" x="413" y="-13" font-family="Helvetica,sans-Serif" font-size="10.00">cie::gl::DebugCameraControls</text>
</a>
</g>
</g>
<!-- Node82&#45;&gt;Node83 -->
<g id="edge6" class="edge">
<title>Node82&#45;&gt;Node83</title>
<path fill="none" stroke="midnightblue" d="M302.3,-15.5C312.07,-15.5 322.01,-15.5 331.73,-15.5"/>
<polygon fill="midnightblue" stroke="midnightblue" points="302.21,-12 292.21,-15.5 302.21,-19 302.21,-12"/>
</g>
</g>
</svg>
