<?xml version="1.0" encoding="UTF-8" standalone="no"?>
<!DOCTYPE svg PUBLIC "-//W3C//DTD SVG 1.1//EN"
 "http://www.w3.org/Graphics/SVG/1.1/DTD/svg11.dtd">
<!-- Generated by graphviz version 2.43.0 (0)
 -->
<!-- Title: Graphical Class Hierarchy Pages: 1 -->
<svg width="251pt" height="88pt"
 viewBox="0.00 0.00 251.00 88.00" xmlns="http://www.w3.org/2000/svg" xmlns:xlink="http://www.w3.org/1999/xlink">
<g id="graph0" class="graph" transform="scale(1 1) rotate(0) translate(4 84)">
<title>Graphical Class Hierarchy</title>
<polygon fill="white" stroke="transparent" points="-4,4 -4,-84 247,-84 247,4 -4,4"/>
<!-- Node112 -->
<g id="node1" class="node">
<title>Node112</title>
<g id="a_node1"><a xlink:title=" ">
<polygon fill="white" stroke="#bfbfbf" points="0,-30 0,-49 47,-49 47,-30 0,-30"/>
<text text-anchor="middle" x="23.5" y="-37" font-family="Helvetica,sans-Serif" font-size="10.00">Visual</text>
</a>
</g>
</g>
<!-- Node0 -->
<g id="node2" class="node">
<title>Node0</title>
<g id="a_node2"><a xlink:href="classmodules_1_1glmesh_1_1meshvisual_1_1MeshVisual.html" target="_top" xlink:title=" ">
<polygon fill="white" stroke="black" points="83,-49.5 83,-79.5 243,-79.5 243,-49.5 83,-49.5"/>
<text text-anchor="start" x="91" y="-67.5" font-family="Helvetica,sans-Serif" font-size="10.00">modules.glmesh.meshvisual.</text>
<text text-anchor="middle" x="163" y="-56.5" font-family="Helvetica,sans-Serif" font-size="10.00">MeshVisual</text>
</a>
</g>
</g>
<!-- Node112&#45;&gt;Node0 -->
<g id="edge1" class="edge">
<title>Node112&#45;&gt;Node0</title>
<path fill="none" stroke="midnightblue" d="M57.3,-45.46C65.14,-46.89 73.85,-48.47 82.8,-50.1"/>
<polygon fill="midnightblue" stroke="midnightblue" points="57.67,-41.97 47.21,-43.63 56.42,-48.86 57.67,-41.97"/>
</g>
<!-- Node114 -->
<g id="node3" class="node">
<title>Node114</title>
<g id="a_node3"><a xlink:href="classmodules_1_1glmesh_1_1meshvisual_1_1TriangleMeshVisual.html" target="_top" xlink:title=" ">
<polygon fill="white" stroke="black" points="83,-0.5 83,-30.5 243,-30.5 243,-0.5 83,-0.5"/>
<text text-anchor="start" x="91" y="-18.5" font-family="Helvetica,sans-Serif" font-size="10.00">modules.glmesh.meshvisual.</text>
<text text-anchor="middle" x="163" y="-7.5" font-family="Helvetica,sans-Serif" font-size="10.00">TriangleMeshVisual</text>
</a>
</g>
</g>
<!-- Node112&#45;&gt;Node114 -->
<g id="edge2" class="edge">
<title>Node112&#45;&gt;Node114</title>
<path fill="none" stroke="midnightblue" d="M57.3,-33.77C65.14,-32.41 73.85,-30.89 82.8,-29.32"/>
<polygon fill="midnightblue" stroke="midnightblue" points="56.45,-30.37 47.21,-35.54 57.66,-37.27 56.45,-30.37"/>
</g>
</g>
</svg>
