<?xml version="1.0" encoding="UTF-8" standalone="no"?>
<!DOCTYPE svg PUBLIC "-//W3C//DTD SVG 1.1//EN"
 "http://www.w3.org/Graphics/SVG/1.1/DTD/svg11.dtd">
<!-- Generated by graphviz version 2.43.0 (0)
 -->
<!-- Title: Graphical Class Hierarchy Pages: 1 -->
<svg width="1169pt" height="950pt"
 viewBox="0.00 0.00 1169.00 949.50" xmlns="http://www.w3.org/2000/svg" xmlns:xlink="http://www.w3.org/1999/xlink">
<g id="graph0" class="graph" transform="scale(1 1) rotate(0) translate(4 945.5)">
<title>Graphical Class Hierarchy</title>
<polygon fill="white" stroke="transparent" points="-4,4 -4,-945.5 1165,-945.5 1165,4 -4,4"/>
<!-- Node0 -->
<g id="node1" class="node">
<title>Node0</title>
<g id="a_node1"><a xlink:href="structcie_1_1gl_1_1GLTraits.html" target="_top" xlink:title=" ">
<polygon fill="white" stroke="black" points="0,-697 0,-716 90,-716 90,-697 0,-697"/>
<text text-anchor="middle" x="45" y="-704" font-family="Helvetica,sans-Serif" font-size="10.00">cie::gl::GLTraits</text>
</a>
</g>
</g>
<!-- Node1 -->
<g id="node2" class="node">
<title>Node1</title>
<g id="a_node2"><a xlink:href="classcie_1_1gl_1_1AbsGLShape.html" target="_top" xlink:title=" ">
<polygon fill="white" stroke="black" points="135,-728 135,-747 248,-747 248,-728 135,-728"/>
<text text-anchor="middle" x="191.5" y="-735" font-family="Helvetica,sans-Serif" font-size="10.00">cie::gl::AbsGLShape</text>
</a>
</g>
</g>
<!-- Node0&#45;&gt;Node1 -->
<g id="edge1" class="edge">
<title>Node0&#45;&gt;Node1</title>
<path fill="none" stroke="midnightblue" d="M99.94,-718.07C115.16,-721.34 131.54,-724.85 146.13,-727.98"/>
<polygon fill="midnightblue" stroke="midnightblue" points="100.65,-714.65 90.14,-715.97 99.18,-721.49 100.65,-714.65"/>
</g>
<!-- Node7 -->
<g id="node8" class="node">
<title>Node7</title>
<g id="a_node8"><a xlink:href="classcie_1_1gl_1_1AbsVertex.html" target="_top" xlink:title=" ">
<polygon fill="white" stroke="black" points="141,-675 141,-694 242,-694 242,-675 141,-675"/>
<text text-anchor="middle" x="191.5" y="-682" font-family="Helvetica,sans-Serif" font-size="10.00">cie::gl::AbsVertex</text>
</a>
</g>
</g>
<!-- Node0&#45;&gt;Node7 -->
<g id="edge7" class="edge">
<title>Node0&#45;&gt;Node7</title>
<path fill="none" stroke="midnightblue" d="M100.14,-698.26C113.48,-696.23 127.71,-694.06 140.83,-692.06"/>
<polygon fill="midnightblue" stroke="midnightblue" points="99.5,-694.81 90.14,-699.78 100.55,-701.73 99.5,-694.81"/>
</g>
<!-- Node11 -->
<g id="node12" class="node">
<title>Node11</title>
<g id="a_node12"><a xlink:href="classcie_1_1gl_1_1Axes3DScene.html" target="_top" xlink:title=" ">
<polygon fill="white" stroke="black" points="1043,-375 1043,-394 1161,-394 1161,-375 1043,-375"/>
<text text-anchor="middle" x="1102" y="-382" font-family="Helvetica,sans-Serif" font-size="10.00">cie::gl::Axes3DScene</text>
</a>
</g>
</g>
<!-- Node0&#45;&gt;Node11 -->
<g id="edge11" class="edge">
<title>Node0&#45;&gt;Node11</title>
<path fill="none" stroke="midnightblue" d="M50.34,-686.96C70.07,-603.79 159.34,-283.5 364,-283.5 364,-283.5 364,-283.5 747.5,-283.5 879.94,-283.5 1029.93,-349.86 1082,-375"/>
<polygon fill="midnightblue" stroke="midnightblue" points="46.89,-686.34 48.06,-696.87 53.71,-687.91 46.89,-686.34"/>
</g>
<!-- Node12 -->
<g id="node13" class="node">
<title>Node12</title>
<g id="a_node13"><a xlink:href="classcie_1_1gl_1_1Part.html" target="_top" xlink:title=" ">
<polygon fill="white" stroke="black" points="156,-865 156,-884 227,-884 227,-865 156,-865"/>
<text text-anchor="middle" x="191.5" y="-872" font-family="Helvetica,sans-Serif" font-size="10.00">cie::gl::Part</text>
</a>
</g>
</g>
<!-- Node0&#45;&gt;Node12 -->
<g id="edge12" class="edge">
<title>Node0&#45;&gt;Node12</title>
<path fill="none" stroke="midnightblue" d="M61.01,-723.95C91.2,-759.05 158.38,-837.15 182.05,-864.67"/>
<polygon fill="midnightblue" stroke="midnightblue" points="63.36,-721.31 54.18,-716.01 58.05,-725.88 63.36,-721.31"/>
</g>
<!-- Node2 -->
<g id="node3" class="node">
<title>Node2</title>
<g id="a_node3"><a xlink:href="classcie_1_1gl_1_1CompoundShape.html" target="_top" xlink:title=" ">
<polygon fill="white" stroke="black" points="298,-698.5 298,-728.5 432,-728.5 432,-698.5 298,-698.5"/>
<text text-anchor="start" x="306" y="-716.5" font-family="Helvetica,sans-Serif" font-size="10.00">cie::gl::CompoundShape</text>
<text text-anchor="middle" x="365" y="-705.5" font-family="Helvetica,sans-Serif" font-size="10.00">&lt; ColoredVertex3 &gt;</text>
</a>
</g>
</g>
<!-- Node1&#45;&gt;Node2 -->
<g id="edge2" class="edge">
<title>Node1&#45;&gt;Node2</title>
<path fill="none" stroke="midnightblue" d="M258.39,-728.28C271.33,-726.47 284.9,-724.57 297.84,-722.76"/>
<polygon fill="midnightblue" stroke="midnightblue" points="257.6,-724.86 248.18,-729.71 258.57,-731.79 257.6,-724.86"/>
</g>
<!-- Node4 -->
<g id="node5" class="node">
<title>Node4</title>
<g id="a_node5"><a xlink:href="classcie_1_1gl_1_1CompoundShape.html" target="_top" xlink:title="Container of shapes with an AbsGLShape interface.">
<polygon fill="white" stroke="black" points="298,-747.5 298,-777.5 432,-777.5 432,-747.5 298,-747.5"/>
<text text-anchor="start" x="306" y="-765.5" font-family="Helvetica,sans-Serif" font-size="10.00">cie::gl::CompoundShape</text>
<text text-anchor="middle" x="365" y="-754.5" font-family="Helvetica,sans-Serif" font-size="10.00">&lt; VertexType &gt;</text>
</a>
</g>
</g>
<!-- Node1&#45;&gt;Node4 -->
<g id="edge4" class="edge">
<title>Node1&#45;&gt;Node4</title>
<path fill="none" stroke="midnightblue" d="M258.39,-747.11C271.33,-748.99 284.9,-750.97 297.84,-752.86"/>
<polygon fill="midnightblue" stroke="midnightblue" points="258.58,-743.6 248.18,-745.62 257.57,-750.52 258.58,-743.6"/>
</g>
<!-- Node5 -->
<g id="node6" class="node">
<title>Node5</title>
<g id="a_node6"><a xlink:href="classcie_1_1gl_1_1GLShape.html" target="_top" xlink:title=" ">
<polygon fill="white" stroke="black" points="296.5,-796.5 296.5,-826.5 433.5,-826.5 433.5,-796.5 296.5,-796.5"/>
<text text-anchor="start" x="304.5" y="-814.5" font-family="Helvetica,sans-Serif" font-size="10.00">cie::gl::GLShape&lt; Vertex</text>
<text text-anchor="middle" x="365" y="-803.5" font-family="Helvetica,sans-Serif" font-size="10.00">Type &gt;</text>
</a>
</g>
</g>
<!-- Node1&#45;&gt;Node5 -->
<g id="edge5" class="edge">
<title>Node1&#45;&gt;Node5</title>
<path fill="none" stroke="midnightblue" d="M219.86,-751.9C239.85,-762.16 267.76,-775.94 293,-786.5 301.2,-789.93 310.05,-793.3 318.63,-796.4"/>
<polygon fill="midnightblue" stroke="midnightblue" points="221.22,-748.66 210.73,-747.18 218,-754.88 221.22,-748.66"/>
</g>
<!-- Node3 -->
<g id="node4" class="node">
<title>Node3</title>
<g id="a_node4"><a xlink:href="classcie_1_1gl_1_1Axes.html" target="_top" xlink:title=" ">
<polygon fill="white" stroke="black" points="514,-704 514,-723 589,-723 589,-704 514,-704"/>
<text text-anchor="middle" x="551.5" y="-711" font-family="Helvetica,sans-Serif" font-size="10.00">cie::gl::Axes</text>
</a>
</g>
</g>
<!-- Node2&#45;&gt;Node3 -->
<g id="edge3" class="edge">
<title>Node2&#45;&gt;Node3</title>
<path fill="none" stroke="midnightblue" d="M442.21,-713.5C466.96,-713.5 493.3,-713.5 513.81,-713.5"/>
<polygon fill="midnightblue" stroke="midnightblue" points="442.09,-710 432.09,-713.5 442.09,-717 442.09,-710"/>
</g>
<!-- Node6 -->
<g id="node7" class="node">
<title>Node6</title>
<g id="a_node7"><a xlink:href="classcie_1_1gl_1_1Arrow.html" target="_top" xlink:title=" ">
<polygon fill="white" stroke="black" points="473,-802 473,-821 630,-821 630,-802 473,-802"/>
<text text-anchor="middle" x="551.5" y="-809" font-family="Helvetica,sans-Serif" font-size="10.00">cie::gl::Arrow&lt; VertexType &gt;</text>
</a>
</g>
</g>
<!-- Node5&#45;&gt;Node6 -->
<g id="edge6" class="edge">
<title>Node5&#45;&gt;Node6</title>
<path fill="none" stroke="midnightblue" d="M443.94,-811.5C453.51,-811.5 463.3,-811.5 472.87,-811.5"/>
<polygon fill="midnightblue" stroke="midnightblue" points="443.65,-808 433.65,-811.5 443.65,-815 443.65,-808"/>
</g>
<!-- Node8 -->
<g id="node9" class="node">
<title>Node8</title>
<g id="a_node9"><a xlink:href="classcie_1_1gl_1_1Vertex2.html" target="_top" xlink:title=" ">
<polygon fill="white" stroke="black" points="320.5,-660 320.5,-679 409.5,-679 409.5,-660 320.5,-660"/>
<text text-anchor="middle" x="365" y="-667" font-family="Helvetica,sans-Serif" font-size="10.00">cie::gl::Vertex2</text>
</a>
</g>
</g>
<!-- Node7&#45;&gt;Node8 -->
<g id="edge8" class="edge">
<title>Node7&#45;&gt;Node8</title>
<path fill="none" stroke="midnightblue" d="M252.19,-679.28C274.61,-677.32 299.65,-675.13 320.34,-673.32"/>
<polygon fill="midnightblue" stroke="midnightblue" points="251.76,-675.8 242.1,-680.16 252.37,-682.78 251.76,-675.8"/>
</g>
<!-- Node9 -->
<g id="node10" class="node">
<title>Node9</title>
<g id="a_node10"><a xlink:href="classcie_1_1gl_1_1Vertex3.html" target="_top" xlink:title=" ">
<polygon fill="white" stroke="black" points="507,-666 507,-685 596,-685 596,-666 507,-666"/>
<text text-anchor="middle" x="551.5" y="-673" font-family="Helvetica,sans-Serif" font-size="10.00">cie::gl::Vertex3</text>
</a>
</g>
</g>
<!-- Node8&#45;&gt;Node9 -->
<g id="edge9" class="edge">
<title>Node8&#45;&gt;Node9</title>
<path fill="none" stroke="midnightblue" d="M420.01,-671.26C447.62,-672.15 480.78,-673.23 506.77,-674.08"/>
<polygon fill="midnightblue" stroke="midnightblue" points="419.83,-667.75 409.72,-670.92 419.6,-674.75 419.83,-667.75"/>
</g>
<!-- Node10 -->
<g id="node11" class="node">
<title>Node10</title>
<g id="a_node11"><a xlink:href="classcie_1_1gl_1_1ColoredVertex3.html" target="_top" xlink:title=" ">
<polygon fill="white" stroke="black" points="683,-666 683,-685 810,-685 810,-666 683,-666"/>
<text text-anchor="middle" x="746.5" y="-673" font-family="Helvetica,sans-Serif" font-size="10.00">cie::gl::ColoredVertex3</text>
</a>
</g>
</g>
<!-- Node9&#45;&gt;Node10 -->
<g id="edge10" class="edge">
<title>Node9&#45;&gt;Node10</title>
<path fill="none" stroke="midnightblue" d="M606.52,-675.5C630.23,-675.5 658.23,-675.5 682.85,-675.5"/>
<polygon fill="midnightblue" stroke="midnightblue" points="606.29,-672 596.29,-675.5 606.29,-679 606.29,-672"/>
</g>
<!-- Node13 -->
<g id="node14" class="node">
<title>Node13</title>
<g id="a_node14"><a xlink:href="classcie_1_1gl_1_1GenericPart.html" target="_top" xlink:title=" ">
<polygon fill="white" stroke="black" points="311,-922 311,-941 419,-941 419,-922 311,-922"/>
<text text-anchor="middle" x="365" y="-929" font-family="Helvetica,sans-Serif" font-size="10.00">cie::gl::GenericPart</text>
</a>
</g>
</g>
<!-- Node12&#45;&gt;Node13 -->
<g id="edge13" class="edge">
<title>Node12&#45;&gt;Node13</title>
<path fill="none" stroke="midnightblue" d="M225.17,-887.8C244.69,-895.51 270.06,-905.12 293,-912.5 303.45,-915.86 314.89,-919.11 325.47,-921.94"/>
<polygon fill="midnightblue" stroke="midnightblue" points="226.41,-884.53 215.82,-884.08 223.82,-891.03 226.41,-884.53"/>
</g>
<!-- Node14 -->
<g id="node15" class="node">
<title>Node14</title>
<g id="a_node15"><a xlink:href="classcie_1_1gl_1_1Line2DPart.html" target="_top" xlink:title=" ">
<polygon fill="white" stroke="black" points="313,-884 313,-903 417,-903 417,-884 313,-884"/>
<text text-anchor="middle" x="365" y="-891" font-family="Helvetica,sans-Serif" font-size="10.00">cie::gl::Line2DPart</text>
</a>
</g>
</g>
<!-- Node12&#45;&gt;Node14 -->
<g id="edge14" class="edge">
<title>Node12&#45;&gt;Node14</title>
<path fill="none" stroke="midnightblue" d="M237.43,-879.48C260.53,-882.04 288.8,-885.17 312.75,-887.82"/>
<polygon fill="midnightblue" stroke="midnightblue" points="237.53,-875.97 227.21,-878.34 236.76,-882.92 237.53,-875.97"/>
</g>
<!-- Node15 -->
<g id="node16" class="node">
<title>Node15</title>
<g id="a_node16"><a xlink:href="classcie_1_1gl_1_1Triangulated3DPart.html" target="_top" xlink:title=" ">
<polygon fill="white" stroke="black" points="293,-846 293,-865 437,-865 437,-846 293,-846"/>
<text text-anchor="middle" x="365" y="-853" font-family="Helvetica,sans-Serif" font-size="10.00">cie::gl::Triangulated3DPart</text>
</a>
</g>
</g>
<!-- Node12&#45;&gt;Node15 -->
<g id="edge15" class="edge">
<title>Node12&#45;&gt;Node15</title>
<path fill="none" stroke="midnightblue" d="M237.37,-869.53C254.33,-867.65 274.08,-865.46 292.86,-863.38"/>
<polygon fill="midnightblue" stroke="midnightblue" points="236.76,-866.08 227.21,-870.66 237.53,-873.03 236.76,-866.08"/>
</g>
<!-- Node16 -->
<g id="node17" class="node">
<title>Node16</title>
<g id="a_node17"><a xlink:href="classcie_1_1gl_1_1ObjPart.html" target="_top" xlink:title=" ">
<polygon fill="white" stroke="black" points="508,-843 508,-862 595,-862 595,-843 508,-843"/>
<text text-anchor="middle" x="551.5" y="-850" font-family="Helvetica,sans-Serif" font-size="10.00">cie::gl::ObjPart</text>
</a>
</g>
</g>
<!-- Node15&#45;&gt;Node16 -->
<g id="edge16" class="edge">
<title>Node15&#45;&gt;Node16</title>
<path fill="none" stroke="midnightblue" d="M447.23,-854.18C468.1,-853.84 489.73,-853.49 507.77,-853.19"/>
<polygon fill="midnightblue" stroke="midnightblue" points="447.01,-850.68 437.07,-854.34 447.12,-857.68 447.01,-850.68"/>
</g>
<!-- Node17 -->
<g id="node18" class="node">
<title>Node17</title>
<g id="a_node18"><a xlink:href="classcie_1_1gl_1_1STLPart.html" target="_top" xlink:title=" ">
<polygon fill="white" stroke="black" points="507.5,-881 507.5,-900 595.5,-900 595.5,-881 507.5,-881"/>
<text text-anchor="middle" x="551.5" y="-888" font-family="Helvetica,sans-Serif" font-size="10.00">cie::gl::STLPart</text>
</a>
</g>
</g>
<!-- Node15&#45;&gt;Node17 -->
<g id="edge17" class="edge">
<title>Node15&#45;&gt;Node17</title>
<path fill="none" stroke="midnightblue" d="M426.34,-866.95C452.78,-871.96 483.22,-877.74 507.34,-882.31"/>
<polygon fill="midnightblue" stroke="midnightblue" points="426.89,-863.49 416.42,-865.06 425.59,-870.37 426.89,-863.49"/>
</g>
<!-- Node37 -->
<g id="node19" class="node">
<title>Node37</title>
<g id="a_node19"><a target="_parent" xlink:href="../../../cieutils/docs/html/classcie_1_1utils_1_1IDObject.html" xlink:title=" ">
<polygon fill="white" stroke="black" points="312,-388.5 312,-418.5 418,-418.5 418,-388.5 312,-388.5"/>
<text text-anchor="start" x="320" y="-406.5" font-family="Helvetica,sans-Serif" font-size="10.00">cie::utils::IDObject</text>
<text text-anchor="middle" x="365" y="-395.5" font-family="Helvetica,sans-Serif" font-size="10.00">&lt; class &gt;</text>
</a>
</g>
</g>
<!-- Node38 -->
<g id="node20" class="node">
<title>Node38</title>
<g id="a_node20"><a xlink:href="classcie_1_1gl_1_1AbsMonitor.html" target="_top" xlink:title=" ">
<polygon fill="white" stroke="black" points="498,-312 498,-331 605,-331 605,-312 498,-312"/>
<text text-anchor="middle" x="551.5" y="-319" font-family="Helvetica,sans-Serif" font-size="10.00">cie::gl::AbsMonitor</text>
</a>
</g>
</g>
<!-- Node37&#45;&gt;Node38 -->
<g id="edge18" class="edge">
<title>Node37&#45;&gt;Node38</title>
<path fill="none" stroke="midnightblue" d="M395.96,-382.64C416.77,-368.98 445.57,-351.66 473,-340.5 482.24,-336.74 492.41,-333.6 502.26,-331.01"/>
<polygon fill="midnightblue" stroke="midnightblue" points="393.94,-379.78 387.56,-388.24 397.83,-385.61 393.94,-379.78"/>
</g>
<!-- Node40 -->
<g id="node22" class="node">
<title>Node40</title>
<g id="a_node22"><a xlink:href="classcie_1_1gl_1_1AbsProgram.html" target="_top" xlink:title=" ">
<polygon fill="white" stroke="black" points="496,-438 496,-457 607,-457 607,-438 496,-438"/>
<text text-anchor="middle" x="551.5" y="-445" font-family="Helvetica,sans-Serif" font-size="10.00">cie::gl::AbsProgram</text>
</a>
</g>
</g>
<!-- Node37&#45;&gt;Node40 -->
<g id="edge20" class="edge">
<title>Node37&#45;&gt;Node40</title>
<path fill="none" stroke="midnightblue" d="M428.21,-418.34C455.43,-424.83 486.57,-432.25 510.61,-437.99"/>
<polygon fill="midnightblue" stroke="midnightblue" points="428.92,-414.91 418.38,-415.99 427.29,-421.72 428.92,-414.91"/>
</g>
<!-- Node41 -->
<g id="node23" class="node">
<title>Node41</title>
<g id="a_node23"><a xlink:href="classcie_1_1gl_1_1AbsWindow.html" target="_top" xlink:title=" ">
<polygon fill="white" stroke="black" points="497,-552 497,-571 606,-571 606,-552 497,-552"/>
<text text-anchor="middle" x="551.5" y="-559" font-family="Helvetica,sans-Serif" font-size="10.00">cie::gl::AbsWindow</text>
</a>
</g>
</g>
<!-- Node37&#45;&gt;Node41 -->
<g id="edge21" class="edge">
<title>Node37&#45;&gt;Node41</title>
<path fill="none" stroke="midnightblue" d="M395.23,-424.92C409.14,-436.17 425.26,-450.85 437,-466.5 459.43,-496.4 444.04,-518.87 473,-542.5 479.87,-548.11 488.15,-552.1 496.7,-554.93"/>
<polygon fill="midnightblue" stroke="midnightblue" points="397.37,-422.15 387.34,-418.72 393.04,-427.65 397.37,-422.15"/>
</g>
<!-- Node43 -->
<g id="node25" class="node">
<title>Node43</title>
<g id="a_node25"><a xlink:href="classcie_1_1gl_1_1Buffer.html" target="_top" xlink:title=" ">
<polygon fill="white" stroke="black" points="489,-388.5 489,-418.5 614,-418.5 614,-388.5 489,-388.5"/>
<text text-anchor="start" x="497" y="-406.5" font-family="Helvetica,sans-Serif" font-size="10.00">cie::gl::Buffer&lt; TData,</text>
<text text-anchor="middle" x="551.5" y="-395.5" font-family="Helvetica,sans-Serif" font-size="10.00"> TDataContainer &gt;</text>
</a>
</g>
</g>
<!-- Node37&#45;&gt;Node43 -->
<g id="edge23" class="edge">
<title>Node37&#45;&gt;Node43</title>
<path fill="none" stroke="midnightblue" d="M428.64,-403.5C448.08,-403.5 469.48,-403.5 488.85,-403.5"/>
<polygon fill="midnightblue" stroke="midnightblue" points="428.38,-400 418.38,-403.5 428.38,-407 428.38,-400"/>
</g>
<!-- Node44 -->
<g id="node26" class="node">
<title>Node44</title>
<g id="a_node26"><a xlink:href="classcie_1_1gl_1_1Scene.html" target="_top" xlink:title=" ">
<polygon fill="white" stroke="black" points="511,-476 511,-495 592,-495 592,-476 511,-476"/>
<text text-anchor="middle" x="551.5" y="-483" font-family="Helvetica,sans-Serif" font-size="10.00">cie::gl::Scene</text>
</a>
</g>
</g>
<!-- Node37&#45;&gt;Node44 -->
<g id="edge24" class="edge">
<title>Node37&#45;&gt;Node44</title>
<path fill="none" stroke="midnightblue" d="M395.96,-424.36C416.77,-438.02 445.57,-455.34 473,-466.5 484.93,-471.35 498.43,-475.19 510.77,-478.1"/>
<polygon fill="midnightblue" stroke="midnightblue" points="397.83,-421.39 387.56,-418.76 393.94,-427.22 397.83,-421.39"/>
</g>
<!-- Node49 -->
<g id="node31" class="node">
<title>Node49</title>
<g id="a_node31"><a xlink:href="classcie_1_1gl_1_1Shader.html" target="_top" xlink:title="Interface class representing a shader written in GLSL.">
<polygon fill="white" stroke="black" points="508.5,-350 508.5,-369 594.5,-369 594.5,-350 508.5,-350"/>
<text text-anchor="middle" x="551.5" y="-357" font-family="Helvetica,sans-Serif" font-size="10.00">cie::gl::Shader</text>
</a>
</g>
</g>
<!-- Node37&#45;&gt;Node49 -->
<g id="edge30" class="edge">
<title>Node37&#45;&gt;Node49</title>
<path fill="none" stroke="midnightblue" d="M428.21,-388.66C455.43,-382.17 486.57,-374.75 510.61,-369.01"/>
<polygon fill="midnightblue" stroke="midnightblue" points="427.29,-385.28 418.38,-391.01 428.92,-392.09 427.29,-385.28"/>
</g>
<!-- Node52 -->
<g id="node34" class="node">
<title>Node52</title>
<g id="a_node34"><a xlink:href="classcie_1_1gl_1_1Shader_1_1Output.html" target="_top" xlink:title="Represents an output of the fragment shader.">
<polygon fill="white" stroke="black" points="489,-236 489,-255 614,-255 614,-236 489,-236"/>
<text text-anchor="middle" x="551.5" y="-243" font-family="Helvetica,sans-Serif" font-size="10.00">cie::gl::Shader::Output</text>
</a>
</g>
</g>
<!-- Node37&#45;&gt;Node52 -->
<g id="edge33" class="edge">
<title>Node37&#45;&gt;Node52</title>
<path fill="none" stroke="midnightblue" d="M388.28,-380.94C409.42,-359.89 442.43,-328.01 473,-302.5 494.29,-284.74 520.55,-266.04 536.39,-255.1"/>
<polygon fill="midnightblue" stroke="midnightblue" points="385.64,-378.62 381.05,-388.17 390.59,-383.57 385.64,-378.62"/>
</g>
<!-- Node39 -->
<g id="node21" class="node">
<title>Node39</title>
<g id="a_node21"><a xlink:href="classcie_1_1gl_1_1GLFWMonitor.html" target="_top" xlink:title=" ">
<polygon fill="white" stroke="black" points="687.5,-312 687.5,-331 805.5,-331 805.5,-312 687.5,-312"/>
<text text-anchor="middle" x="746.5" y="-319" font-family="Helvetica,sans-Serif" font-size="10.00">cie::gl::GLFWMonitor</text>
</a>
</g>
</g>
<!-- Node38&#45;&gt;Node39 -->
<g id="edge19" class="edge">
<title>Node38&#45;&gt;Node39</title>
<path fill="none" stroke="midnightblue" d="M615.31,-321.5C638.5,-321.5 664.65,-321.5 687.4,-321.5"/>
<polygon fill="midnightblue" stroke="midnightblue" points="615.24,-318 605.24,-321.5 615.24,-325 615.24,-318"/>
</g>
<!-- Node42 -->
<g id="node24" class="node">
<title>Node42</title>
<g id="a_node24"><a xlink:href="classcie_1_1gl_1_1GLFWWindow.html" target="_top" xlink:title=" ">
<polygon fill="white" stroke="black" points="687,-552 687,-571 806,-571 806,-552 687,-552"/>
<text text-anchor="middle" x="746.5" y="-559" font-family="Helvetica,sans-Serif" font-size="10.00">cie::gl::GLFWWindow</text>
</a>
</g>
</g>
<!-- Node41&#45;&gt;Node42 -->
<g id="edge22" class="edge">
<title>Node41&#45;&gt;Node42</title>
<path fill="none" stroke="midnightblue" d="M616.24,-561.5C638.99,-561.5 664.5,-561.5 686.81,-561.5"/>
<polygon fill="midnightblue" stroke="midnightblue" points="616,-558 606,-561.5 616,-565 616,-558"/>
</g>
<!-- Node45 -->
<g id="node27" class="node">
<title>Node45</title>
<g id="a_node27"><a xlink:href="classcie_1_1gl_1_1AbsPlot2_1_1Plot2Scene.html" target="_top" xlink:title="Internal Scene class used by AbsPlot2.">
<polygon fill="white" stroke="black" points="679,-426.5 679,-456.5 814,-456.5 814,-426.5 679,-426.5"/>
<text text-anchor="start" x="687" y="-444.5" font-family="Helvetica,sans-Serif" font-size="10.00">cie::gl::AbsPlot2&lt;</text>
<text text-anchor="middle" x="746.5" y="-433.5" font-family="Helvetica,sans-Serif" font-size="10.00"> Tag, Args &gt;::Plot2Scene</text>
</a>
</g>
</g>
<!-- Node44&#45;&gt;Node45 -->
<g id="edge25" class="edge">
<title>Node44&#45;&gt;Node45</title>
<path fill="none" stroke="midnightblue" d="M601.8,-474.26C625.4,-468.88 653.99,-462.36 679.43,-456.56"/>
<polygon fill="midnightblue" stroke="midnightblue" points="600.99,-470.85 592.02,-476.49 602.55,-477.68 600.99,-470.85"/>
</g>
<!-- Node46 -->
<g id="node28" class="node">
<title>Node46</title>
<g id="a_node28"><a xlink:href="classcie_1_1gl_1_1PartScene.html" target="_top" xlink:title=" ">
<polygon fill="white" stroke="black" points="696.5,-476 696.5,-495 796.5,-495 796.5,-476 696.5,-476"/>
<text text-anchor="middle" x="746.5" y="-483" font-family="Helvetica,sans-Serif" font-size="10.00">cie::gl::PartScene</text>
</a>
</g>
</g>
<!-- Node44&#45;&gt;Node46 -->
<g id="edge26" class="edge">
<title>Node44&#45;&gt;Node46</title>
<path fill="none" stroke="midnightblue" d="M602.33,-485.5C631.28,-485.5 667.61,-485.5 696.43,-485.5"/>
<polygon fill="midnightblue" stroke="midnightblue" points="602.02,-482 592.02,-485.5 602.02,-489 602.02,-482"/>
</g>
<!-- Node47 -->
<g id="node29" class="node">
<title>Node47</title>
<g id="a_node29"><a xlink:href="classcie_1_1gl_1_1GenericPartScene.html" target="_top" xlink:title="Convenience Scene class.">
<polygon fill="white" stroke="black" points="866.5,-476 866.5,-495 1003.5,-495 1003.5,-476 866.5,-476"/>
<text text-anchor="middle" x="935" y="-483" font-family="Helvetica,sans-Serif" font-size="10.00">cie::gl::GenericPartScene</text>
</a>
</g>
</g>
<!-- Node46&#45;&gt;Node47 -->
<g id="edge27" class="edge">
<title>Node46&#45;&gt;Node47</title>
<path fill="none" stroke="midnightblue" d="M806.53,-485.5C825.56,-485.5 846.8,-485.5 866.4,-485.5"/>
<polygon fill="midnightblue" stroke="midnightblue" points="806.5,-482 796.5,-485.5 806.5,-489 806.5,-482"/>
</g>
<!-- Node48 -->
<g id="node30" class="node">
<title>Node48</title>
<g id="a_node30"><a xlink:href="classcie_1_1gl_1_1Triangulated3DPartScene.html" target="_top" xlink:title=" ">
<polygon fill="white" stroke="black" points="863,-426.5 863,-456.5 1007,-456.5 1007,-426.5 863,-426.5"/>
<text text-anchor="start" x="871" y="-444.5" font-family="Helvetica,sans-Serif" font-size="10.00">cie::gl::Triangulated3DPart</text>
<text text-anchor="middle" x="935" y="-433.5" font-family="Helvetica,sans-Serif" font-size="10.00">Scene</text>
</a>
</g>
</g>
<!-- Node46&#45;&gt;Node48 -->
<g id="edge29" class="edge">
<title>Node46&#45;&gt;Node48</title>
<path fill="none" stroke="midnightblue" d="M797.87,-473.62C820.12,-468.37 846.53,-462.14 870.14,-456.57"/>
<polygon fill="midnightblue" stroke="midnightblue" points="796.9,-470.25 787.97,-475.95 798.5,-477.06 796.9,-470.25"/>
</g>
<!-- Node47&#45;&gt;Node11 -->
<g id="edge28" class="edge">
<title>Node47&#45;&gt;Node11</title>
<path fill="none" stroke="midnightblue" d="M991.31,-472.52C996.74,-470.48 1002.06,-468.15 1007,-465.5 1043.06,-446.13 1077.37,-410.9 1092.67,-394.01"/>
<polygon fill="midnightblue" stroke="midnightblue" points="989.8,-469.34 981.47,-475.89 992.07,-475.96 989.8,-469.34"/>
</g>
<!-- Node50 -->
<g id="node32" class="node">
<title>Node50</title>
<g id="a_node32"><a xlink:href="classcie_1_1gl_1_1DynamicShader.html" target="_top" xlink:title="Shader loaded from the filesystem.">
<polygon fill="white" stroke="black" points="682,-350 682,-369 811,-369 811,-350 682,-350"/>
<text text-anchor="middle" x="746.5" y="-357" font-family="Helvetica,sans-Serif" font-size="10.00">cie::gl::DynamicShader</text>
</a>
</g>
</g>
<!-- Node49&#45;&gt;Node50 -->
<g id="edge31" class="edge">
<title>Node49&#45;&gt;Node50</title>
<path fill="none" stroke="midnightblue" d="M605.07,-359.5C628.81,-359.5 657.05,-359.5 681.97,-359.5"/>
<polygon fill="midnightblue" stroke="midnightblue" points="604.85,-356 594.85,-359.5 604.85,-363 604.85,-356"/>
</g>
<!-- Node51 -->
<g id="node33" class="node">
<title>Node51</title>
<g id="a_node33"><a xlink:href="classcie_1_1gl_1_1StaticShader.html" target="_top" xlink:title="Shader loaded from memory.">
<polygon fill="white" stroke="black" points="690,-388 690,-407 803,-407 803,-388 690,-388"/>
<text text-anchor="middle" x="746.5" y="-395" font-family="Helvetica,sans-Serif" font-size="10.00">cie::gl::StaticShader</text>
</a>
</g>
</g>
<!-- Node49&#45;&gt;Node51 -->
<g id="edge32" class="edge">
<title>Node49&#45;&gt;Node51</title>
<path fill="none" stroke="midnightblue" d="M604.73,-369.78C633.5,-375.45 668.98,-382.43 697.12,-387.98"/>
<polygon fill="midnightblue" stroke="midnightblue" points="605.34,-366.34 594.85,-367.84 603.99,-373.21 605.34,-366.34"/>
</g>
<!-- Node53 -->
<g id="node35" class="node">
<title>Node53</title>
<g id="a_node35"><a target="_parent" xlink:href="../../../cieutils/docs/html/classcie_1_1utils_1_1IDObject.html" xlink:title=" ">
<polygon fill="white" stroke="black" points="312,-22.5 312,-52.5 418,-52.5 418,-22.5 312,-22.5"/>
<text text-anchor="start" x="320" y="-40.5" font-family="Helvetica,sans-Serif" font-size="10.00">cie::utils::IDObject</text>
<text text-anchor="middle" x="365" y="-29.5" font-family="Helvetica,sans-Serif" font-size="10.00">&lt; GLint &gt;</text>
</a>
</g>
</g>
<!-- Node54 -->
<g id="node36" class="node">
<title>Node54</title>
<g id="a_node36"><a xlink:href="classcie_1_1gl_1_1GLUniform.html" target="_top" xlink:title="Interface for loading uniforms into GL.">
<polygon fill="white" stroke="black" points="499.5,-69 499.5,-88 603.5,-88 603.5,-69 499.5,-69"/>
<text text-anchor="middle" x="551.5" y="-76" font-family="Helvetica,sans-Serif" font-size="10.00">cie::gl::GLUniform</text>
</a>
</g>
</g>
<!-- Node53&#45;&gt;Node54 -->
<g id="edge34" class="edge">
<title>Node53&#45;&gt;Node54</title>
<path fill="none" stroke="midnightblue" d="M428.19,-51.32C454.3,-57.12 484.03,-63.73 507.63,-68.97"/>
<polygon fill="midnightblue" stroke="midnightblue" points="428.9,-47.89 418.38,-49.14 427.38,-54.73 428.9,-47.89"/>
</g>
<!-- Node55 -->
<g id="node37" class="node">
<title>Node55</title>
<g id="a_node37"><a xlink:href="classcie_1_1gl_1_1FloatGLUniform.html" target="_top" xlink:title=" ">
<polygon fill="white" stroke="black" points="682,-88 682,-107 811,-107 811,-88 682,-88"/>
<text text-anchor="middle" x="746.5" y="-95" font-family="Helvetica,sans-Serif" font-size="10.00">cie::gl::FloatGLUniform</text>
</a>
</g>
</g>
<!-- Node54&#45;&gt;Node55 -->
<g id="edge35" class="edge">
<title>Node54&#45;&gt;Node55</title>
<path fill="none" stroke="midnightblue" d="M613.81,-84.54C635.55,-86.68 660.04,-89.09 681.96,-91.24"/>
<polygon fill="midnightblue" stroke="midnightblue" points="614.01,-81.04 603.71,-83.54 613.32,-88 614.01,-81.04"/>
</g>
<!-- Node56 -->
<g id="node38" class="node">
<title>Node56</title>
<g id="a_node38"><a xlink:href="classcie_1_1gl_1_1FloatMat4GLUniform.html" target="_top" xlink:title=" ">
<polygon fill="white" stroke="black" points="669.5,-50 669.5,-69 823.5,-69 823.5,-50 669.5,-50"/>
<text text-anchor="middle" x="746.5" y="-57" font-family="Helvetica,sans-Serif" font-size="10.00">cie::gl::FloatMat4GLUniform</text>
</a>
</g>
</g>
<!-- Node54&#45;&gt;Node56 -->
<g id="edge36" class="edge">
<title>Node54&#45;&gt;Node56</title>
<path fill="none" stroke="midnightblue" d="M613.86,-72.46C631.48,-70.72 650.92,-68.81 669.32,-67"/>
<polygon fill="midnightblue" stroke="midnightblue" points="613.32,-69 603.71,-73.46 614.01,-75.96 613.32,-69"/>
</g>
<!-- Node57 -->
<g id="node39" class="node">
<title>Node57</title>
<g id="a_node39"><a xlink:href="classcie_1_1gl_1_1FloatVec3GLUniform.html" target="_top" xlink:title=" ">
<polygon fill="white" stroke="black" points="670.5,-0.5 670.5,-30.5 822.5,-30.5 822.5,-0.5 670.5,-0.5"/>
<text text-anchor="start" x="678.5" y="-18.5" font-family="Helvetica,sans-Serif" font-size="10.00">cie::gl::FloatVec3GLUniform</text>
<text text-anchor="middle" x="746.5" y="-7.5" font-family="Helvetica,sans-Serif" font-size="10.00">&lt; BoundType &gt;</text>
</a>
</g>
</g>
<!-- Node54&#45;&gt;Node57 -->
<g id="edge37" class="edge">
<title>Node54&#45;&gt;Node57</title>
<path fill="none" stroke="midnightblue" d="M590.1,-65.72C612.17,-58.26 640.63,-48.73 666,-40.5 676.05,-37.24 686.83,-33.81 697.11,-30.56"/>
<polygon fill="midnightblue" stroke="midnightblue" points="588.79,-62.47 580.44,-68.99 591.03,-69.1 588.79,-62.47"/>
</g>
<!-- Node58 -->
<g id="node40" class="node">
<title>Node58</title>
<g id="a_node40"><a xlink:href="classcie_1_1gl_1_1GLUniformPlaceholder.html" target="_top" xlink:title=" ">
<polygon fill="white" stroke="black" points="666,-126 666,-145 827,-145 827,-126 666,-126"/>
<text text-anchor="middle" x="746.5" y="-133" font-family="Helvetica,sans-Serif" font-size="10.00">cie::gl::GLUniformPlaceholder</text>
</a>
</g>
</g>
<!-- Node54&#45;&gt;Node58 -->
<g id="edge38" class="edge">
<title>Node54&#45;&gt;Node58</title>
<path fill="none" stroke="midnightblue" d="M588.56,-91.48C610.75,-99.24 639.84,-109.01 666,-116.5 677.73,-119.86 690.55,-123.11 702.41,-125.94"/>
<polygon fill="midnightblue" stroke="midnightblue" points="589.49,-88.1 578.89,-88.08 587.16,-94.7 589.49,-88.1"/>
</g>
<!-- Node59 -->
<g id="node41" class="node">
<title>Node59</title>
<g id="a_node41"><a target="_parent" xlink:href="../../../cieutils/docs/html/classcie_1_1utils_1_1IDObject.html" xlink:title=" ">
<polygon fill="white" stroke="black" points="312,-186.5 312,-216.5 418,-216.5 418,-186.5 312,-186.5"/>
<text text-anchor="start" x="320" y="-204.5" font-family="Helvetica,sans-Serif" font-size="10.00">cie::utils::IDObject</text>
<text text-anchor="middle" x="365" y="-193.5" font-family="Helvetica,sans-Serif" font-size="10.00">&lt; GLuint &gt;</text>
</a>
</g>
</g>
<!-- Node60 -->
<g id="node42" class="node">
<title>Node60</title>
<g id="a_node42"><a xlink:href="classcie_1_1gl_1_1Texture.html" target="_top" xlink:title="Interface for loading textures onto the GPU.">
<polygon fill="white" stroke="black" points="507.5,-151 507.5,-170 595.5,-170 595.5,-151 507.5,-151"/>
<text text-anchor="middle" x="551.5" y="-158" font-family="Helvetica,sans-Serif" font-size="10.00">cie::gl::Texture</text>
</a>
</g>
</g>
<!-- Node59&#45;&gt;Node60 -->
<g id="edge39" class="edge">
<title>Node59&#45;&gt;Node60</title>
<path fill="none" stroke="midnightblue" d="M428.19,-187.68C454.3,-181.88 484.03,-175.27 507.63,-170.03"/>
<polygon fill="midnightblue" stroke="midnightblue" points="427.38,-184.27 418.38,-189.86 428.9,-191.11 427.38,-184.27"/>
</g>
<!-- Node61 -->
<g id="node43" class="node">
<title>Node61</title>
<g id="a_node43"><a xlink:href="classcie_1_1gl_1_1VertexArrayObject.html" target="_top" xlink:title=" ">
<polygon fill="white" stroke="black" points="481,-195 481,-214 622,-214 622,-195 481,-195"/>
<text text-anchor="middle" x="551.5" y="-202" font-family="Helvetica,sans-Serif" font-size="10.00">cie::gl::VertexArrayObject</text>
</a>
</g>
</g>
<!-- Node59&#45;&gt;Node61 -->
<g id="edge40" class="edge">
<title>Node59&#45;&gt;Node61</title>
<path fill="none" stroke="midnightblue" d="M428.61,-202.52C445.38,-202.79 463.62,-203.09 480.76,-203.37"/>
<polygon fill="midnightblue" stroke="midnightblue" points="428.43,-199.01 418.38,-202.35 428.32,-206.01 428.43,-199.01"/>
</g>
<!-- Node73 -->
<g id="node44" class="node">
<title>Node73</title>
<g id="a_node44"><a target="_parent" xlink:href="../../../cieutils/docs/html/classcie_1_1utils_1_1NamedObject.html" xlink:title=" ">
<polygon fill="white" stroke="black" points="126,-148 126,-167 257,-167 257,-148 126,-148"/>
<text text-anchor="middle" x="191.5" y="-155" font-family="Helvetica,sans-Serif" font-size="10.00">cie::utils::NamedObject</text>
</a>
</g>
</g>
<!-- Node73&#45;&gt;Node52 -->
<g id="edge42" class="edge">
<title>Node73&#45;&gt;Node52</title>
<path fill="none" stroke="midnightblue" d="M210.16,-173.71C229.09,-189.99 260.78,-214.24 293,-225.5 357.13,-247.91 435.54,-250.8 488.87,-249.43"/>
<polygon fill="midnightblue" stroke="midnightblue" points="212.45,-171.06 202.64,-167.07 207.82,-176.31 212.45,-171.06"/>
</g>
<!-- Node74 -->
<g id="node45" class="node">
<title>Node74</title>
<g id="a_node45"><a xlink:href="classcie_1_1gl_1_1Shader_1_1Attribute.html" target="_top" xlink:title="Immutable attribute descriptor for vertex shaders.">
<polygon fill="white" stroke="black" points="298,-72 298,-91 432,-91 432,-72 298,-72"/>
<text text-anchor="middle" x="365" y="-79" font-family="Helvetica,sans-Serif" font-size="10.00">cie::gl::Shader::Attribute</text>
</a>
</g>
</g>
<!-- Node73&#45;&gt;Node74 -->
<g id="edge41" class="edge">
<title>Node73&#45;&gt;Node74</title>
<path fill="none" stroke="midnightblue" d="M215.18,-142.41C235.01,-129.77 264.96,-111.98 293,-100.5 301.97,-96.82 311.88,-93.66 321.37,-91.02"/>
<polygon fill="midnightblue" stroke="midnightblue" points="213.05,-139.62 206.56,-147.99 216.86,-145.49 213.05,-139.62"/>
</g>
<!-- Node75 -->
<g id="node46" class="node">
<title>Node75</title>
<g id="a_node46"><a xlink:href="classcie_1_1gl_1_1Shader_1_1Texture.html" target="_top" xlink:title="Immutable texture descriptor.">
<polygon fill="white" stroke="black" points="301,-148 301,-167 429,-167 429,-148 301,-148"/>
<text text-anchor="middle" x="365" y="-155" font-family="Helvetica,sans-Serif" font-size="10.00">cie::gl::Shader::Texture</text>
</a>
</g>
</g>
<!-- Node73&#45;&gt;Node75 -->
<g id="edge43" class="edge">
<title>Node73&#45;&gt;Node75</title>
<path fill="none" stroke="midnightblue" d="M267.45,-157.5C278.57,-157.5 289.93,-157.5 300.78,-157.5"/>
<polygon fill="midnightblue" stroke="midnightblue" points="267.34,-154 257.34,-157.5 267.34,-161 267.34,-154"/>
</g>
<!-- Node76 -->
<g id="node47" class="node">
<title>Node76</title>
<g id="a_node47"><a xlink:href="classcie_1_1gl_1_1Shader_1_1Uniform.html" target="_top" xlink:title="Immutable uniform descriptor (for any shader).">
<polygon fill="white" stroke="black" points="299.5,-110 299.5,-129 430.5,-129 430.5,-110 299.5,-110"/>
<text text-anchor="middle" x="365" y="-117" font-family="Helvetica,sans-Serif" font-size="10.00">cie::gl::Shader::Uniform</text>
</a>
</g>
</g>
<!-- Node73&#45;&gt;Node76 -->
<g id="edge45" class="edge">
<title>Node73&#45;&gt;Node76</title>
<path fill="none" stroke="midnightblue" d="M245.54,-145.75C269.79,-140.37 298.15,-134.09 321.03,-129.02"/>
<polygon fill="midnightblue" stroke="midnightblue" points="244.78,-142.33 235.78,-147.91 246.3,-149.16 244.78,-142.33"/>
</g>
<!-- Node77 -->
<g id="node48" class="node">
<title>Node77</title>
<g id="a_node48"><a target="_parent" xlink:href="../../../cieutils/docs/html/classcie_1_1utils_1_1Loggee.html" xlink:title=" ">
<polygon fill="white" stroke="black" points="315.5,-476 315.5,-495 414.5,-495 414.5,-476 315.5,-476"/>
<text text-anchor="middle" x="365" y="-483" font-family="Helvetica,sans-Serif" font-size="10.00">cie::utils::Loggee</text>
</a>
</g>
</g>
<!-- Node73&#45;&gt;Node77 -->
<g id="edge47" class="edge">
<title>Node73&#45;&gt;Node77</title>
<path fill="none" stroke="midnightblue" d="M196.14,-177.28C205.53,-224.35 234.11,-345.2 293,-427.5 307.82,-448.21 331.85,-465.69 347.79,-475.89"/>
<polygon fill="midnightblue" stroke="midnightblue" points="199.52,-176.37 194.2,-167.21 192.65,-177.69 199.52,-176.37"/>
</g>
<!-- Node75&#45;&gt;Node60 -->
<g id="edge44" class="edge">
<title>Node75&#45;&gt;Node60</title>
<path fill="none" stroke="midnightblue" d="M439.35,-158.69C462.41,-159.07 487.13,-159.47 507.38,-159.8"/>
<polygon fill="midnightblue" stroke="midnightblue" points="439.29,-155.19 429.24,-158.53 439.18,-162.19 439.29,-155.19"/>
</g>
<!-- Node76&#45;&gt;Node54 -->
<g id="edge46" class="edge">
<title>Node76&#45;&gt;Node54</title>
<path fill="none" stroke="midnightblue" d="M418.86,-107.75C447,-101.5 481.15,-93.91 507.62,-88.03"/>
<polygon fill="midnightblue" stroke="midnightblue" points="417.79,-104.4 408.79,-109.99 419.31,-111.24 417.79,-104.4"/>
</g>
<!-- Node77&#45;&gt;Node40 -->
<g id="edge50" class="edge">
<title>Node77&#45;&gt;Node40</title>
<path fill="none" stroke="midnightblue" d="M422.37,-473.89C448.61,-468.49 479.44,-462.14 504.28,-457.02"/>
<polygon fill="midnightblue" stroke="midnightblue" points="421.65,-470.47 412.56,-475.91 423.06,-477.32 421.65,-470.47"/>
</g>
<!-- Node77&#45;&gt;Node41 -->
<g id="edge51" class="edge">
<title>Node77&#45;&gt;Node41</title>
<path fill="none" stroke="midnightblue" d="M389.65,-500.31C410.81,-513.02 443.03,-531.05 473,-542.5 482.71,-546.21 493.38,-549.37 503.61,-552"/>
<polygon fill="midnightblue" stroke="midnightblue" points="391.38,-497.27 381.02,-495.06 387.74,-503.25 391.38,-497.27"/>
</g>
<!-- Node77&#45;&gt;Node44 -->
<g id="edge53" class="edge">
<title>Node77&#45;&gt;Node44</title>
<path fill="none" stroke="midnightblue" d="M425.06,-485.5C453.13,-485.5 485.93,-485.5 510.94,-485.5"/>
<polygon fill="midnightblue" stroke="midnightblue" points="424.96,-482 414.96,-485.5 424.96,-489 424.96,-482"/>
</g>
<!-- Node77&#45;&gt;Node61 -->
<g id="edge54" class="edge">
<title>Node77&#45;&gt;Node61</title>
<path fill="none" stroke="midnightblue" d="M392.61,-470.43C408.02,-460.29 426.41,-445.51 437,-427.5 483,-349.27 412.09,-293.78 473,-226.5 477.79,-221.21 483.74,-217.16 490.21,-214.06"/>
<polygon fill="midnightblue" stroke="midnightblue" points="390.57,-467.58 383.96,-475.85 394.29,-473.51 390.57,-467.58"/>
</g>
<!-- Node78 -->
<g id="node49" class="node">
<title>Node78</title>
<g id="a_node49"><a xlink:href="classcie_1_1gl_1_1AbsCamera.html" target="_top" xlink:title=" ">
<polygon fill="white" stroke="black" points="497.5,-590 497.5,-609 605.5,-609 605.5,-590 497.5,-590"/>
<text text-anchor="middle" x="551.5" y="-597" font-family="Helvetica,sans-Serif" font-size="10.00">cie::gl::AbsCamera</text>
</a>
</g>
</g>
<!-- Node77&#45;&gt;Node78 -->
<g id="edge48" class="edge">
<title>Node77&#45;&gt;Node78</title>
<path fill="none" stroke="midnightblue" d="M390.62,-500.85C404.87,-510.29 422.75,-523.12 437,-536.5 455.42,-553.8 451.63,-567.02 473,-580.5 480.38,-585.16 488.82,-588.67 497.36,-591.33"/>
<polygon fill="midnightblue" stroke="midnightblue" points="392.14,-497.67 381.85,-495.16 388.33,-503.54 392.14,-497.67"/>
</g>
<!-- Node80 -->
<g id="node51" class="node">
<title>Node80</title>
<g id="a_node51"><a xlink:href="classcie_1_1gl_1_1BufferManager.html" target="_top" xlink:title=" ">
<polygon fill="white" stroke="black" points="489.5,-514 489.5,-533 613.5,-533 613.5,-514 489.5,-514"/>
<text text-anchor="middle" x="551.5" y="-521" font-family="Helvetica,sans-Serif" font-size="10.00">cie::gl::BufferManager</text>
</a>
</g>
</g>
<!-- Node77&#45;&gt;Node80 -->
<g id="edge52" class="edge">
<title>Node77&#45;&gt;Node80</title>
<path fill="none" stroke="midnightblue" d="M422.37,-497.11C448.61,-502.51 479.44,-508.86 504.28,-513.98"/>
<polygon fill="midnightblue" stroke="midnightblue" points="423.06,-493.68 412.56,-495.09 421.65,-500.53 423.06,-493.68"/>
</g>
<!-- Node79 -->
<g id="node50" class="node">
<title>Node79</title>
<g id="a_node50"><a xlink:href="classcie_1_1gl_1_1Camera.html" target="_top" xlink:title=" ">
<polygon fill="white" stroke="black" points="671.5,-603.5 671.5,-633.5 821.5,-633.5 821.5,-603.5 671.5,-603.5"/>
<text text-anchor="start" x="679.5" y="-621.5" font-family="Helvetica,sans-Serif" font-size="10.00">cie::gl::Camera&lt; Projection</text>
<text text-anchor="middle" x="746.5" y="-610.5" font-family="Helvetica,sans-Serif" font-size="10.00">Type &gt;</text>
</a>
</g>
</g>
<!-- Node78&#45;&gt;Node79 -->
<g id="edge49" class="edge">
<title>Node78&#45;&gt;Node79</title>
<path fill="none" stroke="midnightblue" d="M615.98,-605.75C633.73,-607.5 653.18,-609.41 671.48,-611.21"/>
<polygon fill="midnightblue" stroke="midnightblue" points="616.04,-602.24 605.75,-604.74 615.36,-609.21 616.04,-602.24"/>
</g>
<!-- Node91 -->
<g id="node52" class="node">
<title>Node91</title>
<g id="a_node52"><a xlink:href="classcie_1_1gl_1_1RigidBody.html" target="_top" xlink:title=" ">
<polygon fill="white" stroke="black" points="314.5,-609 314.5,-628 415.5,-628 415.5,-609 314.5,-609"/>
<text text-anchor="middle" x="365" y="-616" font-family="Helvetica,sans-Serif" font-size="10.00">cie::gl::RigidBody</text>
</a>
</g>
</g>
<!-- Node91&#45;&gt;Node3 -->
<g id="edge56" class="edge">
<title>Node91&#45;&gt;Node3</title>
<path fill="none" stroke="midnightblue" d="M404.48,-631.99C415.58,-636.87 427.29,-643.05 437,-650.5 457.05,-665.88 451.63,-681.02 473,-694.5 485.19,-702.19 500.26,-706.76 513.87,-709.49"/>
<polygon fill="midnightblue" stroke="midnightblue" points="405.54,-628.64 394.96,-628.04 402.86,-635.11 405.54,-628.64"/>
</g>
<!-- Node91&#45;&gt;Node78 -->
<g id="edge55" class="edge">
<title>Node91&#45;&gt;Node78</title>
<path fill="none" stroke="midnightblue" d="M425.91,-612.33C448.91,-609.96 474.98,-607.28 497.3,-604.98"/>
<polygon fill="midnightblue" stroke="midnightblue" points="425.52,-608.85 415.93,-613.36 426.23,-615.82 425.52,-608.85"/>
</g>
<!-- Node99 -->
<g id="node53" class="node">
<title>Node99</title>
<g id="a_node53"><a target="_parent" xlink:href="../../../cieutils/docs/html/classcie_1_1utils_1_1observer_1_1Subject.html" xlink:title=" ">
<polygon fill="white" stroke="black" points="311.5,-546.5 311.5,-576.5 418.5,-576.5 418.5,-546.5 311.5,-546.5"/>
<text text-anchor="start" x="319.5" y="-564.5" font-family="Helvetica,sans-Serif" font-size="10.00">cie::utils::observer</text>
<text text-anchor="middle" x="365" y="-553.5" font-family="Helvetica,sans-Serif" font-size="10.00">::Subject</text>
</a>
</g>
</g>
<!-- Node99&#45;&gt;Node41 -->
<g id="edge57" class="edge">
<title>Node99&#45;&gt;Node41</title>
<path fill="none" stroke="midnightblue" d="M429.15,-561.5C451.22,-561.5 475.77,-561.5 496.98,-561.5"/>
<polygon fill="midnightblue" stroke="midnightblue" points="428.87,-558 418.87,-561.5 428.87,-565 428.87,-558"/>
</g>
<!-- Node109 -->
<g id="node54" class="node">
<title>Node109</title>
<g id="a_node54"><a xlink:href="classcie_1_1gl_1_1ProjectionType.html" target="_top" xlink:title=" ">
<polygon fill="white" stroke="black" points="490,-628 490,-647 613,-647 613,-628 490,-628"/>
<text text-anchor="middle" x="551.5" y="-635" font-family="Helvetica,sans-Serif" font-size="10.00">cie::gl::ProjectionType</text>
</a>
</g>
</g>
<!-- Node109&#45;&gt;Node79 -->
<g id="edge58" class="edge">
<title>Node109&#45;&gt;Node79</title>
<path fill="none" stroke="midnightblue" d="M623.17,-630.54C638.83,-629 655.47,-627.36 671.27,-625.81"/>
<polygon fill="midnightblue" stroke="midnightblue" points="622.65,-627.08 613.04,-631.54 623.33,-634.04 622.65,-627.08"/>
</g>
</g>
</svg>
