<?xml version="1.0" encoding="UTF-8" standalone="no"?>
<!DOCTYPE svg PUBLIC "-//W3C//DTD SVG 1.1//EN"
 "http://www.w3.org/Graphics/SVG/1.1/DTD/svg11.dtd">
<!-- Generated by graphviz version 2.43.0 (0)
 -->
<!-- Title: Graphical Class Hierarchy Pages: 1 -->
<svg width="311pt" height="88pt"
 viewBox="0.00 0.00 311.00 88.00" xmlns="http://www.w3.org/2000/svg" xmlns:xlink="http://www.w3.org/1999/xlink">
<g id="graph0" class="graph" transform="scale(1 1) rotate(0) translate(4 84)">
<title>Graphical Class Hierarchy</title>
<polygon fill="white" stroke="transparent" points="-4,4 -4,-84 307,-84 307,4 -4,4"/>
<!-- Node14 -->
<g id="node1" class="node">
<title>Node14</title>
<g id="a_node1"><a xlink:title=" ">
<polygon fill="white" stroke="#bfbfbf" points="8,-49.5 8,-79.5 117,-79.5 117,-49.5 8,-49.5"/>
<text text-anchor="start" x="16" y="-67.5" font-family="Helvetica,sans-Serif" font-size="10.00">std::enable_shared</text>
<text text-anchor="middle" x="62.5" y="-56.5" font-family="Helvetica,sans-Serif" font-size="10.00">_from_this</text>
</a>
</g>
</g>
<!-- Node0 -->
<g id="node2" class="node">
<title>Node0</title>
<g id="a_node2"><a xlink:href="classcie_1_1gl_1_1AttributeContainer.html" target="_top" xlink:title=" ">
<polygon fill="white" stroke="black" points="161,-30 161,-49 303,-49 303,-30 161,-30"/>
<text text-anchor="middle" x="232" y="-37" font-family="Helvetica,sans-Serif" font-size="10.00">cie::gl::AttributeContainer</text>
</a>
</g>
</g>
<!-- Node14&#45;&gt;Node0 -->
<g id="edge1" class="edge">
<title>Node14&#45;&gt;Node0</title>
<path fill="none" stroke="midnightblue" d="M127.66,-54.92C140.64,-52.99 154.28,-50.95 167.25,-49.02"/>
<polygon fill="midnightblue" stroke="midnightblue" points="126.79,-51.51 117.42,-56.45 127.83,-58.44 126.79,-51.51"/>
</g>
<!-- Node98 -->
<g id="node3" class="node">
<title>Node98</title>
<g id="a_node3"><a target="_parent" xlink:href="../../../cieutils/docs/html/classcie_1_1STLContainerBase.html" xlink:title=" ">
<polygon fill="white" stroke="black" points="0,-0.5 0,-30.5 125,-30.5 125,-0.5 0,-0.5"/>
<text text-anchor="start" x="8" y="-18.5" font-family="Helvetica,sans-Serif" font-size="10.00">cie::STLContainerBase</text>
<text text-anchor="middle" x="62.5" y="-7.5" font-family="Helvetica,sans-Serif" font-size="10.00">&lt; TBase &gt;</text>
</a>
</g>
</g>
<!-- Node98&#45;&gt;Node0 -->
<g id="edge2" class="edge">
<title>Node98&#45;&gt;Node0</title>
<path fill="none" stroke="midnightblue" d="M135.39,-25.8C145.08,-27.19 154.99,-28.61 164.58,-29.98"/>
<polygon fill="midnightblue" stroke="midnightblue" points="135.79,-22.32 125.39,-24.37 134.8,-29.25 135.79,-22.32"/>
</g>
</g>
</svg>
