<?xml version="1.0" encoding="UTF-8" standalone="no"?>
<!DOCTYPE svg PUBLIC "-//W3C//DTD SVG 1.1//EN"
 "http://www.w3.org/Graphics/SVG/1.1/DTD/svg11.dtd">
<!-- Generated by graphviz version 2.43.0 (0)
 -->
<!-- Title: Graphical Class Hierarchy Pages: 1 -->
<svg width="453pt" height="173pt"
 viewBox="0.00 0.00 453.00 172.50" xmlns="http://www.w3.org/2000/svg" xmlns:xlink="http://www.w3.org/1999/xlink">
<g id="graph0" class="graph" transform="scale(1 1) rotate(0) translate(4 168.5)">
<title>Graphical Class Hierarchy</title>
<polygon fill="white" stroke="transparent" points="-4,4 -4,-168.5 449,-168.5 449,4 -4,4"/>
<!-- Node0 -->
<g id="node1" class="node">
<title>Node0</title>
<g id="a_node1"><a xlink:href="classcie_1_1gl_1_1AbsPlot.html" target="_top" xlink:title=" ">
<polygon fill="white" stroke="black" points="0,-55 0,-74 89,-74 89,-55 0,-55"/>
<text text-anchor="middle" x="44.5" y="-62" font-family="Helvetica,sans-Serif" font-size="10.00">cie::gl::AbsPlot</text>
</a>
</g>
</g>
<!-- Node1 -->
<g id="node2" class="node">
<title>Node1</title>
<g id="a_node2"><a xlink:href="classcie_1_1gl_1_1AbsPlot2.html" target="_top" xlink:title=" ">
<polygon fill="white" stroke="black" points="143.5,-98.5 143.5,-128.5 246.5,-128.5 246.5,-98.5 143.5,-98.5"/>
<text text-anchor="start" x="151.5" y="-116.5" font-family="Helvetica,sans-Serif" font-size="10.00">cie::gl::AbsPlot2&lt;</text>
<text text-anchor="middle" x="195" y="-105.5" font-family="Helvetica,sans-Serif" font-size="10.00"> std::true_type &gt;</text>
</a>
</g>
</g>
<!-- Node0&#45;&gt;Node1 -->
<g id="edge1" class="edge">
<title>Node0&#45;&gt;Node1</title>
<path fill="none" stroke="midnightblue" d="M84.05,-77.22C103.74,-83.72 127.82,-91.66 148.43,-98.46"/>
<polygon fill="midnightblue" stroke="midnightblue" points="85.08,-73.87 74.48,-74.06 82.88,-80.52 85.08,-73.87"/>
</g>
<!-- Node4 -->
<g id="node5" class="node">
<title>Node4</title>
<g id="a_node5"><a xlink:href="classcie_1_1gl_1_1AbsPlot2.html" target="_top" xlink:title=" ">
<polygon fill="white" stroke="black" points="125,-49.5 125,-79.5 265,-79.5 265,-49.5 125,-49.5"/>
<text text-anchor="start" x="133" y="-67.5" font-family="Helvetica,sans-Serif" font-size="10.00">cie::gl::AbsPlot2&lt;</text>
<text text-anchor="middle" x="195" y="-56.5" font-family="Helvetica,sans-Serif" font-size="10.00"> std::false_type, Args... &gt;</text>
</a>
</g>
</g>
<!-- Node0&#45;&gt;Node4 -->
<g id="edge4" class="edge">
<title>Node0&#45;&gt;Node4</title>
<path fill="none" stroke="midnightblue" d="M99.5,-64.5C107.76,-64.5 116.39,-64.5 124.93,-64.5"/>
<polygon fill="midnightblue" stroke="midnightblue" points="99.25,-61 89.25,-64.5 99.25,-68 99.25,-61"/>
</g>
<!-- Node6 -->
<g id="node7" class="node">
<title>Node6</title>
<g id="a_node7"><a xlink:href="classcie_1_1gl_1_1AbsPlot2.html" target="_top" xlink:title=" ">
<polygon fill="white" stroke="black" points="143.5,-0.5 143.5,-30.5 246.5,-30.5 246.5,-0.5 143.5,-0.5"/>
<text text-anchor="start" x="151.5" y="-18.5" font-family="Helvetica,sans-Serif" font-size="10.00">cie::gl::AbsPlot2&lt;</text>
<text text-anchor="middle" x="195" y="-7.5" font-family="Helvetica,sans-Serif" font-size="10.00"> Tag, Args &gt;</text>
</a>
</g>
</g>
<!-- Node0&#45;&gt;Node6 -->
<g id="edge6" class="edge">
<title>Node0&#45;&gt;Node6</title>
<path fill="none" stroke="midnightblue" d="M84.05,-51.78C103.74,-45.28 127.82,-37.34 148.43,-30.54"/>
<polygon fill="midnightblue" stroke="midnightblue" points="82.88,-48.48 74.48,-54.94 85.08,-55.13 82.88,-48.48"/>
</g>
<!-- Node2 -->
<g id="node3" class="node">
<title>Node2</title>
<g id="a_node3"><a xlink:href="structcie_1_1gl_1_1Plot2_3_01TObject_01_4.html" target="_top" xlink:title=" ">
<polygon fill="white" stroke="black" points="304.5,-145 304.5,-164 441.5,-164 441.5,-145 304.5,-145"/>
<text text-anchor="middle" x="373" y="-152" font-family="Helvetica,sans-Serif" font-size="10.00">cie::gl::Plot2&lt; TObject &gt;</text>
</a>
</g>
</g>
<!-- Node1&#45;&gt;Node2 -->
<g id="edge2" class="edge">
<title>Node1&#45;&gt;Node2</title>
<path fill="none" stroke="midnightblue" d="M256.83,-127.67C281.32,-133.38 308.92,-139.81 330.96,-144.94"/>
<polygon fill="midnightblue" stroke="midnightblue" points="257.44,-124.22 246.91,-125.36 255.85,-131.04 257.44,-124.22"/>
</g>
<!-- Node3 -->
<g id="node4" class="node">
<title>Node3</title>
<g id="a_node4"><a xlink:href="structcie_1_1gl_1_1Plot2_3_01XContainer_00_01YContainer_01_4.html" target="_top" xlink:title="Standard x&#45;y plot.">
<polygon fill="white" stroke="black" points="301,-95.5 301,-125.5 445,-125.5 445,-95.5 301,-95.5"/>
<text text-anchor="start" x="309" y="-113.5" font-family="Helvetica,sans-Serif" font-size="10.00">cie::gl::Plot2&lt; XContainer,</text>
<text text-anchor="middle" x="373" y="-102.5" font-family="Helvetica,sans-Serif" font-size="10.00"> YContainer &gt;</text>
</a>
</g>
</g>
<!-- Node1&#45;&gt;Node3 -->
<g id="edge3" class="edge">
<title>Node1&#45;&gt;Node3</title>
<path fill="none" stroke="midnightblue" d="M257.01,-112.46C271.17,-112.22 286.37,-111.96 300.92,-111.71"/>
<polygon fill="midnightblue" stroke="midnightblue" points="256.85,-108.96 246.91,-112.63 256.96,-115.96 256.85,-108.96"/>
</g>
<!-- Node5 -->
<g id="node6" class="node">
<title>Node5</title>
<g id="a_node6"><a xlink:href="classcie_1_1gl_1_1Plot2.html" target="_top" xlink:title="Default Plot2 that will cause a compilation error.">
<polygon fill="white" stroke="black" points="312.5,-55 312.5,-74 433.5,-74 433.5,-55 312.5,-55"/>
<text text-anchor="middle" x="373" y="-62" font-family="Helvetica,sans-Serif" font-size="10.00">cie::gl::Plot2&lt; Args &gt;</text>
</a>
</g>
</g>
<!-- Node4&#45;&gt;Node5 -->
<g id="edge5" class="edge">
<title>Node4&#45;&gt;Node5</title>
<path fill="none" stroke="midnightblue" d="M275.39,-64.5C287.79,-64.5 300.41,-64.5 312.27,-64.5"/>
<polygon fill="midnightblue" stroke="midnightblue" points="275.05,-61 265.05,-64.5 275.05,-68 275.05,-61"/>
</g>
</g>
</svg>
