<?xml version="1.0" encoding="UTF-8" standalone="no"?>
<!DOCTYPE svg PUBLIC "-//W3C//DTD SVG 1.1//EN"
 "http://www.w3.org/Graphics/SVG/1.1/DTD/svg11.dtd">
<!-- Generated by graphviz version 2.43.0 (0)
 -->
<!-- Title: Graphical Class Hierarchy Pages: 1 -->
<svg width="456pt" height="39pt"
 viewBox="0.00 0.00 456.00 39.00" xmlns="http://www.w3.org/2000/svg" xmlns:xlink="http://www.w3.org/1999/xlink">
<g id="graph0" class="graph" transform="scale(1 1) rotate(0) translate(4 35)">
<title>Graphical Class Hierarchy</title>
<polygon fill="white" stroke="transparent" points="-4,4 -4,-35 452,-35 452,4 -4,4"/>
<!-- Node104 -->
<g id="node1" class="node">
<title>Node104</title>
<g id="a_node1"><a xlink:title=" ">
<polygon fill="white" stroke="#bfbfbf" points="0,-6 0,-25 66,-25 66,-6 0,-6"/>
<text text-anchor="middle" x="33" y="-13" font-family="Helvetica,sans-Serif" font-size="10.00">MeshData</text>
</a>
</g>
</g>
<!-- Node0 -->
<g id="node2" class="node">
<title>Node0</title>
<g id="a_node2"><a xlink:href="classmodules_1_1glmesh_1_1meshnode_1_1MeshNode.html" target="_top" xlink:title=" ">
<polygon fill="white" stroke="black" points="102,-0.5 102,-30.5 257,-30.5 257,-0.5 102,-0.5"/>
<text text-anchor="start" x="110" y="-18.5" font-family="Helvetica,sans-Serif" font-size="10.00">modules.glmesh.meshnode.</text>
<text text-anchor="middle" x="179.5" y="-7.5" font-family="Helvetica,sans-Serif" font-size="10.00">MeshNode</text>
</a>
</g>
</g>
<!-- Node104&#45;&gt;Node0 -->
<g id="edge1" class="edge">
<title>Node104&#45;&gt;Node0</title>
<path fill="none" stroke="midnightblue" d="M76.31,-15.5C84.4,-15.5 93.1,-15.5 101.89,-15.5"/>
<polygon fill="midnightblue" stroke="midnightblue" points="76.07,-12 66.07,-15.5 76.07,-19 76.07,-12"/>
</g>
<!-- Node1 -->
<g id="node3" class="node">
<title>Node1</title>
<g id="a_node3"><a xlink:href="classmodules_1_1glmesh_1_1meshnode_1_1TexturedMeshNode.html" target="_top" xlink:title=" ">
<polygon fill="white" stroke="black" points="293,-0.5 293,-30.5 448,-30.5 448,-0.5 293,-0.5"/>
<text text-anchor="start" x="301" y="-18.5" font-family="Helvetica,sans-Serif" font-size="10.00">modules.glmesh.meshnode.</text>
<text text-anchor="middle" x="370.5" y="-7.5" font-family="Helvetica,sans-Serif" font-size="10.00">TexturedMeshNode</text>
</a>
</g>
</g>
<!-- Node0&#45;&gt;Node1 -->
<g id="edge2" class="edge">
<title>Node0&#45;&gt;Node1</title>
<path fill="none" stroke="midnightblue" d="M267.1,-15.5C275.67,-15.5 284.33,-15.5 292.79,-15.5"/>
<polygon fill="midnightblue" stroke="midnightblue" points="267.1,-12 257.1,-15.5 267.1,-19 267.1,-12"/>
</g>
</g>
</svg>
