<?xml version="1.0" encoding="UTF-8" standalone="no"?>
<!DOCTYPE svg PUBLIC "-//W3C//DTD SVG 1.1//EN"
 "http://www.w3.org/Graphics/SVG/1.1/DTD/svg11.dtd">
<!-- Generated by graphviz version 2.43.0 (0)
 -->
<!-- Title: Graphical Class Hierarchy Pages: 1 -->
<svg width="351pt" height="88pt"
 viewBox="0.00 0.00 351.00 88.00" xmlns="http://www.w3.org/2000/svg" xmlns:xlink="http://www.w3.org/1999/xlink">
<g id="graph0" class="graph" transform="scale(1 1) rotate(0) translate(4 84)">
<title>Graphical Class Hierarchy</title>
<polygon fill="white" stroke="transparent" points="-4,4 -4,-84 347,-84 347,4 -4,4"/>
<!-- Node101 -->
<g id="node1" class="node">
<title>Node101</title>
<g id="a_node1"><a xlink:title=" ">
<polygon fill="white" stroke="#bfbfbf" points="0,-30 0,-49 109,-49 109,-30 0,-30"/>
<text text-anchor="middle" x="54.5" y="-37" font-family="Helvetica,sans-Serif" font-size="10.00">EventHandlerClass</text>
</a>
</g>
</g>
<!-- Node0 -->
<g id="node2" class="node">
<title>Node0</title>
<g id="a_node2"><a xlink:href="classmodules_1_1glvisuals_1_1linemarkercanvas_1_1LineMarkerCanvasCreateEvents.html" target="_top" xlink:title=" ">
<polygon fill="white" stroke="black" points="145,-49.5 145,-79.5 343,-79.5 343,-49.5 145,-49.5"/>
<text text-anchor="start" x="153" y="-67.5" font-family="Helvetica,sans-Serif" font-size="10.00">modules.glvisuals.linemarkercanvas.</text>
<text text-anchor="middle" x="244" y="-56.5" font-family="Helvetica,sans-Serif" font-size="10.00">LineMarkerCanvasCreateEvents</text>
</a>
</g>
</g>
<!-- Node101&#45;&gt;Node0 -->
<g id="edge1" class="edge">
<title>Node101&#45;&gt;Node0</title>
<path fill="none" stroke="midnightblue" d="M119.21,-47.99C127.55,-49.11 136.24,-50.27 144.99,-51.43"/>
<polygon fill="midnightblue" stroke="midnightblue" points="119.6,-44.52 109.23,-46.66 118.68,-51.46 119.6,-44.52"/>
</g>
<!-- Node103 -->
<g id="node3" class="node">
<title>Node103</title>
<g id="a_node3"><a xlink:href="classmodules_1_1glvisuals_1_1linemarkercanvas_1_1LineMarkerCanvasEditEvents.html" target="_top" xlink:title=" ">
<polygon fill="white" stroke="black" points="145,-0.5 145,-30.5 343,-30.5 343,-0.5 145,-0.5"/>
<text text-anchor="start" x="153" y="-18.5" font-family="Helvetica,sans-Serif" font-size="10.00">modules.glvisuals.linemarkercanvas.</text>
<text text-anchor="middle" x="244" y="-7.5" font-family="Helvetica,sans-Serif" font-size="10.00">LineMarkerCanvasEditEvents</text>
</a>
</g>
</g>
<!-- Node101&#45;&gt;Node103 -->
<g id="edge2" class="edge">
<title>Node101&#45;&gt;Node103</title>
<path fill="none" stroke="midnightblue" d="M119.21,-31.35C127.55,-30.28 136.24,-29.17 144.99,-28.05"/>
<polygon fill="midnightblue" stroke="midnightblue" points="118.7,-27.88 109.23,-32.62 119.59,-34.82 118.7,-27.88"/>
</g>
</g>
</svg>
