<?xml version="1.0" encoding="UTF-8" standalone="no"?>
<!DOCTYPE svg PUBLIC "-//W3C//DTD SVG 1.1//EN"
 "http://www.w3.org/Graphics/SVG/1.1/DTD/svg11.dtd">
<!-- Generated by graphviz version 2.43.0 (0)
 -->
<!-- Title: MappedControls.hpp Pages: 1 -->
<svg width="876pt" height="229pt"
 viewBox="0.00 0.00 875.50 229.00" xmlns="http://www.w3.org/2000/svg" xmlns:xlink="http://www.w3.org/1999/xlink">
<g id="graph0" class="graph" transform="scale(1 1) rotate(0) translate(4 225)">
<title>MappedControls.hpp</title>
<polygon fill="white" stroke="transparent" points="-4,4 -4,-225 871.5,-225 871.5,4 -4,4"/>
<!-- Node1 -->
<g id="node1" class="node">
<title>Node1</title>
<g id="a_node1"><a xlink:title=" ">
<polygon fill="#bfbfbf" stroke="black" points="459.5,-201.5 459.5,-220.5 576.5,-220.5 576.5,-201.5 459.5,-201.5"/>
<text text-anchor="middle" x="518" y="-208.5" font-family="Helvetica,sans-Serif" font-size="10.00">MappedControls.hpp</text>
</a>
</g>
</g>
<!-- Node2 -->
<g id="node2" class="node">
<title>Node2</title>
<g id="a_node2"><a xlink:href="ControlKey_8hpp.html" target="_top" xlink:title=" ">
<polygon fill="white" stroke="black" points="185,-134.5 185,-164.5 301,-164.5 301,-134.5 185,-134.5"/>
<text text-anchor="start" x="193" y="-152.5" font-family="Helvetica,sans-Serif" font-size="10.00">packages/control/inc</text>
<text text-anchor="middle" x="243" y="-141.5" font-family="Helvetica,sans-Serif" font-size="10.00">/ControlKey.hpp</text>
</a>
</g>
</g>
<!-- Node1&#45;&gt;Node2 -->
<g id="edge1" class="edge">
<title>Node1&#45;&gt;Node2</title>
<path fill="none" stroke="midnightblue" d="M478.6,-201.48C434.93,-192.03 363.71,-176.62 310.99,-165.21"/>
<polygon fill="midnightblue" stroke="midnightblue" points="311.55,-161.75 301.04,-163.06 310.07,-168.59 311.55,-161.75"/>
</g>
<!-- Node5 -->
<g id="node5" class="node">
<title>Node5</title>
<g id="a_node5"><a xlink:title=" ">
<polygon fill="white" stroke="#bfbfbf" points="128.5,-6 128.5,-25 193.5,-25 193.5,-6 128.5,-6"/>
<text text-anchor="middle" x="161" y="-13" font-family="Helvetica,sans-Serif" font-size="10.00">functional</text>
</a>
</g>
</g>
<!-- Node1&#45;&gt;Node5 -->
<g id="edge12" class="edge">
<title>Node1&#45;&gt;Node5</title>
<path fill="none" stroke="midnightblue" d="M503.63,-201.25C491.39,-193.16 474.08,-180.13 463,-165 435.31,-127.17 460.13,-96.87 424,-67 391.01,-39.72 269.39,-25.56 203.73,-19.75"/>
<polygon fill="midnightblue" stroke="midnightblue" points="203.95,-16.26 193.69,-18.89 203.36,-23.24 203.95,-16.26"/>
</g>
<!-- Node7 -->
<g id="node7" class="node">
<title>Node7</title>
<g id="a_node7"><a xlink:title=" ">
<polygon fill="white" stroke="#bfbfbf" points="371,-73 371,-92 415,-92 415,-73 371,-73"/>
<text text-anchor="middle" x="393" y="-80" font-family="Helvetica,sans-Serif" font-size="10.00">string</text>
</a>
</g>
</g>
<!-- Node1&#45;&gt;Node7 -->
<g id="edge11" class="edge">
<title>Node1&#45;&gt;Node7</title>
<path fill="none" stroke="midnightblue" d="M490.02,-201.48C470.74,-194.39 445.69,-182.58 429,-165 412.07,-147.16 402.28,-120.04 397.3,-102.05"/>
<polygon fill="midnightblue" stroke="midnightblue" points="400.65,-101.03 394.79,-92.2 393.86,-102.75 400.65,-101.03"/>
</g>
<!-- Node9 -->
<g id="node9" class="node">
<title>Node9</title>
<g id="a_node9"><a xlink:title=" ">
<polygon fill="white" stroke="#bfbfbf" points="471.5,-140 471.5,-159 564.5,-159 564.5,-140 471.5,-140"/>
<text text-anchor="middle" x="518" y="-147" font-family="Helvetica,sans-Serif" font-size="10.00">unordered_map</text>
</a>
</g>
</g>
<!-- Node1&#45;&gt;Node9 -->
<g id="edge9" class="edge">
<title>Node1&#45;&gt;Node9</title>
<path fill="none" stroke="midnightblue" d="M518,-201.48C518,-193.08 518,-179.98 518,-169.16"/>
<polygon fill="midnightblue" stroke="midnightblue" points="521.5,-169.01 518,-159.01 514.5,-169.01 521.5,-169.01"/>
</g>
<!-- Node10 -->
<g id="node10" class="node">
<title>Node10</title>
<g id="a_node10"><a xlink:title=" ">
<polygon fill="white" stroke="#bfbfbf" points="582.5,-140 582.5,-159 629.5,-159 629.5,-140 582.5,-140"/>
<text text-anchor="middle" x="606" y="-147" font-family="Helvetica,sans-Serif" font-size="10.00">deque</text>
</a>
</g>
</g>
<!-- Node1&#45;&gt;Node10 -->
<g id="edge10" class="edge">
<title>Node1&#45;&gt;Node10</title>
<path fill="none" stroke="midnightblue" d="M530.61,-201.48C544.72,-191.93 567.83,-176.31 584.75,-164.87"/>
<polygon fill="midnightblue" stroke="midnightblue" points="587.09,-167.51 593.42,-159.01 583.17,-161.71 587.09,-167.51"/>
</g>
<!-- Node11 -->
<g id="node11" class="node">
<title>Node11</title>
<g id="a_node11"><a xlink:title=" ">
<polygon fill="white" stroke="#bfbfbf" points="648,-140 648,-159 702,-159 702,-140 648,-140"/>
<text text-anchor="middle" x="675" y="-147" font-family="Helvetica,sans-Serif" font-size="10.00">istream</text>
</a>
</g>
</g>
<!-- Node1&#45;&gt;Node11 -->
<g id="edge13" class="edge">
<title>Node1&#45;&gt;Node11</title>
<path fill="none" stroke="midnightblue" d="M541.72,-201.39C566.17,-192.47 605.35,-178.03 639,-165 640.84,-164.29 642.73,-163.55 644.63,-162.8"/>
<polygon fill="midnightblue" stroke="midnightblue" points="646.1,-165.98 654.1,-159.03 643.51,-159.48 646.1,-165.98"/>
</g>
<!-- Node12 -->
<g id="node12" class="node">
<title>Node12</title>
<g id="a_node12"><a xlink:title=" ">
<polygon fill="white" stroke="#bfbfbf" points="720.5,-134.5 720.5,-164.5 867.5,-164.5 867.5,-134.5 720.5,-134.5"/>
<text text-anchor="start" x="728.5" y="-152.5" font-family="Helvetica,sans-Serif" font-size="10.00">packages/control/impl</text>
<text text-anchor="middle" x="794" y="-141.5" font-family="Helvetica,sans-Serif" font-size="10.00">/MappedControls_impl.hpp</text>
</a>
</g>
</g>
<!-- Node1&#45;&gt;Node12 -->
<g id="edge14" class="edge">
<title>Node1&#45;&gt;Node12</title>
<path fill="none" stroke="midnightblue" d="M557.54,-201.48C599.55,-192.42 666.96,-177.89 719.08,-166.65"/>
<polygon fill="midnightblue" stroke="midnightblue" points="719.91,-170.05 728.95,-164.52 718.44,-163.21 719.91,-170.05"/>
</g>
<!-- Node3 -->
<g id="node3" class="node">
<title>Node3</title>
<g id="a_node3"><a xlink:href="callback__types_8hpp.html" target="_top" xlink:title=" ">
<polygon fill="white" stroke="black" points="7,-67.5 7,-97.5 123,-97.5 123,-67.5 7,-67.5"/>
<text text-anchor="start" x="15" y="-85.5" font-family="Helvetica,sans-Serif" font-size="10.00">packages/control/inc</text>
<text text-anchor="middle" x="65" y="-74.5" font-family="Helvetica,sans-Serif" font-size="10.00">/callback_types.hpp</text>
</a>
</g>
</g>
<!-- Node2&#45;&gt;Node3 -->
<g id="edge2" class="edge">
<title>Node2&#45;&gt;Node3</title>
<path fill="none" stroke="midnightblue" d="M204.38,-134.4C177.55,-124.6 141.62,-111.48 112.97,-101.02"/>
<polygon fill="midnightblue" stroke="midnightblue" points="114.14,-97.72 103.55,-97.58 111.74,-104.29 114.14,-97.72"/>
</g>
<!-- Node2&#45;&gt;Node5 -->
<g id="edge7" class="edge">
<title>Node2&#45;&gt;Node5</title>
<path fill="none" stroke="midnightblue" d="M211.1,-134.33C196.1,-125.97 179.47,-113.88 170,-98 158.57,-78.84 157.76,-52.61 158.85,-35.13"/>
<polygon fill="midnightblue" stroke="midnightblue" points="162.35,-35.35 159.75,-25.08 155.38,-34.73 162.35,-35.35"/>
</g>
<!-- Node6 -->
<g id="node6" class="node">
<title>Node6</title>
<g id="a_node6"><a xlink:title=" ">
<polygon fill="white" stroke="#bfbfbf" points="179,-73 179,-92 211,-92 211,-73 179,-73"/>
<text text-anchor="middle" x="195" y="-80" font-family="Helvetica,sans-Serif" font-size="10.00">set</text>
</a>
</g>
</g>
<!-- Node2&#45;&gt;Node6 -->
<g id="edge5" class="edge">
<title>Node2&#45;&gt;Node6</title>
<path fill="none" stroke="midnightblue" d="M232.58,-134.4C225.17,-124.36 215.19,-110.84 207.37,-100.25"/>
<polygon fill="midnightblue" stroke="midnightblue" points="210.18,-98.16 201.42,-92.19 204.55,-102.32 210.18,-98.16"/>
</g>
<!-- Node2&#45;&gt;Node7 -->
<g id="edge6" class="edge">
<title>Node2&#45;&gt;Node7</title>
<path fill="none" stroke="midnightblue" d="M276.99,-134.46C300.87,-124.5 333.51,-110.7 362,-98 363.19,-97.47 364.4,-96.92 365.63,-96.37"/>
<polygon fill="midnightblue" stroke="midnightblue" points="367.4,-99.41 375.02,-92.04 364.47,-93.05 367.4,-99.41"/>
</g>
<!-- Node8 -->
<g id="node8" class="node">
<title>Node8</title>
<g id="a_node8"><a xlink:title=" ">
<polygon fill="white" stroke="#bfbfbf" points="229,-67.5 229,-97.5 353,-97.5 353,-67.5 229,-67.5"/>
<text text-anchor="start" x="237" y="-85.5" font-family="Helvetica,sans-Serif" font-size="10.00">packages/control/impl</text>
<text text-anchor="middle" x="291" y="-74.5" font-family="Helvetica,sans-Serif" font-size="10.00">/ControlKey_impl.hpp</text>
</a>
</g>
</g>
<!-- Node2&#45;&gt;Node8 -->
<g id="edge8" class="edge">
<title>Node2&#45;&gt;Node8</title>
<path fill="none" stroke="midnightblue" d="M253.42,-134.4C259.58,-126.05 267.53,-115.29 274.52,-105.81"/>
<polygon fill="midnightblue" stroke="midnightblue" points="277.48,-107.7 280.61,-97.58 271.85,-103.54 277.48,-107.7"/>
</g>
<!-- Node4 -->
<g id="node4" class="node">
<title>Node4</title>
<g id="a_node4"><a target="_parent" xlink:href="../../../cieutils/docs/html/types_8hpp.html.html" xlink:title=" ">
<polygon fill="white" stroke="black" points="0,-0.5 0,-30.5 110,-30.5 110,-0.5 0,-0.5"/>
<text text-anchor="start" x="8" y="-18.5" font-family="Helvetica,sans-Serif" font-size="10.00">packages/types/inc</text>
<text text-anchor="middle" x="55" y="-7.5" font-family="Helvetica,sans-Serif" font-size="10.00">/types.hpp</text>
</a>
</g>
</g>
<!-- Node3&#45;&gt;Node4 -->
<g id="edge3" class="edge">
<title>Node3&#45;&gt;Node4</title>
<path fill="none" stroke="midnightblue" d="M62.83,-67.4C61.62,-59.56 60.09,-49.6 58.7,-40.57"/>
<polygon fill="midnightblue" stroke="midnightblue" points="62.15,-39.93 57.17,-30.58 55.23,-40.99 62.15,-39.93"/>
</g>
<!-- Node3&#45;&gt;Node5 -->
<g id="edge4" class="edge">
<title>Node3&#45;&gt;Node5</title>
<path fill="none" stroke="midnightblue" d="M85.83,-67.4C101.78,-56.6 123.7,-41.76 139.75,-30.89"/>
<polygon fill="midnightblue" stroke="midnightblue" points="142.12,-33.51 148.44,-25.01 138.19,-27.72 142.12,-33.51"/>
</g>
</g>
</svg>
