<?xml version="1.0" encoding="UTF-8" standalone="no"?>
<!DOCTYPE svg PUBLIC "-//W3C//DTD SVG 1.1//EN"
 "http://www.w3.org/Graphics/SVG/1.1/DTD/svg11.dtd">
<!-- Generated by graphviz version 2.43.0 (0)
 -->
<!-- Title: OrthographicProjection.hpp Pages: 1 -->
<svg width="248pt" height="151pt"
 viewBox="0.00 0.00 247.50 151.00" xmlns="http://www.w3.org/2000/svg" xmlns:xlink="http://www.w3.org/1999/xlink">
<g id="graph0" class="graph" transform="scale(1 1) rotate(0) translate(4 147)">
<title>OrthographicProjection.hpp</title>
<polygon fill="white" stroke="transparent" points="-4,4 -4,-147 243.5,-147 243.5,4 -4,4"/>
<!-- Node1 -->
<g id="node1" class="node">
<title>Node1</title>
<g id="a_node1"><a xlink:title=" ">
<polygon fill="#bfbfbf" stroke="black" points="90.5,-123.5 90.5,-142.5 239.5,-142.5 239.5,-123.5 90.5,-123.5"/>
<text text-anchor="middle" x="165" y="-130.5" font-family="Helvetica,sans-Serif" font-size="10.00">OrthographicProjection.hpp</text>
</a>
</g>
</g>
<!-- Node2 -->
<g id="node2" class="node">
<title>Node2</title>
<g id="a_node2"><a xlink:href="ProjectionPolicy_8hpp.html" target="_top" xlink:title=" ">
<polygon fill="white" stroke="black" points="61.5,-56.5 61.5,-86.5 180.5,-86.5 180.5,-56.5 61.5,-56.5"/>
<text text-anchor="start" x="69.5" y="-74.5" font-family="Helvetica,sans-Serif" font-size="10.00">packages/camera/inc</text>
<text text-anchor="middle" x="121" y="-63.5" font-family="Helvetica,sans-Serif" font-size="10.00">/ProjectionPolicy.hpp</text>
</a>
</g>
</g>
<!-- Node1&#45;&gt;Node2 -->
<g id="edge1" class="edge">
<title>Node1&#45;&gt;Node2</title>
<path fill="none" stroke="midnightblue" d="M158.7,-123.48C153.13,-115.94 144.76,-104.63 137.32,-94.57"/>
<polygon fill="midnightblue" stroke="midnightblue" points="140.13,-92.48 131.37,-86.52 134.5,-96.64 140.13,-92.48"/>
</g>
<!-- Node5 -->
<g id="node5" class="node">
<title>Node5</title>
<g id="a_node5"><a xlink:title=" ">
<polygon fill="white" stroke="#bfbfbf" points="182.5,-0.5 182.5,-19.5 227.5,-19.5 227.5,-0.5 182.5,-0.5"/>
<text text-anchor="middle" x="205" y="-7.5" font-family="Helvetica,sans-Serif" font-size="10.00">utility</text>
</a>
</g>
</g>
<!-- Node1&#45;&gt;Node5 -->
<g id="edge5" class="edge">
<title>Node1&#45;&gt;Node5</title>
<path fill="none" stroke="midnightblue" d="M170.84,-123.43C176.55,-114.65 185.08,-100.43 190,-87 196.92,-68.1 200.88,-45.32 202.97,-29.66"/>
<polygon fill="midnightblue" stroke="midnightblue" points="206.45,-30.02 204.18,-19.67 199.5,-29.18 206.45,-30.02"/>
</g>
<!-- Node3 -->
<g id="node3" class="node">
<title>Node3</title>
<g id="a_node3"><a xlink:title=" ">
<polygon fill="white" stroke="#bfbfbf" points="0,-0.5 0,-19.5 78,-19.5 78,-0.5 0,-0.5"/>
<text text-anchor="middle" x="39" y="-7.5" font-family="Helvetica,sans-Serif" font-size="10.00">glm/glm.hpp</text>
</a>
</g>
</g>
<!-- Node2&#45;&gt;Node3 -->
<g id="edge2" class="edge">
<title>Node2&#45;&gt;Node3</title>
<path fill="none" stroke="midnightblue" d="M101.57,-56.4C88.79,-47.13 72.11,-35.03 59.19,-25.65"/>
<polygon fill="midnightblue" stroke="midnightblue" points="61.08,-22.7 50.93,-19.66 56.97,-28.36 61.08,-22.7"/>
</g>
<!-- Node4 -->
<g id="node4" class="node">
<title>Node4</title>
<g id="a_node4"><a xlink:title=" ">
<polygon fill="white" stroke="#bfbfbf" points="96,-0.5 96,-19.5 156,-19.5 156,-0.5 96,-0.5"/>
<text text-anchor="middle" x="126" y="-7.5" font-family="Helvetica,sans-Serif" font-size="10.00">concepts</text>
</a>
</g>
</g>
<!-- Node2&#45;&gt;Node4 -->
<g id="edge3" class="edge">
<title>Node2&#45;&gt;Node4</title>
<path fill="none" stroke="midnightblue" d="M122.18,-56.4C122.85,-48.47 123.69,-38.46 124.42,-29.86"/>
<polygon fill="midnightblue" stroke="midnightblue" points="127.92,-29.92 125.27,-19.66 120.95,-29.33 127.92,-29.92"/>
</g>
<!-- Node2&#45;&gt;Node5 -->
<g id="edge4" class="edge">
<title>Node2&#45;&gt;Node5</title>
<path fill="none" stroke="midnightblue" d="M140.91,-56.4C153.99,-47.13 171.08,-35.03 184.32,-25.65"/>
<polygon fill="midnightblue" stroke="midnightblue" points="186.64,-28.29 192.78,-19.66 182.59,-22.58 186.64,-28.29"/>
</g>
</g>
</svg>
