<?xml version="1.0" encoding="UTF-8" standalone="no"?>
<!DOCTYPE svg PUBLIC "-//W3C//DTD SVG 1.1//EN"
 "http://www.w3.org/Graphics/SVG/1.1/DTD/svg11.dtd">
<!-- Generated by graphviz version 2.43.0 (0)
 -->
<!-- Title: Part.hpp Pages: 1 -->
<svg width="656pt" height="196pt"
 viewBox="0.00 0.00 655.50 196.00" xmlns="http://www.w3.org/2000/svg" xmlns:xlink="http://www.w3.org/1999/xlink">
<g id="graph0" class="graph" transform="scale(1 1) rotate(0) translate(4 192)">
<title>Part.hpp</title>
<polygon fill="white" stroke="transparent" points="-4,4 -4,-192 651.5,-192 651.5,4 -4,4"/>
<!-- Node1 -->
<g id="node1" class="node">
<title>Node1</title>
<g id="a_node1"><a xlink:title=" ">
<polygon fill="#bfbfbf" stroke="black" points="193,-168.5 193,-187.5 249,-187.5 249,-168.5 193,-168.5"/>
<text text-anchor="middle" x="221" y="-175.5" font-family="Helvetica,sans-Serif" font-size="10.00">Part.hpp</text>
</a>
</g>
</g>
<!-- Node2 -->
<g id="node2" class="node">
<title>Node2</title>
<g id="a_node2"><a xlink:href="GenericPart_8hpp.html" target="_top" xlink:title=" ">
<polygon fill="white" stroke="black" points="0,-112.5 0,-131.5 94,-131.5 94,-112.5 0,-112.5"/>
<text text-anchor="middle" x="47" y="-119.5" font-family="Helvetica,sans-Serif" font-size="10.00">GenericPart.hpp</text>
</a>
</g>
</g>
<!-- Node1&#45;&gt;Node2 -->
<g id="edge1" class="edge">
<title>Node1&#45;&gt;Node2</title>
<path fill="none" stroke="midnightblue" d="M183.74,-165.44C150.93,-155.26 103.92,-140.66 74.44,-131.52"/>
<polygon fill="midnightblue" stroke="midnightblue" points="182.84,-168.82 193.43,-168.44 184.92,-162.14 182.84,-168.82"/>
</g>
<!-- Node3 -->
<g id="node3" class="node">
<title>Node3</title>
<g id="a_node3"><a xlink:href="Line2DPart_8hpp.html" target="_top" xlink:title=" ">
<polygon fill="white" stroke="black" points="112,-112.5 112,-131.5 202,-131.5 202,-112.5 112,-112.5"/>
<text text-anchor="middle" x="157" y="-119.5" font-family="Helvetica,sans-Serif" font-size="10.00">Line2DPart.hpp</text>
</a>
</g>
</g>
<!-- Node1&#45;&gt;Node3 -->
<g id="edge2" class="edge">
<title>Node1&#45;&gt;Node3</title>
<path fill="none" stroke="midnightblue" d="M203.01,-161.82C191.54,-152.15 177.09,-139.95 167.47,-131.83"/>
<polygon fill="midnightblue" stroke="midnightblue" points="200.82,-164.55 210.72,-168.32 205.33,-159.2 200.82,-164.55"/>
</g>
<!-- Node4 -->
<g id="node4" class="node">
<title>Node4</title>
<g id="a_node4"><a xlink:href="Triangulated3DPart_8hpp.html" target="_top" xlink:title=" ">
<polygon fill="white" stroke="black" points="220,-112.5 220,-131.5 350,-131.5 350,-112.5 220,-112.5"/>
<text text-anchor="middle" x="285" y="-119.5" font-family="Helvetica,sans-Serif" font-size="10.00">Triangulated3DPart.hpp</text>
</a>
</g>
</g>
<!-- Node1&#45;&gt;Node4 -->
<g id="edge3" class="edge">
<title>Node1&#45;&gt;Node4</title>
<path fill="none" stroke="midnightblue" d="M238.99,-161.82C250.46,-152.15 264.91,-139.95 274.53,-131.83"/>
<polygon fill="midnightblue" stroke="midnightblue" points="236.67,-159.2 231.28,-168.32 241.18,-164.55 236.67,-159.2"/>
</g>
<!-- Node7 -->
<g id="node7" class="node">
<title>Node7</title>
<g id="a_node7"><a xlink:href="PartScene_8hpp.html" target="_top" xlink:title=" ">
<polygon fill="white" stroke="black" points="368,-112.5 368,-131.5 454,-131.5 454,-112.5 368,-112.5"/>
<text text-anchor="middle" x="411" y="-119.5" font-family="Helvetica,sans-Serif" font-size="10.00">PartScene.hpp</text>
</a>
</g>
</g>
<!-- Node1&#45;&gt;Node7 -->
<g id="edge6" class="edge">
<title>Node1&#45;&gt;Node7</title>
<path fill="none" stroke="midnightblue" d="M258.66,-166.3C294.54,-156.1 347.86,-140.95 380.97,-131.54"/>
<polygon fill="midnightblue" stroke="midnightblue" points="257.7,-162.93 249.04,-169.03 259.61,-169.66 257.7,-162.93"/>
</g>
<!-- Node5 -->
<g id="node5" class="node">
<title>Node5</title>
<g id="a_node5"><a xlink:href="ObjPart_8hpp.html" target="_top" xlink:title=" ">
<polygon fill="white" stroke="black" points="159.5,-56.5 159.5,-75.5 232.5,-75.5 232.5,-56.5 159.5,-56.5"/>
<text text-anchor="middle" x="196" y="-63.5" font-family="Helvetica,sans-Serif" font-size="10.00">ObjPart.hpp</text>
</a>
</g>
</g>
<!-- Node4&#45;&gt;Node5 -->
<g id="edge4" class="edge">
<title>Node4&#45;&gt;Node5</title>
<path fill="none" stroke="midnightblue" d="M261.76,-106.9C245.44,-97 224.13,-84.07 210.26,-75.65"/>
<polygon fill="midnightblue" stroke="midnightblue" points="260.34,-110.13 270.7,-112.32 263.97,-104.14 260.34,-110.13"/>
</g>
<!-- Node6 -->
<g id="node6" class="node">
<title>Node6</title>
<g id="a_node6"><a xlink:href="STLPart_8hpp.html" target="_top" xlink:title=" ">
<polygon fill="white" stroke="black" points="251,-56.5 251,-75.5 325,-75.5 325,-56.5 251,-56.5"/>
<text text-anchor="middle" x="288" y="-63.5" font-family="Helvetica,sans-Serif" font-size="10.00">STLPart.hpp</text>
</a>
</g>
</g>
<!-- Node4&#45;&gt;Node6 -->
<g id="edge5" class="edge">
<title>Node4&#45;&gt;Node6</title>
<path fill="none" stroke="midnightblue" d="M286.07,-101.8C286.56,-92.91 287.12,-82.78 287.51,-75.75"/>
<polygon fill="midnightblue" stroke="midnightblue" points="282.56,-101.9 285.5,-112.08 289.54,-102.29 282.56,-101.9"/>
</g>
<!-- Node8 -->
<g id="node8" class="node">
<title>Node8</title>
<g id="a_node8"><a xlink:href="GenericPartScene_8hpp.html" target="_top" xlink:title=" ">
<polygon fill="white" stroke="black" points="347.5,-56.5 347.5,-75.5 470.5,-75.5 470.5,-56.5 347.5,-56.5"/>
<text text-anchor="middle" x="409" y="-63.5" font-family="Helvetica,sans-Serif" font-size="10.00">GenericPartScene.hpp</text>
</a>
</g>
</g>
<!-- Node7&#45;&gt;Node8 -->
<g id="edge7" class="edge">
<title>Node7&#45;&gt;Node8</title>
<path fill="none" stroke="midnightblue" d="M410.29,-101.8C409.96,-92.91 409.58,-82.78 409.32,-75.75"/>
<polygon fill="midnightblue" stroke="midnightblue" points="406.8,-102.22 410.67,-112.08 413.8,-101.96 406.8,-102.22"/>
</g>
<!-- Node10 -->
<g id="node10" class="node">
<title>Node10</title>
<g id="a_node10"><a xlink:href="Triangulated3DPartScene_8hpp.html" target="_top" xlink:title=" ">
<polygon fill="white" stroke="black" points="488.5,-56.5 488.5,-75.5 647.5,-75.5 647.5,-56.5 488.5,-56.5"/>
<text text-anchor="middle" x="568" y="-63.5" font-family="Helvetica,sans-Serif" font-size="10.00">Triangulated3DPartScene.hpp</text>
</a>
</g>
</g>
<!-- Node7&#45;&gt;Node10 -->
<g id="edge9" class="edge">
<title>Node7&#45;&gt;Node10</title>
<path fill="none" stroke="midnightblue" d="M445.39,-109.17C474.95,-99 516.87,-84.59 543.24,-75.52"/>
<polygon fill="midnightblue" stroke="midnightblue" points="444.2,-105.88 435.88,-112.44 446.47,-112.5 444.2,-105.88"/>
</g>
<!-- Node9 -->
<g id="node9" class="node">
<title>Node9</title>
<g id="a_node9"><a xlink:href="Axes3DScene_8hpp.html" target="_top" xlink:title=" ">
<polygon fill="white" stroke="black" points="357,-0.5 357,-19.5 461,-19.5 461,-0.5 357,-0.5"/>
<text text-anchor="middle" x="409" y="-7.5" font-family="Helvetica,sans-Serif" font-size="10.00">Axes3DScene.hpp</text>
</a>
</g>
</g>
<!-- Node8&#45;&gt;Node9 -->
<g id="edge8" class="edge">
<title>Node8&#45;&gt;Node9</title>
<path fill="none" stroke="midnightblue" d="M409,-45.8C409,-36.91 409,-26.78 409,-19.75"/>
<polygon fill="midnightblue" stroke="midnightblue" points="405.5,-46.08 409,-56.08 412.5,-46.08 405.5,-46.08"/>
</g>
</g>
</svg>
