<?xml version="1.0" encoding="UTF-8" standalone="no"?>
<!DOCTYPE svg PUBLIC "-//W3C//DTD SVG 1.1//EN"
 "http://www.w3.org/Graphics/SVG/1.1/DTD/svg11.dtd">
<!-- Generated by graphviz version 2.43.0 (0)
 -->
<!-- Title: Part.hpp Pages: 1 -->
<svg width="1469pt" height="385pt"
 viewBox="0.00 0.00 1469.00 385.00" xmlns="http://www.w3.org/2000/svg" xmlns:xlink="http://www.w3.org/1999/xlink">
<g id="graph0" class="graph" transform="scale(1 1) rotate(0) translate(4 381)">
<title>Part.hpp</title>
<polygon fill="white" stroke="transparent" points="-4,4 -4,-381 1465,-381 1465,4 -4,4"/>
<!-- Node1 -->
<g id="node1" class="node">
<title>Node1</title>
<g id="a_node1"><a xlink:title=" ">
<polygon fill="#bfbfbf" stroke="black" points="1017,-357.5 1017,-376.5 1073,-376.5 1073,-357.5 1017,-357.5"/>
<text text-anchor="middle" x="1045" y="-364.5" font-family="Helvetica,sans-Serif" font-size="10.00">Part.hpp</text>
</a>
</g>
</g>
<!-- Node2 -->
<g id="node2" class="node">
<title>Node2</title>
<g id="a_node2"><a target="_parent" xlink:href="../../../cieutils/docs/html/types_8hpp.html.html" xlink:title=" ">
<polygon fill="white" stroke="black" points="178,-290.5 178,-320.5 288,-320.5 288,-290.5 178,-290.5"/>
<text text-anchor="start" x="186" y="-308.5" font-family="Helvetica,sans-Serif" font-size="10.00">packages/types/inc</text>
<text text-anchor="middle" x="233" y="-297.5" font-family="Helvetica,sans-Serif" font-size="10.00">/types.hpp</text>
</a>
</g>
</g>
<!-- Node1&#45;&gt;Node2 -->
<g id="edge1" class="edge">
<title>Node1&#45;&gt;Node2</title>
<path fill="none" stroke="midnightblue" d="M1016.99,-365.95C919.19,-365.44 583.83,-360.82 298.19,-321"/>
<polygon fill="midnightblue" stroke="midnightblue" points="298.44,-317.5 288.05,-319.57 297.46,-324.43 298.44,-317.5"/>
</g>
<!-- Node3 -->
<g id="node3" class="node">
<title>Node3</title>
<g id="a_node3"><a xlink:href="Buffer_8hpp.html" target="_top" xlink:title=" ">
<polygon fill="white" stroke="black" points="306.5,-290.5 306.5,-320.5 417.5,-320.5 417.5,-290.5 306.5,-290.5"/>
<text text-anchor="start" x="314.5" y="-308.5" font-family="Helvetica,sans-Serif" font-size="10.00">packages/buffer/inc</text>
<text text-anchor="middle" x="362" y="-297.5" font-family="Helvetica,sans-Serif" font-size="10.00">/Buffer.hpp</text>
</a>
</g>
</g>
<!-- Node1&#45;&gt;Node3 -->
<g id="edge2" class="edge">
<title>Node1&#45;&gt;Node3</title>
<path fill="none" stroke="midnightblue" d="M1016.95,-363.56C916.51,-354.81 573.02,-324.88 427.74,-312.23"/>
<polygon fill="midnightblue" stroke="midnightblue" points="427.89,-308.73 417.62,-311.35 427.28,-315.7 427.89,-308.73"/>
</g>
<!-- Node14 -->
<g id="node14" class="node">
<title>Node14</title>
<g id="a_node14"><a xlink:title=" ">
<polygon fill="white" stroke="#bfbfbf" points="1039.5,-145.5 1039.5,-164.5 1086.5,-164.5 1086.5,-145.5 1039.5,-145.5"/>
<text text-anchor="middle" x="1063" y="-152.5" font-family="Helvetica,sans-Serif" font-size="10.00">vector</text>
</a>
</g>
</g>
<!-- Node1&#45;&gt;Node14 -->
<g id="edge28" class="edge">
<title>Node1&#45;&gt;Node14</title>
<path fill="none" stroke="midnightblue" d="M1073.14,-361.87C1123.8,-352.76 1229.24,-325.71 1274,-254 1316.41,-186.05 1166.48,-164.56 1096.77,-158.33"/>
<polygon fill="midnightblue" stroke="midnightblue" points="1096.96,-154.84 1086.7,-157.49 1096.37,-161.81 1096.96,-154.84"/>
</g>
<!-- Node15 -->
<g id="node15" class="node">
<title>Node15</title>
<g id="a_node15"><a xlink:title=" ">
<polygon fill="white" stroke="#bfbfbf" points="925,-145.5 925,-164.5 983,-164.5 983,-145.5 925,-145.5"/>
<text text-anchor="middle" x="954" y="-152.5" font-family="Helvetica,sans-Serif" font-size="10.00">memory</text>
</a>
</g>
</g>
<!-- Node1&#45;&gt;Node15 -->
<g id="edge29" class="edge">
<title>Node1&#45;&gt;Node15</title>
<path fill="none" stroke="midnightblue" d="M1025.87,-357.43C1011.44,-349.93 992.41,-337.63 982,-321 953.03,-274.72 951.5,-207.47 952.74,-174.98"/>
<polygon fill="midnightblue" stroke="midnightblue" points="956.25,-174.85 953.28,-164.69 949.26,-174.49 956.25,-174.85"/>
</g>
<!-- Node18 -->
<g id="node18" class="node">
<title>Node18</title>
<g id="a_node18"><a xlink:href="GLTraits_8hpp.html" target="_top" xlink:title=" ">
<polygon fill="white" stroke="black" points="991,-290.5 991,-320.5 1099,-320.5 1099,-290.5 991,-290.5"/>
<text text-anchor="start" x="999" y="-308.5" font-family="Helvetica,sans-Serif" font-size="10.00">packages/traits/inc</text>
<text text-anchor="middle" x="1045" y="-297.5" font-family="Helvetica,sans-Serif" font-size="10.00">/GLTraits.hpp</text>
</a>
</g>
</g>
<!-- Node1&#45;&gt;Node18 -->
<g id="edge22" class="edge">
<title>Node1&#45;&gt;Node18</title>
<path fill="none" stroke="midnightblue" d="M1045,-357.48C1045,-350.47 1045,-340.19 1045,-330.7"/>
<polygon fill="midnightblue" stroke="midnightblue" points="1048.5,-330.52 1045,-320.52 1041.5,-330.52 1048.5,-330.52"/>
</g>
<!-- Node21 -->
<g id="node21" class="node">
<title>Node21</title>
<g id="a_node21"><a xlink:title=" ">
<polygon fill="white" stroke="#bfbfbf" points="1321,-296 1321,-315 1375,-315 1375,-296 1321,-296"/>
<text text-anchor="middle" x="1348" y="-303" font-family="Helvetica,sans-Serif" font-size="10.00">istream</text>
</a>
</g>
</g>
<!-- Node1&#45;&gt;Node21 -->
<g id="edge30" class="edge">
<title>Node1&#45;&gt;Node21</title>
<path fill="none" stroke="midnightblue" d="M1073.25,-362.75C1121.64,-356.82 1223.26,-342.83 1307,-321 1310.04,-320.21 1313.18,-319.29 1316.3,-318.3"/>
<polygon fill="midnightblue" stroke="midnightblue" points="1317.72,-321.52 1326.08,-315.02 1315.49,-314.89 1317.72,-321.52"/>
</g>
<!-- Node22 -->
<g id="node22" class="node">
<title>Node22</title>
<g id="a_node22"><a xlink:title=" ">
<polygon fill="white" stroke="#bfbfbf" points="1393,-296 1393,-315 1461,-315 1461,-296 1393,-296"/>
<text text-anchor="middle" x="1427" y="-303" font-family="Helvetica,sans-Serif" font-size="10.00">filesystem</text>
</a>
</g>
</g>
<!-- Node1&#45;&gt;Node22 -->
<g id="edge31" class="edge">
<title>Node1&#45;&gt;Node22</title>
<path fill="none" stroke="midnightblue" d="M1073.01,-364.12C1131.45,-359.8 1270.37,-347.44 1384,-321 1387.48,-320.19 1391.08,-319.21 1394.64,-318.15"/>
<polygon fill="midnightblue" stroke="midnightblue" points="1396.01,-321.39 1404.47,-315.01 1393.88,-314.72 1396.01,-321.39"/>
</g>
<!-- Node4 -->
<g id="node4" class="node">
<title>Node4</title>
<g id="a_node4"><a xlink:title=" ">
<polygon fill="white" stroke="#bfbfbf" points="571.5,-6 571.5,-25 642.5,-25 642.5,-6 571.5,-6"/>
<text text-anchor="middle" x="607" y="-13" font-family="Helvetica,sans-Serif" font-size="10.00">glad/glad.h</text>
</a>
</g>
</g>
<!-- Node3&#45;&gt;Node4 -->
<g id="edge3" class="edge">
<title>Node3&#45;&gt;Node4</title>
<path fill="none" stroke="midnightblue" d="M353.84,-290.31C337.15,-259.21 303.3,-183.81 336,-134 386.24,-57.45 498.24,-30.52 561.4,-21.24"/>
<polygon fill="midnightblue" stroke="midnightblue" points="562.05,-24.68 571.48,-19.84 561.09,-17.75 562.05,-24.68"/>
</g>
<!-- Node5 -->
<g id="node5" class="node">
<title>Node5</title>
<g id="a_node5"><a target="_parent" xlink:href="../../../cieutils/docs/html/IDObject_8hpp.html.html" xlink:title=" ">
<polygon fill="white" stroke="black" points="0,-218 0,-248 110,-248 110,-218 0,-218"/>
<text text-anchor="start" x="8" y="-236" font-family="Helvetica,sans-Serif" font-size="10.00">packages/types/inc</text>
<text text-anchor="middle" x="55" y="-225" font-family="Helvetica,sans-Serif" font-size="10.00">/IDObject.hpp</text>
</a>
</g>
</g>
<!-- Node3&#45;&gt;Node5 -->
<g id="edge4" class="edge">
<title>Node3&#45;&gt;Node5</title>
<path fill="none" stroke="midnightblue" d="M306.35,-292.01C303.19,-291.32 300.05,-290.65 297,-290 218.05,-273.21 197.18,-274.06 119,-254 115.24,-253.03 111.37,-251.98 107.49,-250.88"/>
<polygon fill="midnightblue" stroke="midnightblue" points="108.44,-247.51 97.86,-248.06 106.47,-254.23 108.44,-247.51"/>
</g>
<!-- Node9 -->
<g id="node9" class="node">
<title>Node9</title>
<g id="a_node9"><a target="_parent" xlink:href="../../../cieutils/docs/html/container__concepts_8hpp.html.html" xlink:title=" ">
<polygon fill="white" stroke="black" points="128.5,-212.5 128.5,-253.5 263.5,-253.5 263.5,-212.5 128.5,-212.5"/>
<text text-anchor="start" x="136.5" y="-241.5" font-family="Helvetica,sans-Serif" font-size="10.00">packages/compile_time</text>
<text text-anchor="start" x="136.5" y="-230.5" font-family="Helvetica,sans-Serif" font-size="10.00">/packages/concepts/inc</text>
<text text-anchor="middle" x="196" y="-219.5" font-family="Helvetica,sans-Serif" font-size="10.00">/container_concepts.hpp</text>
</a>
</g>
</g>
<!-- Node3&#45;&gt;Node9 -->
<g id="edge9" class="edge">
<title>Node3&#45;&gt;Node9</title>
<path fill="none" stroke="midnightblue" d="M328.81,-290.4C306.64,-280.99 276.96,-268.39 251.28,-257.48"/>
<polygon fill="midnightblue" stroke="midnightblue" points="252.6,-254.23 242.02,-253.55 249.86,-260.68 252.6,-254.23"/>
</g>
<!-- Node10 -->
<g id="node10" class="node">
<title>Node10</title>
<g id="a_node10"><a target="_parent" xlink:href="../../../cieutils/docs/html/typedefs_8hpp.html.html" xlink:title=" ">
<polygon fill="white" stroke="black" points="345.5,-140 345.5,-170 464.5,-170 464.5,-140 345.5,-140"/>
<text text-anchor="start" x="353.5" y="-158" font-family="Helvetica,sans-Serif" font-size="10.00">packages/macros/inc</text>
<text text-anchor="middle" x="405" y="-147" font-family="Helvetica,sans-Serif" font-size="10.00">/typedefs.hpp</text>
</a>
</g>
</g>
<!-- Node3&#45;&gt;Node10 -->
<g id="edge10" class="edge">
<title>Node3&#45;&gt;Node10</title>
<path fill="none" stroke="midnightblue" d="M366.12,-290.26C373.49,-264.82 388.98,-211.32 398.03,-180.08"/>
<polygon fill="midnightblue" stroke="midnightblue" points="401.41,-180.99 400.83,-170.41 394.68,-179.05 401.41,-180.99"/>
</g>
<!-- Node11 -->
<g id="node11" class="node">
<title>Node11</title>
<g id="a_node11"><a target="_parent" xlink:href="../../../cieutils/docs/html/DynamicArray_8hpp.html.html" xlink:title=" ">
<polygon fill="white" stroke="black" points="157.5,-140 157.5,-170 288.5,-170 288.5,-140 157.5,-140"/>
<text text-anchor="start" x="165.5" y="-158" font-family="Helvetica,sans-Serif" font-size="10.00">packages/stl_extension</text>
<text text-anchor="middle" x="223" y="-147" font-family="Helvetica,sans-Serif" font-size="10.00">/inc/DynamicArray.hpp</text>
</a>
</g>
</g>
<!-- Node3&#45;&gt;Node11 -->
<g id="edge11" class="edge">
<title>Node3&#45;&gt;Node11</title>
<path fill="none" stroke="midnightblue" d="M348.67,-290.26C324.35,-264.27 272.59,-208.98 243.66,-178.08"/>
<polygon fill="midnightblue" stroke="midnightblue" points="245.88,-175.32 236.49,-170.41 240.77,-180.11 245.88,-175.32"/>
</g>
<!-- Node12 -->
<g id="node12" class="node">
<title>Node12</title>
<g id="a_node12"><a xlink:href="AttributeContainer_8hpp.html" target="_top" xlink:title=" ">
<polygon fill="white" stroke="black" points="700,-218 700,-248 830,-248 830,-218 700,-218"/>
<text text-anchor="start" x="708" y="-236" font-family="Helvetica,sans-Serif" font-size="10.00">packages/buffer/inc</text>
<text text-anchor="middle" x="765" y="-225" font-family="Helvetica,sans-Serif" font-size="10.00">/AttributeContainer.hpp</text>
</a>
</g>
</g>
<!-- Node3&#45;&gt;Node12 -->
<g id="edge12" class="edge">
<title>Node3&#45;&gt;Node12</title>
<path fill="none" stroke="midnightblue" d="M417.61,-294.77C488.43,-282.38 611.06,-260.93 690.07,-247.11"/>
<polygon fill="midnightblue" stroke="midnightblue" points="690.72,-250.55 699.96,-245.38 689.51,-243.65 690.72,-250.55"/>
</g>
<!-- Node6 -->
<g id="node6" class="node">
<title>Node6</title>
<g id="a_node6"><a xlink:href="types_8hpp.html" target="_top" xlink:title=" ">
<polygon fill="white" stroke="black" points="179,-67.5 179,-97.5 289,-97.5 289,-67.5 179,-67.5"/>
<text text-anchor="start" x="187" y="-85.5" font-family="Helvetica,sans-Serif" font-size="10.00">packages/types/inc</text>
<text text-anchor="middle" x="234" y="-74.5" font-family="Helvetica,sans-Serif" font-size="10.00">/types.hpp</text>
</a>
</g>
</g>
<!-- Node5&#45;&gt;Node6 -->
<g id="edge5" class="edge">
<title>Node5&#45;&gt;Node6</title>
<path fill="none" stroke="midnightblue" d="M66.26,-217.82C82.75,-197.62 115.12,-160.11 148,-134 162.96,-122.12 181,-111.1 196.69,-102.4"/>
<polygon fill="midnightblue" stroke="midnightblue" points="198.49,-105.41 205.61,-97.56 195.15,-99.25 198.49,-105.41"/>
</g>
<!-- Node6&#45;&gt;Node4 -->
<g id="edge6" class="edge">
<title>Node6&#45;&gt;Node4</title>
<path fill="none" stroke="midnightblue" d="M289.32,-69.66C293.94,-68.73 298.55,-67.84 303,-67 394.27,-49.84 501.53,-32.73 561.14,-23.5"/>
<polygon fill="midnightblue" stroke="midnightblue" points="562,-26.91 571.34,-21.92 560.93,-19.99 562,-26.91"/>
</g>
<!-- Node7 -->
<g id="node7" class="node">
<title>Node7</title>
<g id="a_node7"><a xlink:title=" ">
<polygon fill="white" stroke="#bfbfbf" points="163,-6 163,-25 207,-25 207,-6 163,-6"/>
<text text-anchor="middle" x="185" y="-13" font-family="Helvetica,sans-Serif" font-size="10.00">string</text>
</a>
</g>
</g>
<!-- Node6&#45;&gt;Node7 -->
<g id="edge7" class="edge">
<title>Node6&#45;&gt;Node7</title>
<path fill="none" stroke="midnightblue" d="M223.37,-67.4C215.8,-57.36 205.61,-43.84 197.63,-33.25"/>
<polygon fill="midnightblue" stroke="midnightblue" points="200.37,-31.07 191.55,-25.19 194.78,-35.29 200.37,-31.07"/>
</g>
<!-- Node8 -->
<g id="node8" class="node">
<title>Node8</title>
<g id="a_node8"><a xlink:title=" ">
<polygon fill="white" stroke="#bfbfbf" points="225,-0.5 225,-30.5 341,-30.5 341,-0.5 225,-0.5"/>
<text text-anchor="start" x="233" y="-18.5" font-family="Helvetica,sans-Serif" font-size="10.00">packages/traits/impl</text>
<text text-anchor="middle" x="283" y="-7.5" font-family="Helvetica,sans-Serif" font-size="10.00">/types_impl.hpp</text>
</a>
</g>
</g>
<!-- Node6&#45;&gt;Node8 -->
<g id="edge8" class="edge">
<title>Node6&#45;&gt;Node8</title>
<path fill="none" stroke="midnightblue" d="M244.63,-67.4C250.92,-59.05 259.04,-48.29 266.18,-38.81"/>
<polygon fill="midnightblue" stroke="midnightblue" points="269.16,-40.67 272.39,-30.58 263.57,-36.45 269.16,-40.67"/>
</g>
<!-- Node12&#45;&gt;Node4 -->
<g id="edge13" class="edge">
<title>Node12&#45;&gt;Node4</title>
<path fill="none" stroke="midnightblue" d="M777.42,-217.73C792.94,-198.05 815.67,-161.88 800,-134 767.68,-76.49 694.55,-43.84 648.16,-28.2"/>
<polygon fill="midnightblue" stroke="midnightblue" points="649,-24.79 638.41,-25.02 646.84,-31.45 649,-24.79"/>
</g>
<!-- Node12&#45;&gt;Node10 -->
<g id="edge14" class="edge">
<title>Node12&#45;&gt;Node10</title>
<path fill="none" stroke="midnightblue" d="M699.91,-221.24C640.69,-211.03 551.03,-194.53 474,-176 469.72,-174.97 465.32,-173.85 460.89,-172.67"/>
<polygon fill="midnightblue" stroke="midnightblue" points="461.81,-169.29 451.24,-170.04 459.96,-176.05 461.81,-169.29"/>
</g>
<!-- Node12&#45;&gt;Node11 -->
<g id="edge17" class="edge">
<title>Node12&#45;&gt;Node11</title>
<path fill="none" stroke="midnightblue" d="M699.82,-224.43C615.63,-214.43 464.62,-195.77 336,-176 323.88,-174.14 311.06,-172.01 298.57,-169.86"/>
<polygon fill="midnightblue" stroke="midnightblue" points="299.1,-166.4 288.64,-168.14 297.9,-173.3 299.1,-166.4"/>
</g>
<!-- Node13 -->
<g id="node13" class="node">
<title>Node13</title>
<g id="a_node13"><a target="_parent" xlink:href="../../../cieutils/docs/html/basic__concepts_8hpp.html.html" xlink:title=" ">
<polygon fill="white" stroke="black" points="483,-134.5 483,-175.5 615,-175.5 615,-134.5 483,-134.5"/>
<text text-anchor="start" x="491" y="-163.5" font-family="Helvetica,sans-Serif" font-size="10.00">packages/compile_time</text>
<text text-anchor="start" x="491" y="-152.5" font-family="Helvetica,sans-Serif" font-size="10.00">/packages/concepts/inc</text>
<text text-anchor="middle" x="549" y="-141.5" font-family="Helvetica,sans-Serif" font-size="10.00">/basic_concepts.hpp</text>
</a>
</g>
</g>
<!-- Node12&#45;&gt;Node13 -->
<g id="edge15" class="edge">
<title>Node12&#45;&gt;Node13</title>
<path fill="none" stroke="midnightblue" d="M725.13,-217.97C694.02,-207.03 650.17,-191.6 614,-178.87"/>
<polygon fill="midnightblue" stroke="midnightblue" points="615.1,-175.55 604.51,-175.53 612.78,-182.15 615.1,-175.55"/>
</g>
<!-- Node12&#45;&gt;Node14 -->
<g id="edge18" class="edge">
<title>Node12&#45;&gt;Node14</title>
<path fill="none" stroke="midnightblue" d="M824.4,-217.91C870.28,-206.89 935.29,-190.98 992,-176 1004.26,-172.76 1017.65,-169.04 1029.47,-165.69"/>
<polygon fill="midnightblue" stroke="midnightblue" points="1030.73,-168.97 1039.39,-162.86 1028.81,-162.24 1030.73,-168.97"/>
</g>
<!-- Node12&#45;&gt;Node15 -->
<g id="edge19" class="edge">
<title>Node12&#45;&gt;Node15</title>
<path fill="none" stroke="midnightblue" d="M807.24,-217.98C837.85,-207.42 880,-192.07 916,-176 920.53,-173.98 925.27,-171.66 929.8,-169.33"/>
<polygon fill="midnightblue" stroke="midnightblue" points="931.49,-172.4 938.69,-164.63 928.22,-166.21 931.49,-172.4"/>
</g>
<!-- Node16 -->
<g id="node16" class="node">
<title>Node16</title>
<g id="a_node16"><a xlink:title=" ">
<polygon fill="white" stroke="#bfbfbf" points="847,-145.5 847,-164.5 907,-164.5 907,-145.5 847,-145.5"/>
<text text-anchor="middle" x="877" y="-152.5" font-family="Helvetica,sans-Serif" font-size="10.00">concepts</text>
</a>
</g>
</g>
<!-- Node12&#45;&gt;Node16 -->
<g id="edge20" class="edge">
<title>Node12&#45;&gt;Node16</title>
<path fill="none" stroke="midnightblue" d="M785.8,-217.88C805.77,-204.33 835.78,-183.97 855.86,-170.34"/>
<polygon fill="midnightblue" stroke="midnightblue" points="858.01,-173.12 864.32,-164.61 854.08,-167.33 858.01,-173.12"/>
</g>
<!-- Node17 -->
<g id="node17" class="node">
<title>Node17</title>
<g id="a_node17"><a xlink:title=" ">
<polygon fill="white" stroke="#bfbfbf" points="633,-140 633,-170 791,-170 791,-140 633,-140"/>
<text text-anchor="start" x="641" y="-158" font-family="Helvetica,sans-Serif" font-size="10.00">packages/buffer/impl</text>
<text text-anchor="middle" x="712" y="-147" font-family="Helvetica,sans-Serif" font-size="10.00">/AttributeContainer_impl.hpp</text>
</a>
</g>
</g>
<!-- Node12&#45;&gt;Node17 -->
<g id="edge21" class="edge">
<title>Node12&#45;&gt;Node17</title>
<path fill="none" stroke="midnightblue" d="M755.03,-217.7C747.33,-206.67 736.53,-191.18 727.68,-178.49"/>
<polygon fill="midnightblue" stroke="midnightblue" points="730.52,-176.43 721.92,-170.23 724.77,-180.44 730.52,-176.43"/>
</g>
<!-- Node13&#45;&gt;Node6 -->
<g id="edge16" class="edge">
<title>Node13&#45;&gt;Node6</title>
<path fill="none" stroke="midnightblue" d="M482.73,-136.36C479.44,-135.54 476.19,-134.76 473,-134 414.44,-120.12 347.37,-106.11 299.21,-96.38"/>
<polygon fill="midnightblue" stroke="midnightblue" points="299.72,-92.91 289.23,-94.37 298.34,-99.77 299.72,-92.91"/>
</g>
<!-- Node18&#45;&gt;Node4 -->
<g id="edge23" class="edge">
<title>Node18&#45;&gt;Node4</title>
<path fill="none" stroke="midnightblue" d="M1044.83,-290.36C1043.65,-257.99 1036.17,-177.94 992,-134 898.24,-40.72 732.7,-21.14 652.75,-17.27"/>
<polygon fill="midnightblue" stroke="midnightblue" points="652.65,-13.77 642.51,-16.84 652.35,-20.76 652.65,-13.77"/>
</g>
<!-- Node18&#45;&gt;Node12 -->
<g id="edge24" class="edge">
<title>Node18&#45;&gt;Node12</title>
<path fill="none" stroke="midnightblue" d="M990.68,-290.82C944.86,-279.29 879.13,-262.74 830.42,-250.47"/>
<polygon fill="midnightblue" stroke="midnightblue" points="831.16,-247.05 820.6,-248 829.45,-253.84 831.16,-247.05"/>
</g>
<!-- Node18&#45;&gt;Node14 -->
<g id="edge27" class="edge">
<title>Node18&#45;&gt;Node14</title>
<path fill="none" stroke="midnightblue" d="M1046.73,-290.26C1049.99,-263.35 1057.06,-205.04 1060.71,-174.9"/>
<polygon fill="midnightblue" stroke="midnightblue" points="1064.2,-175.19 1061.93,-164.85 1057.25,-174.35 1064.2,-175.19"/>
</g>
<!-- Node19 -->
<g id="node19" class="node">
<title>Node19</title>
<g id="a_node19"><a target="_parent" xlink:href="../../../cieutils/docs/html/StaticArray_8hpp.html.html" xlink:title=" ">
<polygon fill="white" stroke="black" points="1073.5,-218 1073.5,-248 1204.5,-248 1204.5,-218 1073.5,-218"/>
<text text-anchor="start" x="1081.5" y="-236" font-family="Helvetica,sans-Serif" font-size="10.00">packages/stl_extension</text>
<text text-anchor="middle" x="1139" y="-225" font-family="Helvetica,sans-Serif" font-size="10.00">/inc/StaticArray.hpp</text>
</a>
</g>
</g>
<!-- Node18&#45;&gt;Node19 -->
<g id="edge25" class="edge">
<title>Node18&#45;&gt;Node19</title>
<path fill="none" stroke="midnightblue" d="M1064.02,-290.23C1077.87,-279.85 1096.82,-265.63 1112.2,-254.1"/>
<polygon fill="midnightblue" stroke="midnightblue" points="1114.43,-256.8 1120.33,-248 1110.23,-251.2 1114.43,-256.8"/>
</g>
<!-- Node20 -->
<g id="node20" class="node">
<title>Node20</title>
<g id="a_node20"><a xlink:title=" ">
<polygon fill="white" stroke="#bfbfbf" points="1223,-223.5 1223,-242.5 1265,-242.5 1265,-223.5 1223,-223.5"/>
<text text-anchor="middle" x="1244" y="-230.5" font-family="Helvetica,sans-Serif" font-size="10.00">array</text>
</a>
</g>
</g>
<!-- Node18&#45;&gt;Node20 -->
<g id="edge26" class="edge">
<title>Node18&#45;&gt;Node20</title>
<path fill="none" stroke="midnightblue" d="M1099.37,-292.29C1132.97,-283.75 1176.5,-270.85 1213,-254 1216.58,-252.35 1220.24,-250.33 1223.72,-248.22"/>
<polygon fill="midnightblue" stroke="midnightblue" points="1225.89,-250.98 1232.38,-242.61 1222.08,-245.11 1225.89,-250.98"/>
</g>
</g>
</svg>
