<?xml version="1.0" encoding="UTF-8" standalone="no"?>
<!DOCTYPE svg PUBLIC "-//W3C//DTD SVG 1.1//EN"
 "http://www.w3.org/Graphics/SVG/1.1/DTD/svg11.dtd">
<!-- Generated by graphviz version 2.43.0 (0)
 -->
<!-- Title: PartScene.hpp Pages: 1 -->
<svg width="308pt" height="140pt"
 viewBox="0.00 0.00 308.00 140.00" xmlns="http://www.w3.org/2000/svg" xmlns:xlink="http://www.w3.org/1999/xlink">
<g id="graph0" class="graph" transform="scale(1 1) rotate(0) translate(4 136)">
<title>PartScene.hpp</title>
<polygon fill="white" stroke="transparent" points="-4,4 -4,-136 304,-136 304,4 -4,4"/>
<!-- Node1 -->
<g id="node1" class="node">
<title>Node1</title>
<g id="a_node1"><a xlink:title=" ">
<polygon fill="#bfbfbf" stroke="black" points="97.5,-112.5 97.5,-131.5 183.5,-131.5 183.5,-112.5 97.5,-112.5"/>
<text text-anchor="middle" x="140.5" y="-119.5" font-family="Helvetica,sans-Serif" font-size="10.00">PartScene.hpp</text>
</a>
</g>
</g>
<!-- Node2 -->
<g id="node2" class="node">
<title>Node2</title>
<g id="a_node2"><a xlink:href="GenericPartScene_8hpp.html" target="_top" xlink:title=" ">
<polygon fill="white" stroke="black" points="0,-56.5 0,-75.5 123,-75.5 123,-56.5 0,-56.5"/>
<text text-anchor="middle" x="61.5" y="-63.5" font-family="Helvetica,sans-Serif" font-size="10.00">GenericPartScene.hpp</text>
</a>
</g>
</g>
<!-- Node1&#45;&gt;Node2 -->
<g id="edge1" class="edge">
<title>Node1&#45;&gt;Node2</title>
<path fill="none" stroke="midnightblue" d="M119.47,-106.62C105.03,-96.76 86.36,-83.99 74.16,-75.65"/>
<polygon fill="midnightblue" stroke="midnightblue" points="117.58,-109.57 127.81,-112.32 121.53,-103.79 117.58,-109.57"/>
</g>
<!-- Node4 -->
<g id="node4" class="node">
<title>Node4</title>
<g id="a_node4"><a xlink:href="Triangulated3DPartScene_8hpp.html" target="_top" xlink:title=" ">
<polygon fill="white" stroke="black" points="141,-56.5 141,-75.5 300,-75.5 300,-56.5 141,-56.5"/>
<text text-anchor="middle" x="220.5" y="-63.5" font-family="Helvetica,sans-Serif" font-size="10.00">Triangulated3DPartScene.hpp</text>
</a>
</g>
</g>
<!-- Node1&#45;&gt;Node4 -->
<g id="edge3" class="edge">
<title>Node1&#45;&gt;Node4</title>
<path fill="none" stroke="midnightblue" d="M161.8,-106.62C176.42,-96.76 195.33,-83.99 207.68,-75.65"/>
<polygon fill="midnightblue" stroke="midnightblue" points="159.68,-103.83 153.35,-112.32 163.6,-109.63 159.68,-103.83"/>
</g>
<!-- Node3 -->
<g id="node3" class="node">
<title>Node3</title>
<g id="a_node3"><a xlink:href="Axes3DScene_8hpp.html" target="_top" xlink:title=" ">
<polygon fill="white" stroke="black" points="9.5,-0.5 9.5,-19.5 113.5,-19.5 113.5,-0.5 9.5,-0.5"/>
<text text-anchor="middle" x="61.5" y="-7.5" font-family="Helvetica,sans-Serif" font-size="10.00">Axes3DScene.hpp</text>
</a>
</g>
</g>
<!-- Node2&#45;&gt;Node3 -->
<g id="edge2" class="edge">
<title>Node2&#45;&gt;Node3</title>
<path fill="none" stroke="midnightblue" d="M61.5,-45.8C61.5,-36.91 61.5,-26.78 61.5,-19.75"/>
<polygon fill="midnightblue" stroke="midnightblue" points="58,-46.08 61.5,-56.08 65,-46.08 58,-46.08"/>
</g>
</g>
</svg>
