<?xml version="1.0" encoding="UTF-8" standalone="no"?>
<!DOCTYPE svg PUBLIC "-//W3C//DTD SVG 1.1//EN"
 "http://www.w3.org/Graphics/SVG/1.1/DTD/svg11.dtd">
<!-- Generated by graphviz version 2.43.0 (0)
 -->
<!-- Title: PerspectiveProjection.hpp Pages: 1 -->
<svg width="228pt" height="151pt"
 viewBox="0.00 0.00 227.50 151.00" xmlns="http://www.w3.org/2000/svg" xmlns:xlink="http://www.w3.org/1999/xlink">
<g id="graph0" class="graph" transform="scale(1 1) rotate(0) translate(4 147)">
<title>PerspectiveProjection.hpp</title>
<polygon fill="white" stroke="transparent" points="-4,4 -4,-147 223.5,-147 223.5,4 -4,4"/>
<!-- Node1 -->
<g id="node1" class="node">
<title>Node1</title>
<g id="a_node1"><a xlink:title=" ">
<polygon fill="#bfbfbf" stroke="black" points="54.5,-123.5 54.5,-142.5 197.5,-142.5 197.5,-123.5 54.5,-123.5"/>
<text text-anchor="middle" x="126" y="-130.5" font-family="Helvetica,sans-Serif" font-size="10.00">PerspectiveProjection.hpp</text>
</a>
</g>
</g>
<!-- Node2 -->
<g id="node2" class="node">
<title>Node2</title>
<g id="a_node2"><a xlink:href="ProjectionPolicy_8hpp.html" target="_top" xlink:title=" ">
<polygon fill="white" stroke="black" points="66.5,-56.5 66.5,-86.5 185.5,-86.5 185.5,-56.5 66.5,-56.5"/>
<text text-anchor="start" x="74.5" y="-74.5" font-family="Helvetica,sans-Serif" font-size="10.00">packages/camera/inc</text>
<text text-anchor="middle" x="126" y="-63.5" font-family="Helvetica,sans-Serif" font-size="10.00">/ProjectionPolicy.hpp</text>
</a>
</g>
</g>
<!-- Node1&#45;&gt;Node2 -->
<g id="edge1" class="edge">
<title>Node1&#45;&gt;Node2</title>
<path fill="none" stroke="midnightblue" d="M126,-123.48C126,-116.47 126,-106.19 126,-96.7"/>
<polygon fill="midnightblue" stroke="midnightblue" points="129.5,-96.52 126,-86.52 122.5,-96.52 129.5,-96.52"/>
</g>
<!-- Node3 -->
<g id="node3" class="node">
<title>Node3</title>
<g id="a_node3"><a xlink:title=" ">
<polygon fill="white" stroke="#bfbfbf" points="0,-0.5 0,-19.5 78,-19.5 78,-0.5 0,-0.5"/>
<text text-anchor="middle" x="39" y="-7.5" font-family="Helvetica,sans-Serif" font-size="10.00">glm/glm.hpp</text>
</a>
</g>
</g>
<!-- Node2&#45;&gt;Node3 -->
<g id="edge2" class="edge">
<title>Node2&#45;&gt;Node3</title>
<path fill="none" stroke="midnightblue" d="M105.38,-56.4C91.7,-47.04 73.79,-34.79 60.02,-25.38"/>
<polygon fill="midnightblue" stroke="midnightblue" points="61.89,-22.41 51.66,-19.66 57.94,-28.19 61.89,-22.41"/>
</g>
<!-- Node4 -->
<g id="node4" class="node">
<title>Node4</title>
<g id="a_node4"><a xlink:title=" ">
<polygon fill="white" stroke="#bfbfbf" points="96,-0.5 96,-19.5 156,-19.5 156,-0.5 96,-0.5"/>
<text text-anchor="middle" x="126" y="-7.5" font-family="Helvetica,sans-Serif" font-size="10.00">concepts</text>
</a>
</g>
</g>
<!-- Node2&#45;&gt;Node4 -->
<g id="edge3" class="edge">
<title>Node2&#45;&gt;Node4</title>
<path fill="none" stroke="midnightblue" d="M126,-56.4C126,-48.47 126,-38.46 126,-29.86"/>
<polygon fill="midnightblue" stroke="midnightblue" points="129.5,-29.66 126,-19.66 122.5,-29.66 129.5,-29.66"/>
</g>
<!-- Node5 -->
<g id="node5" class="node">
<title>Node5</title>
<g id="a_node5"><a xlink:title=" ">
<polygon fill="white" stroke="#bfbfbf" points="174.5,-0.5 174.5,-19.5 219.5,-19.5 219.5,-0.5 174.5,-0.5"/>
<text text-anchor="middle" x="197" y="-7.5" font-family="Helvetica,sans-Serif" font-size="10.00">utility</text>
</a>
</g>
</g>
<!-- Node2&#45;&gt;Node5 -->
<g id="edge4" class="edge">
<title>Node2&#45;&gt;Node5</title>
<path fill="none" stroke="midnightblue" d="M142.83,-56.4C153.67,-47.31 167.78,-35.49 178.87,-26.19"/>
<polygon fill="midnightblue" stroke="midnightblue" points="181.25,-28.76 186.67,-19.66 176.76,-23.4 181.25,-28.76"/>
</g>
</g>
</svg>
