<?xml version="1.0" encoding="UTF-8" standalone="no"?>
<!DOCTYPE svg PUBLIC "-//W3C//DTD SVG 1.1//EN"
 "http://www.w3.org/Graphics/SVG/1.1/DTD/svg11.dtd">
<!-- Generated by graphviz version 2.43.0 (0)
 -->
<!-- Title: PerspectiveCamera.hpp Pages: 1 -->
<svg width="796pt" height="285pt"
 viewBox="0.00 0.00 795.50 285.00" xmlns="http://www.w3.org/2000/svg" xmlns:xlink="http://www.w3.org/1999/xlink">
<g id="graph0" class="graph" transform="scale(1 1) rotate(0) translate(4 281)">
<title>PerspectiveCamera.hpp</title>
<polygon fill="white" stroke="transparent" points="-4,4 -4,-281 791.5,-281 791.5,4 -4,4"/>
<!-- Node1 -->
<g id="node1" class="node">
<title>Node1</title>
<g id="a_node1"><a xlink:title=" ">
<polygon fill="#bfbfbf" stroke="black" points="557,-257.5 557,-276.5 690,-276.5 690,-257.5 557,-257.5"/>
<text text-anchor="middle" x="623.5" y="-264.5" font-family="Helvetica,sans-Serif" font-size="10.00">PerspectiveCamera.hpp</text>
</a>
</g>
</g>
<!-- Node2 -->
<g id="node2" class="node">
<title>Node2</title>
<g id="a_node2"><a xlink:href="Camera_8hpp.html" target="_top" xlink:title=" ">
<polygon fill="white" stroke="black" points="489,-190.5 489,-220.5 608,-220.5 608,-190.5 489,-190.5"/>
<text text-anchor="start" x="497" y="-208.5" font-family="Helvetica,sans-Serif" font-size="10.00">packages/camera/inc</text>
<text text-anchor="middle" x="548.5" y="-197.5" font-family="Helvetica,sans-Serif" font-size="10.00">/Camera.hpp</text>
</a>
</g>
</g>
<!-- Node1&#45;&gt;Node2 -->
<g id="edge1" class="edge">
<title>Node1&#45;&gt;Node2</title>
<path fill="none" stroke="midnightblue" d="M612.75,-257.48C602.69,-249.49 587.27,-237.25 574.05,-226.77"/>
<polygon fill="midnightblue" stroke="midnightblue" points="576.19,-224 566.18,-220.52 571.83,-229.48 576.19,-224"/>
</g>
<!-- Node14 -->
<g id="node14" class="node">
<title>Node14</title>
<g id="a_node14"><a xlink:href="PerspectiveProjection_8hpp.html" target="_top" xlink:title=" ">
<polygon fill="white" stroke="black" points="626.5,-190.5 626.5,-220.5 772.5,-220.5 772.5,-190.5 626.5,-190.5"/>
<text text-anchor="start" x="634.5" y="-208.5" font-family="Helvetica,sans-Serif" font-size="10.00">packages/camera/inc</text>
<text text-anchor="middle" x="699.5" y="-197.5" font-family="Helvetica,sans-Serif" font-size="10.00">/PerspectiveProjection.hpp</text>
</a>
</g>
</g>
<!-- Node1&#45;&gt;Node14 -->
<g id="edge18" class="edge">
<title>Node1&#45;&gt;Node14</title>
<path fill="none" stroke="midnightblue" d="M634.39,-257.48C644.59,-249.49 660.22,-237.25 673.61,-226.77"/>
<polygon fill="midnightblue" stroke="midnightblue" points="675.87,-229.44 681.59,-220.52 671.56,-223.93 675.87,-229.44"/>
</g>
<!-- Node3 -->
<g id="node3" class="node">
<title>Node3</title>
<g id="a_node3"><a xlink:href="AbsCamera_8hpp.html" target="_top" xlink:title=" ">
<polygon fill="white" stroke="black" points="316,-123.5 316,-153.5 435,-153.5 435,-123.5 316,-123.5"/>
<text text-anchor="start" x="324" y="-141.5" font-family="Helvetica,sans-Serif" font-size="10.00">packages/camera/inc</text>
<text text-anchor="middle" x="375.5" y="-130.5" font-family="Helvetica,sans-Serif" font-size="10.00">/AbsCamera.hpp</text>
</a>
</g>
</g>
<!-- Node2&#45;&gt;Node3 -->
<g id="edge2" class="edge">
<title>Node2&#45;&gt;Node3</title>
<path fill="none" stroke="midnightblue" d="M510.96,-190.4C485,-180.64 450.28,-167.59 422.48,-157.15"/>
<polygon fill="midnightblue" stroke="midnightblue" points="423.56,-153.82 412.97,-153.58 421.1,-160.37 423.56,-153.82"/>
</g>
<!-- Node10 -->
<g id="node10" class="node">
<title>Node10</title>
<g id="a_node10"><a xlink:title=" ">
<polygon fill="white" stroke="#bfbfbf" points="626,-62 626,-81 671,-81 671,-62 626,-62"/>
<text text-anchor="middle" x="648.5" y="-69" font-family="Helvetica,sans-Serif" font-size="10.00">utility</text>
</a>
</g>
</g>
<!-- Node2&#45;&gt;Node10 -->
<g id="edge16" class="edge">
<title>Node2&#45;&gt;Node10</title>
<path fill="none" stroke="midnightblue" d="M561.29,-190.22C570.05,-180.27 581.78,-166.57 591.5,-154 608.09,-132.53 625.79,-106.7 636.99,-89.96"/>
<polygon fill="midnightblue" stroke="midnightblue" points="640.15,-91.53 642.77,-81.26 634.32,-87.65 640.15,-91.53"/>
</g>
<!-- Node11 -->
<g id="node11" class="node">
<title>Node11</title>
<g id="a_node11"><a xlink:href="ProjectionPolicy_8hpp.html" target="_top" xlink:title=" ">
<polygon fill="white" stroke="black" points="640,-123.5 640,-153.5 759,-153.5 759,-123.5 640,-123.5"/>
<text text-anchor="start" x="648" y="-141.5" font-family="Helvetica,sans-Serif" font-size="10.00">packages/camera/inc</text>
<text text-anchor="middle" x="699.5" y="-130.5" font-family="Helvetica,sans-Serif" font-size="10.00">/ProjectionPolicy.hpp</text>
</a>
</g>
</g>
<!-- Node2&#45;&gt;Node11 -->
<g id="edge12" class="edge">
<title>Node2&#45;&gt;Node11</title>
<path fill="none" stroke="midnightblue" d="M581.26,-190.4C603.62,-180.77 633.44,-167.94 657.54,-157.56"/>
<polygon fill="midnightblue" stroke="midnightblue" points="659,-160.75 666.8,-153.58 656.23,-154.32 659,-160.75"/>
</g>
<!-- Node13 -->
<g id="node13" class="node">
<title>Node13</title>
<g id="a_node13"><a xlink:title=" ">
<polygon fill="white" stroke="#bfbfbf" points="456,-123.5 456,-153.5 583,-153.5 583,-123.5 456,-123.5"/>
<text text-anchor="start" x="464" y="-141.5" font-family="Helvetica,sans-Serif" font-size="10.00">packages/camera/impl</text>
<text text-anchor="middle" x="519.5" y="-130.5" font-family="Helvetica,sans-Serif" font-size="10.00">/Camera_impl.hpp</text>
</a>
</g>
</g>
<!-- Node2&#45;&gt;Node13 -->
<g id="edge17" class="edge">
<title>Node2&#45;&gt;Node13</title>
<path fill="none" stroke="midnightblue" d="M542.21,-190.4C538.64,-182.39 534.07,-172.16 529.97,-162.98"/>
<polygon fill="midnightblue" stroke="midnightblue" points="533.05,-161.28 525.78,-153.58 526.66,-164.13 533.05,-161.28"/>
</g>
<!-- Node4 -->
<g id="node4" class="node">
<title>Node4</title>
<g id="a_node4"><a xlink:title=" ">
<polygon fill="white" stroke="#bfbfbf" points="558.5,-0.5 558.5,-19.5 636.5,-19.5 636.5,-0.5 558.5,-0.5"/>
<text text-anchor="middle" x="597.5" y="-7.5" font-family="Helvetica,sans-Serif" font-size="10.00">glm/glm.hpp</text>
</a>
</g>
</g>
<!-- Node3&#45;&gt;Node4 -->
<g id="edge3" class="edge">
<title>Node3&#45;&gt;Node4</title>
<path fill="none" stroke="midnightblue" d="M435.1,-124.15C492.78,-111 572.29,-92.14 577.5,-87 592.56,-72.12 596.71,-47.35 597.65,-30.15"/>
<polygon fill="midnightblue" stroke="midnightblue" points="601.16,-29.74 597.87,-19.67 594.16,-29.59 601.16,-29.74"/>
</g>
<!-- Node5 -->
<g id="node5" class="node">
<title>Node5</title>
<g id="a_node5"><a target="_parent" xlink:href="../../../cieutils/docs/html/Loggee_8hpp.html.html" xlink:title=" ">
<polygon fill="white" stroke="black" points="450,-56.5 450,-86.5 569,-86.5 569,-56.5 450,-56.5"/>
<text text-anchor="start" x="458" y="-74.5" font-family="Helvetica,sans-Serif" font-size="10.00">packages/logging/inc</text>
<text text-anchor="middle" x="509.5" y="-63.5" font-family="Helvetica,sans-Serif" font-size="10.00">/Loggee.hpp</text>
</a>
</g>
</g>
<!-- Node3&#45;&gt;Node5 -->
<g id="edge4" class="edge">
<title>Node3&#45;&gt;Node5</title>
<path fill="none" stroke="midnightblue" d="M404.58,-123.4C424.15,-113.9 450.18,-101.28 471.41,-90.98"/>
<polygon fill="midnightblue" stroke="midnightblue" points="473.01,-94.09 480.48,-86.58 469.96,-87.79 473.01,-94.09"/>
</g>
<!-- Node6 -->
<g id="node6" class="node">
<title>Node6</title>
<g id="a_node6"><a target="_parent" xlink:href="../../../cieutils/docs/html/LoggerSingleton_8hpp.html.html" xlink:title=" ">
<polygon fill="white" stroke="black" points="0,-56.5 0,-86.5 119,-86.5 119,-56.5 0,-56.5"/>
<text text-anchor="start" x="8" y="-74.5" font-family="Helvetica,sans-Serif" font-size="10.00">packages/logging/inc</text>
<text text-anchor="middle" x="59.5" y="-63.5" font-family="Helvetica,sans-Serif" font-size="10.00">/LoggerSingleton.hpp</text>
</a>
</g>
</g>
<!-- Node3&#45;&gt;Node6 -->
<g id="edge5" class="edge">
<title>Node3&#45;&gt;Node6</title>
<path fill="none" stroke="midnightblue" d="M315.84,-125.51C267.84,-115.83 198.39,-101.74 128.99,-87.3"/>
<polygon fill="midnightblue" stroke="midnightblue" points="129.7,-83.87 119.2,-85.26 128.27,-90.73 129.7,-83.87"/>
</g>
<!-- Node7 -->
<g id="node7" class="node">
<title>Node7</title>
<g id="a_node7"><a target="_parent" xlink:href="../../../cieutils/docs/html/typedefs_8hpp.html.html" xlink:title=" ">
<polygon fill="white" stroke="black" points="137,-56.5 137,-86.5 256,-86.5 256,-56.5 137,-56.5"/>
<text text-anchor="start" x="145" y="-74.5" font-family="Helvetica,sans-Serif" font-size="10.00">packages/macros/inc</text>
<text text-anchor="middle" x="196.5" y="-63.5" font-family="Helvetica,sans-Serif" font-size="10.00">/typedefs.hpp</text>
</a>
</g>
</g>
<!-- Node3&#45;&gt;Node7 -->
<g id="edge6" class="edge">
<title>Node3&#45;&gt;Node7</title>
<path fill="none" stroke="midnightblue" d="M336.66,-123.4C309.68,-113.6 273.56,-100.48 244.73,-90.02"/>
<polygon fill="midnightblue" stroke="midnightblue" points="245.86,-86.7 235.26,-86.58 243.47,-93.28 245.86,-86.7"/>
</g>
<!-- Node8 -->
<g id="node8" class="node">
<title>Node8</title>
<g id="a_node8"><a xlink:href="RigidBody_8hpp.html" target="_top" xlink:title=" ">
<polygon fill="white" stroke="black" points="313,-56.5 313,-86.5 432,-86.5 432,-56.5 313,-56.5"/>
<text text-anchor="start" x="321" y="-74.5" font-family="Helvetica,sans-Serif" font-size="10.00">packages/camera/inc</text>
<text text-anchor="middle" x="372.5" y="-63.5" font-family="Helvetica,sans-Serif" font-size="10.00">/RigidBody.hpp</text>
</a>
</g>
</g>
<!-- Node3&#45;&gt;Node8 -->
<g id="edge7" class="edge">
<title>Node3&#45;&gt;Node8</title>
<path fill="none" stroke="midnightblue" d="M374.85,-123.4C374.49,-115.64 374.04,-105.81 373.62,-96.86"/>
<polygon fill="midnightblue" stroke="midnightblue" points="377.11,-96.4 373.15,-86.58 370.11,-96.73 377.11,-96.4"/>
</g>
<!-- Node9 -->
<g id="node9" class="node">
<title>Node9</title>
<g id="a_node9"><a xlink:title=" ">
<polygon fill="white" stroke="#bfbfbf" points="299.5,-0.5 299.5,-19.5 357.5,-19.5 357.5,-0.5 299.5,-0.5"/>
<text text-anchor="middle" x="328.5" y="-7.5" font-family="Helvetica,sans-Serif" font-size="10.00">memory</text>
</a>
</g>
</g>
<!-- Node3&#45;&gt;Node9 -->
<g id="edge11" class="edge">
<title>Node3&#45;&gt;Node9</title>
<path fill="none" stroke="midnightblue" d="M342.91,-123.44C328.03,-115.16 311.88,-103.12 303.5,-87 293.54,-67.84 304.9,-43.92 315.36,-28.09"/>
<polygon fill="midnightblue" stroke="midnightblue" points="318.31,-29.98 321.24,-19.8 312.6,-25.93 318.31,-29.98"/>
</g>
<!-- Node3&#45;&gt;Node10 -->
<g id="edge10" class="edge">
<title>Node3&#45;&gt;Node10</title>
<path fill="none" stroke="midnightblue" d="M435.17,-125.26C499.42,-111.99 594.75,-92.04 611.5,-87 613.93,-86.27 616.42,-85.45 618.91,-84.58"/>
<polygon fill="midnightblue" stroke="midnightblue" points="620.19,-87.84 628.35,-81.08 617.76,-81.28 620.19,-87.84"/>
</g>
<!-- Node8&#45;&gt;Node4 -->
<g id="edge8" class="edge">
<title>Node8&#45;&gt;Node4</title>
<path fill="none" stroke="midnightblue" d="M425.54,-56.47C465.2,-45.99 518.71,-31.84 555.44,-22.12"/>
<polygon fill="midnightblue" stroke="midnightblue" points="556.56,-25.45 565.33,-19.51 554.77,-18.68 556.56,-25.45"/>
</g>
<!-- Node8&#45;&gt;Node9 -->
<g id="edge9" class="edge">
<title>Node8&#45;&gt;Node9</title>
<path fill="none" stroke="midnightblue" d="M362.07,-56.4C355.74,-47.84 347.63,-36.87 340.97,-27.86"/>
<polygon fill="midnightblue" stroke="midnightblue" points="343.66,-25.62 334.9,-19.66 338.03,-29.78 343.66,-25.62"/>
</g>
<!-- Node11&#45;&gt;Node4 -->
<g id="edge13" class="edge">
<title>Node11&#45;&gt;Node4</title>
<path fill="none" stroke="midnightblue" d="M699.38,-123.35C698.54,-105.83 694.76,-75.88 679.5,-56 668.2,-41.28 650.65,-30.73 634.68,-23.57"/>
<polygon fill="midnightblue" stroke="midnightblue" points="635.58,-20.16 625.01,-19.54 632.89,-26.62 635.58,-20.16"/>
</g>
<!-- Node11&#45;&gt;Node10 -->
<g id="edge15" class="edge">
<title>Node11&#45;&gt;Node10</title>
<path fill="none" stroke="midnightblue" d="M688.43,-123.4C680.56,-113.36 669.95,-99.84 661.65,-89.25"/>
<polygon fill="midnightblue" stroke="midnightblue" points="664.25,-86.9 655.32,-81.19 658.74,-91.22 664.25,-86.9"/>
</g>
<!-- Node12 -->
<g id="node12" class="node">
<title>Node12</title>
<g id="a_node12"><a xlink:title=" ">
<polygon fill="white" stroke="#bfbfbf" points="727.5,-62 727.5,-81 787.5,-81 787.5,-62 727.5,-62"/>
<text text-anchor="middle" x="757.5" y="-69" font-family="Helvetica,sans-Serif" font-size="10.00">concepts</text>
</a>
</g>
</g>
<!-- Node11&#45;&gt;Node12 -->
<g id="edge14" class="edge">
<title>Node11&#45;&gt;Node12</title>
<path fill="none" stroke="midnightblue" d="M712.09,-123.4C721.13,-113.26 733.35,-99.57 742.83,-88.94"/>
<polygon fill="midnightblue" stroke="midnightblue" points="745.7,-90.99 749.74,-81.19 740.47,-86.33 745.7,-90.99"/>
</g>
<!-- Node14&#45;&gt;Node11 -->
<g id="edge19" class="edge">
<title>Node14&#45;&gt;Node11</title>
<path fill="none" stroke="midnightblue" d="M699.5,-190.4C699.5,-182.64 699.5,-172.81 699.5,-163.86"/>
<polygon fill="midnightblue" stroke="midnightblue" points="703,-163.58 699.5,-153.58 696,-163.58 703,-163.58"/>
</g>
</g>
</svg>
