<?xml version="1.0" encoding="UTF-8" standalone="no"?>
<!DOCTYPE svg PUBLIC "-//W3C//DTD SVG 1.1//EN"
 "http://www.w3.org/Graphics/SVG/1.1/DTD/svg11.dtd">
<!-- Generated by graphviz version 2.43.0 (0)
 -->
<!-- Title: ProjectionPolicy.hpp Pages: 1 -->
<svg width="413pt" height="308pt"
 viewBox="0.00 0.00 413.00 308.00" xmlns="http://www.w3.org/2000/svg" xmlns:xlink="http://www.w3.org/1999/xlink">
<g id="graph0" class="graph" transform="scale(1 1) rotate(0) translate(4 304)">
<title>ProjectionPolicy.hpp</title>
<polygon fill="white" stroke="transparent" points="-4,4 -4,-304 409,-304 409,4 -4,4"/>
<!-- Node1 -->
<g id="node1" class="node">
<title>Node1</title>
<g id="a_node1"><a xlink:title=" ">
<polygon fill="#bfbfbf" stroke="black" points="148.5,-280.5 148.5,-299.5 262.5,-299.5 262.5,-280.5 148.5,-280.5"/>
<text text-anchor="middle" x="205.5" y="-287.5" font-family="Helvetica,sans-Serif" font-size="10.00">ProjectionPolicy.hpp</text>
</a>
</g>
</g>
<!-- Node2 -->
<g id="node2" class="node">
<title>Node2</title>
<g id="a_node2"><a xlink:href="Camera_8hpp.html" target="_top" xlink:title=" ">
<polygon fill="white" stroke="black" points="167.5,-224.5 167.5,-243.5 243.5,-243.5 243.5,-224.5 167.5,-224.5"/>
<text text-anchor="middle" x="205.5" y="-231.5" font-family="Helvetica,sans-Serif" font-size="10.00">Camera.hpp</text>
</a>
</g>
</g>
<!-- Node1&#45;&gt;Node2 -->
<g id="edge1" class="edge">
<title>Node1&#45;&gt;Node2</title>
<path fill="none" stroke="midnightblue" d="M205.5,-269.8C205.5,-260.91 205.5,-250.78 205.5,-243.75"/>
<polygon fill="midnightblue" stroke="midnightblue" points="202,-270.08 205.5,-280.08 209,-270.08 202,-270.08"/>
</g>
<!-- Node8 -->
<g id="node8" class="node">
<title>Node8</title>
<g id="a_node8"><a xlink:href="OrthographicProjection_8hpp.html" target="_top" xlink:title=" ">
<polygon fill="white" stroke="black" points="0,-224.5 0,-243.5 149,-243.5 149,-224.5 0,-224.5"/>
<text text-anchor="middle" x="74.5" y="-231.5" font-family="Helvetica,sans-Serif" font-size="10.00">OrthographicProjection.hpp</text>
</a>
</g>
</g>
<!-- Node1&#45;&gt;Node8 -->
<g id="edge7" class="edge">
<title>Node1&#45;&gt;Node8</title>
<path fill="none" stroke="midnightblue" d="M175.18,-276.5C150.62,-266.38 116.68,-252.39 95.16,-243.52"/>
<polygon fill="midnightblue" stroke="midnightblue" points="174.16,-279.87 184.74,-280.44 176.83,-273.4 174.16,-279.87"/>
</g>
<!-- Node9 -->
<g id="node9" class="node">
<title>Node9</title>
<g id="a_node9"><a xlink:href="PerspectiveProjection_8hpp.html" target="_top" xlink:title=" ">
<polygon fill="white" stroke="black" points="262,-224.5 262,-243.5 405,-243.5 405,-224.5 262,-224.5"/>
<text text-anchor="middle" x="333.5" y="-231.5" font-family="Helvetica,sans-Serif" font-size="10.00">PerspectiveProjection.hpp</text>
</a>
</g>
</g>
<!-- Node1&#45;&gt;Node9 -->
<g id="edge9" class="edge">
<title>Node1&#45;&gt;Node9</title>
<path fill="none" stroke="midnightblue" d="M235.12,-276.5C259.12,-266.38 292.28,-252.39 313.31,-243.52"/>
<polygon fill="midnightblue" stroke="midnightblue" points="233.64,-273.33 225.78,-280.44 236.36,-279.78 233.64,-273.33"/>
</g>
<!-- Node3 -->
<g id="node3" class="node">
<title>Node3</title>
<g id="a_node3"><a xlink:href="OrthographicCamera_8hpp.html" target="_top" xlink:title=" ">
<polygon fill="white" stroke="black" points="57,-168.5 57,-187.5 196,-187.5 196,-168.5 57,-168.5"/>
<text text-anchor="middle" x="126.5" y="-175.5" font-family="Helvetica,sans-Serif" font-size="10.00">OrthographicCamera.hpp</text>
</a>
</g>
</g>
<!-- Node2&#45;&gt;Node3 -->
<g id="edge2" class="edge">
<title>Node2&#45;&gt;Node3</title>
<path fill="none" stroke="midnightblue" d="M184.47,-218.62C170.03,-208.76 151.36,-195.99 139.16,-187.65"/>
<polygon fill="midnightblue" stroke="midnightblue" points="182.58,-221.57 192.81,-224.32 186.53,-215.79 182.58,-221.57"/>
</g>
<!-- Node7 -->
<g id="node7" class="node">
<title>Node7</title>
<g id="a_node7"><a xlink:href="PerspectiveCamera_8hpp.html" target="_top" xlink:title=" ">
<polygon fill="white" stroke="black" points="240,-168.5 240,-187.5 373,-187.5 373,-168.5 240,-168.5"/>
<text text-anchor="middle" x="306.5" y="-175.5" font-family="Helvetica,sans-Serif" font-size="10.00">PerspectiveCamera.hpp</text>
</a>
</g>
</g>
<!-- Node2&#45;&gt;Node7 -->
<g id="edge6" class="edge">
<title>Node2&#45;&gt;Node7</title>
<path fill="none" stroke="midnightblue" d="M230.58,-219.59C249.26,-209.61 274.2,-196.27 290.31,-187.65"/>
<polygon fill="midnightblue" stroke="midnightblue" points="228.9,-216.52 221.73,-224.32 232.2,-222.7 228.9,-216.52"/>
</g>
<!-- Node4 -->
<g id="node4" class="node">
<title>Node4</title>
<g id="a_node4"><a xlink:href="AbsPlot2_8hpp.html" target="_top" xlink:title=" ">
<polygon fill="white" stroke="black" points="86.5,-112.5 86.5,-131.5 166.5,-131.5 166.5,-112.5 86.5,-112.5"/>
<text text-anchor="middle" x="126.5" y="-119.5" font-family="Helvetica,sans-Serif" font-size="10.00">AbsPlot2.hpp</text>
</a>
</g>
</g>
<!-- Node3&#45;&gt;Node4 -->
<g id="edge3" class="edge">
<title>Node3&#45;&gt;Node4</title>
<path fill="none" stroke="midnightblue" d="M126.5,-157.8C126.5,-148.91 126.5,-138.78 126.5,-131.75"/>
<polygon fill="midnightblue" stroke="midnightblue" points="123,-158.08 126.5,-168.08 130,-158.08 123,-158.08"/>
</g>
<!-- Node5 -->
<g id="node5" class="node">
<title>Node5</title>
<g id="a_node5"><a xlink:href="Plot2_8hpp.html" target="_top" xlink:title=" ">
<polygon fill="white" stroke="black" points="95.5,-56.5 95.5,-75.5 157.5,-75.5 157.5,-56.5 95.5,-56.5"/>
<text text-anchor="middle" x="126.5" y="-63.5" font-family="Helvetica,sans-Serif" font-size="10.00">Plot2.hpp</text>
</a>
</g>
</g>
<!-- Node4&#45;&gt;Node5 -->
<g id="edge4" class="edge">
<title>Node4&#45;&gt;Node5</title>
<path fill="none" stroke="midnightblue" d="M126.5,-101.8C126.5,-92.91 126.5,-82.78 126.5,-75.75"/>
<polygon fill="midnightblue" stroke="midnightblue" points="123,-102.08 126.5,-112.08 130,-102.08 123,-102.08"/>
</g>
<!-- Node6 -->
<g id="node6" class="node">
<title>Node6</title>
<g id="a_node6"><a xlink:href="Plot2__MarchingCubes_8hpp.html" target="_top" xlink:title=" ">
<polygon fill="white" stroke="black" points="55,-0.5 55,-19.5 198,-19.5 198,-0.5 55,-0.5"/>
<text text-anchor="middle" x="126.5" y="-7.5" font-family="Helvetica,sans-Serif" font-size="10.00">Plot2_MarchingCubes.hpp</text>
</a>
</g>
</g>
<!-- Node5&#45;&gt;Node6 -->
<g id="edge5" class="edge">
<title>Node5&#45;&gt;Node6</title>
<path fill="none" stroke="midnightblue" d="M126.5,-45.8C126.5,-36.91 126.5,-26.78 126.5,-19.75"/>
<polygon fill="midnightblue" stroke="midnightblue" points="123,-46.08 126.5,-56.08 130,-46.08 123,-46.08"/>
</g>
<!-- Node8&#45;&gt;Node3 -->
<g id="edge8" class="edge">
<title>Node8&#45;&gt;Node3</title>
<path fill="none" stroke="midnightblue" d="M90.18,-216.72C99.34,-207.2 110.55,-195.56 118.07,-187.75"/>
<polygon fill="midnightblue" stroke="midnightblue" points="87.5,-214.45 83.09,-224.08 92.54,-219.31 87.5,-214.45"/>
</g>
<!-- Node9&#45;&gt;Node7 -->
<g id="edge10" class="edge">
<title>Node9&#45;&gt;Node7</title>
<path fill="none" stroke="midnightblue" d="M324.49,-214.98C319.91,-205.82 314.55,-195.09 310.88,-187.75"/>
<polygon fill="midnightblue" stroke="midnightblue" points="321.44,-216.7 329.04,-224.08 327.7,-213.57 321.44,-216.7"/>
</g>
</g>
</svg>
