<?xml version="1.0" encoding="UTF-8" standalone="no"?>
<!DOCTYPE svg PUBLIC "-//W3C//DTD SVG 1.1//EN"
 "http://www.w3.org/Graphics/SVG/1.1/DTD/svg11.dtd">
<!-- Generated by graphviz version 2.43.0 (0)
 -->
<!-- Title: RigidBody.hpp Pages: 1 -->
<!--zoomable 532 -->
<svg id="main" version="1.1" xmlns="http://www.w3.org/2000/svg" xmlns:xlink="http://www.w3.org/1999/xlink" xml:space="preserve" onload="init(evt)">
<style type="text/css"><![CDATA[
.edge:hover path { stroke: red; }
.edge:hover polygon { stroke: red; fill: red; }
]]></style>
<script type="text/javascript"><![CDATA[
var edges = document.getElementsByTagName('g');
if (edges && edges.length) {
  for (var i=0;i<edges.length;i++) {
    if (edges[i].id.substr(0,4)=='edge') {
      edges[i].setAttribute('class','edge');
    }
  }
}
]]></script>
        <defs>
                <circle id="rim" cx="0" cy="0" r="7"/>
                <circle id="rim2" cx="0" cy="0" r="3.5"/>
                <g id="zoomPlus">
                        <use xlink:href="#rim" fill="#404040">
                                <set attributeName="fill" to="#808080" begin="zoomplus.mouseover" end="zoomplus.mouseout"/>
                        </use>
                        <path d="M-4,0h8M0,-4v8" fill="none" stroke="white" stroke-width="1.5" pointer-events="none"/>
                </g>
                <g id="zoomMin">
                        <use xlink:href="#rim" fill="#404040">
                                <set attributeName="fill" to="#808080" begin="zoomminus.mouseover" end="zoomminus.mouseout"/>
                        </use>
                        <path d="M-4,0h8" fill="none" stroke="white" stroke-width="1.5" pointer-events="none"/>
                </g>
                <g id="dirArrow">
                        <path fill="none" stroke="white" stroke-width="1.5" d="M0,-3.0v7 M-2.5,-0.5L0,-3.0L2.5,-0.5"/>
                </g>
               <g id="resetDef">
                       <use xlink:href="#rim2" fill="#404040">
                               <set attributeName="fill" to="#808080" begin="reset.mouseover" end="reset.mouseout"/>
                       </use>
               </g>
        </defs>

<script type="text/javascript">
var viewWidth = 1121;
var viewHeight = 532;
var sectionId = 'dynsection-1';
</script>
<script xlink:href="svgpan.js"/>
<svg id="graph" class="graph">
<g id="viewport">
<title>RigidBody.hpp</title>
<polygon fill="white" stroke="transparent" points="-4,4 -4,-528 1116.5,-528 1116.5,4 -4,4"/>
<!-- Node1 -->
<g id="node1" class="node">
<title>Node1</title>
<g id="a_node1"><a xlink:title=" ">
<polygon fill="#bfbfbf" stroke="black" points="706.5,-504.5 706.5,-523.5 792.5,-523.5 792.5,-504.5 706.5,-504.5"/>
<text text-anchor="middle" x="749.5" y="-511.5" font-family="Helvetica,sans-Serif" font-size="10.00">RigidBody.hpp</text>
</a>
</g>
</g>
<!-- Node2 -->
<g id="node2" class="node">
<title>Node2</title>
<g id="a_node2"><a xlink:href="AbsCamera_8hpp.html" target="_top" xlink:title=" ">
<polygon fill="white" stroke="black" points="654.5,-448.5 654.5,-467.5 748.5,-467.5 748.5,-448.5 654.5,-448.5"/>
<text text-anchor="middle" x="701.5" y="-455.5" font-family="Helvetica,sans-Serif" font-size="10.00">AbsCamera.hpp</text>
</a>
</g>
</g>
<!-- Node1&#45;&gt;Node2 -->
<g id="edge1" class="edge">
<title>Node1&#45;&gt;Node2</title>
<path fill="none" stroke="midnightblue" d="M734.77,-496.43C726.36,-486.97 716.15,-475.48 709.28,-467.75"/>
<polygon fill="midnightblue" stroke="midnightblue" points="732.31,-498.93 741.57,-504.08 737.55,-494.28 732.31,-498.93"/>
</g>
<!-- Node27 -->
<g id="node27" class="node">
<title>Node27</title>
<g id="a_node27"><a xlink:href="Axes_8hpp.html" target="_top" xlink:title=" ">
<polygon fill="white" stroke="black" points="902,-448.5 902,-467.5 963,-467.5 963,-448.5 902,-448.5"/>
<text text-anchor="middle" x="932.5" y="-455.5" font-family="Helvetica,sans-Serif" font-size="10.00">Axes.hpp</text>
</a>
</g>
</g>
<!-- Node1&#45;&gt;Node27 -->
<g id="edge32" class="edge">
<title>Node1&#45;&gt;Node27</title>
<path fill="none" stroke="midnightblue" d="M788.24,-501.57C822.76,-491.38 872.51,-476.7 903.64,-467.52"/>
<polygon fill="midnightblue" stroke="midnightblue" points="787.1,-498.26 778.5,-504.44 789.08,-504.97 787.1,-498.26"/>
</g>
<!-- Node3 -->
<g id="node3" class="node">
<title>Node3</title>
<g id="a_node3"><a xlink:href="Camera_8hpp.html" target="_top" xlink:title=" ">
<polygon fill="white" stroke="black" points="166.5,-392.5 166.5,-411.5 242.5,-411.5 242.5,-392.5 166.5,-392.5"/>
<text text-anchor="middle" x="204.5" y="-399.5" font-family="Helvetica,sans-Serif" font-size="10.00">Camera.hpp</text>
</a>
</g>
</g>
<!-- Node2&#45;&gt;Node3 -->
<g id="edge2" class="edge">
<title>Node2&#45;&gt;Node3</title>
<path fill="none" stroke="midnightblue" d="M644.13,-450.77C541.56,-439.62 329.41,-416.57 242.7,-407.15"/>
<polygon fill="midnightblue" stroke="midnightblue" points="643.98,-454.27 654.3,-451.87 644.73,-447.31 643.98,-454.27"/>
</g>
<!-- Node9 -->
<g id="node9" class="node">
<title>Node9</title>
<g id="a_node9"><a xlink:href="camera__utilities_8hpp.html" target="_top" xlink:title=" ">
<polygon fill="white" stroke="black" points="588.5,-392.5 588.5,-411.5 704.5,-411.5 704.5,-392.5 588.5,-392.5"/>
<text text-anchor="middle" x="646.5" y="-399.5" font-family="Helvetica,sans-Serif" font-size="10.00">camera_utilities.hpp</text>
</a>
</g>
</g>
<!-- Node2&#45;&gt;Node9 -->
<g id="edge8" class="edge">
<title>Node2&#45;&gt;Node9</title>
<path fill="none" stroke="midnightblue" d="M685.21,-441C675.46,-431.43 663.45,-419.64 655.41,-411.75"/>
<polygon fill="midnightblue" stroke="midnightblue" points="682.83,-443.57 692.42,-448.08 687.73,-438.58 682.83,-443.57"/>
</g>
<!-- Node10 -->
<g id="node10" class="node">
<title>Node10</title>
<g id="a_node10"><a xlink:href="AbsCameraControls_8hpp.html" target="_top" xlink:title=" ">
<polygon fill="white" stroke="black" points="493.5,-280.5 493.5,-299.5 627.5,-299.5 627.5,-280.5 493.5,-280.5"/>
<text text-anchor="middle" x="560.5" y="-287.5" font-family="Helvetica,sans-Serif" font-size="10.00">AbsCameraControls.hpp</text>
</a>
</g>
</g>
<!-- Node2&#45;&gt;Node10 -->
<g id="edge9" class="edge">
<title>Node2&#45;&gt;Node10</title>
<path fill="none" stroke="midnightblue" d="M644.34,-448.87C620.88,-442.61 595.53,-431.56 579.5,-412 552,-378.45 556.26,-321.53 559.13,-299.8"/>
<polygon fill="midnightblue" stroke="midnightblue" points="643.7,-452.31 654.24,-451.26 645.34,-445.51 643.7,-452.31"/>
</g>
<!-- Node16 -->
<g id="node16" class="node">
<title>Node16</title>
<g id="a_node16"><a xlink:href="Axes3DScene_8hpp.html" target="_top" xlink:title=" ">
<polygon fill="white" stroke="black" points="1008.5,-224.5 1008.5,-243.5 1112.5,-243.5 1112.5,-224.5 1008.5,-224.5"/>
<text text-anchor="middle" x="1060.5" y="-231.5" font-family="Helvetica,sans-Serif" font-size="10.00">Axes3DScene.hpp</text>
</a>
</g>
</g>
<!-- Node2&#45;&gt;Node16 -->
<g id="edge16" class="edge">
<title>Node2&#45;&gt;Node16</title>
<path fill="none" stroke="midnightblue" d="M756.64,-446.13C831.59,-428.5 964.92,-386.56 1040.5,-300 1054.79,-283.64 1058.87,-257.22 1060.03,-243.65"/>
<polygon fill="midnightblue" stroke="midnightblue" points="755.43,-442.82 746.46,-448.46 756.99,-449.64 755.43,-442.82"/>
</g>
<!-- Node17 -->
<g id="node17" class="node">
<title>Node17</title>
<g id="a_node17"><a xlink:href="Scene_8hpp.html" target="_top" xlink:title=" ">
<polygon fill="white" stroke="black" points="723,-392.5 723,-411.5 790,-411.5 790,-392.5 723,-392.5"/>
<text text-anchor="middle" x="756.5" y="-399.5" font-family="Helvetica,sans-Serif" font-size="10.00">Scene.hpp</text>
</a>
</g>
</g>
<!-- Node2&#45;&gt;Node17 -->
<g id="edge17" class="edge">
<title>Node2&#45;&gt;Node17</title>
<path fill="none" stroke="midnightblue" d="M717.79,-441C727.54,-431.43 739.55,-419.64 747.59,-411.75"/>
<polygon fill="midnightblue" stroke="midnightblue" points="715.27,-438.58 710.58,-448.08 720.17,-443.57 715.27,-438.58"/>
</g>
<!-- Node4 -->
<g id="node4" class="node">
<title>Node4</title>
<g id="a_node4"><a xlink:href="OrthographicCamera_8hpp.html" target="_top" xlink:title=" ">
<polygon fill="white" stroke="black" points="0,-168.5 0,-187.5 139,-187.5 139,-168.5 0,-168.5"/>
<text text-anchor="middle" x="69.5" y="-175.5" font-family="Helvetica,sans-Serif" font-size="10.00">OrthographicCamera.hpp</text>
</a>
</g>
</g>
<!-- Node3&#45;&gt;Node4 -->
<g id="edge3" class="edge">
<title>Node3&#45;&gt;Node4</title>
<path fill="none" stroke="midnightblue" d="M171.7,-388.01C156.7,-380.62 139.8,-370 128.5,-356 85.17,-302.31 73.1,-215.43 70.27,-187.76"/>
<polygon fill="midnightblue" stroke="midnightblue" points="170.65,-391.39 181.2,-392.41 173.59,-385.03 170.65,-391.39"/>
</g>
<!-- Node8 -->
<g id="node8" class="node">
<title>Node8</title>
<g id="a_node8"><a xlink:href="PerspectiveCamera_8hpp.html" target="_top" xlink:title=" ">
<polygon fill="white" stroke="black" points="138,-336.5 138,-355.5 271,-355.5 271,-336.5 138,-336.5"/>
<text text-anchor="middle" x="204.5" y="-343.5" font-family="Helvetica,sans-Serif" font-size="10.00">PerspectiveCamera.hpp</text>
</a>
</g>
</g>
<!-- Node3&#45;&gt;Node8 -->
<g id="edge7" class="edge">
<title>Node3&#45;&gt;Node8</title>
<path fill="none" stroke="midnightblue" d="M204.5,-381.8C204.5,-372.91 204.5,-362.78 204.5,-355.75"/>
<polygon fill="midnightblue" stroke="midnightblue" points="201,-382.08 204.5,-392.08 208,-382.08 201,-382.08"/>
</g>
<!-- Node5 -->
<g id="node5" class="node">
<title>Node5</title>
<g id="a_node5"><a xlink:href="AbsPlot2_8hpp.html" target="_top" xlink:title=" ">
<polygon fill="white" stroke="black" points="181.5,-112.5 181.5,-131.5 261.5,-131.5 261.5,-112.5 181.5,-112.5"/>
<text text-anchor="middle" x="221.5" y="-119.5" font-family="Helvetica,sans-Serif" font-size="10.00">AbsPlot2.hpp</text>
</a>
</g>
</g>
<!-- Node4&#45;&gt;Node5 -->
<g id="edge4" class="edge">
<title>Node4&#45;&gt;Node5</title>
<path fill="none" stroke="midnightblue" d="M103.17,-165.04C131.77,-154.88 172.11,-140.55 197.53,-131.52"/>
<polygon fill="midnightblue" stroke="midnightblue" points="101.84,-161.8 93.58,-168.44 104.18,-168.39 101.84,-161.8"/>
</g>
<!-- Node6 -->
<g id="node6" class="node">
<title>Node6</title>
<g id="a_node6"><a xlink:href="Plot2_8hpp.html" target="_top" xlink:title=" ">
<polygon fill="white" stroke="black" points="190.5,-56.5 190.5,-75.5 252.5,-75.5 252.5,-56.5 190.5,-56.5"/>
<text text-anchor="middle" x="221.5" y="-63.5" font-family="Helvetica,sans-Serif" font-size="10.00">Plot2.hpp</text>
</a>
</g>
</g>
<!-- Node5&#45;&gt;Node6 -->
<g id="edge5" class="edge">
<title>Node5&#45;&gt;Node6</title>
<path fill="none" stroke="midnightblue" d="M221.5,-101.8C221.5,-92.91 221.5,-82.78 221.5,-75.75"/>
<polygon fill="midnightblue" stroke="midnightblue" points="218,-102.08 221.5,-112.08 225,-102.08 218,-102.08"/>
</g>
<!-- Node7 -->
<g id="node7" class="node">
<title>Node7</title>
<g id="a_node7"><a xlink:href="Plot2__MarchingCubes_8hpp.html" target="_top" xlink:title=" ">
<polygon fill="white" stroke="black" points="150,-0.5 150,-19.5 293,-19.5 293,-0.5 150,-0.5"/>
<text text-anchor="middle" x="221.5" y="-7.5" font-family="Helvetica,sans-Serif" font-size="10.00">Plot2_MarchingCubes.hpp</text>
</a>
</g>
</g>
<!-- Node6&#45;&gt;Node7 -->
<g id="edge6" class="edge">
<title>Node6&#45;&gt;Node7</title>
<path fill="none" stroke="midnightblue" d="M221.5,-45.8C221.5,-36.91 221.5,-26.78 221.5,-19.75"/>
<polygon fill="midnightblue" stroke="midnightblue" points="218,-46.08 221.5,-56.08 225,-46.08 218,-46.08"/>
</g>
<!-- Node11 -->
<g id="node11" class="node">
<title>Node11</title>
<g id="a_node11"><a xlink:href="DebugCameraControls_8hpp.html" target="_top" xlink:title=" ">
<polygon fill="white" stroke="black" points="528.5,-224.5 528.5,-243.5 676.5,-243.5 676.5,-224.5 528.5,-224.5"/>
<text text-anchor="middle" x="602.5" y="-231.5" font-family="Helvetica,sans-Serif" font-size="10.00">DebugCameraControls.hpp</text>
</a>
</g>
</g>
<!-- Node10&#45;&gt;Node11 -->
<g id="edge10" class="edge">
<title>Node10&#45;&gt;Node11</title>
<path fill="none" stroke="midnightblue" d="M573.61,-272.14C580.93,-262.74 589.74,-251.4 595.69,-243.75"/>
<polygon fill="midnightblue" stroke="midnightblue" points="570.81,-270.04 567.44,-280.08 576.34,-274.34 570.81,-270.04"/>
</g>
<!-- Node12 -->
<g id="node12" class="node">
<title>Node12</title>
<g id="a_node12"><a xlink:href="MappedCameraControls_8hpp.html" target="_top" xlink:title=" ">
<polygon fill="white" stroke="black" points="355,-224.5 355,-243.5 510,-243.5 510,-224.5 355,-224.5"/>
<text text-anchor="middle" x="432.5" y="-231.5" font-family="Helvetica,sans-Serif" font-size="10.00">MappedCameraControls.hpp</text>
</a>
</g>
</g>
<!-- Node10&#45;&gt;Node12 -->
<g id="edge11" class="edge">
<title>Node10&#45;&gt;Node12</title>
<path fill="none" stroke="midnightblue" d="M530.88,-276.5C506.88,-266.38 473.72,-252.39 452.69,-243.52"/>
<polygon fill="midnightblue" stroke="midnightblue" points="529.64,-279.78 540.22,-280.44 532.36,-273.33 529.64,-279.78"/>
</g>
<!-- Node13 -->
<g id="node13" class="node">
<title>Node13</title>
<g id="a_node13"><a xlink:href="ArcBallCameraControls_8hpp.html" target="_top" xlink:title=" ">
<polygon fill="white" stroke="black" points="376,-168.5 376,-187.5 527,-187.5 527,-168.5 376,-168.5"/>
<text text-anchor="middle" x="451.5" y="-175.5" font-family="Helvetica,sans-Serif" font-size="10.00">ArcBallCameraControls.hpp</text>
</a>
</g>
</g>
<!-- Node12&#45;&gt;Node13 -->
<g id="edge12" class="edge">
<title>Node12&#45;&gt;Node13</title>
<path fill="none" stroke="midnightblue" d="M439.05,-214.4C442.22,-205.36 445.89,-194.94 448.42,-187.75"/>
<polygon fill="midnightblue" stroke="midnightblue" points="435.65,-213.49 435.64,-224.08 442.26,-215.81 435.65,-213.49"/>
</g>
<!-- Node14 -->
<g id="node14" class="node">
<title>Node14</title>
<g id="a_node14"><a xlink:href="FlyCameraControls_8hpp.html" target="_top" xlink:title=" ">
<polygon fill="white" stroke="black" points="545,-168.5 545,-187.5 676,-187.5 676,-168.5 545,-168.5"/>
<text text-anchor="middle" x="610.5" y="-175.5" font-family="Helvetica,sans-Serif" font-size="10.00">FlyCameraControls.hpp</text>
</a>
</g>
</g>
<!-- Node12&#45;&gt;Node14 -->
<g id="edge13" class="edge">
<title>Node12&#45;&gt;Node14</title>
<path fill="none" stroke="midnightblue" d="M470.62,-221.44C504.18,-211.26 552.27,-196.66 582.43,-187.52"/>
<polygon fill="midnightblue" stroke="midnightblue" points="469.26,-218.19 460.7,-224.44 471.29,-224.89 469.26,-218.19"/>
</g>
<!-- Node15 -->
<g id="node15" class="node">
<title>Node15</title>
<g id="a_node15"><a xlink:href="PanZoomCameraControls_8hpp.html" target="_top" xlink:title=" ">
<polygon fill="white" stroke="black" points="195.5,-168.5 195.5,-187.5 357.5,-187.5 357.5,-168.5 195.5,-168.5"/>
<text text-anchor="middle" x="276.5" y="-175.5" font-family="Helvetica,sans-Serif" font-size="10.00">PanZoomCameraControls.hpp</text>
</a>
</g>
</g>
<!-- Node12&#45;&gt;Node15 -->
<g id="edge14" class="edge">
<title>Node12&#45;&gt;Node15</title>
<path fill="none" stroke="midnightblue" d="M398.33,-221.17C368.96,-211 327.3,-196.59 301.1,-187.52"/>
<polygon fill="midnightblue" stroke="midnightblue" points="397.19,-224.48 407.78,-224.44 399.48,-217.86 397.19,-224.48"/>
</g>
<!-- Node15&#45;&gt;Node5 -->
<g id="edge15" class="edge">
<title>Node15&#45;&gt;Node5</title>
<path fill="none" stroke="midnightblue" d="M260.21,-161C250.46,-151.43 238.45,-139.64 230.41,-131.75"/>
<polygon fill="midnightblue" stroke="midnightblue" points="257.83,-163.57 267.42,-168.08 262.73,-158.58 257.83,-163.57"/>
</g>
<!-- Node17&#45;&gt;Node5 -->
<g id="edge27" class="edge">
<title>Node17&#45;&gt;Node5</title>
<path fill="none" stroke="midnightblue" d="M742.8,-384.21C727.39,-363.58 704.5,-326.88 704.5,-291 704.5,-291 704.5,-291 704.5,-233 704.5,-202.77 707.91,-187.11 684.5,-168 652.05,-141.51 368.02,-128.4 261.56,-124.38"/>
<polygon fill="midnightblue" stroke="midnightblue" points="740.15,-386.5 749.05,-392.26 745.68,-382.21 740.15,-386.5"/>
</g>
<!-- Node18 -->
<g id="node18" class="node">
<title>Node18</title>
<g id="a_node18"><a xlink:href="AbsWindow_8hpp.html" target="_top" xlink:title=" ">
<polygon fill="white" stroke="black" points="378.5,-336.5 378.5,-355.5 472.5,-355.5 472.5,-336.5 378.5,-336.5"/>
<text text-anchor="middle" x="425.5" y="-343.5" font-family="Helvetica,sans-Serif" font-size="10.00">AbsWindow.hpp</text>
</a>
</g>
</g>
<!-- Node17&#45;&gt;Node18 -->
<g id="edge18" class="edge">
<title>Node17&#45;&gt;Node18</title>
<path fill="none" stroke="midnightblue" d="M712.81,-391.95C621.94,-375.51 527.63,-361.48 472.52,-353.59"/>
<polygon fill="midnightblue" stroke="midnightblue" points="712.27,-395.41 722.73,-393.76 713.52,-388.53 712.27,-395.41"/>
</g>
<!-- Node24 -->
<g id="node24" class="node">
<title>Node24</title>
<g id="a_node24"><a xlink:href="PartScene_8hpp.html" target="_top" xlink:title=" ">
<polygon fill="white" stroke="black" points="768.5,-336.5 768.5,-355.5 854.5,-355.5 854.5,-336.5 768.5,-336.5"/>
<text text-anchor="middle" x="811.5" y="-343.5" font-family="Helvetica,sans-Serif" font-size="10.00">PartScene.hpp</text>
</a>
</g>
</g>
<!-- Node17&#45;&gt;Node24 -->
<g id="edge28" class="edge">
<title>Node17&#45;&gt;Node24</title>
<path fill="none" stroke="midnightblue" d="M772.79,-385C782.54,-375.43 794.55,-363.64 802.59,-355.75"/>
<polygon fill="midnightblue" stroke="midnightblue" points="770.27,-382.58 765.58,-392.08 775.17,-387.57 770.27,-382.58"/>
</g>
<!-- Node18&#45;&gt;Node10 -->
<g id="edge24" class="edge">
<title>Node18&#45;&gt;Node10</title>
<path fill="none" stroke="midnightblue" d="M456.41,-332.64C481.74,-322.5 516.93,-308.43 539.21,-299.52"/>
<polygon fill="midnightblue" stroke="midnightblue" points="454.88,-329.48 446.89,-336.44 457.48,-335.98 454.88,-329.48"/>
</g>
<!-- Node19 -->
<g id="node19" class="node">
<title>Node19</title>
<g id="a_node19"><a xlink:href="AbsContext_8hpp.html" target="_top" xlink:title=" ">
<polygon fill="white" stroke="black" points="221.5,-280.5 221.5,-299.5 315.5,-299.5 315.5,-280.5 221.5,-280.5"/>
<text text-anchor="middle" x="268.5" y="-287.5" font-family="Helvetica,sans-Serif" font-size="10.00">AbsContext.hpp</text>
</a>
</g>
</g>
<!-- Node18&#45;&gt;Node19 -->
<g id="edge19" class="edge">
<title>Node18&#45;&gt;Node19</title>
<path fill="none" stroke="midnightblue" d="M391.11,-333.17C361.55,-323 319.63,-308.59 293.26,-299.52"/>
<polygon fill="midnightblue" stroke="midnightblue" points="390.03,-336.5 400.62,-336.44 392.3,-329.88 390.03,-336.5"/>
</g>
<!-- Node21 -->
<g id="node21" class="node">
<title>Node21</title>
<g id="a_node21"><a xlink:href="AbsPlot_8hpp.html" target="_top" xlink:title=" ">
<polygon fill="white" stroke="black" points="251.5,-224.5 251.5,-243.5 325.5,-243.5 325.5,-224.5 251.5,-224.5"/>
<text text-anchor="middle" x="288.5" y="-231.5" font-family="Helvetica,sans-Serif" font-size="10.00">AbsPlot.hpp</text>
</a>
</g>
</g>
<!-- Node18&#45;&gt;Node21 -->
<g id="edge26" class="edge">
<title>Node18&#45;&gt;Node21</title>
<path fill="none" stroke="midnightblue" d="M438.96,-327.9C448.25,-313.89 457.17,-294.13 446.5,-280 439.09,-270.18 369.93,-253.16 325.6,-243.11"/>
<polygon fill="midnightblue" stroke="midnightblue" points="436.02,-326 433.01,-336.16 441.7,-330.1 436.02,-326"/>
</g>
<!-- Node22 -->
<g id="node22" class="node">
<title>Node22</title>
<g id="a_node22"><a xlink:href="GLFWWindow_8hpp.html" target="_top" xlink:title=" ">
<polygon fill="white" stroke="black" points="333.5,-280.5 333.5,-299.5 437.5,-299.5 437.5,-280.5 333.5,-280.5"/>
<text text-anchor="middle" x="385.5" y="-287.5" font-family="Helvetica,sans-Serif" font-size="10.00">GLFWWindow.hpp</text>
</a>
</g>
</g>
<!-- Node18&#45;&gt;Node22 -->
<g id="edge23" class="edge">
<title>Node18&#45;&gt;Node22</title>
<path fill="none" stroke="midnightblue" d="M412.8,-327.86C405.87,-318.5 397.59,-307.33 391.98,-299.75"/>
<polygon fill="midnightblue" stroke="midnightblue" points="410.13,-330.13 418.89,-336.08 415.75,-325.96 410.13,-330.13"/>
</g>
<!-- Node23 -->
<g id="node23" class="node">
<title>Node23</title>
<g id="a_node23"><a xlink:href="utilities_8hpp.html" target="_top" xlink:title=" ">
<polygon fill="white" stroke="black" points="129.5,-280.5 129.5,-299.5 203.5,-299.5 203.5,-280.5 129.5,-280.5"/>
<text text-anchor="middle" x="166.5" y="-287.5" font-family="Helvetica,sans-Serif" font-size="10.00">utilities.hpp</text>
</a>
</g>
</g>
<!-- Node18&#45;&gt;Node23 -->
<g id="edge25" class="edge">
<title>Node18&#45;&gt;Node23</title>
<path fill="none" stroke="midnightblue" d="M374.44,-334.35C324.1,-323.86 248.4,-308.08 203.57,-298.73"/>
<polygon fill="midnightblue" stroke="midnightblue" points="373.96,-337.83 384.46,-336.44 375.39,-330.98 373.96,-337.83"/>
</g>
<!-- Node20 -->
<g id="node20" class="node">
<title>Node20</title>
<g id="a_node20"><a xlink:href="GLFWContext_8hpp.html" target="_top" xlink:title=" ">
<polygon fill="white" stroke="black" points="129.5,-224.5 129.5,-243.5 233.5,-243.5 233.5,-224.5 129.5,-224.5"/>
<text text-anchor="middle" x="181.5" y="-231.5" font-family="Helvetica,sans-Serif" font-size="10.00">GLFWContext.hpp</text>
</a>
</g>
</g>
<!-- Node19&#45;&gt;Node20 -->
<g id="edge20" class="edge">
<title>Node19&#45;&gt;Node20</title>
<path fill="none" stroke="midnightblue" d="M245.78,-274.9C229.83,-265 209,-252.07 195.44,-243.65"/>
<polygon fill="midnightblue" stroke="midnightblue" points="244.18,-278.02 254.52,-280.32 247.87,-272.08 244.18,-278.02"/>
</g>
<!-- Node19&#45;&gt;Node21 -->
<g id="edge21" class="edge">
<title>Node19&#45;&gt;Node21</title>
<path fill="none" stroke="midnightblue" d="M275.28,-270.69C278.65,-261.59 282.57,-251.01 285.26,-243.75"/>
<polygon fill="midnightblue" stroke="midnightblue" points="271.99,-269.49 271.8,-280.08 278.56,-271.92 271.99,-269.49"/>
</g>
<!-- Node21&#45;&gt;Node5 -->
<g id="edge22" class="edge">
<title>Node21&#45;&gt;Node5</title>
<path fill="none" stroke="midnightblue" d="M250.95,-221.25C225.09,-212.31 194.07,-199.61 186.5,-188 173.9,-168.67 196.32,-144.39 210.75,-131.67"/>
<polygon fill="midnightblue" stroke="midnightblue" points="249.96,-224.61 260.55,-224.48 252.19,-217.98 249.96,-224.61"/>
</g>
<!-- Node25 -->
<g id="node25" class="node">
<title>Node25</title>
<g id="a_node25"><a xlink:href="GenericPartScene_8hpp.html" target="_top" xlink:title=" ">
<polygon fill="white" stroke="black" points="909,-280.5 909,-299.5 1032,-299.5 1032,-280.5 909,-280.5"/>
<text text-anchor="middle" x="970.5" y="-287.5" font-family="Helvetica,sans-Serif" font-size="10.00">GenericPartScene.hpp</text>
</a>
</g>
</g>
<!-- Node24&#45;&gt;Node25 -->
<g id="edge29" class="edge">
<title>Node24&#45;&gt;Node25</title>
<path fill="none" stroke="midnightblue" d="M846.33,-333.17C876.27,-323 918.72,-308.59 945.42,-299.52"/>
<polygon fill="midnightblue" stroke="midnightblue" points="845.04,-329.91 836.69,-336.44 847.29,-336.54 845.04,-329.91"/>
</g>
<!-- Node26 -->
<g id="node26" class="node">
<title>Node26</title>
<g id="a_node26"><a xlink:href="Triangulated3DPartScene_8hpp.html" target="_top" xlink:title=" ">
<polygon fill="white" stroke="black" points="732,-280.5 732,-299.5 891,-299.5 891,-280.5 732,-280.5"/>
<text text-anchor="middle" x="811.5" y="-287.5" font-family="Helvetica,sans-Serif" font-size="10.00">Triangulated3DPartScene.hpp</text>
</a>
</g>
</g>
<!-- Node24&#45;&gt;Node26 -->
<g id="edge31" class="edge">
<title>Node24&#45;&gt;Node26</title>
<path fill="none" stroke="midnightblue" d="M811.5,-325.8C811.5,-316.91 811.5,-306.78 811.5,-299.75"/>
<polygon fill="midnightblue" stroke="midnightblue" points="808,-326.08 811.5,-336.08 815,-326.08 808,-326.08"/>
</g>
<!-- Node25&#45;&gt;Node16 -->
<g id="edge30" class="edge">
<title>Node25&#45;&gt;Node16</title>
<path fill="none" stroke="midnightblue" d="M993.54,-275.18C1010.1,-265.24 1031.92,-252.15 1046.08,-243.65"/>
<polygon fill="midnightblue" stroke="midnightblue" points="991.73,-272.18 984.96,-280.32 995.34,-278.18 991.73,-272.18"/>
</g>
<!-- Node27&#45;&gt;Node16 -->
<g id="edge33" class="edge">
<title>Node27&#45;&gt;Node16</title>
<path fill="none" stroke="midnightblue" d="M973.43,-456.36C1006.63,-453.4 1051.55,-443.35 1074.5,-412 1113.29,-359.02 1077.84,-271.67 1064.84,-243.82"/>
<polygon fill="midnightblue" stroke="midnightblue" points="972.84,-452.89 963.11,-457.08 973.33,-459.87 972.84,-452.89"/>
</g>
</g>
</svg>
        <g id="navigator" transform="translate(0 0)" fill="#404254">
                <rect fill="#f2f5e9" fill-opacity="0.5" stroke="#606060" stroke-width=".5" x="0" y="0" width="60" height="60"/>
                <use id="zoomplus" xlink:href="#zoomPlus" x="17" y="9" onmousedown="handleZoom(evt,'in')"/>
                <use id="zoomminus" xlink:href="#zoomMin" x="42" y="9" onmousedown="handleZoom(evt,'out')"/>
                <use id="reset" xlink:href="#resetDef" x="30" y="36" onmousedown="handleReset()"/>
                <g id="arrowUp" xlink:href="#dirArrow" transform="translate(30 24)" onmousedown="handlePan(0,-1)">
                  <use xlink:href="#rim" fill="#404040">
                        <set attributeName="fill" to="#808080" begin="arrowUp.mouseover" end="arrowUp.mouseout"/>
                  </use>
                  <path fill="none" stroke="white" stroke-width="1.5" d="M0,-3.0v7 M-2.5,-0.5L0,-3.0L2.5,-0.5"/>
                </g>
                <g id="arrowRight" xlink:href="#dirArrow" transform="rotate(90) translate(36 -43)" onmousedown="handlePan(1,0)">
                  <use xlink:href="#rim" fill="#404040">
                        <set attributeName="fill" to="#808080" begin="arrowRight.mouseover" end="arrowRight.mouseout"/>
                  </use>
                  <path fill="none" stroke="white" stroke-width="1.5" d="M0,-3.0v7 M-2.5,-0.5L0,-3.0L2.5,-0.5"/>
                </g>
                <g id="arrowDown" xlink:href="#dirArrow" transform="rotate(180) translate(-30 -48)" onmousedown="handlePan(0,1)">
                  <use xlink:href="#rim" fill="#404040">
                        <set attributeName="fill" to="#808080" begin="arrowDown.mouseover" end="arrowDown.mouseout"/>
                  </use>
                  <path fill="none" stroke="white" stroke-width="1.5" d="M0,-3.0v7 M-2.5,-0.5L0,-3.0L2.5,-0.5"/>
                </g>
                <g id="arrowLeft" xlink:href="#dirArrow" transform="rotate(270) translate(-36 17)" onmousedown="handlePan(-1,0)">
                  <use xlink:href="#rim" fill="#404040">
                        <set attributeName="fill" to="#808080" begin="arrowLeft.mouseover" end="arrowLeft.mouseout"/>
                  </use>
                  <path fill="none" stroke="white" stroke-width="1.5" d="M0,-3.0v7 M-2.5,-0.5L0,-3.0L2.5,-0.5"/>
                </g>
        </g>
        <svg viewBox="0 0 15 15" width="100%" height="30px" preserveAspectRatio="xMaxYMin meet">
         <g id="arrow_out" transform="scale(0.3 0.3)">
          <a xlink:href="RigidBody_8hpp__dep__incl_org.svg" target="_base">
           <rect id="button" ry="5" rx="5" y="6" x="6" height="38" width="38"
                fill="#f2f5e9" fill-opacity="0.5" stroke="#606060" stroke-width="1.0"/>
           <path id="arrow"
             d="M 11.500037,31.436501 C 11.940474,20.09759 22.043105,11.32322 32.158766,21.979434 L 37.068811,17.246167 C 37.068811,17.246167 37.088388,32 37.088388,32 L 22.160133,31.978069 C 22.160133,31.978069 26.997745,27.140456 26.997745,27.140456 C 18.528582,18.264221 13.291696,25.230495 11.500037,31.436501 z"
             style="fill:#404040;"/>
          </a>
         </g>
        </svg>
</svg>
