<?xml version="1.0" encoding="UTF-8" standalone="no"?>
<!DOCTYPE svg PUBLIC "-//W3C//DTD SVG 1.1//EN"
 "http://www.w3.org/Graphics/SVG/1.1/DTD/svg11.dtd">
<!-- Generated by graphviz version 2.43.0 (0)
 -->
<!-- Title: Scene.hpp Pages: 1 -->
<svg width="2169pt" height="463pt"
 viewBox="0.00 0.00 2169.45 463.00" xmlns="http://www.w3.org/2000/svg" xmlns:xlink="http://www.w3.org/1999/xlink">
<g id="graph0" class="graph" transform="scale(1 1) rotate(0) translate(4 459)">
<title>Scene.hpp</title>
<polygon fill="white" stroke="transparent" points="-4,4 -4,-459 2165.45,-459 2165.45,4 -4,4"/>
<!-- Node1 -->
<g id="node1" class="node">
<title>Node1</title>
<g id="a_node1"><a xlink:title=" ">
<polygon fill="#bfbfbf" stroke="black" points="1153.45,-435.5 1153.45,-454.5 1220.45,-454.5 1220.45,-435.5 1153.45,-435.5"/>
<text text-anchor="middle" x="1186.95" y="-442.5" font-family="Helvetica,sans-Serif" font-size="10.00">Scene.hpp</text>
</a>
</g>
</g>
<!-- Node2 -->
<g id="node2" class="node">
<title>Node2</title>
<g id="a_node2"><a xlink:title=" ">
<polygon fill="white" stroke="#bfbfbf" points="1341.45,-6 1341.45,-25 1412.45,-25 1412.45,-6 1341.45,-6"/>
<text text-anchor="middle" x="1376.95" y="-13" font-family="Helvetica,sans-Serif" font-size="10.00">glad/glad.h</text>
</a>
</g>
</g>
<!-- Node1&#45;&gt;Node2 -->
<g id="edge1" class="edge">
<title>Node1&#45;&gt;Node2</title>
<path fill="none" stroke="midnightblue" d="M1220.55,-443.14C1306.11,-440.54 1538.9,-430.84 1729.95,-399 1860.16,-377.3 2013.95,-444.01 2013.95,-312 2013.95,-312 2013.95,-312 2013.95,-154 2013.95,-33 1569.25,-18.21 1422.97,-16.62"/>
<polygon fill="midnightblue" stroke="midnightblue" points="1422.59,-13.11 1412.56,-16.52 1422.53,-20.11 1422.59,-13.11"/>
</g>
<!-- Node3 -->
<g id="node3" class="node">
<title>Node3</title>
<g id="a_node3"><a xlink:title=" ">
<polygon fill="white" stroke="#bfbfbf" points="1008.95,-223.5 1008.95,-242.5 1086.95,-242.5 1086.95,-223.5 1008.95,-223.5"/>
<text text-anchor="middle" x="1047.95" y="-230.5" font-family="Helvetica,sans-Serif" font-size="10.00">glm/glm.hpp</text>
</a>
</g>
</g>
<!-- Node1&#45;&gt;Node3 -->
<g id="edge2" class="edge">
<title>Node1&#45;&gt;Node3</title>
<path fill="none" stroke="midnightblue" d="M1218.65,-435.43C1289.75,-414.73 1451.32,-358.61 1392.95,-290 1383.42,-278.79 1190.25,-252.42 1097.21,-240.29"/>
<polygon fill="midnightblue" stroke="midnightblue" points="1097.55,-236.81 1087.18,-238.99 1096.65,-243.75 1097.55,-236.81"/>
</g>
<!-- Node4 -->
<g id="node4" class="node">
<title>Node4</title>
<g id="a_node4"><a target="_parent" xlink:href="../../../cieutils/docs/html/Loggee_8hpp.html.html" xlink:title=" ">
<polygon fill="white" stroke="black" points="1127.45,-296 1127.45,-326 1246.45,-326 1246.45,-296 1127.45,-296"/>
<text text-anchor="start" x="1135.45" y="-314" font-family="Helvetica,sans-Serif" font-size="10.00">packages/logging/inc</text>
<text text-anchor="middle" x="1186.95" y="-303" font-family="Helvetica,sans-Serif" font-size="10.00">/Loggee.hpp</text>
</a>
</g>
</g>
<!-- Node1&#45;&gt;Node4 -->
<g id="edge3" class="edge">
<title>Node1&#45;&gt;Node4</title>
<path fill="none" stroke="midnightblue" d="M1186.95,-435.34C1186.95,-415.52 1186.95,-366.27 1186.95,-336.34"/>
<polygon fill="midnightblue" stroke="midnightblue" points="1190.45,-336.28 1186.95,-326.28 1183.45,-336.28 1190.45,-336.28"/>
</g>
<!-- Node5 -->
<g id="node5" class="node">
<title>Node5</title>
<g id="a_node5"><a target="_parent" xlink:href="../../../cieutils/docs/html/LoggerSingleton_8hpp.html.html" xlink:title=" ">
<polygon fill="white" stroke="black" points="1264.45,-296 1264.45,-326 1383.45,-326 1383.45,-296 1264.45,-296"/>
<text text-anchor="start" x="1272.45" y="-314" font-family="Helvetica,sans-Serif" font-size="10.00">packages/logging/inc</text>
<text text-anchor="middle" x="1323.95" y="-303" font-family="Helvetica,sans-Serif" font-size="10.00">/LoggerSingleton.hpp</text>
</a>
</g>
</g>
<!-- Node1&#45;&gt;Node5 -->
<g id="edge4" class="edge">
<title>Node1&#45;&gt;Node5</title>
<path fill="none" stroke="midnightblue" d="M1195.94,-435.34C1217.23,-414.82 1271.25,-362.78 1301.88,-333.27"/>
<polygon fill="midnightblue" stroke="midnightblue" points="1304.35,-335.74 1309.12,-326.28 1299.5,-330.7 1304.35,-335.74"/>
</g>
<!-- Node6 -->
<g id="node6" class="node">
<title>Node6</title>
<g id="a_node6"><a target="_parent" xlink:href="../../../cieutils/docs/html/IDObject_8hpp.html.html" xlink:title=" ">
<polygon fill="white" stroke="black" points="32.95,-140 32.95,-170 142.95,-170 142.95,-140 32.95,-140"/>
<text text-anchor="start" x="40.95" y="-158" font-family="Helvetica,sans-Serif" font-size="10.00">packages/types/inc</text>
<text text-anchor="middle" x="87.95" y="-147" font-family="Helvetica,sans-Serif" font-size="10.00">/IDObject.hpp</text>
</a>
</g>
</g>
<!-- Node1&#45;&gt;Node6 -->
<g id="edge5" class="edge">
<title>Node1&#45;&gt;Node6</title>
<path fill="none" stroke="midnightblue" d="M1153.11,-443.06C1031.7,-439.47 618.31,-425.56 488.95,-399 300.03,-360.2 191.23,-411.52 79.95,-254 64.71,-232.43 70.81,-201.15 78.02,-179.76"/>
<polygon fill="midnightblue" stroke="midnightblue" points="81.39,-180.74 81.56,-170.15 74.82,-178.32 81.39,-180.74"/>
</g>
<!-- Node10 -->
<g id="node10" class="node">
<title>Node10</title>
<g id="a_node10"><a xlink:href="AbsCamera_8hpp.html" target="_top" xlink:title=" ">
<polygon fill="white" stroke="black" points="1013.45,-368.5 1013.45,-398.5 1132.45,-398.5 1132.45,-368.5 1013.45,-368.5"/>
<text text-anchor="start" x="1021.45" y="-386.5" font-family="Helvetica,sans-Serif" font-size="10.00">packages/camera/inc</text>
<text text-anchor="middle" x="1072.95" y="-375.5" font-family="Helvetica,sans-Serif" font-size="10.00">/AbsCamera.hpp</text>
</a>
</g>
</g>
<!-- Node1&#45;&gt;Node10 -->
<g id="edge10" class="edge">
<title>Node1&#45;&gt;Node10</title>
<path fill="none" stroke="midnightblue" d="M1170.62,-435.48C1154.53,-427.08 1129.42,-413.97 1108.69,-403.15"/>
<polygon fill="midnightblue" stroke="midnightblue" points="1110.3,-400.05 1099.82,-398.52 1107.06,-406.25 1110.3,-400.05"/>
</g>
<!-- Node13 -->
<g id="node13" class="node">
<title>Node13</title>
<g id="a_node13"><a xlink:title=" ">
<polygon fill="white" stroke="#bfbfbf" points="788.95,-145.5 788.95,-164.5 846.95,-164.5 846.95,-145.5 788.95,-145.5"/>
<text text-anchor="middle" x="817.95" y="-152.5" font-family="Helvetica,sans-Serif" font-size="10.00">memory</text>
</a>
</g>
</g>
<!-- Node1&#45;&gt;Node13 -->
<g id="edge75" class="edge">
<title>Node1&#45;&gt;Node13</title>
<path fill="none" stroke="midnightblue" d="M1153.3,-442.13C1048.57,-435.53 731.86,-409.39 672.95,-332 640.64,-289.56 640.76,-255.27 671.95,-212 701.53,-170.95 733.41,-195.85 779.95,-176 784.59,-174.02 789.43,-171.69 794.05,-169.33"/>
<polygon fill="midnightblue" stroke="midnightblue" points="795.86,-172.33 803.06,-164.56 792.59,-166.15 795.86,-172.33"/>
</g>
<!-- Node15 -->
<g id="node15" class="node">
<title>Node15</title>
<g id="a_node15"><a xlink:href="Shader_8hpp.html" target="_top" xlink:title=" ">
<polygon fill="white" stroke="black" points="329.45,-218 329.45,-248 450.45,-248 450.45,-218 329.45,-218"/>
<text text-anchor="start" x="337.45" y="-236" font-family="Helvetica,sans-Serif" font-size="10.00">packages/shaders/inc</text>
<text text-anchor="middle" x="389.95" y="-225" font-family="Helvetica,sans-Serif" font-size="10.00">/Shader.hpp</text>
</a>
</g>
</g>
<!-- Node1&#45;&gt;Node15 -->
<g id="edge20" class="edge">
<title>Node1&#45;&gt;Node15</title>
<path fill="none" stroke="midnightblue" d="M1153.26,-443.23C1042.33,-440.43 689.29,-429.3 579.95,-399 516.16,-381.32 495.14,-377.37 446.95,-332 424.56,-310.92 408.27,-279.06 398.97,-257.44"/>
<polygon fill="midnightblue" stroke="midnightblue" points="402.13,-255.93 395.08,-248.02 395.66,-258.6 402.13,-255.93"/>
</g>
<!-- Node21 -->
<g id="node21" class="node">
<title>Node21</title>
<g id="a_node21"><a xlink:href="BufferManager_8hpp.html" target="_top" xlink:title=" ">
<polygon fill="white" stroke="black" points="1477.95,-368.5 1477.95,-398.5 1589.95,-398.5 1589.95,-368.5 1477.95,-368.5"/>
<text text-anchor="start" x="1485.95" y="-386.5" font-family="Helvetica,sans-Serif" font-size="10.00">packages/buffer/inc</text>
<text text-anchor="middle" x="1533.95" y="-375.5" font-family="Helvetica,sans-Serif" font-size="10.00">/BufferManager.hpp</text>
</a>
</g>
</g>
<!-- Node1&#45;&gt;Node21 -->
<g id="edge31" class="edge">
<title>Node1&#45;&gt;Node21</title>
<path fill="none" stroke="midnightblue" d="M1220.54,-438.24C1277.47,-428.48 1393.93,-408.51 1467.74,-395.85"/>
<polygon fill="midnightblue" stroke="midnightblue" points="1468.6,-399.26 1477.87,-394.12 1467.42,-392.36 1468.6,-399.26"/>
</g>
<!-- Node30 -->
<g id="node30" class="node">
<title>Node30</title>
<g id="a_node30"><a xlink:title=" ">
<polygon fill="white" stroke="#bfbfbf" points="1953.95,-301.5 1953.95,-320.5 1985.95,-320.5 1985.95,-301.5 1953.95,-301.5"/>
<text text-anchor="middle" x="1969.95" y="-308.5" font-family="Helvetica,sans-Serif" font-size="10.00">list</text>
</a>
</g>
</g>
<!-- Node1&#45;&gt;Node30 -->
<g id="edge76" class="edge">
<title>Node1&#45;&gt;Node30</title>
<path fill="none" stroke="midnightblue" d="M1220.47,-442.61C1326.25,-437.44 1661.46,-415.13 1923.95,-332 1930.75,-329.84 1937.92,-327.02 1944.51,-324.17"/>
<polygon fill="midnightblue" stroke="midnightblue" points="1945.97,-327.36 1953.66,-320.07 1943.1,-320.97 1945.97,-327.36"/>
</g>
<!-- Node32 -->
<g id="node32" class="node">
<title>Node32</title>
<g id="a_node32"><a xlink:href="GLUniform_8hpp.html" target="_top" xlink:title=" ">
<polygon fill="white" stroke="black" points="681.45,-296 681.45,-326 792.45,-326 792.45,-296 681.45,-296"/>
<text text-anchor="start" x="689.45" y="-314" font-family="Helvetica,sans-Serif" font-size="10.00">packages/scene/inc</text>
<text text-anchor="middle" x="736.95" y="-303" font-family="Helvetica,sans-Serif" font-size="10.00">/GLUniform.hpp</text>
</a>
</g>
</g>
<!-- Node1&#45;&gt;Node32 -->
<g id="edge55" class="edge">
<title>Node1&#45;&gt;Node32</title>
<path fill="none" stroke="midnightblue" d="M1153.21,-436.42C1116.53,-428 1056.28,-413.66 1004.95,-399 928.12,-377.06 840.23,-347.7 786.67,-329.32"/>
<polygon fill="midnightblue" stroke="midnightblue" points="787.68,-325.97 777.08,-326.02 785.4,-332.59 787.68,-325.97"/>
</g>
<!-- Node34 -->
<g id="node34" class="node">
<title>Node34</title>
<g id="a_node34"><a xlink:href="Texture_8hpp.html" target="_top" xlink:title=" ">
<polygon fill="white" stroke="black" points="455.95,-296 455.95,-326 573.95,-326 573.95,-296 455.95,-296"/>
<text text-anchor="start" x="463.95" y="-314" font-family="Helvetica,sans-Serif" font-size="10.00">packages/texture/inc</text>
<text text-anchor="middle" x="514.95" y="-303" font-family="Helvetica,sans-Serif" font-size="10.00">/Texture.hpp</text>
</a>
</g>
</g>
<!-- Node1&#45;&gt;Node34 -->
<g id="edge63" class="edge">
<title>Node1&#45;&gt;Node34</title>
<path fill="none" stroke="midnightblue" d="M1153.12,-443.53C1048.95,-441.72 734.33,-433.48 638.95,-399 599.13,-384.6 560.34,-353.9 537.05,-333.1"/>
<polygon fill="midnightblue" stroke="midnightblue" points="539.22,-330.35 529.48,-326.2 534.51,-335.52 539.22,-330.35"/>
</g>
<!-- Node38 -->
<g id="node38" class="node">
<title>Node38</title>
<g id="a_node38"><a xlink:title=" ">
<polygon fill="white" stroke="#bfbfbf" points="2042.45,-368.5 2042.45,-398.5 2161.45,-398.5 2161.45,-368.5 2042.45,-368.5"/>
<text text-anchor="start" x="2050.45" y="-386.5" font-family="Helvetica,sans-Serif" font-size="10.00">packages/scene/impl</text>
<text text-anchor="middle" x="2101.95" y="-375.5" font-family="Helvetica,sans-Serif" font-size="10.00">/Scene_impl.hpp</text>
</a>
</g>
</g>
<!-- Node1&#45;&gt;Node38 -->
<g id="edge77" class="edge">
<title>Node1&#45;&gt;Node38</title>
<path fill="none" stroke="midnightblue" d="M1220.75,-443.89C1334.83,-443.14 1715.98,-437.72 2027.95,-399 2029.41,-398.82 2030.89,-398.63 2032.37,-398.42"/>
<polygon fill="midnightblue" stroke="midnightblue" points="2032.92,-401.88 2042.29,-396.93 2031.88,-394.96 2032.92,-401.88"/>
</g>
<!-- Node7 -->
<g id="node7" class="node">
<title>Node7</title>
<g id="a_node7"><a xlink:href="types_8hpp.html" target="_top" xlink:title=" ">
<polygon fill="white" stroke="black" points="198.95,-67.5 198.95,-97.5 308.95,-97.5 308.95,-67.5 198.95,-67.5"/>
<text text-anchor="start" x="206.95" y="-85.5" font-family="Helvetica,sans-Serif" font-size="10.00">packages/types/inc</text>
<text text-anchor="middle" x="253.95" y="-74.5" font-family="Helvetica,sans-Serif" font-size="10.00">/types.hpp</text>
</a>
</g>
</g>
<!-- Node6&#45;&gt;Node7 -->
<g id="edge6" class="edge">
<title>Node6&#45;&gt;Node7</title>
<path fill="none" stroke="midnightblue" d="M121.14,-139.9C147.04,-128.9 183.21,-113.54 211.26,-101.63"/>
<polygon fill="midnightblue" stroke="midnightblue" points="212.98,-104.7 220.81,-97.57 210.24,-98.26 212.98,-104.7"/>
</g>
<!-- Node7&#45;&gt;Node2 -->
<g id="edge7" class="edge">
<title>Node7&#45;&gt;Node2</title>
<path fill="none" stroke="midnightblue" d="M309.18,-69.09C313.82,-68.29 318.46,-67.58 322.95,-67 710.68,-17.29 1184.31,-15.36 1331.27,-16.1"/>
<polygon fill="midnightblue" stroke="midnightblue" points="1331.26,-19.6 1341.28,-16.16 1331.3,-12.6 1331.26,-19.6"/>
</g>
<!-- Node8 -->
<g id="node8" class="node">
<title>Node8</title>
<g id="a_node8"><a xlink:title=" ">
<polygon fill="white" stroke="#bfbfbf" points="148.95,-6 148.95,-25 192.95,-25 192.95,-6 148.95,-6"/>
<text text-anchor="middle" x="170.95" y="-13" font-family="Helvetica,sans-Serif" font-size="10.00">string</text>
</a>
</g>
</g>
<!-- Node7&#45;&gt;Node8 -->
<g id="edge8" class="edge">
<title>Node7&#45;&gt;Node8</title>
<path fill="none" stroke="midnightblue" d="M235.94,-67.4C222.36,-56.76 203.77,-42.2 189.95,-31.38"/>
<polygon fill="midnightblue" stroke="midnightblue" points="192.08,-28.6 182.05,-25.19 187.77,-34.12 192.08,-28.6"/>
</g>
<!-- Node9 -->
<g id="node9" class="node">
<title>Node9</title>
<g id="a_node9"><a xlink:title=" ">
<polygon fill="white" stroke="#bfbfbf" points="210.95,-0.5 210.95,-30.5 326.95,-30.5 326.95,-0.5 210.95,-0.5"/>
<text text-anchor="start" x="218.95" y="-18.5" font-family="Helvetica,sans-Serif" font-size="10.00">packages/traits/impl</text>
<text text-anchor="middle" x="268.95" y="-7.5" font-family="Helvetica,sans-Serif" font-size="10.00">/types_impl.hpp</text>
</a>
</g>
</g>
<!-- Node7&#45;&gt;Node9 -->
<g id="edge9" class="edge">
<title>Node7&#45;&gt;Node9</title>
<path fill="none" stroke="midnightblue" d="M257.2,-67.4C259.01,-59.56 261.31,-49.6 263.4,-40.57"/>
<polygon fill="midnightblue" stroke="midnightblue" points="266.86,-41.11 265.7,-30.58 260.04,-39.53 266.86,-41.11"/>
</g>
<!-- Node10&#45;&gt;Node3 -->
<g id="edge11" class="edge">
<title>Node10&#45;&gt;Node3</title>
<path fill="none" stroke="midnightblue" d="M1076.86,-368.44C1081.32,-350.08 1087.14,-317.08 1079.95,-290 1076.21,-275.94 1068.03,-261.72 1060.87,-251.13"/>
<polygon fill="midnightblue" stroke="midnightblue" points="1063.63,-248.98 1054.98,-242.86 1057.93,-253.03 1063.63,-248.98"/>
</g>
<!-- Node10&#45;&gt;Node4 -->
<g id="edge12" class="edge">
<title>Node10&#45;&gt;Node4</title>
<path fill="none" stroke="midnightblue" d="M1095.74,-368.4C1112.91,-357.79 1136.64,-343.11 1155.59,-331.39"/>
<polygon fill="midnightblue" stroke="midnightblue" points="1157.53,-334.31 1164.19,-326.07 1153.85,-328.36 1157.53,-334.31"/>
</g>
<!-- Node10&#45;&gt;Node5 -->
<g id="edge13" class="edge">
<title>Node10&#45;&gt;Node5</title>
<path fill="none" stroke="midnightblue" d="M1124.68,-368.47C1161.37,-358.47 1211.73,-344.6 1255.95,-332 1259.47,-331 1263.09,-329.96 1266.74,-328.9"/>
<polygon fill="midnightblue" stroke="midnightblue" points="1267.8,-332.24 1276.42,-326.09 1265.84,-325.52 1267.8,-332.24"/>
</g>
<!-- Node11 -->
<g id="node11" class="node">
<title>Node11</title>
<g id="a_node11"><a target="_parent" xlink:href="../../../cieutils/docs/html/typedefs_8hpp.html.html" xlink:title=" ">
<polygon fill="white" stroke="black" points="865.45,-140 865.45,-170 984.45,-170 984.45,-140 865.45,-140"/>
<text text-anchor="start" x="873.45" y="-158" font-family="Helvetica,sans-Serif" font-size="10.00">packages/macros/inc</text>
<text text-anchor="middle" x="924.95" y="-147" font-family="Helvetica,sans-Serif" font-size="10.00">/typedefs.hpp</text>
</a>
</g>
</g>
<!-- Node10&#45;&gt;Node11 -->
<g id="edge14" class="edge">
<title>Node10&#45;&gt;Node11</title>
<path fill="none" stroke="midnightblue" d="M1049.48,-368.32C1037.32,-359.54 1023.65,-347.07 1016.95,-332 1009.36,-314.94 1006.85,-305.7 1016.95,-290 1037.82,-257.55 1075.08,-286.45 1095.95,-254 1106.05,-238.3 1106.9,-227.11 1095.95,-212 1092.4,-207.1 1030.59,-187.65 982.3,-173.03"/>
<polygon fill="midnightblue" stroke="midnightblue" points="983.11,-169.62 972.53,-170.09 981.09,-176.32 983.11,-169.62"/>
</g>
<!-- Node12 -->
<g id="node12" class="node">
<title>Node12</title>
<g id="a_node12"><a xlink:href="RigidBody_8hpp.html" target="_top" xlink:title=" ">
<polygon fill="white" stroke="black" points="849.45,-296 849.45,-326 968.45,-326 968.45,-296 849.45,-296"/>
<text text-anchor="start" x="857.45" y="-314" font-family="Helvetica,sans-Serif" font-size="10.00">packages/camera/inc</text>
<text text-anchor="middle" x="908.95" y="-303" font-family="Helvetica,sans-Serif" font-size="10.00">/RigidBody.hpp</text>
</a>
</g>
</g>
<!-- Node10&#45;&gt;Node12 -->
<g id="edge15" class="edge">
<title>Node10&#45;&gt;Node12</title>
<path fill="none" stroke="midnightblue" d="M1040.16,-368.4C1014.57,-357.4 978.84,-342.04 951.12,-330.13"/>
<polygon fill="midnightblue" stroke="midnightblue" points="952.26,-326.81 941.69,-326.07 949.49,-333.24 952.26,-326.81"/>
</g>
<!-- Node10&#45;&gt;Node13 -->
<g id="edge19" class="edge">
<title>Node10&#45;&gt;Node13</title>
<path fill="none" stroke="midnightblue" d="M1013.35,-373.23C948.5,-362.58 852.45,-344.9 840.95,-332 823.12,-312 832.87,-238.51 828.95,-212 827.1,-199.49 824.36,-185.53 822.08,-174.68"/>
<polygon fill="midnightblue" stroke="midnightblue" points="825.45,-173.72 819.92,-164.69 818.61,-175.2 825.45,-173.72"/>
</g>
<!-- Node14 -->
<g id="node14" class="node">
<title>Node14</title>
<g id="a_node14"><a xlink:title=" ">
<polygon fill="white" stroke="#bfbfbf" points="1025.45,-301.5 1025.45,-320.5 1070.45,-320.5 1070.45,-301.5 1025.45,-301.5"/>
<text text-anchor="middle" x="1047.95" y="-308.5" font-family="Helvetica,sans-Serif" font-size="10.00">utility</text>
</a>
</g>
</g>
<!-- Node10&#45;&gt;Node14 -->
<g id="edge18" class="edge">
<title>Node10&#45;&gt;Node14</title>
<path fill="none" stroke="midnightblue" d="M1067.89,-368.23C1064.04,-357.39 1058.72,-342.38 1054.54,-330.6"/>
<polygon fill="midnightblue" stroke="midnightblue" points="1057.74,-329.15 1051.1,-320.89 1051.15,-331.49 1057.74,-329.15"/>
</g>
<!-- Node12&#45;&gt;Node3 -->
<g id="edge16" class="edge">
<title>Node12&#45;&gt;Node3</title>
<path fill="none" stroke="midnightblue" d="M934.77,-295.88C960.11,-282.03 998.48,-261.05 1023.38,-247.43"/>
<polygon fill="midnightblue" stroke="midnightblue" points="1025.11,-250.47 1032.21,-242.61 1021.76,-244.33 1025.11,-250.47"/>
</g>
<!-- Node12&#45;&gt;Node13 -->
<g id="edge17" class="edge">
<title>Node12&#45;&gt;Node13</title>
<path fill="none" stroke="midnightblue" d="M915.34,-295.89C923.41,-275.78 934.48,-238.38 918.95,-212 916.78,-208.32 872.68,-184.69 843.47,-169.32"/>
<polygon fill="midnightblue" stroke="midnightblue" points="845.07,-166.21 834.59,-164.66 841.82,-172.41 845.07,-166.21"/>
</g>
<!-- Node15&#45;&gt;Node2 -->
<g id="edge21" class="edge">
<title>Node15&#45;&gt;Node2</title>
<path fill="none" stroke="midnightblue" d="M390.1,-217.72C391.18,-195.95 396.66,-154.82 421.95,-134 563.03,-17.84 1160.54,-14.41 1331.24,-15.86"/>
<polygon fill="midnightblue" stroke="midnightblue" points="1331.36,-19.36 1341.39,-15.96 1331.42,-12.37 1331.36,-19.36"/>
</g>
<!-- Node15&#45;&gt;Node6 -->
<g id="edge22" class="edge">
<title>Node15&#45;&gt;Node6</title>
<path fill="none" stroke="midnightblue" d="M338.37,-217.98C330.54,-215.93 322.54,-213.88 314.95,-212 245.03,-194.72 226.68,-194.03 156.95,-176 152.94,-174.96 148.81,-173.86 144.66,-172.72"/>
<polygon fill="midnightblue" stroke="midnightblue" points="145.56,-169.34 134.99,-170.03 143.68,-176.08 145.56,-169.34"/>
</g>
<!-- Node15&#45;&gt;Node8 -->
<g id="edge27" class="edge">
<title>Node15&#45;&gt;Node8</title>
<path fill="none" stroke="midnightblue" d="M337.21,-218C278.79,-202.37 192.43,-178.89 189.95,-176 155.55,-135.83 161.69,-67.65 167.18,-35"/>
<polygon fill="midnightblue" stroke="midnightblue" points="170.65,-35.51 169.03,-25.04 163.77,-34.23 170.65,-35.51"/>
</g>
<!-- Node15&#45;&gt;Node11 -->
<g id="edge25" class="edge">
<title>Node15&#45;&gt;Node11</title>
<path fill="none" stroke="midnightblue" d="M434.46,-217.93C442.86,-215.66 451.62,-213.55 459.95,-212 633.68,-179.58 682.28,-208.75 855.95,-176 860.95,-175.06 866.12,-173.9 871.26,-172.64"/>
<polygon fill="midnightblue" stroke="midnightblue" points="872.29,-175.99 881.08,-170.08 870.52,-169.21 872.29,-175.99"/>
</g>
<!-- Node15&#45;&gt;Node13 -->
<g id="edge29" class="edge">
<title>Node15&#45;&gt;Node13</title>
<path fill="none" stroke="midnightblue" d="M434.87,-217.98C443.15,-215.73 451.77,-213.62 459.95,-212 600.35,-184.25 643.15,-218.06 779.95,-176 785.25,-174.37 790.67,-172 795.7,-169.46"/>
<polygon fill="midnightblue" stroke="midnightblue" points="797.67,-172.38 804.76,-164.51 794.31,-166.23 797.67,-172.38"/>
</g>
<!-- Node16 -->
<g id="node16" class="node">
<title>Node16</title>
<g id="a_node16"><a target="_parent" xlink:href="../../../cieutils/docs/html/NamedObject_8hpp.html.html" xlink:title=" ">
<polygon fill="white" stroke="black" points="198.95,-140 198.95,-170 308.95,-170 308.95,-140 198.95,-140"/>
<text text-anchor="start" x="206.95" y="-158" font-family="Helvetica,sans-Serif" font-size="10.00">packages/types/inc</text>
<text text-anchor="middle" x="253.95" y="-147" font-family="Helvetica,sans-Serif" font-size="10.00">/NamedObject.hpp</text>
</a>
</g>
</g>
<!-- Node15&#45;&gt;Node16 -->
<g id="edge23" class="edge">
<title>Node15&#45;&gt;Node16</title>
<path fill="none" stroke="midnightblue" d="M364.69,-217.88C343.12,-205.83 311.91,-188.39 288.12,-175.1"/>
<polygon fill="midnightblue" stroke="midnightblue" points="289.51,-171.86 279.08,-170.04 286.1,-177.97 289.51,-171.86"/>
</g>
<!-- Node17 -->
<g id="node17" class="node">
<title>Node17</title>
<g id="a_node17"><a target="_parent" xlink:href="../../../cieutils/docs/html/types_8hpp.html.html" xlink:title=" ">
<polygon fill="white" stroke="black" points="430.95,-140 430.95,-170 540.95,-170 540.95,-140 430.95,-140"/>
<text text-anchor="start" x="438.95" y="-158" font-family="Helvetica,sans-Serif" font-size="10.00">packages/types/inc</text>
<text text-anchor="middle" x="485.95" y="-147" font-family="Helvetica,sans-Serif" font-size="10.00">/types.hpp</text>
</a>
</g>
</g>
<!-- Node15&#45;&gt;Node17 -->
<g id="edge24" class="edge">
<title>Node15&#45;&gt;Node17</title>
<path fill="none" stroke="midnightblue" d="M408.01,-217.7C422.62,-206.13 443.4,-189.68 459.83,-176.67"/>
<polygon fill="midnightblue" stroke="midnightblue" points="462.31,-179.18 467.97,-170.23 457.96,-173.69 462.31,-179.18"/>
</g>
<!-- Node18 -->
<g id="node18" class="node">
<title>Node18</title>
<g id="a_node18"><a target="_parent" xlink:href="../../../cieutils/docs/html/DynamicArray_8hpp.html.html" xlink:title=" ">
<polygon fill="white" stroke="black" points="1002.45,-140 1002.45,-170 1133.45,-170 1133.45,-140 1002.45,-140"/>
<text text-anchor="start" x="1010.45" y="-158" font-family="Helvetica,sans-Serif" font-size="10.00">packages/stl_extension</text>
<text text-anchor="middle" x="1067.95" y="-147" font-family="Helvetica,sans-Serif" font-size="10.00">/inc/DynamicArray.hpp</text>
</a>
</g>
</g>
<!-- Node15&#45;&gt;Node18 -->
<g id="edge26" class="edge">
<title>Node15&#45;&gt;Node18</title>
<path fill="none" stroke="midnightblue" d="M433.68,-217.98C442.31,-215.64 451.36,-213.5 459.95,-212 694.28,-171.1 759.33,-215.22 993.95,-176 999.75,-175.03 1005.76,-173.8 1011.72,-172.43"/>
<polygon fill="midnightblue" stroke="midnightblue" points="1012.79,-175.77 1021.68,-170 1011.13,-168.97 1012.79,-175.77"/>
</g>
<!-- Node19 -->
<g id="node19" class="node">
<title>Node19</title>
<g id="a_node19"><a xlink:title=" ">
<polygon fill="white" stroke="#bfbfbf" points="326.95,-145.5 326.95,-164.5 374.95,-164.5 374.95,-145.5 326.95,-145.5"/>
<text text-anchor="middle" x="350.95" y="-152.5" font-family="Helvetica,sans-Serif" font-size="10.00">iosfwd</text>
</a>
</g>
</g>
<!-- Node15&#45;&gt;Node19 -->
<g id="edge28" class="edge">
<title>Node15&#45;&gt;Node19</title>
<path fill="none" stroke="midnightblue" d="M382.61,-217.7C376.21,-205.23 366.9,-187.09 360.03,-173.7"/>
<polygon fill="midnightblue" stroke="midnightblue" points="363.02,-171.86 355.34,-164.56 356.8,-175.06 363.02,-171.86"/>
</g>
<!-- Node20 -->
<g id="node20" class="node">
<title>Node20</title>
<g id="a_node20"><a xlink:title=" ">
<polygon fill="white" stroke="#bfbfbf" points="558.95,-145.5 558.95,-164.5 626.95,-164.5 626.95,-145.5 558.95,-145.5"/>
<text text-anchor="middle" x="592.95" y="-152.5" font-family="Helvetica,sans-Serif" font-size="10.00">filesystem</text>
</a>
</g>
</g>
<!-- Node15&#45;&gt;Node20 -->
<g id="edge30" class="edge">
<title>Node15&#45;&gt;Node20</title>
<path fill="none" stroke="midnightblue" d="M433.84,-217.94C466.24,-207.24 511.23,-191.73 549.95,-176 555.29,-173.83 560.92,-171.35 566.29,-168.9"/>
<polygon fill="midnightblue" stroke="midnightblue" points="567.97,-171.97 575.55,-164.57 565.01,-165.63 567.97,-171.97"/>
</g>
<!-- Node21&#45;&gt;Node4 -->
<g id="edge34" class="edge">
<title>Node21&#45;&gt;Node4</title>
<path fill="none" stroke="midnightblue" d="M1477.69,-374.02C1421.29,-365.1 1332.11,-349.91 1255.95,-332 1251.67,-330.99 1247.26,-329.88 1242.83,-328.72"/>
<polygon fill="midnightblue" stroke="midnightblue" points="1243.74,-325.34 1233.17,-326.1 1241.91,-332.1 1243.74,-325.34"/>
</g>
<!-- Node21&#45;&gt;Node5 -->
<g id="edge35" class="edge">
<title>Node21&#45;&gt;Node5</title>
<path fill="none" stroke="midnightblue" d="M1492.21,-368.49C1458.75,-357.26 1411.63,-341.44 1375.77,-329.4"/>
<polygon fill="midnightblue" stroke="midnightblue" points="1376.56,-325.97 1365.97,-326.11 1374.34,-332.61 1376.56,-325.97"/>
</g>
<!-- Node21&#45;&gt;Node11 -->
<g id="edge36" class="edge">
<title>Node21&#45;&gt;Node11</title>
<path fill="none" stroke="midnightblue" d="M1515.87,-368.35C1483.55,-343.11 1418.69,-292.67 1412.95,-290 1346.08,-258.87 1322.28,-272.75 1250.95,-254 1188.94,-237.7 1174.34,-230.48 1112.95,-212 1069.09,-198.8 1019.43,-184.01 982.17,-172.95"/>
<polygon fill="midnightblue" stroke="midnightblue" points="983.07,-169.57 972.49,-170.08 981.08,-176.28 983.07,-169.57"/>
</g>
<!-- Node22 -->
<g id="node22" class="node">
<title>Node22</title>
<g id="a_node22"><a target="_parent" xlink:href="../../../cieutils/docs/html/container__concepts_8hpp.html.html" xlink:title=" ">
<polygon fill="white" stroke="black" points="1793.45,-212.5 1793.45,-253.5 1928.45,-253.5 1928.45,-212.5 1793.45,-212.5"/>
<text text-anchor="start" x="1801.45" y="-241.5" font-family="Helvetica,sans-Serif" font-size="10.00">packages/compile_time</text>
<text text-anchor="start" x="1801.45" y="-230.5" font-family="Helvetica,sans-Serif" font-size="10.00">/packages/concepts/inc</text>
<text text-anchor="middle" x="1860.95" y="-219.5" font-family="Helvetica,sans-Serif" font-size="10.00">/container_concepts.hpp</text>
</a>
</g>
</g>
<!-- Node21&#45;&gt;Node22 -->
<g id="edge32" class="edge">
<title>Node21&#45;&gt;Node22</title>
<path fill="none" stroke="midnightblue" d="M1590.3,-378.9C1689.41,-372 1886.45,-355.47 1906.95,-332 1924.93,-311.42 1907.64,-282.6 1889.35,-261.54"/>
<polygon fill="midnightblue" stroke="midnightblue" points="1891.69,-258.91 1882.36,-253.88 1886.52,-263.63 1891.69,-258.91"/>
</g>
<!-- Node23 -->
<g id="node23" class="node">
<title>Node23</title>
<g id="a_node23"><a target="_parent" xlink:href="../../../cieutils/docs/html/logical_8hpp.html.html" xlink:title=" ">
<polygon fill="white" stroke="black" points="1607.95,-290.5 1607.95,-331.5 1739.95,-331.5 1739.95,-290.5 1607.95,-290.5"/>
<text text-anchor="start" x="1615.95" y="-319.5" font-family="Helvetica,sans-Serif" font-size="10.00">packages/compile_time</text>
<text text-anchor="start" x="1615.95" y="-308.5" font-family="Helvetica,sans-Serif" font-size="10.00">/packages/concepts/inc</text>
<text text-anchor="middle" x="1673.95" y="-297.5" font-family="Helvetica,sans-Serif" font-size="10.00">/logical.hpp</text>
</a>
</g>
</g>
<!-- Node21&#45;&gt;Node23 -->
<g id="edge33" class="edge">
<title>Node21&#45;&gt;Node23</title>
<path fill="none" stroke="midnightblue" d="M1561.94,-368.4C1580.31,-359.16 1604.79,-346.83 1626.18,-336.05"/>
<polygon fill="midnightblue" stroke="midnightblue" points="1627.78,-339.17 1635.13,-331.55 1624.63,-332.92 1627.78,-339.17"/>
</g>
<!-- Node24 -->
<g id="node24" class="node">
<title>Node24</title>
<g id="a_node24"><a xlink:href="Buffer_8hpp.html" target="_top" xlink:title=" ">
<polygon fill="white" stroke="black" points="1478.45,-296 1478.45,-326 1589.45,-326 1589.45,-296 1478.45,-296"/>
<text text-anchor="start" x="1486.45" y="-314" font-family="Helvetica,sans-Serif" font-size="10.00">packages/buffer/inc</text>
<text text-anchor="middle" x="1533.95" y="-303" font-family="Helvetica,sans-Serif" font-size="10.00">/Buffer.hpp</text>
</a>
</g>
</g>
<!-- Node21&#45;&gt;Node24 -->
<g id="edge37" class="edge">
<title>Node21&#45;&gt;Node24</title>
<path fill="none" stroke="midnightblue" d="M1533.95,-368.23C1533.95,-359.16 1533.95,-347.16 1533.95,-336.58"/>
<polygon fill="midnightblue" stroke="midnightblue" points="1537.45,-336.25 1533.95,-326.25 1530.45,-336.25 1537.45,-336.25"/>
</g>
<!-- Node21&#45;&gt;Node30 -->
<g id="edge53" class="edge">
<title>Node21&#45;&gt;Node30</title>
<path fill="none" stroke="midnightblue" d="M1590.27,-378.71C1686.23,-371.72 1877.12,-355.36 1939.95,-332 1943.86,-330.54 1947.78,-328.49 1951.42,-326.25"/>
<polygon fill="midnightblue" stroke="midnightblue" points="1953.51,-329.06 1959.78,-320.52 1949.55,-323.28 1953.51,-329.06"/>
</g>
<!-- Node31 -->
<g id="node31" class="node">
<title>Node31</title>
<g id="a_node31"><a xlink:title=" ">
<polygon fill="white" stroke="#bfbfbf" points="1757.95,-296 1757.95,-326 1897.95,-326 1897.95,-296 1757.95,-296"/>
<text text-anchor="start" x="1765.95" y="-314" font-family="Helvetica,sans-Serif" font-size="10.00">packages/buffer/impl</text>
<text text-anchor="middle" x="1827.95" y="-303" font-family="Helvetica,sans-Serif" font-size="10.00">/BufferManager_impl.hpp</text>
</a>
</g>
</g>
<!-- Node21&#45;&gt;Node31 -->
<g id="edge54" class="edge">
<title>Node21&#45;&gt;Node31</title>
<path fill="none" stroke="midnightblue" d="M1590.15,-369.58C1633.56,-359.53 1695.12,-345.13 1748.95,-332 1753.6,-330.86 1758.4,-329.68 1763.24,-328.48"/>
<polygon fill="midnightblue" stroke="midnightblue" points="1764.3,-331.82 1773.16,-326 1762.61,-325.03 1764.3,-331.82"/>
</g>
<!-- Node24&#45;&gt;Node2 -->
<g id="edge38" class="edge">
<title>Node24&#45;&gt;Node2</title>
<path fill="none" stroke="midnightblue" d="M1578.83,-295.99C1620.38,-282.57 1676.68,-263.06 1682.95,-254 1730.26,-185.67 1736.72,-130.37 1682.95,-67 1650.14,-28.33 1499.9,-19.22 1422.84,-17.11"/>
<polygon fill="midnightblue" stroke="midnightblue" points="1422.55,-13.61 1412.47,-16.86 1422.38,-20.6 1422.55,-13.61"/>
</g>
<!-- Node24&#45;&gt;Node6 -->
<g id="edge39" class="edge">
<title>Node24&#45;&gt;Node6</title>
<path fill="none" stroke="midnightblue" d="M1478.19,-300.68C1452.33,-296.73 1421.15,-292.47 1392.95,-290 1274.11,-279.61 429.09,-302.15 319.95,-254 296.08,-243.47 301.31,-225.44 278.95,-212 277.46,-211.1 202,-189.1 146.39,-172.95"/>
<polygon fill="midnightblue" stroke="midnightblue" points="147.19,-169.53 136.61,-170.11 145.24,-176.26 147.19,-169.53"/>
</g>
<!-- Node24&#45;&gt;Node11 -->
<g id="edge41" class="edge">
<title>Node24&#45;&gt;Node11</title>
<path fill="none" stroke="midnightblue" d="M1486.63,-295.96C1479.07,-293.87 1471.31,-291.81 1463.95,-290 1386.83,-271.08 1357.89,-293.39 1288.95,-254 1267.09,-241.51 1273.19,-223.79 1250.95,-212 1149.03,-158 1106.74,-200.12 993.95,-176 989.31,-175.01 984.54,-173.87 979.76,-172.65"/>
<polygon fill="midnightblue" stroke="midnightblue" points="980.56,-169.24 970,-170.06 978.76,-176.01 980.56,-169.24"/>
</g>
<!-- Node24&#45;&gt;Node18 -->
<g id="edge42" class="edge">
<title>Node24&#45;&gt;Node18</title>
<path fill="none" stroke="midnightblue" d="M1485.01,-295.94C1477.95,-293.93 1470.77,-291.9 1463.95,-290 1405.38,-273.65 1384.72,-284.21 1331.95,-254 1308.76,-240.73 1312.29,-224.99 1288.95,-212 1230.55,-179.51 1207.68,-192.61 1142.95,-176 1138.65,-174.9 1134.21,-173.75 1129.74,-172.58"/>
<polygon fill="midnightblue" stroke="midnightblue" points="1130.52,-169.16 1119.96,-170.01 1128.74,-175.93 1130.52,-169.16"/>
</g>
<!-- Node24&#45;&gt;Node22 -->
<g id="edge40" class="edge">
<title>Node24&#45;&gt;Node22</title>
<path fill="none" stroke="midnightblue" d="M1577.85,-295.92C1584.88,-293.83 1592.09,-291.78 1598.95,-290 1660.48,-273.99 1731,-259.11 1783.36,-248.72"/>
<polygon fill="midnightblue" stroke="midnightblue" points="1784.12,-252.14 1793.26,-246.77 1782.77,-245.27 1784.12,-252.14"/>
</g>
<!-- Node25 -->
<g id="node25" class="node">
<title>Node25</title>
<g id="a_node25"><a xlink:href="AttributeContainer_8hpp.html" target="_top" xlink:title=" ">
<polygon fill="white" stroke="black" points="1340.95,-218 1340.95,-248 1470.95,-248 1470.95,-218 1340.95,-218"/>
<text text-anchor="start" x="1348.95" y="-236" font-family="Helvetica,sans-Serif" font-size="10.00">packages/buffer/inc</text>
<text text-anchor="middle" x="1405.95" y="-225" font-family="Helvetica,sans-Serif" font-size="10.00">/AttributeContainer.hpp</text>
</a>
</g>
</g>
<!-- Node24&#45;&gt;Node25 -->
<g id="edge43" class="edge">
<title>Node24&#45;&gt;Node25</title>
<path fill="none" stroke="midnightblue" d="M1510.17,-295.88C1489.97,-283.89 1460.76,-266.55 1438.41,-253.27"/>
<polygon fill="midnightblue" stroke="midnightblue" points="1439.98,-250.14 1429.6,-248.04 1436.41,-256.16 1439.98,-250.14"/>
</g>
<!-- Node25&#45;&gt;Node2 -->
<g id="edge44" class="edge">
<title>Node25&#45;&gt;Node2</title>
<path fill="none" stroke="midnightblue" d="M1403.17,-217.77C1401.02,-206.47 1398.07,-190.26 1395.95,-176 1388.42,-125.35 1381.91,-65.3 1378.84,-35.39"/>
<polygon fill="midnightblue" stroke="midnightblue" points="1382.29,-34.76 1377.8,-25.17 1375.33,-35.47 1382.29,-34.76"/>
</g>
<!-- Node25&#45;&gt;Node11 -->
<g id="edge45" class="edge">
<title>Node25&#45;&gt;Node11</title>
<path fill="none" stroke="midnightblue" d="M1340.75,-220.29C1323.9,-217.42 1305.77,-214.46 1288.95,-212 1158.26,-192.87 1123.35,-202.47 993.95,-176 989.23,-175.04 984.37,-173.91 979.51,-172.69"/>
<polygon fill="midnightblue" stroke="midnightblue" points="980.16,-169.24 969.6,-170.07 978.38,-176.01 980.16,-169.24"/>
</g>
<!-- Node25&#45;&gt;Node13 -->
<g id="edge50" class="edge">
<title>Node25&#45;&gt;Node13</title>
<path fill="none" stroke="midnightblue" d="M1340.62,-228.38C1215.39,-220.93 946.06,-202.37 856.95,-176 851.39,-174.35 845.68,-171.91 840.4,-169.3"/>
<polygon fill="midnightblue" stroke="midnightblue" points="841.97,-166.17 831.5,-164.54 838.67,-172.34 841.97,-166.17"/>
</g>
<!-- Node25&#45;&gt;Node18 -->
<g id="edge48" class="edge">
<title>Node25&#45;&gt;Node18</title>
<path fill="none" stroke="midnightblue" d="M1352.07,-217.94C1343.68,-215.87 1335.09,-213.83 1326.95,-212 1245.64,-193.77 1224.14,-194.75 1142.95,-176 1138.27,-174.92 1133.44,-173.75 1128.6,-172.54"/>
<polygon fill="midnightblue" stroke="midnightblue" points="1129.22,-169.09 1118.67,-170.02 1127.5,-175.88 1129.22,-169.09"/>
</g>
<!-- Node26 -->
<g id="node26" class="node">
<title>Node26</title>
<g id="a_node26"><a target="_parent" xlink:href="../../../cieutils/docs/html/basic__concepts_8hpp.html.html" xlink:title=" ">
<polygon fill="white" stroke="black" points="1216.95,-134.5 1216.95,-175.5 1348.95,-175.5 1348.95,-134.5 1216.95,-134.5"/>
<text text-anchor="start" x="1224.95" y="-163.5" font-family="Helvetica,sans-Serif" font-size="10.00">packages/compile_time</text>
<text text-anchor="start" x="1224.95" y="-152.5" font-family="Helvetica,sans-Serif" font-size="10.00">/packages/concepts/inc</text>
<text text-anchor="middle" x="1282.95" y="-141.5" font-family="Helvetica,sans-Serif" font-size="10.00">/basic_concepts.hpp</text>
</a>
</g>
</g>
<!-- Node25&#45;&gt;Node26 -->
<g id="edge46" class="edge">
<title>Node25&#45;&gt;Node26</title>
<path fill="none" stroke="midnightblue" d="M1383.1,-217.88C1366.4,-207.56 1343.3,-193.29 1323.49,-181.05"/>
<polygon fill="midnightblue" stroke="midnightblue" points="1325.29,-178.05 1314.95,-175.77 1321.61,-184.01 1325.29,-178.05"/>
</g>
<!-- Node27 -->
<g id="node27" class="node">
<title>Node27</title>
<g id="a_node27"><a xlink:title=" ">
<polygon fill="white" stroke="#bfbfbf" points="1151.45,-145.5 1151.45,-164.5 1198.45,-164.5 1198.45,-145.5 1151.45,-145.5"/>
<text text-anchor="middle" x="1174.95" y="-152.5" font-family="Helvetica,sans-Serif" font-size="10.00">vector</text>
</a>
</g>
</g>
<!-- Node25&#45;&gt;Node27 -->
<g id="edge49" class="edge">
<title>Node25&#45;&gt;Node27</title>
<path fill="none" stroke="midnightblue" d="M1349.66,-217.88C1300.57,-205.24 1233.34,-187.04 1207.95,-176 1203.94,-174.26 1199.83,-172.1 1195.93,-169.86"/>
<polygon fill="midnightblue" stroke="midnightblue" points="1197.73,-166.85 1187.37,-164.62 1194.07,-172.83 1197.73,-166.85"/>
</g>
<!-- Node28 -->
<g id="node28" class="node">
<title>Node28</title>
<g id="a_node28"><a xlink:title=" ">
<polygon fill="white" stroke="#bfbfbf" points="1404.95,-145.5 1404.95,-164.5 1464.95,-164.5 1464.95,-145.5 1404.95,-145.5"/>
<text text-anchor="middle" x="1434.95" y="-152.5" font-family="Helvetica,sans-Serif" font-size="10.00">concepts</text>
</a>
</g>
</g>
<!-- Node25&#45;&gt;Node28 -->
<g id="edge51" class="edge">
<title>Node25&#45;&gt;Node28</title>
<path fill="none" stroke="midnightblue" d="M1411.4,-217.7C1416.12,-205.35 1422.95,-187.44 1428.04,-174.1"/>
<polygon fill="midnightblue" stroke="midnightblue" points="1431.39,-175.15 1431.68,-164.56 1424.85,-172.66 1431.39,-175.15"/>
</g>
<!-- Node29 -->
<g id="node29" class="node">
<title>Node29</title>
<g id="a_node29"><a xlink:title=" ">
<polygon fill="white" stroke="#bfbfbf" points="1482.95,-140 1482.95,-170 1640.95,-170 1640.95,-140 1482.95,-140"/>
<text text-anchor="start" x="1490.95" y="-158" font-family="Helvetica,sans-Serif" font-size="10.00">packages/buffer/impl</text>
<text text-anchor="middle" x="1561.95" y="-147" font-family="Helvetica,sans-Serif" font-size="10.00">/AttributeContainer_impl.hpp</text>
</a>
</g>
</g>
<!-- Node25&#45;&gt;Node29 -->
<g id="edge52" class="edge">
<title>Node25&#45;&gt;Node29</title>
<path fill="none" stroke="midnightblue" d="M1434.93,-217.88C1459.99,-205.67 1496.41,-187.93 1523.84,-174.57"/>
<polygon fill="midnightblue" stroke="midnightblue" points="1525.67,-177.57 1533.13,-170.04 1522.6,-171.27 1525.67,-177.57"/>
</g>
<!-- Node26&#45;&gt;Node7 -->
<g id="edge47" class="edge">
<title>Node26&#45;&gt;Node7</title>
<path fill="none" stroke="midnightblue" d="M1216.86,-135.58C1213.86,-134.99 1210.88,-134.46 1207.95,-134 1036.11,-106.84 505.27,-90.28 319.2,-85.19"/>
<polygon fill="midnightblue" stroke="midnightblue" points="319.11,-81.68 309.02,-84.91 318.92,-88.68 319.11,-81.68"/>
</g>
<!-- Node32&#45;&gt;Node2 -->
<g id="edge56" class="edge">
<title>Node32&#45;&gt;Node2</title>
<path fill="none" stroke="midnightblue" d="M792.59,-297.88C808.17,-294.87 825.17,-291.95 840.95,-290 1021.13,-267.7 1551.93,-328.82 1649.95,-176 1708.44,-84.81 1514.5,-39.43 1422.58,-23.42"/>
<polygon fill="midnightblue" stroke="midnightblue" points="1423.13,-19.96 1412.69,-21.74 1421.96,-26.87 1423.13,-19.96"/>
</g>
<!-- Node32&#45;&gt;Node3 -->
<g id="edge57" class="edge">
<title>Node32&#45;&gt;Node3</title>
<path fill="none" stroke="midnightblue" d="M792.55,-296.41C852.75,-281.7 947.59,-258.53 1003.18,-244.94"/>
<polygon fill="midnightblue" stroke="midnightblue" points="1004.21,-248.29 1013.09,-242.52 1002.54,-241.49 1004.21,-248.29"/>
</g>
<!-- Node32&#45;&gt;Node6 -->
<g id="edge59" class="edge">
<title>Node32&#45;&gt;Node6</title>
<path fill="none" stroke="midnightblue" d="M681.36,-302.67C652.09,-298.84 615.58,-294.1 582.95,-290 451.46,-273.47 406.76,-310.64 286.95,-254 262.51,-242.45 265.93,-226.23 242.95,-212 225.75,-201.35 180.28,-185.39 143.01,-173.23"/>
<polygon fill="midnightblue" stroke="midnightblue" points="143.83,-169.81 133.24,-170.06 141.68,-176.47 143.83,-169.81"/>
</g>
<!-- Node32&#45;&gt;Node11 -->
<g id="edge58" class="edge">
<title>Node32&#45;&gt;Node11</title>
<path fill="none" stroke="midnightblue" d="M763.87,-295.95C782.86,-285.5 808.45,-270.28 828.95,-254 858.42,-230.59 888.09,-198.74 906.48,-177.79"/>
<polygon fill="midnightblue" stroke="midnightblue" points="909.27,-179.91 913.18,-170.07 903.98,-175.33 909.27,-179.91"/>
</g>
<!-- Node32&#45;&gt;Node13 -->
<g id="edge61" class="edge">
<title>Node32&#45;&gt;Node13</title>
<path fill="none" stroke="midnightblue" d="M765.37,-295.91C781.34,-286.39 800.01,-272.23 809.95,-254 823.53,-229.08 822.84,-195.21 820.7,-174.51"/>
<polygon fill="midnightblue" stroke="midnightblue" points="824.16,-173.99 819.43,-164.51 817.21,-174.87 824.16,-173.99"/>
</g>
<!-- Node32&#45;&gt;Node15 -->
<g id="edge60" class="edge">
<title>Node32&#45;&gt;Node15</title>
<path fill="none" stroke="midnightblue" d="M681.22,-300.07C625.08,-289.75 536.1,-272.55 459.95,-254 455.8,-252.99 451.54,-251.9 447.25,-250.77"/>
<polygon fill="midnightblue" stroke="midnightblue" points="447.83,-247.3 437.26,-248.06 446,-254.05 447.83,-247.3"/>
</g>
<!-- Node33 -->
<g id="node33" class="node">
<title>Node33</title>
<g id="a_node33"><a xlink:title=" ">
<polygon fill="white" stroke="#bfbfbf" points="680.95,-218 680.95,-248 800.95,-248 800.95,-218 680.95,-218"/>
<text text-anchor="start" x="688.95" y="-236" font-family="Helvetica,sans-Serif" font-size="10.00">packages/scene/impl</text>
<text text-anchor="middle" x="740.95" y="-225" font-family="Helvetica,sans-Serif" font-size="10.00">/GLUniform_impl.hpp</text>
</a>
</g>
</g>
<!-- Node32&#45;&gt;Node33 -->
<g id="edge62" class="edge">
<title>Node32&#45;&gt;Node33</title>
<path fill="none" stroke="midnightblue" d="M737.7,-295.7C738.25,-285.2 739.02,-270.66 739.67,-258.33"/>
<polygon fill="midnightblue" stroke="midnightblue" points="743.17,-258.4 740.2,-248.23 736.18,-258.03 743.17,-258.4"/>
</g>
<!-- Node34&#45;&gt;Node2 -->
<g id="edge64" class="edge">
<title>Node34&#45;&gt;Node2</title>
<path fill="none" stroke="midnightblue" d="M455.91,-308.61C300.31,-303.01 -100.73,-274.88 23.95,-134 67.57,-84.71 252.9,-108.05 317.95,-98 392.12,-86.54 409.44,-76.03 483.95,-67 806.64,-27.91 1198.69,-18.98 1330.91,-17.03"/>
<polygon fill="midnightblue" stroke="midnightblue" points="1331.12,-20.52 1341.07,-16.88 1331.02,-13.52 1331.12,-20.52"/>
</g>
<!-- Node34&#45;&gt;Node6 -->
<g id="edge65" class="edge">
<title>Node34&#45;&gt;Node6</title>
<path fill="none" stroke="midnightblue" d="M455.69,-310.55C353.04,-310.16 148.42,-303.07 99.95,-254 81.11,-234.93 80.81,-202.58 83.43,-180.3"/>
<polygon fill="midnightblue" stroke="midnightblue" points="86.91,-180.67 84.88,-170.27 79.98,-179.66 86.91,-180.67"/>
</g>
<!-- Node34&#45;&gt;Node13 -->
<g id="edge73" class="edge">
<title>Node34&#45;&gt;Node13</title>
<path fill="none" stroke="midnightblue" d="M537.33,-295.99C554.02,-285.2 577.08,-269.55 595.95,-254 616.57,-237.01 615.66,-225.08 638.95,-212 695.34,-180.32 719.58,-199.22 779.95,-176 784.74,-174.16 789.71,-171.86 794.4,-169.48"/>
<polygon fill="midnightblue" stroke="midnightblue" points="796.35,-172.41 803.53,-164.62 793.06,-166.23 796.35,-172.41"/>
</g>
<!-- Node34&#45;&gt;Node15 -->
<g id="edge66" class="edge">
<title>Node34&#45;&gt;Node15</title>
<path fill="none" stroke="midnightblue" d="M491.73,-295.88C472,-283.89 443.48,-266.55 421.65,-253.27"/>
<polygon fill="midnightblue" stroke="midnightblue" points="423.41,-250.25 413.04,-248.04 419.77,-256.23 423.41,-250.25"/>
</g>
<!-- Node34&#45;&gt;Node27 -->
<g id="edge72" class="edge">
<title>Node34&#45;&gt;Node27</title>
<path fill="none" stroke="midnightblue" d="M574.15,-299.53C633.81,-288.79 728.48,-271.27 809.95,-254 828.54,-250.06 1125.41,-183.3 1142.95,-176 1146.85,-174.38 1150.82,-172.3 1154.57,-170.1"/>
<polygon fill="midnightblue" stroke="midnightblue" points="1156.72,-172.89 1163.3,-164.58 1152.98,-166.97 1156.72,-172.89"/>
</g>
<!-- Node35 -->
<g id="node35" class="node">
<title>Node35</title>
<g id="a_node35"><a xlink:href="Image_8hpp.html" target="_top" xlink:title=" ">
<polygon fill="white" stroke="black" points="468.95,-218 468.95,-248 586.95,-248 586.95,-218 468.95,-218"/>
<text text-anchor="start" x="476.95" y="-236" font-family="Helvetica,sans-Serif" font-size="10.00">packages/texture/inc</text>
<text text-anchor="middle" x="527.95" y="-225" font-family="Helvetica,sans-Serif" font-size="10.00">/Image.hpp</text>
</a>
</g>
</g>
<!-- Node34&#45;&gt;Node35 -->
<g id="edge67" class="edge">
<title>Node34&#45;&gt;Node35</title>
<path fill="none" stroke="midnightblue" d="M517.39,-295.7C519.19,-285.2 521.68,-270.66 523.79,-258.33"/>
<polygon fill="midnightblue" stroke="midnightblue" points="527.28,-258.68 525.51,-248.23 520.38,-257.5 527.28,-258.68"/>
</g>
<!-- Node37 -->
<g id="node37" class="node">
<title>Node37</title>
<g id="a_node37"><a xlink:title=" ">
<polygon fill="white" stroke="#bfbfbf" points="109.45,-218 109.45,-248 234.45,-248 234.45,-218 109.45,-218"/>
<text text-anchor="start" x="117.45" y="-236" font-family="Helvetica,sans-Serif" font-size="10.00">packages/texture/impl</text>
<text text-anchor="middle" x="171.95" y="-225" font-family="Helvetica,sans-Serif" font-size="10.00">/Texture_impl.hpp</text>
</a>
</g>
</g>
<!-- Node34&#45;&gt;Node37 -->
<g id="edge74" class="edge">
<title>Node34&#45;&gt;Node37</title>
<path fill="none" stroke="midnightblue" d="M455.87,-298.38C401.85,-287.57 319.81,-270.65 248.95,-254 244.32,-252.91 239.54,-251.75 234.74,-250.57"/>
<polygon fill="midnightblue" stroke="midnightblue" points="235.44,-247.13 224.89,-248.1 233.74,-253.92 235.44,-247.13"/>
</g>
<!-- Node35&#45;&gt;Node13 -->
<g id="edge70" class="edge">
<title>Node35&#45;&gt;Node13</title>
<path fill="none" stroke="midnightblue" d="M577.31,-217.98C585.19,-215.89 593.28,-213.82 600.95,-212 679.91,-193.27 703.49,-203.17 779.95,-176 785,-174.2 790.21,-171.84 795.1,-169.37"/>
<polygon fill="midnightblue" stroke="midnightblue" points="796.81,-172.42 803.95,-164.6 793.49,-166.26 796.81,-172.42"/>
</g>
<!-- Node35&#45;&gt;Node17 -->
<g id="edge68" class="edge">
<title>Node35&#45;&gt;Node17</title>
<path fill="none" stroke="midnightblue" d="M520.05,-217.7C514.07,-206.88 505.72,-191.77 498.78,-179.22"/>
<polygon fill="midnightblue" stroke="midnightblue" points="501.71,-177.29 493.81,-170.23 495.59,-180.68 501.71,-177.29"/>
</g>
<!-- Node35&#45;&gt;Node20 -->
<g id="edge69" class="edge">
<title>Node35&#45;&gt;Node20</title>
<path fill="none" stroke="midnightblue" d="M540.18,-217.7C551.16,-204.87 567.28,-186.02 578.81,-172.53"/>
<polygon fill="midnightblue" stroke="midnightblue" points="581.79,-174.44 585.62,-164.56 576.47,-169.89 581.79,-174.44"/>
</g>
<!-- Node36 -->
<g id="node36" class="node">
<title>Node36</title>
<g id="a_node36"><a xlink:title=" ">
<polygon fill="white" stroke="#bfbfbf" points="645.45,-140 645.45,-170 770.45,-170 770.45,-140 645.45,-140"/>
<text text-anchor="start" x="653.45" y="-158" font-family="Helvetica,sans-Serif" font-size="10.00">packages/texture/impl</text>
<text text-anchor="middle" x="707.95" y="-147" font-family="Helvetica,sans-Serif" font-size="10.00">/Image_impl.hpp</text>
</a>
</g>
</g>
<!-- Node35&#45;&gt;Node36 -->
<g id="edge71" class="edge">
<title>Node35&#45;&gt;Node36</title>
<path fill="none" stroke="midnightblue" d="M561.38,-217.88C590.68,-205.51 633.43,-187.46 665.21,-174.04"/>
<polygon fill="midnightblue" stroke="midnightblue" points="666.84,-177.16 674.69,-170.04 664.12,-170.71 666.84,-177.16"/>
</g>
</g>
</svg>
