<?xml version="1.0" encoding="UTF-8" standalone="no"?>
<!DOCTYPE svg PUBLIC "-//W3C//DTD SVG 1.1//EN"
 "http://www.w3.org/Graphics/SVG/1.1/DTD/svg11.dtd">
<!-- Generated by graphviz version 2.43.0 (0)
 -->
<!-- Title: Shader.hpp Pages: 1 -->
<svg width="1020pt" height="229pt"
 viewBox="0.00 0.00 1019.50 229.00" xmlns="http://www.w3.org/2000/svg" xmlns:xlink="http://www.w3.org/1999/xlink">
<g id="graph0" class="graph" transform="scale(1 1) rotate(0) translate(4 225)">
<title>Shader.hpp</title>
<polygon fill="white" stroke="transparent" points="-4,4 -4,-225 1015.5,-225 1015.5,4 -4,4"/>
<!-- Node1 -->
<g id="node1" class="node">
<title>Node1</title>
<g id="a_node1"><a xlink:title=" ">
<polygon fill="#bfbfbf" stroke="black" points="472,-201.5 472,-220.5 543,-220.5 543,-201.5 472,-201.5"/>
<text text-anchor="middle" x="507.5" y="-208.5" font-family="Helvetica,sans-Serif" font-size="10.00">Shader.hpp</text>
</a>
</g>
</g>
<!-- Node2 -->
<g id="node2" class="node">
<title>Node2</title>
<g id="a_node2"><a xlink:title=" ">
<polygon fill="white" stroke="#bfbfbf" points="0,-6 0,-25 71,-25 71,-6 0,-6"/>
<text text-anchor="middle" x="35.5" y="-13" font-family="Helvetica,sans-Serif" font-size="10.00">glad/glad.h</text>
</a>
</g>
</g>
<!-- Node1&#45;&gt;Node2 -->
<g id="edge1" class="edge">
<title>Node1&#45;&gt;Node2</title>
<path fill="none" stroke="midnightblue" d="M471.87,-208.42C375.24,-203.84 113.42,-189.29 83.5,-165 43.97,-132.91 36.61,-67.91 35.49,-35.61"/>
<polygon fill="midnightblue" stroke="midnightblue" points="38.99,-35.25 35.31,-25.31 31.99,-35.37 38.99,-35.25"/>
</g>
<!-- Node3 -->
<g id="node3" class="node">
<title>Node3</title>
<g id="a_node3"><a target="_parent" xlink:href="../../../cieutils/docs/html/IDObject_8hpp.html.html" xlink:title=" ">
<polygon fill="white" stroke="black" points="92.5,-134.5 92.5,-164.5 202.5,-164.5 202.5,-134.5 92.5,-134.5"/>
<text text-anchor="start" x="100.5" y="-152.5" font-family="Helvetica,sans-Serif" font-size="10.00">packages/types/inc</text>
<text text-anchor="middle" x="147.5" y="-141.5" font-family="Helvetica,sans-Serif" font-size="10.00">/IDObject.hpp</text>
</a>
</g>
</g>
<!-- Node1&#45;&gt;Node3 -->
<g id="edge2" class="edge">
<title>Node1&#45;&gt;Node3</title>
<path fill="none" stroke="midnightblue" d="M471.56,-205.08C416.5,-197.39 308.03,-181.68 216.5,-165 215.25,-164.77 213.98,-164.54 212.71,-164.3"/>
<polygon fill="midnightblue" stroke="midnightblue" points="213.29,-160.85 202.81,-162.4 211.97,-167.72 213.29,-160.85"/>
</g>
<!-- Node5 -->
<g id="node5" class="node">
<title>Node5</title>
<g id="a_node5"><a xlink:title=" ">
<polygon fill="white" stroke="#bfbfbf" points="223.5,-6 223.5,-25 267.5,-25 267.5,-6 223.5,-6"/>
<text text-anchor="middle" x="245.5" y="-13" font-family="Helvetica,sans-Serif" font-size="10.00">string</text>
</a>
</g>
</g>
<!-- Node1&#45;&gt;Node5 -->
<g id="edge11" class="edge">
<title>Node1&#45;&gt;Node5</title>
<path fill="none" stroke="midnightblue" d="M471.79,-209.13C407.87,-206.76 277.92,-197.9 249.5,-165 217.97,-128.5 230.37,-66.07 239.35,-35.08"/>
<polygon fill="midnightblue" stroke="midnightblue" points="242.8,-35.78 242.41,-25.19 236.11,-33.71 242.8,-35.78"/>
</g>
<!-- Node7 -->
<g id="node7" class="node">
<title>Node7</title>
<g id="a_node7"><a target="_parent" xlink:href="../../../cieutils/docs/html/NamedObject_8hpp.html.html" xlink:title=" ">
<polygon fill="white" stroke="black" points="258.5,-134.5 258.5,-164.5 368.5,-164.5 368.5,-134.5 258.5,-134.5"/>
<text text-anchor="start" x="266.5" y="-152.5" font-family="Helvetica,sans-Serif" font-size="10.00">packages/types/inc</text>
<text text-anchor="middle" x="313.5" y="-141.5" font-family="Helvetica,sans-Serif" font-size="10.00">/NamedObject.hpp</text>
</a>
</g>
</g>
<!-- Node1&#45;&gt;Node7 -->
<g id="edge7" class="edge">
<title>Node1&#45;&gt;Node7</title>
<path fill="none" stroke="midnightblue" d="M479.7,-201.48C450.97,-192.66 405.34,-178.67 369.16,-167.57"/>
<polygon fill="midnightblue" stroke="midnightblue" points="369.81,-164.11 359.22,-164.52 367.76,-170.8 369.81,-164.11"/>
</g>
<!-- Node8 -->
<g id="node8" class="node">
<title>Node8</title>
<g id="a_node8"><a target="_parent" xlink:href="../../../cieutils/docs/html/types_8hpp.html.html" xlink:title=" ">
<polygon fill="white" stroke="black" points="386.5,-134.5 386.5,-164.5 496.5,-164.5 496.5,-134.5 386.5,-134.5"/>
<text text-anchor="start" x="394.5" y="-152.5" font-family="Helvetica,sans-Serif" font-size="10.00">packages/types/inc</text>
<text text-anchor="middle" x="441.5" y="-141.5" font-family="Helvetica,sans-Serif" font-size="10.00">/types.hpp</text>
</a>
</g>
</g>
<!-- Node1&#45;&gt;Node8 -->
<g id="edge8" class="edge">
<title>Node1&#45;&gt;Node8</title>
<path fill="none" stroke="midnightblue" d="M498.04,-201.48C489.36,-193.64 476.12,-181.71 464.64,-171.37"/>
<polygon fill="midnightblue" stroke="midnightblue" points="466.83,-168.62 457.05,-164.52 462.14,-173.82 466.83,-168.62"/>
</g>
<!-- Node9 -->
<g id="node9" class="node">
<title>Node9</title>
<g id="a_node9"><a target="_parent" xlink:href="../../../cieutils/docs/html/typedefs_8hpp.html.html" xlink:title=" ">
<polygon fill="white" stroke="black" points="515,-134.5 515,-164.5 634,-164.5 634,-134.5 515,-134.5"/>
<text text-anchor="start" x="523" y="-152.5" font-family="Helvetica,sans-Serif" font-size="10.00">packages/macros/inc</text>
<text text-anchor="middle" x="574.5" y="-141.5" font-family="Helvetica,sans-Serif" font-size="10.00">/typedefs.hpp</text>
</a>
</g>
</g>
<!-- Node1&#45;&gt;Node9 -->
<g id="edge9" class="edge">
<title>Node1&#45;&gt;Node9</title>
<path fill="none" stroke="midnightblue" d="M517.1,-201.48C525.92,-193.64 539.35,-181.71 551,-171.37"/>
<polygon fill="midnightblue" stroke="midnightblue" points="553.56,-173.78 558.71,-164.52 548.91,-168.55 553.56,-173.78"/>
</g>
<!-- Node10 -->
<g id="node10" class="node">
<title>Node10</title>
<g id="a_node10"><a target="_parent" xlink:href="../../../cieutils/docs/html/DynamicArray_8hpp.html.html" xlink:title=" ">
<polygon fill="white" stroke="black" points="652,-134.5 652,-164.5 783,-164.5 783,-134.5 652,-134.5"/>
<text text-anchor="start" x="660" y="-152.5" font-family="Helvetica,sans-Serif" font-size="10.00">packages/stl_extension</text>
<text text-anchor="middle" x="717.5" y="-141.5" font-family="Helvetica,sans-Serif" font-size="10.00">/inc/DynamicArray.hpp</text>
</a>
</g>
</g>
<!-- Node1&#45;&gt;Node10 -->
<g id="edge10" class="edge">
<title>Node1&#45;&gt;Node10</title>
<path fill="none" stroke="midnightblue" d="M537.59,-201.48C568.95,-192.59 618.93,-178.43 658.26,-167.29"/>
<polygon fill="midnightblue" stroke="midnightblue" points="659.34,-170.62 668.01,-164.52 657.43,-163.88 659.34,-170.62"/>
</g>
<!-- Node11 -->
<g id="node11" class="node">
<title>Node11</title>
<g id="a_node11"><a xlink:title=" ">
<polygon fill="white" stroke="#bfbfbf" points="801.5,-140 801.5,-159 849.5,-159 849.5,-140 801.5,-140"/>
<text text-anchor="middle" x="825.5" y="-147" font-family="Helvetica,sans-Serif" font-size="10.00">iosfwd</text>
</a>
</g>
</g>
<!-- Node1&#45;&gt;Node11 -->
<g id="edge12" class="edge">
<title>Node1&#45;&gt;Node11</title>
<path fill="none" stroke="midnightblue" d="M543.24,-207.33C597.88,-202.58 705.02,-190.66 792.5,-165 794.65,-164.37 796.84,-163.63 799.02,-162.83"/>
<polygon fill="midnightblue" stroke="midnightblue" points="800.4,-166.05 808.34,-159.04 797.76,-159.56 800.4,-166.05"/>
</g>
<!-- Node12 -->
<g id="node12" class="node">
<title>Node12</title>
<g id="a_node12"><a xlink:title=" ">
<polygon fill="white" stroke="#bfbfbf" points="867.5,-140 867.5,-159 925.5,-159 925.5,-140 867.5,-140"/>
<text text-anchor="middle" x="896.5" y="-147" font-family="Helvetica,sans-Serif" font-size="10.00">memory</text>
</a>
</g>
</g>
<!-- Node1&#45;&gt;Node12 -->
<g id="edge13" class="edge">
<title>Node1&#45;&gt;Node12</title>
<path fill="none" stroke="midnightblue" d="M543.14,-208.22C607.14,-204.42 745.43,-193.39 858.5,-165 861.33,-164.29 864.23,-163.43 867.11,-162.49"/>
<polygon fill="midnightblue" stroke="midnightblue" points="868.43,-165.74 876.67,-159.08 866.08,-159.15 868.43,-165.74"/>
</g>
<!-- Node13 -->
<g id="node13" class="node">
<title>Node13</title>
<g id="a_node13"><a xlink:title=" ">
<polygon fill="white" stroke="#bfbfbf" points="943.5,-140 943.5,-159 1011.5,-159 1011.5,-140 943.5,-140"/>
<text text-anchor="middle" x="977.5" y="-147" font-family="Helvetica,sans-Serif" font-size="10.00">filesystem</text>
</a>
</g>
</g>
<!-- Node1&#45;&gt;Node13 -->
<g id="edge14" class="edge">
<title>Node1&#45;&gt;Node13</title>
<path fill="none" stroke="midnightblue" d="M543.07,-208.89C616.85,-206.02 791.58,-196.23 934.5,-165 937.99,-164.24 941.6,-163.29 945.17,-162.25"/>
<polygon fill="midnightblue" stroke="midnightblue" points="946.53,-165.49 955,-159.13 944.41,-158.81 946.53,-165.49"/>
</g>
<!-- Node4 -->
<g id="node4" class="node">
<title>Node4</title>
<g id="a_node4"><a xlink:href="types_8hpp.html" target="_top" xlink:title=" ">
<polygon fill="white" stroke="black" points="92.5,-67.5 92.5,-97.5 202.5,-97.5 202.5,-67.5 92.5,-67.5"/>
<text text-anchor="start" x="100.5" y="-85.5" font-family="Helvetica,sans-Serif" font-size="10.00">packages/types/inc</text>
<text text-anchor="middle" x="147.5" y="-74.5" font-family="Helvetica,sans-Serif" font-size="10.00">/types.hpp</text>
</a>
</g>
</g>
<!-- Node3&#45;&gt;Node4 -->
<g id="edge3" class="edge">
<title>Node3&#45;&gt;Node4</title>
<path fill="none" stroke="midnightblue" d="M147.5,-134.4C147.5,-126.64 147.5,-116.81 147.5,-107.86"/>
<polygon fill="midnightblue" stroke="midnightblue" points="151,-107.58 147.5,-97.58 144,-107.58 151,-107.58"/>
</g>
<!-- Node4&#45;&gt;Node2 -->
<g id="edge4" class="edge">
<title>Node4&#45;&gt;Node2</title>
<path fill="none" stroke="midnightblue" d="M123.2,-67.4C104.15,-56.34 77.82,-41.06 58.99,-30.13"/>
<polygon fill="midnightblue" stroke="midnightblue" points="60.56,-27 50.16,-25.01 57.05,-33.05 60.56,-27"/>
</g>
<!-- Node4&#45;&gt;Node5 -->
<g id="edge5" class="edge">
<title>Node4&#45;&gt;Node5</title>
<path fill="none" stroke="midnightblue" d="M168.76,-67.4C185.2,-56.5 207.84,-41.48 224.27,-30.58"/>
<polygon fill="midnightblue" stroke="midnightblue" points="226.28,-33.45 232.67,-25.01 222.41,-27.62 226.28,-33.45"/>
</g>
<!-- Node6 -->
<g id="node6" class="node">
<title>Node6</title>
<g id="a_node6"><a xlink:title=" ">
<polygon fill="white" stroke="#bfbfbf" points="89.5,-0.5 89.5,-30.5 205.5,-30.5 205.5,-0.5 89.5,-0.5"/>
<text text-anchor="start" x="97.5" y="-18.5" font-family="Helvetica,sans-Serif" font-size="10.00">packages/traits/impl</text>
<text text-anchor="middle" x="147.5" y="-7.5" font-family="Helvetica,sans-Serif" font-size="10.00">/types_impl.hpp</text>
</a>
</g>
</g>
<!-- Node4&#45;&gt;Node6 -->
<g id="edge6" class="edge">
<title>Node4&#45;&gt;Node6</title>
<path fill="none" stroke="midnightblue" d="M147.5,-67.4C147.5,-59.64 147.5,-49.81 147.5,-40.86"/>
<polygon fill="midnightblue" stroke="midnightblue" points="151,-40.58 147.5,-30.58 144,-40.58 151,-40.58"/>
</g>
</g>
</svg>
