<?xml version="1.0" encoding="UTF-8" standalone="no"?>
<!DOCTYPE svg PUBLIC "-//W3C//DTD SVG 1.1//EN"
 "http://www.w3.org/Graphics/SVG/1.1/DTD/svg11.dtd">
<!-- Generated by graphviz version 2.43.0 (0)
 -->
<!-- Title: Shader.hpp Pages: 1 -->
<svg width="1033pt" height="532pt"
 viewBox="0.00 0.00 1032.50 532.00" xmlns="http://www.w3.org/2000/svg" xmlns:xlink="http://www.w3.org/1999/xlink">
<g id="graph0" class="graph" transform="scale(1 1) rotate(0) translate(4 528)">
<title>Shader.hpp</title>
<polygon fill="white" stroke="transparent" points="-4,4 -4,-528 1028.5,-528 1028.5,4 -4,4"/>
<!-- Node1 -->
<g id="node1" class="node">
<title>Node1</title>
<g id="a_node1"><a xlink:title=" ">
<polygon fill="#bfbfbf" stroke="black" points="660.5,-504.5 660.5,-523.5 731.5,-523.5 731.5,-504.5 660.5,-504.5"/>
<text text-anchor="middle" x="696" y="-511.5" font-family="Helvetica,sans-Serif" font-size="10.00">Shader.hpp</text>
</a>
</g>
</g>
<!-- Node2 -->
<g id="node2" class="node">
<title>Node2</title>
<g id="a_node2"><a xlink:href="GLUniform_8hpp.html" target="_top" xlink:title=" ">
<polygon fill="white" stroke="black" points="578,-448.5 578,-467.5 668,-467.5 668,-448.5 578,-448.5"/>
<text text-anchor="middle" x="623" y="-455.5" font-family="Helvetica,sans-Serif" font-size="10.00">GLUniform.hpp</text>
</a>
</g>
</g>
<!-- Node1&#45;&gt;Node2 -->
<g id="edge1" class="edge">
<title>Node1&#45;&gt;Node2</title>
<path fill="none" stroke="midnightblue" d="M675.86,-498.1C662.72,-488.38 646.02,-476.03 634.94,-467.83"/>
<polygon fill="midnightblue" stroke="midnightblue" points="674.15,-501.19 684.27,-504.32 678.31,-495.56 674.15,-501.19"/>
</g>
<!-- Node3 -->
<g id="node3" class="node">
<title>Node3</title>
<g id="a_node3"><a xlink:href="Scene_8hpp.html" target="_top" xlink:title=" ">
<polygon fill="white" stroke="black" points="662.5,-392.5 662.5,-411.5 729.5,-411.5 729.5,-392.5 662.5,-392.5"/>
<text text-anchor="middle" x="696" y="-399.5" font-family="Helvetica,sans-Serif" font-size="10.00">Scene.hpp</text>
</a>
</g>
</g>
<!-- Node1&#45;&gt;Node3 -->
<g id="edge25" class="edge">
<title>Node1&#45;&gt;Node3</title>
<path fill="none" stroke="midnightblue" d="M696,-494.35C696,-470.25 696,-429.31 696,-411.59"/>
<polygon fill="midnightblue" stroke="midnightblue" points="692.5,-494.37 696,-504.37 699.5,-494.37 692.5,-494.37"/>
</g>
<!-- Node23 -->
<g id="node23" class="node">
<title>Node23</title>
<g id="a_node23"><a xlink:href="Texture_8hpp.html" target="_top" xlink:title=" ">
<polygon fill="white" stroke="black" points="724,-448.5 724,-467.5 798,-467.5 798,-448.5 724,-448.5"/>
<text text-anchor="middle" x="761" y="-455.5" font-family="Helvetica,sans-Serif" font-size="10.00">Texture.hpp</text>
</a>
</g>
</g>
<!-- Node1&#45;&gt;Node23 -->
<g id="edge26" class="edge">
<title>Node1&#45;&gt;Node23</title>
<path fill="none" stroke="midnightblue" d="M714.27,-497.82C725.92,-488.15 740.6,-475.95 750.37,-467.83"/>
<polygon fill="midnightblue" stroke="midnightblue" points="711.9,-495.24 706.44,-504.32 716.37,-500.63 711.9,-495.24"/>
</g>
<!-- Node2&#45;&gt;Node3 -->
<g id="edge2" class="edge">
<title>Node2&#45;&gt;Node3</title>
<path fill="none" stroke="midnightblue" d="M643.14,-442.1C656.28,-432.38 672.98,-420.03 684.06,-411.83"/>
<polygon fill="midnightblue" stroke="midnightblue" points="640.69,-439.56 634.73,-448.32 644.85,-445.19 640.69,-439.56"/>
</g>
<!-- Node4 -->
<g id="node4" class="node">
<title>Node4</title>
<g id="a_node4"><a xlink:href="AbsWindow_8hpp.html" target="_top" xlink:title=" ">
<polygon fill="white" stroke="black" points="299,-336.5 299,-355.5 393,-355.5 393,-336.5 299,-336.5"/>
<text text-anchor="middle" x="346" y="-343.5" font-family="Helvetica,sans-Serif" font-size="10.00">AbsWindow.hpp</text>
</a>
</g>
</g>
<!-- Node3&#45;&gt;Node4 -->
<g id="edge3" class="edge">
<title>Node3&#45;&gt;Node4</title>
<path fill="none" stroke="midnightblue" d="M652.36,-394.27C586.29,-384.07 461.38,-364.8 393.24,-354.29"/>
<polygon fill="midnightblue" stroke="midnightblue" points="652.02,-397.76 662.44,-395.82 653.09,-390.84 652.02,-397.76"/>
</g>
<!-- Node8 -->
<g id="node8" class="node">
<title>Node8</title>
<g id="a_node8"><a xlink:href="AbsPlot2_8hpp.html" target="_top" xlink:title=" ">
<polygon fill="white" stroke="black" points="547,-112.5 547,-131.5 627,-131.5 627,-112.5 547,-112.5"/>
<text text-anchor="middle" x="587" y="-119.5" font-family="Helvetica,sans-Serif" font-size="10.00">AbsPlot2.hpp</text>
</a>
</g>
</g>
<!-- Node3&#45;&gt;Node8 -->
<g id="edge20" class="edge">
<title>Node3&#45;&gt;Node8</title>
<path fill="none" stroke="midnightblue" d="M696,-382.25C696,-360.36 696,-323.05 696,-291 696,-291 696,-291 696,-233 696,-202.9 696.29,-191.1 677,-168 661.88,-149.9 637.68,-138.37 618.18,-131.52"/>
<polygon fill="midnightblue" stroke="midnightblue" points="692.5,-382.44 696,-392.44 699.5,-382.44 692.5,-382.44"/>
</g>
<!-- Node19 -->
<g id="node19" class="node">
<title>Node19</title>
<g id="a_node19"><a xlink:href="PartScene_8hpp.html" target="_top" xlink:title=" ">
<polygon fill="white" stroke="black" points="743,-336.5 743,-355.5 829,-355.5 829,-336.5 743,-336.5"/>
<text text-anchor="middle" x="786" y="-343.5" font-family="Helvetica,sans-Serif" font-size="10.00">PartScene.hpp</text>
</a>
</g>
</g>
<!-- Node3&#45;&gt;Node19 -->
<g id="edge21" class="edge">
<title>Node3&#45;&gt;Node19</title>
<path fill="none" stroke="midnightblue" d="M719.04,-387.18C735.6,-377.24 757.42,-364.15 771.58,-355.65"/>
<polygon fill="midnightblue" stroke="midnightblue" points="717.23,-384.18 710.46,-392.32 720.84,-390.18 717.23,-384.18"/>
</g>
<!-- Node5 -->
<g id="node5" class="node">
<title>Node5</title>
<g id="a_node5"><a xlink:href="AbsContext_8hpp.html" target="_top" xlink:title=" ">
<polygon fill="white" stroke="black" points="75,-280.5 75,-299.5 169,-299.5 169,-280.5 75,-280.5"/>
<text text-anchor="middle" x="122" y="-287.5" font-family="Helvetica,sans-Serif" font-size="10.00">AbsContext.hpp</text>
</a>
</g>
</g>
<!-- Node4&#45;&gt;Node5 -->
<g id="edge4" class="edge">
<title>Node4&#45;&gt;Node5</title>
<path fill="none" stroke="midnightblue" d="M300.74,-334.09C258.42,-323.89 196.09,-308.86 157.33,-299.52"/>
<polygon fill="midnightblue" stroke="midnightblue" points="299.96,-337.5 310.51,-336.44 301.61,-330.7 299.96,-337.5"/>
</g>
<!-- Node7 -->
<g id="node7" class="node">
<title>Node7</title>
<g id="a_node7"><a xlink:href="AbsPlot_8hpp.html" target="_top" xlink:title=" ">
<polygon fill="white" stroke="black" points="122,-224.5 122,-243.5 196,-243.5 196,-224.5 122,-224.5"/>
<text text-anchor="middle" x="159" y="-231.5" font-family="Helvetica,sans-Serif" font-size="10.00">AbsPlot.hpp</text>
</a>
</g>
</g>
<!-- Node4&#45;&gt;Node7 -->
<g id="edge19" class="edge">
<title>Node4&#45;&gt;Node7</title>
<path fill="none" stroke="midnightblue" d="M294.81,-333.87C269.64,-326.81 239.71,-315.94 216,-300 193.08,-284.59 173.66,-257.75 164.55,-243.88"/>
<polygon fill="midnightblue" stroke="midnightblue" points="293.99,-337.27 304.56,-336.48 295.8,-330.51 293.99,-337.27"/>
</g>
<!-- Node11 -->
<g id="node11" class="node">
<title>Node11</title>
<g id="a_node11"><a xlink:href="GLFWWindow_8hpp.html" target="_top" xlink:title=" ">
<polygon fill="white" stroke="black" points="225,-280.5 225,-299.5 329,-299.5 329,-280.5 225,-280.5"/>
<text text-anchor="middle" x="277" y="-287.5" font-family="Helvetica,sans-Serif" font-size="10.00">GLFWWindow.hpp</text>
</a>
</g>
</g>
<!-- Node4&#45;&gt;Node11 -->
<g id="edge10" class="edge">
<title>Node4&#45;&gt;Node11</title>
<path fill="none" stroke="midnightblue" d="M326.96,-330.1C314.54,-320.38 298.76,-308.03 288.29,-299.83"/>
<polygon fill="midnightblue" stroke="midnightblue" points="324.88,-332.92 334.91,-336.32 329.2,-327.4 324.88,-332.92"/>
</g>
<!-- Node12 -->
<g id="node12" class="node">
<title>Node12</title>
<g id="a_node12"><a xlink:href="AbsCameraControls_8hpp.html" target="_top" xlink:title=" ">
<polygon fill="white" stroke="black" points="347,-280.5 347,-299.5 481,-299.5 481,-280.5 347,-280.5"/>
<text text-anchor="middle" x="414" y="-287.5" font-family="Helvetica,sans-Serif" font-size="10.00">AbsCameraControls.hpp</text>
</a>
</g>
</g>
<!-- Node4&#45;&gt;Node12 -->
<g id="edge11" class="edge">
<title>Node4&#45;&gt;Node12</title>
<path fill="none" stroke="midnightblue" d="M364.76,-330.1C377,-320.38 392.56,-308.03 402.88,-299.83"/>
<polygon fill="midnightblue" stroke="midnightblue" points="362.58,-327.36 356.93,-336.32 366.93,-332.85 362.58,-327.36"/>
</g>
<!-- Node18 -->
<g id="node18" class="node">
<title>Node18</title>
<g id="a_node18"><a xlink:href="utilities_8hpp.html" target="_top" xlink:title=" ">
<polygon fill="white" stroke="black" points="499,-280.5 499,-299.5 573,-299.5 573,-280.5 499,-280.5"/>
<text text-anchor="middle" x="536" y="-287.5" font-family="Helvetica,sans-Serif" font-size="10.00">utilities.hpp</text>
</a>
</g>
</g>
<!-- Node4&#45;&gt;Node18 -->
<g id="edge18" class="edge">
<title>Node4&#45;&gt;Node18</title>
<path fill="none" stroke="midnightblue" d="M385.76,-333.7C421.62,-323.51 473.57,-308.74 506.03,-299.52"/>
<polygon fill="midnightblue" stroke="midnightblue" points="384.77,-330.34 376.11,-336.44 386.68,-337.08 384.77,-330.34"/>
</g>
<!-- Node6 -->
<g id="node6" class="node">
<title>Node6</title>
<g id="a_node6"><a xlink:href="GLFWContext_8hpp.html" target="_top" xlink:title=" ">
<polygon fill="white" stroke="black" points="0,-224.5 0,-243.5 104,-243.5 104,-224.5 0,-224.5"/>
<text text-anchor="middle" x="52" y="-231.5" font-family="Helvetica,sans-Serif" font-size="10.00">GLFWContext.hpp</text>
</a>
</g>
</g>
<!-- Node5&#45;&gt;Node6 -->
<g id="edge5" class="edge">
<title>Node5&#45;&gt;Node6</title>
<path fill="none" stroke="midnightblue" d="M102.69,-274.1C90.09,-264.38 74.07,-252.03 63.45,-243.83"/>
<polygon fill="midnightblue" stroke="midnightblue" points="100.7,-276.99 110.75,-280.32 104.97,-271.44 100.7,-276.99"/>
</g>
<!-- Node5&#45;&gt;Node7 -->
<g id="edge6" class="edge">
<title>Node5&#45;&gt;Node7</title>
<path fill="none" stroke="midnightblue" d="M133.95,-271.57C140.31,-262.27 147.87,-251.25 153,-243.75"/>
<polygon fill="midnightblue" stroke="midnightblue" points="130.87,-269.86 128.11,-280.08 136.65,-273.81 130.87,-269.86"/>
</g>
<!-- Node7&#45;&gt;Node8 -->
<g id="edge7" class="edge">
<title>Node7&#45;&gt;Node8</title>
<path fill="none" stroke="midnightblue" d="M159.17,-214.09C160.39,-199.22 164.65,-179.2 178,-168 205.91,-144.59 449.06,-129.91 546.68,-124.92"/>
<polygon fill="midnightblue" stroke="midnightblue" points="155.67,-214.09 158.73,-224.23 162.66,-214.39 155.67,-214.09"/>
</g>
<!-- Node9 -->
<g id="node9" class="node">
<title>Node9</title>
<g id="a_node9"><a xlink:href="Plot2_8hpp.html" target="_top" xlink:title=" ">
<polygon fill="white" stroke="black" points="556,-56.5 556,-75.5 618,-75.5 618,-56.5 556,-56.5"/>
<text text-anchor="middle" x="587" y="-63.5" font-family="Helvetica,sans-Serif" font-size="10.00">Plot2.hpp</text>
</a>
</g>
</g>
<!-- Node8&#45;&gt;Node9 -->
<g id="edge8" class="edge">
<title>Node8&#45;&gt;Node9</title>
<path fill="none" stroke="midnightblue" d="M587,-101.8C587,-92.91 587,-82.78 587,-75.75"/>
<polygon fill="midnightblue" stroke="midnightblue" points="583.5,-102.08 587,-112.08 590.5,-102.08 583.5,-102.08"/>
</g>
<!-- Node10 -->
<g id="node10" class="node">
<title>Node10</title>
<g id="a_node10"><a xlink:href="Plot2__MarchingCubes_8hpp.html" target="_top" xlink:title=" ">
<polygon fill="white" stroke="black" points="515.5,-0.5 515.5,-19.5 658.5,-19.5 658.5,-0.5 515.5,-0.5"/>
<text text-anchor="middle" x="587" y="-7.5" font-family="Helvetica,sans-Serif" font-size="10.00">Plot2_MarchingCubes.hpp</text>
</a>
</g>
</g>
<!-- Node9&#45;&gt;Node10 -->
<g id="edge9" class="edge">
<title>Node9&#45;&gt;Node10</title>
<path fill="none" stroke="midnightblue" d="M587,-45.8C587,-36.91 587,-26.78 587,-19.75"/>
<polygon fill="midnightblue" stroke="midnightblue" points="583.5,-46.08 587,-56.08 590.5,-46.08 583.5,-46.08"/>
</g>
<!-- Node13 -->
<g id="node13" class="node">
<title>Node13</title>
<g id="a_node13"><a xlink:href="DebugCameraControls_8hpp.html" target="_top" xlink:title=" ">
<polygon fill="white" stroke="black" points="214,-224.5 214,-243.5 362,-243.5 362,-224.5 214,-224.5"/>
<text text-anchor="middle" x="288" y="-231.5" font-family="Helvetica,sans-Serif" font-size="10.00">DebugCameraControls.hpp</text>
</a>
</g>
</g>
<!-- Node12&#45;&gt;Node13 -->
<g id="edge12" class="edge">
<title>Node12&#45;&gt;Node13</title>
<path fill="none" stroke="midnightblue" d="M384.84,-276.5C361.22,-266.38 328.57,-252.39 307.87,-243.52"/>
<polygon fill="midnightblue" stroke="midnightblue" points="383.46,-279.72 394.03,-280.44 386.22,-273.29 383.46,-279.72"/>
</g>
<!-- Node14 -->
<g id="node14" class="node">
<title>Node14</title>
<g id="a_node14"><a xlink:href="MappedCameraControls_8hpp.html" target="_top" xlink:title=" ">
<polygon fill="white" stroke="black" points="380.5,-224.5 380.5,-243.5 535.5,-243.5 535.5,-224.5 380.5,-224.5"/>
<text text-anchor="middle" x="458" y="-231.5" font-family="Helvetica,sans-Serif" font-size="10.00">MappedCameraControls.hpp</text>
</a>
</g>
</g>
<!-- Node12&#45;&gt;Node14 -->
<g id="edge13" class="edge">
<title>Node12&#45;&gt;Node14</title>
<path fill="none" stroke="midnightblue" d="M427.73,-272.14C435.4,-262.74 444.63,-251.4 450.87,-243.75"/>
<polygon fill="midnightblue" stroke="midnightblue" points="424.87,-270.12 421.27,-280.08 430.3,-274.54 424.87,-270.12"/>
</g>
<!-- Node15 -->
<g id="node15" class="node">
<title>Node15</title>
<g id="a_node15"><a xlink:href="ArcBallCameraControls_8hpp.html" target="_top" xlink:title=" ">
<polygon fill="white" stroke="black" points="187.5,-168.5 187.5,-187.5 338.5,-187.5 338.5,-168.5 187.5,-168.5"/>
<text text-anchor="middle" x="263" y="-175.5" font-family="Helvetica,sans-Serif" font-size="10.00">ArcBallCameraControls.hpp</text>
</a>
</g>
</g>
<!-- Node14&#45;&gt;Node15 -->
<g id="edge14" class="edge">
<title>Node14&#45;&gt;Node15</title>
<path fill="none" stroke="midnightblue" d="M417.19,-221.7C380.39,-211.51 327.07,-196.74 293.75,-187.52"/>
<polygon fill="midnightblue" stroke="midnightblue" points="416.53,-225.15 427.1,-224.44 418.4,-218.4 416.53,-225.15"/>
</g>
<!-- Node16 -->
<g id="node16" class="node">
<title>Node16</title>
<g id="a_node16"><a xlink:href="FlyCameraControls_8hpp.html" target="_top" xlink:title=" ">
<polygon fill="white" stroke="black" points="356.5,-168.5 356.5,-187.5 487.5,-187.5 487.5,-168.5 356.5,-168.5"/>
<text text-anchor="middle" x="422" y="-175.5" font-family="Helvetica,sans-Serif" font-size="10.00">FlyCameraControls.hpp</text>
</a>
</g>
</g>
<!-- Node14&#45;&gt;Node16 -->
<g id="edge15" class="edge">
<title>Node14&#45;&gt;Node16</title>
<path fill="none" stroke="midnightblue" d="M446.38,-215.57C440.18,-206.27 432.83,-195.25 427.83,-187.75"/>
<polygon fill="midnightblue" stroke="midnightblue" points="443.6,-217.7 452.06,-224.08 449.42,-213.82 443.6,-217.7"/>
</g>
<!-- Node17 -->
<g id="node17" class="node">
<title>Node17</title>
<g id="a_node17"><a xlink:href="PanZoomCameraControls_8hpp.html" target="_top" xlink:title=" ">
<polygon fill="white" stroke="black" points="506,-168.5 506,-187.5 668,-187.5 668,-168.5 506,-168.5"/>
<text text-anchor="middle" x="587" y="-175.5" font-family="Helvetica,sans-Serif" font-size="10.00">PanZoomCameraControls.hpp</text>
</a>
</g>
</g>
<!-- Node14&#45;&gt;Node17 -->
<g id="edge16" class="edge">
<title>Node14&#45;&gt;Node17</title>
<path fill="none" stroke="midnightblue" d="M487.85,-220.5C512.04,-210.38 545.46,-196.39 566.66,-187.52"/>
<polygon fill="midnightblue" stroke="midnightblue" points="486.31,-217.35 478.44,-224.44 489.02,-223.81 486.31,-217.35"/>
</g>
<!-- Node17&#45;&gt;Node8 -->
<g id="edge17" class="edge">
<title>Node17&#45;&gt;Node8</title>
<path fill="none" stroke="midnightblue" d="M587,-157.8C587,-148.91 587,-138.78 587,-131.75"/>
<polygon fill="midnightblue" stroke="midnightblue" points="583.5,-158.08 587,-168.08 590.5,-158.08 583.5,-158.08"/>
</g>
<!-- Node20 -->
<g id="node20" class="node">
<title>Node20</title>
<g id="a_node20"><a xlink:href="GenericPartScene_8hpp.html" target="_top" xlink:title=" ">
<polygon fill="white" stroke="black" points="724.5,-280.5 724.5,-299.5 847.5,-299.5 847.5,-280.5 724.5,-280.5"/>
<text text-anchor="middle" x="786" y="-287.5" font-family="Helvetica,sans-Serif" font-size="10.00">GenericPartScene.hpp</text>
</a>
</g>
</g>
<!-- Node19&#45;&gt;Node20 -->
<g id="edge22" class="edge">
<title>Node19&#45;&gt;Node20</title>
<path fill="none" stroke="midnightblue" d="M786,-325.8C786,-316.91 786,-306.78 786,-299.75"/>
<polygon fill="midnightblue" stroke="midnightblue" points="782.5,-326.08 786,-336.08 789.5,-326.08 782.5,-326.08"/>
</g>
<!-- Node22 -->
<g id="node22" class="node">
<title>Node22</title>
<g id="a_node22"><a xlink:href="Triangulated3DPartScene_8hpp.html" target="_top" xlink:title=" ">
<polygon fill="white" stroke="black" points="865.5,-280.5 865.5,-299.5 1024.5,-299.5 1024.5,-280.5 865.5,-280.5"/>
<text text-anchor="middle" x="945" y="-287.5" font-family="Helvetica,sans-Serif" font-size="10.00">Triangulated3DPartScene.hpp</text>
</a>
</g>
</g>
<!-- Node19&#45;&gt;Node22 -->
<g id="edge24" class="edge">
<title>Node19&#45;&gt;Node22</title>
<path fill="none" stroke="midnightblue" d="M820.83,-333.17C850.77,-323 893.22,-308.59 919.92,-299.52"/>
<polygon fill="midnightblue" stroke="midnightblue" points="819.54,-329.91 811.19,-336.44 821.79,-336.54 819.54,-329.91"/>
</g>
<!-- Node21 -->
<g id="node21" class="node">
<title>Node21</title>
<g id="a_node21"><a xlink:href="Axes3DScene_8hpp.html" target="_top" xlink:title=" ">
<polygon fill="white" stroke="black" points="734,-224.5 734,-243.5 838,-243.5 838,-224.5 734,-224.5"/>
<text text-anchor="middle" x="786" y="-231.5" font-family="Helvetica,sans-Serif" font-size="10.00">Axes3DScene.hpp</text>
</a>
</g>
</g>
<!-- Node20&#45;&gt;Node21 -->
<g id="edge23" class="edge">
<title>Node20&#45;&gt;Node21</title>
<path fill="none" stroke="midnightblue" d="M786,-269.8C786,-260.91 786,-250.78 786,-243.75"/>
<polygon fill="midnightblue" stroke="midnightblue" points="782.5,-270.08 786,-280.08 789.5,-270.08 782.5,-270.08"/>
</g>
<!-- Node23&#45;&gt;Node3 -->
<g id="edge27" class="edge">
<title>Node23&#45;&gt;Node3</title>
<path fill="none" stroke="midnightblue" d="M742.73,-441.82C731.08,-432.15 716.4,-419.95 706.63,-411.83"/>
<polygon fill="midnightblue" stroke="midnightblue" points="740.63,-444.63 750.56,-448.32 745.1,-439.24 740.63,-444.63"/>
</g>
</g>
</svg>
