<?xml version="1.0" encoding="UTF-8" standalone="no"?>
<!DOCTYPE svg PUBLIC "-//W3C//DTD SVG 1.1//EN"
 "http://www.w3.org/Graphics/SVG/1.1/DTD/svg11.dtd">
<!-- Generated by graphviz version 2.43.0 (0)
 -->
<!-- Title: STLPart.hpp Pages: 1 -->
<!--zoomable 508 -->
<svg id="main" version="1.1" xmlns="http://www.w3.org/2000/svg" xmlns:xlink="http://www.w3.org/1999/xlink" xml:space="preserve" onload="init(evt)">
<style type="text/css"><![CDATA[
.edge:hover path { stroke: red; }
.edge:hover polygon { stroke: red; fill: red; }
]]></style>
<script type="text/javascript"><![CDATA[
var edges = document.getElementsByTagName('g');
if (edges && edges.length) {
  for (var i=0;i<edges.length;i++) {
    if (edges[i].id.substr(0,4)=='edge') {
      edges[i].setAttribute('class','edge');
    }
  }
}
]]></script>
        <defs>
                <circle id="rim" cx="0" cy="0" r="7"/>
                <circle id="rim2" cx="0" cy="0" r="3.5"/>
                <g id="zoomPlus">
                        <use xlink:href="#rim" fill="#404040">
                                <set attributeName="fill" to="#808080" begin="zoomplus.mouseover" end="zoomplus.mouseout"/>
                        </use>
                        <path d="M-4,0h8M0,-4v8" fill="none" stroke="white" stroke-width="1.5" pointer-events="none"/>
                </g>
                <g id="zoomMin">
                        <use xlink:href="#rim" fill="#404040">
                                <set attributeName="fill" to="#808080" begin="zoomminus.mouseover" end="zoomminus.mouseout"/>
                        </use>
                        <path d="M-4,0h8" fill="none" stroke="white" stroke-width="1.5" pointer-events="none"/>
                </g>
                <g id="dirArrow">
                        <path fill="none" stroke="white" stroke-width="1.5" d="M0,-3.0v7 M-2.5,-0.5L0,-3.0L2.5,-0.5"/>
                </g>
               <g id="resetDef">
                       <use xlink:href="#rim2" fill="#404040">
                               <set attributeName="fill" to="#808080" begin="reset.mouseover" end="reset.mouseout"/>
                       </use>
               </g>
        </defs>

<script type="text/javascript">
var viewWidth = 1336;
var viewHeight = 508;
var sectionId = 'dynsection-0';
</script>
<script xlink:href="svgpan.js"/>
<svg id="graph" class="graph">
<g id="viewport">
<title>STLPart.hpp</title>
<polygon fill="white" stroke="transparent" points="-4,4 -4,-504 1332,-504 1332,4 -4,4"/>
<!-- Node1 -->
<g id="node1" class="node">
<title>Node1</title>
<g id="a_node1"><a xlink:title=" ">
<polygon fill="#bfbfbf" stroke="black" points="423,-480.5 423,-499.5 497,-499.5 497,-480.5 423,-480.5"/>
<text text-anchor="middle" x="460" y="-487.5" font-family="Helvetica,sans-Serif" font-size="10.00">STLPart.hpp</text>
</a>
</g>
</g>
<!-- Node2 -->
<g id="node2" class="node">
<title>Node2</title>
<g id="a_node2"><a xlink:href="Triangulated3DPart_8hpp.html" target="_top" xlink:title=" ">
<polygon fill="white" stroke="black" points="667.5,-413.5 667.5,-443.5 834.5,-443.5 834.5,-413.5 667.5,-413.5"/>
<text text-anchor="start" x="675.5" y="-431.5" font-family="Helvetica,sans-Serif" font-size="10.00">packages/file/inc/Triangulated3</text>
<text text-anchor="middle" x="751" y="-420.5" font-family="Helvetica,sans-Serif" font-size="10.00">DPart.hpp</text>
</a>
</g>
</g>
<!-- Node1&#45;&gt;Node2 -->
<g id="edge1" class="edge">
<title>Node1&#45;&gt;Node2</title>
<path fill="none" stroke="midnightblue" d="M497.15,-481.4C541.09,-472.42 615.45,-457.22 672.36,-445.58"/>
<polygon fill="midnightblue" stroke="midnightblue" points="673.32,-448.96 682.42,-443.52 671.92,-442.1 673.32,-448.96"/>
</g>
<!-- Node9 -->
<g id="node9" class="node">
<title>Node9</title>
<g id="a_node9"><a xlink:title=" ">
<polygon fill="white" stroke="#bfbfbf" points="0,-6 0,-25 44,-25 44,-6 0,-6"/>
<text text-anchor="middle" x="22" y="-13" font-family="Helvetica,sans-Serif" font-size="10.00">string</text>
</a>
</g>
</g>
<!-- Node1&#45;&gt;Node9 -->
<g id="edge34" class="edge">
<title>Node1&#45;&gt;Node9</title>
<path fill="none" stroke="midnightblue" d="M422.91,-487.16C313.87,-480.76 2,-454.87 2,-368 2,-368 2,-368 2,-154 2,-111.13 11.64,-61.52 17.53,-35.19"/>
<polygon fill="midnightblue" stroke="midnightblue" points="21.02,-35.66 19.86,-25.12 14.2,-34.08 21.02,-35.66"/>
</g>
<!-- Node3 -->
<g id="node3" class="node">
<title>Node3</title>
<g id="a_node3"><a xlink:href="Part_8hpp.html" target="_top" xlink:title=" ">
<polygon fill="white" stroke="black" points="910,-357.5 910,-376.5 1050,-376.5 1050,-357.5 910,-357.5"/>
<text text-anchor="middle" x="980" y="-364.5" font-family="Helvetica,sans-Serif" font-size="10.00">packages/file/inc/Part.hpp</text>
</a>
</g>
</g>
<!-- Node2&#45;&gt;Node3 -->
<g id="edge2" class="edge">
<title>Node2&#45;&gt;Node3</title>
<path fill="none" stroke="midnightblue" d="M804.98,-413.47C845.35,-402.99 899.8,-388.84 937.19,-379.12"/>
<polygon fill="midnightblue" stroke="midnightblue" points="938.46,-382.41 947.26,-376.51 936.7,-375.63 938.46,-382.41"/>
</g>
<!-- Node4 -->
<g id="node4" class="node">
<title>Node4</title>
<g id="a_node4"><a target="_parent" xlink:href="../../../cieutils/docs/html/types_8hpp.html.html" xlink:title=" ">
<polygon fill="white" stroke="black" points="1218,-290.5 1218,-320.5 1328,-320.5 1328,-290.5 1218,-290.5"/>
<text text-anchor="start" x="1226" y="-308.5" font-family="Helvetica,sans-Serif" font-size="10.00">packages/types/inc</text>
<text text-anchor="middle" x="1273" y="-297.5" font-family="Helvetica,sans-Serif" font-size="10.00">/types.hpp</text>
</a>
</g>
</g>
<!-- Node3&#45;&gt;Node4 -->
<g id="edge3" class="edge">
<title>Node3&#45;&gt;Node4</title>
<path fill="none" stroke="midnightblue" d="M1025.7,-357.42C1069.81,-349.05 1138.74,-335.74 1207.69,-321.24"/>
<polygon fill="midnightblue" stroke="midnightblue" points="1208.8,-324.59 1217.86,-319.1 1207.36,-317.74 1208.8,-324.59"/>
</g>
<!-- Node5 -->
<g id="node5" class="node">
<title>Node5</title>
<g id="a_node5"><a xlink:href="Buffer_8hpp.html" target="_top" xlink:title=" ">
<polygon fill="white" stroke="black" points="304.5,-290.5 304.5,-320.5 415.5,-320.5 415.5,-290.5 304.5,-290.5"/>
<text text-anchor="start" x="312.5" y="-308.5" font-family="Helvetica,sans-Serif" font-size="10.00">packages/buffer/inc</text>
<text text-anchor="middle" x="360" y="-297.5" font-family="Helvetica,sans-Serif" font-size="10.00">/Buffer.hpp</text>
</a>
</g>
</g>
<!-- Node3&#45;&gt;Node5 -->
<g id="edge4" class="edge">
<title>Node3&#45;&gt;Node5</title>
<path fill="none" stroke="midnightblue" d="M909.78,-359.26C788.99,-347.67 543.53,-324.11 425.83,-312.82"/>
<polygon fill="midnightblue" stroke="midnightblue" points="425.82,-309.3 415.53,-311.83 425.15,-316.27 425.82,-309.3"/>
</g>
<!-- Node16 -->
<g id="node16" class="node">
<title>Node16</title>
<g id="a_node16"><a xlink:title=" ">
<polygon fill="white" stroke="#bfbfbf" points="995.5,-145.5 995.5,-164.5 1042.5,-164.5 1042.5,-145.5 995.5,-145.5"/>
<text text-anchor="middle" x="1019" y="-152.5" font-family="Helvetica,sans-Serif" font-size="10.00">vector</text>
</a>
</g>
</g>
<!-- Node3&#45;&gt;Node16 -->
<g id="edge30" class="edge">
<title>Node3&#45;&gt;Node16</title>
<path fill="none" stroke="midnightblue" d="M982.44,-357.41C984.97,-348.38 988.97,-333.74 992,-321 999.03,-291.4 1000.89,-283.99 1006,-254 1010.68,-226.56 1014.65,-194.56 1016.93,-174.79"/>
<polygon fill="midnightblue" stroke="midnightblue" points="1020.42,-175.01 1018.07,-164.68 1013.47,-174.23 1020.42,-175.01"/>
</g>
<!-- Node17 -->
<g id="node17" class="node">
<title>Node17</title>
<g id="a_node17"><a xlink:title=" ">
<polygon fill="white" stroke="#bfbfbf" points="881,-145.5 881,-164.5 939,-164.5 939,-145.5 881,-145.5"/>
<text text-anchor="middle" x="910" y="-152.5" font-family="Helvetica,sans-Serif" font-size="10.00">memory</text>
</a>
</g>
</g>
<!-- Node3&#45;&gt;Node17 -->
<g id="edge31" class="edge">
<title>Node3&#45;&gt;Node17</title>
<path fill="none" stroke="midnightblue" d="M920.43,-357.46C862.1,-345.54 776.54,-317.67 738,-254 728.33,-238.03 726.95,-227.04 738,-212 769.71,-168.84 802.17,-192.87 853,-176 860.7,-173.45 868.95,-170.61 876.71,-167.89"/>
<polygon fill="midnightblue" stroke="midnightblue" points="877.94,-171.17 886.21,-164.55 875.62,-164.57 877.94,-171.17"/>
</g>
<!-- Node20 -->
<g id="node20" class="node">
<title>Node20</title>
<g id="a_node20"><a xlink:href="GLTraits_8hpp.html" target="_top" xlink:title=" ">
<polygon fill="white" stroke="black" points="875,-290.5 875,-320.5 983,-320.5 983,-290.5 875,-290.5"/>
<text text-anchor="start" x="883" y="-308.5" font-family="Helvetica,sans-Serif" font-size="10.00">packages/traits/inc</text>
<text text-anchor="middle" x="929" y="-297.5" font-family="Helvetica,sans-Serif" font-size="10.00">/GLTraits.hpp</text>
</a>
</g>
</g>
<!-- Node3&#45;&gt;Node20 -->
<g id="edge24" class="edge">
<title>Node3&#45;&gt;Node20</title>
<path fill="none" stroke="midnightblue" d="M972.69,-357.48C966.17,-349.87 956.34,-338.4 947.66,-328.26"/>
<polygon fill="midnightblue" stroke="midnightblue" points="950.19,-325.84 941.02,-320.52 944.87,-330.39 950.19,-325.84"/>
</g>
<!-- Node23 -->
<g id="node23" class="node">
<title>Node23</title>
<g id="a_node23"><a xlink:title=" ">
<polygon fill="white" stroke="#bfbfbf" points="1060,-296 1060,-315 1114,-315 1114,-296 1060,-296"/>
<text text-anchor="middle" x="1087" y="-303" font-family="Helvetica,sans-Serif" font-size="10.00">istream</text>
</a>
</g>
</g>
<!-- Node3&#45;&gt;Node23 -->
<g id="edge32" class="edge">
<title>Node3&#45;&gt;Node23</title>
<path fill="none" stroke="midnightblue" d="M995.33,-357.48C1012.97,-347.67 1042.16,-331.43 1062.86,-319.92"/>
<polygon fill="midnightblue" stroke="midnightblue" points="1064.66,-322.93 1071.7,-315.01 1061.26,-316.81 1064.66,-322.93"/>
</g>
<!-- Node24 -->
<g id="node24" class="node">
<title>Node24</title>
<g id="a_node24"><a xlink:title=" ">
<polygon fill="white" stroke="#bfbfbf" points="1132,-296 1132,-315 1200,-315 1200,-296 1132,-296"/>
<text text-anchor="middle" x="1166" y="-303" font-family="Helvetica,sans-Serif" font-size="10.00">filesystem</text>
</a>
</g>
</g>
<!-- Node3&#45;&gt;Node24 -->
<g id="edge33" class="edge">
<title>Node3&#45;&gt;Node24</title>
<path fill="none" stroke="midnightblue" d="M1007.73,-357.46C1036.58,-348.53 1083.04,-334.02 1123,-321 1125.74,-320.11 1128.57,-319.17 1131.42,-318.23"/>
<polygon fill="midnightblue" stroke="midnightblue" points="1132.64,-321.51 1141.02,-315.02 1130.42,-314.87 1132.64,-321.51"/>
</g>
<!-- Node6 -->
<g id="node6" class="node">
<title>Node6</title>
<g id="a_node6"><a xlink:title=" ">
<polygon fill="white" stroke="#bfbfbf" points="526.5,-6 526.5,-25 597.5,-25 597.5,-6 526.5,-6"/>
<text text-anchor="middle" x="562" y="-13" font-family="Helvetica,sans-Serif" font-size="10.00">glad/glad.h</text>
</a>
</g>
</g>
<!-- Node5&#45;&gt;Node6 -->
<g id="edge5" class="edge">
<title>Node5&#45;&gt;Node6</title>
<path fill="none" stroke="midnightblue" d="M360.3,-290.26C360.01,-270.81 356.94,-235.64 340,-212 321.89,-186.72 295.32,-203.06 280,-176 270.8,-159.76 269.65,-149.53 280,-134 332.92,-54.62 450.7,-28.78 516.06,-20.43"/>
<polygon fill="midnightblue" stroke="midnightblue" points="516.57,-23.9 526.09,-19.24 515.74,-16.95 516.57,-23.9"/>
</g>
<!-- Node7 -->
<g id="node7" class="node">
<title>Node7</title>
<g id="a_node7"><a target="_parent" xlink:href="../../../cieutils/docs/html/IDObject_8hpp.html.html" xlink:title=" ">
<polygon fill="white" stroke="black" points="30,-218 30,-248 140,-248 140,-218 30,-218"/>
<text text-anchor="start" x="38" y="-236" font-family="Helvetica,sans-Serif" font-size="10.00">packages/types/inc</text>
<text text-anchor="middle" x="85" y="-225" font-family="Helvetica,sans-Serif" font-size="10.00">/IDObject.hpp</text>
</a>
</g>
</g>
<!-- Node5&#45;&gt;Node7 -->
<g id="edge6" class="edge">
<title>Node5&#45;&gt;Node7</title>
<path fill="none" stroke="midnightblue" d="M304.32,-291.51C262.78,-281.67 204.69,-267.55 154,-254 150.18,-252.98 146.24,-251.9 142.28,-250.8"/>
<polygon fill="midnightblue" stroke="midnightblue" points="143.01,-247.37 132.44,-248.03 141.12,-254.11 143.01,-247.37"/>
</g>
<!-- Node11 -->
<g id="node11" class="node">
<title>Node11</title>
<g id="a_node11"><a target="_parent" xlink:href="../../../cieutils/docs/html/container__concepts_8hpp.html.html" xlink:title=" ">
<polygon fill="white" stroke="black" points="196.5,-212.5 196.5,-253.5 331.5,-253.5 331.5,-212.5 196.5,-212.5"/>
<text text-anchor="start" x="204.5" y="-241.5" font-family="Helvetica,sans-Serif" font-size="10.00">packages/compile_time</text>
<text text-anchor="start" x="204.5" y="-230.5" font-family="Helvetica,sans-Serif" font-size="10.00">/packages/concepts/inc</text>
<text text-anchor="middle" x="264" y="-219.5" font-family="Helvetica,sans-Serif" font-size="10.00">/container_concepts.hpp</text>
</a>
</g>
</g>
<!-- Node5&#45;&gt;Node11 -->
<g id="edge11" class="edge">
<title>Node5&#45;&gt;Node11</title>
<path fill="none" stroke="midnightblue" d="M340.57,-290.23C328.57,-281.42 312.83,-269.86 298.74,-259.51"/>
<polygon fill="midnightblue" stroke="midnightblue" points="300.81,-256.69 290.67,-253.59 296.66,-262.33 300.81,-256.69"/>
</g>
<!-- Node12 -->
<g id="node12" class="node">
<title>Node12</title>
<g id="a_node12"><a target="_parent" xlink:href="../../../cieutils/docs/html/typedefs_8hpp.html.html" xlink:title=" ">
<polygon fill="white" stroke="black" points="113.5,-140 113.5,-170 232.5,-170 232.5,-140 113.5,-140"/>
<text text-anchor="start" x="121.5" y="-158" font-family="Helvetica,sans-Serif" font-size="10.00">packages/macros/inc</text>
<text text-anchor="middle" x="173" y="-147" font-family="Helvetica,sans-Serif" font-size="10.00">/typedefs.hpp</text>
</a>
</g>
</g>
<!-- Node5&#45;&gt;Node12 -->
<g id="edge12" class="edge">
<title>Node5&#45;&gt;Node12</title>
<path fill="none" stroke="midnightblue" d="M304.13,-303.26C265.45,-299.27 215.9,-287.33 187,-254 169.57,-233.89 168.1,-202.26 169.66,-180.4"/>
<polygon fill="midnightblue" stroke="midnightblue" points="173.17,-180.55 170.65,-170.25 166.2,-179.87 173.17,-180.55"/>
</g>
<!-- Node13 -->
<g id="node13" class="node">
<title>Node13</title>
<g id="a_node13"><a target="_parent" xlink:href="../../../cieutils/docs/html/DynamicArray_8hpp.html.html" xlink:title=" ">
<polygon fill="white" stroke="black" points="289.5,-140 289.5,-170 420.5,-170 420.5,-140 289.5,-140"/>
<text text-anchor="start" x="297.5" y="-158" font-family="Helvetica,sans-Serif" font-size="10.00">packages/stl_extension</text>
<text text-anchor="middle" x="355" y="-147" font-family="Helvetica,sans-Serif" font-size="10.00">/inc/DynamicArray.hpp</text>
</a>
</g>
</g>
<!-- Node5&#45;&gt;Node13 -->
<g id="edge13" class="edge">
<title>Node5&#45;&gt;Node13</title>
<path fill="none" stroke="midnightblue" d="M365.1,-290.13C368.37,-280.14 372.31,-266.44 374,-254 376.52,-235.5 377.04,-230.42 374,-212 372.21,-201.17 368.61,-189.63 365.01,-179.85"/>
<polygon fill="midnightblue" stroke="midnightblue" points="368.23,-178.46 361.35,-170.4 361.7,-180.99 368.23,-178.46"/>
</g>
<!-- Node14 -->
<g id="node14" class="node">
<title>Node14</title>
<g id="a_node14"><a xlink:href="AttributeContainer_8hpp.html" target="_top" xlink:title=" ">
<polygon fill="white" stroke="black" points="561,-218 561,-248 691,-248 691,-218 561,-218"/>
<text text-anchor="start" x="569" y="-236" font-family="Helvetica,sans-Serif" font-size="10.00">packages/buffer/inc</text>
<text text-anchor="middle" x="626" y="-225" font-family="Helvetica,sans-Serif" font-size="10.00">/AttributeContainer.hpp</text>
</a>
</g>
</g>
<!-- Node5&#45;&gt;Node14 -->
<g id="edge14" class="edge">
<title>Node5&#45;&gt;Node14</title>
<path fill="none" stroke="midnightblue" d="M412.87,-290.49C456.06,-279.04 517.23,-262.83 562.97,-250.71"/>
<polygon fill="midnightblue" stroke="midnightblue" points="564,-254.05 572.77,-248.11 562.21,-247.29 564,-254.05"/>
</g>
<!-- Node8 -->
<g id="node8" class="node">
<title>Node8</title>
<g id="a_node8"><a xlink:href="types_8hpp.html" target="_top" xlink:title=" ">
<polygon fill="white" stroke="black" points="104,-67.5 104,-97.5 214,-97.5 214,-67.5 104,-67.5"/>
<text text-anchor="start" x="112" y="-85.5" font-family="Helvetica,sans-Serif" font-size="10.00">packages/types/inc</text>
<text text-anchor="middle" x="159" y="-74.5" font-family="Helvetica,sans-Serif" font-size="10.00">/types.hpp</text>
</a>
</g>
</g>
<!-- Node7&#45;&gt;Node8 -->
<g id="edge7" class="edge">
<title>Node7&#45;&gt;Node8</title>
<path fill="none" stroke="midnightblue" d="M85.02,-217.75C85.64,-197.79 88.95,-160.93 104,-134 110.38,-122.6 120.25,-112.35 129.89,-104.11"/>
<polygon fill="midnightblue" stroke="midnightblue" points="132.27,-106.68 137.85,-97.68 127.87,-101.24 132.27,-106.68"/>
</g>
<!-- Node8&#45;&gt;Node6 -->
<g id="edge8" class="edge">
<title>Node8&#45;&gt;Node6</title>
<path fill="none" stroke="midnightblue" d="M214.39,-72.34C225.2,-70.56 236.45,-68.71 247,-67 342.61,-51.46 454.59,-33.58 515.96,-23.82"/>
<polygon fill="midnightblue" stroke="midnightblue" points="516.76,-27.23 526.09,-22.21 515.66,-20.32 516.76,-27.23"/>
</g>
<!-- Node8&#45;&gt;Node9 -->
<g id="edge9" class="edge">
<title>Node8&#45;&gt;Node9</title>
<path fill="none" stroke="midnightblue" d="M129.27,-67.4C105.45,-56.09 72.29,-40.36 49.17,-29.39"/>
<polygon fill="midnightblue" stroke="midnightblue" points="50.47,-26.13 39.93,-25.01 47.46,-32.46 50.47,-26.13"/>
</g>
<!-- Node10 -->
<g id="node10" class="node">
<title>Node10</title>
<g id="a_node10"><a xlink:title=" ">
<polygon fill="white" stroke="#bfbfbf" points="101,-0.5 101,-30.5 217,-30.5 217,-0.5 101,-0.5"/>
<text text-anchor="start" x="109" y="-18.5" font-family="Helvetica,sans-Serif" font-size="10.00">packages/traits/impl</text>
<text text-anchor="middle" x="159" y="-7.5" font-family="Helvetica,sans-Serif" font-size="10.00">/types_impl.hpp</text>
</a>
</g>
</g>
<!-- Node8&#45;&gt;Node10 -->
<g id="edge10" class="edge">
<title>Node8&#45;&gt;Node10</title>
<path fill="none" stroke="midnightblue" d="M159,-67.4C159,-59.64 159,-49.81 159,-40.86"/>
<polygon fill="midnightblue" stroke="midnightblue" points="162.5,-40.58 159,-30.58 155.5,-40.58 162.5,-40.58"/>
</g>
<!-- Node14&#45;&gt;Node6 -->
<g id="edge15" class="edge">
<title>Node14&#45;&gt;Node6</title>
<path fill="none" stroke="midnightblue" d="M681.45,-217.94C742.25,-202.4 831.6,-179.13 834,-176 845.35,-161.18 844.25,-149.6 834,-134 783.55,-57.25 671.15,-30.4 607.76,-21.18"/>
<polygon fill="midnightblue" stroke="midnightblue" points="608.03,-17.69 597.65,-19.8 607.08,-24.62 608.03,-17.69"/>
</g>
<!-- Node14&#45;&gt;Node12 -->
<g id="edge16" class="edge">
<title>Node14&#45;&gt;Node12</title>
<path fill="none" stroke="midnightblue" d="M560.88,-221.94C491.27,-211.08 377.71,-193.04 280,-176 267.88,-173.89 255.01,-171.56 242.54,-169.25"/>
<polygon fill="midnightblue" stroke="midnightblue" points="243.13,-165.8 232.66,-167.42 241.85,-172.68 243.13,-165.8"/>
</g>
<!-- Node14&#45;&gt;Node13 -->
<g id="edge19" class="edge">
<title>Node14&#45;&gt;Node13</title>
<path fill="none" stroke="midnightblue" d="M575.98,-217.97C530.48,-205.21 463.25,-186.36 414.9,-172.8"/>
<polygon fill="midnightblue" stroke="midnightblue" points="415.76,-169.41 405.19,-170.07 413.87,-176.15 415.76,-169.41"/>
</g>
<!-- Node15 -->
<g id="node15" class="node">
<title>Node15</title>
<g id="a_node15"><a target="_parent" xlink:href="../../../cieutils/docs/html/basic__concepts_8hpp.html.html" xlink:title=" ">
<polygon fill="white" stroke="black" points="439,-134.5 439,-175.5 571,-175.5 571,-134.5 439,-134.5"/>
<text text-anchor="start" x="447" y="-163.5" font-family="Helvetica,sans-Serif" font-size="10.00">packages/compile_time</text>
<text text-anchor="start" x="447" y="-152.5" font-family="Helvetica,sans-Serif" font-size="10.00">/packages/concepts/inc</text>
<text text-anchor="middle" x="505" y="-141.5" font-family="Helvetica,sans-Serif" font-size="10.00">/basic_concepts.hpp</text>
</a>
</g>
</g>
<!-- Node14&#45;&gt;Node15 -->
<g id="edge17" class="edge">
<title>Node14&#45;&gt;Node15</title>
<path fill="none" stroke="midnightblue" d="M603.52,-217.88C587.17,-207.61 564.57,-193.42 545.15,-181.22"/>
<polygon fill="midnightblue" stroke="midnightblue" points="546.81,-178.13 536.48,-175.77 543.08,-184.05 546.81,-178.13"/>
</g>
<!-- Node14&#45;&gt;Node16 -->
<g id="edge20" class="edge">
<title>Node14&#45;&gt;Node16</title>
<path fill="none" stroke="midnightblue" d="M691.13,-220.29C706.5,-217.55 722.82,-214.66 738,-212 831.28,-195.68 855.63,-196.87 948,-176 960.37,-173.21 973.79,-169.58 985.6,-166.19"/>
<polygon fill="midnightblue" stroke="midnightblue" points="986.88,-169.46 995.49,-163.29 984.91,-162.74 986.88,-169.46"/>
</g>
<!-- Node14&#45;&gt;Node17 -->
<g id="edge21" class="edge">
<title>Node14&#45;&gt;Node17</title>
<path fill="none" stroke="midnightblue" d="M680.77,-217.91C688.89,-215.89 697.15,-213.86 705,-212 776.76,-194.95 797.15,-199.69 867,-176 872.79,-174.03 878.85,-171.53 884.52,-168.95"/>
<polygon fill="midnightblue" stroke="midnightblue" points="886.06,-172.1 893.6,-164.65 883.06,-165.77 886.06,-172.1"/>
</g>
<!-- Node18 -->
<g id="node18" class="node">
<title>Node18</title>
<g id="a_node18"><a xlink:title=" ">
<polygon fill="white" stroke="#bfbfbf" points="765,-145.5 765,-164.5 825,-164.5 825,-145.5 765,-145.5"/>
<text text-anchor="middle" x="795" y="-152.5" font-family="Helvetica,sans-Serif" font-size="10.00">concepts</text>
</a>
</g>
</g>
<!-- Node14&#45;&gt;Node18 -->
<g id="edge22" class="edge">
<title>Node14&#45;&gt;Node18</title>
<path fill="none" stroke="midnightblue" d="M660.22,-218C686.6,-207.03 723.88,-191.13 756,-176 760.5,-173.88 765.24,-171.54 769.8,-169.23"/>
<polygon fill="midnightblue" stroke="midnightblue" points="771.5,-172.29 778.8,-164.61 768.31,-166.07 771.5,-172.29"/>
</g>
<!-- Node19 -->
<g id="node19" class="node">
<title>Node19</title>
<g id="a_node19"><a xlink:title=" ">
<polygon fill="white" stroke="#bfbfbf" points="589,-140 589,-170 747,-170 747,-140 589,-140"/>
<text text-anchor="start" x="597" y="-158" font-family="Helvetica,sans-Serif" font-size="10.00">packages/buffer/impl</text>
<text text-anchor="middle" x="668" y="-147" font-family="Helvetica,sans-Serif" font-size="10.00">/AttributeContainer_impl.hpp</text>
</a>
</g>
</g>
<!-- Node14&#45;&gt;Node19 -->
<g id="edge23" class="edge">
<title>Node14&#45;&gt;Node19</title>
<path fill="none" stroke="midnightblue" d="M633.9,-217.7C639.88,-206.88 648.23,-191.77 655.17,-179.22"/>
<polygon fill="midnightblue" stroke="midnightblue" points="658.36,-180.68 660.14,-170.23 652.24,-177.29 658.36,-180.68"/>
</g>
<!-- Node15&#45;&gt;Node8 -->
<g id="edge18" class="edge">
<title>Node15&#45;&gt;Node8</title>
<path fill="none" stroke="midnightblue" d="M438.75,-136.26C435.46,-135.48 432.19,-134.72 429,-134 359.36,-118.35 278.85,-103.73 223.99,-94.3"/>
<polygon fill="midnightblue" stroke="midnightblue" points="224.5,-90.83 214.05,-92.59 223.32,-97.73 224.5,-90.83"/>
</g>
<!-- Node20&#45;&gt;Node6 -->
<g id="edge25" class="edge">
<title>Node20&#45;&gt;Node6</title>
<path fill="none" stroke="midnightblue" d="M936.24,-290.28C950.99,-259.1 980.49,-183.57 948,-134 910.15,-76.26 701.75,-37.78 607.87,-23.13"/>
<polygon fill="midnightblue" stroke="midnightblue" points="608.23,-19.64 597.81,-21.58 607.16,-26.56 608.23,-19.64"/>
</g>
<!-- Node20&#45;&gt;Node14 -->
<g id="edge26" class="edge">
<title>Node20&#45;&gt;Node14</title>
<path fill="none" stroke="midnightblue" d="M874.83,-291.9C824.91,-280.28 750.55,-262.98 696.12,-250.31"/>
<polygon fill="midnightblue" stroke="midnightblue" points="696.73,-246.86 686.2,-248.01 695.14,-253.68 696.73,-246.86"/>
</g>
<!-- Node20&#45;&gt;Node16 -->
<g id="edge29" class="edge">
<title>Node20&#45;&gt;Node16</title>
<path fill="none" stroke="midnightblue" d="M947.33,-290.18C958.29,-280.84 971.83,-267.85 981,-254 997.74,-228.72 1008.76,-194.98 1014.43,-174.4"/>
<polygon fill="midnightblue" stroke="midnightblue" points="1017.82,-175.27 1016.97,-164.71 1011.05,-173.5 1017.82,-175.27"/>
</g>
<!-- Node21 -->
<g id="node21" class="node">
<title>Node21</title>
<g id="a_node21"><a target="_parent" xlink:href="../../../cieutils/docs/html/StaticArray_8hpp.html.html" xlink:title=" ">
<polygon fill="white" stroke="black" points="747.5,-218 747.5,-248 878.5,-248 878.5,-218 747.5,-218"/>
<text text-anchor="start" x="755.5" y="-236" font-family="Helvetica,sans-Serif" font-size="10.00">packages/stl_extension</text>
<text text-anchor="middle" x="813" y="-225" font-family="Helvetica,sans-Serif" font-size="10.00">/inc/StaticArray.hpp</text>
</a>
</g>
</g>
<!-- Node20&#45;&gt;Node21 -->
<g id="edge27" class="edge">
<title>Node20&#45;&gt;Node21</title>
<path fill="none" stroke="midnightblue" d="M905.8,-290.4C888.34,-279.79 864.19,-265.11 844.91,-253.39"/>
<polygon fill="midnightblue" stroke="midnightblue" points="846.52,-250.28 836.16,-248.07 842.88,-256.26 846.52,-250.28"/>
</g>
<!-- Node22 -->
<g id="node22" class="node">
<title>Node22</title>
<g id="a_node22"><a xlink:title=" ">
<polygon fill="white" stroke="#bfbfbf" points="897,-223.5 897,-242.5 939,-242.5 939,-223.5 897,-223.5"/>
<text text-anchor="middle" x="918" y="-230.5" font-family="Helvetica,sans-Serif" font-size="10.00">array</text>
</a>
</g>
</g>
<!-- Node20&#45;&gt;Node22 -->
<g id="edge28" class="edge">
<title>Node20&#45;&gt;Node22</title>
<path fill="none" stroke="midnightblue" d="M926.77,-290.23C925.1,-279.5 922.79,-264.69 920.96,-252.96"/>
<polygon fill="midnightblue" stroke="midnightblue" points="924.39,-252.23 919.39,-242.89 917.47,-253.31 924.39,-252.23"/>
</g>
</g>
</svg>
        <g id="navigator" transform="translate(0 0)" fill="#404254">
                <rect fill="#f2f5e9" fill-opacity="0.5" stroke="#606060" stroke-width=".5" x="0" y="0" width="60" height="60"/>
                <use id="zoomplus" xlink:href="#zoomPlus" x="17" y="9" onmousedown="handleZoom(evt,'in')"/>
                <use id="zoomminus" xlink:href="#zoomMin" x="42" y="9" onmousedown="handleZoom(evt,'out')"/>
                <use id="reset" xlink:href="#resetDef" x="30" y="36" onmousedown="handleReset()"/>
                <g id="arrowUp" xlink:href="#dirArrow" transform="translate(30 24)" onmousedown="handlePan(0,-1)">
                  <use xlink:href="#rim" fill="#404040">
                        <set attributeName="fill" to="#808080" begin="arrowUp.mouseover" end="arrowUp.mouseout"/>
                  </use>
                  <path fill="none" stroke="white" stroke-width="1.5" d="M0,-3.0v7 M-2.5,-0.5L0,-3.0L2.5,-0.5"/>
                </g>
                <g id="arrowRight" xlink:href="#dirArrow" transform="rotate(90) translate(36 -43)" onmousedown="handlePan(1,0)">
                  <use xlink:href="#rim" fill="#404040">
                        <set attributeName="fill" to="#808080" begin="arrowRight.mouseover" end="arrowRight.mouseout"/>
                  </use>
                  <path fill="none" stroke="white" stroke-width="1.5" d="M0,-3.0v7 M-2.5,-0.5L0,-3.0L2.5,-0.5"/>
                </g>
                <g id="arrowDown" xlink:href="#dirArrow" transform="rotate(180) translate(-30 -48)" onmousedown="handlePan(0,1)">
                  <use xlink:href="#rim" fill="#404040">
                        <set attributeName="fill" to="#808080" begin="arrowDown.mouseover" end="arrowDown.mouseout"/>
                  </use>
                  <path fill="none" stroke="white" stroke-width="1.5" d="M0,-3.0v7 M-2.5,-0.5L0,-3.0L2.5,-0.5"/>
                </g>
                <g id="arrowLeft" xlink:href="#dirArrow" transform="rotate(270) translate(-36 17)" onmousedown="handlePan(-1,0)">
                  <use xlink:href="#rim" fill="#404040">
                        <set attributeName="fill" to="#808080" begin="arrowLeft.mouseover" end="arrowLeft.mouseout"/>
                  </use>
                  <path fill="none" stroke="white" stroke-width="1.5" d="M0,-3.0v7 M-2.5,-0.5L0,-3.0L2.5,-0.5"/>
                </g>
        </g>
        <svg viewBox="0 0 15 15" width="100%" height="30px" preserveAspectRatio="xMaxYMin meet">
         <g id="arrow_out" transform="scale(0.3 0.3)">
          <a xlink:href="STLPart_8hpp__incl_org.svg" target="_base">
           <rect id="button" ry="5" rx="5" y="6" x="6" height="38" width="38"
                fill="#f2f5e9" fill-opacity="0.5" stroke="#606060" stroke-width="1.0"/>
           <path id="arrow"
             d="M 11.500037,31.436501 C 11.940474,20.09759 22.043105,11.32322 32.158766,21.979434 L 37.068811,17.246167 C 37.068811,17.246167 37.088388,32 37.088388,32 L 22.160133,31.978069 C 22.160133,31.978069 26.997745,27.140456 26.997745,27.140456 C 18.528582,18.264221 13.291696,25.230495 11.500037,31.436501 z"
             style="fill:#404040;"/>
          </a>
         </g>
        </svg>
</svg>
