<?xml version="1.0" encoding="UTF-8" standalone="no"?>
<!DOCTYPE svg PUBLIC "-//W3C//DTD SVG 1.1//EN"
 "http://www.w3.org/Graphics/SVG/1.1/DTD/svg11.dtd">
<!-- Generated by graphviz version 2.43.0 (0)
 -->
<!-- Title: cie::gl::Plot2&lt; TObject &gt; Pages: 1 -->
<!--zoomable 597 -->
<svg id="main" version="1.1" xmlns="http://www.w3.org/2000/svg" xmlns:xlink="http://www.w3.org/1999/xlink" xml:space="preserve" onload="init(evt)">
<style type="text/css"><![CDATA[
.edge:hover path { stroke: red; }
.edge:hover polygon { stroke: red; fill: red; }
]]></style>
<script type="text/javascript"><![CDATA[
var edges = document.getElementsByTagName('g');
if (edges && edges.length) {
  for (var i=0;i<edges.length;i++) {
    if (edges[i].id.substr(0,4)=='edge') {
      edges[i].setAttribute('class','edge');
    }
  }
}
]]></script>
        <defs>
                <circle id="rim" cx="0" cy="0" r="7"/>
                <circle id="rim2" cx="0" cy="0" r="3.5"/>
                <g id="zoomPlus">
                        <use xlink:href="#rim" fill="#404040">
                                <set attributeName="fill" to="#808080" begin="zoomplus.mouseover" end="zoomplus.mouseout"/>
                        </use>
                        <path d="M-4,0h8M0,-4v8" fill="none" stroke="white" stroke-width="1.5" pointer-events="none"/>
                </g>
                <g id="zoomMin">
                        <use xlink:href="#rim" fill="#404040">
                                <set attributeName="fill" to="#808080" begin="zoomminus.mouseover" end="zoomminus.mouseout"/>
                        </use>
                        <path d="M-4,0h8" fill="none" stroke="white" stroke-width="1.5" pointer-events="none"/>
                </g>
                <g id="dirArrow">
                        <path fill="none" stroke="white" stroke-width="1.5" d="M0,-3.0v7 M-2.5,-0.5L0,-3.0L2.5,-0.5"/>
                </g>
               <g id="resetDef">
                       <use xlink:href="#rim2" fill="#404040">
                               <set attributeName="fill" to="#808080" begin="reset.mouseover" end="reset.mouseout"/>
                       </use>
               </g>
        </defs>

<script type="text/javascript">
var viewWidth = 841;
var viewHeight = 597;
var sectionId = 'dynsection-1';
</script>
<script xlink:href="svgpan.js"/>
<svg id="graph" class="graph">
<g id="viewport">
<title>cie::gl::Plot2&lt; TObject &gt;</title>
<polygon fill="white" stroke="transparent" points="-4,4 -4,-593 837.31,-593 837.31,4 -4,4"/>
<!-- Node1 -->
<g id="node1" class="node">
<title>Node1</title>
<g id="a_node1"><a xlink:title=" ">
<polygon fill="#bfbfbf" stroke="black" points="347.31,-0.5 347.31,-57.5 484.31,-57.5 484.31,-0.5 347.31,-0.5"/>
<text text-anchor="middle" x="415.81" y="-45.5" font-family="Helvetica,sans-Serif" font-size="10.00">cie::gl::Plot2&lt; TObject &gt;</text>
<polyline fill="none" stroke="black" points="347.31,-38.5 484.31,-38.5 "/>
<text text-anchor="middle" x="415.81" y="-26.5" font-family="Helvetica,sans-Serif" font-size="10.00"> </text>
<polyline fill="none" stroke="black" points="347.31,-19.5 484.31,-19.5 "/>
<text text-anchor="start" x="355.31" y="-7.5" font-family="Helvetica,sans-Serif" font-size="10.00">+ Plot2()</text>
</a>
</g>
</g>
<!-- Node2 -->
<g id="node2" class="node">
<title>Node2</title>
<g id="a_node2"><a xlink:href="classcie_1_1gl_1_1AbsPlot2.html" target="_top" xlink:title=" ">
<polygon fill="white" stroke="black" points="364.31,-95.5 364.31,-185.5 467.31,-185.5 467.31,-95.5 364.31,-95.5"/>
<text text-anchor="start" x="372.31" y="-173.5" font-family="Helvetica,sans-Serif" font-size="10.00">cie::gl::AbsPlot2&lt;</text>
<text text-anchor="middle" x="415.81" y="-162.5" font-family="Helvetica,sans-Serif" font-size="10.00"> std::true_type &gt;</text>
<polyline fill="none" stroke="black" points="364.31,-155.5 467.31,-155.5 "/>
<text text-anchor="middle" x="415.81" y="-143.5" font-family="Helvetica,sans-Serif" font-size="10.00"> </text>
<polyline fill="none" stroke="black" points="364.31,-136.5 467.31,-136.5 "/>
<text text-anchor="start" x="372.31" y="-124.5" font-family="Helvetica,sans-Serif" font-size="10.00">+ AbsPlot2()</text>
<text text-anchor="start" x="372.31" y="-113.5" font-family="Helvetica,sans-Serif" font-size="10.00">+ AbsPlot2()</text>
<text text-anchor="start" x="372.31" y="-102.5" font-family="Helvetica,sans-Serif" font-size="10.00">+ fit()</text>
</a>
</g>
</g>
<!-- Node2&#45;&gt;Node1 -->
<g id="edge1" class="edge">
<title>Node2&#45;&gt;Node1</title>
<path fill="none" stroke="midnightblue" d="M415.81,-85.04C415.81,-75.56 415.81,-66.06 415.81,-57.69"/>
<polygon fill="none" stroke="midnightblue" points="412.31,-85.28 415.81,-95.28 419.31,-85.28 412.31,-85.28"/>
</g>
<!-- Node3 -->
<g id="node3" class="node">
<title>Node3</title>
<g id="a_node3"><a xlink:href="classcie_1_1gl_1_1AbsPlot.html" target="_top" xlink:title=" ">
<polygon fill="white" stroke="black" points="370.31,-371.5 370.31,-483.5 459.31,-483.5 459.31,-371.5 370.31,-371.5"/>
<text text-anchor="middle" x="414.81" y="-471.5" font-family="Helvetica,sans-Serif" font-size="10.00">cie::gl::AbsPlot</text>
<polyline fill="none" stroke="black" points="370.31,-464.5 459.31,-464.5 "/>
<text text-anchor="middle" x="414.81" y="-452.5" font-family="Helvetica,sans-Serif" font-size="10.00"> </text>
<polyline fill="none" stroke="black" points="370.31,-445.5 459.31,-445.5 "/>
<text text-anchor="start" x="378.31" y="-433.5" font-family="Helvetica,sans-Serif" font-size="10.00">+ AbsPlot()</text>
<text text-anchor="start" x="378.31" y="-422.5" font-family="Helvetica,sans-Serif" font-size="10.00">+ AbsPlot()</text>
<text text-anchor="start" x="378.31" y="-411.5" font-family="Helvetica,sans-Serif" font-size="10.00">+ update()</text>
<text text-anchor="start" x="378.31" y="-400.5" font-family="Helvetica,sans-Serif" font-size="10.00">+ fit()</text>
<text text-anchor="start" x="378.31" y="-389.5" font-family="Helvetica,sans-Serif" font-size="10.00">+ show()</text>
<text text-anchor="start" x="378.31" y="-378.5" font-family="Helvetica,sans-Serif" font-size="10.00">+ attributes()</text>
</a>
</g>
</g>
<!-- Node3&#45;&gt;Node2 -->
<g id="edge2" class="edge">
<title>Node3&#45;&gt;Node2</title>
<path fill="none" stroke="midnightblue" d="M415.04,-361.1C415.23,-307.42 415.49,-232.84 415.65,-185.88"/>
<polygon fill="none" stroke="midnightblue" points="411.54,-361.2 415,-371.21 418.54,-361.22 411.54,-361.2"/>
</g>
<!-- Node9 -->
<g id="node9" class="node">
<title>Node9</title>
<g id="a_node9"><a xlink:href="classcie_1_1gl_1_1AbsPlot2.html" target="_top" xlink:title=" ">
<polygon fill="white" stroke="black" points="444.31,-233.5 444.31,-323.5 547.31,-323.5 547.31,-233.5 444.31,-233.5"/>
<text text-anchor="start" x="452.31" y="-311.5" font-family="Helvetica,sans-Serif" font-size="10.00">cie::gl::AbsPlot2&lt;</text>
<text text-anchor="middle" x="495.81" y="-300.5" font-family="Helvetica,sans-Serif" font-size="10.00"> Tag, Args &gt;</text>
<polyline fill="none" stroke="black" points="444.31,-293.5 547.31,-293.5 "/>
<text text-anchor="middle" x="495.81" y="-281.5" font-family="Helvetica,sans-Serif" font-size="10.00"> </text>
<polyline fill="none" stroke="black" points="444.31,-274.5 547.31,-274.5 "/>
<text text-anchor="start" x="452.31" y="-262.5" font-family="Helvetica,sans-Serif" font-size="10.00">+ AbsPlot2()</text>
<text text-anchor="start" x="452.31" y="-251.5" font-family="Helvetica,sans-Serif" font-size="10.00">+ AbsPlot2()</text>
<text text-anchor="start" x="452.31" y="-240.5" font-family="Helvetica,sans-Serif" font-size="10.00">+ fit()</text>
</a>
</g>
</g>
<!-- Node3&#45;&gt;Node9 -->
<g id="edge11" class="edge">
<title>Node3&#45;&gt;Node9</title>
<path fill="none" stroke="midnightblue" d="M450.11,-362.44C457.26,-349.46 464.63,-336.08 471.31,-323.95"/>
<polygon fill="none" stroke="midnightblue" points="446.96,-360.9 445.2,-371.34 453.09,-364.28 446.96,-360.9"/>
</g>
<!-- Node4 -->
<g id="node4" class="node">
<title>Node4</title>
<g id="a_node4"><a xlink:title=" ">
<polygon fill="white" stroke="#bfbfbf" points="322.31,-531.5 322.31,-588.5 407.31,-588.5 407.31,-531.5 322.31,-531.5"/>
<text text-anchor="middle" x="364.81" y="-576.5" font-family="Helvetica,sans-Serif" font-size="10.00">SharedPointer</text>
<polyline fill="none" stroke="#bfbfbf" points="322.31,-569.5 407.31,-569.5 "/>
<text text-anchor="middle" x="364.81" y="-557.5" font-family="Helvetica,sans-Serif" font-size="10.00"> </text>
<polyline fill="none" stroke="#bfbfbf" points="322.31,-550.5 407.31,-550.5 "/>
<text text-anchor="middle" x="364.81" y="-538.5" font-family="Helvetica,sans-Serif" font-size="10.00"> </text>
</a>
</g>
</g>
<!-- Node4&#45;&gt;Node2 -->
<g id="edge8" class="edge">
<title>Node4&#45;&gt;Node2</title>
<path fill="none" stroke="#404040" d="M322.29,-556.25C238.42,-549.84 56.52,-530.77 18.81,-484 -12.72,-444.91 2.76,-418.59 18.81,-371 43.43,-297.97 61.63,-278.53 123.81,-233 192.32,-182.83 289.11,-159.64 352.16,-149.29"/>
<polygon fill="none" stroke="#404040" points="352.45,-149.25 357.76,-144.37 364.3,-147.39 359,-152.27 352.45,-149.25"/>
<text text-anchor="middle" x="62.31" y="-345" font-family="Helvetica,sans-Serif" font-size="10.00"> #_p_camera</text>
</g>
<!-- Node4&#45;&gt;Node3 -->
<g id="edge3" class="edge">
<title>Node4&#45;&gt;Node3</title>
<path fill="none" stroke="#404040" d="M323.05,-531.25C314.6,-522.24 310.1,-511.99 316.81,-502 326.93,-486.92 339.22,-493.2 359.44,-483.4"/>
<polygon fill="none" stroke="#404040" points="359.7,-483.25 362.83,-476.75 370.03,-477.14 366.9,-483.64 359.7,-483.25"/>
<text text-anchor="middle" x="354.81" y="-505" font-family="Helvetica,sans-Serif" font-size="10.00"> #_p_attributes</text>
</g>
<!-- Node4&#45;&gt;Node3 -->
<g id="edge4" class="edge">
<title>Node4&#45;&gt;Node3</title>
<path fill="none" stroke="#404040" d="M383.34,-531.48C386.82,-525.55 390.18,-519.2 392.81,-513 395.19,-507.39 397.36,-501.45 399.34,-495.43"/>
<polygon fill="none" stroke="#404040" points="399.38,-495.3 397.31,-488.39 402.89,-483.82 404.96,-490.73 399.38,-495.3"/>
<text text-anchor="middle" x="429.81" y="-505" font-family="Helvetica,sans-Serif" font-size="10.00"> #_p_window</text>
</g>
<!-- Node4&#45;&gt;Node9 -->
<g id="edge15" class="edge">
<title>Node4&#45;&gt;Node9</title>
<path fill="none" stroke="#404040" d="M407.31,-550.23C428.53,-543.6 452.63,-532.23 466.81,-513 504.43,-461.97 507.1,-386.99 503.36,-335.86"/>
<polygon fill="none" stroke="#404040" points="503.34,-335.68 498.85,-330.04 502.32,-323.72 506.82,-329.36 503.34,-335.68"/>
<text text-anchor="middle" x="537.31" y="-425" font-family="Helvetica,sans-Serif" font-size="10.00"> #_p_camera</text>
</g>
<!-- Node5 -->
<g id="node5" class="node">
<title>Node5</title>
<g id="a_node5"><a xlink:title=" ">
<polygon fill="white" stroke="#bfbfbf" points="183.31,-399 183.31,-456 352.31,-456 352.31,-399 183.31,-399"/>
<text text-anchor="middle" x="267.81" y="-444" font-family="Helvetica,sans-Serif" font-size="10.00">shared_ptr&lt; index_container &gt;</text>
<polyline fill="none" stroke="#bfbfbf" points="183.31,-437 352.31,-437 "/>
<text text-anchor="middle" x="267.81" y="-425" font-family="Helvetica,sans-Serif" font-size="10.00"> </text>
<polyline fill="none" stroke="#bfbfbf" points="183.31,-418 352.31,-418 "/>
<text text-anchor="middle" x="267.81" y="-406" font-family="Helvetica,sans-Serif" font-size="10.00"> </text>
</a>
</g>
</g>
<!-- Node5&#45;&gt;Node2 -->
<g id="edge5" class="edge">
<title>Node5&#45;&gt;Node2</title>
<path fill="none" stroke="#404040" d="M248.46,-398.95C239.26,-382.35 231.67,-360.86 238.81,-342 262.02,-280.63 313.54,-225.92 355.04,-189.21"/>
<polygon fill="none" stroke="#404040" points="355.21,-189.07 357.12,-182.12 364.27,-181.2 362.36,-188.16 355.21,-189.07"/>
<text text-anchor="middle" x="340.31" y="-276" font-family="Helvetica,sans-Serif" font-size="10.00"> #_p_indices</text>
</g>
<!-- Node5&#45;&gt;Node9 -->
<g id="edge12" class="edge">
<title>Node5&#45;&gt;Node9</title>
<path fill="none" stroke="#404040" d="M305.69,-398.87C329.27,-381.96 360.43,-360.16 388.81,-342 403.1,-332.86 418.74,-323.42 433.54,-314.73"/>
<polygon fill="none" stroke="#404040" points="433.77,-314.59 436.94,-308.12 444.14,-308.55 440.97,-315.03 433.77,-314.59"/>
<text text-anchor="middle" x="420.31" y="-345" font-family="Helvetica,sans-Serif" font-size="10.00"> #_p_indices</text>
</g>
<!-- Node6 -->
<g id="node6" class="node">
<title>Node6</title>
<g id="a_node6"><a xlink:title=" ">
<polygon fill="white" stroke="#bfbfbf" points="28.31,-393.5 28.31,-461.5 165.31,-461.5 165.31,-393.5 28.31,-393.5"/>
<text text-anchor="start" x="36.31" y="-449.5" font-family="Helvetica,sans-Serif" font-size="10.00">shared_ptr&lt; cie::gl</text>
<text text-anchor="middle" x="96.81" y="-438.5" font-family="Helvetica,sans-Serif" font-size="10.00">::AbsPlot2::Plot2Scene &gt;</text>
<polyline fill="none" stroke="#bfbfbf" points="28.31,-431.5 165.31,-431.5 "/>
<text text-anchor="middle" x="96.81" y="-419.5" font-family="Helvetica,sans-Serif" font-size="10.00"> </text>
<polyline fill="none" stroke="#bfbfbf" points="28.31,-412.5 165.31,-412.5 "/>
<text text-anchor="middle" x="96.81" y="-400.5" font-family="Helvetica,sans-Serif" font-size="10.00"> </text>
</a>
</g>
</g>
<!-- Node6&#45;&gt;Node2 -->
<g id="edge6" class="edge">
<title>Node6&#45;&gt;Node2</title>
<path fill="none" stroke="#404040" d="M103.99,-393.29C114.79,-350.76 139.14,-277.29 185.81,-233 231.98,-189.18 301.73,-165.44 352.3,-153.21"/>
<polygon fill="none" stroke="#404040" points="352.39,-153.19 357.33,-147.94 364.08,-150.48 359.13,-155.73 352.39,-153.19"/>
<text text-anchor="middle" x="214.31" y="-276" font-family="Helvetica,sans-Serif" font-size="10.00"> #_p_scene</text>
</g>
<!-- Node6&#45;&gt;Node9 -->
<g id="edge13" class="edge">
<title>Node6&#45;&gt;Node9</title>
<path fill="none" stroke="#404040" d="M137.1,-393.46C148.48,-385.27 161.2,-377.1 173.81,-371 258.76,-329.89 365.5,-304.12 432.21,-290.77"/>
<polygon fill="none" stroke="#404040" points="432.41,-290.73 437.53,-285.65 444.19,-288.42 439.07,-293.5 432.41,-290.73"/>
<text text-anchor="middle" x="270.31" y="-345" font-family="Helvetica,sans-Serif" font-size="10.00"> #_p_scene</text>
</g>
<!-- Node7 -->
<g id="node7" class="node">
<title>Node7</title>
<g id="a_node7"><a xlink:title=" ">
<polygon fill="white" stroke="#bfbfbf" points="579.31,-393.5 579.31,-461.5 698.31,-461.5 698.31,-393.5 579.31,-393.5"/>
<text text-anchor="start" x="587.31" y="-449.5" font-family="Helvetica,sans-Serif" font-size="10.00">shared_ptr&lt; controls</text>
<text text-anchor="middle" x="638.81" y="-438.5" font-family="Helvetica,sans-Serif" font-size="10.00">_type &gt;</text>
<polyline fill="none" stroke="#bfbfbf" points="579.31,-431.5 698.31,-431.5 "/>
<text text-anchor="middle" x="638.81" y="-419.5" font-family="Helvetica,sans-Serif" font-size="10.00"> </text>
<polyline fill="none" stroke="#bfbfbf" points="579.31,-412.5 698.31,-412.5 "/>
<text text-anchor="middle" x="638.81" y="-400.5" font-family="Helvetica,sans-Serif" font-size="10.00"> </text>
</a>
</g>
</g>
<!-- Node7&#45;&gt;Node2 -->
<g id="edge7" class="edge">
<title>Node7&#45;&gt;Node2</title>
<path fill="none" stroke="#404040" d="M635.26,-393.18C628.44,-345.13 609.18,-256.43 556.81,-204 535.54,-182.71 505.78,-168.07 479.07,-158.34"/>
<polygon fill="none" stroke="#404040" points="478.8,-158.25 471.83,-160.08 467.46,-154.34 474.43,-152.51 478.8,-158.25"/>
<text text-anchor="middle" x="654.31" y="-276" font-family="Helvetica,sans-Serif" font-size="10.00"> #_p_controls</text>
</g>
<!-- Node7&#45;&gt;Node9 -->
<g id="edge14" class="edge">
<title>Node7&#45;&gt;Node9</title>
<path fill="none" stroke="#404040" d="M594.96,-393.25C580.27,-381.25 564.23,-367.16 550.81,-353 545.06,-346.94 539.36,-340.28 533.93,-333.52"/>
<polygon fill="none" stroke="#404040" points="533.58,-333.06 526.73,-330.79 526.2,-323.6 533.04,-325.87 533.58,-333.06"/>
<text text-anchor="middle" x="584.31" y="-345" font-family="Helvetica,sans-Serif" font-size="10.00"> #_p_controls</text>
</g>
<!-- Node8 -->
<g id="node8" class="node">
<title>Node8</title>
<g id="a_node8"><a xlink:title=" ">
<polygon fill="white" stroke="#bfbfbf" points="716.31,-393.5 716.31,-461.5 833.31,-461.5 833.31,-393.5 716.31,-393.5"/>
<text text-anchor="start" x="724.31" y="-449.5" font-family="Helvetica,sans-Serif" font-size="10.00">vector&lt; vertex_type</text>
<text text-anchor="middle" x="774.81" y="-438.5" font-family="Helvetica,sans-Serif" font-size="10.00">::SharedPointer &gt;</text>
<polyline fill="none" stroke="#bfbfbf" points="716.31,-431.5 833.31,-431.5 "/>
<text text-anchor="middle" x="774.81" y="-419.5" font-family="Helvetica,sans-Serif" font-size="10.00"> </text>
<polyline fill="none" stroke="#bfbfbf" points="716.31,-412.5 833.31,-412.5 "/>
<text text-anchor="middle" x="774.81" y="-400.5" font-family="Helvetica,sans-Serif" font-size="10.00"> </text>
</a>
</g>
</g>
<!-- Node8&#45;&gt;Node2 -->
<g id="edge9" class="edge">
<title>Node8&#45;&gt;Node2</title>
<path fill="none" stroke="#404040" d="M769.21,-393.27C760.29,-350.38 738.79,-276.14 691.81,-233 632.85,-178.85 541.03,-156.68 479.68,-147.64"/>
<polygon fill="none" stroke="#404040" points="479.35,-147.6 472.86,-150.74 467.46,-145.96 473.95,-142.81 479.35,-147.6"/>
<text text-anchor="middle" x="775.81" y="-276" font-family="Helvetica,sans-Serif" font-size="10.00"> #_vertices</text>
</g>
<!-- Node8&#45;&gt;Node9 -->
<g id="edge16" class="edge">
<title>Node8&#45;&gt;Node9</title>
<path fill="none" stroke="#404040" d="M738.66,-393.4C729.04,-385.49 718.37,-377.47 707.81,-371 681.69,-355 611.23,-325.51 558.67,-304.33"/>
<polygon fill="none" stroke="#404040" points="558.54,-304.28 551.49,-305.75 547.41,-299.81 554.47,-298.33 558.54,-304.28"/>
<text text-anchor="middle" x="696.81" y="-345" font-family="Helvetica,sans-Serif" font-size="10.00"> #_vertices</text>
</g>
<!-- Node9&#45;&gt;Node2 -->
<g id="edge10" class="edge">
<title>Node9&#45;&gt;Node2</title>
<path fill="none" stroke="orange" d="M464.71,-224.63C457.17,-211.82 449.2,-198.27 441.92,-185.9"/>
<polygon fill="orange" stroke="orange" points="461.75,-226.5 469.83,-233.34 467.78,-222.95 461.75,-226.5"/>
<text text-anchor="middle" x="505.81" y="-207" font-family="Helvetica,sans-Serif" font-size="10.00"> &lt; std::true_type &gt;</text>
</g>
</g>
</svg>
        <g id="navigator" transform="translate(0 0)" fill="#404254">
                <rect fill="#f2f5e9" fill-opacity="0.5" stroke="#606060" stroke-width=".5" x="0" y="0" width="60" height="60"/>
                <use id="zoomplus" xlink:href="#zoomPlus" x="17" y="9" onmousedown="handleZoom(evt,'in')"/>
                <use id="zoomminus" xlink:href="#zoomMin" x="42" y="9" onmousedown="handleZoom(evt,'out')"/>
                <use id="reset" xlink:href="#resetDef" x="30" y="36" onmousedown="handleReset()"/>
                <g id="arrowUp" xlink:href="#dirArrow" transform="translate(30 24)" onmousedown="handlePan(0,-1)">
                  <use xlink:href="#rim" fill="#404040">
                        <set attributeName="fill" to="#808080" begin="arrowUp.mouseover" end="arrowUp.mouseout"/>
                  </use>
                  <path fill="none" stroke="white" stroke-width="1.5" d="M0,-3.0v7 M-2.5,-0.5L0,-3.0L2.5,-0.5"/>
                </g>
                <g id="arrowRight" xlink:href="#dirArrow" transform="rotate(90) translate(36 -43)" onmousedown="handlePan(1,0)">
                  <use xlink:href="#rim" fill="#404040">
                        <set attributeName="fill" to="#808080" begin="arrowRight.mouseover" end="arrowRight.mouseout"/>
                  </use>
                  <path fill="none" stroke="white" stroke-width="1.5" d="M0,-3.0v7 M-2.5,-0.5L0,-3.0L2.5,-0.5"/>
                </g>
                <g id="arrowDown" xlink:href="#dirArrow" transform="rotate(180) translate(-30 -48)" onmousedown="handlePan(0,1)">
                  <use xlink:href="#rim" fill="#404040">
                        <set attributeName="fill" to="#808080" begin="arrowDown.mouseover" end="arrowDown.mouseout"/>
                  </use>
                  <path fill="none" stroke="white" stroke-width="1.5" d="M0,-3.0v7 M-2.5,-0.5L0,-3.0L2.5,-0.5"/>
                </g>
                <g id="arrowLeft" xlink:href="#dirArrow" transform="rotate(270) translate(-36 17)" onmousedown="handlePan(-1,0)">
                  <use xlink:href="#rim" fill="#404040">
                        <set attributeName="fill" to="#808080" begin="arrowLeft.mouseover" end="arrowLeft.mouseout"/>
                  </use>
                  <path fill="none" stroke="white" stroke-width="1.5" d="M0,-3.0v7 M-2.5,-0.5L0,-3.0L2.5,-0.5"/>
                </g>
        </g>
        <svg viewBox="0 0 15 15" width="100%" height="30px" preserveAspectRatio="xMaxYMin meet">
         <g id="arrow_out" transform="scale(0.3 0.3)">
          <a xlink:href="structcie_1_1gl_1_1Plot2_3_01TObject_01_4__coll__graph_org.svg" target="_base">
           <rect id="button" ry="5" rx="5" y="6" x="6" height="38" width="38"
                fill="#f2f5e9" fill-opacity="0.5" stroke="#606060" stroke-width="1.0"/>
           <path id="arrow"
             d="M 11.500037,31.436501 C 11.940474,20.09759 22.043105,11.32322 32.158766,21.979434 L 37.068811,17.246167 C 37.068811,17.246167 37.088388,32 37.088388,32 L 22.160133,31.978069 C 22.160133,31.978069 26.997745,27.140456 26.997745,27.140456 C 18.528582,18.264221 13.291696,25.230495 11.500037,31.436501 z"
             style="fill:#404040;"/>
          </a>
         </g>
        </svg>
</svg>
