<?xml version="1.0" encoding="UTF-8" standalone="no"?>
<!DOCTYPE svg PUBLIC "-//W3C//DTD SVG 1.1//EN"
 "http://www.w3.org/Graphics/SVG/1.1/DTD/svg11.dtd">
<!-- Generated by graphviz version 2.43.0 (0)
 -->
<!-- Title: cie::gl::Plot2&lt; TObject &gt; Pages: 1 -->
<!--zoomable 581 -->
<svg id="main" version="1.1" xmlns="http://www.w3.org/2000/svg" xmlns:xlink="http://www.w3.org/1999/xlink" xml:space="preserve" onload="init(evt)">
<style type="text/css"><![CDATA[
.edge:hover path { stroke: red; }
.edge:hover polygon { stroke: red; fill: red; }
]]></style>
<script type="text/javascript"><![CDATA[
var edges = document.getElementsByTagName('g');
if (edges && edges.length) {
  for (var i=0;i<edges.length;i++) {
    if (edges[i].id.substr(0,4)=='edge') {
      edges[i].setAttribute('class','edge');
    }
  }
}
]]></script>
        <defs>
                <circle id="rim" cx="0" cy="0" r="7"/>
                <circle id="rim2" cx="0" cy="0" r="3.5"/>
                <g id="zoomPlus">
                        <use xlink:href="#rim" fill="#404040">
                                <set attributeName="fill" to="#808080" begin="zoomplus.mouseover" end="zoomplus.mouseout"/>
                        </use>
                        <path d="M-4,0h8M0,-4v8" fill="none" stroke="white" stroke-width="1.5" pointer-events="none"/>
                </g>
                <g id="zoomMin">
                        <use xlink:href="#rim" fill="#404040">
                                <set attributeName="fill" to="#808080" begin="zoomminus.mouseover" end="zoomminus.mouseout"/>
                        </use>
                        <path d="M-4,0h8" fill="none" stroke="white" stroke-width="1.5" pointer-events="none"/>
                </g>
                <g id="dirArrow">
                        <path fill="none" stroke="white" stroke-width="1.5" d="M0,-3.0v7 M-2.5,-0.5L0,-3.0L2.5,-0.5"/>
                </g>
               <g id="resetDef">
                       <use xlink:href="#rim2" fill="#404040">
                               <set attributeName="fill" to="#808080" begin="reset.mouseover" end="reset.mouseout"/>
                       </use>
               </g>
        </defs>

<script type="text/javascript">
var viewWidth = 204;
var viewHeight = 581;
var sectionId = 'dynsection-0';
</script>
<script xlink:href="svgpan.js"/>
<svg id="graph" class="graph">
<g id="viewport">
<title>cie::gl::Plot2&lt; TObject &gt;</title>
<polygon fill="white" stroke="transparent" points="-4,4 -4,-577 199.5,-577 199.5,4 -4,4"/>
<!-- Node1 -->
<g id="node1" class="node">
<title>Node1</title>
<g id="a_node1"><a xlink:title=" ">
<polygon fill="#bfbfbf" stroke="black" points="0,-0.5 0,-57.5 137,-57.5 137,-0.5 0,-0.5"/>
<text text-anchor="middle" x="68.5" y="-45.5" font-family="Helvetica,sans-Serif" font-size="10.00">cie::gl::Plot2&lt; TObject &gt;</text>
<polyline fill="none" stroke="black" points="0,-38.5 137,-38.5 "/>
<text text-anchor="middle" x="68.5" y="-26.5" font-family="Helvetica,sans-Serif" font-size="10.00"> </text>
<polyline fill="none" stroke="black" points="0,-19.5 137,-19.5 "/>
<text text-anchor="start" x="8" y="-7.5" font-family="Helvetica,sans-Serif" font-size="10.00">+ Plot2()</text>
</a>
</g>
</g>
<!-- Node2 -->
<g id="node2" class="node">
<title>Node2</title>
<g id="a_node2"><a xlink:href="classcie_1_1gl_1_1AbsPlot2.html" target="_top" xlink:title=" ">
<polygon fill="white" stroke="black" points="17,-95.5 17,-229.5 120,-229.5 120,-95.5 17,-95.5"/>
<text text-anchor="start" x="25" y="-217.5" font-family="Helvetica,sans-Serif" font-size="10.00">cie::gl::AbsPlot2&lt;</text>
<text text-anchor="middle" x="68.5" y="-206.5" font-family="Helvetica,sans-Serif" font-size="10.00"> std::true_type &gt;</text>
<polyline fill="none" stroke="black" points="17,-199.5 120,-199.5 "/>
<text text-anchor="start" x="25" y="-187.5" font-family="Helvetica,sans-Serif" font-size="10.00"># _vertices</text>
<text text-anchor="start" x="25" y="-176.5" font-family="Helvetica,sans-Serif" font-size="10.00"># _p_indices</text>
<text text-anchor="start" x="25" y="-165.5" font-family="Helvetica,sans-Serif" font-size="10.00"># _p_camera</text>
<text text-anchor="start" x="25" y="-154.5" font-family="Helvetica,sans-Serif" font-size="10.00"># _p_scene</text>
<text text-anchor="start" x="25" y="-143.5" font-family="Helvetica,sans-Serif" font-size="10.00"># _p_controls</text>
<polyline fill="none" stroke="black" points="17,-136.5 120,-136.5 "/>
<text text-anchor="start" x="25" y="-124.5" font-family="Helvetica,sans-Serif" font-size="10.00">+ AbsPlot2()</text>
<text text-anchor="start" x="25" y="-113.5" font-family="Helvetica,sans-Serif" font-size="10.00">+ AbsPlot2()</text>
<text text-anchor="start" x="25" y="-102.5" font-family="Helvetica,sans-Serif" font-size="10.00">+ fit()</text>
</a>
</g>
</g>
<!-- Node2&#45;&gt;Node1 -->
<g id="edge1" class="edge">
<title>Node2&#45;&gt;Node1</title>
<path fill="none" stroke="midnightblue" d="M68.5,-85.12C68.5,-75.36 68.5,-65.92 68.5,-57.7"/>
<polygon fill="none" stroke="midnightblue" points="65,-85.36 68.5,-95.36 72,-85.36 65,-85.36"/>
</g>
<!-- Node3 -->
<g id="node3" class="node">
<title>Node3</title>
<g id="a_node3"><a xlink:href="classcie_1_1gl_1_1AbsPlot.html" target="_top" xlink:title=" ">
<polygon fill="white" stroke="black" points="18.5,-449.5 18.5,-572.5 110.5,-572.5 110.5,-449.5 18.5,-449.5"/>
<text text-anchor="middle" x="64.5" y="-560.5" font-family="Helvetica,sans-Serif" font-size="10.00">cie::gl::AbsPlot</text>
<polyline fill="none" stroke="black" points="18.5,-553.5 110.5,-553.5 "/>
<text text-anchor="start" x="26.5" y="-541.5" font-family="Helvetica,sans-Serif" font-size="10.00"># _p_window</text>
<text text-anchor="start" x="26.5" y="-530.5" font-family="Helvetica,sans-Serif" font-size="10.00"># _p_attributes</text>
<polyline fill="none" stroke="black" points="18.5,-523.5 110.5,-523.5 "/>
<text text-anchor="start" x="26.5" y="-511.5" font-family="Helvetica,sans-Serif" font-size="10.00">+ AbsPlot()</text>
<text text-anchor="start" x="26.5" y="-500.5" font-family="Helvetica,sans-Serif" font-size="10.00">+ AbsPlot()</text>
<text text-anchor="start" x="26.5" y="-489.5" font-family="Helvetica,sans-Serif" font-size="10.00">+ update()</text>
<text text-anchor="start" x="26.5" y="-478.5" font-family="Helvetica,sans-Serif" font-size="10.00">+ fit()</text>
<text text-anchor="start" x="26.5" y="-467.5" font-family="Helvetica,sans-Serif" font-size="10.00">+ show()</text>
<text text-anchor="start" x="26.5" y="-456.5" font-family="Helvetica,sans-Serif" font-size="10.00">+ attributes()</text>
</a>
</g>
</g>
<!-- Node3&#45;&gt;Node2 -->
<g id="edge2" class="edge">
<title>Node3&#45;&gt;Node2</title>
<path fill="none" stroke="midnightblue" d="M65.32,-438.88C66.03,-377.56 67.04,-289.68 67.73,-229.8"/>
<polygon fill="none" stroke="midnightblue" points="61.82,-439.21 65.2,-449.25 68.82,-439.29 61.82,-439.21"/>
</g>
<!-- Node4 -->
<g id="node4" class="node">
<title>Node4</title>
<g id="a_node4"><a xlink:href="classcie_1_1gl_1_1AbsPlot2.html" target="_top" xlink:title=" ">
<polygon fill="white" stroke="black" points="81,-277.5 81,-411.5 184,-411.5 184,-277.5 81,-277.5"/>
<text text-anchor="start" x="89" y="-399.5" font-family="Helvetica,sans-Serif" font-size="10.00">cie::gl::AbsPlot2&lt;</text>
<text text-anchor="middle" x="132.5" y="-388.5" font-family="Helvetica,sans-Serif" font-size="10.00"> Tag, Args &gt;</text>
<polyline fill="none" stroke="black" points="81,-381.5 184,-381.5 "/>
<text text-anchor="start" x="89" y="-369.5" font-family="Helvetica,sans-Serif" font-size="10.00"># _vertices</text>
<text text-anchor="start" x="89" y="-358.5" font-family="Helvetica,sans-Serif" font-size="10.00"># _p_indices</text>
<text text-anchor="start" x="89" y="-347.5" font-family="Helvetica,sans-Serif" font-size="10.00"># _p_camera</text>
<text text-anchor="start" x="89" y="-336.5" font-family="Helvetica,sans-Serif" font-size="10.00"># _p_scene</text>
<text text-anchor="start" x="89" y="-325.5" font-family="Helvetica,sans-Serif" font-size="10.00"># _p_controls</text>
<polyline fill="none" stroke="black" points="81,-318.5 184,-318.5 "/>
<text text-anchor="start" x="89" y="-306.5" font-family="Helvetica,sans-Serif" font-size="10.00">+ AbsPlot2()</text>
<text text-anchor="start" x="89" y="-295.5" font-family="Helvetica,sans-Serif" font-size="10.00">+ AbsPlot2()</text>
<text text-anchor="start" x="89" y="-284.5" font-family="Helvetica,sans-Serif" font-size="10.00">+ fit()</text>
</a>
</g>
</g>
<!-- Node3&#45;&gt;Node4 -->
<g id="edge4" class="edge">
<title>Node3&#45;&gt;Node4</title>
<path fill="none" stroke="midnightblue" d="M93.48,-439.91C97.36,-430.51 101.33,-420.89 105.19,-411.57"/>
<polygon fill="none" stroke="midnightblue" points="90.21,-438.64 89.63,-449.21 96.68,-441.31 90.21,-438.64"/>
</g>
<!-- Node4&#45;&gt;Node2 -->
<g id="edge3" class="edge">
<title>Node4&#45;&gt;Node2</title>
<path fill="none" stroke="orange" d="M105.62,-267.91C101.12,-255.25 96.48,-242.2 92.07,-229.8"/>
<polygon fill="orange" stroke="orange" points="102.38,-269.25 109.03,-277.5 108.98,-266.9 102.38,-269.25"/>
<text text-anchor="middle" x="148.5" y="-251" font-family="Helvetica,sans-Serif" font-size="10.00"> &lt; std::true_type &gt;</text>
</g>
</g>
</svg>
        <g id="navigator" transform="translate(0 0)" fill="#404254">
                <rect fill="#f2f5e9" fill-opacity="0.5" stroke="#606060" stroke-width=".5" x="0" y="0" width="60" height="60"/>
                <use id="zoomplus" xlink:href="#zoomPlus" x="17" y="9" onmousedown="handleZoom(evt,'in')"/>
                <use id="zoomminus" xlink:href="#zoomMin" x="42" y="9" onmousedown="handleZoom(evt,'out')"/>
                <use id="reset" xlink:href="#resetDef" x="30" y="36" onmousedown="handleReset()"/>
                <g id="arrowUp" xlink:href="#dirArrow" transform="translate(30 24)" onmousedown="handlePan(0,-1)">
                  <use xlink:href="#rim" fill="#404040">
                        <set attributeName="fill" to="#808080" begin="arrowUp.mouseover" end="arrowUp.mouseout"/>
                  </use>
                  <path fill="none" stroke="white" stroke-width="1.5" d="M0,-3.0v7 M-2.5,-0.5L0,-3.0L2.5,-0.5"/>
                </g>
                <g id="arrowRight" xlink:href="#dirArrow" transform="rotate(90) translate(36 -43)" onmousedown="handlePan(1,0)">
                  <use xlink:href="#rim" fill="#404040">
                        <set attributeName="fill" to="#808080" begin="arrowRight.mouseover" end="arrowRight.mouseout"/>
                  </use>
                  <path fill="none" stroke="white" stroke-width="1.5" d="M0,-3.0v7 M-2.5,-0.5L0,-3.0L2.5,-0.5"/>
                </g>
                <g id="arrowDown" xlink:href="#dirArrow" transform="rotate(180) translate(-30 -48)" onmousedown="handlePan(0,1)">
                  <use xlink:href="#rim" fill="#404040">
                        <set attributeName="fill" to="#808080" begin="arrowDown.mouseover" end="arrowDown.mouseout"/>
                  </use>
                  <path fill="none" stroke="white" stroke-width="1.5" d="M0,-3.0v7 M-2.5,-0.5L0,-3.0L2.5,-0.5"/>
                </g>
                <g id="arrowLeft" xlink:href="#dirArrow" transform="rotate(270) translate(-36 17)" onmousedown="handlePan(-1,0)">
                  <use xlink:href="#rim" fill="#404040">
                        <set attributeName="fill" to="#808080" begin="arrowLeft.mouseover" end="arrowLeft.mouseout"/>
                  </use>
                  <path fill="none" stroke="white" stroke-width="1.5" d="M0,-3.0v7 M-2.5,-0.5L0,-3.0L2.5,-0.5"/>
                </g>
        </g>
        <svg viewBox="0 0 15 15" width="100%" height="30px" preserveAspectRatio="xMaxYMin meet">
         <g id="arrow_out" transform="scale(0.3 0.3)">
          <a xlink:href="structcie_1_1gl_1_1Plot2_3_01TObject_01_4__inherit__graph_org.svg" target="_base">
           <rect id="button" ry="5" rx="5" y="6" x="6" height="38" width="38"
                fill="#f2f5e9" fill-opacity="0.5" stroke="#606060" stroke-width="1.0"/>
           <path id="arrow"
             d="M 11.500037,31.436501 C 11.940474,20.09759 22.043105,11.32322 32.158766,21.979434 L 37.068811,17.246167 C 37.068811,17.246167 37.088388,32 37.088388,32 L 22.160133,31.978069 C 22.160133,31.978069 26.997745,27.140456 26.997745,27.140456 C 18.528582,18.264221 13.291696,25.230495 11.500037,31.436501 z"
             style="fill:#404040;"/>
          </a>
         </g>
        </svg>
</svg>
