<?xml version="1.0" encoding="UTF-8" standalone="no"?>
<!DOCTYPE svg PUBLIC "-//W3C//DTD SVG 1.1//EN"
 "http://www.w3.org/Graphics/SVG/1.1/DTD/svg11.dtd">
<!-- Generated by graphviz version 2.43.0 (0)
 -->
<!-- Title: cie::gl::Texture::Properties Pages: 1 -->
<svg width="158pt" height="182pt"
 viewBox="0.00 0.00 157.50 182.00" xmlns="http://www.w3.org/2000/svg" xmlns:xlink="http://www.w3.org/1999/xlink">
<g id="graph0" class="graph" transform="scale(1 1) rotate(0) translate(4 178)">
<title>cie::gl::Texture::Properties</title>
<polygon fill="white" stroke="transparent" points="-4,4 -4,-178 153.5,-178 153.5,4 -4,4"/>
<!-- Node1 -->
<g id="node1" class="node">
<title>Node1</title>
<g id="a_node1"><a xlink:title=" ">
<polygon fill="#bfbfbf" stroke="black" points="0,-0.5 0,-57.5 143,-57.5 143,-0.5 0,-0.5"/>
<text text-anchor="middle" x="71.5" y="-45.5" font-family="Helvetica,sans-Serif" font-size="10.00">cie::gl::Texture::Properties</text>
<polyline fill="none" stroke="black" points="0,-38.5 143,-38.5 "/>
<text text-anchor="middle" x="71.5" y="-26.5" font-family="Helvetica,sans-Serif" font-size="10.00"> </text>
<polyline fill="none" stroke="black" points="0,-19.5 143,-19.5 "/>
<text text-anchor="middle" x="71.5" y="-7.5" font-family="Helvetica,sans-Serif" font-size="10.00"> </text>
</a>
</g>
</g>
<!-- Node2 -->
<g id="node2" class="node">
<title>Node2</title>
<g id="a_node2"><a xlink:title=" ">
<polygon fill="white" stroke="#bfbfbf" points="16.5,-116.5 16.5,-173.5 58.5,-173.5 58.5,-116.5 16.5,-116.5"/>
<text text-anchor="middle" x="37.5" y="-161.5" font-family="Helvetica,sans-Serif" font-size="10.00">GLint</text>
<polyline fill="none" stroke="#bfbfbf" points="16.5,-154.5 58.5,-154.5 "/>
<text text-anchor="middle" x="37.5" y="-142.5" font-family="Helvetica,sans-Serif" font-size="10.00"> </text>
<polyline fill="none" stroke="#bfbfbf" points="16.5,-135.5 58.5,-135.5 "/>
<text text-anchor="middle" x="37.5" y="-123.5" font-family="Helvetica,sans-Serif" font-size="10.00"> </text>
</a>
</g>
</g>
<!-- Node2&#45;&gt;Node1 -->
<g id="edge1" class="edge">
<title>Node2&#45;&gt;Node1</title>
<path fill="none" stroke="#404040" d="M34.19,-116.24C33.63,-103.67 34.29,-88.78 38.5,-76 39.35,-73.42 40.4,-70.86 41.6,-68.35"/>
<polygon fill="none" stroke="#404040" points="41.71,-68.15 41.19,-60.96 47.63,-57.72 48.15,-64.91 41.71,-68.15"/>
<text text-anchor="middle" x="61" y="-84.5" font-family="Helvetica,sans-Serif" font-size="10.00"> +format</text>
</g>
<!-- Node3 -->
<g id="node3" class="node">
<title>Node3</title>
<g id="a_node3"><a xlink:title=" ">
<polygon fill="white" stroke="#bfbfbf" points="77,-116.5 77,-173.5 134,-173.5 134,-116.5 77,-116.5"/>
<text text-anchor="middle" x="105.5" y="-161.5" font-family="Helvetica,sans-Serif" font-size="10.00">GLenum</text>
<polyline fill="none" stroke="#bfbfbf" points="77,-154.5 134,-154.5 "/>
<text text-anchor="middle" x="105.5" y="-142.5" font-family="Helvetica,sans-Serif" font-size="10.00"> </text>
<polyline fill="none" stroke="#bfbfbf" points="77,-135.5 134,-135.5 "/>
<text text-anchor="middle" x="105.5" y="-123.5" font-family="Helvetica,sans-Serif" font-size="10.00"> </text>
</a>
</g>
</g>
<!-- Node3&#45;&gt;Node1 -->
<g id="edge2" class="edge">
<title>Node3&#45;&gt;Node1</title>
<path fill="none" stroke="#404040" d="M97.27,-116.4C93.08,-102.36 87.92,-85.05 83.31,-69.61"/>
<polygon fill="none" stroke="#404040" points="83.2,-69.24 77.65,-64.63 79.77,-57.74 85.32,-62.34 83.2,-69.24"/>
<text text-anchor="middle" x="120.5" y="-90" font-family="Helvetica,sans-Serif" font-size="10.00"> +target</text>
<text text-anchor="middle" x="120.5" y="-79" font-family="Helvetica,sans-Serif" font-size="10.00">+valueType</text>
</g>
</g>
</svg>
