<?xml version="1.0" encoding="UTF-8" standalone="no"?>
<!DOCTYPE svg PUBLIC "-//W3C//DTD SVG 1.1//EN"
 "http://www.w3.org/Graphics/SVG/1.1/DTD/svg11.dtd">
<!-- Generated by graphviz version 2.43.0 (0)
 -->
<!-- Title: cie::gl::GLTraits Pages: 1 -->
<!--zoomable 896 -->
<svg id="main" version="1.1" xmlns="http://www.w3.org/2000/svg" xmlns:xlink="http://www.w3.org/1999/xlink" xml:space="preserve" onload="init(evt)">
<style type="text/css"><![CDATA[
.edge:hover path { stroke: red; }
.edge:hover polygon { stroke: red; fill: red; }
]]></style>
<script type="text/javascript"><![CDATA[
var edges = document.getElementsByTagName('g');
if (edges && edges.length) {
  for (var i=0;i<edges.length;i++) {
    if (edges[i].id.substr(0,4)=='edge') {
      edges[i].setAttribute('class','edge');
    }
  }
}
]]></script>
        <defs>
                <circle id="rim" cx="0" cy="0" r="7"/>
                <circle id="rim2" cx="0" cy="0" r="3.5"/>
                <g id="zoomPlus">
                        <use xlink:href="#rim" fill="#404040">
                                <set attributeName="fill" to="#808080" begin="zoomplus.mouseover" end="zoomplus.mouseout"/>
                        </use>
                        <path d="M-4,0h8M0,-4v8" fill="none" stroke="white" stroke-width="1.5" pointer-events="none"/>
                </g>
                <g id="zoomMin">
                        <use xlink:href="#rim" fill="#404040">
                                <set attributeName="fill" to="#808080" begin="zoomminus.mouseover" end="zoomminus.mouseout"/>
                        </use>
                        <path d="M-4,0h8" fill="none" stroke="white" stroke-width="1.5" pointer-events="none"/>
                </g>
                <g id="dirArrow">
                        <path fill="none" stroke="white" stroke-width="1.5" d="M0,-3.0v7 M-2.5,-0.5L0,-3.0L2.5,-0.5"/>
                </g>
               <g id="resetDef">
                       <use xlink:href="#rim2" fill="#404040">
                               <set attributeName="fill" to="#808080" begin="reset.mouseover" end="reset.mouseout"/>
                       </use>
               </g>
        </defs>

<script type="text/javascript">
var viewWidth = 1003;
var viewHeight = 896;
var sectionId = 'dynsection-0';
</script>
<script xlink:href="svgpan.js"/>
<svg id="graph" class="graph">
<g id="viewport">
<title>cie::gl::GLTraits</title>
<polygon fill="white" stroke="transparent" points="-4,4 -4,-892 999,-892 999,4 -4,4"/>
<!-- Node1 -->
<g id="node1" class="node">
<title>Node1</title>
<g id="a_node1"><a xlink:title=" ">
<polygon fill="#bfbfbf" stroke="black" points="498,-830.5 498,-887.5 588,-887.5 588,-830.5 498,-830.5"/>
<text text-anchor="middle" x="543" y="-875.5" font-family="Helvetica,sans-Serif" font-size="10.00">cie::gl::GLTraits</text>
<polyline fill="none" stroke="black" points="498,-868.5 588,-868.5 "/>
<text text-anchor="middle" x="543" y="-856.5" font-family="Helvetica,sans-Serif" font-size="10.00"> </text>
<polyline fill="none" stroke="black" points="498,-849.5 588,-849.5 "/>
<text text-anchor="middle" x="543" y="-837.5" font-family="Helvetica,sans-Serif" font-size="10.00"> </text>
</a>
</g>
</g>
<!-- Node2 -->
<g id="node2" class="node">
<title>Node2</title>
<g id="a_node2"><a xlink:href="classcie_1_1gl_1_1AbsGLShape.html" target="_top" xlink:title=" ">
<polygon fill="white" stroke="black" points="145.5,-592.5 145.5,-748.5 258.5,-748.5 258.5,-592.5 145.5,-592.5"/>
<text text-anchor="middle" x="202" y="-736.5" font-family="Helvetica,sans-Serif" font-size="10.00">cie::gl::AbsGLShape</text>
<polyline fill="none" stroke="black" points="145.5,-729.5 258.5,-729.5 "/>
<text text-anchor="start" x="153.5" y="-717.5" font-family="Helvetica,sans-Serif" font-size="10.00"># _p_attributes</text>
<polyline fill="none" stroke="black" points="145.5,-710.5 258.5,-710.5 "/>
<text text-anchor="start" x="153.5" y="-698.5" font-family="Helvetica,sans-Serif" font-size="10.00">+ AbsGLShape()</text>
<text text-anchor="start" x="153.5" y="-687.5" font-family="Helvetica,sans-Serif" font-size="10.00">+ AbsGLShape()</text>
<text text-anchor="start" x="153.5" y="-676.5" font-family="Helvetica,sans-Serif" font-size="10.00">+ setAttribute()</text>
<text text-anchor="start" x="153.5" y="-665.5" font-family="Helvetica,sans-Serif" font-size="10.00">+ updateShape()</text>
<text text-anchor="start" x="153.5" y="-654.5" font-family="Helvetica,sans-Serif" font-size="10.00">+ indices()</text>
<text text-anchor="start" x="153.5" y="-643.5" font-family="Helvetica,sans-Serif" font-size="10.00">+ attributes()</text>
<text text-anchor="start" x="153.5" y="-632.5" font-family="Helvetica,sans-Serif" font-size="10.00">+ attributes()</text>
<text text-anchor="start" x="153.5" y="-621.5" font-family="Helvetica,sans-Serif" font-size="10.00"># AbsGLShape()</text>
<text text-anchor="start" x="153.5" y="-610.5" font-family="Helvetica,sans-Serif" font-size="10.00"># AbsGLShape()</text>
<text text-anchor="start" x="153.5" y="-599.5" font-family="Helvetica,sans-Serif" font-size="10.00"># operator=()</text>
</a>
</g>
</g>
<!-- Node1&#45;&gt;Node2 -->
<g id="edge1" class="edge">
<title>Node1&#45;&gt;Node2</title>
<path fill="none" stroke="midnightblue" d="M487.67,-847.96C443.65,-838.35 381.59,-821.08 333,-793 306.14,-777.48 280.28,-755.55 258.73,-734.58"/>
<polygon fill="none" stroke="midnightblue" points="487.1,-851.42 497.61,-850.07 488.55,-844.57 487.1,-851.42"/>
</g>
<!-- Node8 -->
<g id="node8" class="node">
<title>Node8</title>
<g id="a_node8"><a xlink:href="classcie_1_1gl_1_1AbsVertex.html" target="_top" xlink:title=" ">
<polygon fill="white" stroke="black" points="342.5,-570.5 342.5,-770.5 497.5,-770.5 497.5,-570.5 342.5,-570.5"/>
<text text-anchor="middle" x="420" y="-758.5" font-family="Helvetica,sans-Serif" font-size="10.00">cie::gl::AbsVertex</text>
<polyline fill="none" stroke="black" points="342.5,-751.5 497.5,-751.5 "/>
<text text-anchor="start" x="350.5" y="-739.5" font-family="Helvetica,sans-Serif" font-size="10.00"># _p_attributes</text>
<text text-anchor="start" x="350.5" y="-728.5" font-family="Helvetica,sans-Serif" font-size="10.00"># _offset</text>
<text text-anchor="start" x="350.5" y="-717.5" font-family="Helvetica,sans-Serif" font-size="10.00"># _r_attributeOffsets</text>
<polyline fill="none" stroke="black" points="342.5,-710.5 497.5,-710.5 "/>
<text text-anchor="start" x="350.5" y="-698.5" font-family="Helvetica,sans-Serif" font-size="10.00">+ AbsVertex()</text>
<text text-anchor="start" x="350.5" y="-687.5" font-family="Helvetica,sans-Serif" font-size="10.00">+ AbsVertex()</text>
<text text-anchor="start" x="350.5" y="-676.5" font-family="Helvetica,sans-Serif" font-size="10.00">+ operator=()</text>
<text text-anchor="start" x="350.5" y="-665.5" font-family="Helvetica,sans-Serif" font-size="10.00">+ numberOfAttributes()</text>
<text text-anchor="start" x="350.5" y="-654.5" font-family="Helvetica,sans-Serif" font-size="10.00">+ attribute()</text>
<text text-anchor="start" x="350.5" y="-643.5" font-family="Helvetica,sans-Serif" font-size="10.00">+ attribute()</text>
<text text-anchor="start" x="350.5" y="-632.5" font-family="Helvetica,sans-Serif" font-size="10.00">+ at()</text>
<text text-anchor="start" x="350.5" y="-621.5" font-family="Helvetica,sans-Serif" font-size="10.00">+ at()</text>
<text text-anchor="start" x="350.5" y="-610.5" font-family="Helvetica,sans-Serif" font-size="10.00"># AbsVertex()</text>
<text text-anchor="start" x="350.5" y="-599.5" font-family="Helvetica,sans-Serif" font-size="10.00"># at()</text>
<text text-anchor="start" x="350.5" y="-588.5" font-family="Helvetica,sans-Serif" font-size="10.00"># at()</text>
<text text-anchor="start" x="350.5" y="-577.5" font-family="Helvetica,sans-Serif" font-size="10.00"># resizeAttributeContainer()</text>
</a>
</g>
</g>
<!-- Node1&#45;&gt;Node8 -->
<g id="edge8" class="edge">
<title>Node1&#45;&gt;Node8</title>
<path fill="none" stroke="midnightblue" d="M519.32,-822.09C509.48,-807.17 497.52,-789.05 485.37,-770.62"/>
<polygon fill="none" stroke="midnightblue" points="516.42,-824.06 524.85,-830.48 522.27,-820.21 516.42,-824.06"/>
</g>
<!-- Node12 -->
<g id="node12" class="node">
<title>Node12</title>
<g id="a_node12"><a xlink:href="classcie_1_1gl_1_1Axes3DScene.html" target="_top" xlink:title=" ">
<polygon fill="white" stroke="black" points="515.5,-625.5 515.5,-715.5 652.5,-715.5 652.5,-625.5 515.5,-625.5"/>
<text text-anchor="middle" x="584" y="-703.5" font-family="Helvetica,sans-Serif" font-size="10.00">cie::gl::Axes3DScene</text>
<polyline fill="none" stroke="black" points="515.5,-696.5 652.5,-696.5 "/>
<text text-anchor="start" x="523.5" y="-684.5" font-family="Helvetica,sans-Serif" font-size="10.00"># _p_axes</text>
<text text-anchor="start" x="523.5" y="-673.5" font-family="Helvetica,sans-Serif" font-size="10.00"># _box</text>
<text text-anchor="start" x="523.5" y="-662.5" font-family="Helvetica,sans-Serif" font-size="10.00"># _transformationMatrix</text>
<polyline fill="none" stroke="black" points="515.5,-655.5 652.5,-655.5 "/>
<text text-anchor="start" x="523.5" y="-643.5" font-family="Helvetica,sans-Serif" font-size="10.00">+ Axes3DScene()</text>
<text text-anchor="start" x="523.5" y="-632.5" font-family="Helvetica,sans-Serif" font-size="10.00"># update_impl()</text>
</a>
</g>
</g>
<!-- Node1&#45;&gt;Node12 -->
<g id="edge12" class="edge">
<title>Node1&#45;&gt;Node12</title>
<path fill="none" stroke="midnightblue" d="M551.28,-820.34C557.92,-790.12 567.26,-747.63 574.27,-715.78"/>
<polygon fill="none" stroke="midnightblue" points="547.78,-819.96 549.05,-830.48 554.62,-821.47 547.78,-819.96"/>
</g>
<!-- Node13 -->
<g id="node13" class="node">
<title>Node13</title>
<g id="a_node13"><a xlink:href="classcie_1_1gl_1_1Part.html" target="_top" xlink:title=" ">
<polygon fill="white" stroke="black" points="670.5,-548.5 670.5,-792.5 813.5,-792.5 813.5,-548.5 670.5,-548.5"/>
<text text-anchor="middle" x="742" y="-780.5" font-family="Helvetica,sans-Serif" font-size="10.00">cie::gl::Part</text>
<polyline fill="none" stroke="black" points="670.5,-773.5 813.5,-773.5 "/>
<text text-anchor="start" x="678.5" y="-761.5" font-family="Helvetica,sans-Serif" font-size="10.00"># _p_attributes</text>
<text text-anchor="start" x="678.5" y="-750.5" font-family="Helvetica,sans-Serif" font-size="10.00"># _indices</text>
<polyline fill="none" stroke="black" points="670.5,-743.5 813.5,-743.5 "/>
<text text-anchor="start" x="678.5" y="-731.5" font-family="Helvetica,sans-Serif" font-size="10.00">+ Part()</text>
<text text-anchor="start" x="678.5" y="-720.5" font-family="Helvetica,sans-Serif" font-size="10.00">+ attributeByteCount()</text>
<text text-anchor="start" x="678.5" y="-709.5" font-family="Helvetica,sans-Serif" font-size="10.00">+ indexByteCount()</text>
<text text-anchor="start" x="678.5" y="-698.5" font-family="Helvetica,sans-Serif" font-size="10.00">+ numberOfVertices()</text>
<text text-anchor="start" x="678.5" y="-687.5" font-family="Helvetica,sans-Serif" font-size="10.00">+ numberOfPrimitives()</text>
<text text-anchor="start" x="678.5" y="-676.5" font-family="Helvetica,sans-Serif" font-size="10.00">+ load()</text>
<text text-anchor="start" x="678.5" y="-665.5" font-family="Helvetica,sans-Serif" font-size="10.00">+ attributes()</text>
<text text-anchor="start" x="678.5" y="-654.5" font-family="Helvetica,sans-Serif" font-size="10.00">+ indices()</text>
<text text-anchor="start" x="678.5" y="-643.5" font-family="Helvetica,sans-Serif" font-size="10.00">+ dimension()</text>
<text text-anchor="start" x="678.5" y="-632.5" font-family="Helvetica,sans-Serif" font-size="10.00">+ vertexAttributeSize()</text>
<text text-anchor="start" x="678.5" y="-621.5" font-family="Helvetica,sans-Serif" font-size="10.00">+ primitiveVertexSize()</text>
<text text-anchor="start" x="678.5" y="-610.5" font-family="Helvetica,sans-Serif" font-size="10.00">+ primitiveAttributeSize()</text>
<text text-anchor="start" x="678.5" y="-599.5" font-family="Helvetica,sans-Serif" font-size="10.00">+ primitiveByteSize()</text>
<text text-anchor="start" x="678.5" y="-588.5" font-family="Helvetica,sans-Serif" font-size="10.00">+ writeSTL()</text>
<text text-anchor="start" x="678.5" y="-577.5" font-family="Helvetica,sans-Serif" font-size="10.00"># Part()</text>
<text text-anchor="start" x="678.5" y="-566.5" font-family="Helvetica,sans-Serif" font-size="10.00"># Part()</text>
<text text-anchor="start" x="678.5" y="-555.5" font-family="Helvetica,sans-Serif" font-size="10.00"># operator=()</text>
</a>
</g>
</g>
<!-- Node1&#45;&gt;Node13 -->
<g id="edge13" class="edge">
<title>Node1&#45;&gt;Node13</title>
<path fill="none" stroke="midnightblue" d="M597.03,-835.1C618.46,-824.35 642.39,-810.1 661,-793 664.17,-790.08 667.28,-787.02 670.32,-783.84"/>
<polygon fill="none" stroke="midnightblue" points="595.47,-831.97 588.02,-839.49 598.54,-838.26 595.47,-831.97"/>
</g>
<!-- Node3 -->
<g id="node3" class="node">
<title>Node3</title>
<g id="a_node3"><a xlink:href="classcie_1_1gl_1_1CompoundShape.html" target="_top" xlink:title=" ">
<polygon fill="white" stroke="black" points="0,-167 0,-301 134,-301 134,-167 0,-167"/>
<text text-anchor="start" x="8" y="-289" font-family="Helvetica,sans-Serif" font-size="10.00">cie::gl::CompoundShape</text>
<text text-anchor="middle" x="67" y="-278" font-family="Helvetica,sans-Serif" font-size="10.00">&lt; ColoredVertex3 &gt;</text>
<polyline fill="none" stroke="black" points="0,-271 134,-271 "/>
<text text-anchor="start" x="8" y="-259" font-family="Helvetica,sans-Serif" font-size="10.00"># _shapes</text>
<polyline fill="none" stroke="black" points="0,-252 134,-252 "/>
<text text-anchor="start" x="8" y="-240" font-family="Helvetica,sans-Serif" font-size="10.00">+ CompoundShape()</text>
<text text-anchor="start" x="8" y="-229" font-family="Helvetica,sans-Serif" font-size="10.00">+ CompoundShape()</text>
<text text-anchor="start" x="8" y="-218" font-family="Helvetica,sans-Serif" font-size="10.00">+ CompoundShape()</text>
<text text-anchor="start" x="8" y="-207" font-family="Helvetica,sans-Serif" font-size="10.00">+ setAttribute()</text>
<text text-anchor="start" x="8" y="-196" font-family="Helvetica,sans-Serif" font-size="10.00">+ updateShape()</text>
<text text-anchor="start" x="8" y="-185" font-family="Helvetica,sans-Serif" font-size="10.00">+ indices()</text>
<text text-anchor="start" x="8" y="-174" font-family="Helvetica,sans-Serif" font-size="10.00">+ shapes()</text>
</a>
</g>
</g>
<!-- Node2&#45;&gt;Node3 -->
<g id="edge2" class="edge">
<title>Node2&#45;&gt;Node3</title>
<path fill="none" stroke="midnightblue" d="M137.05,-624.56C102.35,-596.44 62.96,-556.88 44,-511 16.08,-443.46 29.43,-358.82 44.88,-301.2"/>
<polygon fill="none" stroke="midnightblue" points="135.28,-627.63 145.29,-631.1 139.63,-622.15 135.28,-627.63"/>
</g>
<!-- Node5 -->
<g id="node5" class="node">
<title>Node5</title>
<g id="a_node5"><a xlink:href="classcie_1_1gl_1_1CompoundShape.html" target="_top" xlink:title="Container of shapes with an AbsGLShape interface.">
<polygon fill="white" stroke="black" points="53,-365.5 53,-499.5 187,-499.5 187,-365.5 53,-365.5"/>
<text text-anchor="start" x="61" y="-487.5" font-family="Helvetica,sans-Serif" font-size="10.00">cie::gl::CompoundShape</text>
<text text-anchor="middle" x="120" y="-476.5" font-family="Helvetica,sans-Serif" font-size="10.00">&lt; VertexType &gt;</text>
<polyline fill="none" stroke="black" points="53,-469.5 187,-469.5 "/>
<text text-anchor="start" x="61" y="-457.5" font-family="Helvetica,sans-Serif" font-size="10.00"># _shapes</text>
<polyline fill="none" stroke="black" points="53,-450.5 187,-450.5 "/>
<text text-anchor="start" x="61" y="-438.5" font-family="Helvetica,sans-Serif" font-size="10.00">+ CompoundShape()</text>
<text text-anchor="start" x="61" y="-427.5" font-family="Helvetica,sans-Serif" font-size="10.00">+ CompoundShape()</text>
<text text-anchor="start" x="61" y="-416.5" font-family="Helvetica,sans-Serif" font-size="10.00">+ CompoundShape()</text>
<text text-anchor="start" x="61" y="-405.5" font-family="Helvetica,sans-Serif" font-size="10.00">+ setAttribute()</text>
<text text-anchor="start" x="61" y="-394.5" font-family="Helvetica,sans-Serif" font-size="10.00">+ updateShape()</text>
<text text-anchor="start" x="61" y="-383.5" font-family="Helvetica,sans-Serif" font-size="10.00">+ indices()</text>
<text text-anchor="start" x="61" y="-372.5" font-family="Helvetica,sans-Serif" font-size="10.00">+ shapes()</text>
</a>
</g>
</g>
<!-- Node2&#45;&gt;Node5 -->
<g id="edge4" class="edge">
<title>Node2&#45;&gt;Node5</title>
<path fill="none" stroke="midnightblue" d="M171.83,-582.66C162.32,-555.31 151.98,-525.55 143.06,-499.86"/>
<polygon fill="none" stroke="midnightblue" points="168.56,-583.93 175.15,-592.22 175.17,-581.63 168.56,-583.93"/>
</g>
<!-- Node6 -->
<g id="node6" class="node">
<title>Node6</title>
<g id="a_node6"><a xlink:href="classcie_1_1gl_1_1GLShape.html" target="_top" xlink:title=" ">
<polygon fill="white" stroke="black" points="205.5,-365.5 205.5,-499.5 342.5,-499.5 342.5,-365.5 205.5,-365.5"/>
<text text-anchor="start" x="213.5" y="-487.5" font-family="Helvetica,sans-Serif" font-size="10.00">cie::gl::GLShape&lt; Vertex</text>
<text text-anchor="middle" x="274" y="-476.5" font-family="Helvetica,sans-Serif" font-size="10.00">Type &gt;</text>
<polyline fill="none" stroke="black" points="205.5,-469.5 342.5,-469.5 "/>
<text text-anchor="start" x="213.5" y="-457.5" font-family="Helvetica,sans-Serif" font-size="10.00"># _vertices</text>
<polyline fill="none" stroke="black" points="205.5,-450.5 342.5,-450.5 "/>
<text text-anchor="start" x="213.5" y="-438.5" font-family="Helvetica,sans-Serif" font-size="10.00">+ GLShape()</text>
<text text-anchor="start" x="213.5" y="-427.5" font-family="Helvetica,sans-Serif" font-size="10.00">+ GLShape()</text>
<text text-anchor="start" x="213.5" y="-416.5" font-family="Helvetica,sans-Serif" font-size="10.00">+ setAttribute()</text>
<text text-anchor="start" x="213.5" y="-405.5" font-family="Helvetica,sans-Serif" font-size="10.00">+ vertices()</text>
<text text-anchor="start" x="213.5" y="-394.5" font-family="Helvetica,sans-Serif" font-size="10.00"># GLShape()</text>
<text text-anchor="start" x="213.5" y="-383.5" font-family="Helvetica,sans-Serif" font-size="10.00"># GLShape()</text>
<text text-anchor="start" x="213.5" y="-372.5" font-family="Helvetica,sans-Serif" font-size="10.00"># operator=()</text>
</a>
</g>
</g>
<!-- Node2&#45;&gt;Node6 -->
<g id="edge6" class="edge">
<title>Node2&#45;&gt;Node6</title>
<path fill="none" stroke="midnightblue" d="M228.6,-582.3C236.92,-555.05 245.95,-525.44 253.76,-499.86"/>
<polygon fill="none" stroke="midnightblue" points="225.15,-581.64 225.58,-592.22 231.84,-583.68 225.15,-581.64"/>
</g>
<!-- Node4 -->
<g id="node4" class="node">
<title>Node4</title>
<g id="a_node4"><a xlink:href="classcie_1_1gl_1_1Axes.html" target="_top" xlink:title=" ">
<polygon fill="white" stroke="black" points="29.5,-33.5 29.5,-90.5 104.5,-90.5 104.5,-33.5 29.5,-33.5"/>
<text text-anchor="middle" x="67" y="-78.5" font-family="Helvetica,sans-Serif" font-size="10.00">cie::gl::Axes</text>
<polyline fill="none" stroke="black" points="29.5,-71.5 104.5,-71.5 "/>
<text text-anchor="middle" x="67" y="-59.5" font-family="Helvetica,sans-Serif" font-size="10.00"> </text>
<polyline fill="none" stroke="black" points="29.5,-52.5 104.5,-52.5 "/>
<text text-anchor="start" x="37.5" y="-40.5" font-family="Helvetica,sans-Serif" font-size="10.00">+ Axes()</text>
</a>
</g>
</g>
<!-- Node3&#45;&gt;Node4 -->
<g id="edge3" class="edge">
<title>Node3&#45;&gt;Node4</title>
<path fill="none" stroke="midnightblue" d="M67,-156.76C67,-133.18 67,-108.7 67,-90.66"/>
<polygon fill="none" stroke="midnightblue" points="63.5,-156.79 67,-166.79 70.5,-156.79 63.5,-156.79"/>
</g>
<!-- Node5&#45;&gt;Node3 -->
<g id="edge5" class="edge">
<title>Node5&#45;&gt;Node3</title>
<path fill="none" stroke="orange" d="M99.49,-355.45C94.67,-337.59 89.57,-318.69 84.88,-301.3"/>
<polygon fill="orange" stroke="orange" points="96.15,-356.5 102.13,-365.25 102.91,-354.68 96.15,-356.5"/>
<text text-anchor="middle" x="144.5" y="-328" font-family="Helvetica,sans-Serif" font-size="10.00"> &lt; ColoredVertex3 &gt;</text>
</g>
<!-- Node7 -->
<g id="node7" class="node">
<title>Node7</title>
<g id="a_node7"><a xlink:href="classcie_1_1gl_1_1Arrow.html" target="_top" xlink:title=" ">
<polygon fill="white" stroke="black" points="193.5,-161.5 193.5,-306.5 350.5,-306.5 350.5,-161.5 193.5,-161.5"/>
<text text-anchor="middle" x="272" y="-294.5" font-family="Helvetica,sans-Serif" font-size="10.00">cie::gl::Arrow&lt; VertexType &gt;</text>
<polyline fill="none" stroke="black" points="193.5,-287.5 350.5,-287.5 "/>
<text text-anchor="start" x="201.5" y="-275.5" font-family="Helvetica,sans-Serif" font-size="10.00"># _source</text>
<text text-anchor="start" x="201.5" y="-264.5" font-family="Helvetica,sans-Serif" font-size="10.00"># _sink</text>
<text text-anchor="start" x="201.5" y="-253.5" font-family="Helvetica,sans-Serif" font-size="10.00"># _headRatio</text>
<text text-anchor="start" x="201.5" y="-242.5" font-family="Helvetica,sans-Serif" font-size="10.00"># _baseRadius</text>
<text text-anchor="start" x="201.5" y="-231.5" font-family="Helvetica,sans-Serif" font-size="10.00"># _headRadius</text>
<text text-anchor="start" x="201.5" y="-220.5" font-family="Helvetica,sans-Serif" font-size="10.00"># _resolution</text>
<polyline fill="none" stroke="black" points="193.5,-213.5 350.5,-213.5 "/>
<text text-anchor="start" x="201.5" y="-201.5" font-family="Helvetica,sans-Serif" font-size="10.00">+ Arrow()</text>
<text text-anchor="start" x="201.5" y="-190.5" font-family="Helvetica,sans-Serif" font-size="10.00">+ Arrow()</text>
<text text-anchor="start" x="201.5" y="-179.5" font-family="Helvetica,sans-Serif" font-size="10.00">+ updateShape()</text>
<text text-anchor="start" x="201.5" y="-168.5" font-family="Helvetica,sans-Serif" font-size="10.00">+ indices()</text>
</a>
</g>
</g>
<!-- Node6&#45;&gt;Node7 -->
<g id="edge7" class="edge">
<title>Node6&#45;&gt;Node7</title>
<path fill="none" stroke="midnightblue" d="M273.22,-354.95C273.06,-339.07 272.89,-322.39 272.73,-306.69"/>
<polygon fill="none" stroke="midnightblue" points="269.72,-355.28 273.33,-365.25 276.72,-355.21 269.72,-355.28"/>
</g>
<!-- Node9 -->
<g id="node9" class="node">
<title>Node9</title>
<g id="a_node9"><a xlink:href="classcie_1_1gl_1_1Vertex2.html" target="_top" xlink:title=" ">
<polygon fill="white" stroke="black" points="366,-354.5 366,-510.5 498,-510.5 498,-354.5 366,-354.5"/>
<text text-anchor="middle" x="432" y="-498.5" font-family="Helvetica,sans-Serif" font-size="10.00">cie::gl::Vertex2</text>
<polyline fill="none" stroke="black" points="366,-491.5 498,-491.5 "/>
<text text-anchor="middle" x="432" y="-479.5" font-family="Helvetica,sans-Serif" font-size="10.00"> </text>
<polyline fill="none" stroke="black" points="366,-472.5 498,-472.5 "/>
<text text-anchor="start" x="374" y="-460.5" font-family="Helvetica,sans-Serif" font-size="10.00">+ Vertex2()</text>
<text text-anchor="start" x="374" y="-449.5" font-family="Helvetica,sans-Serif" font-size="10.00">+ Vertex2()</text>
<text text-anchor="start" x="374" y="-438.5" font-family="Helvetica,sans-Serif" font-size="10.00">+ numberOfAttributes()</text>
<text text-anchor="start" x="374" y="-427.5" font-family="Helvetica,sans-Serif" font-size="10.00">+ position()</text>
<text text-anchor="start" x="374" y="-416.5" font-family="Helvetica,sans-Serif" font-size="10.00">+ position()</text>
<text text-anchor="start" x="374" y="-405.5" font-family="Helvetica,sans-Serif" font-size="10.00">+ x()</text>
<text text-anchor="start" x="374" y="-394.5" font-family="Helvetica,sans-Serif" font-size="10.00">+ x()</text>
<text text-anchor="start" x="374" y="-383.5" font-family="Helvetica,sans-Serif" font-size="10.00">+ y()</text>
<text text-anchor="start" x="374" y="-372.5" font-family="Helvetica,sans-Serif" font-size="10.00">+ y()</text>
<text text-anchor="start" x="374" y="-361.5" font-family="Helvetica,sans-Serif" font-size="10.00"># Vertex2()</text>
</a>
</g>
</g>
<!-- Node8&#45;&gt;Node9 -->
<g id="edge9" class="edge">
<title>Node8&#45;&gt;Node9</title>
<path fill="none" stroke="midnightblue" d="M425.56,-560.11C426.41,-543.45 427.27,-526.56 428.07,-510.78"/>
<polygon fill="none" stroke="midnightblue" points="422.05,-560.28 425.04,-570.44 429.04,-560.63 422.05,-560.28"/>
</g>
<!-- Node10 -->
<g id="node10" class="node">
<title>Node10</title>
<g id="a_node10"><a xlink:href="classcie_1_1gl_1_1Vertex3.html" target="_top" xlink:title=" ">
<polygon fill="white" stroke="black" points="369,-178 369,-290 501,-290 501,-178 369,-178"/>
<text text-anchor="middle" x="435" y="-278" font-family="Helvetica,sans-Serif" font-size="10.00">cie::gl::Vertex3</text>
<polyline fill="none" stroke="black" points="369,-271 501,-271 "/>
<text text-anchor="middle" x="435" y="-259" font-family="Helvetica,sans-Serif" font-size="10.00"> </text>
<polyline fill="none" stroke="black" points="369,-252 501,-252 "/>
<text text-anchor="start" x="377" y="-240" font-family="Helvetica,sans-Serif" font-size="10.00">+ Vertex3()</text>
<text text-anchor="start" x="377" y="-229" font-family="Helvetica,sans-Serif" font-size="10.00">+ Vertex3()</text>
<text text-anchor="start" x="377" y="-218" font-family="Helvetica,sans-Serif" font-size="10.00">+ numberOfAttributes()</text>
<text text-anchor="start" x="377" y="-207" font-family="Helvetica,sans-Serif" font-size="10.00">+ z()</text>
<text text-anchor="start" x="377" y="-196" font-family="Helvetica,sans-Serif" font-size="10.00">+ z()</text>
<text text-anchor="start" x="377" y="-185" font-family="Helvetica,sans-Serif" font-size="10.00"># Vertex3()</text>
</a>
</g>
</g>
<!-- Node9&#45;&gt;Node10 -->
<g id="edge10" class="edge">
<title>Node9&#45;&gt;Node10</title>
<path fill="none" stroke="midnightblue" d="M433.33,-344.23C433.61,-325.81 433.9,-306.86 434.16,-290.02"/>
<polygon fill="none" stroke="midnightblue" points="429.83,-344.35 433.18,-354.4 436.83,-344.46 429.83,-344.35"/>
</g>
<!-- Node11 -->
<g id="node11" class="node">
<title>Node11</title>
<g id="a_node11"><a xlink:href="classcie_1_1gl_1_1ColoredVertex3.html" target="_top" xlink:title=" ">
<polygon fill="white" stroke="black" points="369,-0.5 369,-123.5 501,-123.5 501,-0.5 369,-0.5"/>
<text text-anchor="middle" x="435" y="-111.5" font-family="Helvetica,sans-Serif" font-size="10.00">cie::gl::ColoredVertex3</text>
<polyline fill="none" stroke="black" points="369,-104.5 501,-104.5 "/>
<text text-anchor="middle" x="435" y="-92.5" font-family="Helvetica,sans-Serif" font-size="10.00"> </text>
<polyline fill="none" stroke="black" points="369,-85.5 501,-85.5 "/>
<text text-anchor="start" x="377" y="-73.5" font-family="Helvetica,sans-Serif" font-size="10.00">+ ColoredVertex3()</text>
<text text-anchor="start" x="377" y="-62.5" font-family="Helvetica,sans-Serif" font-size="10.00">+ ColoredVertex3()</text>
<text text-anchor="start" x="377" y="-51.5" font-family="Helvetica,sans-Serif" font-size="10.00">+ numberOfAttributes()</text>
<text text-anchor="start" x="377" y="-40.5" font-family="Helvetica,sans-Serif" font-size="10.00">+ color()</text>
<text text-anchor="start" x="377" y="-29.5" font-family="Helvetica,sans-Serif" font-size="10.00">+ color()</text>
<text text-anchor="start" x="377" y="-18.5" font-family="Helvetica,sans-Serif" font-size="10.00"># ColoredVertex3()</text>
<text text-anchor="start" x="377" y="-7.5" font-family="Helvetica,sans-Serif" font-size="10.00"># ColoredVertex3()</text>
</a>
</g>
</g>
<!-- Node10&#45;&gt;Node11 -->
<g id="edge11" class="edge">
<title>Node10&#45;&gt;Node11</title>
<path fill="none" stroke="midnightblue" d="M435,-167.5C435,-153.13 435,-137.97 435,-123.79"/>
<polygon fill="none" stroke="midnightblue" points="431.5,-167.81 435,-177.81 438.5,-167.81 431.5,-167.81"/>
</g>
<!-- Node14 -->
<g id="node14" class="node">
<title>Node14</title>
<g id="a_node14"><a xlink:href="classcie_1_1gl_1_1GenericPart.html" target="_top" xlink:title=" ">
<polygon fill="white" stroke="black" points="527.5,-360 527.5,-505 658.5,-505 658.5,-360 527.5,-360"/>
<text text-anchor="middle" x="593" y="-493" font-family="Helvetica,sans-Serif" font-size="10.00">cie::gl::GenericPart</text>
<polyline fill="none" stroke="black" points="527.5,-486 658.5,-486 "/>
<text text-anchor="start" x="535.5" y="-474" font-family="Helvetica,sans-Serif" font-size="10.00"># _dimension</text>
<text text-anchor="start" x="535.5" y="-463" font-family="Helvetica,sans-Serif" font-size="10.00"># _vertexAttributeSize</text>
<text text-anchor="start" x="535.5" y="-452" font-family="Helvetica,sans-Serif" font-size="10.00"># _primitiveVertexSize</text>
<polyline fill="none" stroke="black" points="527.5,-445 658.5,-445 "/>
<text text-anchor="start" x="535.5" y="-433" font-family="Helvetica,sans-Serif" font-size="10.00">+ GenericPart()</text>
<text text-anchor="start" x="535.5" y="-422" font-family="Helvetica,sans-Serif" font-size="10.00">+ attributes()</text>
<text text-anchor="start" x="535.5" y="-411" font-family="Helvetica,sans-Serif" font-size="10.00">+ indices()</text>
<text text-anchor="start" x="535.5" y="-400" font-family="Helvetica,sans-Serif" font-size="10.00">+ dimension()</text>
<text text-anchor="start" x="535.5" y="-389" font-family="Helvetica,sans-Serif" font-size="10.00">+ vertexAttributeSize()</text>
<text text-anchor="start" x="535.5" y="-378" font-family="Helvetica,sans-Serif" font-size="10.00">+ primitiveVertexSize()</text>
<text text-anchor="start" x="535.5" y="-367" font-family="Helvetica,sans-Serif" font-size="10.00">+ writeSTL()</text>
</a>
</g>
</g>
<!-- Node13&#45;&gt;Node14 -->
<g id="edge14" class="edge">
<title>Node13&#45;&gt;Node14</title>
<path fill="none" stroke="midnightblue" d="M664.94,-547.45C655.78,-532.93 646.67,-518.5 638.16,-505.03"/>
<polygon fill="none" stroke="midnightblue" points="662.04,-549.41 670.34,-555.99 667.96,-545.67 662.04,-549.41"/>
</g>
<!-- Node15 -->
<g id="node15" class="node">
<title>Node15</title>
<g id="a_node15"><a xlink:href="classcie_1_1gl_1_1Line2DPart.html" target="_top" xlink:title=" ">
<polygon fill="white" stroke="black" points="676.5,-382 676.5,-483 807.5,-483 807.5,-382 676.5,-382"/>
<text text-anchor="middle" x="742" y="-471" font-family="Helvetica,sans-Serif" font-size="10.00">cie::gl::Line2DPart</text>
<polyline fill="none" stroke="black" points="676.5,-464 807.5,-464 "/>
<text text-anchor="middle" x="742" y="-452" font-family="Helvetica,sans-Serif" font-size="10.00"> </text>
<polyline fill="none" stroke="black" points="676.5,-445 807.5,-445 "/>
<text text-anchor="start" x="684.5" y="-433" font-family="Helvetica,sans-Serif" font-size="10.00">+ load()</text>
<text text-anchor="start" x="684.5" y="-422" font-family="Helvetica,sans-Serif" font-size="10.00">+ dimension()</text>
<text text-anchor="start" x="684.5" y="-411" font-family="Helvetica,sans-Serif" font-size="10.00">+ vertexAttributeSize()</text>
<text text-anchor="start" x="684.5" y="-400" font-family="Helvetica,sans-Serif" font-size="10.00">+ primitiveVertexSize()</text>
<text text-anchor="start" x="684.5" y="-389" font-family="Helvetica,sans-Serif" font-size="10.00">+ writeSTL()</text>
</a>
</g>
</g>
<!-- Node13&#45;&gt;Node15 -->
<g id="edge15" class="edge">
<title>Node13&#45;&gt;Node15</title>
<path fill="none" stroke="midnightblue" d="M742,-538.13C742,-518.58 742,-499.52 742,-483.14"/>
<polygon fill="none" stroke="midnightblue" points="738.5,-538.39 742,-548.39 745.5,-538.39 738.5,-538.39"/>
</g>
<!-- Node16 -->
<g id="node16" class="node">
<title>Node16</title>
<g id="a_node16"><a xlink:href="classcie_1_1gl_1_1Triangulated3DPart.html" target="_top" xlink:title=" ">
<polygon fill="white" stroke="black" points="826,-387.5 826,-477.5 970,-477.5 970,-387.5 826,-387.5"/>
<text text-anchor="middle" x="898" y="-465.5" font-family="Helvetica,sans-Serif" font-size="10.00">cie::gl::Triangulated3DPart</text>
<polyline fill="none" stroke="black" points="826,-458.5 970,-458.5 "/>
<text text-anchor="middle" x="898" y="-446.5" font-family="Helvetica,sans-Serif" font-size="10.00"> </text>
<polyline fill="none" stroke="black" points="826,-439.5 970,-439.5 "/>
<text text-anchor="start" x="834" y="-427.5" font-family="Helvetica,sans-Serif" font-size="10.00">+ dimension()</text>
<text text-anchor="start" x="834" y="-416.5" font-family="Helvetica,sans-Serif" font-size="10.00">+ vertexAttributeSize()</text>
<text text-anchor="start" x="834" y="-405.5" font-family="Helvetica,sans-Serif" font-size="10.00">+ primitiveVertexSize()</text>
<text text-anchor="start" x="834" y="-394.5" font-family="Helvetica,sans-Serif" font-size="10.00">+ writeSTL()</text>
</a>
</g>
</g>
<!-- Node13&#45;&gt;Node16 -->
<g id="edge16" class="edge">
<title>Node13&#45;&gt;Node16</title>
<path fill="none" stroke="midnightblue" d="M819.34,-552.49C837.03,-525.73 854.76,-498.91 868.9,-477.52"/>
<polygon fill="none" stroke="midnightblue" points="816.2,-550.9 813.61,-561.17 822.04,-554.76 816.2,-550.9"/>
</g>
<!-- Node17 -->
<g id="node17" class="node">
<title>Node17</title>
<g id="a_node17"><a xlink:href="classcie_1_1gl_1_1ObjPart.html" target="_top" xlink:title=" ">
<polygon fill="white" stroke="black" points="801.5,-194.5 801.5,-273.5 888.5,-273.5 888.5,-194.5 801.5,-194.5"/>
<text text-anchor="middle" x="845" y="-261.5" font-family="Helvetica,sans-Serif" font-size="10.00">cie::gl::ObjPart</text>
<polyline fill="none" stroke="black" points="801.5,-254.5 888.5,-254.5 "/>
<text text-anchor="middle" x="845" y="-242.5" font-family="Helvetica,sans-Serif" font-size="10.00"> </text>
<polyline fill="none" stroke="black" points="801.5,-235.5 888.5,-235.5 "/>
<text text-anchor="start" x="809.5" y="-223.5" font-family="Helvetica,sans-Serif" font-size="10.00">+ ObjPart()</text>
<text text-anchor="start" x="809.5" y="-212.5" font-family="Helvetica,sans-Serif" font-size="10.00">+ ObjPart()</text>
<text text-anchor="start" x="809.5" y="-201.5" font-family="Helvetica,sans-Serif" font-size="10.00">+ load()</text>
</a>
</g>
</g>
<!-- Node16&#45;&gt;Node17 -->
<g id="edge17" class="edge">
<title>Node16&#45;&gt;Node17</title>
<path fill="none" stroke="midnightblue" d="M883.43,-377.48C874.55,-344.56 863.42,-303.28 855.42,-273.64"/>
<polygon fill="none" stroke="midnightblue" points="880.12,-378.66 886.11,-387.4 886.88,-376.84 880.12,-378.66"/>
</g>
<!-- Node18 -->
<g id="node18" class="node">
<title>Node18</title>
<g id="a_node18"><a xlink:href="classcie_1_1gl_1_1STLPart.html" target="_top" xlink:title=" ">
<polygon fill="white" stroke="black" points="907,-194.5 907,-273.5 995,-273.5 995,-194.5 907,-194.5"/>
<text text-anchor="middle" x="951" y="-261.5" font-family="Helvetica,sans-Serif" font-size="10.00">cie::gl::STLPart</text>
<polyline fill="none" stroke="black" points="907,-254.5 995,-254.5 "/>
<text text-anchor="middle" x="951" y="-242.5" font-family="Helvetica,sans-Serif" font-size="10.00"> </text>
<polyline fill="none" stroke="black" points="907,-235.5 995,-235.5 "/>
<text text-anchor="start" x="915" y="-223.5" font-family="Helvetica,sans-Serif" font-size="10.00">+ STLPart()</text>
<text text-anchor="start" x="915" y="-212.5" font-family="Helvetica,sans-Serif" font-size="10.00">+ STLPart()</text>
<text text-anchor="start" x="915" y="-201.5" font-family="Helvetica,sans-Serif" font-size="10.00">+ load()</text>
</a>
</g>
</g>
<!-- Node16&#45;&gt;Node18 -->
<g id="edge18" class="edge">
<title>Node16&#45;&gt;Node18</title>
<path fill="none" stroke="midnightblue" d="M912.57,-377.48C921.45,-344.56 932.58,-303.28 940.58,-273.64"/>
<polygon fill="none" stroke="midnightblue" points="909.12,-376.84 909.89,-387.4 915.88,-378.66 909.12,-376.84"/>
</g>
</g>
</svg>
        <g id="navigator" transform="translate(0 0)" fill="#404254">
                <rect fill="#f2f5e9" fill-opacity="0.5" stroke="#606060" stroke-width=".5" x="0" y="0" width="60" height="60"/>
                <use id="zoomplus" xlink:href="#zoomPlus" x="17" y="9" onmousedown="handleZoom(evt,'in')"/>
                <use id="zoomminus" xlink:href="#zoomMin" x="42" y="9" onmousedown="handleZoom(evt,'out')"/>
                <use id="reset" xlink:href="#resetDef" x="30" y="36" onmousedown="handleReset()"/>
                <g id="arrowUp" xlink:href="#dirArrow" transform="translate(30 24)" onmousedown="handlePan(0,-1)">
                  <use xlink:href="#rim" fill="#404040">
                        <set attributeName="fill" to="#808080" begin="arrowUp.mouseover" end="arrowUp.mouseout"/>
                  </use>
                  <path fill="none" stroke="white" stroke-width="1.5" d="M0,-3.0v7 M-2.5,-0.5L0,-3.0L2.5,-0.5"/>
                </g>
                <g id="arrowRight" xlink:href="#dirArrow" transform="rotate(90) translate(36 -43)" onmousedown="handlePan(1,0)">
                  <use xlink:href="#rim" fill="#404040">
                        <set attributeName="fill" to="#808080" begin="arrowRight.mouseover" end="arrowRight.mouseout"/>
                  </use>
                  <path fill="none" stroke="white" stroke-width="1.5" d="M0,-3.0v7 M-2.5,-0.5L0,-3.0L2.5,-0.5"/>
                </g>
                <g id="arrowDown" xlink:href="#dirArrow" transform="rotate(180) translate(-30 -48)" onmousedown="handlePan(0,1)">
                  <use xlink:href="#rim" fill="#404040">
                        <set attributeName="fill" to="#808080" begin="arrowDown.mouseover" end="arrowDown.mouseout"/>
                  </use>
                  <path fill="none" stroke="white" stroke-width="1.5" d="M0,-3.0v7 M-2.5,-0.5L0,-3.0L2.5,-0.5"/>
                </g>
                <g id="arrowLeft" xlink:href="#dirArrow" transform="rotate(270) translate(-36 17)" onmousedown="handlePan(-1,0)">
                  <use xlink:href="#rim" fill="#404040">
                        <set attributeName="fill" to="#808080" begin="arrowLeft.mouseover" end="arrowLeft.mouseout"/>
                  </use>
                  <path fill="none" stroke="white" stroke-width="1.5" d="M0,-3.0v7 M-2.5,-0.5L0,-3.0L2.5,-0.5"/>
                </g>
        </g>
        <svg viewBox="0 0 15 15" width="100%" height="30px" preserveAspectRatio="xMaxYMin meet">
         <g id="arrow_out" transform="scale(0.3 0.3)">
          <a xlink:href="structcie_1_1gl_1_1GLTraits__inherit__graph_org.svg" target="_base">
           <rect id="button" ry="5" rx="5" y="6" x="6" height="38" width="38"
                fill="#f2f5e9" fill-opacity="0.5" stroke="#606060" stroke-width="1.0"/>
           <path id="arrow"
             d="M 11.500037,31.436501 C 11.940474,20.09759 22.043105,11.32322 32.158766,21.979434 L 37.068811,17.246167 C 37.068811,17.246167 37.088388,32 37.088388,32 L 22.160133,31.978069 C 22.160133,31.978069 26.997745,27.140456 26.997745,27.140456 C 18.528582,18.264221 13.291696,25.230495 11.500037,31.436501 z"
             style="fill:#404040;"/>
          </a>
         </g>
        </svg>
</svg>
