<?xml version="1.0" encoding="UTF-8" standalone="no"?>
<!DOCTYPE svg PUBLIC "-//W3C//DTD SVG 1.1//EN"
 "http://www.w3.org/Graphics/SVG/1.1/DTD/svg11.dtd">
<!-- Generated by graphviz version 2.43.0 (0)
 -->
<!-- Title: cie::gl::Plot2&lt; XContainer, YContainer &gt; Pages: 1 -->
<svg width="841pt" height="608pt"
 viewBox="0.00 0.00 841.31 608.00" xmlns="http://www.w3.org/2000/svg" xmlns:xlink="http://www.w3.org/1999/xlink">
<g id="graph0" class="graph" transform="scale(1 1) rotate(0) translate(4 604)">
<title>cie::gl::Plot2&lt; XContainer, YContainer &gt;</title>
<polygon fill="white" stroke="transparent" points="-4,4 -4,-604 837.31,-604 837.31,4 -4,4"/>
<!-- Node1 -->
<g id="node1" class="node">
<title>Node1</title>
<g id="a_node1"><a xlink:title="Standard x&#45;y plot.">
<polygon fill="#bfbfbf" stroke="black" points="343.81,-0.5 343.81,-68.5 487.81,-68.5 487.81,-0.5 343.81,-0.5"/>
<text text-anchor="start" x="351.81" y="-56.5" font-family="Helvetica,sans-Serif" font-size="10.00">cie::gl::Plot2&lt; XContainer,</text>
<text text-anchor="middle" x="415.81" y="-45.5" font-family="Helvetica,sans-Serif" font-size="10.00"> YContainer &gt;</text>
<polyline fill="none" stroke="black" points="343.81,-38.5 487.81,-38.5 "/>
<text text-anchor="middle" x="415.81" y="-26.5" font-family="Helvetica,sans-Serif" font-size="10.00"> </text>
<polyline fill="none" stroke="black" points="343.81,-19.5 487.81,-19.5 "/>
<text text-anchor="start" x="351.81" y="-7.5" font-family="Helvetica,sans-Serif" font-size="10.00">+ Plot2()</text>
</a>
</g>
</g>
<!-- Node2 -->
<g id="node2" class="node">
<title>Node2</title>
<g id="a_node2"><a xlink:href="classcie_1_1gl_1_1AbsPlot2.html" target="_top" xlink:title=" ">
<polygon fill="white" stroke="black" points="364.31,-106.5 364.31,-196.5 467.31,-196.5 467.31,-106.5 364.31,-106.5"/>
<text text-anchor="start" x="372.31" y="-184.5" font-family="Helvetica,sans-Serif" font-size="10.00">cie::gl::AbsPlot2&lt;</text>
<text text-anchor="middle" x="415.81" y="-173.5" font-family="Helvetica,sans-Serif" font-size="10.00"> std::true_type &gt;</text>
<polyline fill="none" stroke="black" points="364.31,-166.5 467.31,-166.5 "/>
<text text-anchor="middle" x="415.81" y="-154.5" font-family="Helvetica,sans-Serif" font-size="10.00"> </text>
<polyline fill="none" stroke="black" points="364.31,-147.5 467.31,-147.5 "/>
<text text-anchor="start" x="372.31" y="-135.5" font-family="Helvetica,sans-Serif" font-size="10.00">+ AbsPlot2()</text>
<text text-anchor="start" x="372.31" y="-124.5" font-family="Helvetica,sans-Serif" font-size="10.00">+ AbsPlot2()</text>
<text text-anchor="start" x="372.31" y="-113.5" font-family="Helvetica,sans-Serif" font-size="10.00">+ fit()</text>
</a>
</g>
</g>
<!-- Node2&#45;&gt;Node1 -->
<g id="edge1" class="edge">
<title>Node2&#45;&gt;Node1</title>
<path fill="none" stroke="midnightblue" d="M415.81,-96.23C415.81,-86.8 415.81,-77.26 415.81,-68.62"/>
<polygon fill="none" stroke="midnightblue" points="412.31,-96.37 415.81,-106.37 419.31,-96.37 412.31,-96.37"/>
</g>
<!-- Node3 -->
<g id="node3" class="node">
<title>Node3</title>
<g id="a_node3"><a xlink:href="classcie_1_1gl_1_1AbsPlot.html" target="_top" xlink:title=" ">
<polygon fill="white" stroke="black" points="370.31,-382.5 370.31,-494.5 459.31,-494.5 459.31,-382.5 370.31,-382.5"/>
<text text-anchor="middle" x="414.81" y="-482.5" font-family="Helvetica,sans-Serif" font-size="10.00">cie::gl::AbsPlot</text>
<polyline fill="none" stroke="black" points="370.31,-475.5 459.31,-475.5 "/>
<text text-anchor="middle" x="414.81" y="-463.5" font-family="Helvetica,sans-Serif" font-size="10.00"> </text>
<polyline fill="none" stroke="black" points="370.31,-456.5 459.31,-456.5 "/>
<text text-anchor="start" x="378.31" y="-444.5" font-family="Helvetica,sans-Serif" font-size="10.00">+ AbsPlot()</text>
<text text-anchor="start" x="378.31" y="-433.5" font-family="Helvetica,sans-Serif" font-size="10.00">+ AbsPlot()</text>
<text text-anchor="start" x="378.31" y="-422.5" font-family="Helvetica,sans-Serif" font-size="10.00">+ update()</text>
<text text-anchor="start" x="378.31" y="-411.5" font-family="Helvetica,sans-Serif" font-size="10.00">+ fit()</text>
<text text-anchor="start" x="378.31" y="-400.5" font-family="Helvetica,sans-Serif" font-size="10.00">+ show()</text>
<text text-anchor="start" x="378.31" y="-389.5" font-family="Helvetica,sans-Serif" font-size="10.00">+ attributes()</text>
</a>
</g>
</g>
<!-- Node3&#45;&gt;Node2 -->
<g id="edge2" class="edge">
<title>Node3&#45;&gt;Node2</title>
<path fill="none" stroke="midnightblue" d="M415.04,-372.1C415.23,-318.42 415.49,-243.84 415.65,-196.88"/>
<polygon fill="none" stroke="midnightblue" points="411.54,-372.2 415,-382.21 418.54,-372.22 411.54,-372.2"/>
</g>
<!-- Node9 -->
<g id="node9" class="node">
<title>Node9</title>
<g id="a_node9"><a xlink:href="classcie_1_1gl_1_1AbsPlot2.html" target="_top" xlink:title=" ">
<polygon fill="white" stroke="black" points="444.31,-244.5 444.31,-334.5 547.31,-334.5 547.31,-244.5 444.31,-244.5"/>
<text text-anchor="start" x="452.31" y="-322.5" font-family="Helvetica,sans-Serif" font-size="10.00">cie::gl::AbsPlot2&lt;</text>
<text text-anchor="middle" x="495.81" y="-311.5" font-family="Helvetica,sans-Serif" font-size="10.00"> Tag, Args &gt;</text>
<polyline fill="none" stroke="black" points="444.31,-304.5 547.31,-304.5 "/>
<text text-anchor="middle" x="495.81" y="-292.5" font-family="Helvetica,sans-Serif" font-size="10.00"> </text>
<polyline fill="none" stroke="black" points="444.31,-285.5 547.31,-285.5 "/>
<text text-anchor="start" x="452.31" y="-273.5" font-family="Helvetica,sans-Serif" font-size="10.00">+ AbsPlot2()</text>
<text text-anchor="start" x="452.31" y="-262.5" font-family="Helvetica,sans-Serif" font-size="10.00">+ AbsPlot2()</text>
<text text-anchor="start" x="452.31" y="-251.5" font-family="Helvetica,sans-Serif" font-size="10.00">+ fit()</text>
</a>
</g>
</g>
<!-- Node3&#45;&gt;Node9 -->
<g id="edge11" class="edge">
<title>Node3&#45;&gt;Node9</title>
<path fill="none" stroke="midnightblue" d="M450.11,-373.44C457.26,-360.46 464.63,-347.08 471.31,-334.95"/>
<polygon fill="none" stroke="midnightblue" points="446.96,-371.9 445.2,-382.34 453.09,-375.28 446.96,-371.9"/>
</g>
<!-- Node4 -->
<g id="node4" class="node">
<title>Node4</title>
<g id="a_node4"><a xlink:title=" ">
<polygon fill="white" stroke="#bfbfbf" points="322.31,-542.5 322.31,-599.5 407.31,-599.5 407.31,-542.5 322.31,-542.5"/>
<text text-anchor="middle" x="364.81" y="-587.5" font-family="Helvetica,sans-Serif" font-size="10.00">SharedPointer</text>
<polyline fill="none" stroke="#bfbfbf" points="322.31,-580.5 407.31,-580.5 "/>
<text text-anchor="middle" x="364.81" y="-568.5" font-family="Helvetica,sans-Serif" font-size="10.00"> </text>
<polyline fill="none" stroke="#bfbfbf" points="322.31,-561.5 407.31,-561.5 "/>
<text text-anchor="middle" x="364.81" y="-549.5" font-family="Helvetica,sans-Serif" font-size="10.00"> </text>
</a>
</g>
</g>
<!-- Node4&#45;&gt;Node2 -->
<g id="edge8" class="edge">
<title>Node4&#45;&gt;Node2</title>
<path fill="none" stroke="#404040" d="M322.29,-567.25C238.42,-560.84 56.52,-541.77 18.81,-495 -12.72,-455.91 2.76,-429.59 18.81,-382 43.43,-308.97 61.63,-289.53 123.81,-244 192.32,-193.83 289.11,-170.64 352.16,-160.29"/>
<polygon fill="none" stroke="#404040" points="352.45,-160.25 357.76,-155.37 364.3,-158.39 359,-163.27 352.45,-160.25"/>
<text text-anchor="middle" x="62.31" y="-356" font-family="Helvetica,sans-Serif" font-size="10.00"> #_p_camera</text>
</g>
<!-- Node4&#45;&gt;Node3 -->
<g id="edge3" class="edge">
<title>Node4&#45;&gt;Node3</title>
<path fill="none" stroke="#404040" d="M323.05,-542.25C314.6,-533.24 310.1,-522.99 316.81,-513 326.93,-497.92 339.22,-504.2 359.44,-494.4"/>
<polygon fill="none" stroke="#404040" points="359.7,-494.25 362.83,-487.75 370.03,-488.14 366.9,-494.64 359.7,-494.25"/>
<text text-anchor="middle" x="354.81" y="-516" font-family="Helvetica,sans-Serif" font-size="10.00"> #_p_attributes</text>
</g>
<!-- Node4&#45;&gt;Node3 -->
<g id="edge4" class="edge">
<title>Node4&#45;&gt;Node3</title>
<path fill="none" stroke="#404040" d="M383.34,-542.48C386.82,-536.55 390.18,-530.2 392.81,-524 395.19,-518.39 397.36,-512.45 399.34,-506.43"/>
<polygon fill="none" stroke="#404040" points="399.38,-506.3 397.31,-499.39 402.89,-494.82 404.96,-501.73 399.38,-506.3"/>
<text text-anchor="middle" x="429.81" y="-516" font-family="Helvetica,sans-Serif" font-size="10.00"> #_p_window</text>
</g>
<!-- Node4&#45;&gt;Node9 -->
<g id="edge15" class="edge">
<title>Node4&#45;&gt;Node9</title>
<path fill="none" stroke="#404040" d="M407.31,-561.23C428.53,-554.6 452.63,-543.23 466.81,-524 504.43,-472.97 507.1,-397.99 503.36,-346.86"/>
<polygon fill="none" stroke="#404040" points="503.34,-346.68 498.85,-341.04 502.32,-334.72 506.82,-340.36 503.34,-346.68"/>
<text text-anchor="middle" x="537.31" y="-436" font-family="Helvetica,sans-Serif" font-size="10.00"> #_p_camera</text>
</g>
<!-- Node5 -->
<g id="node5" class="node">
<title>Node5</title>
<g id="a_node5"><a xlink:title=" ">
<polygon fill="white" stroke="#bfbfbf" points="183.31,-410 183.31,-467 352.31,-467 352.31,-410 183.31,-410"/>
<text text-anchor="middle" x="267.81" y="-455" font-family="Helvetica,sans-Serif" font-size="10.00">shared_ptr&lt; index_container &gt;</text>
<polyline fill="none" stroke="#bfbfbf" points="183.31,-448 352.31,-448 "/>
<text text-anchor="middle" x="267.81" y="-436" font-family="Helvetica,sans-Serif" font-size="10.00"> </text>
<polyline fill="none" stroke="#bfbfbf" points="183.31,-429 352.31,-429 "/>
<text text-anchor="middle" x="267.81" y="-417" font-family="Helvetica,sans-Serif" font-size="10.00"> </text>
</a>
</g>
</g>
<!-- Node5&#45;&gt;Node2 -->
<g id="edge5" class="edge">
<title>Node5&#45;&gt;Node2</title>
<path fill="none" stroke="#404040" d="M248.46,-409.95C239.26,-393.35 231.67,-371.86 238.81,-353 262.02,-291.63 313.54,-236.92 355.04,-200.21"/>
<polygon fill="none" stroke="#404040" points="355.21,-200.07 357.12,-193.12 364.27,-192.2 362.36,-199.16 355.21,-200.07"/>
<text text-anchor="middle" x="340.31" y="-287" font-family="Helvetica,sans-Serif" font-size="10.00"> #_p_indices</text>
</g>
<!-- Node5&#45;&gt;Node9 -->
<g id="edge12" class="edge">
<title>Node5&#45;&gt;Node9</title>
<path fill="none" stroke="#404040" d="M305.69,-409.87C329.27,-392.96 360.43,-371.16 388.81,-353 403.1,-343.86 418.74,-334.42 433.54,-325.73"/>
<polygon fill="none" stroke="#404040" points="433.77,-325.59 436.94,-319.12 444.14,-319.55 440.97,-326.03 433.77,-325.59"/>
<text text-anchor="middle" x="420.31" y="-356" font-family="Helvetica,sans-Serif" font-size="10.00"> #_p_indices</text>
</g>
<!-- Node6 -->
<g id="node6" class="node">
<title>Node6</title>
<g id="a_node6"><a xlink:title=" ">
<polygon fill="white" stroke="#bfbfbf" points="28.31,-404.5 28.31,-472.5 165.31,-472.5 165.31,-404.5 28.31,-404.5"/>
<text text-anchor="start" x="36.31" y="-460.5" font-family="Helvetica,sans-Serif" font-size="10.00">shared_ptr&lt; cie::gl</text>
<text text-anchor="middle" x="96.81" y="-449.5" font-family="Helvetica,sans-Serif" font-size="10.00">::AbsPlot2::Plot2Scene &gt;</text>
<polyline fill="none" stroke="#bfbfbf" points="28.31,-442.5 165.31,-442.5 "/>
<text text-anchor="middle" x="96.81" y="-430.5" font-family="Helvetica,sans-Serif" font-size="10.00"> </text>
<polyline fill="none" stroke="#bfbfbf" points="28.31,-423.5 165.31,-423.5 "/>
<text text-anchor="middle" x="96.81" y="-411.5" font-family="Helvetica,sans-Serif" font-size="10.00"> </text>
</a>
</g>
</g>
<!-- Node6&#45;&gt;Node2 -->
<g id="edge6" class="edge">
<title>Node6&#45;&gt;Node2</title>
<path fill="none" stroke="#404040" d="M103.99,-404.29C114.79,-361.76 139.14,-288.29 185.81,-244 231.98,-200.18 301.73,-176.44 352.3,-164.21"/>
<polygon fill="none" stroke="#404040" points="352.39,-164.19 357.33,-158.94 364.08,-161.48 359.13,-166.73 352.39,-164.19"/>
<text text-anchor="middle" x="214.31" y="-287" font-family="Helvetica,sans-Serif" font-size="10.00"> #_p_scene</text>
</g>
<!-- Node6&#45;&gt;Node9 -->
<g id="edge13" class="edge">
<title>Node6&#45;&gt;Node9</title>
<path fill="none" stroke="#404040" d="M137.1,-404.46C148.48,-396.27 161.2,-388.1 173.81,-382 258.76,-340.89 365.5,-315.12 432.21,-301.77"/>
<polygon fill="none" stroke="#404040" points="432.41,-301.73 437.53,-296.65 444.19,-299.42 439.07,-304.5 432.41,-301.73"/>
<text text-anchor="middle" x="270.31" y="-356" font-family="Helvetica,sans-Serif" font-size="10.00"> #_p_scene</text>
</g>
<!-- Node7 -->
<g id="node7" class="node">
<title>Node7</title>
<g id="a_node7"><a xlink:title=" ">
<polygon fill="white" stroke="#bfbfbf" points="579.31,-404.5 579.31,-472.5 698.31,-472.5 698.31,-404.5 579.31,-404.5"/>
<text text-anchor="start" x="587.31" y="-460.5" font-family="Helvetica,sans-Serif" font-size="10.00">shared_ptr&lt; controls</text>
<text text-anchor="middle" x="638.81" y="-449.5" font-family="Helvetica,sans-Serif" font-size="10.00">_type &gt;</text>
<polyline fill="none" stroke="#bfbfbf" points="579.31,-442.5 698.31,-442.5 "/>
<text text-anchor="middle" x="638.81" y="-430.5" font-family="Helvetica,sans-Serif" font-size="10.00"> </text>
<polyline fill="none" stroke="#bfbfbf" points="579.31,-423.5 698.31,-423.5 "/>
<text text-anchor="middle" x="638.81" y="-411.5" font-family="Helvetica,sans-Serif" font-size="10.00"> </text>
</a>
</g>
</g>
<!-- Node7&#45;&gt;Node2 -->
<g id="edge7" class="edge">
<title>Node7&#45;&gt;Node2</title>
<path fill="none" stroke="#404040" d="M635.26,-404.18C628.44,-356.13 609.18,-267.43 556.81,-215 535.54,-193.71 505.78,-179.07 479.07,-169.34"/>
<polygon fill="none" stroke="#404040" points="478.8,-169.25 471.83,-171.08 467.46,-165.34 474.43,-163.51 478.8,-169.25"/>
<text text-anchor="middle" x="654.31" y="-287" font-family="Helvetica,sans-Serif" font-size="10.00"> #_p_controls</text>
</g>
<!-- Node7&#45;&gt;Node9 -->
<g id="edge14" class="edge">
<title>Node7&#45;&gt;Node9</title>
<path fill="none" stroke="#404040" d="M594.96,-404.25C580.27,-392.25 564.23,-378.16 550.81,-364 545.06,-357.94 539.36,-351.28 533.93,-344.52"/>
<polygon fill="none" stroke="#404040" points="533.58,-344.06 526.73,-341.79 526.2,-334.6 533.04,-336.87 533.58,-344.06"/>
<text text-anchor="middle" x="584.31" y="-356" font-family="Helvetica,sans-Serif" font-size="10.00"> #_p_controls</text>
</g>
<!-- Node8 -->
<g id="node8" class="node">
<title>Node8</title>
<g id="a_node8"><a xlink:title=" ">
<polygon fill="white" stroke="#bfbfbf" points="716.31,-404.5 716.31,-472.5 833.31,-472.5 833.31,-404.5 716.31,-404.5"/>
<text text-anchor="start" x="724.31" y="-460.5" font-family="Helvetica,sans-Serif" font-size="10.00">vector&lt; vertex_type</text>
<text text-anchor="middle" x="774.81" y="-449.5" font-family="Helvetica,sans-Serif" font-size="10.00">::SharedPointer &gt;</text>
<polyline fill="none" stroke="#bfbfbf" points="716.31,-442.5 833.31,-442.5 "/>
<text text-anchor="middle" x="774.81" y="-430.5" font-family="Helvetica,sans-Serif" font-size="10.00"> </text>
<polyline fill="none" stroke="#bfbfbf" points="716.31,-423.5 833.31,-423.5 "/>
<text text-anchor="middle" x="774.81" y="-411.5" font-family="Helvetica,sans-Serif" font-size="10.00"> </text>
</a>
</g>
</g>
<!-- Node8&#45;&gt;Node2 -->
<g id="edge9" class="edge">
<title>Node8&#45;&gt;Node2</title>
<path fill="none" stroke="#404040" d="M769.21,-404.27C760.29,-361.38 738.79,-287.14 691.81,-244 632.85,-189.85 541.03,-167.68 479.68,-158.64"/>
<polygon fill="none" stroke="#404040" points="479.35,-158.6 472.86,-161.74 467.46,-156.96 473.95,-153.81 479.35,-158.6"/>
<text text-anchor="middle" x="775.81" y="-287" font-family="Helvetica,sans-Serif" font-size="10.00"> #_vertices</text>
</g>
<!-- Node8&#45;&gt;Node9 -->
<g id="edge16" class="edge">
<title>Node8&#45;&gt;Node9</title>
<path fill="none" stroke="#404040" d="M738.66,-404.4C729.04,-396.49 718.37,-388.47 707.81,-382 681.69,-366 611.23,-336.51 558.67,-315.33"/>
<polygon fill="none" stroke="#404040" points="558.54,-315.28 551.49,-316.75 547.41,-310.81 554.47,-309.33 558.54,-315.28"/>
<text text-anchor="middle" x="696.81" y="-356" font-family="Helvetica,sans-Serif" font-size="10.00"> #_vertices</text>
</g>
<!-- Node9&#45;&gt;Node2 -->
<g id="edge10" class="edge">
<title>Node9&#45;&gt;Node2</title>
<path fill="none" stroke="orange" d="M464.71,-235.63C457.17,-222.82 449.2,-209.27 441.92,-196.9"/>
<polygon fill="orange" stroke="orange" points="461.75,-237.5 469.83,-244.34 467.78,-233.95 461.75,-237.5"/>
<text text-anchor="middle" x="505.81" y="-218" font-family="Helvetica,sans-Serif" font-size="10.00"> &lt; std::true_type &gt;</text>
</g>
</g>
</svg>
