<?xml version="1.0" encoding="UTF-8" standalone="no"?>
<!DOCTYPE svg PUBLIC "-//W3C//DTD SVG 1.1//EN"
 "http://www.w3.org/Graphics/SVG/1.1/DTD/svg11.dtd">
<!-- Generated by graphviz version 2.43.0 (0)
 -->
<!-- Title: cie::gl::ShaderDefinitions::ShaderDefinition Pages: 1 -->
<svg width="153pt" height="193pt"
 viewBox="0.00 0.00 153.00 193.00" xmlns="http://www.w3.org/2000/svg" xmlns:xlink="http://www.w3.org/1999/xlink">
<g id="graph0" class="graph" transform="scale(1 1) rotate(0) translate(4 189)">
<title>cie::gl::ShaderDefinitions::ShaderDefinition</title>
<polygon fill="white" stroke="transparent" points="-4,4 -4,-189 149,-189 149,4 -4,4"/>
<!-- Node1 -->
<g id="node1" class="node">
<title>Node1</title>
<g id="a_node1"><a xlink:title=" ">
<polygon fill="#bfbfbf" stroke="black" points="0,-0.5 0,-68.5 138,-68.5 138,-0.5 0,-0.5"/>
<text text-anchor="start" x="8" y="-56.5" font-family="Helvetica,sans-Serif" font-size="10.00">cie::gl::ShaderDefinitions</text>
<text text-anchor="middle" x="69" y="-45.5" font-family="Helvetica,sans-Serif" font-size="10.00">::ShaderDefinition</text>
<polyline fill="none" stroke="black" points="0,-38.5 138,-38.5 "/>
<text text-anchor="middle" x="69" y="-26.5" font-family="Helvetica,sans-Serif" font-size="10.00"> </text>
<polyline fill="none" stroke="black" points="0,-19.5 138,-19.5 "/>
<text text-anchor="middle" x="69" y="-7.5" font-family="Helvetica,sans-Serif" font-size="10.00"> </text>
</a>
</g>
</g>
<!-- Node2 -->
<g id="node2" class="node">
<title>Node2</title>
<g id="a_node2"><a xlink:title=" ">
<polygon fill="white" stroke="#bfbfbf" points="47,-127.5 47,-184.5 91,-184.5 91,-127.5 47,-127.5"/>
<text text-anchor="middle" x="69" y="-172.5" font-family="Helvetica,sans-Serif" font-size="10.00">string</text>
<polyline fill="none" stroke="#bfbfbf" points="47,-165.5 91,-165.5 "/>
<text text-anchor="middle" x="69" y="-153.5" font-family="Helvetica,sans-Serif" font-size="10.00"> </text>
<polyline fill="none" stroke="#bfbfbf" points="47,-146.5 91,-146.5 "/>
<text text-anchor="middle" x="69" y="-134.5" font-family="Helvetica,sans-Serif" font-size="10.00"> </text>
</a>
</g>
</g>
<!-- Node2&#45;&gt;Node1 -->
<g id="edge1" class="edge">
<title>Node2&#45;&gt;Node1</title>
<path fill="none" stroke="#404040" d="M69,-127.28C69,-113.47 69,-96.4 69,-80.75"/>
<polygon fill="none" stroke="#404040" points="69,-80.59 65,-74.59 69,-68.59 73,-74.59 69,-80.59"/>
<text text-anchor="middle" x="107" y="-101" font-family="Helvetica,sans-Serif" font-size="10.00"> +configuration</text>
<text text-anchor="middle" x="107" y="-90" font-family="Helvetica,sans-Serif" font-size="10.00">+source</text>
</g>
</g>
</svg>
