<?xml version="1.0" encoding="UTF-8" standalone="no"?>
<!DOCTYPE svg PUBLIC "-//W3C//DTD SVG 1.1//EN"
 "http://www.w3.org/Graphics/SVG/1.1/DTD/svg11.dtd">
<!-- Generated by graphviz version 2.43.0 (0)
 -->
<!-- Title: Texture.hpp Pages: 1 -->
<svg width="1169pt" height="296pt"
 viewBox="0.00 0.00 1168.50 296.00" xmlns="http://www.w3.org/2000/svg" xmlns:xlink="http://www.w3.org/1999/xlink">
<g id="graph0" class="graph" transform="scale(1 1) rotate(0) translate(4 292)">
<title>Texture.hpp</title>
<polygon fill="white" stroke="transparent" points="-4,4 -4,-292 1164.5,-292 1164.5,4 -4,4"/>
<!-- Node1 -->
<g id="node1" class="node">
<title>Node1</title>
<g id="a_node1"><a xlink:title=" ">
<polygon fill="#bfbfbf" stroke="black" points="815.5,-268.5 815.5,-287.5 889.5,-287.5 889.5,-268.5 815.5,-268.5"/>
<text text-anchor="middle" x="852.5" y="-275.5" font-family="Helvetica,sans-Serif" font-size="10.00">Texture.hpp</text>
</a>
</g>
</g>
<!-- Node2 -->
<g id="node2" class="node">
<title>Node2</title>
<g id="a_node2"><a xlink:title=" ">
<polygon fill="white" stroke="#bfbfbf" points="0,-6 0,-25 71,-25 71,-6 0,-6"/>
<text text-anchor="middle" x="35.5" y="-13" font-family="Helvetica,sans-Serif" font-size="10.00">glad/glad.h</text>
</a>
</g>
</g>
<!-- Node1&#45;&gt;Node2 -->
<g id="edge1" class="edge">
<title>Node1&#45;&gt;Node2</title>
<path fill="none" stroke="midnightblue" d="M815.44,-277.06C674.98,-276.5 177.77,-267.23 66.5,-165 30.05,-131.52 30.41,-67.17 33.18,-35.32"/>
<polygon fill="midnightblue" stroke="midnightblue" points="36.68,-35.48 34.24,-25.17 29.72,-34.75 36.68,-35.48"/>
</g>
<!-- Node3 -->
<g id="node3" class="node">
<title>Node3</title>
<g id="a_node3"><a target="_parent" xlink:href="../../../cieutils/docs/html/IDObject_8hpp.html.html" xlink:title=" ">
<polygon fill="white" stroke="black" points="97.5,-134.5 97.5,-164.5 207.5,-164.5 207.5,-134.5 97.5,-134.5"/>
<text text-anchor="start" x="105.5" y="-152.5" font-family="Helvetica,sans-Serif" font-size="10.00">packages/types/inc</text>
<text text-anchor="middle" x="152.5" y="-141.5" font-family="Helvetica,sans-Serif" font-size="10.00">/IDObject.hpp</text>
</a>
</g>
</g>
<!-- Node1&#45;&gt;Node3 -->
<g id="edge2" class="edge">
<title>Node1&#45;&gt;Node3</title>
<path fill="none" stroke="midnightblue" d="M815.46,-272.89C754.54,-265.91 629.47,-250.67 524.5,-232 416.33,-212.76 291.83,-184.16 217.79,-166.45"/>
<polygon fill="midnightblue" stroke="midnightblue" points="218.23,-162.96 207.69,-164.03 216.6,-169.76 218.23,-162.96"/>
</g>
<!-- Node7 -->
<g id="node7" class="node">
<title>Node7</title>
<g id="a_node7"><a xlink:href="Shader_8hpp.html" target="_top" xlink:title=" ">
<polygon fill="white" stroke="black" points="534,-201.5 534,-231.5 655,-231.5 655,-201.5 534,-201.5"/>
<text text-anchor="start" x="542" y="-219.5" font-family="Helvetica,sans-Serif" font-size="10.00">packages/shaders/inc</text>
<text text-anchor="middle" x="594.5" y="-208.5" font-family="Helvetica,sans-Serif" font-size="10.00">/Shader.hpp</text>
</a>
</g>
</g>
<!-- Node1&#45;&gt;Node7 -->
<g id="edge7" class="edge">
<title>Node1&#45;&gt;Node7</title>
<path fill="none" stroke="midnightblue" d="M815.53,-268.48C776.43,-259.46 713.78,-245.01 665.14,-233.79"/>
<polygon fill="midnightblue" stroke="midnightblue" points="665.84,-230.36 655.31,-231.52 664.26,-237.18 665.84,-230.36"/>
</g>
<!-- Node13 -->
<g id="node13" class="node">
<title>Node13</title>
<g id="a_node13"><a xlink:title=" ">
<polygon fill="white" stroke="#bfbfbf" points="1102.5,-140 1102.5,-159 1160.5,-159 1160.5,-140 1102.5,-140"/>
<text text-anchor="middle" x="1131.5" y="-147" font-family="Helvetica,sans-Serif" font-size="10.00">memory</text>
</a>
</g>
</g>
<!-- Node1&#45;&gt;Node13 -->
<g id="edge24" class="edge">
<title>Node1&#45;&gt;Node13</title>
<path fill="none" stroke="midnightblue" d="M866.28,-268.38C880.19,-259.56 902.17,-245.31 920.5,-232 938.42,-218.99 939.73,-210.97 959.5,-201 1014.56,-173.23 1034.84,-184.02 1093.5,-165 1095.91,-164.22 1098.39,-163.37 1100.87,-162.49"/>
<polygon fill="midnightblue" stroke="midnightblue" points="1102.15,-165.75 1110.33,-159.02 1099.74,-159.18 1102.15,-165.75"/>
</g>
<!-- Node15 -->
<g id="node15" class="node">
<title>Node15</title>
<g id="a_node15"><a xlink:href="Image_8hpp.html" target="_top" xlink:title=" ">
<polygon fill="white" stroke="black" points="793.5,-201.5 793.5,-231.5 911.5,-231.5 911.5,-201.5 793.5,-201.5"/>
<text text-anchor="start" x="801.5" y="-219.5" font-family="Helvetica,sans-Serif" font-size="10.00">packages/texture/inc</text>
<text text-anchor="middle" x="852.5" y="-208.5" font-family="Helvetica,sans-Serif" font-size="10.00">/Image.hpp</text>
</a>
</g>
</g>
<!-- Node1&#45;&gt;Node15 -->
<g id="edge18" class="edge">
<title>Node1&#45;&gt;Node15</title>
<path fill="none" stroke="midnightblue" d="M852.5,-268.48C852.5,-261.47 852.5,-251.19 852.5,-241.7"/>
<polygon fill="midnightblue" stroke="midnightblue" points="856,-241.52 852.5,-231.52 849,-241.52 856,-241.52"/>
</g>
<!-- Node17 -->
<g id="node17" class="node">
<title>Node17</title>
<g id="a_node17"><a xlink:title=" ">
<polygon fill="white" stroke="#bfbfbf" points="968,-207 968,-226 1015,-226 1015,-207 968,-207"/>
<text text-anchor="middle" x="991.5" y="-214" font-family="Helvetica,sans-Serif" font-size="10.00">vector</text>
</a>
</g>
</g>
<!-- Node1&#45;&gt;Node17 -->
<g id="edge23" class="edge">
<title>Node1&#45;&gt;Node17</title>
<path fill="none" stroke="midnightblue" d="M872.42,-268.48C895.95,-258.4 935.31,-241.55 962.29,-230"/>
<polygon fill="midnightblue" stroke="midnightblue" points="963.81,-233.16 971.62,-226.01 961.05,-226.73 963.81,-233.16"/>
</g>
<!-- Node18 -->
<g id="node18" class="node">
<title>Node18</title>
<g id="a_node18"><a xlink:title=" ">
<polygon fill="white" stroke="#bfbfbf" points="1033,-201.5 1033,-231.5 1158,-231.5 1158,-201.5 1033,-201.5"/>
<text text-anchor="start" x="1041" y="-219.5" font-family="Helvetica,sans-Serif" font-size="10.00">packages/texture/impl</text>
<text text-anchor="middle" x="1095.5" y="-208.5" font-family="Helvetica,sans-Serif" font-size="10.00">/Texture_impl.hpp</text>
</a>
</g>
</g>
<!-- Node1&#45;&gt;Node18 -->
<g id="edge25" class="edge">
<title>Node1&#45;&gt;Node18</title>
<path fill="none" stroke="midnightblue" d="M887.32,-268.48C923.99,-259.49 982.67,-245.13 1028.39,-233.93"/>
<polygon fill="midnightblue" stroke="midnightblue" points="1029.35,-237.3 1038.23,-231.52 1027.68,-230.5 1029.35,-237.3"/>
</g>
<!-- Node4 -->
<g id="node4" class="node">
<title>Node4</title>
<g id="a_node4"><a xlink:href="types_8hpp.html" target="_top" xlink:title=" ">
<polygon fill="white" stroke="black" points="97.5,-67.5 97.5,-97.5 207.5,-97.5 207.5,-67.5 97.5,-67.5"/>
<text text-anchor="start" x="105.5" y="-85.5" font-family="Helvetica,sans-Serif" font-size="10.00">packages/types/inc</text>
<text text-anchor="middle" x="152.5" y="-74.5" font-family="Helvetica,sans-Serif" font-size="10.00">/types.hpp</text>
</a>
</g>
</g>
<!-- Node3&#45;&gt;Node4 -->
<g id="edge3" class="edge">
<title>Node3&#45;&gt;Node4</title>
<path fill="none" stroke="midnightblue" d="M152.5,-134.4C152.5,-126.64 152.5,-116.81 152.5,-107.86"/>
<polygon fill="midnightblue" stroke="midnightblue" points="156,-107.58 152.5,-97.58 149,-107.58 156,-107.58"/>
</g>
<!-- Node4&#45;&gt;Node2 -->
<g id="edge4" class="edge">
<title>Node4&#45;&gt;Node2</title>
<path fill="none" stroke="midnightblue" d="M127.11,-67.4C107.13,-56.29 79.46,-40.92 59.77,-29.98"/>
<polygon fill="midnightblue" stroke="midnightblue" points="61.25,-26.8 50.81,-25.01 57.85,-32.92 61.25,-26.8"/>
</g>
<!-- Node5 -->
<g id="node5" class="node">
<title>Node5</title>
<g id="a_node5"><a xlink:title=" ">
<polygon fill="white" stroke="#bfbfbf" points="223.5,-6 223.5,-25 267.5,-25 267.5,-6 223.5,-6"/>
<text text-anchor="middle" x="245.5" y="-13" font-family="Helvetica,sans-Serif" font-size="10.00">string</text>
</a>
</g>
</g>
<!-- Node4&#45;&gt;Node5 -->
<g id="edge5" class="edge">
<title>Node4&#45;&gt;Node5</title>
<path fill="none" stroke="midnightblue" d="M172.68,-67.4C188.13,-56.6 209.36,-41.76 224.92,-30.89"/>
<polygon fill="midnightblue" stroke="midnightblue" points="227.14,-33.6 233.33,-25.01 223.13,-27.87 227.14,-33.6"/>
</g>
<!-- Node6 -->
<g id="node6" class="node">
<title>Node6</title>
<g id="a_node6"><a xlink:title=" ">
<polygon fill="white" stroke="#bfbfbf" points="89.5,-0.5 89.5,-30.5 205.5,-30.5 205.5,-0.5 89.5,-0.5"/>
<text text-anchor="start" x="97.5" y="-18.5" font-family="Helvetica,sans-Serif" font-size="10.00">packages/traits/impl</text>
<text text-anchor="middle" x="147.5" y="-7.5" font-family="Helvetica,sans-Serif" font-size="10.00">/types_impl.hpp</text>
</a>
</g>
</g>
<!-- Node4&#45;&gt;Node6 -->
<g id="edge6" class="edge">
<title>Node4&#45;&gt;Node6</title>
<path fill="none" stroke="midnightblue" d="M151.42,-67.4C150.81,-59.56 150.05,-49.6 149.35,-40.57"/>
<polygon fill="midnightblue" stroke="midnightblue" points="152.84,-40.28 148.58,-30.58 145.86,-40.82 152.84,-40.28"/>
</g>
<!-- Node7&#45;&gt;Node2 -->
<g id="edge8" class="edge">
<title>Node7&#45;&gt;Node2</title>
<path fill="none" stroke="midnightblue" d="M533.65,-213.04C406.79,-207.41 122.92,-191.92 88.5,-165 67.58,-148.64 47.93,-71.79 39.64,-35.53"/>
<polygon fill="midnightblue" stroke="midnightblue" points="42.95,-34.31 37.36,-25.31 36.12,-35.83 42.95,-34.31"/>
</g>
<!-- Node7&#45;&gt;Node3 -->
<g id="edge9" class="edge">
<title>Node7&#45;&gt;Node3</title>
<path fill="none" stroke="midnightblue" d="M533.89,-208.66C459.92,-200.01 331.13,-183.92 221.5,-165 220.24,-164.78 218.98,-164.56 217.7,-164.33"/>
<polygon fill="midnightblue" stroke="midnightblue" points="218.27,-160.88 207.79,-162.49 216.98,-167.76 218.27,-160.88"/>
</g>
<!-- Node7&#45;&gt;Node5 -->
<g id="edge14" class="edge">
<title>Node7&#45;&gt;Node5</title>
<path fill="none" stroke="midnightblue" d="M533.86,-208.49C438.64,-197.19 263.86,-175.21 254.5,-165 221.86,-129.39 232.11,-66.55 240,-35.27"/>
<polygon fill="midnightblue" stroke="midnightblue" points="243.47,-35.86 242.72,-25.29 236.71,-34.02 243.47,-35.86"/>
</g>
<!-- Node8 -->
<g id="node8" class="node">
<title>Node8</title>
<g id="a_node8"><a target="_parent" xlink:href="../../../cieutils/docs/html/NamedObject_8hpp.html.html" xlink:title=" ">
<polygon fill="white" stroke="black" points="263.5,-134.5 263.5,-164.5 373.5,-164.5 373.5,-134.5 263.5,-134.5"/>
<text text-anchor="start" x="271.5" y="-152.5" font-family="Helvetica,sans-Serif" font-size="10.00">packages/types/inc</text>
<text text-anchor="middle" x="318.5" y="-141.5" font-family="Helvetica,sans-Serif" font-size="10.00">/NamedObject.hpp</text>
</a>
</g>
</g>
<!-- Node7&#45;&gt;Node8 -->
<g id="edge10" class="edge">
<title>Node7&#45;&gt;Node8</title>
<path fill="none" stroke="midnightblue" d="M534.95,-201.48C490.37,-190.98 429.42,-176.62 383.56,-165.82"/>
<polygon fill="midnightblue" stroke="midnightblue" points="384.25,-162.39 373.72,-163.5 382.65,-169.2 384.25,-162.39"/>
</g>
<!-- Node9 -->
<g id="node9" class="node">
<title>Node9</title>
<g id="a_node9"><a target="_parent" xlink:href="../../../cieutils/docs/html/types_8hpp.html.html" xlink:title=" ">
<polygon fill="white" stroke="black" points="744.5,-134.5 744.5,-164.5 854.5,-164.5 854.5,-134.5 744.5,-134.5"/>
<text text-anchor="start" x="752.5" y="-152.5" font-family="Helvetica,sans-Serif" font-size="10.00">packages/types/inc</text>
<text text-anchor="middle" x="799.5" y="-141.5" font-family="Helvetica,sans-Serif" font-size="10.00">/types.hpp</text>
</a>
</g>
</g>
<!-- Node7&#45;&gt;Node9 -->
<g id="edge11" class="edge">
<title>Node7&#45;&gt;Node9</title>
<path fill="none" stroke="midnightblue" d="M638.73,-201.48C670.01,-191.56 712.14,-178.2 745.42,-167.65"/>
<polygon fill="midnightblue" stroke="midnightblue" points="746.52,-170.97 755,-164.61 744.41,-164.3 746.52,-170.97"/>
</g>
<!-- Node10 -->
<g id="node10" class="node">
<title>Node10</title>
<g id="a_node10"><a target="_parent" xlink:href="../../../cieutils/docs/html/typedefs_8hpp.html.html" xlink:title=" ">
<polygon fill="white" stroke="black" points="392,-134.5 392,-164.5 511,-164.5 511,-134.5 392,-134.5"/>
<text text-anchor="start" x="400" y="-152.5" font-family="Helvetica,sans-Serif" font-size="10.00">packages/macros/inc</text>
<text text-anchor="middle" x="451.5" y="-141.5" font-family="Helvetica,sans-Serif" font-size="10.00">/typedefs.hpp</text>
</a>
</g>
</g>
<!-- Node7&#45;&gt;Node10 -->
<g id="edge12" class="edge">
<title>Node7&#45;&gt;Node10</title>
<path fill="none" stroke="midnightblue" d="M563.47,-201.4C542.48,-191.86 514.56,-179.16 491.85,-168.84"/>
<polygon fill="midnightblue" stroke="midnightblue" points="493.02,-165.53 482.47,-164.58 490.12,-171.9 493.02,-165.53"/>
</g>
<!-- Node11 -->
<g id="node11" class="node">
<title>Node11</title>
<g id="a_node11"><a target="_parent" xlink:href="../../../cieutils/docs/html/DynamicArray_8hpp.html.html" xlink:title=" ">
<polygon fill="white" stroke="black" points="529,-134.5 529,-164.5 660,-164.5 660,-134.5 529,-134.5"/>
<text text-anchor="start" x="537" y="-152.5" font-family="Helvetica,sans-Serif" font-size="10.00">packages/stl_extension</text>
<text text-anchor="middle" x="594.5" y="-141.5" font-family="Helvetica,sans-Serif" font-size="10.00">/inc/DynamicArray.hpp</text>
</a>
</g>
</g>
<!-- Node7&#45;&gt;Node11 -->
<g id="edge13" class="edge">
<title>Node7&#45;&gt;Node11</title>
<path fill="none" stroke="midnightblue" d="M594.5,-201.4C594.5,-193.64 594.5,-183.81 594.5,-174.86"/>
<polygon fill="midnightblue" stroke="midnightblue" points="598,-174.58 594.5,-164.58 591,-174.58 598,-174.58"/>
</g>
<!-- Node12 -->
<g id="node12" class="node">
<title>Node12</title>
<g id="a_node12"><a xlink:title=" ">
<polygon fill="white" stroke="#bfbfbf" points="678.5,-140 678.5,-159 726.5,-159 726.5,-140 678.5,-140"/>
<text text-anchor="middle" x="702.5" y="-147" font-family="Helvetica,sans-Serif" font-size="10.00">iosfwd</text>
</a>
</g>
</g>
<!-- Node7&#45;&gt;Node12 -->
<g id="edge15" class="edge">
<title>Node7&#45;&gt;Node12</title>
<path fill="none" stroke="midnightblue" d="M617.93,-201.4C636.21,-190.39 661.46,-175.2 679.6,-164.28"/>
<polygon fill="midnightblue" stroke="midnightblue" points="681.6,-167.16 688.37,-159.01 677.99,-161.16 681.6,-167.16"/>
</g>
<!-- Node7&#45;&gt;Node13 -->
<g id="edge16" class="edge">
<title>Node7&#45;&gt;Node13</title>
<path fill="none" stroke="midnightblue" d="M655.15,-210.27C778.77,-199.46 1051.77,-174.89 1093.5,-165 1096.5,-164.29 1099.57,-163.4 1102.62,-162.42"/>
<polygon fill="midnightblue" stroke="midnightblue" points="1103.85,-165.69 1112.09,-159.04 1101.49,-159.1 1103.85,-165.69"/>
</g>
<!-- Node14 -->
<g id="node14" class="node">
<title>Node14</title>
<g id="a_node14"><a xlink:title=" ">
<polygon fill="white" stroke="#bfbfbf" points="872.5,-140 872.5,-159 940.5,-159 940.5,-140 872.5,-140"/>
<text text-anchor="middle" x="906.5" y="-147" font-family="Helvetica,sans-Serif" font-size="10.00">filesystem</text>
</a>
</g>
</g>
<!-- Node7&#45;&gt;Node14 -->
<g id="edge17" class="edge">
<title>Node7&#45;&gt;Node14</title>
<path fill="none" stroke="midnightblue" d="M655.13,-206.6C710,-197.96 792.81,-183.46 863.5,-165 866.7,-164.16 870.01,-163.21 873.3,-162.2"/>
<polygon fill="midnightblue" stroke="midnightblue" points="874.58,-165.47 883.02,-159.08 872.43,-158.81 874.58,-165.47"/>
</g>
<!-- Node15&#45;&gt;Node9 -->
<g id="edge19" class="edge">
<title>Node15&#45;&gt;Node9</title>
<path fill="none" stroke="midnightblue" d="M841,-201.4C834.12,-192.96 825.24,-182.07 817.46,-172.52"/>
<polygon fill="midnightblue" stroke="midnightblue" points="820.01,-170.11 810.98,-164.58 814.58,-174.54 820.01,-170.11"/>
</g>
<!-- Node15&#45;&gt;Node13 -->
<g id="edge21" class="edge">
<title>Node15&#45;&gt;Node13</title>
<path fill="none" stroke="midnightblue" d="M911.66,-203.61C977.28,-190.35 1076.22,-170.07 1093.5,-165 1096.08,-164.24 1098.73,-163.39 1101.38,-162.49"/>
<polygon fill="midnightblue" stroke="midnightblue" points="1102.58,-165.77 1110.8,-159.08 1100.2,-159.19 1102.58,-165.77"/>
</g>
<!-- Node15&#45;&gt;Node14 -->
<g id="edge20" class="edge">
<title>Node15&#45;&gt;Node14</title>
<path fill="none" stroke="midnightblue" d="M864.22,-201.4C872.64,-191.26 884.01,-177.57 892.84,-166.94"/>
<polygon fill="midnightblue" stroke="midnightblue" points="895.58,-169.12 899.28,-159.19 890.19,-164.65 895.58,-169.12"/>
</g>
<!-- Node16 -->
<g id="node16" class="node">
<title>Node16</title>
<g id="a_node16"><a xlink:title=" ">
<polygon fill="white" stroke="#bfbfbf" points="959,-134.5 959,-164.5 1084,-164.5 1084,-134.5 959,-134.5"/>
<text text-anchor="start" x="967" y="-152.5" font-family="Helvetica,sans-Serif" font-size="10.00">packages/texture/impl</text>
<text text-anchor="middle" x="1021.5" y="-141.5" font-family="Helvetica,sans-Serif" font-size="10.00">/Image_impl.hpp</text>
</a>
</g>
</g>
<!-- Node15&#45;&gt;Node16 -->
<g id="edge22" class="edge">
<title>Node15&#45;&gt;Node16</title>
<path fill="none" stroke="midnightblue" d="M889.17,-201.4C914.42,-191.69 948.16,-178.71 975.25,-168.29"/>
<polygon fill="midnightblue" stroke="midnightblue" points="976.82,-171.43 984.9,-164.58 974.31,-164.9 976.82,-171.43"/>
</g>
</g>
</svg>
