<?xml version="1.0" encoding="UTF-8" standalone="no"?>
<!DOCTYPE svg PUBLIC "-//W3C//DTD SVG 1.1//EN"
 "http://www.w3.org/Graphics/SVG/1.1/DTD/svg11.dtd">
<!-- Generated by graphviz version 2.43.0 (0)
 -->
<!-- Title: types.hpp Pages: 1 -->
<svg width="276pt" height="95pt"
 viewBox="0.00 0.00 275.50 95.00" xmlns="http://www.w3.org/2000/svg" xmlns:xlink="http://www.w3.org/1999/xlink">
<g id="graph0" class="graph" transform="scale(1 1) rotate(0) translate(4 91)">
<title>types.hpp</title>
<polygon fill="white" stroke="transparent" points="-4,4 -4,-91 271.5,-91 271.5,4 -4,4"/>
<!-- Node1 -->
<g id="node1" class="node">
<title>Node1</title>
<g id="a_node1"><a xlink:title=" ">
<polygon fill="#bfbfbf" stroke="black" points="79,-67.5 79,-86.5 144,-86.5 144,-67.5 79,-67.5"/>
<text text-anchor="middle" x="111.5" y="-74.5" font-family="Helvetica,sans-Serif" font-size="10.00">types.hpp</text>
</a>
</g>
</g>
<!-- Node2 -->
<g id="node2" class="node">
<title>Node2</title>
<g id="a_node2"><a xlink:title=" ">
<polygon fill="white" stroke="#bfbfbf" points="0,-6 0,-25 71,-25 71,-6 0,-6"/>
<text text-anchor="middle" x="35.5" y="-13" font-family="Helvetica,sans-Serif" font-size="10.00">glad/glad.h</text>
</a>
</g>
</g>
<!-- Node1&#45;&gt;Node2 -->
<g id="edge1" class="edge">
<title>Node1&#45;&gt;Node2</title>
<path fill="none" stroke="midnightblue" d="M100.61,-67.48C88.53,-58.02 68.83,-42.6 54.26,-31.19"/>
<polygon fill="midnightblue" stroke="midnightblue" points="56.4,-28.42 46.37,-25.01 52.09,-33.93 56.4,-28.42"/>
</g>
<!-- Node3 -->
<g id="node3" class="node">
<title>Node3</title>
<g id="a_node3"><a xlink:title=" ">
<polygon fill="white" stroke="#bfbfbf" points="89.5,-6 89.5,-25 133.5,-25 133.5,-6 89.5,-6"/>
<text text-anchor="middle" x="111.5" y="-13" font-family="Helvetica,sans-Serif" font-size="10.00">string</text>
</a>
</g>
</g>
<!-- Node1&#45;&gt;Node3 -->
<g id="edge2" class="edge">
<title>Node1&#45;&gt;Node3</title>
<path fill="none" stroke="midnightblue" d="M111.5,-67.48C111.5,-59.08 111.5,-45.98 111.5,-35.16"/>
<polygon fill="midnightblue" stroke="midnightblue" points="115,-35.01 111.5,-25.01 108,-35.01 115,-35.01"/>
</g>
<!-- Node4 -->
<g id="node4" class="node">
<title>Node4</title>
<g id="a_node4"><a xlink:title=" ">
<polygon fill="white" stroke="#bfbfbf" points="151.5,-0.5 151.5,-30.5 267.5,-30.5 267.5,-0.5 151.5,-0.5"/>
<text text-anchor="start" x="159.5" y="-18.5" font-family="Helvetica,sans-Serif" font-size="10.00">packages/traits/impl</text>
<text text-anchor="middle" x="209.5" y="-7.5" font-family="Helvetica,sans-Serif" font-size="10.00">/types_impl.hpp</text>
</a>
</g>
</g>
<!-- Node1&#45;&gt;Node4 -->
<g id="edge3" class="edge">
<title>Node1&#45;&gt;Node4</title>
<path fill="none" stroke="midnightblue" d="M125.54,-67.48C139.06,-59.27 159.99,-46.56 177.57,-35.88"/>
<polygon fill="midnightblue" stroke="midnightblue" points="179.67,-38.7 186.4,-30.52 176.04,-32.72 179.67,-38.7"/>
</g>
</g>
</svg>
