<?xml version="1.0" encoding="UTF-8" standalone="no"?>
<!DOCTYPE svg PUBLIC "-//W3C//DTD SVG 1.1//EN"
 "http://www.w3.org/Graphics/SVG/1.1/DTD/svg11.dtd">
<!-- Generated by graphviz version 2.43.0 (0)
 -->
<!-- Title: Vertex2.hpp Pages: 1 -->
<svg width="954pt" height="441pt"
 viewBox="0.00 0.00 953.50 441.00" xmlns="http://www.w3.org/2000/svg" xmlns:xlink="http://www.w3.org/1999/xlink">
<g id="graph0" class="graph" transform="scale(1 1) rotate(0) translate(4 437)">
<title>Vertex2.hpp</title>
<polygon fill="white" stroke="transparent" points="-4,4 -4,-437 949.5,-437 949.5,4 -4,4"/>
<!-- Node1 -->
<g id="node1" class="node">
<title>Node1</title>
<g id="a_node1"><a xlink:title=" ">
<polygon fill="#bfbfbf" stroke="black" points="261,-413.5 261,-432.5 336,-432.5 336,-413.5 261,-413.5"/>
<text text-anchor="middle" x="298.5" y="-420.5" font-family="Helvetica,sans-Serif" font-size="10.00">Vertex2.hpp</text>
</a>
</g>
</g>
<!-- Node2 -->
<g id="node2" class="node">
<title>Node2</title>
<g id="a_node2"><a xlink:href="AbsVertex_8hpp.html" target="_top" xlink:title=" ">
<polygon fill="white" stroke="black" points="482,-346.5 482,-376.5 593,-376.5 593,-346.5 482,-346.5"/>
<text text-anchor="start" x="490" y="-364.5" font-family="Helvetica,sans-Serif" font-size="10.00">packages/buffer/inc</text>
<text text-anchor="middle" x="537.5" y="-353.5" font-family="Helvetica,sans-Serif" font-size="10.00">/AbsVertex.hpp</text>
</a>
</g>
</g>
<!-- Node1&#45;&gt;Node2 -->
<g id="edge1" class="edge">
<title>Node1&#45;&gt;Node2</title>
<path fill="none" stroke="midnightblue" d="M332.74,-413.48C368.86,-404.48 426.66,-390.09 471.66,-378.89"/>
<polygon fill="midnightblue" stroke="midnightblue" points="472.77,-382.22 481.63,-376.41 471.08,-375.43 472.77,-382.22"/>
</g>
<!-- Node4 -->
<g id="node4" class="node">
<title>Node4</title>
<g id="a_node4"><a target="_parent" xlink:href="../../../cieutils/docs/html/typedefs_8hpp.html.html" xlink:title=" ">
<polygon fill="white" stroke="black" points="0,-140 0,-170 119,-170 119,-140 0,-140"/>
<text text-anchor="start" x="8" y="-158" font-family="Helvetica,sans-Serif" font-size="10.00">packages/macros/inc</text>
<text text-anchor="middle" x="59.5" y="-147" font-family="Helvetica,sans-Serif" font-size="10.00">/typedefs.hpp</text>
</a>
</g>
</g>
<!-- Node1&#45;&gt;Node4 -->
<g id="edge29" class="edge">
<title>Node1&#45;&gt;Node4</title>
<path fill="none" stroke="midnightblue" d="M290.82,-413.45C257.92,-376.84 128.33,-232.61 78.85,-177.53"/>
<polygon fill="midnightblue" stroke="midnightblue" points="81.44,-175.18 72.15,-170.08 76.23,-179.86 81.44,-175.18"/>
</g>
<!-- Node3 -->
<g id="node3" class="node">
<title>Node3</title>
<g id="a_node3"><a xlink:title=" ">
<polygon fill="white" stroke="#bfbfbf" points="756,-6 756,-25 827,-25 827,-6 756,-6"/>
<text text-anchor="middle" x="791.5" y="-13" font-family="Helvetica,sans-Serif" font-size="10.00">glad/glad.h</text>
</a>
</g>
</g>
<!-- Node2&#45;&gt;Node3 -->
<g id="edge2" class="edge">
<title>Node2&#45;&gt;Node3</title>
<path fill="none" stroke="midnightblue" d="M593.2,-359.38C684.26,-356.51 859.75,-346.29 908.5,-310 940.41,-286.24 945.5,-268.28 945.5,-228.5 945.5,-228.5 945.5,-228.5 945.5,-154 945.5,-89.89 870.31,-48.24 825.01,-28.96"/>
<polygon fill="midnightblue" stroke="midnightblue" points="826.14,-25.64 815.56,-25.08 823.48,-32.12 826.14,-25.64"/>
</g>
<!-- Node2&#45;&gt;Node4 -->
<g id="edge3" class="edge">
<title>Node2&#45;&gt;Node4</title>
<path fill="none" stroke="midnightblue" d="M521,-346.2C494.39,-323.16 444.72,-280.24 442.5,-279 413.48,-262.77 215.75,-202.64 116.33,-172.89"/>
<polygon fill="midnightblue" stroke="midnightblue" points="117.32,-169.53 106.73,-170.02 115.31,-176.24 117.32,-169.53"/>
</g>
<!-- Node5 -->
<g id="node5" class="node">
<title>Node5</title>
<g id="a_node5"><a target="_parent" xlink:href="../../../cieutils/docs/html/types_8hpp.html.html" xlink:title=" ">
<polygon fill="white" stroke="black" points="323.5,-279.5 323.5,-309.5 433.5,-309.5 433.5,-279.5 323.5,-279.5"/>
<text text-anchor="start" x="331.5" y="-297.5" font-family="Helvetica,sans-Serif" font-size="10.00">packages/types/inc</text>
<text text-anchor="middle" x="378.5" y="-286.5" font-family="Helvetica,sans-Serif" font-size="10.00">/types.hpp</text>
</a>
</g>
</g>
<!-- Node2&#45;&gt;Node5 -->
<g id="edge4" class="edge">
<title>Node2&#45;&gt;Node5</title>
<path fill="none" stroke="midnightblue" d="M503,-346.4C479.35,-336.73 447.78,-323.82 422.35,-313.43"/>
<polygon fill="midnightblue" stroke="midnightblue" points="423.51,-310.12 412.93,-309.58 420.87,-316.6 423.51,-310.12"/>
</g>
<!-- Node6 -->
<g id="node6" class="node">
<title>Node6</title>
<g id="a_node6"><a target="_parent" xlink:href="../../../cieutils/docs/html/basic__concepts_8hpp.html.html" xlink:title=" ">
<polygon fill="white" stroke="black" points="137.5,-134.5 137.5,-175.5 269.5,-175.5 269.5,-134.5 137.5,-134.5"/>
<text text-anchor="start" x="145.5" y="-163.5" font-family="Helvetica,sans-Serif" font-size="10.00">packages/compile_time</text>
<text text-anchor="start" x="145.5" y="-152.5" font-family="Helvetica,sans-Serif" font-size="10.00">/packages/concepts/inc</text>
<text text-anchor="middle" x="203.5" y="-141.5" font-family="Helvetica,sans-Serif" font-size="10.00">/basic_concepts.hpp</text>
</a>
</g>
</g>
<!-- Node2&#45;&gt;Node6 -->
<g id="edge5" class="edge">
<title>Node2&#45;&gt;Node6</title>
<path fill="none" stroke="midnightblue" d="M481.91,-358.75C434,-354.85 364.82,-343.29 314.5,-310 267.27,-278.75 233.43,-220.06 216.29,-184.85"/>
<polygon fill="midnightblue" stroke="midnightblue" points="219.34,-183.13 211.9,-175.59 213.02,-186.12 219.34,-183.13"/>
</g>
<!-- Node10 -->
<g id="node10" class="node">
<title>Node10</title>
<g id="a_node10"><a xlink:href="AttributeContainer_8hpp.html" target="_top" xlink:title=" ">
<polygon fill="white" stroke="black" points="379.5,-212.5 379.5,-242.5 509.5,-242.5 509.5,-212.5 379.5,-212.5"/>
<text text-anchor="start" x="387.5" y="-230.5" font-family="Helvetica,sans-Serif" font-size="10.00">packages/buffer/inc</text>
<text text-anchor="middle" x="444.5" y="-219.5" font-family="Helvetica,sans-Serif" font-size="10.00">/AttributeContainer.hpp</text>
</a>
</g>
</g>
<!-- Node2&#45;&gt;Node10 -->
<g id="edge10" class="edge">
<title>Node2&#45;&gt;Node10</title>
<path fill="none" stroke="midnightblue" d="M527.55,-346.37C511.47,-323.55 479.63,-278.36 460.38,-251.04"/>
<polygon fill="midnightblue" stroke="midnightblue" points="463,-248.68 454.38,-242.52 457.28,-252.72 463,-248.68"/>
</g>
<!-- Node12 -->
<g id="node12" class="node">
<title>Node12</title>
<g id="a_node12"><a xlink:title=" ">
<polygon fill="white" stroke="#bfbfbf" points="730,-145.5 730,-164.5 777,-164.5 777,-145.5 730,-145.5"/>
<text text-anchor="middle" x="753.5" y="-152.5" font-family="Helvetica,sans-Serif" font-size="10.00">vector</text>
</a>
</g>
</g>
<!-- Node2&#45;&gt;Node12 -->
<g id="edge25" class="edge">
<title>Node2&#45;&gt;Node12</title>
<path fill="none" stroke="midnightblue" d="M534.5,-346.06C529.3,-316.72 522.24,-249.7 556.5,-212 605.23,-158.38 647.53,-201.09 715.5,-176 720.53,-174.14 725.73,-171.75 730.61,-169.27"/>
<polygon fill="midnightblue" stroke="midnightblue" points="732.32,-172.33 739.47,-164.51 729.01,-166.16 732.32,-172.33"/>
</g>
<!-- Node13 -->
<g id="node13" class="node">
<title>Node13</title>
<g id="a_node13"><a xlink:title=" ">
<polygon fill="white" stroke="#bfbfbf" points="795.5,-145.5 795.5,-164.5 853.5,-164.5 853.5,-145.5 795.5,-145.5"/>
<text text-anchor="middle" x="824.5" y="-152.5" font-family="Helvetica,sans-Serif" font-size="10.00">memory</text>
</a>
</g>
</g>
<!-- Node2&#45;&gt;Node13 -->
<g id="edge26" class="edge">
<title>Node2&#45;&gt;Node13</title>
<path fill="none" stroke="midnightblue" d="M593.11,-360.95C682.25,-360.34 850.96,-353.33 888.5,-310 925.05,-267.82 870.26,-201.84 840.97,-171.82"/>
<polygon fill="midnightblue" stroke="midnightblue" points="843.36,-169.26 833.81,-164.68 838.42,-174.22 843.36,-169.26"/>
</g>
<!-- Node16 -->
<g id="node16" class="node">
<title>Node16</title>
<g id="a_node16"><a xlink:href="GLTraits_8hpp.html" target="_top" xlink:title=" ">
<polygon fill="white" stroke="black" points="565.5,-279.5 565.5,-309.5 673.5,-309.5 673.5,-279.5 565.5,-279.5"/>
<text text-anchor="start" x="573.5" y="-297.5" font-family="Helvetica,sans-Serif" font-size="10.00">packages/traits/inc</text>
<text text-anchor="middle" x="619.5" y="-286.5" font-family="Helvetica,sans-Serif" font-size="10.00">/GLTraits.hpp</text>
</a>
</g>
</g>
<!-- Node2&#45;&gt;Node16 -->
<g id="edge19" class="edge">
<title>Node2&#45;&gt;Node16</title>
<path fill="none" stroke="midnightblue" d="M555.29,-346.4C566.58,-337.45 581.35,-325.74 593.89,-315.8"/>
<polygon fill="midnightblue" stroke="midnightblue" points="596.08,-318.53 601.74,-309.58 591.73,-313.05 596.08,-318.53"/>
</g>
<!-- Node19 -->
<g id="node19" class="node">
<title>Node19</title>
<g id="a_node19"><a xlink:title=" ">
<polygon fill="white" stroke="#bfbfbf" points="691.5,-285 691.5,-304 741.5,-304 741.5,-285 691.5,-285"/>
<text text-anchor="middle" x="716.5" y="-292" font-family="Helvetica,sans-Serif" font-size="10.00">ranges</text>
</a>
</g>
</g>
<!-- Node2&#45;&gt;Node19 -->
<g id="edge27" class="edge">
<title>Node2&#45;&gt;Node19</title>
<path fill="none" stroke="midnightblue" d="M580.29,-346.45C609.31,-336.71 648.44,-323.18 682.5,-310 684.15,-309.36 685.83,-308.7 687.53,-308.01"/>
<polygon fill="midnightblue" stroke="midnightblue" points="689.28,-311.07 697.17,-304.01 686.6,-304.61 689.28,-311.07"/>
</g>
<!-- Node20 -->
<g id="node20" class="node">
<title>Node20</title>
<g id="a_node20"><a xlink:title=" ">
<polygon fill="white" stroke="#bfbfbf" points="760,-279.5 760,-309.5 879,-309.5 879,-279.5 760,-279.5"/>
<text text-anchor="start" x="768" y="-297.5" font-family="Helvetica,sans-Serif" font-size="10.00">packages/buffer/impl</text>
<text text-anchor="middle" x="819.5" y="-286.5" font-family="Helvetica,sans-Serif" font-size="10.00">/AbsVertex_impl.hpp</text>
</a>
</g>
</g>
<!-- Node2&#45;&gt;Node20 -->
<g id="edge28" class="edge">
<title>Node2&#45;&gt;Node20</title>
<path fill="none" stroke="midnightblue" d="M593.21,-347.66C638.11,-337.31 701.5,-322.7 749.76,-311.57"/>
<polygon fill="midnightblue" stroke="midnightblue" points="750.56,-314.98 759.51,-309.33 748.98,-308.16 750.56,-314.98"/>
</g>
<!-- Node7 -->
<g id="node7" class="node">
<title>Node7</title>
<g id="a_node7"><a xlink:href="types_8hpp.html" target="_top" xlink:title=" ">
<polygon fill="white" stroke="black" points="356.5,-67.5 356.5,-97.5 466.5,-97.5 466.5,-67.5 356.5,-67.5"/>
<text text-anchor="start" x="364.5" y="-85.5" font-family="Helvetica,sans-Serif" font-size="10.00">packages/types/inc</text>
<text text-anchor="middle" x="411.5" y="-74.5" font-family="Helvetica,sans-Serif" font-size="10.00">/types.hpp</text>
</a>
</g>
</g>
<!-- Node6&#45;&gt;Node7 -->
<g id="edge6" class="edge">
<title>Node6&#45;&gt;Node7</title>
<path fill="none" stroke="midnightblue" d="M261.16,-134.46C292.16,-123.95 330.07,-111.1 360.06,-100.93"/>
<polygon fill="midnightblue" stroke="midnightblue" points="361.56,-104.12 369.91,-97.6 359.32,-97.49 361.56,-104.12"/>
</g>
<!-- Node7&#45;&gt;Node3 -->
<g id="edge7" class="edge">
<title>Node7&#45;&gt;Node3</title>
<path fill="none" stroke="midnightblue" d="M466.76,-72.05C542.04,-59.17 675.47,-36.35 745.56,-24.36"/>
<polygon fill="midnightblue" stroke="midnightblue" points="746.57,-27.74 755.84,-22.6 745.39,-20.84 746.57,-27.74"/>
</g>
<!-- Node8 -->
<g id="node8" class="node">
<title>Node8</title>
<g id="a_node8"><a xlink:title=" ">
<polygon fill="white" stroke="#bfbfbf" points="340.5,-6 340.5,-25 384.5,-25 384.5,-6 340.5,-6"/>
<text text-anchor="middle" x="362.5" y="-13" font-family="Helvetica,sans-Serif" font-size="10.00">string</text>
</a>
</g>
</g>
<!-- Node7&#45;&gt;Node8 -->
<g id="edge8" class="edge">
<title>Node7&#45;&gt;Node8</title>
<path fill="none" stroke="midnightblue" d="M400.87,-67.4C393.3,-57.36 383.11,-43.84 375.13,-33.25"/>
<polygon fill="midnightblue" stroke="midnightblue" points="377.87,-31.07 369.05,-25.19 372.28,-35.29 377.87,-31.07"/>
</g>
<!-- Node9 -->
<g id="node9" class="node">
<title>Node9</title>
<g id="a_node9"><a xlink:title=" ">
<polygon fill="white" stroke="#bfbfbf" points="402.5,-0.5 402.5,-30.5 518.5,-30.5 518.5,-0.5 402.5,-0.5"/>
<text text-anchor="start" x="410.5" y="-18.5" font-family="Helvetica,sans-Serif" font-size="10.00">packages/traits/impl</text>
<text text-anchor="middle" x="460.5" y="-7.5" font-family="Helvetica,sans-Serif" font-size="10.00">/types_impl.hpp</text>
</a>
</g>
</g>
<!-- Node7&#45;&gt;Node9 -->
<g id="edge9" class="edge">
<title>Node7&#45;&gt;Node9</title>
<path fill="none" stroke="midnightblue" d="M422.13,-67.4C428.42,-59.05 436.54,-48.29 443.68,-38.81"/>
<polygon fill="midnightblue" stroke="midnightblue" points="446.66,-40.67 449.89,-30.58 441.07,-36.45 446.66,-40.67"/>
</g>
<!-- Node10&#45;&gt;Node3 -->
<g id="edge11" class="edge">
<title>Node10&#45;&gt;Node3</title>
<path fill="none" stroke="midnightblue" d="M509.66,-215.17C574.77,-203.44 667.22,-185.53 681.5,-176 709.37,-157.4 760.47,-71.17 781.77,-33.83"/>
<polygon fill="midnightblue" stroke="midnightblue" points="784.85,-35.49 786.73,-25.07 778.76,-32.04 784.85,-35.49"/>
</g>
<!-- Node10&#45;&gt;Node4 -->
<g id="edge12" class="edge">
<title>Node10&#45;&gt;Node4</title>
<path fill="none" stroke="midnightblue" d="M379.3,-218.48C315.09,-210.02 214.43,-195.24 128.5,-176 124.07,-175.01 119.5,-173.89 114.92,-172.71"/>
<polygon fill="midnightblue" stroke="midnightblue" points="115.51,-169.24 104.95,-170.03 113.7,-176.01 115.51,-169.24"/>
</g>
<!-- Node10&#45;&gt;Node6 -->
<g id="edge13" class="edge">
<title>Node10&#45;&gt;Node6</title>
<path fill="none" stroke="midnightblue" d="M396.6,-212.49C363.06,-202.68 317.57,-189.37 279.16,-178.13"/>
<polygon fill="midnightblue" stroke="midnightblue" points="280.14,-174.77 269.56,-175.33 278.18,-181.49 280.14,-174.77"/>
</g>
<!-- Node11 -->
<g id="node11" class="node">
<title>Node11</title>
<g id="a_node11"><a target="_parent" xlink:href="../../../cieutils/docs/html/DynamicArray_8hpp.html.html" xlink:title=" ">
<polygon fill="white" stroke="black" points="542,-140 542,-170 673,-170 673,-140 542,-140"/>
<text text-anchor="start" x="550" y="-158" font-family="Helvetica,sans-Serif" font-size="10.00">packages/stl_extension</text>
<text text-anchor="middle" x="607.5" y="-147" font-family="Helvetica,sans-Serif" font-size="10.00">/inc/DynamicArray.hpp</text>
</a>
</g>
</g>
<!-- Node10&#45;&gt;Node11 -->
<g id="edge14" class="edge">
<title>Node10&#45;&gt;Node11</title>
<path fill="none" stroke="midnightblue" d="M477.09,-212.4C502.52,-201.4 538.04,-186.04 565.58,-174.13"/>
<polygon fill="midnightblue" stroke="midnightblue" points="567.17,-177.26 574.96,-170.07 564.4,-170.83 567.17,-177.26"/>
</g>
<!-- Node10&#45;&gt;Node12 -->
<g id="edge15" class="edge">
<title>Node10&#45;&gt;Node12</title>
<path fill="none" stroke="midnightblue" d="M509.69,-214.47C589.09,-199.81 713.05,-176.85 715.5,-176 720.56,-174.24 725.78,-171.89 730.67,-169.42"/>
<polygon fill="midnightblue" stroke="midnightblue" points="732.38,-172.48 739.52,-164.65 729.06,-166.31 732.38,-172.48"/>
</g>
<!-- Node10&#45;&gt;Node13 -->
<g id="edge16" class="edge">
<title>Node10&#45;&gt;Node13</title>
<path fill="none" stroke="midnightblue" d="M509.66,-218.02C601.25,-205.91 759.82,-184.24 785.5,-176 790.8,-174.3 796.25,-171.94 801.34,-169.43"/>
<polygon fill="midnightblue" stroke="midnightblue" points="803.33,-172.34 810.54,-164.57 800.06,-166.15 803.33,-172.34"/>
</g>
<!-- Node14 -->
<g id="node14" class="node">
<title>Node14</title>
<g id="a_node14"><a xlink:title=" ">
<polygon fill="white" stroke="#bfbfbf" points="287.5,-145.5 287.5,-164.5 347.5,-164.5 347.5,-145.5 287.5,-145.5"/>
<text text-anchor="middle" x="317.5" y="-152.5" font-family="Helvetica,sans-Serif" font-size="10.00">concepts</text>
</a>
</g>
</g>
<!-- Node10&#45;&gt;Node14 -->
<g id="edge17" class="edge">
<title>Node10&#45;&gt;Node14</title>
<path fill="none" stroke="midnightblue" d="M419.1,-212.4C396.56,-199.89 363.84,-181.72 341.67,-169.42"/>
<polygon fill="midnightblue" stroke="midnightblue" points="343.31,-166.33 332.87,-164.53 339.92,-172.45 343.31,-166.33"/>
</g>
<!-- Node15 -->
<g id="node15" class="node">
<title>Node15</title>
<g id="a_node15"><a xlink:title=" ">
<polygon fill="white" stroke="#bfbfbf" points="365.5,-140 365.5,-170 523.5,-170 523.5,-140 365.5,-140"/>
<text text-anchor="start" x="373.5" y="-158" font-family="Helvetica,sans-Serif" font-size="10.00">packages/buffer/impl</text>
<text text-anchor="middle" x="444.5" y="-147" font-family="Helvetica,sans-Serif" font-size="10.00">/AttributeContainer_impl.hpp</text>
</a>
</g>
</g>
<!-- Node10&#45;&gt;Node15 -->
<g id="edge18" class="edge">
<title>Node10&#45;&gt;Node15</title>
<path fill="none" stroke="midnightblue" d="M444.5,-212.23C444.5,-203.16 444.5,-191.16 444.5,-180.58"/>
<polygon fill="midnightblue" stroke="midnightblue" points="448,-180.25 444.5,-170.25 441,-180.25 448,-180.25"/>
</g>
<!-- Node16&#45;&gt;Node3 -->
<g id="edge20" class="edge">
<title>Node16&#45;&gt;Node3</title>
<path fill="none" stroke="midnightblue" d="M673.69,-279.5C714.02,-268.59 765.28,-253.58 784.5,-243 824.53,-220.96 843.43,-217.53 862.5,-176 886.55,-123.63 835.72,-61.07 807.96,-32.35"/>
<polygon fill="midnightblue" stroke="midnightblue" points="810.36,-29.8 800.83,-25.18 805.4,-34.73 810.36,-29.8"/>
</g>
<!-- Node16&#45;&gt;Node10 -->
<g id="edge21" class="edge">
<title>Node16&#45;&gt;Node10</title>
<path fill="none" stroke="midnightblue" d="M581.53,-279.4C555.27,-269.64 520.14,-256.59 492.02,-246.15"/>
<polygon fill="midnightblue" stroke="midnightblue" points="492.99,-242.78 482.4,-242.58 490.55,-249.34 492.99,-242.78"/>
</g>
<!-- Node16&#45;&gt;Node12 -->
<g id="edge24" class="edge">
<title>Node16&#45;&gt;Node12</title>
<path fill="none" stroke="midnightblue" d="M669.62,-279.4C709.84,-267.58 760.54,-251.35 766.5,-243 781.09,-222.56 771.57,-192.48 762.9,-173.58"/>
<polygon fill="midnightblue" stroke="midnightblue" points="766.02,-172 758.45,-164.59 759.75,-175.11 766.02,-172"/>
</g>
<!-- Node17 -->
<g id="node17" class="node">
<title>Node17</title>
<g id="a_node17"><a target="_parent" xlink:href="../../../cieutils/docs/html/StaticArray_8hpp.html.html" xlink:title=" ">
<polygon fill="white" stroke="black" points="566,-212.5 566,-242.5 697,-242.5 697,-212.5 566,-212.5"/>
<text text-anchor="start" x="574" y="-230.5" font-family="Helvetica,sans-Serif" font-size="10.00">packages/stl_extension</text>
<text text-anchor="middle" x="631.5" y="-219.5" font-family="Helvetica,sans-Serif" font-size="10.00">/inc/StaticArray.hpp</text>
</a>
</g>
</g>
<!-- Node16&#45;&gt;Node17 -->
<g id="edge22" class="edge">
<title>Node16&#45;&gt;Node17</title>
<path fill="none" stroke="midnightblue" d="M622.1,-279.4C623.55,-271.56 625.39,-261.6 627.06,-252.57"/>
<polygon fill="midnightblue" stroke="midnightblue" points="630.53,-253.05 628.9,-242.58 623.64,-251.77 630.53,-253.05"/>
</g>
<!-- Node18 -->
<g id="node18" class="node">
<title>Node18</title>
<g id="a_node18"><a xlink:title=" ">
<polygon fill="white" stroke="#bfbfbf" points="715.5,-218 715.5,-237 757.5,-237 757.5,-218 715.5,-218"/>
<text text-anchor="middle" x="736.5" y="-225" font-family="Helvetica,sans-Serif" font-size="10.00">array</text>
</a>
</g>
</g>
<!-- Node16&#45;&gt;Node18 -->
<g id="edge23" class="edge">
<title>Node16&#45;&gt;Node18</title>
<path fill="none" stroke="midnightblue" d="M644.89,-279.4C664.87,-268.29 692.54,-252.92 712.23,-241.98"/>
<polygon fill="midnightblue" stroke="midnightblue" points="714.15,-244.92 721.19,-237.01 710.75,-238.8 714.15,-244.92"/>
</g>
</g>
</svg>
