<?xml version="1.0" encoding="UTF-8" standalone="no"?>
<!DOCTYPE svg PUBLIC "-//W3C//DTD SVG 1.1//EN"
 "http://www.w3.org/Graphics/SVG/1.1/DTD/svg11.dtd">
<!-- Generated by graphviz version 2.43.0 (0)
 -->
<!-- Title: Vertex3.hpp Pages: 1 -->
<svg width="1086pt" height="508pt"
 viewBox="0.00 0.00 1085.50 508.00" xmlns="http://www.w3.org/2000/svg" xmlns:xlink="http://www.w3.org/1999/xlink">
<g id="graph0" class="graph" transform="scale(1 1) rotate(0) translate(4 504)">
<title>Vertex3.hpp</title>
<polygon fill="white" stroke="transparent" points="-4,4 -4,-504 1081.5,-504 1081.5,4 -4,4"/>
<!-- Node1 -->
<g id="node1" class="node">
<title>Node1</title>
<g id="a_node1"><a xlink:title=" ">
<polygon fill="#bfbfbf" stroke="black" points="19,-480.5 19,-499.5 94,-499.5 94,-480.5 19,-480.5"/>
<text text-anchor="middle" x="56.5" y="-487.5" font-family="Helvetica,sans-Serif" font-size="10.00">Vertex3.hpp</text>
</a>
</g>
</g>
<!-- Node2 -->
<g id="node2" class="node">
<title>Node2</title>
<g id="a_node2"><a xlink:href="Vertex2_8hpp.html" target="_top" xlink:title=" ">
<polygon fill="white" stroke="black" points="43,-413.5 43,-443.5 154,-443.5 154,-413.5 43,-413.5"/>
<text text-anchor="start" x="51" y="-431.5" font-family="Helvetica,sans-Serif" font-size="10.00">packages/buffer/inc</text>
<text text-anchor="middle" x="98.5" y="-420.5" font-family="Helvetica,sans-Serif" font-size="10.00">/Vertex2.hpp</text>
</a>
</g>
</g>
<!-- Node1&#45;&gt;Node2 -->
<g id="edge1" class="edge">
<title>Node1&#45;&gt;Node2</title>
<path fill="none" stroke="midnightblue" d="M62.52,-480.48C67.78,-473.02 75.66,-461.85 82.71,-451.87"/>
<polygon fill="midnightblue" stroke="midnightblue" points="85.69,-453.71 88.6,-443.52 79.98,-449.67 85.69,-453.71"/>
</g>
<!-- Node5 -->
<g id="node5" class="node">
<title>Node5</title>
<g id="a_node5"><a target="_parent" xlink:href="../../../cieutils/docs/html/typedefs_8hpp.html.html" xlink:title=" ">
<polygon fill="white" stroke="black" points="0,-140 0,-170 119,-170 119,-140 0,-140"/>
<text text-anchor="start" x="8" y="-158" font-family="Helvetica,sans-Serif" font-size="10.00">packages/macros/inc</text>
<text text-anchor="middle" x="59.5" y="-147" font-family="Helvetica,sans-Serif" font-size="10.00">/typedefs.hpp</text>
</a>
</g>
</g>
<!-- Node1&#45;&gt;Node5 -->
<g id="edge31" class="edge">
<title>Node1&#45;&gt;Node5</title>
<path fill="none" stroke="midnightblue" d="M51.26,-480.32C46.1,-471.47 38.32,-457.18 33.5,-444 20.72,-409.07 14.5,-399.69 14.5,-362.5 14.5,-362.5 14.5,-362.5 14.5,-293.5 14.5,-251.67 33.55,-206.07 46.86,-179.31"/>
<polygon fill="midnightblue" stroke="midnightblue" points="50,-180.84 51.45,-170.35 43.78,-177.65 50,-180.84"/>
</g>
<!-- Node3 -->
<g id="node3" class="node">
<title>Node3</title>
<g id="a_node3"><a xlink:href="AbsVertex_8hpp.html" target="_top" xlink:title=" ">
<polygon fill="white" stroke="black" points="490,-346.5 490,-376.5 601,-376.5 601,-346.5 490,-346.5"/>
<text text-anchor="start" x="498" y="-364.5" font-family="Helvetica,sans-Serif" font-size="10.00">packages/buffer/inc</text>
<text text-anchor="middle" x="545.5" y="-353.5" font-family="Helvetica,sans-Serif" font-size="10.00">/AbsVertex.hpp</text>
</a>
</g>
</g>
<!-- Node2&#45;&gt;Node3 -->
<g id="edge2" class="edge">
<title>Node2&#45;&gt;Node3</title>
<path fill="none" stroke="midnightblue" d="M154.21,-419.4C236.83,-407.39 391.54,-384.89 479.65,-372.08"/>
<polygon fill="midnightblue" stroke="midnightblue" points="480.4,-375.5 489.79,-370.6 479.39,-368.58 480.4,-375.5"/>
</g>
<!-- Node2&#45;&gt;Node5 -->
<g id="edge30" class="edge">
<title>Node2&#45;&gt;Node5</title>
<path fill="none" stroke="midnightblue" d="M96.46,-413.29C90.14,-369.3 70.86,-235.08 62.95,-179.99"/>
<polygon fill="midnightblue" stroke="midnightblue" points="66.41,-179.47 61.52,-170.07 59.48,-180.47 66.41,-179.47"/>
</g>
<!-- Node4 -->
<g id="node4" class="node">
<title>Node4</title>
<g id="a_node4"><a xlink:title=" ">
<polygon fill="white" stroke="#bfbfbf" points="587,-6 587,-25 658,-25 658,-6 587,-6"/>
<text text-anchor="middle" x="622.5" y="-13" font-family="Helvetica,sans-Serif" font-size="10.00">glad/glad.h</text>
</a>
</g>
</g>
<!-- Node3&#45;&gt;Node4 -->
<g id="edge3" class="edge">
<title>Node3&#45;&gt;Node4</title>
<path fill="none" stroke="midnightblue" d="M601.08,-359.96C689.39,-357.91 856.11,-348.85 898.5,-310 925.92,-284.87 917.5,-265.69 917.5,-228.5 917.5,-228.5 917.5,-228.5 917.5,-154 917.5,-45.35 751.08,-22.34 668.24,-17.62"/>
<polygon fill="midnightblue" stroke="midnightblue" points="668.25,-14.12 658.08,-17.11 667.9,-21.11 668.25,-14.12"/>
</g>
<!-- Node3&#45;&gt;Node5 -->
<g id="edge4" class="edge">
<title>Node3&#45;&gt;Node5</title>
<path fill="none" stroke="midnightblue" d="M489.87,-356.16C408.73,-349.12 262.5,-333.6 215.5,-310 153.37,-278.8 100.48,-213.71 75.27,-178.99"/>
<polygon fill="midnightblue" stroke="midnightblue" points="77.84,-176.56 69.19,-170.45 72.14,-180.62 77.84,-176.56"/>
</g>
<!-- Node6 -->
<g id="node6" class="node">
<title>Node6</title>
<g id="a_node6"><a target="_parent" xlink:href="../../../cieutils/docs/html/types_8hpp.html.html" xlink:title=" ">
<polygon fill="white" stroke="black" points="573.5,-279.5 573.5,-309.5 683.5,-309.5 683.5,-279.5 573.5,-279.5"/>
<text text-anchor="start" x="581.5" y="-297.5" font-family="Helvetica,sans-Serif" font-size="10.00">packages/types/inc</text>
<text text-anchor="middle" x="628.5" y="-286.5" font-family="Helvetica,sans-Serif" font-size="10.00">/types.hpp</text>
</a>
</g>
</g>
<!-- Node3&#45;&gt;Node6 -->
<g id="edge5" class="edge">
<title>Node3&#45;&gt;Node6</title>
<path fill="none" stroke="midnightblue" d="M563.51,-346.4C574.93,-337.45 589.89,-325.74 602.58,-315.8"/>
<polygon fill="midnightblue" stroke="midnightblue" points="604.81,-318.5 610.53,-309.58 600.49,-312.99 604.81,-318.5"/>
</g>
<!-- Node7 -->
<g id="node7" class="node">
<title>Node7</title>
<g id="a_node7"><a target="_parent" xlink:href="../../../cieutils/docs/html/basic__concepts_8hpp.html.html" xlink:title=" ">
<polygon fill="white" stroke="black" points="945.5,-134.5 945.5,-175.5 1077.5,-175.5 1077.5,-134.5 945.5,-134.5"/>
<text text-anchor="start" x="953.5" y="-163.5" font-family="Helvetica,sans-Serif" font-size="10.00">packages/compile_time</text>
<text text-anchor="start" x="953.5" y="-152.5" font-family="Helvetica,sans-Serif" font-size="10.00">/packages/concepts/inc</text>
<text text-anchor="middle" x="1011.5" y="-141.5" font-family="Helvetica,sans-Serif" font-size="10.00">/basic_concepts.hpp</text>
</a>
</g>
</g>
<!-- Node3&#45;&gt;Node7 -->
<g id="edge6" class="edge">
<title>Node3&#45;&gt;Node7</title>
<path fill="none" stroke="midnightblue" d="M601.35,-359.43C695.19,-356.62 879.39,-346.49 931.5,-310 973.84,-280.35 995.36,-221.28 1004.95,-185.53"/>
<polygon fill="midnightblue" stroke="midnightblue" points="1008.38,-186.23 1007.45,-175.68 1001.6,-184.51 1008.38,-186.23"/>
</g>
<!-- Node11 -->
<g id="node11" class="node">
<title>Node11</title>
<g id="a_node11"><a xlink:href="AttributeContainer_8hpp.html" target="_top" xlink:title=" ">
<polygon fill="white" stroke="black" points="442.5,-212.5 442.5,-242.5 572.5,-242.5 572.5,-212.5 442.5,-212.5"/>
<text text-anchor="start" x="450.5" y="-230.5" font-family="Helvetica,sans-Serif" font-size="10.00">packages/buffer/inc</text>
<text text-anchor="middle" x="507.5" y="-219.5" font-family="Helvetica,sans-Serif" font-size="10.00">/AttributeContainer.hpp</text>
</a>
</g>
</g>
<!-- Node3&#45;&gt;Node11 -->
<g id="edge11" class="edge">
<title>Node3&#45;&gt;Node11</title>
<path fill="none" stroke="midnightblue" d="M541.43,-346.37C534.98,-323.94 522.3,-279.92 514.4,-252.49"/>
<polygon fill="midnightblue" stroke="midnightblue" points="517.67,-251.17 511.54,-242.52 510.94,-253.1 517.67,-251.17"/>
</g>
<!-- Node13 -->
<g id="node13" class="node">
<title>Node13</title>
<g id="a_node13"><a xlink:title=" ">
<polygon fill="white" stroke="#bfbfbf" points="143,-145.5 143,-164.5 190,-164.5 190,-145.5 143,-145.5"/>
<text text-anchor="middle" x="166.5" y="-152.5" font-family="Helvetica,sans-Serif" font-size="10.00">vector</text>
</a>
</g>
</g>
<!-- Node3&#45;&gt;Node13 -->
<g id="edge26" class="edge">
<title>Node3&#45;&gt;Node13</title>
<path fill="none" stroke="midnightblue" d="M489.76,-351.9C393.46,-335.72 202.71,-297.41 166.5,-243 152.93,-222.61 156.55,-193.14 161.03,-174.28"/>
<polygon fill="midnightblue" stroke="midnightblue" points="164.43,-175.11 163.64,-164.54 157.67,-173.3 164.43,-175.11"/>
</g>
<!-- Node14 -->
<g id="node14" class="node">
<title>Node14</title>
<g id="a_node14"><a xlink:title=" ">
<polygon fill="white" stroke="#bfbfbf" points="831.5,-145.5 831.5,-164.5 889.5,-164.5 889.5,-145.5 831.5,-145.5"/>
<text text-anchor="middle" x="860.5" y="-152.5" font-family="Helvetica,sans-Serif" font-size="10.00">memory</text>
</a>
</g>
</g>
<!-- Node3&#45;&gt;Node14 -->
<g id="edge27" class="edge">
<title>Node3&#45;&gt;Node14</title>
<path fill="none" stroke="midnightblue" d="M545.03,-346.36C545.2,-328.58 548.12,-298.06 564.5,-279 644.98,-185.37 710.38,-227.71 822.5,-176 827,-173.92 831.73,-171.58 836.26,-169.24"/>
<polygon fill="midnightblue" stroke="midnightblue" points="837.94,-172.31 845.15,-164.55 834.68,-166.12 837.94,-172.31"/>
</g>
<!-- Node17 -->
<g id="node17" class="node">
<title>Node17</title>
<g id="a_node17"><a xlink:href="GLTraits_8hpp.html" target="_top" xlink:title=" ">
<polygon fill="white" stroke="black" points="335.5,-279.5 335.5,-309.5 443.5,-309.5 443.5,-279.5 335.5,-279.5"/>
<text text-anchor="start" x="343.5" y="-297.5" font-family="Helvetica,sans-Serif" font-size="10.00">packages/traits/inc</text>
<text text-anchor="middle" x="389.5" y="-286.5" font-family="Helvetica,sans-Serif" font-size="10.00">/GLTraits.hpp</text>
</a>
</g>
</g>
<!-- Node3&#45;&gt;Node17 -->
<g id="edge20" class="edge">
<title>Node3&#45;&gt;Node17</title>
<path fill="none" stroke="midnightblue" d="M511.65,-346.4C488.45,-336.73 457.47,-323.82 432.52,-313.43"/>
<polygon fill="midnightblue" stroke="midnightblue" points="433.86,-310.19 423.28,-309.58 431.17,-316.65 433.86,-310.19"/>
</g>
<!-- Node20 -->
<g id="node20" class="node">
<title>Node20</title>
<g id="a_node20"><a xlink:title=" ">
<polygon fill="white" stroke="#bfbfbf" points="701.5,-285 701.5,-304 751.5,-304 751.5,-285 701.5,-285"/>
<text text-anchor="middle" x="726.5" y="-292" font-family="Helvetica,sans-Serif" font-size="10.00">ranges</text>
</a>
</g>
</g>
<!-- Node3&#45;&gt;Node20 -->
<g id="edge28" class="edge">
<title>Node3&#45;&gt;Node20</title>
<path fill="none" stroke="midnightblue" d="M589.21,-346.4C618.61,-336.7 658.12,-323.22 692.5,-310 694.15,-309.37 695.83,-308.7 697.53,-308.02"/>
<polygon fill="midnightblue" stroke="midnightblue" points="699.28,-311.08 707.18,-304.02 696.6,-304.62 699.28,-311.08"/>
</g>
<!-- Node21 -->
<g id="node21" class="node">
<title>Node21</title>
<g id="a_node21"><a xlink:title=" ">
<polygon fill="white" stroke="#bfbfbf" points="770,-279.5 770,-309.5 889,-309.5 889,-279.5 770,-279.5"/>
<text text-anchor="start" x="778" y="-297.5" font-family="Helvetica,sans-Serif" font-size="10.00">packages/buffer/impl</text>
<text text-anchor="middle" x="829.5" y="-286.5" font-family="Helvetica,sans-Serif" font-size="10.00">/AbsVertex_impl.hpp</text>
</a>
</g>
</g>
<!-- Node3&#45;&gt;Node21 -->
<g id="edge29" class="edge">
<title>Node3&#45;&gt;Node21</title>
<path fill="none" stroke="midnightblue" d="M601.27,-347.74C646.76,-337.32 711.25,-322.56 760.08,-311.39"/>
<polygon fill="midnightblue" stroke="midnightblue" points="760.97,-314.78 769.94,-309.13 759.41,-307.95 760.97,-314.78"/>
</g>
<!-- Node8 -->
<g id="node8" class="node">
<title>Node8</title>
<g id="a_node8"><a xlink:href="types_8hpp.html" target="_top" xlink:title=" ">
<polygon fill="white" stroke="black" points="950.5,-67.5 950.5,-97.5 1060.5,-97.5 1060.5,-67.5 950.5,-67.5"/>
<text text-anchor="start" x="958.5" y="-85.5" font-family="Helvetica,sans-Serif" font-size="10.00">packages/types/inc</text>
<text text-anchor="middle" x="1005.5" y="-74.5" font-family="Helvetica,sans-Serif" font-size="10.00">/types.hpp</text>
</a>
</g>
</g>
<!-- Node7&#45;&gt;Node8 -->
<g id="edge7" class="edge">
<title>Node7&#45;&gt;Node8</title>
<path fill="none" stroke="midnightblue" d="M1009.83,-134.36C1009.14,-126.23 1008.33,-116.7 1007.59,-108.11"/>
<polygon fill="midnightblue" stroke="midnightblue" points="1011.06,-107.56 1006.72,-97.89 1004.09,-108.15 1011.06,-107.56"/>
</g>
<!-- Node8&#45;&gt;Node4 -->
<g id="edge8" class="edge">
<title>Node8&#45;&gt;Node4</title>
<path fill="none" stroke="midnightblue" d="M950.18,-70.46C943.88,-69.27 937.56,-68.09 931.5,-67 838.19,-50.24 728.6,-32.88 668.22,-23.51"/>
<polygon fill="midnightblue" stroke="midnightblue" points="668.67,-20.04 658.25,-21.97 667.59,-26.96 668.67,-20.04"/>
</g>
<!-- Node9 -->
<g id="node9" class="node">
<title>Node9</title>
<g id="a_node9"><a xlink:title=" ">
<polygon fill="white" stroke="#bfbfbf" points="1032.5,-6 1032.5,-25 1076.5,-25 1076.5,-6 1032.5,-6"/>
<text text-anchor="middle" x="1054.5" y="-13" font-family="Helvetica,sans-Serif" font-size="10.00">string</text>
</a>
</g>
</g>
<!-- Node8&#45;&gt;Node9 -->
<g id="edge9" class="edge">
<title>Node8&#45;&gt;Node9</title>
<path fill="none" stroke="midnightblue" d="M1016.13,-67.4C1023.7,-57.36 1033.89,-43.84 1041.87,-33.25"/>
<polygon fill="midnightblue" stroke="midnightblue" points="1044.72,-35.29 1047.95,-25.19 1039.13,-31.07 1044.72,-35.29"/>
</g>
<!-- Node10 -->
<g id="node10" class="node">
<title>Node10</title>
<g id="a_node10"><a xlink:title=" ">
<polygon fill="white" stroke="#bfbfbf" points="898.5,-0.5 898.5,-30.5 1014.5,-30.5 1014.5,-0.5 898.5,-0.5"/>
<text text-anchor="start" x="906.5" y="-18.5" font-family="Helvetica,sans-Serif" font-size="10.00">packages/traits/impl</text>
<text text-anchor="middle" x="956.5" y="-7.5" font-family="Helvetica,sans-Serif" font-size="10.00">/types_impl.hpp</text>
</a>
</g>
</g>
<!-- Node8&#45;&gt;Node10 -->
<g id="edge10" class="edge">
<title>Node8&#45;&gt;Node10</title>
<path fill="none" stroke="midnightblue" d="M994.87,-67.4C988.58,-59.05 980.46,-48.29 973.32,-38.81"/>
<polygon fill="midnightblue" stroke="midnightblue" points="975.93,-36.45 967.11,-30.58 970.34,-40.67 975.93,-36.45"/>
</g>
<!-- Node11&#45;&gt;Node4 -->
<g id="edge12" class="edge">
<title>Node11&#45;&gt;Node4</title>
<path fill="none" stroke="midnightblue" d="M463.27,-212.44C446.15,-204.59 428.33,-192.89 418.5,-176 409.11,-159.87 409.16,-150.16 418.5,-134 452.56,-75.07 528.63,-43.09 577.64,-27.93"/>
<polygon fill="midnightblue" stroke="midnightblue" points="578.78,-31.25 587.37,-25.04 576.78,-24.54 578.78,-31.25"/>
</g>
<!-- Node11&#45;&gt;Node5 -->
<g id="edge13" class="edge">
<title>Node11&#45;&gt;Node5</title>
<path fill="none" stroke="midnightblue" d="M442.25,-217.91C339.1,-204.31 148.43,-179.01 133.5,-176 128.41,-174.97 123.16,-173.8 117.9,-172.54"/>
<polygon fill="midnightblue" stroke="midnightblue" points="118.4,-169.05 107.85,-170.03 116.71,-175.84 118.4,-169.05"/>
</g>
<!-- Node11&#45;&gt;Node7 -->
<g id="edge14" class="edge">
<title>Node11&#45;&gt;Node7</title>
<path fill="none" stroke="midnightblue" d="M572.66,-219.03C650.38,-209.9 784.16,-193.49 898.5,-176 910.35,-174.19 922.87,-172.12 935.09,-170.02"/>
<polygon fill="midnightblue" stroke="midnightblue" points="936.01,-173.42 945.26,-168.26 934.81,-166.52 936.01,-173.42"/>
</g>
<!-- Node12 -->
<g id="node12" class="node">
<title>Node12</title>
<g id="a_node12"><a target="_parent" xlink:href="../../../cieutils/docs/html/DynamicArray_8hpp.html.html" xlink:title=" ">
<polygon fill="white" stroke="black" points="604,-140 604,-170 735,-170 735,-140 604,-140"/>
<text text-anchor="start" x="612" y="-158" font-family="Helvetica,sans-Serif" font-size="10.00">packages/stl_extension</text>
<text text-anchor="middle" x="669.5" y="-147" font-family="Helvetica,sans-Serif" font-size="10.00">/inc/DynamicArray.hpp</text>
</a>
</g>
</g>
<!-- Node11&#45;&gt;Node12 -->
<g id="edge15" class="edge">
<title>Node11&#45;&gt;Node12</title>
<path fill="none" stroke="midnightblue" d="M539.89,-212.4C565.17,-201.4 600.46,-186.04 627.84,-174.13"/>
<polygon fill="midnightblue" stroke="midnightblue" points="629.39,-177.27 637.16,-170.07 626.6,-170.85 629.39,-177.27"/>
</g>
<!-- Node11&#45;&gt;Node13 -->
<g id="edge16" class="edge">
<title>Node11&#45;&gt;Node13</title>
<path fill="none" stroke="midnightblue" d="M442.16,-212.99C370.03,-198.08 256.71,-174.65 200.49,-163.03"/>
<polygon fill="midnightblue" stroke="midnightblue" points="200.85,-159.53 190.35,-160.93 199.44,-166.38 200.85,-159.53"/>
</g>
<!-- Node11&#45;&gt;Node14 -->
<g id="edge17" class="edge">
<title>Node11&#45;&gt;Node14</title>
<path fill="none" stroke="midnightblue" d="M572.57,-214.4C577.28,-213.57 581.96,-212.76 586.5,-212 691.14,-194.42 721.72,-209.17 822.5,-176 827.68,-174.3 833,-171.93 837.96,-169.43"/>
<polygon fill="midnightblue" stroke="midnightblue" points="839.79,-172.41 846.92,-164.57 836.46,-166.26 839.79,-172.41"/>
</g>
<!-- Node15 -->
<g id="node15" class="node">
<title>Node15</title>
<g id="a_node15"><a xlink:title=" ">
<polygon fill="white" stroke="#bfbfbf" points="753.5,-145.5 753.5,-164.5 813.5,-164.5 813.5,-145.5 753.5,-145.5"/>
<text text-anchor="middle" x="783.5" y="-152.5" font-family="Helvetica,sans-Serif" font-size="10.00">concepts</text>
</a>
</g>
</g>
<!-- Node11&#45;&gt;Node15 -->
<g id="edge18" class="edge">
<title>Node11&#45;&gt;Node15</title>
<path fill="none" stroke="midnightblue" d="M572.74,-214.6C631.56,-203.5 713.44,-187.05 744.5,-176 749.65,-174.17 754.99,-171.78 760,-169.31"/>
<polygon fill="midnightblue" stroke="midnightblue" points="761.86,-172.28 769.09,-164.55 758.61,-166.08 761.86,-172.28"/>
</g>
<!-- Node16 -->
<g id="node16" class="node">
<title>Node16</title>
<g id="a_node16"><a xlink:title=" ">
<polygon fill="white" stroke="#bfbfbf" points="427.5,-140 427.5,-170 585.5,-170 585.5,-140 427.5,-140"/>
<text text-anchor="start" x="435.5" y="-158" font-family="Helvetica,sans-Serif" font-size="10.00">packages/buffer/impl</text>
<text text-anchor="middle" x="506.5" y="-147" font-family="Helvetica,sans-Serif" font-size="10.00">/AttributeContainer_impl.hpp</text>
</a>
</g>
</g>
<!-- Node11&#45;&gt;Node16 -->
<g id="edge19" class="edge">
<title>Node11&#45;&gt;Node16</title>
<path fill="none" stroke="midnightblue" d="M507.3,-212.23C507.17,-203.16 507,-191.16 506.85,-180.58"/>
<polygon fill="midnightblue" stroke="midnightblue" points="510.34,-180.19 506.7,-170.25 503.34,-180.29 510.34,-180.19"/>
</g>
<!-- Node17&#45;&gt;Node4 -->
<g id="edge21" class="edge">
<title>Node17&#45;&gt;Node4</title>
<path fill="none" stroke="midnightblue" d="M391.21,-279.35C392.43,-269.23 394.09,-255.28 395.5,-243 404.76,-162.09 382.24,-117.03 446.5,-67 484.22,-37.64 538.34,-25.34 576.59,-20.2"/>
<polygon fill="midnightblue" stroke="midnightblue" points="577.43,-23.62 586.93,-18.93 576.58,-16.68 577.43,-23.62"/>
</g>
<!-- Node17&#45;&gt;Node11 -->
<g id="edge22" class="edge">
<title>Node17&#45;&gt;Node11</title>
<path fill="none" stroke="midnightblue" d="M415.1,-279.4C432.04,-270.07 454.44,-257.73 472.95,-247.53"/>
<polygon fill="midnightblue" stroke="midnightblue" points="474.88,-250.47 481.95,-242.58 471.5,-244.34 474.88,-250.47"/>
</g>
<!-- Node17&#45;&gt;Node13 -->
<g id="edge25" class="edge">
<title>Node17&#45;&gt;Node13</title>
<path fill="none" stroke="midnightblue" d="M335.03,-286.57C281.86,-278.69 206.04,-264.12 185.5,-243 167.84,-224.84 165,-194.29 165.25,-174.65"/>
<polygon fill="midnightblue" stroke="midnightblue" points="168.75,-174.65 165.66,-164.52 161.76,-174.37 168.75,-174.65"/>
</g>
<!-- Node18 -->
<g id="node18" class="node">
<title>Node18</title>
<g id="a_node18"><a target="_parent" xlink:href="../../../cieutils/docs/html/StaticArray_8hpp.html.html" xlink:title=" ">
<polygon fill="white" stroke="black" points="195,-212.5 195,-242.5 326,-242.5 326,-212.5 195,-212.5"/>
<text text-anchor="start" x="203" y="-230.5" font-family="Helvetica,sans-Serif" font-size="10.00">packages/stl_extension</text>
<text text-anchor="middle" x="260.5" y="-219.5" font-family="Helvetica,sans-Serif" font-size="10.00">/inc/StaticArray.hpp</text>
</a>
</g>
</g>
<!-- Node17&#45;&gt;Node18 -->
<g id="edge23" class="edge">
<title>Node17&#45;&gt;Node18</title>
<path fill="none" stroke="midnightblue" d="M361.51,-279.4C342.75,-269.94 317.83,-257.39 297.45,-247.12"/>
<polygon fill="midnightblue" stroke="midnightblue" points="298.94,-243.95 288.44,-242.58 295.79,-250.2 298.94,-243.95"/>
</g>
<!-- Node19 -->
<g id="node19" class="node">
<title>Node19</title>
<g id="a_node19"><a xlink:title=" ">
<polygon fill="white" stroke="#bfbfbf" points="344.5,-218 344.5,-237 386.5,-237 386.5,-218 344.5,-218"/>
<text text-anchor="middle" x="365.5" y="-225" font-family="Helvetica,sans-Serif" font-size="10.00">array</text>
</a>
</g>
</g>
<!-- Node17&#45;&gt;Node19 -->
<g id="edge24" class="edge">
<title>Node17&#45;&gt;Node19</title>
<path fill="none" stroke="midnightblue" d="M384.29,-279.4C380.77,-269.86 376.09,-257.18 372.28,-246.86"/>
<polygon fill="midnightblue" stroke="midnightblue" points="375.46,-245.36 368.71,-237.19 368.89,-247.79 375.46,-245.36"/>
</g>
</g>
</svg>
