<?xml version="1.0" encoding="UTF-8" standalone="no"?>
<!DOCTYPE svg PUBLIC "-//W3C//DTD SVG 1.1//EN"
 "http://www.w3.org/Graphics/SVG/1.1/DTD/svg11.dtd">
<!-- Generated by graphviz version 2.43.0 (0)
 -->
<!-- Title: VertexArrayObject.hpp Pages: 1 -->
<svg width="316pt" height="229pt"
 viewBox="0.00 0.00 316.00 229.00" xmlns="http://www.w3.org/2000/svg" xmlns:xlink="http://www.w3.org/1999/xlink">
<g id="graph0" class="graph" transform="scale(1 1) rotate(0) translate(4 225)">
<title>VertexArrayObject.hpp</title>
<polygon fill="white" stroke="transparent" points="-4,4 -4,-225 312,-225 312,4 -4,4"/>
<!-- Node1 -->
<g id="node1" class="node">
<title>Node1</title>
<g id="a_node1"><a xlink:title=" ">
<polygon fill="#bfbfbf" stroke="black" points="52,-201.5 52,-220.5 179,-220.5 179,-201.5 52,-201.5"/>
<text text-anchor="middle" x="115.5" y="-208.5" font-family="Helvetica,sans-Serif" font-size="10.00">VertexArrayObject.hpp</text>
</a>
</g>
</g>
<!-- Node2 -->
<g id="node2" class="node">
<title>Node2</title>
<g id="a_node2"><a xlink:title=" ">
<polygon fill="white" stroke="#bfbfbf" points="0,-6 0,-25 71,-25 71,-6 0,-6"/>
<text text-anchor="middle" x="35.5" y="-13" font-family="Helvetica,sans-Serif" font-size="10.00">glad/glad.h</text>
</a>
</g>
</g>
<!-- Node1&#45;&gt;Node2 -->
<g id="edge1" class="edge">
<title>Node1&#45;&gt;Node2</title>
<path fill="none" stroke="midnightblue" d="M95.17,-201.37C80.44,-193.98 61.43,-181.85 51.5,-165 27.32,-123.98 29.6,-65.4 32.82,-35.56"/>
<polygon fill="midnightblue" stroke="midnightblue" points="36.33,-35.66 34.09,-25.3 29.38,-34.8 36.33,-35.66"/>
</g>
<!-- Node3 -->
<g id="node3" class="node">
<title>Node3</title>
<g id="a_node3"><a target="_parent" xlink:href="../../../cieutils/docs/html/IDObject_8hpp.html.html" xlink:title=" ">
<polygon fill="white" stroke="black" points="60.5,-134.5 60.5,-164.5 170.5,-164.5 170.5,-134.5 60.5,-134.5"/>
<text text-anchor="start" x="68.5" y="-152.5" font-family="Helvetica,sans-Serif" font-size="10.00">packages/types/inc</text>
<text text-anchor="middle" x="115.5" y="-141.5" font-family="Helvetica,sans-Serif" font-size="10.00">/IDObject.hpp</text>
</a>
</g>
</g>
<!-- Node1&#45;&gt;Node3 -->
<g id="edge2" class="edge">
<title>Node1&#45;&gt;Node3</title>
<path fill="none" stroke="midnightblue" d="M115.5,-201.48C115.5,-194.47 115.5,-184.19 115.5,-174.7"/>
<polygon fill="midnightblue" stroke="midnightblue" points="119,-174.52 115.5,-164.52 112,-174.52 119,-174.52"/>
</g>
<!-- Node7 -->
<g id="node7" class="node">
<title>Node7</title>
<g id="a_node7"><a target="_parent" xlink:href="../../../cieutils/docs/html/Loggee_8hpp.html.html" xlink:title=" ">
<polygon fill="white" stroke="black" points="189,-134.5 189,-164.5 308,-164.5 308,-134.5 189,-134.5"/>
<text text-anchor="start" x="197" y="-152.5" font-family="Helvetica,sans-Serif" font-size="10.00">packages/logging/inc</text>
<text text-anchor="middle" x="248.5" y="-141.5" font-family="Helvetica,sans-Serif" font-size="10.00">/Loggee.hpp</text>
</a>
</g>
</g>
<!-- Node1&#45;&gt;Node7 -->
<g id="edge7" class="edge">
<title>Node1&#45;&gt;Node7</title>
<path fill="none" stroke="midnightblue" d="M134.56,-201.48C153.58,-192.96 183.41,-179.62 207.78,-168.72"/>
<polygon fill="midnightblue" stroke="midnightblue" points="209.46,-171.8 217.15,-164.52 206.6,-165.41 209.46,-171.8"/>
</g>
<!-- Node4 -->
<g id="node4" class="node">
<title>Node4</title>
<g id="a_node4"><a xlink:href="types_8hpp.html" target="_top" xlink:title=" ">
<polygon fill="white" stroke="black" points="60.5,-67.5 60.5,-97.5 170.5,-97.5 170.5,-67.5 60.5,-67.5"/>
<text text-anchor="start" x="68.5" y="-85.5" font-family="Helvetica,sans-Serif" font-size="10.00">packages/types/inc</text>
<text text-anchor="middle" x="115.5" y="-74.5" font-family="Helvetica,sans-Serif" font-size="10.00">/types.hpp</text>
</a>
</g>
</g>
<!-- Node3&#45;&gt;Node4 -->
<g id="edge3" class="edge">
<title>Node3&#45;&gt;Node4</title>
<path fill="none" stroke="midnightblue" d="M115.5,-134.4C115.5,-126.64 115.5,-116.81 115.5,-107.86"/>
<polygon fill="midnightblue" stroke="midnightblue" points="119,-107.58 115.5,-97.58 112,-107.58 119,-107.58"/>
</g>
<!-- Node4&#45;&gt;Node2 -->
<g id="edge4" class="edge">
<title>Node4&#45;&gt;Node2</title>
<path fill="none" stroke="midnightblue" d="M98.14,-67.4C85.17,-56.86 67.47,-42.48 54.19,-31.69"/>
<polygon fill="midnightblue" stroke="midnightblue" points="56.17,-28.78 46.2,-25.19 51.76,-34.22 56.17,-28.78"/>
</g>
<!-- Node5 -->
<g id="node5" class="node">
<title>Node5</title>
<g id="a_node5"><a xlink:title=" ">
<polygon fill="white" stroke="#bfbfbf" points="91.5,-6 91.5,-25 135.5,-25 135.5,-6 91.5,-6"/>
<text text-anchor="middle" x="113.5" y="-13" font-family="Helvetica,sans-Serif" font-size="10.00">string</text>
</a>
</g>
</g>
<!-- Node4&#45;&gt;Node5 -->
<g id="edge5" class="edge">
<title>Node4&#45;&gt;Node5</title>
<path fill="none" stroke="midnightblue" d="M115.07,-67.4C114.78,-58.06 114.4,-45.71 114.09,-35.52"/>
<polygon fill="midnightblue" stroke="midnightblue" points="117.57,-35.08 113.77,-25.19 110.58,-35.3 117.57,-35.08"/>
</g>
<!-- Node6 -->
<g id="node6" class="node">
<title>Node6</title>
<g id="a_node6"><a xlink:title=" ">
<polygon fill="white" stroke="#bfbfbf" points="153.5,-0.5 153.5,-30.5 269.5,-30.5 269.5,-0.5 153.5,-0.5"/>
<text text-anchor="start" x="161.5" y="-18.5" font-family="Helvetica,sans-Serif" font-size="10.00">packages/traits/impl</text>
<text text-anchor="middle" x="211.5" y="-7.5" font-family="Helvetica,sans-Serif" font-size="10.00">/types_impl.hpp</text>
</a>
</g>
</g>
<!-- Node4&#45;&gt;Node6 -->
<g id="edge6" class="edge">
<title>Node4&#45;&gt;Node6</title>
<path fill="none" stroke="midnightblue" d="M136.33,-67.4C149.79,-58.28 167.5,-46.29 182.35,-36.24"/>
<polygon fill="midnightblue" stroke="midnightblue" points="184.39,-39.08 190.71,-30.58 180.47,-33.28 184.39,-39.08"/>
</g>
</g>
</svg>
